<svg xmlns="http://www.w3.org/2000/svg" viewBox="0 0 833.6 659">
  <title>compare</title>
  <g>
    <path d="M479.9,303.9c17.8,13.5,41.2,8.6,54.2-10.5l-68.9-8.9A46.8,46.8,0,0,0,479.9,303.9Z" transform="translate(-83.9 -193.5)" style="fill: none"/>
    <path d="M524.1,221.1a36.4,36.4,0,0,0-22-7.7,35.3,35.3,0,0,0-9,1.2,39,39,0,0,0-17.9,10.7l59.9,7.7A44.8,44.8,0,0,0,524.1,221.1Z" transform="translate(-83.9 -193.5)" style="fill: none"/>
    <path d="M493,214.7a35.3,35.3,0,0,1,9-1.2,36.4,36.4,0,0,1,22,7.7A44.8,44.8,0,0,1,535,233.1l20.5,2.6c-4.4-12.5-12-23.6-22.3-31.5-26.2-19.8-60.8-11.4-78.6,18.4l20.5,2.6A39,39,0,0,1,493,214.7Z" transform="translate(-83.9 -193.5)"/>
    <path d="M479.9,303.9a46.8,46.8,0,0,1-14.8-19.4L446.4,282c3.8,15.5,12.2,29.4,24.5,38.7a51.2,51.2,0,0,0,31.1,10.8c19.2,0,38-11.3,49.1-32h0c0.7-1.2,1.3-2.5,1.9-3.8L534,293.3C521.1,312.4,497.7,317.3,479.9,303.9Z" transform="translate(-83.9 -193.5)"/>
    <path d="M724.7,257.6L555.5,235.7a80.7,80.7,0,0,1-2.6,60l166.4,21.5c6,0.8,11.4-4.4,12.1-11.5l3.1-33.8C735,264.8,730.7,258.4,724.7,257.6Z" transform="translate(-83.9 -193.5)"/>
    <path d="M453,225.5l1.6-2.8L284.8,200.8c-6-.8-11.4,4.4-12.1,11.5l-3.1,33.8c-0.6,7.1,3.7,13.6,9.7,14.3l167,21.6C441.8,263.5,443.7,242.9,453,225.5Z" transform="translate(-83.9 -193.5)"/>
    <path d="M555.5,235.7L535,233.1c10,15.8,11.3,38,1.8,55.7h0a50,50,0,0,1-2.7,4.5l18.8,2.4A80.7,80.7,0,0,0,555.5,235.7Z" transform="translate(-83.9 -193.5)"/>
    <path d="M461.8,273.1a56.5,56.5,0,0,1,5.4-36.9,47.8,47.8,0,0,1,7.9-10.9l-20.5-2.6-1.6,2.8c-9.3,17.5-11.2,38.1-6.7,56.5l18.8,2.4A55.7,55.7,0,0,1,461.8,273.1Z" transform="translate(-83.9 -193.5)"/>
  </g>
  <path d="M282.6,289.9L371.9,485l89.3,195.1S397.1,770,279,770s-175.1-89.9-175.1-89.9L193.2,485Z" transform="translate(-83.9 -193.5)" style="fill: none;stroke: #000;stroke-linecap: round;stroke-linejoin: round;stroke-width: 40px"/>
  <path d="M718.8,352.4l89.3,195.1,89.3,195.1s-64.2,89.9-182.3,89.9-175.1-89.9-175.1-89.9l89.3-195.1Z" transform="translate(-83.9 -193.5)" style="fill: #870f0f;stroke: #000;stroke-linecap: round;stroke-linejoin: round;stroke-width: 40px"/>
</svg>
