<svg xmlns="http://www.w3.org/2000/svg" viewBox="0 0 880 755.6">
  <title>herd</title>
  <g>
    <path d="M485.6,122.1c-55.3,8.7-105.3,46.5-132,99.8S325.8,340,349.2,394c20.7,47.5,61.7,86,108.1,101.8,31.3,10.6,71.4,10.8,103.4.5,74.9-23.8,127.2-100,127.2-184.8,0-86.6-56.2-163.8-134.8-185.2C534.7,121.4,503.2,119.5,485.6,122.1Z" transform="translate(-64.2 -120.9)" style="fill: #870f0f"/>
    <path d="M270,151.4c-50.2,10.6-86.9,43.3-103.2,91.9-13.3,39.2-10.4,79.3,8.1,116.4,26.3,52.8,84.1,82.3,139,70.8,7.9-1.8,15.7-3.9,17-4.6s1.1-4.4-3.9-15.4c-15.2-33-21.4-62.4-21.4-99.5,0.2-47.7,13.3-90.1,39.4-128.1,4.9-6.9,8.8-13.3,8.8-14,0-2.5-26-13.4-38-16.1S278.3,149.9,270,151.4Z" transform="translate(-64.2 -120.9)"/>
    <path d="M695.1,153.9a183,183,0,0,0-22.4,7.8l-9.5,4.4,9.4,13.1c18.9,26.3,33.4,61.1,39.2,93.8,3.5,20.3,3.4,57.6-.2,79a241.2,241.2,0,0,1-19.4,60.8c-3.4,7.4-6,14-5.5,14.3s6.5,2.1,13.8,3.5c39,8.3,82.7-4.9,112.5-34.5,41.3-40.6,54.2-105.3,32-160.6-13.6-34.3-41.3-62.9-72.8-75.8C747.9,149.9,718.9,147.7,695.1,153.9Z" transform="translate(-64.2 -120.9)"/>
    <path d="M145.6,451.8c-6.4,1.2-17.3,5.1-24.6,8.7-17.3,8.1-37.8,28.4-45.9,45.1-10.2,21-11,27.6-11,118.7v82.7H178.7l0.7-36.6c0.9-33.4,1.4-38.2,5.7-52.6A168.2,168.2,0,0,1,302.4,503.4c11.3-3.2,20.7-3.9,55.8-4.8l42.4-1.1L390,489.6c-5.7-4.2-15.9-13.6-22.8-20.5l-12.4-12.7-15.9,5.5c-15.5,5.5-16.6,5.5-48.6,5.7-36.9,0-47.2-1.9-67.1-12.5l-11.3-6-27.6.2C168.1,449.1,152.4,450.2,145.6,451.8Z" transform="translate(-64.2 -120.9)"/>
    <path d="M790.3,455.1c-16.6,8.8-29.3,11.7-57.1,12.7s-45.6-1.1-60.4-6.7l-8.8-3.4-14.1,14c-7.8,7.6-17.8,16.8-22.4,20.1l-8.3,6.2,40.1,0.9c45.8,0.9,54.6,2.6,82.5,16.3,41,20,71.2,56.4,85,102.5,4.2,14.5,4.8,19.3,5.7,52.5l0.7,36.7H944.2L943.7,618l-0.5-88.7-4.6-11.7a157.6,157.6,0,0,0-9.5-20.3c-7.1-12.2-24.6-28.8-37.5-35.7-19.1-10.1-25.1-11.3-58.8-12l-30.9-.5Z" transform="translate(-64.2 -120.9)"/>
    <path d="M319.5,527.6c-30,5.5-49.8,16.3-73.3,39.8-14.5,14.3-18.2,19.3-25.1,33.6-15.2,30.7-14.3,22.8-15,156.9l-0.7,118.7H806.2V763.8c-0.2-121.4-.5-127.4-9.5-151.2-15-39.6-48.4-70.3-89.8-82.5-11-3.2-18.7-3.9-51.9-4.6l-38.9-.9L602,531.6c-28.4,14.1-54.6,19.8-92.6,19.8-13.6,0-30.9-1.2-39.2-2.6-17.8-3-42.8-11.5-55.5-18.7l-9-5.1-36.9.2C346.7,525.1,326.9,526.2,319.5,527.6Z" transform="translate(-64.2 -120.9)" style="fill: #870f0f"/>
  </g>
</svg>
