<svg xmlns="http://www.w3.org/2000/svg" viewBox="0 0 658.9 800.4">
  <title>hotspots</title>
  <path d="M292.1,439.7a560.2,560.2,0,0,1-20.7-74.3c-57.6,36.3-87.8,120.5-87.8,188.6,0,176,145.1,319.1,323.5,319.1,86.4,0,167.6-33.2,228.7-93.4s94.8-140.4,94.8-225.7c0-33.4-4.4-118.6-45.1-187.4l-0.2-.5c-13.4-26.9-23.6-50.6-32.1-104.7-69.2,23.9-97.8,88.1-84.6,191l2.9,22.5L654.6,459C575.9,385.4,541.4,263.6,549.3,87,444.9,121.5,383.1,191.5,365.5,295.3c-15.1,89.3,6,184.1,17.4,234.9q2.9,12.8,4.8,22.1l3.5,17.5-15.8-9c-33.4-19-61.4-59.8-83.4-121.2h0ZM438.7,606.1c-1.8-7.2-3.8-14.8-5.9-22.5-17.4-66.8-39-149.9-37.5-230.6,0.9-44.4,9-83.5,24.2-116.2,17.8-38.3,45.8-69.3,83.1-92.2l12.7-7.8v14.6c0,105.5,18.4,194.9,53.1,258.6S652.9,508.7,715,512.2c-13.6-47.7-21.6-128.5,1.7-174.5l9.2-18.2,6.2,19.4c3,9.6,8.8,22.3,15.5,37,19.2,42.2,48.1,105.9,48.6,178.1v0.6c-6.6,79.1-38.3,150.9-89.4,202.4A272.8,272.8,0,0,1,618,817c-34.5,14.4-71.7,21.7-110.7,21.7-77.5,0-149.6-28.7-202.8-80.8s-84.1-124.7-86.2-203.8c-0.9-31.8,17.8-98.9,31.1-112l9.3-9.2,4.4,12.2,3.4,9.9c16.3,47.8,50.1,145.8,172.2,151.2h0Z" transform="translate(-177.7 -78.6)" style="stroke: #000;stroke-miterlimit: 10;stroke-width: 12px"/>
  <path d="M510.4,805.7c-67,0-129.1-24.7-174.8-69.4S263.2,628.6,261.4,560a99.3,99.3,0,0,1,1.1-14.7c29,50,81,103.5,177.6,107.7l53.9,2.4-13.5-52.7c-1.8-7.2-3.7-14.6-5.8-22.4-16.8-64.4-37.6-144.5-36.2-219.6,0.8-38.9,7.7-72.6,20.5-100.1A168.3,168.3,0,0,1,481,225.2c6.5,83.6,25.3,155.6,55.5,210.9,41.6,76.2,103.7,118.8,179.3,123.1l43.3,2.5c-6.4,68.4-33.9,130.1-77.6,174.2a233,233,0,0,1-75.9,51.2C576.1,799.5,544.1,805.7,510.4,805.7Z" transform="translate(-177.7 -78.6)" style="fill: #870f0f"/>
</svg>
