<svg xmlns="http://www.w3.org/2000/svg" xmlns:xlink="http://www.w3.org/1999/xlink" viewBox="0 0 970.8 729.3">
  <defs>
    <clipPath id="a" transform="translate(-10.6 -178.9)">
      <path d="M272,278l95,207.5,95,207.5s-68.3,95.6-193.9,95.6S81.9,693.1,81.9,693.1l95-207.5Z" style="fill: none"/>
    </clipPath>
    <clipPath id="b" transform="translate(-10.6 -178.9)">
      <path d="M725.7,343.9l95.4,208.4,95.4,208.4s-68.5,96-194.7,96-187-96-187-96l95.4-208.4Z" style="fill: none"/>
    </clipPath>
  </defs>
  <title>intl_compare</title>
  <path d="M272,278l95,207.5,95,207.5s-68.3,95.6-193.9,95.6S81.9,693.1,81.9,693.1l95-207.5Z" transform="translate(-10.6 -178.9)" style="fill: none;stroke: #000;stroke-linecap: round;stroke-linejoin: round;stroke-width: 40px"/>
  <path d="M725.7,343.9l95.4,208.4,95.4,208.4s-68.5,96-194.7,96-187-96-187-96l95.4-208.4Z" transform="translate(-10.6 -178.9)" style="fill: none;stroke: #000;stroke-linecap: round;stroke-linejoin: round;stroke-width: 40px"/>
  <g style="clip-path: url(#a)">
    <polygon points="252 409.6 237.9 566.3 236.7 578.4 208.9 591.7 211.4 609.8 377.5 582 431.9 518.6 411.9 464.8 381.9 386 252 409.6" style="fill: #870f0f"/>
    <path d="M370.7,562.2c-23.6,2-54.3,7-104.3,16.8-82,16-108.1,19.5-148,19.5-36.5,0-64.2-3.9-91.5-13.3-7-2.3-13.6-4.2-14.6-4.2s-1.9,16.2-1.6,89.3l0.4,89.4,14.6,4.8c33.8,11.4,72.9,16,113.5,13.4,36.2-2.2,54.3-5,125.7-19,127.8-24.9,170.7-25.1,246.2-.4,2.3,0.7,2.6-.3,2.2-12l-0.4-12.7-7.3-2.8c-12.8-5.1-39.8-11.4-58.1-13.9-13.9-1.9-25.2-2.2-51.3-1.6-35.7.9-59.7,3.6-105.7,12.7-12.4,2.3-23.5,4.4-24.4,4.4s-1.9-3.4-1.9-12.3c0-10.5.4-12.4,2.6-13.1,13.4-3.9,78.3-14.4,105.3-16.8,49.9-4.7,99.2,1.5,139.7,16.9,1.5,0.6,1.8-2,1.5-12.1l-0.4-13-16-5.4c-54-17.9-111-18.1-204.5-.3-14.6,2.8-27,5-27.4,5s-0.6-5.7-.4-12.7l0.4-12.7,13.1-2.6c106.2-21.6,175.6-20.9,233.1,2.5,2.2,0.9,2.5-.1,2.5-11.5s-0.1-12.5-3.9-14.6c-13.6-6.9-50.5-14.9-80.2-17.2-35.3-2.8-84.2,1.9-141.9,13.3-11.7,2.3-21.7,3.8-22.3,3.2s-1-6.3-.7-12.7l0.4-11.5,23.3-4.7c44.3-8.9,73.2-12.4,107.4-13.1,43.3-1,70.7,2.3,101.4,12.7,7,2.5,13.7,4.4,14.7,4.4,2.6,0,2.6-22.3.1-24.5s-28.9-10.2-44.3-13.3C439.1,560.8,404.5,559.3,370.7,562.2ZM248.5,597.1c2.6,0,2.8.3,1,2.5a7.8,7.8,0,0,0-1.6,5.2c0.4,2.2,0,2.6-2,1.9s-3.6.1-5.4,1.6-2.9,2.5-2-.9,0.1-4.1-1.5-5.2-2.2-1.9.7-2.8a8,8,0,0,0,4.1-4.1c0.9-2.8,1-2.8,2.3-.7A5.1,5.1,0,0,0,248.5,597.1ZM33.8,599.3c0,1.3,1.6,3.1,3.6,3.9s3.5,1.9,1.5,3.1-2,2.2-1.3,4.4,0.9,3.1-1.9.7a6.9,6.9,0,0,0-5.8-1.8c-2.6.7-3.1,0.4-2.3-2.2a7,7,0,0,0-1.2-5.4c-1.8-2.2-1.6-2.3,1.3-1.5s3.2,0.4,3.2-1.2,0.7-2.3,1.5-2.3S33.8,598.1,33.8,599.3Zm172.4,6.1c1.5-.4,2.6-0.1,2.6.6a1.5,1.5,0,0,1-1.6,1.3c-1,0-1.5,1.8-1,4.2s0.3,4.2-2.2,2.9-3.5-.9-5.7,1.2-3.1,2.6-2.2-1.2,0.3-4.2-1.6-5-2-1.2.9-2.3a8.3,8.3,0,0,0,4.4-4.5l0.7-3.2,1.6,3.4C203,605,204.4,605.8,206.2,605.4ZM76.5,608.8c0.4,1.9,2,2.9,4.2,2.9s3.2,0.1.7,2.2a4,4,0,0,0-1.8,5.1c0.9,2.9.7,3.1-2,1.5a9.7,9.7,0,0,0-6-.7c-2.2.7-2.5,0.3-1.9-2.2a4.5,4.5,0,0,0-1.9-5.1c-2.6-2-2.5-2,1.3-2.2s3.9-.7,3.9-2.2C73.1,604.8,75.6,605.4,76.5,608.8Zm87.5,2.9c2.3,0,2.5.4,1,2.2a6.2,6.2,0,0,0-1,5.1c0.6,2.5.3,2.6-2.2,1.3s-3.4-1.2-4.5,0-4.2,1.9-3.2-1.2a3.4,3.4,0,0,0-1.8-4.4c-2.3-1.3-2.2-1.6,1.5-2.9s3.9-2.6,4.1-4.1,0.3-2,1.6.6S162.4,611.7,164,611.7Zm-45.6-.7c0,1.5,1.5,2.2,3.9,2.2s3.6,0.1,1.3,2.8a6,6,0,0,0-1.6,6c0.9,2.8.7,2.9-2,1.2s-3.6-1.5-6.1,0-2.9,1.6-2-1.2a6,6,0,0,0-1.6-6c-2.3-2.6-2.3-2.8,1.3-2.8s3.9-.7,3.9-2.2,0.7-2.2,1.5-2.2S118.4,609.8,118.4,610.9Zm105.5,7.1c0.6,1.3,2,1.8,4.2,1.3s3.4-.9.6,2.2-2.3,4.1-1.8,5.4,0.1,2.2-2.2,1.5a6.1,6.1,0,0,0-5.8,1.6c-2.9,2.6-2.9,2.6-2-1.2s0.3-4.2-1.5-5.2-2-1.5,1.3-2.3,3.8-1.9,3.8-3.1C220.5,615.5,222.8,615.5,223.8,618.1ZM58.7,626.3c3.2,0,3.6,2.2.7,3.4-1.3.6-1.8,2-1.3,4.2s0.7,3.2-1.9.9-3.4-2-5.5-.9-2.6,1.2-1.9-1.9a6.4,6.4,0,0,0-1.3-5.8c-2.2-2.3-2-2.5.6-1.8s3.2-.1,4.1-2.8l1-3.4,1.3,3.9C55.4,624.8,57,626.3,58.7,626.3Zm126.3,0c3.6,0,3.6.1,1.3,2.8s-2,3.6-1.5,5.1,0.3,2.3-2.8,1.6-4.1-.3-4.5.6c-1.8,2.8-3.5,1.8-2.8-1.3a4.6,4.6,0,0,0-1.9-5.1c-2.6-2-2.6-2,1-2.2s4.2-1,5-3.4,1.2-2.8,1.8-.7S182.7,626.3,185,626.3Zm-84,5.7c2.9,1,2.9,1.2.7,2s-2.2,1.9-1.6,3.9-1.3,4.1-2.9,1.5c-0.6-1-1.9-.9-3.8.1s-2.9,1.2-2.5-1.3a6.9,6.9,0,0,0-1.6-5.1c-1.8-2.2-1.6-2.5,1-2.5a4.5,4.5,0,0,0,4.1-3.2l1-3.4,1.2,3.4A9.4,9.4,0,0,0,101,631.9Zm42.3-1.3c3.1,0,3.1.1,0.7,2.8s-2,3.6-1.5,5.1-1,3.1-3.4.7-1.9-1.2-2.5,0-4.1,1.9-3.5-1a4.7,4.7,0,0,0-1.8-4.2c-1.9-1.6-1.9-1.8.4-1.9s3.4-1.8,4.2-3.8c1.8-3.6,1.8-3.6,2.9-.7A4.4,4.4,0,0,0,143.3,630.6Zm105.3,2.9c2.5,0,2.6.3,0.9,2.5a6.6,6.6,0,0,0-1.6,5c0.3,1.9-.3,2.3-2.6,1.8a6.8,6.8,0,0,0-5.2,1.2c-2.2,1.8-2.3,1.6-1.5-1.2s0.3-3.6-1.6-4.7-2.3-1.6.7-2.5a6.8,6.8,0,0,0,4.2-4.7c0.9-3.8.9-3.8,2.3-.6S247,633.5,248.6,633.5ZM36.8,638.9c2.9,0.9,3.8,3.4,1.2,3.4-1,0-1.3,1.5-.6,3.9s0.9,3.9-2,1.3a5.9,5.9,0,0,0-5.7-1.6c-2.5.7-2.8,0.3-2.2-2.2a7,7,0,0,0-1.8-5.8c-2.3-2.6-2.3-2.6.7-1.9s3.8,0,5-1.9,1.6-2.6,2,.7S35.2,638.7,36.8,638.9Zm169.3,1.9c2.6,0,2.8.3,1,2.5a6.9,6.9,0,0,0-1.6,5.1c0.4,2.3,0,2.8-2.6,1.9a5.9,5.9,0,0,0-5.4,1c-2,1.6-2.2,1.5-1.3-1.3s0.3-3.6-1.6-4.7-2.3-1.6.6-2.5a6.6,6.6,0,0,0,4.2-3.9c0.9-2.6,1-2.6,2.3-.6A5.1,5.1,0,0,0,206.2,640.8Zm-41.3,5.8c3.2,0.1,3.5.3,1.3,1.6s-2.6,3.1-2.6,5-0.6,3.2-2.9,2.6a6.8,6.8,0,0,0-5.2,1.2c-2.2,1.8-2.3,1.6-1.5-1.3s0.4-3.9-1.6-5.4-2.5-2,.6-2.2,3.6-1.2,4.2-3.9,1-3.9,2.5-.7A5.5,5.5,0,0,0,164.9,646.7Zm-88.4-1.5c0.4,1.9,2,2.9,4.2,2.9s3.1,0.3.7,1.6-2.5,2.6-1.8,5.4,0.9,3.8-1.9,1.2-3.6-2.2-5.8-1-2.8,1.2-2.2-1.3a6.2,6.2,0,0,0-1-5.1c-1.5-1.9-1.3-2.2,1.3-2.2s3.1-.9,3.1-2.2C73.1,641.3,75.6,641.9,76.5,645.2Zm41.9,2.2c0,1.5,1.5,2.2,4.1,2.2s3.8,0.1,1.2,2.2a4.6,4.6,0,0,0-1.9,5.1c0.9,3.2-.4,3.8-3.1,1.2s-2.2-1.3-3.5,0-3.9,2-3.1-1.2a4.6,4.6,0,0,0-1.9-5.1c-2.6-2-2.5-2,1.3-2.2s3.9-.7,3.9-2.2,0.7-2.2,1.5-2.2S118.4,646.2,118.4,647.4Zm105,5.8c0,1.3,1.3,2.2,3.1,2.2s2.8,0.4,1.3,2.2a6.3,6.3,0,0,0-.7,5.2c0.9,2.6.6,2.9-2,2a8.5,8.5,0,0,0-5.7.6c-2.5,1.3-2.6,1-2-2s0-3.6-1-3.6c-2.8,0-1.8-2.5,1.3-3.4s2.9-1.8,2.9-3.1,0.7-2.3,1.5-2.3S223.4,652.1,223.4,653.2ZM59.7,662.7c2.2,0.1,2.2.3,0.3,1.9a4.7,4.7,0,0,0-1.8,4.2c0.6,2.8-1.9,3.6-3.4,1.2-0.6-.9-2.3-1.2-3.9-0.6s-2.9.4-2-1.6,0-3.8-1.6-5.5-2.5-2.9.6-2.2,3.5,0.1,4.2-2.2,1-2.8,3.1.9S58.3,662.7,59.7,662.7Zm125.1,0c1.8,0,2,.4.9,1.9s-1.2,3.4-.7,5.2,0.6,3.2-2,1.9-3.6-1-5.8.4-3.1,1.9-2.2-1a4.4,4.4,0,0,0-1.9-5c-2.6-1.9-2.6-2,.4-2s3.8-1.3,4.8-4.1,1.6-3.9,2.9-.7S183.6,662.7,184.9,662.7ZM101,667.1c2.8,0,2.9.3,1.2,2.5a6.9,6.9,0,0,0-1.6,5.1c0.4,2.5.1,2.6-2.6,1.2s-3.6-1.2-5.4.3-2.3,1.5-1.5-1.6,0.1-4.2-1.6-5.4-2.2-1.9.7-2a4.5,4.5,0,0,0,4.2-3.2l1-3.4,1.2,3.4A4.8,4.8,0,0,0,101,667.1Zm42.4,0c3.1,0.1,3.1.3,0.9,2a4.4,4.4,0,0,0-1.6,5.1c0.7,3.1.6,3.2-2.3,1.6s-3.8-1.3-5.5.3-2.3,1.5-1.6-1.5,0.3-3.6-1.2-4.2c-3.1-1.2-2.5-3.4.7-3.4a4.3,4.3,0,0,0,3.9-3.2l1-3.4,1.2,3.4A4.7,4.7,0,0,0,143.5,667.1Zm105.3,2c2.9-.9,2.9-0.7.6,1.6s-2,3.5-1,6.1,1,3.4-1.8,1.8-3.6-1-6,1.2-3.1,2.6-2.2-.9,0.1-4.2-1.6-5.4-2.2-1.9.7-2,3.6-1.2,4.2-3.9,1-3.9,2.5-.7S246.6,669.9,248.8,669.1ZM34.2,671.5a7.5,7.5,0,0,0,4.2,4.2c3.1,1.2,3.1,1.5.7,2.3s-2.5,2-1.8,5,0.9,3.6-2,1-4.2-2.3-5.7-2-2.6.1-2-2-0.6-4.1-2-5.8-2.8-3.1,1.3-2,3.9,0.4,3.9-1.3S33.3,668.1,34.2,671.5Zm172.1,5.8c2.3,0,2.5.4,1,2.2a6.2,6.2,0,0,0-1,5.1c0.9,3.2,0,3.6-3.4,1.5-1.5-.9-3.1-0.6-5,1.2s-2.8,2.3-1.9-1,0.1-4.2-1.6-5.4-2.2-1.9.7-2,3.6-1.2,4.2-3.9,1-3.9,2.5-.7S204.7,677.3,206.3,677.3ZM164,683.1c2.3,0,2.5.4,1,2.2a6.2,6.2,0,0,0-1,5.1c0.9,3.2-.4,3.8-3.1,1.2s-2.5-1-4.8,1.2l-3.2,2.8,1-3.9c0.6-2.9.3-4.4-1.6-5.4s-2.3-1.5.6-1.6,3.6-1.2,4.2-3.9,1-3.9,2.5-.7S162.4,683.1,164,683.1ZM76.1,681c0,1.2,1.3,2.2,2.9,2.2,3.2,0,3.9,2.2,1.3,3.8-0.9.4-1.3,2.2-.9,3.6,0.9,3.1-.4,3.6-2.9,1.2s-2.5-1.2-4.8.1-3.1,1.5-2.2-1.5,0.1-4.1-1.8-6.1-2.6-3.1.7-2.2,3.6,0,4.2-1.3S76.1,678.2,76.1,681Zm46.2,5.1c1.8,0,1.9.4,0.4,2.2a6.1,6.1,0,0,0-.7,5.1c0.9,2.9.7,3.1-2,1.6a5.3,5.3,0,0,0-6-.1c-2.8,1.5-2.9,1.3-2-2s0.1-3.9-1.9-5.1-2.3-1.5.7-1.6,3.8-1,4.4-3.2l0.7-3.2,2.2,3.2C119.2,684.6,121.1,686.1,122.3,686.1Zm101.1,3.8c0,1.9.9,2.2,3.9,1.3s3.9-.9,1.3,2-2.3,3.9-1.6,6,0.7,3.1-2.2,1.5-3.6-1.2-6.1,1-3.1,2.6-1.9-.7,0.3-3.9-1.8-5.4-2.5-2,.7-2.2,3.8-1,4.2-2.9C220.9,686.9,223.4,686.5,223.4,689.8ZM59.1,698.3c2.8,0.9,2.8,1,.6,2.3s-2,2.5-1.5,4.7,0.6,3.1-1.6,1.3a7.1,7.1,0,0,0-5.4-1.2c-2.3.6-2.9,0.1-2.6-1.8a6.6,6.6,0,0,0-1.6-5c-1.8-2.2-1.6-2.5,1.2-2.5s3.6-1.2,4.1-2.5,1.2-2,2.3.6A7.5,7.5,0,0,0,59.1,698.3Zm126.6-.1c3.2-.9,3.2-0.9.7,2s-2.2,3.9-1.6,5.5,0.4,2.3-2.2,1.5a6.1,6.1,0,0,0-6,1.5c-2.6,2.3-2.6,2.3-1.9-.6a6.9,6.9,0,0,0-1-5.4c-1.6-1.9-1.5-2.3,1-2.9a6.8,6.8,0,0,0,4.1-3.9l0.9-3.2,1.3,3.2C182.1,698.2,183.1,698.7,185.8,698.2Zm-84.3,5.4c2.8,0.1,2.9.3,0.6,2s-2.2,2.9-1.6,5.4,0.7,3.2-1.5,1.6a5.9,5.9,0,0,0-5.4-1c-2.6.9-3.1,0.4-2.6-1.9s-0.6-3.9-1.8-5.4-1.9-2.6,1-1.9,3.5,0.1,4.2-2.3l1-3.1,1.5,3.2A5.5,5.5,0,0,0,101.4,703.6Zm42.2-.6c2.5-.6,2.6-0.4.4,1.9a6.3,6.3,0,0,0-1.3,6c0.9,3.4.7,3.5-1.6,1.6s-3.1-1.9-5.5-.3-2.9,1.6-2.2-1.2-0.3-3.8-2.3-5.2-3.1-2.2.7-2.2,4.1-1,4.7-3.4l1-3.2,1.6,3.4C140.2,702.7,141.7,703.6,143.6,703Zm104.9,2c2.6,0,2.8.3,1,2.5a6.9,6.9,0,0,0-1.6,5.1c0.4,2.3-.1,2.8-2.3,2s-3.4-.3-3.9.6c-1.6,2.6-3.9,1.6-2.9-1.3a3.3,3.3,0,0,0-1.6-4.2c-2.3-1.3-2.2-1.5.6-2.3a7.9,7.9,0,0,0,4.1-4.1c0.9-2.8,1-2.8,2.3-.7A5.1,5.1,0,0,0,248.5,705ZM33.8,707.2c0,1.3,1.6,3.1,3.6,3.9s3.5,1.9,1.5,3.1-2,2.2-1.3,4.4,0.9,3.1-1.9.7a6.9,6.9,0,0,0-5.8-1.8c-2.6.7-3.1,0.4-2.3-2.2a6.5,6.5,0,0,0-1-5.2c-1.5-1.9-1.3-2.2,1.3-2.2s3.1-.7,3.1-1.5a1.5,1.5,0,0,1,1.5-1.5C33.2,705,33.8,706,33.8,707.2Zm172.7,5.7c2.9-.9,2.9-0.7.6,1.6s-2,3.5-1,6.1,1,3.4-1.8,1.8-3.5-1.2-4.7,0-4.2,1.9-3.2-1.2a2.8,2.8,0,0,0-1.8-3.8c-2.3-.9-2.2-1.2.7-2.3a8.3,8.3,0,0,0,4.4-4.5l0.7-3.2,1.5,3.2C203.1,713,204.3,713.6,206.5,712.9Zm-130,3.8c0.4,1.9,2,2.9,4.2,2.9s3.2,0.1.7,2.2a4,4,0,0,0-1.8,5.1c0.9,2.9.7,3.1-2,1.5a9.7,9.7,0,0,0-6-.7c-2.2.7-2.5,0.3-1.9-2.2a4.5,4.5,0,0,0-1.9-5.1c-2.6-2-2.5-2,1.3-2.2s3.9-.7,3.9-2.2C73.1,712.7,75.6,713.3,76.5,716.7Zm87.4,2.5c2.9-.9,3.6,1.2,1,2.8-0.9.4-1.3,2.5-.9,4.4s0.1,3.2-2,1.9-3.8-.9-6,0.3-2.9,1.3-2-.9a5.4,5.4,0,0,0-1.5-5.2c-2.3-2.6-2.3-2.8.7-2.8a4.1,4.1,0,0,0,4.2-3.2l0.7-3.2,1.6,3.4C160.7,718.7,162.1,719.6,163.9,719.2Zm-45.5-.3c0,1.5,1.5,2.2,3.9,2.2s3.6,0.1,1.3,2.8A6.2,6.2,0,0,0,122,730c1,3.1.9,3.1-2.3,0.9s-3.5-2.2-6.1.1-2.8,2.3-1.8-.9,0.1-4.2-1.6-6.3-2.3-2.8,1.3-2.8,3.9-.7,3.9-2.2,0.7-2.2,1.5-2.2S118.4,717.7,118.4,718.9Zm109.1,8c3.6,0.1,3.8.3,1.3,2.2a4,4,0,0,0-1.8,5.1c0.9,2.8.6,3.1-2.2,2.2s-4.1-.1-6,1.6-2.9,2.6-2-1.2,0.3-4.2-1.8-5.2-2.2-1.6,1.3-2.5,4.2-2.3,4.8-4.1,1.2-2.9,1.8-.7S225,726.9,227.5,726.9ZM58.9,734.2c3.1,0,3.5,2.3.6,3.4-1.3.6-1.8,2-1.3,4.2s0.7,3.2-1.9.9-3.4-2-5.5-.9-2.6,1.2-1.9-1.9a6.4,6.4,0,0,0-1.3-5.8c-2.2-2.3-2-2.5.9-1.8s3.4,0,4.1-2.6l0.9-3.5,1.5,3.9C55.6,732.6,57.2,734.2,58.9,734.2Zm126.3,0c3.6,0.1,3.8.3,1.3,2.2s-2.5,2.9-1.8,5-0.6,4.1-3.1,1.6-2.2-.9-3.5.7-4.2,2.8-3.4-.7a4.6,4.6,0,0,0-1.9-5.1c-2.6-2-2.6-2,1-2.2s4.2-1,5-3.4,1.2-2.8,1.8-.7S182.7,734.2,185.2,734.2Zm-83.7,5c2.9,0.9,2.9,1,.4,2.5a3.4,3.4,0,0,0-1.6,4.5c0.7,2.5.4,2.6-1.9,1.5a5.1,5.1,0,0,0-5.4,0c-2,1.2-2.5,1-2-1.5a6.9,6.9,0,0,0-1.6-5.1c-1.8-2.2-1.6-2.5,1-2.5s3.4-1.3,4.1-3.4l1-3.2,1.5,3.2A7.5,7.5,0,0,0,101.4,739.1Zm41.9-.6c3.1,0,3.1.1,0.7,2.8s-2,3.6-1.5,5.1-1,3.1-3.4.7-1.9-1.2-2.5,0-4.1,1.9-3.5-1a4.7,4.7,0,0,0-1.8-4.2c-1.9-1.6-1.9-1.8.4-1.9s3.4-1.8,4.2-3.8c1.8-3.6,1.8-3.6,2.9-.7A4.4,4.4,0,0,0,143.3,738.6ZM248.5,741c3.2-.9,3.5,1.2.4,2.5s-2,1.9-1.3,4.7,0.7,3.6-1.8,2.3-3.4-1-5.5.9-2.6,2.3-2.2-.6a7.3,7.3,0,0,0-1.5-5.4c-1.8-2.2-1.6-2.5,1.2-2.5s3.4-1.2,3.9-3.9l1-3.9,1.5,3.4C245.3,740.6,246.7,741.5,248.5,741ZM36.8,746.9c2.9,0.9,3.8,3.4,1.2,3.4-1,0-1.3,1.5-.6,3.9s0.9,3.9-2,1.3a5.9,5.9,0,0,0-5.7-1.6c-2.5.7-2.8,0.3-2.2-2.2a7,7,0,0,0-1.8-5.8c-2.3-2.6-2.3-2.6.7-1.9s3.8,0,5-1.9,1.6-2.6,2,.7S35.2,746.6,36.8,746.9Zm169.3,1.9c2.6,0,2.8.3,1,2.5a6.6,6.6,0,0,0-1.6,5c0.3,1.9-.3,2.3-2.6,1.8a7.1,7.1,0,0,0-5.4,1.2c-2.2,1.8-2.3,1.8-1.6-1.3s0.1-3.6-1.5-4.7-2-1.5.7-2.3a6.6,6.6,0,0,0,4.2-3.9c0.9-2.6,1-2.6,2.3-.6A5.1,5.1,0,0,0,206.2,748.8Zm-41.3,5.8h3.6l-3.2,2.3c-2.6,1.8-2.9,2.8-1.8,5.1s1.3,2.8-2.2,1.9a6.9,6.9,0,0,0-6,1c-1.9,1.6-2,1.3-1.3-1.9s0.3-3.9-1.8-4.8-2.2-1.3,1-2a5.6,5.6,0,0,0,4.2-4.5L158,748l1.6,3.2A5.4,5.4,0,0,0,164.9,754.6Zm-88.4-1.5c0.4,1.9,2,2.9,4.2,2.9s3.1,0.3.7,1.6-2.5,2.6-1.8,5.4,0.9,3.8-1.9,1.2-3.6-2.2-5.8-1-2.8,1.2-2.2-1.5a6.7,6.7,0,0,0-1.6-5.5c-2.3-2.5-2.2-2.6,1.3-2s3.6,0.1,3.6-1.6C73.1,749.2,75.6,749.6,76.5,753.2Zm41.9,2.3c0,1.3,1.5,2,3.9,2s3.8,0.1,1.2,2a4.3,4.3,0,0,0-1.8,5.1c0.9,3.4-.4,3.9-3.1,1.3s-2.2-1.3-3.5,0-3.9,2-3.1-1.2a4.6,4.6,0,0,0-1.9-5.1c-2.6-2-2.5-2,1.3-2.2s3.9-.7,3.9-3.1,0.7-2.5,1.5-2A3.7,3.7,0,0,1,118.4,755.5Z" transform="translate(-10.6 -178.9)"/>
  </g>
  <g style="clip-path: url(#b)">
    <polygon points="722.3 528.3 708.1 685.6 706.9 697.7 679 711.1 681.4 729.3 848.3 701.4 902.9 637.7 882.8 583.7 852.7 504.6 722.3 528.3" style="fill: #870f0f"/>
    <path d="M731.2,726.9l0.4-11.6,23.4-4.7c44.5-8.9,73.5-12.4,107.8-13.2,43.5-1,71,2.3,101.8,12.7,7,2.5,13.8,4.4,14.8,4.4,2.6,0,2.6-22.4.1-24.6s-29-10.3-44.5-13.3c-28.6-5.9-63.3-7.3-97.2-4.4-23.7,2.1-54.5,7-104.7,16.8-82.3,16.1-108.5,19.6-148.6,19.6-36.6,0-64.4-4-91.8-13.3-7-2.3-13.6-4.2-14.6-4.2s-1.9,16.3-1.6,89.6l0.4,89.8,14.6,4.8c34,11.4,73.2,16.1,113.9,13.5,36.3-2.2,54.5-5,126.2-19,128.3-25,171.4-25.2,247.2-.4,2.3,0.7,2.6-.3,2.2-12l-0.4-12.7-7.3-2.8c-12.9-5.1-40-11.4-58.3-13.9-13.9-1.9-25.3-2.2-51.6-1.6-35.9.9-59.9,3.7-106.2,12.7-12.4,2.3-23.6,4.4-24.5,4.4s-1.9-3.4-1.9-12.3" transform="translate(-10.6 -178.9)"/>
  </g>
  <g>
    <path d="M479,294.2c18.6,14.1,43,9,56.6-11l-72-9.3A48.9,48.9,0,0,0,479,294.2Z" transform="translate(-10.6 -178.9)" style="fill: none"/>
    <path d="M525.2,207.8a38,38,0,0,0-23-8,36.9,36.9,0,0,0-9.4,1.2A40.7,40.7,0,0,0,474,212.2l62.6,8.1A46.8,46.8,0,0,0,525.2,207.8Z" transform="translate(-10.6 -178.9)" style="fill: none"/>
    <path d="M492.8,201a36.9,36.9,0,0,1,9.4-1.2,38,38,0,0,1,23,8,46.8,46.8,0,0,1,11.3,12.5L558,223c-4.6-13.1-12.5-24.7-23.3-32.9-27.4-20.7-63.6-11.9-82.1,19.3l21.4,2.8A40.7,40.7,0,0,1,492.8,201Z" transform="translate(-10.6 -178.9)"/>
    <path d="M479,294.2a48.9,48.9,0,0,1-15.4-20.3L444,271.4c4,16.2,12.7,30.8,25.6,40.5A53.5,53.5,0,0,0,502,323.1c20.1,0,39.7-11.8,51.3-33.4h0c0.7-1.3,1.3-2.6,1.9-3.9l-19.7-2.5C522,303.2,497.7,308.3,479,294.2Z" transform="translate(-10.6 -178.9)"/>
    <path d="M734.8,245.9L558,223a84.4,84.4,0,0,1-2.7,62.7l173.9,22.5c6.2,0.8,11.9-4.6,12.6-12l3.2-35.3C745.7,253.4,741.1,246.7,734.8,245.9Z" transform="translate(-10.6 -178.9)"/>
    <path d="M450.9,212.3l1.6-2.9L275.1,186.5c-6.2-.8-11.9,4.6-12.6,12l-3.2,35.3c-0.7,7.4,3.9,14.2,10.1,15L444,271.4C439.2,252.1,441.2,230.6,450.9,212.3Z" transform="translate(-10.6 -178.9)"/>
    <path d="M558,223l-21.4-2.8c10.4,16.6,11.8,39.8,1.9,58.2h0a52.2,52.2,0,0,1-2.9,4.7l19.7,2.5A84.4,84.4,0,0,0,558,223Z" transform="translate(-10.6 -178.9)"/>
    <path d="M460.1,262.1a59,59,0,0,1,5.7-38.6,50,50,0,0,1,8.2-11.4l-21.4-2.8-1.6,2.9c-9.8,18.2-11.7,39.8-7,59.1l19.6,2.5A58.3,58.3,0,0,1,460.1,262.1Z" transform="translate(-10.6 -178.9)"/>
  </g>
</svg>
