<?xml version="1.0" standalone="no"?>
<!DOCTYPE svg PUBLIC "-//W3C//DTD SVG 20010904//EN"
 "http://www.w3.org/TR/2001/REC-SVG-20010904/DTD/svg10.dtd">
<svg version="1.0" xmlns="http://www.w3.org/2000/svg"
 width="966.000000pt" height="966.000000pt" viewBox="0 0 966.000000 966.000000"
 preserveAspectRatio="xMidYMid meet">
<metadata>
Created by potrace 1.11, written by Peter Selinger 2001-2013
</metadata>
<g transform="translate(0.000000,966.000000) scale(0.100000,-0.100000)"
fill="#000000" stroke="none">
<path d="M5677 9641 c-65 -21 -63 -21 -77 -21 -6 0 -27 -16 -46 -36 -27 -26
-35 -42 -31 -60 2 -13 1 -27 -4 -29 -11 -8 19 -77 49 -111 15 -16 54 -51 87
-76 92 -70 154 -136 163 -171 14 -54 7 -165 -14 -230 -4 -12 -8 -29 -9 -37 -3
-19 -49 -172 -69 -227 -8 -24 -13 -43 -10 -43 2 0 -2 -10 -11 -23 -8 -13 -12
-27 -8 -30 3 -4 2 -7 -3 -7 -5 0 -10 -9 -11 -19 -1 -10 -11 -41 -23 -68 -12
-26 -25 -57 -30 -68 -50 -118 -231 -486 -247 -503 -7 -7 -13 -18 -13 -23 0 -5
-25 -50 -56 -100 -42 -68 -65 -95 -89 -105 -32 -13 -102 -13 -330 1 -38 3
-130 7 -204 10 -91 3 -139 9 -147 17 -14 14 -48 214 -40 234 3 7 1 14 -4 16
-8 3 -18 69 -24 163 -1 22 2 54 7 70 9 30 62 84 83 85 6 0 33 12 60 27 117 64
157 116 134 173 -13 32 -63 68 -104 76 -14 2 -37 9 -52 14 -61 24 -259 34
-351 18 -55 -10 -156 -44 -214 -74 -27 -13 -55 -24 -63 -24 -22 0 -73 -68 -81
-106 -12 -65 27 -95 175 -133 48 -13 95 -32 109 -44 26 -24 57 -86 65 -132 38
-206 47 -300 32 -360 -2 -11 -5 -22 -5 -25 -1 -3 -22 -12 -48 -19 -27 -7 -83
-24 -125 -36 -43 -13 -78 -21 -78 -19 0 3 -8 0 -18 -5 -11 -6 -30 -12 -43 -15
-13 -2 -64 -17 -114 -31 -49 -15 -97 -28 -105 -30 -8 -2 -16 -4 -17 -5 -2 -2
-6 -3 -10 -4 -5 -1 -23 -6 -40 -10 -18 -4 -65 -23 -103 -42 -114 -55 -147 -45
-239 76 -14 19 -33 41 -41 50 -23 25 -82 97 -160 195 -39 50 -78 99 -87 110
-62 75 -235 344 -250 388 -3 9 -9 17 -13 17 -4 0 -13 14 -21 32 -18 43 -15
125 5 147 9 10 16 21 16 25 0 4 18 25 39 46 22 22 37 40 34 40 -2 0 5 12 16
26 26 34 36 86 21 114 -6 12 -28 28 -48 37 -47 19 -169 20 -188 0 -4 -4 -15
-7 -24 -7 -32 0 -181 -69 -255 -118 -99 -66 -194 -157 -216 -207 -18 -42 -18
-130 0 -148 11 -11 81 -15 81 -5 0 3 13 3 29 -2 16 -4 31 -6 33 -4 2 2 40 5
83 8 58 3 87 0 110 -11 35 -18 95 -81 95 -100 0 -7 3 -13 8 -13 4 0 12 -10 18
-23 6 -12 39 -76 73 -142 34 -66 63 -127 65 -135 1 -8 10 -32 19 -54 9 -21 17
-44 17 -50 0 -7 4 -16 8 -21 10 -12 72 -211 88 -280 1 -5 9 -29 18 -53 8 -23
15 -46 16 -50 0 -4 7 -28 15 -53 19 -57 25 -137 13 -164 -5 -11 -41 -42 -79
-69 -117 -84 -185 -143 -344 -303 -120 -121 -134 -126 -212 -66 -161 123 -149
114 -209 169 -54 50 -60 91 -29 185 32 94 30 139 -6 178 -27 29 -59 26 -132
-10 -145 -72 -230 -163 -313 -337 -45 -95 -54 -136 -39 -183 22 -67 67 -71
177 -15 90 46 118 49 198 25 72 -22 168 -102 243 -201 48 -62 48 -62 -48 -208
-111 -169 -131 -203 -216 -378 -66 -136 -90 -175 -112 -185 -37 -18 -335 -14
-517 7 -19 3 -60 7 -90 10 -30 3 -66 7 -80 10 -14 2 -43 7 -65 10 -87 11 -124
18 -215 38 -52 11 -107 27 -122 35 -15 7 -31 14 -35 14 -40 6 -102 41 -120 68
-16 25 -20 42 -27 132 -10 119 -42 178 -97 175 -57 -3 -143 -91 -200 -205 -75
-150 -106 -411 -60 -511 11 -25 21 -41 21 -37 0 5 7 1 16 -7 20 -20 43 -20 72
0 12 8 22 13 22 10 0 -9 70 64 103 106 50 64 112 80 245 62 26 -3 54 -10 62
-14 8 -4 17 -8 20 -7 11 1 90 -28 170 -63 173 -76 640 -317 660 -340 3 -3 21
-17 40 -30 72 -51 70 -46 49 -107 -10 -31 -21 -72 -23 -92 -3 -20 -5 -36 -6
-36 -6 0 -12 -132 -15 -349 -4 -264 -8 -285 -52 -287 -10 0 -27 -2 -38 -4 -46
-10 -144 -19 -201 -19 -48 -1 -67 3 -83 18 -22 20 -51 71 -51 91 0 18 -55 75
-77 79 -35 7 -79 -43 -89 -99 -11 -71 -14 -97 -15 -155 -1 -110 13 -161 74
-277 26 -51 28 -52 69 -50 33 2 43 8 51 27 14 34 14 36 31 105 16 62 52 106
85 100 9 -1 20 0 26 3 11 7 16 8 107 16 36 4 81 9 98 11 72 9 84 -10 125 -205
9 -41 18 -83 21 -92 2 -10 6 -26 8 -35 14 -60 41 -156 58 -208 20 -58 32 -89
65 -165 8 -19 21 -54 30 -78 18 -55 7 -89 -45 -129 -43 -35 -172 -139 -191
-156 -8 -6 -38 -30 -66 -52 -105 -81 -331 -257 -350 -274 -11 -9 -36 -27 -55
-41 -19 -13 -37 -27 -40 -30 -3 -4 -20 -15 -38 -25 -17 -11 -32 -22 -32 -26 0
-4 -8 -9 -17 -13 -19 -6 -54 -27 -63 -37 -5 -5 -31 -18 -135 -64 -37 -17 -103
-38 -170 -54 -22 -5 -40 -1 -66 14 -32 18 -102 71 -133 100 -27 26 -87 67
-121 84 -67 32 -141 -2 -166 -77 -19 -58 3 -259 38 -342 3 -8 7 -20 8 -26 5
-20 38 -88 56 -115 10 -14 16 -28 13 -31 -2 -3 2 -11 11 -18 8 -7 15 -19 15
-26 0 -8 5 -14 10 -14 6 0 10 -5 10 -11 0 -14 79 -133 92 -137 4 -2 8 -8 8
-13 0 -16 103 -111 162 -149 108 -71 183 -74 228 -10 17 24 19 39 14 136 -10
227 -9 257 10 293 29 55 85 104 186 163 121 70 331 174 370 183 3 0 15 6 26
13 12 6 24 8 28 5 3 -3 6 0 6 7 0 7 3 11 6 7 3 -3 26 3 50 13 24 11 44 17 44
14 0 -2 14 2 30 11 17 9 30 13 30 9 0 -4 7 -1 15 6 8 7 15 10 15 7 0 -3 15 0
34 8 18 8 44 16 57 19 13 2 65 19 114 36 50 17 97 33 105 35 8 2 47 15 85 28
89 32 132 39 159 24 24 -14 96 -86 170 -172 28 -32 88 -97 133 -143 132 -133
152 -160 147 -190 -5 -27 -43 -84 -76 -113 -10 -9 -18 -19 -18 -23 0 -3 -8
-14 -17 -25 -10 -10 -32 -34 -50 -52 -17 -19 -37 -38 -45 -44 -22 -17 -74 -17
-115 0 -37 16 -139 23 -151 10 -3 -3 -6 -29 -6 -58 -1 -43 5 -61 35 -107 67
-102 172 -187 285 -230 125 -46 169 -35 160 44 -3 22 -12 56 -22 74 -9 19 -22
57 -30 85 -20 76 -6 114 80 207 17 19 45 52 60 73 43 56 54 59 121 32 32 -13
61 -28 64 -32 10 -14 127 -103 135 -103 4 0 20 -8 34 -19 27 -19 68 -42 157
-91 90 -49 120 -64 125 -65 3 0 39 -15 80 -34 41 -18 94 -41 117 -52 23 -10
47 -27 52 -37 13 -25 21 -72 13 -72 -4 0 -7 -12 -6 -27 1 -16 -1 -32 -4 -38
-3 -5 -7 -16 -8 -25 -2 -24 -14 -110 -25 -180 -6 -36 -12 -76 -14 -90 -2 -14
-6 -41 -10 -60 -3 -19 -8 -48 -10 -65 -2 -16 -4 -30 -5 -30 -1 0 -3 -11 -5
-25 -2 -25 -5 -41 -25 -155 -6 -33 -13 -73 -15 -90 -2 -16 -6 -43 -10 -60 -3
-16 -8 -43 -11 -60 -3 -16 -12 -57 -20 -90 -9 -33 -17 -65 -18 -70 -5 -29 -63
-129 -81 -141 -20 -13 -85 -30 -146 -38 -63 -8 -88 -18 -103 -41 -11 -17 -12
-25 -3 -34 6 -6 8 -11 4 -11 -4 0 2 -18 13 -40 38 -75 254 -184 363 -183 15 0
27 -3 27 -6 0 -4 15 -5 34 -3 18 2 37 -1 40 -7 12 -18 55 -12 89 11 18 13 34
26 35 31 2 4 8 7 12 7 16 0 59 46 52 56 -4 5 -32 28 -62 51 -126 96 -144 133
-123 253 7 41 15 86 17 100 2 14 5 27 7 30 1 3 3 10 4 15 4 26 25 82 86 231 7
16 13 31 13 34 1 3 25 61 55 130 29 69 59 139 66 155 24 57 35 80 70 159 19
43 35 85 35 92 0 8 5 14 11 14 5 0 8 4 5 8 -11 18 51 116 85 134 34 18 43 18
134 -1 144 -30 277 -41 525 -45 91 -2 173 -4 183 -4 21 -2 37 -40 43 -102 13
-133 15 -162 18 -237 l4 -82 -33 -30 c-19 -16 -61 -45 -94 -64 -86 -51 -104
-72 -97 -112 5 -26 15 -37 54 -56 26 -13 49 -26 52 -29 5 -5 16 -8 48 -13 9
-1 22 -5 27 -8 13 -7 240 3 240 11 0 1 8 3 17 5 77 15 234 89 250 119 6 11 15
23 19 26 4 3 1 19 -7 36 -16 33 -64 61 -141 84 -23 7 -51 21 -62 32 -11 10
-24 18 -28 18 -13 0 -43 62 -48 100 -9 72 -16 126 -19 162 -2 20 -7 41 -10 47
-4 6 -3 11 2 11 5 0 8 15 6 33 -3 26 2 39 23 59 30 28 58 36 328 99 94 22 179
43 190 48 218 92 227 92 327 -19 20 -22 76 -87 168 -194 14 -16 32 -36 41 -45
29 -29 224 -275 259 -326 18 -27 38 -53 44 -57 7 -5 7 -8 1 -8 -6 0 -5 -3 1
-8 11 -7 144 -206 144 -216 0 -3 14 -25 30 -50 39 -57 63 -114 63 -146 -1 -74
-4 -81 -64 -142 -88 -91 -134 -203 -100 -246 17 -23 101 -47 101 -30 0 7 5 6
13 -1 8 -6 16 -9 18 -6 3 2 31 6 64 9 56 6 100 12 100 16 0 1 8 3 17 5 19 3
169 79 208 104 48 31 65 41 80 48 8 4 17 9 20 13 3 3 25 20 50 37 25 17 56 44
70 59 32 37 62 84 54 84 -4 0 0 7 7 16 7 9 14 21 16 28 1 6 5 23 8 39 4 21 0
33 -21 52 -15 14 -30 22 -35 20 -4 -3 -11 0 -14 6 -4 5 -13 8 -21 5 -7 -3 -15
-2 -18 3 -3 4 -24 6 -48 4 -213 -14 -232 -10 -298 58 -49 50 -142 219 -184
334 -15 39 -30 79 -35 90 -5 11 -23 61 -41 110 -17 50 -38 104 -45 120 -7 17
-23 64 -35 105 -12 41 -26 86 -31 100 -5 14 -10 34 -12 45 -2 11 -8 30 -15 41
-6 12 -9 23 -7 26 3 2 0 20 -6 39 -11 38 -11 38 -36 129 -10 36 -21 70 -24 75
-4 6 -5 26 -3 45 2 28 15 46 68 96 36 34 84 77 107 95 22 19 58 51 80 71 21
21 41 38 43 38 2 0 24 19 48 43 128 122 159 147 189 147 16 0 29 -4 29 -10 0
-5 7 -10 15 -10 8 0 15 -4 15 -8 0 -4 12 -15 28 -24 15 -9 38 -26 52 -38 14
-12 45 -39 70 -60 25 -21 55 -47 67 -57 11 -10 38 -32 60 -50 70 -57 80 -68
89 -93 4 -14 7 -28 6 -31 0 -4 -3 -17 -6 -30 -2 -13 -18 -60 -35 -104 -66
-171 -26 -258 109 -233 111 20 185 72 320 223 143 162 209 288 211 408 1 48
-6 70 -38 116 -7 11 -83 16 -104 8 -13 -6 -29 -11 -35 -12 -6 -2 -43 -21 -81
-43 -99 -56 -155 -66 -222 -40 -24 9 -114 73 -151 108 -9 8 -52 47 -95 85
-119 105 -118 104 -118 156 0 9 32 61 71 117 40 55 77 112 83 126 7 14 17 26
22 26 6 0 8 3 4 6 -3 3 10 32 29 64 18 32 38 68 44 81 5 13 14 31 19 39 5 8
28 54 50 102 37 79 69 117 94 110 5 -1 41 -5 80 -7 40 -3 90 -7 112 -9 56 -6
184 -18 220 -21 33 -3 158 -16 190 -20 11 -1 47 -6 80 -9 33 -4 68 -10 77 -12
10 -3 30 -7 45 -10 16 -2 49 -9 74 -15 26 -6 53 -12 60 -13 108 -22 342 -90
363 -107 28 -22 46 -81 52 -170 2 -38 9 -80 14 -94 5 -14 9 -29 9 -33 -1 -4 0
-10 1 -14 1 -5 4 -11 5 -15 13 -45 30 -73 43 -74 10 0 27 -2 40 -3 12 -2 22 1
22 5 0 4 8 5 19 2 19 -5 75 37 116 86 72 86 153 251 158 322 1 16 5 29 10 29
4 0 6 3 5 8 -2 6 11 92 17 112 29 105 29 182 2 255 -22 58 -29 80 -25 80 2 0
-7 15 -20 33 -51 71 -136 27 -252 -130 -19 -26 -43 -50 -52 -53 -10 -4 -18
-11 -18 -16 0 -6 -5 -7 -10 -4 -6 3 -12 0 -15 -7 -6 -15 -36 -21 -105 -20 -73
1 -120 7 -120 14 0 4 -8 6 -17 6 -19 -1 -212 63 -278 92 -22 10 -69 31 -105
46 -58 26 -398 195 -525 262 -111 59 -154 113 -141 180 28 136 37 240 41 459
2 149 6 188 19 208 9 14 22 25 29 26 6 0 21 2 32 5 11 2 38 7 60 10 22 3 51 8
65 10 14 3 41 7 60 9 200 25 238 9 310 -131 37 -73 89 -128 123 -130 48 -3
106 68 123 149 21 99 24 216 9 313 -6 41 -9 74 -7 74 2 0 -1 7 -8 15 -7 8 -10
15 -7 15 3 0 -5 27 -18 61 -72 183 -146 233 -219 148 -19 -23 -34 -44 -33 -48
2 -6 -16 -71 -40 -138 -16 -48 -65 -89 -114 -98 -124 -23 -365 -37 -391 -23
-10 4 -22 18 -28 29 -11 19 -44 134 -60 209 -36 160 -130 469 -151 495 -4 6
-11 29 -15 51 -5 37 -3 43 33 80 22 21 58 54 81 72 22 19 51 43 64 54 13 11
34 29 48 41 35 30 141 119 164 137 10 8 23 20 30 25 42 39 203 152 301 212 67
41 139 70 192 77 31 4 90 -26 138 -69 67 -60 130 -82 177 -61 58 26 47 206
-21 346 -59 120 -171 254 -270 320 -52 35 -95 30 -118 -13 -12 -24 -14 -47 -9
-106 14 -149 5 -190 -49 -244 -28 -28 -160 -108 -160 -97 0 2 -16 -4 -35 -13
-53 -25 -272 -109 -278 -107 -1 0 -15 -6 -30 -14 -29 -15 -286 -104 -324 -112
-12 -3 -33 -7 -45 -10 -12 -2 -34 -9 -48 -14 -15 -6 -43 -10 -63 -10 -30 0
-43 8 -84 52 -26 29 -48 56 -48 61 0 12 -59 84 -163 200 -16 18 -88 92 -159
165 l-130 132 17 28 c10 15 22 32 29 37 6 6 16 18 21 26 106 167 140 191 220
158 17 -7 32 -13 35 -14 3 -1 13 -5 24 -10 13 -6 21 -3 28 8 6 12 14 14 33 7
19 -7 26 -5 38 13 8 12 13 30 11 39 -4 33 -64 126 -103 161 -45 40 -186 137
-200 137 -5 0 -11 4 -13 9 -7 22 -63 18 -93 -7 -35 -29 -40 -53 -21 -95 43
-92 49 -159 20 -208 -8 -15 -90 -111 -122 -145 -32 -33 -59 -28 -160 32 -53
31 -98 61 -100 66 -2 4 -12 8 -22 8 -10 0 -20 4 -22 8 -1 5 -45 33 -96 63 -51
30 -110 64 -130 77 -20 13 -45 25 -54 29 -10 3 -18 9 -18 13 0 5 -13 11 -30
15 -16 4 -32 11 -35 16 -4 5 -14 9 -24 9 -10 0 -28 11 -40 24 -22 23 -23 29
-16 138 3 62 8 149 11 193 8 141 14 219 18 245 4 22 12 77 21 147 2 13 6 40 9
60 3 21 8 58 11 83 4 25 9 59 12 75 3 17 6 39 8 50 22 197 107 501 160 570 45
59 122 86 290 101 28 2 66 7 85 10 19 3 43 5 54 5 52 0 89 58 86 134 -2 59
-89 165 -169 207 -15 7 -28 16 -31 19 -10 13 -186 97 -255 122 -206 73 -445
98 -568 58z m-1053 -2760 c95 -33 166 -120 169 -206 1 -25 6 -45 10 -45 5 0 5
-4 2 -10 -3 -5 -8 -20 -11 -32 -3 -13 -6 -27 -7 -33 -14 -59 -134 -165 -204
-180 -70 -16 -153 -7 -153 15 0 6 -6 10 -14 10 -27 0 -106 82 -136 142 -40 81
-40 133 0 212 70 138 188 182 344 127z m-744 -224 c66 -19 119 -63 141 -117
19 -48 20 -56 26 -132 6 -78 -8 -114 -65 -172 -61 -63 -192 -127 -192 -93 0 4
-5 5 -11 2 -16 -11 -99 24 -144 60 -23 18 -50 50 -60 71 -11 22 -22 41 -25 44
-7 7 -10 44 -11 115 -1 106 52 188 142 220 31 11 163 13 199 2z m2555 -248
c82 -40 140 -141 129 -226 -14 -100 -3 -133 42 -133 13 0 24 -5 24 -11 0 -5 4
-8 9 -5 15 10 57 -48 71 -99 13 -46 15 -61 11 -113 -2 -31 -56 -76 -111 -93
-91 -27 -190 4 -223 71 -7 14 -14 50 -16 80 -1 30 -4 56 -6 58 -1 2 -31 4 -66
6 -63 3 -105 18 -144 54 -53 48 -65 71 -69 142 -1 20 -5 41 -10 48 -4 7 -3 12
1 12 5 0 9 8 9 18 3 50 23 101 53 132 69 72 212 100 296 59z m-888 -41 c36 -5
110 -64 137 -110 94 -161 48 -348 -105 -429 -42 -22 -53 -24 -239 -23 -222 1
-247 7 -312 76 -53 56 -81 137 -75 214 5 73 26 120 74 167 48 49 97 70 168 73
57 3 86 7 145 20 14 3 36 7 50 10 13 3 26 7 27 8 3 3 90 -1 130 -6z m-1333
-187 c56 -35 79 -75 79 -137 0 -135 -105 -206 -236 -160 -95 34 -130 116 -94
221 9 26 70 77 110 92 44 17 98 10 141 -16z m2715 -626 c42 -3 106 -37 138
-73 46 -54 55 -190 18 -262 -34 -67 -130 -128 -195 -123 -132 11 -243 132
-226 246 11 73 73 168 131 200 26 14 78 25 89 19 5 -3 25 -6 45 -7z m-2184
-260 c49 -14 105 -56 138 -104 29 -42 31 -51 32 -136 0 -117 -14 -163 -70
-218 -58 -56 -135 -82 -223 -74 -66 6 -145 41 -178 79 -51 58 -58 79 -58 173
1 204 82 293 267 290 34 -1 76 -5 92 -10z m-2032 -351 c18 -9 47 -33 66 -53
67 -72 81 -151 37 -224 -74 -126 -235 -156 -334 -64 -35 33 -68 106 -67 152 1
57 47 145 90 173 65 41 145 48 208 16z m1164 -341 c65 -30 122 -107 124 -167
5 -115 -84 -241 -176 -249 -70 -6 -164 29 -208 78 -58 63 -69 165 -27 248 13
26 26 47 30 47 3 0 15 8 26 18 53 49 156 61 231 25z m1350 -287 c45 -10 123
-64 123 -85 0 -6 4 -11 8 -11 8 0 35 -64 38 -90 1 -8 4 -29 7 -47 3 -17 2 -35
-1 -38 -4 -4 -7 -10 -8 -13 -2 -28 -17 -72 -25 -72 -5 0 -9 -5 -9 -11 0 -24
-71 -73 -128 -88 -94 -26 -163 -12 -227 47 -71 64 -97 155 -70 247 38 131 149
192 292 161z m1137 -30 c97 -57 134 -146 97 -232 -37 -84 -113 -136 -188 -129
-77 7 -123 25 -163 65 -52 52 -61 111 -35 213 4 15 10 27 14 27 4 0 13 11 19
24 5 12 30 33 54 45 57 29 139 24 202 -13z m-3861 -294 c25 -3 83 -67 99 -108
18 -44 18 -121 0 -165 -6 -14 -29 -44 -52 -67 -53 -52 -111 -65 -195 -46 -58
14 -117 72 -131 131 -16 68 8 193 37 193 7 0 9 3 6 7 -12 12 37 37 93 49 47 9
98 11 143 6z m744 -357 c114 -20 208 -116 228 -230 9 -49 9 -49 1 -106 -8 -60
-39 -122 -71 -143 -37 -25 -32 -56 22 -120 48 -57 50 -61 62 -136 5 -36 2 -54
-17 -90 -45 -88 -118 -135 -195 -127 -70 8 -167 68 -167 104 0 7 -4 13 -10 13
-8 0 -27 73 -23 90 1 3 4 23 7 44 4 22 11 45 17 53 6 7 8 13 5 13 -4 0 -3 8 3
17 7 14 -2 24 -56 60 -79 52 -106 79 -138 143 -40 80 -46 201 -13 264 19 35
60 75 111 106 26 17 47 28 47 26 0 -2 21 4 48 13 45 17 71 18 139 6z m1944
-227 c71 -31 138 -107 156 -178 10 -39 4 -131 -12 -179 -18 -56 -71 -118 -121
-142 -25 -13 -50 -60 -37 -73 4 -4 9 -53 16 -158 1 -10 4 -18 7 -18 6 0 4
-117 -3 -145 -19 -72 -61 -129 -122 -167 -51 -31 -85 -41 -160 -43 -143 -5
-253 72 -296 205 -17 51 -16 142 2 180 33 72 55 106 83 132 32 30 116 75 151
81 41 8 75 19 75 26 0 4 -14 20 -31 37 -50 47 -77 113 -74 186 1 35 8 83 16
107 22 74 105 140 197 157 8 1 16 4 18 6 9 10 102 0 135 -14z m-1279 -447
c130 -62 194 -242 132 -366 -51 -101 -138 -158 -244 -159 -104 -1 -191 51
-243 145 -77 138 -43 280 85 363 74 48 192 55 270 17z m1928 -293 c67 -15 149
-98 154 -154 1 -16 4 -34 8 -39 3 -6 3 -19 1 -30 -2 -11 -4 -27 -4 -35 -1 -24
-21 -70 -30 -70 -5 0 -8 -4 -6 -9 1 -5 -13 -25 -32 -46 -35 -39 -103 -75 -130
-70 -9 1 -36 6 -61 10 -63 10 -114 39 -146 80 -21 28 -27 48 -29 97 -4 67 12
168 26 168 5 0 9 6 9 13 0 21 54 67 96 82 34 11 100 13 144 3z"/>
</g>
</svg>
