<svg id="svg9559" width="555.22" height="351.67" xmlns="http://www.w3.org/2000/svg" viewBox="2.3120009899139404 255.56398010253906 144.0749969482422 94.06895446777344"> <g id="stylegroup" fill="#d0d0d0" stroke="#000" stroke-width=".1">  <path id="FIPS_02185" d="m62.678 259.31.882-.881.66-.44.219.44-.439.22h.439l2.204-.66 1.983-2.425 1.762.882v.442l-.661.659v.663l.661-.221.441-1.101.44-.442.661.66.22.883.661.221.219-.441 1.101-.222h1.763l.219.222-.44.66v.22l1.323.221-.222.66h.882l1.101-.66 2.423-.221 1.542.441h.664l.658.22.223.22h.881l1.101-.22h1.323l1.542.442.44-.222.882-.66.219-.221.441-.439 1.543.219 3.524 1.101 1.101 3.526.661 2.203-9.032 2.203.441 2.422-1.762.441-4.627.884h-.223l-10.351 1.1h-2.424v-.441h-1.761v-.441h-1.763l-1.762.22h-1.323v-.438h-.66v.218h-1.982l-.441-.218h-.221v.218h-.88l-.222-.44h-1.101v.44h-.442l-3.085-.218v.878h-1.542l-1.321-.66-.661-.882.44-1.32.221-1.544 1.542.222 1.984-.222.659-.219 1.322-1.543.663-1.982 1.321-1.982.882-.883.66.223.882-.442z">   <title id="t0">North Slope, AK</title>  </path>  <path id="FIPS_02188" d="m74.35 278.7h-.439l-.881.44.221.441h-1.321v1.321l-.882.221v-.44l-.44-.439h-.881v.879h-.882v-.879h-1.761v1.982h-2.203v.88h-1.321v2.203h-.441v.442h-.441l-7.711-.221v-.882h-.222l-.219-.22v-.66l-.441-.221v-1.762l-.222-2.204h.882l.441.22-.441 1.542.222.883 3.965.438 1.102-1.1h.662l-.222-.441-.66-.44-.66-.439-.885-1.104-.438-.219-.22-.661.22-.221h.438l.663 1.542.882.881.441-.218-.441-.221-.66-.883.44-1.321.22.22v-.22l-.66-.44-1.102.219h-.883l-1.543-.66-.659-2.423-2.205-2.425h1.542v-.878l3.085.218h.442v-.44h1.101l.222.44h.88v-.218h.221l.441.218h1.982v-.218h.66v.438h1.323l1.762-.22h1.763v.441h1.761v.441h1.763v1.101h.44v.441l.88.882v1.32h.881l.439.441.222 1.322-.222.881">   <title id="t1">Northwest Arctic, AK</title>  </path>  <path id="FIPS_02130" d="m140.67 317.91.88-1.1 1.764 1.541.44 1.321-.221.662-.881.22-1.542-.441v-.441l.221-.44zm.661 2.203.66.441.221.882-.662-.662z">   <title id="t2">Ketchikan Gateway, AK</title>  </path>  <path id="FIPS_02201" d="m139.56 319.24.661.221v-.882l-.22-.22v-.882l.22-.44.661-.44.66-.883.221-.439-.661-.44.881-.221 1.323.661h.66l.218-.44.664.44v1.322l1.539 1.982v1.763l-.44 1.542-.661.22-.438-.22-1.102-1.542.22-.881-.881-1.543-1.543-1.1-.88 1.1-.441.22.441.221v1.543h-.661l-.662-.662zm-4.846-1.322 1.099-.441 3.086 1.763 1.322 1.542.881.44 1.102 1.983v.662l-.662.219-1.321-1.101-1.983-.66 1.101 1.542.442-.441.44.221.441 1.101h-.661l-2.644-1.763-.22-.44.881-.882-.661-.66h-.66l-1.102-.441.218-.22h.441l.222-.221-.663-.881-.218.662-.441.219-.22-.219.22-.662-.44-1.102zm.22 2.203v.441l-.22-.22zm7.49 1.323-.22-.882.881.22.221.662-.662.44zm-6.391.219.883-.441.441.222-.441 1.101-.883-.22zm7.713-.219.22.219v.441h-.66z">   <title id="t3">Prince of Wales-Outer Ketchikan, AK</title>  </path>  <path id="FIPS_02280" d="m140 318.35.22.22v.882l-.661-.221.221-.661-.442-1.761-.219.879.219.441-.219.441-1.102-.22-.661-.441v-.441l.441-.88-.441-1.543-1.324-.44-.661-.442-.218-.44-1.103.221h-.659l.218-.441h.661l.221-.882.442-.66.879-.22.663.661v.661l.881-.221.22.881.661.221.661.661.44-.22 1.763.441.661.44-.221.439-.66.883-.661.44-.22.44zm-7.05-2.864-.662-.441.22-.44h1.542l.663-.442 2.423 1.323-.661.882h-.663v-.442l-1.099-.66v.439l.881.441.218.442-.218.44h-.661v.221l-.442.219-.66-1.322-.222-.22-.439-.221zm.22 2.202-1.101-.66-.441-.66.219-.663.441-.219.662.44h.659l.441.883-.441.219v.44l.222.661h.439v1.323l-.439-.442.219 1.102-.441-.219-.439-1.101v-.663h.439zm3.083-.879.662-.441.441.881-.441.219h-.662zm-3.965 2.862-.219-.44h.219v.662zm1.543.882h.439l-.22.441-.441-.221z">   <title id="t4">Wrangell-Petersburg, AK</title>  </path>  <path id="FIPS_02220" d="m126.78 312.62 1.101.442.882-.442.66 1.102v.221l-.66.219-1.543-.66-.221.22.662.882-.221.661h-.441l-1.982-1.763.881-.219v-.882zm5.508 7.05v.222l-.441-.222-1.102-1.101v-.661l-.44.441-.221-.441-.661-.221-.44-1.32-.442-.442v-.44l-.44.219-.661-.439.441-1.322.882.441.881-.222.22.442-.441.221h.441l1.544 2.423.88 1.982h-.219zm-5.068-4.185.22-.22.881.88v.663l-.44.219z">   <title id="t5">Sitka, AK</title>  </path>  <path id="FIPS_02100" d="m126.12 306.9-.22.22-.661-1.101-.66-.441v.221l1.102 1.762.88 1.322 1.102 1.762h-.881l-.662-.66-.22-.22.441-.441-.441-.441-1.101-.221.22-1.101-.881-.661h-1.983v-1.763l.881-1.101 1.763 1.323.66-.222.222.222h.88l.44.44.221-.221.441.661h.22z">   <title id="t6">Haines, AK</title>  </path>  <path id="FIPS_02110" d="m131.85 310.64v.441h-.439l-1.544-1.321-1.101.438-1.764-1.099-1.101-1.984.22-.22 1.763-.661.44.44.662.221 2.203.882v.44l1.102.661-.441 1.541zm-2.864.221h-.442l-.22-.663.22.221.222-.221 1.101-.218-.661.439-.22.221z">   <title id="t7">Juneau, AK</title>  </path>  <path id="FIPS_02232" d="m124.8 305.36-1.763-1.323.442-.66.88.219.661.441.44 1.101zm1.101 4.406.22.22-1.101.66-.44-1.321-.662-.662v.442h-.22l-1.982-.442v.221h.881l1.321.441.882 1.321-1.321 1.322-.882-.44h-.441l-.661-.22-2.202-.883.881-.88 1.321-1.983.661-.22v-.441h1.983l.881.661-.22 1.101 1.101.221.441.441zm8.372 3.744h-.661l-.218.441-.221-1.102-1.101-1.101v-.44l-.222-.662v-.221l.441-1.541 3.524 2.864-.879.22-.442.66zm-5.067-3.085.661-.439v.218l1.764 1.764h-.442l-.661-.881-.22.221 1.542 1.541.222.442-.441.66v.661l-.663 1.1-.66-.879v-1.323l-1.102-.882-.882-1.761-.881-1.101v-.221h.221l.66.659.22.663h.442v-.221zm-2.423 2.203-.882-.219v.882l-.881.219-.661-.219-.22-.663.22-1.1.881-.22.442-.441 2.422.441.22.44.22.661-.22.219-.44.221z">   <title id="t8">Skagway-Hoonah-Angoon, AK</title>  </path>  <path id="FIPS_02282" d="m109.6 305.36h1.1l.222-.442 1.322.22.441-.879 1.321-.442.221 1.321.44.222 1.102.219.44.661 3.305 1.762.661 1.543-.881.88v-.439l-.662-.441-4.845-1.102-.221-.22v-.44h.44v-.441l-.66-1.102-.221.661-.881.882-1.985.219-1.32-.66-2.863.22-3.084 1.101 1.103-2.863 2.862-.882h.44v.442l1.542-.442h.441z">   <title id="t9">Yakutat, AK</title>  </path>  <path id="FIPS_02016" d="m34.92 325.4-.44.441-.221-.222v-.219zm1.102 3.525h.22l-.22.22-.441-.441zm7.487 14.099.882.881-.221.441-1.762 1.321-.661.221h-.66l-1.763.661-.661-.441 2.424-.882.219-1.762.221-.22 1.321-.22v.44l.221.221.221-.221zm-7.708 3.525 1.323-.882.217-.441.441-.22.661-.219.661.219-.441.882-.881.22-1.1 1.101-1.322.662-.66.22 1.101-1.102zm-31.727 0 .223.22-.223.22-.22-.22zm2.205.22h.44l.441.882-.66.44-.441-.22-.221-1.102zm26.659 0v.44l-.221-.22zm-1.102.44h.218l-.218.221-.223-.221zm-13.661.662-.22-.22.882-.442.439.662-.66.881h-1.322l-2.423-.442 2.203.222 1.101-.441.221-.22zm-5.728-.441h.44v.441l-.219.22-.441-.22v-.441zm-3.305 0 .441.221-.661.881h-.44l-.661-.441 1.101-.22zm23.575 0 .221.221-.221.22-.881-.22.218-.221zm-21.591.88.66.222-.22.44-2.203.219 1.102-1.54h.661v.22h-.221l-.221.439zm20.267-.439h.22v.22h-.22zm-1.542 0 .222.22-.222.441h-.659v-.441zm-16.303.439.221.222h-.221zm-1.541.222h.661l.219.22-.66.22-.441-.22zm-9.032 0v.22l-.223.22zm24.893 0 .221.22-.221.22-.22-.22zm-3.745 0 .221.22v.22h-.882l.221-.22zm-3.966.44.442.219 1.542.442h-1.763l-.88-.221-.661-.66.661.22zm-17.624-.22v.439h-.221z">   <title id="t10">Aleutians West, AK</title>  </path>  <path id="FIPS_02013" d="m63.779 335.32v.439l-.219-.439v-.442l-.441-.221-.221.441h-.44l-.222.441-1.101.882-1.981.66-.885-.22.443-1.102h-.66l-1.104 2.643-.88.441-.663-.22v-1.101l-.438-.221-.222.44.222.441.219.882-.882.22-.441-1.102-.661.22.442.882v1.321l-.661-.22-.882.22h-1.542l-.441.222-.66.66h-1.102l-.22-.66v-.442l.661-.221.44-.66 2.423-1.102h.661l.221 1.102h.441v-1.322l1.321-.441 1.986-2.202 1.321-1.102 1.321-.441.662.22.661.221h-.221v.441l.221.442.441-.222.22-.441v-.661l.66-1.542 1.322-1.1 2.643-1.764.221.222v.218l-.44.442h-.661v.441h-.882v.441h-.881v.879h.221v1.763l-.221.441h.881zm-1.982 1.319h.439v.442h-.439l-.221-.22zm-.662.662h.441v.44l-.441.661-.88-.22-.221-.881.221-.22h.441zm1.763.221.221.88-1.102 1.322v-1.322l.219-.22.442.22zm1.102.219v1.102h-.44zm-6.169.661.221.221h-.441l-.442-.441.22-.22zm6.608.221.222.441-.441.22v-.661zm-8.371.441v.44l-.219.22-.444-.44zm8.593.22.22.22-.22.22zm-10.357 2.203.663.219v.222h-.663l-.219-.222zm-8.151.441h.22v.44l-.44.441-.221-.661.221-.22zm-.66.661-.221.44h-.661l-.22-.44.441-.441zm2.202.22h.221v.22h-.881zm-.881.22.221.22-.662-.22z">   <title id="t11">Aleutians East, AK</title>  </path>  <path id="FIPS_02150" d="m72.15 326.72.439-.659.662-.442.219-.219.221.219.22-.219.439-.661.882-.662-.22-1.761.882-.441 1.102-.44.66-.441v-1.101h.662l.659-.222-.22-.44h1.101l-.22-.661h.443l-.223.661-.44.44-.441.222-.44.66-.219 1.542-.442.661-.661.44-.441-.22-.661.22-.44.442-.441 1.101h-.439l-.662.88-.44.222-.221-.222v.442l-1.32.881v.219l.439-.219v.882h-1.098v-.442l.439-.221zm9.471-3.964-.22.22-1.101-.44.88-1.323.884-1.542.658-.219-.217.881v.44l.881-.22.44.22.218.662-.218.44-1.762.661-.663-.441-.221.221zm-2.644 2.644.221.661.44.22-.44-.44-.221-1.764.441-.439 1.322-.221.44-.221h.664l-.223.662.223.219.878-.881.442-.22-.219.882.441.661h.44l-.44.881-1.105 1.102-1.101 1.322-.22.22-.22-.441.22-.442h-.22l-.659 1.543-.663.662-.661.219-.439-.66-.662-1.101-.221-.663-.439-.441.219-1.101.661-.66 1.101-.22zm-.22 4.847.881.22-.22.219h-.881l-.219-.219zm-.881 0 .442.22-1.103.882v-.441zm-2.864 3.744.441.22v.882l-.881-.22v-.441z">   <title id="t12">Kodiak Island, AK</title>  </path>  <path id="FIPS_02060" d="m70.608 319.01h1.763v1.323l-2.424.22.441-.66z">   <title id="t13">Bristol Bay, AK</title>  </path>  <path id="FIPS_02070" d="m70.168 319.01v.221l-2.643 1.322-.441-.22-.881-1.323-.221.221-.22.881.441 1.101-.662.441h-.439l-1.323-2.423-.441-.221-.219.661h-.221l-1.101-.879.22-.222-.22-.22-1.763 1.102v-.882h.44l.442-1.321.44-.44.22-1.323.441-.881h.661v-.882l.66-1.321.441-.881h.441l1.102-2.644h2.643v.441h.441l.439-.441v-.661h.882v.44h2.862v.442l.222 1.541.219 4.187h-.441v.66h-.879l-.441.44-.221.883h-.66l-.661.44zm-11.014.883v-.441h.66z">   <title id="t14">Dillingham, AK</title>  </path>  <path id="FIPS_02164" d="m72.15 326.72-.22.441-.439.221v.442h1.098l-2.421 1.761-.441-.219-.22.881-1.321.439v.222h.22l.22.441h-1.322l-.44.661.88.88-.88 1.101-2.864.661v.663l-.221.439v-1.322h-.881l.221-.441v-1.763h-.221v-.879h.881v-.441h.882v-.441h.661l.44-.442v-.218h.661l-.22-.882.44-.881 2.202-2.203.442-4.187.66-1.101 2.424-.22v-1.323h-1.763l-.22-.218-.22.439v-.221l-.441-1.761.661-.44h.66l.221-.883.441-.44h.879v-.66h.441l-.219-4.187-.222-1.541v-.442l3.524-.22 1.322-.22h1.322l.441 2.202h-.441l.22 1.763h-.44l.22.44v1.323h-.22v.441h-.44v.441l-.221.44-.22.22-.441.44-.219.883h-.662v.879l.22.221v.441l.22 1.543h.882v1.101l-.66.441-1.102.44-.882.441.22 1.761-.882.662-.439.661-.22.219-.221-.219-.219.219-.662.442zm-1.542 4.188.44.219h-.88l.22-.219z">   <title id="t15">Lake and Peninsula, AK</title>  </path>  <path id="FIPS_02122" d="m76.996 316.81.219-.883.441-.44.22-.22.221-.44v-.441h.44v-.441h.22v-1.323l-.22-.44h.44l-.22-1.763h.441l-.441-2.202v-.221l-.22-1.982v-.441h.22l.881-.219h.881l.441-.222 2.647-.22v.882h.66l.442.22-.442.441-1.103.881-.883 1.542-.88 2.424v1.101l-1.101 1.761-1.102.663-.661.879-.661.441-.22 1.322.22.441.221-.221.88-.22 1.104.882v.22h-.443l.22.661h-1.101l.22.44-.659.222h-1.544l-.22-1.543v-.441l-.22-.221v-.879zm6.39-1.323 1.539-1.101.444-.882h-.444l-.658.66-.441-.219-.44-.441.221-1.322.437-1.101.223-.883v-.879l-.441-.882.883-.441 1.32-1.322.442.441h.66l.66-.441.661.221h.882l.22.22.662.441h.439v.221l.221.88v.221l.22.221.221 1.982v.221l-1.763.22-.88.44v1.323l-1.543 1.321-.22-.22-.44.441-.442 1.1-1.985.662-.658-.442z">   <title id="t16">Kenai Peninsula, AK</title>  </path>  <path id="FIPS_02020" d="m87.791 306.68-1.101-.88.221-.221v-.219h.22l.441-.882.219-.219h.222l.219-.222h.22l.222.222 1.762-.442v.661l.219.66v.662l.221.22v.881h-.66v.441l.22.22h-.22l-.662-.441-.22-.22h-.882z">   <title id="t17">Anchorage, AK</title>  </path>  <path id="FIPS_02261" d="m90.876 306.46v-.441l-.221-.22v-.662l-.219-.66v-.661l1.761-.221 1.323-.219-.221-.222h.221l.439-.219-.439-2.423v-.221l-.441-1.102 1.102-.22.219-.219-.219-.662v-.22l-.661-2.864-.221-.661.882-.441.66-.221h.22l.44-.219h.662l.661.219h.22l3.746-.88.44.661.22 1.101v.661h.661l.221-.661h.88l1.102.661.44 1.543.442.22v.22l.22.881 1.762-.662 2.203 7.491h-.441l-1.542.442v-.442h-.44l-2.862.882-1.103 2.863-2.865-.88v-.662l-.881.441.441.44-1.763-.66-1.982 1.763-.442-.662.222-.66h.44l.881-.441.441-.441v-.44l-1.102.44h-.882l-.219-.221.881-.66.22-.22-.882.44-.219-.44-.221.22v-1.102l-1.321.661-.22.661-1.542.661h-.222l.222-1.322-.441.221-.22 1.101.661.22.661 1.542-.221.882.881.88-.441.662-1.541.221v-.221l-.221-1.982-.22-.221v-.221l-.221-.88v-.221h-.219l-.22-.22v-.441h.66zm3.305-.441v.22h-.441zm-.661 1.101.439.221-.439.22zm-1.323 0 .442.221-.221.22-.221-.22zm1.102.662v2.203l-.66-.441.219-1.102zm1.542 1.762-.441.659-.219 1.324-.882.44v-.881l1.101-1.762v-.441l.221-.221.661.221z">   <title id="t18">Valdez-Cordova, AK</title>  </path>  <path id="FIPS_02170" d="m88.452 304.03h-.22l-.219.222h-.222l-.219.219-.441.882h-.22v.219h-1.763l-.439.441-.442-.22h-.66v-.882l-2.647.22-.441.222h-.881v-.442l-.22-.221v-1.982l-.22-.22v-1.542l-.221-2.202 2.424-.222v-.44l5.289-3.525 3.085-.442v-.219l-.221-.44 2.424-.441 1.101-.22.22 1.542.221.661.661 2.864v.22l.219.662-.219.219-1.102.22.441 1.102v.221l.439 2.423-.439.219h-.221l.221.222-1.323.219-1.761.221-1.762.442z">   <title id="t19">Matanuska-Susitna, AK</title>  </path>  <path id="FIPS_02240" d="m94.841 293.68-.66.221-.882.441-.22-1.542-1.101.22-.882-3.966 1.322-.442.44-.658.662-.442h.661l2.643-1.982h.881v-.221l.441-.661-.441-.661.22-.44.221-.441.66-.442.221-1.321h.22l.661-.66.661-.221.661-.881v-.66l.441-.661 5.507 19.165-1.762.662-.22-.881v-.22l-.442-.22-.44-1.543-1.102-.661h-.88l-.221.661h-.661v-.661l-.22-1.101-.44-.661-3.746.88h-.22l-.661-.219h-.662l-.44.219z">   <title id="t20">Southeast Fairbanks, AK</title>  </path>  <path id="FIPS_02090" d="m87.351 287.95v-.22l-.661-2.865h.221l2.203-.441.22-.441h.882l.439-.44.441-.661.441-.222.441.222v.442l.44.44h.221l.44.66.22.22 2.424-.88 1.101-.221-.22.44.22 1.543-2.643 1.982h-.661l-.662.442-.44.658-1.322.442-1.542.222-.661-.222h-.219l-.883-1.1z">   <title id="t21">Fairbanks North Star, AK</title>  </path>  <path id="FIPS_02068" d="m86.69 294.56-5.289 3.525v.44l-2.424.222.881-2.425v-.661l-.881-.219-.22-1.324 1.324-.219.438-.881-.219-.882.66-.66h.441l.663.22.881-1.762 3.304-.441 2.644-.441.661.222 1.542-.222.882 3.966-2.424.441.221.44v.219z">   <title id="t22">Denali, AK</title>  </path>  <path id="FIPS_02050" d="m78.537 306.02.22 1.982v.221h-1.322l-1.322.22-3.524.22h-2.862v-.44h-.882v.661l-.439.441h-.441v-.441h-2.643l-1.102 2.644h-.441l-.441.881-.66 1.321v.882h-.661l-.441.881-.22 1.323-.44.44-.442 1.321h-.44v.882h-.88v.881l-.661.22-1.545-.22.441-.221.442.221.221-.881-.221-1.323-.442-.88.88-1.103-.438-1.32v-.221l-1.102-2.203-.439.882-1.545.879-1.543.222-.881-.441-.22-.66-.881-1.323-1.983-1.764 1.322-.879-.22-.662h-.441v-.22l.22-.22h1.323l1.101-.221 1.102-1.762 2.205-.44.219-.221.661-.219 1.323.44 1.982-.44.662-.663 1.101-.66-.221-.441h2.863v-.441h1.764v-.44l3.524-.22v.441h3.303l1.101-.221h1.982l.883-.22h.439v-.441l.883-.219v-.222l.219-.219h.44l.221-.441v1.542l.22.22v1.982l.22.221v.442l-.881.219h-.22zm-47.805 1.101.222.662.218.44.882.44.222.221h-.883l-.221-.441-.657-.881zm16.082 3.746.66-.221 1.102.882-.22 1.321-.22.442-1.101.439-2.203-1.102-.662-.66v-.44l.221-.22h1.321l.882-.662z">   <title id="t23">Bethel, AK</title>  </path>  <path id="FIPS_02158" d="m61.576 303.59.221.441-1.101.66-.662.663-1.982.44-1.323-.44-.661.219-.219.221-2.205.44-1.102 1.762-1.101.221h-1.323v-.221l.441-.219.221-.441-.882-.441-.22.441-.661-.221-1.101-2.203.22-1.322 2.423-3.083 1.101-.883-.219-.66.44-1.101.881-1.101.882-.221 1.542 1.322.663-.221 1.099-1.101.441.221.88 1.321h2.647-.22l-.222.662-.219 1.762v1.763h.441l-.222.66v.441l.222.219z">   <title id="t24">Kusilvak, AK</title>  </path>  <path id="FIPS_02180" d="m63.338 293.24v.879h-.44v.442l-.44.441h-.882l-.441.441v1.322h-.219v1.321h-2.647l-.88-1.321-.441-.221.663-.882.658.221h.885l1.101-.221.661-1.321.219-.662-.661-1.982-.44-.661v-.661h.44l.661-.44v-.66l-.88-.883-.441.661-1.762.441-.883.66-3.525-.219-1.763.44-2.423-.881-.441-.441-.22-.442.22-.658-.22-1.323.22-.221.22-.659-1.983-.882-1.321-.882v-.659l3.965-2.205.441.441 1.102.221v-.221l-.661-.441v-.44l3.083-1.102.222 2.204v1.762l.441.221v.66l.219.22h.222v.882l7.711.221h.441v-.442h.881v1.322h-.221v1.762h-.441v.883h-.44v3.524h.44zm-12.779-12.339-.22.221v-.221zm-5.287 5.949.44-.22.221.44-.44.222zm-8.59 5.287.218-.44v.661l1.322.882 1.102-.662.44.221.441.441v.66l1.101.882 1.763.44-.441.881-.881-.441-.66.441-.662-.22-1.321-1.542-.882-.441h-.44l-.882.441-.658-.441v-.44zm20.707 2.645v.44h-.66l.219-.44z">   <title id="t25">Nome, AK</title>  </path>  <path id="FIPS_02290" d="m78.757 301.39h-.22l-.219.219v.222l-.883.219v.441h-.439l-.883.22h-1.982l-1.101.221h-3.303v-.441l-3.524.22v.44h-1.764v.441h-3.743l-.222-.219v-.441l.222-.66h-.441v-1.763l.219-1.762.222-.662h.22v-1.321h.219v-1.322l.441-.441h.882l.44-.441v-.442h.44v-1.32h-.44v-3.524h.44v-.883h.441v-1.762h.221v-1.322h-.44v-2.203h1.321v-.88h2.203v-1.982h1.761v.879h.882v-.879h.881l.44.439v.44l.882-.221v-1.321h1.321l-.221-.441.881-.44h.439l.222-.881-.222-1.322-.439-.441h-.881v-1.32l-.88-.882v-.441h-.44v-1.101h.661l10.351-1.1h.223l4.627-.884 1.762-.441-.441-2.422 9.032-2.203 3.746 12.998-.441.661v.66l-.661.881-.661.221-.661.66h-.22l-.221 1.321-.66.442-.221.441-.22.44.441.661-.441.661v.221h-.881l-.22-1.543.22-.44-1.101.221-2.424.88-.22-.22-.44-.66h-.221l-.44-.44v-.442l-.441-.222-.441.222-.441.661-.439.44h-.882l-.22.441-2.203.441h-.221l.661 2.865v.22h.44l.883 1.1h.219l-2.644.441-3.304.441-.881 1.762-.663-.22h-.441l-.66.66.219.882-.438.881-1.324.219.22 1.324.881.219v.661l-.881 2.425.221 2.202-.221.441z">   <title id="t26">Yukon-Koyukuk, AK</title>  </path></g> </svg>