<svg id="svg9559" width="555.22" height="351.67" xmlns="http://www.w3.org/2000/svg" viewBox="375.2950134277344 208.3300018310547 39.378021240234375 63.67506408691406"> <g id="stylegroup" fill="#d0d0d0" stroke="#000" stroke-width=".1">                                                        <path id="FIPS_01069" d="m409.67 255.32 3.614-.329-.117.342-.076.334.153.915.112.261.095.054h.095l.082.023.521.573.082.147.119.257.323.934-5.327.648-.086-1.022-.177-1.578-1.086.185-1.37.144.389-.978.062-.054.257-.085.185-.009.175.009.374.089.285.077.496.046.167-.015.698-.599-.045-.369">   <title id="t27">Houston, AL</title>  </path>  <path id="FIPS_01067" d="m409.25 251.42-.122-1.123 2.181-.189.058-.099.167-.5.289-.365.055-.032h.062l.185.058.104.091 1.199 2.989-.136 2.749-3.614.329z">   <title id="t28">Henry, AL</title>  </path>  <path id="FIPS_01061" d="m405.75 257.29.883-.081 1.37-.144 1.086-.185.177 1.578.086 1.022-.11.019-5.889.681-1.673.166-.328-2.538z">   <title id="t29">Geneva, AL</title>  </path>  <path id="FIPS_01045" d="m405.64 251.83 3.611-.415.428 3.908.045.369-.698.599-.167.015-.496-.046-.285-.077-.374-.089-.175-.009-.185.009-.257.085-.062.054-.389.978-.883.081-.558-5.413z">   <title id="t30">Dale, AL</title>  </path>  <path id="FIPS_01031" d="m405.19 251.88.558 5.413-4.398.518-.338-3.181-.127-1.155.415-.044.13-.108-.13-1.028z">   <title id="t31">Coffee, AL</title>  </path>  <path id="FIPS_01039" d="m397.57 253.88 1.082-.136 1.098-.13.203-.017.046.188.086.743.185.168.744-.063.338 3.181.328 2.538-2.213.225-3.309.317-.365-2.52-.431-4.255z">   <title id="t32">Covington, AL</title>  </path>  <path id="FIPS_01097" d="m381.86 260.03.09.18.24 1.019.329 1.751-.47.868-.311 1.216-.021.275.188.455.24.461-.159-.055-.041.027-.508.54-.307 1.889-.969 1.87-.644-.206-.902-.018-.247.041-.117.04-.208.22v.005l-.572-4.691-.414-3.363-.191-1.489 1.122-.089 1.105-.346 2.24-.316z">   <title id="t33">Mobile, AL</title>  </path>  <path id="FIPS_01003" d="m383.99 258.1 1.696.537.468 3.159-.249 1.726.145.246 1.122 1.223.353.243.062.023.185.032.374.193.496.307.135.221.04.153.018.212-.112 2.817-.149 1.41-.712.321-1.501.531-1.573.397-.419.067-1.379.087-.054-.072.572-.208 1.496-.956-1.983-4.025-.144-.202-.067-.054-.514-.185-.153-.049-.24-.461-.188-.455.021-.275.311-1.216.47-.868-.329-1.751-.24-1.019-.09-.18.258-.415z">   <title id="t34">Baldwin, AL</title>  </path>  <path id="FIPS_01053" d="m395.79 258.37.365 2.52-1.058.08-4.147.37-4.795.455-.468-3.159.643.166.109-.045.612-.432.685-.079 7.27-.692-.018.085-.012.563.012.117.037.051.089.076.5.014z">   <title id="t35">Escambia, AL</title>  </path>  <path id="FIPS_01035" d="m395.36 254.12.431 4.255-.176.09-.5-.014-.089-.076-.037-.051-.012-.117.012-.563.018-.085-7.27.692.005-.074.073-.176 1.189-1.687.667-.748.78-2.285.032-.234 1.122-1.014.923-.509.249-.122.067-.009.141 1.542.581 1.094.288.217z">   <title id="t36">Conecuh, AL</title>  </path>  <path id="FIPS_01129" d="m375.92 253.58 4.102-.352.013.546.195.707.563.483.149.09.455.158.406.102.428.393.31 1.253.014.081-.031.42-.105.396-.22.23-.194.261-.153.519.271.743-.258.415-.527.284-2.24.316-1.105.346-1.122.089z">   <title id="t37">Washington, AL</title>  </path>  <path id="FIPS_01023" d="m375.75 245.68 5.315-.465-.505.072-.281.176-.148.162-.824 3.074.05.474.054.13.08.089.09.051.28.032.153 3.758-4.102.352-.261-2.528.073-4.323z">   <title id="t38">Choctaw, AL</title>  </path>  <path id="FIPS_01025" d="m384.27 249.08 2.001 1.925-.171.207-.393 1.554.162 1.728.141 1.261-.081.392-.231.307-.131.077-.144-.023-.23-.177-.134.011-.122.045-1.008.856-.187.468v.059l.028.135.04.076.18.118-1.874 1.514-.271-.743.153-.519.194-.261.22-.23.105-.396.031-.42-.014-.081-.31-1.253-.428-.393-.406-.102-.455-.158-.149-.09-.563-.483-.195-.707-.013-.546-.153-3.758z">   <title id="t39">Clarke, AL</title>  </path>  <path id="FIPS_01099" d="m392.74 250.39.108 1-.067.009-.249.122-.923.509-1.122 1.014-.032.234-.78 2.285-.667.748-1.189 1.687-.073.176-.005.074-.685.079-.612.432-.109.045-.643-.166-1.696-.537-.18-.118-.04-.076-.028-.135v-.059l.187-.468 1.008-.856.122-.045.134-.011.23.177.144.023.131-.077.231-.307.081-.392-.141-1.261-.162-1.728.393-1.554.171-.207 2.917-.297 1.586-.117z">   <title id="t40">Monroe, AL</title>  </path>  <path id="FIPS_01131" d="m386.08 245.37.292-.078.068.041 1.347.942 1.736 1.6 2.943-.284.64 1.055-.374 1.745-1.96.203-1.586.117-2.917.297-2.001-1.925.451-.226-.136-1.63.951-1.676.091-.155.098-.036.189-.013z">   <title id="t41">Wilcox, AL</title>  </path>  <path id="FIPS_01013" d="m393.11 248.64 4.445-.469.347 3.174.049.797-.554.058.171 1.673-2.208.239-1.506.126-.288-.217-.581-1.094-.141-1.542-.108-1z">   <title id="t42">Butler, AL</title>  </path>  <path id="FIPS_01041" d="m400.34 247.86.96 4.431.13 1.028-.13.108-.415.044.127 1.155-.744.063-.185-.168-.086-.743-.046-.188-.203.017-1.098.13-1.082.136-.171-1.673.554-.058-.049-.797-.347-3.174.342-1.154 1.113-.126.132 1.114z">   <title id="t43">Crenshaw, AL</title>  </path>  <path id="FIPS_01109" d="m402.34 246.56.446-.186.474.041.202.072.523.987.82 1.042 1.452-.159-.618 3.476-.445.049-3.89.415-.96-4.431z">   <title id="t44">Pike, AL</title>  </path>  <path id="FIPS_01011" d="m408.18 243.53.379 1.106-.175.112.094 1.127.072.473-.888.297-.855.321-.496.973-.064.312.009.102-1.452.159-.82-1.042-.523-.987-.202-.072-.474-.041-.446.186.536-2.962.664.437.089.032z">   <title id="t45">Bullock, AL</title>  </path>  <path id="FIPS_01087" d="m404.84 239.2.023.181 2.339.847.546-.063.176 1.118.256 2.248-4.552.533-.089-.032-.664-.437-1.321-1.753 1.38-1.095.956-.118.325-1.171z">   <title id="t46">Macon, AL</title>  </path>  <path id="FIPS_01085" d="m393.1 243.73.295-.671.034-.06.477-.085 1.294-.153 1.334.582 1.362 3.681-.342 1.154-4.445.469-.64-1.055z">   <title id="t47">Lowndes, AL</title>  </path>  <path id="FIPS_01101" d="m397.38 242.4 1.486-1.348.122.014.159.055.085.057.514.555-.05.086.856.162.749.063.251-.207 1.321 1.753-.536 2.962-1.996 1.306-1.198.145-.132-1.114-1.113.126-1.362-3.681z">   <title id="t48">Montgomery, AL</title>  </path>  <path id="FIPS_01051" d="m401.27 237.52 1.33-.135.031.013.023.172-.1.378.308 2.664.035.103.036.037-1.38 1.095-.251.207-.749-.063-.856-.162.05-.086-.514-.555-.085-.057-.159-.055-.122-.014-1.486 1.348-.411-3.826.325-.645z">   <title id="t49">Elmore, AL</title>  </path>  <path id="FIPS_01001" d="m396.97 238.58.411 3.826-.844.934-1.334-.582-1.294.153-.477.085-.034.06-.295.671-1.5-4.056 1.085-.055 1.109-.126-.061-.567z">   <title id="t50">Autauga, AL</title>  </path>  <path id="FIPS_01047" d="m390.43 238.93 1.168.736 1.5 4.056-.631 3.862-2.943.284-1.736-1.6-1.347-.942-.068-.041-.292.078-.058-.551.553-.053-.22-2.25 1.87-.188 1.473-.195.087-.184.293-1.018.166-.782z">   <title id="t51">Dallas, AL</title>  </path>  <path id="FIPS_01091" d="m382.11 242.35.892-.077.058.564 2.209-.212.758 2.194.058.551-.168-.023-.189.013-.098.036-.091.155-.951 1.676.136 1.63-.451.226-4.408.393-.28-.032-.09-.051-.08-.089-.054-.13-.05-.474.824-3.074.148-.162.281-.176.505-.072-.475-.397-.828-.316-.023-.076.019-.518.058-.162 1.203-1.222.09-.063.545-.171z">   <title id="t52">Marengo, AL</title>  </path>  <path id="FIPS_01119" d="m375.92 236.81 1.806-.211-.117 1.099.216.942 1.299 2.727.257.316.035.009.461-.135.359-.167.082-.081.208-.145.184-.09.095.004.112.068.739 1.145-.545.171-.09.063-1.203 1.222-.058.162-.019.518.023.076.828.316.475.397-5.315.465.077-3.503.076-4.561z">   <title id="t53">Sumter, AL</title>  </path>  <path id="FIPS_01105" d="m385.92 237.47 1.094-.109.054.564.745-.072 2.474-.301.144 1.386-.185 1.212-.166.782-.293 1.018-.087.184-1.473.195-1.87.188.22 2.25-.553.053-.758-2.194-.211-2.235.428-1.678z">   <title id="t54">Perry, AL</title>  </path>  <path id="FIPS_01021" d="m395.44 234.66 1.849 3.277-.325.645-3.234.343.061.567-1.109.126-1.085.055-1.168-.736-.144-1.386 1.537-.136-.185-1.902-.136-.847-.031-.285 1.73-.132 1.182-.062.184.248.347.216z">   <title id="t55">Chilton, AL</title>  </path>  <path id="FIPS_01037" d="m399 233.2h1.785l.478 4.313-3.975.419-1.849-3.277.171-1.091z">   <title id="t56">Coosa, AL</title>  </path>  <path id="FIPS_01123" d="m404.57 232.58.646-.077.536 4.873-.916 1.824-.625.258-.325 1.171-.956.118-.036-.037-.035-.103-.308-2.664.1-.378-.023-.172-.031-.013-1.33.135-.478-4.313z">   <title id="t57">Tallapoosa, AL</title>  </path>  <path id="FIPS_01027" d="m401.91 227.76-.352.325.008.094 1.119-.117.163-.204-.019-.193 1.302-.109.437 5.022-3.781.622h-1.785l-.103-1.176.879-1.389 1.113-1.24.451-1.573z">   <title id="t58">Clay, AL</title>  </path>  <path id="FIPS_01121" d="m398.54 225.77 1.015-.049.305.337.1.483.307.253 2.132-.212.026.378-.513.803-.568.062-.451 1.573-1.113 1.24-.879 1.389.103 1.176-3.39.364-.045-.824 1.222-1.798.1-.78-.15-.216-.297-.213 1.141-1.401.445-.96-.049-.063-.108-.239-.005-.067.496-1.137z">   <title id="t59">Talladega, AL</title>  </path>  <path id="FIPS_01117" d="m394.77 227.89 1.672 1.847.297.213.15.216-.1.78-1.222 1.798.045.824-.171 1.091-.527-.009-.347-.216-.184-.248-1.182.062-1.73.132.031.285-1.798-2.385.505-.177.311-.17.221-.163.402-.703 2.049-1.987.745-.082.856-.828z">   <title id="t60">Shelby, AL</title>  </path>  <path id="FIPS_01007" d="m389.29 232.31.419-.036 1.798 2.385.136.847.185 1.902-1.537.136-2.474.301-.745.072-.054-.564-1.094.109-.159-1.663 1.109-.136-.031-1.14.27-.532.812-.901.459-.51.09-.054.703-.207z">   <title id="t61">Bibb, AL</title>  </path>  <path id="FIPS_01065" d="m382.61 236.04 3.154-.238.159 1.663-.437 1.243-.428 1.678.211 2.235-2.209.212-.058-.564-.892.077.573-1.208-.533-.636-.423-1.258-.196-.982-.017-.275z">   <title id="t62">Hale, AL</title>  </path>  <path id="FIPS_01063" d="m381.14 234.26 1.47 1.78-1.096 1.947.017.275.196.982.423 1.258.533.636-.573 1.208-.452-.059-.739-1.145-.112-.068-.095-.004-.184.09-.208.145-.082.081-.359.167-.461.135-.035-.009-.257-.316-1.299-2.727-.216-.942.117-1.099-.013-.058.929-.627.815-.455.361-.127z">   <title id="t63">Greene, AL</title>  </path>  <path id="FIPS_01107" d="m380.69 229.47.446 4.787-1.32 1.068-.361.127-.815.455-.929.627.013.058-1.806.211.076-3.868.059-3.199 3.51-.162z">   <title id="t64">Pickens, AL</title>  </path>  <path id="FIPS_01125" d="m385.05 228.08.192-.009.943.099.09.942.55-.032-.374.33.189.626.722.788.431.374.988.591.509.523-.113.009-.703.207-.09.054-.459.51-.812.901-.27.532.031 1.14-1.109.136-3.154.238-1.47-1.78-.446-4.787 1.069-.032.788-.09-.055-.662.33-.509z">   <title id="t65">Tuscaloosa, AL</title>  </path>  <path id="FIPS_01073" d="m389.79 224.87.702-.433 1.33-.094 1.212.707.807.078.374-.036.244.545.081.842-.068.288-.09.01-.072.193.067.749.104.094.293.077.023.28-.856.828-.745.082-2.049 1.987-.402.703-.221.163-.311.17-.505.177-.419.036-.509-.523-.988-.591-.431-.374-.722-.788-.189-.626.374-.33.239-.135.306-.225 1.172-1.293.226-.398.193-.391.681-1.384z">   <title id="t66">Jefferson, AL</title>  </path>  <path id="FIPS_01127" d="m387.48 222.77 2.15 1.555.158.545-.149.388-.681 1.384-.193.391-.226.398-1.172 1.293-.306.225-.239.135-.55.032-.09-.942-.943-.099-.192.009-.104-1.123-1.114.063-.237-2.261-1.115.04-.046-.559-.103-1.123z">   <title id="t67">Walker, AL</title>  </path>  <path id="FIPS_01075" d="m376.22 222.91 2.34-.117.406.356.18 2.105.32 3.132.103 1.19-3.51.162.057-2.745z">   <title id="t68">Lamar, AL</title>  </path>  <path id="FIPS_01057" d="m379.08 224.47 3.357-.23.046.559 1.115-.04.237 2.261 1.114-.063.104 1.123-2.223.099-.33.509.055.662-.788.09-1.069.032-1.127.104-.103-1.19-.32-3.132z">   <title id="t69">Fayette, AL</title>  </path>  <path id="FIPS_01059" d="m376.37 216.09 6.436-.365.302 3.393-1.114.067-.891.037-2.335.163-2.475.101.041-1.85z">   <title id="t70">Franklin, AL</title>  </path>  <path id="FIPS_01093" d="m376.29 219.48 2.475-.101 2.335-.163.891-.037.334 3.935.103 1.123-3.357.23-.112-1.321-.406-.356-2.34.117.01-.369z">   <title id="t71">Marion, AL</title>  </path>  <path id="FIPS_01133" d="m383.11 219.12 4.435-.338-.063 3.989-5.152.351-.334-3.935z">   <title id="t72">Winston, AL</title>  </path>  <path id="FIPS_01043" d="m387.53 218.59 5.579-.419 1.42.45-.333.022-.313.105-.044.031-.595 1.491-.058.1-1.416 1.812-.955.842-.785.777-.396.522-2.15-1.555.063-3.989z">   <title id="t73">Cullman, AL</title>  </path>  <path id="FIPS_01009" d="m394.53 218.62 1.784 1.907-.167.365-.328 1.758.473-.051-.38.993-.274.355-.298.321h-.085l-.095-.054-1.361.437.045.474-.807-.078-1.212-.707-1.33.094-.702.433-.158-.545.396-.522.785-.777.955-.842 1.416-1.812.058-.1.595-1.491.044-.031.313-.105z">   <title id="t74">Blount, AL</title>  </path>  <path id="FIPS_01115" d="m396.29 222.6-.009-.044.067-.14.239-.392.145-.108.834-.081.103.058.08.14.235.546.28.266.135.085.221-.089.558.738.132.121.036.082.014.825-.813.734-.04.132.036.296-.176.099-.496 1.137.005.067.108.239.049.063-.445.96-1.141 1.401-1.672-1.847-.293-.077-.104-.094-.067-.749.072-.193.09-.01.068-.288-.081-.842-.244-.545-.374.036-.045-.474 1.361-.437.095.054h.085l.298-.321.274-.355z">   <title id="t75">St. Clair, AL</title>  </path>  <path id="FIPS_01015" d="m402.46 221.58 2.244.104-1.036.969.135 1.325.171 1.61-.153.293-.842 1.018-.551.058-.026-.378-2.132.212-.307-.253-.1-.483-.305-.337-1.015.049-.036-.296.04-.132.813-.734-.014-.825-.036-.082-.132-.121.172-.014.279-.157.262-.204.586-.604.315-.508.18-.113.636-.063.874.094z">   <title id="t76">Calhoun, AL</title>  </path>  <path id="FIPS_01055" d="m398.26 219 2.767-.285.149 1.149.469.037.802 1.41.009.27.022.428-.874-.094-.636.063-.18.113-.315.508-.586.604-.262.204-.279.157-.172.014-.558-.738-.221.089-.135-.085-.28-.266-.235-.546-.08-.14-.103-.058-.834.081-.145.108-.239.392-.067.14.009.044-.473.051.328-1.758.167-.365z">   <title id="t77">Etowah, AL</title>  </path>  <path id="FIPS_01095" d="m395.4 214.09 1.875-.185.13.744.988.743-.135 3.607-1.952 1.527-1.784-1.907-1.42-.45.022-3.147.231.537.365.225.351.06.365-.122 1.045-.533.149-.383.082-.491-.06-.167-.139-.067z">   <title id="t78">Marshall, AL</title>  </path>  <path id="FIPS_01103" d="m390.6 215.21 2.528-.186-.022 3.147-5.579.419-.402-4.81z">   <title id="t79">Morgan, AL</title>  </path>  <path id="FIPS_01079" d="m383.62 212.62 1.789.373 1.718.789.402 4.81.017.189-4.435.338-.302-3.393z">   <title id="t80">Lawrence, AL</title>  </path>  <path id="FIPS_01033" d="m376.48 212.04.401-.188.181-.045.734.246.234.173.159.215.072.135.085.289.126.19.834.654.085.049.316.095.478-.086.275-.154.054-.058.18-.311 1.221-.725.415-.176.226-.05.081.009.982.32-.811 3.106-6.436.365z">   <title id="t81">Colbert, AL</title>  </path>  <path id="FIPS_01077" d="m385.51 209.85.13-.01-.235 3.154-1.789-.373-.982-.32-.081-.009-.226.05-.415.176-1.221.725-.18.311-.054.058-.275.154-.478.086-.316-.095-.085-.049-.834-.654-.126-.19-.085-.289-.072-.135-.159-.215-.234-.173-.734-.246-.181.045-.401.188-1.182-1.248 2.241-.324 3.966-.307z">   <title id="t82">Lauderdale, AL</title>  </path>  <path id="FIPS_01083" d="m389.56 209.56.548-.053.488 5.701-3.475-1.43-1.718-.789.235-3.154z">   <title id="t83">Limestone, AL</title>  </path>  <path id="FIPS_01089" d="m395.05 209.03.222.58-.276 1.452-.098 1.321.122 1.326.382.387.113-.009.139.067.06.167-.082.491-.149.383-1.045.533-.365.122-.351-.06-.365-.225-.231-.537-2.528.186-.488-5.701 4.861-.479z">   <title id="t84">Madison, AL</title>  </path>  <path id="FIPS_01071" d="m402.44 208.33.406 1.577-.657 1.447-1.133 1.826-1.803 1.911-.297.198-.239.095-.315.013-.988-.743-.13-.744-1.875.185-.382-.387-.122-1.326.098-1.321.276-1.452-.222-.58 4.675-.455z">   <title id="t85">Jackson, AL</title>  </path>  <path id="FIPS_01049" d="m402.84 209.9.848 2.997.126.443.229.816-.063-.023-.039.027-.501.581-.063.748-.329.708-1.371 1.673-.365.045-.255.242-.073.141.044.414-2.767.285.135-3.607.315-.013.239-.095.297-.198 1.803-1.911 1.133-1.826z">   <title id="t86">DeKalb, AL</title>  </path>  <path id="FIPS_01019" d="m404.04 214.16.884 3.001.721 2.605.41 1.474-1.357.446-2.244-.104-.009-.27-.802-1.41-.469-.037-.149-1.149-.044-.414.073-.141.255-.242.365-.045 1.371-1.673.329-.708.063-.748.501-.581.039-.027z">   <title id="t87">Cherokee, AL</title>  </path>  <path id="FIPS_01029" d="m406.06 221.24.221.788.874 3.147.604 2.149-3.624.234-1.302.109.019.193-.163.204-1.119.117-.008-.094.352-.325.513-.803.551-.058.842-1.018.153-.293-.171-1.61-.135-1.325 1.036-.969z">   <title id="t88">Cleburne, AL</title>  </path>  <path id="FIPS_01111" d="m404.13 227.56 3.624-.234.194.695 1.045 3.772.077.27-3.857.442-.646.077z">   <title id="t89">Randolph, AL</title>  </path>  <path id="FIPS_01017" d="m409.07 232.06.866 2.997.689 1.534-1.194.157-.374.229-3.308.398-.536-4.873z">   <title id="t90">Chambers, AL</title>  </path>  <path id="FIPS_01081" d="m405.75 237.38 3.308-.398.374-.229 1.194-.157.779 1.716 1.034 1.15-.574.554-1.924.514-.906.617-1.117.14-.176-1.118-.546.063-2.339-.847-.023-.181z">   <title id="t91">Lee, AL</title>  </path>  <path id="FIPS_01113" d="m412.74 241.24-.121.46.023.109.068.076.716.193.266.222.108.215-.09.406-.026.037-1.172 2.315-1.399.181-.075-.031-.447-.47-.041-.117-.347-.405-1.649.208-.379-1.106-.256-2.248 1.117-.14.906-.617 1.924-.514.574-.554z">   <title id="t92">Russell, AL</title>  </path>  <path id="FIPS_01005" d="m412.51 245.27.03.964-.509 2.769.19.252-.104-.091-.185-.058h-.062l-.055.032-.289.365-.167.5-.058.099-2.181.189.122 1.123-3.611.415.618-3.476-.009-.102.064-.312.496-.973.855-.321.888-.297-.072-.473-.094-1.127.175-.112 1.649-.208.347.405.041.117.447.47.075.031z">   <title id="t93">Barbour, AL</title>  </path></g> </svg>