<svg id="svg9559" width="555.22" height="351.67" xmlns="http://www.w3.org/2000/svg" viewBox="307.7129821777344 192.80099487304688 51.22802734375 46.74699401855469"> <g id="stylegroup" fill="#d0d0d0" stroke="#000" stroke-width=".1">                                                                                                                                                                                              <path id="FIPS_05017" d="m344.52 231.46.148.409.014.008.546.372.446.301.085.301-.13.257-.555.162.541 1.547.365.662.28.297.031.98v.011l-.338 1.403-.009.009-.315.356-.087.099-1.063.041-1.839.075-.266.015-.202-4.953-.068-2.262 1.109-.055.059.388.292.179.789-.021z">   <title id="t94">Chicot, AR</title>  </path>  <path id="FIPS_05003" d="m336.46 233.95 5.711-.134.202 4.953-6.549.266-.82-1.975.252-.648.398-.519.472-.382.213-.059.31-.262.144-.996z">   <title id="t95">Ashley, AR</title>  </path>  <path id="FIPS_05115" d="m326.67 204.15.027 1.739-.366.524.023 1.122-.347 3.805-1.329.143-2.728-1.924-.219-.122-.024-1.852.19-.005.563-.594.536-1.097-.017-1.703 2.217-.012z">   <title id="t96">Pope, AR</title>  </path>  <path id="FIPS_05101" d="m325.1 199.1.095 5.076-2.217.012-3.701-.346-.09-.781.005-.752.229-.568.32-.563-.175-2.042 1.856-.004z">   <title id="t97">Newton, AR</title>  </path>  <path id="FIPS_05087" d="m316.03 196.86 1.632.006.279.319.14.509v.487l.091.185.284.396.364.37h.74l.175 2.042-.32.563-.229.568-.005.752.09.781-1.839-.023-2.226.167h-.541v-.942l.099-3.354.54-1.88z">   <title id="t98">Madison, AR</title>  </path>  <path id="FIPS_05047" d="m315.21 203.99 2.226-.167-.022 5.111-3.282 2.168-.545-2.993.162-.086.194-.621.145-.739.031-1.372 1.091-.923.189-.188.004-.19z">   <title id="t99">Franklin, AR</title>  </path>  <path id="FIPS_05071" d="m317.44 203.82 1.839.023 3.701.346.017 1.703-.536 1.097-.563.594-.19.005.024 1.852-1.875-1.076-.443.175-.794.253-1.202.139z">   <title id="t100">Johnson, AR</title>  </path>  <path id="FIPS_05083" d="m317.41 208.93 1.202-.139.794-.253.443-.175 1.875 1.076.219.122.019 1.361-2.123.478-1.862.464-.454.184v1.146l.053.347-2.213.013-1.668-.013-.711-.365v-.573l.004-.568 1.132.013.008-.95z">   <title id="t101">Logan, AR</title>  </path>  <path id="FIPS_05149" d="m321.95 209.56 2.728 1.924 1.329-.143-1.478 1.265-.848.785-.779.752-.357.398-.536.734.041 1.348-1.108.419-3.331.058-.028-3.56-.053-.347v-1.146l.454-.184 1.862-.464 2.123-.478z">   <title id="t102">Yell, AR</title>  </path>  <path id="FIPS_05105" d="m324.53 212.61 3.376-.045.878-.085.167-.032.135-.049.524-.433.049.051.099.265.014.121-.04.316-.046.113-.081.116-.117.123-.166.14-.073.09-.046.153.04.157.122.203.11.095.125.072.189.058-.314.217-.772.194-1.09.212.008.748.163-.005-.104.231-.843-.222h-1.482l-1.086.045.022 1.118-2.24.05-.041-1.348.536-.734.357-.398.779-.752z">   <title id="t103">Perry, AR</title>  </path>  <path id="FIPS_05029" d="m326.35 207.54 3.877-.04.022 1.131-.644 3.335-.524.433-.135.049-.167.032-.878.085-3.376.045 1.478-1.265z">   <title id="t104">Conway, AR</title>  </path>  <path id="FIPS_05045" d="m334.11 208.55.073 3.844.012.702-1.118.019-.328 1.132-2.137.022-.829-.235-.189-.058-.125-.072-.11-.095-.122-.203-.04-.157.046-.153.073-.09.166-.14.117-.123.081-.116.046-.113.04-.316-.014-.121-.099-.265-.049-.051.644-3.335 2.389-.031z">   <title id="t105">Faulkner, AR</title>  </path>  <path id="FIPS_05141" d="m330.72 203.15 1.869.924.051 4.526-2.389.031-.022-1.131-3.877.04-.023-1.122.366-.524-.027-1.739 1.857-.009-.018-.941z">   <title id="t106">Van Buren, AR</title>  </path>  <path id="FIPS_05129" d="m325.1 199.1.559-.004.568.553 4.413-.062.013 1.132.068 2.428-2.213.055.018.941-1.857.009-1.474.024z">   <title id="t107">Searcy, AR</title>  </path>  <path id="FIPS_05137" d="m332.84 198.59 1.234.942.06.045.188.229.005.059-.261.847 2.009.997.492.176.221 2.104-4.197.081-1.869-.924-.068-2.428 1.114-.018 1.09-1.154z">   <title id="t108">Stone, AR</title>  </path>  <path id="FIPS_05023" d="m336.78 203.99.545 2.195.028 1.019-.532 1.289-2.714.059-1.473.045-.051-4.526z">   <title id="t109">Cleburne, AR</title>  </path>  <path id="FIPS_05145" d="m337.33 206.19 2.214-.053 2.5 1.067-.847 1.046-.027.775.023.081.284.392-.226 2.002-.221.298-3.502.928-1.487-.135-.491-.172-1.365-.018-.073-3.844 2.714-.059.532-1.289z">   <title id="t110">White, AR</title>  </path>  <path id="FIPS_05063" d="m341.65 201.35 1.645-.073-.058.226-.104.307-.288.671-.869 1.943-.222 1.659-1.406.045-.806.005-2.214.053-.545-2.195-.221-2.104 1.398-1.028 2.564-.054.014.577z">   <title id="t111">Independence, AR</title>  </path>  <path id="FIPS_05067" d="m343.3 201.28 1.727-.026.073 2.294.152 3.444.059 1.15-2.212.071-.073-1.145-1.015.063.036.072-2.5-1.067.806-.005 1.406-.045.222-1.659.869-1.943.288-.671.104-.307z">   <title id="t112">Jackson, AR</title>  </path>  <path id="FIPS_05147" d="m342.04 207.2-.036-.072 1.015-.063.073 1.145 2.212-.071.108 2.671-1.023 1.949-.923.026-.47.27-.085.397.013.549-.776.036-.035-1.807-1.004.045-.051-.143-.032-.338.221-.298.226-2.002-.284-.392-.023-.081.027-.775z">   <title id="t113">Woodruff, AR</title>  </path>  <path id="FIPS_05123" d="m351.06 210.55 1.073-.113.09 1.889.009 1.275-5.628.28-1.07-.01-.553.032.022.576-.613-1.724 1.023-1.949z">   <title id="t114">St. Francis, AR</title>  </path>  <path id="FIPS_05035" d="m354.5 206.54.699.688.04.136.419 2.957-.004.014v.012l-.004.008-.019.029-.157.193-1.105.849-1.05.346-.126.402.018.18.265 1.74-1.176.431-.063-.923-.009-1.275-.09-1.889-1.073.113-.216-3.858 2.25-.09z">   <title id="t115">Crittenden, AR</title>  </path>  <path id="FIPS_05037" d="m350.85 206.7.216 3.858-5.647.256-.108-2.671-.059-1.15.951-.041 2.416-.229 1.1-.05z">   <title id="t116">Cross, AR</title>  </path>  <path id="FIPS_05111" d="m345.1 203.54 1.951-.064 4.142-.215 1.704-.05.203 3.39-2.25.09-1.131-.027-1.1.05-2.416.229-.951.041z">   <title id="t117">Poinsett, AR</title>  </path>  <path id="FIPS_05093" d="m358.39 198.96.551 1.217-.285-.005-.188.032-.225.117-.034.023-.066.058-.91 1.943-.285 2.731-2.447 1.47-1.401.063-.203-3.39-.253-3.84 3.407-.243z">   <title id="t118">Mississippi, AR</title>  </path>  <path id="FIPS_05031" d="m352.64 199.38.253 3.84-1.704.05-4.142.215-1.951.064-.073-2.294 1.807-1.172 4.814-.23.173-.419z">   <title id="t119">Craighead, AR</title>  </path>  <path id="FIPS_05065" d="m337.98 196.81-.013 4.052-1.398 1.028-.492-.176-2.009-.997.261-.847-.005-.059-.188-.229-.06-.045-1.234-.942h-.203l-.009-.54.555-.231-.014-.911z">   <title id="t120">Izard, AR</title>  </path>  <path id="FIPS_05075" d="m342.43 196.54 1.254 1.105.703.613.324-.451 2.43-.104.618-.027.004.05-.195.487-.284.274-.148.109-.405 1.131.098.356-1.807 1.172-1.727.026-1.645.073-.04-1.73-.085-1.961-.014-.726.181-.194z">   <title id="t121">Lawrence, AR</title>  </path>  <path id="FIPS_05135" d="m340.76 193.51.004.126.632.64.374.18.414.577.216.672.036.833-.738.203-.181.194.014.726.085 1.961.04 1.73-1.112.032-.014-.577-2.564.054.013-4.052 1.299-.014 1.081-1.536-.04-1.736z">   <title id="t122">Sharp, AR</title>  </path>  <path id="FIPS_05055" d="m347.09 196.18.934-.069 3.361-.081.739.338.023.384 1.261-.091-1.593 2.772-.173.419-4.814.23-.098-.356.405-1.131.148-.109.284-.274.195-.487-.004-.05-.618.027z">   <title id="t123">Greene, AR</title>  </path>  <path id="FIPS_05021" d="m349.3 193.04 3.655-.208.275-.018.406-.013.919 1.298.1.134.067 1.024-.109.297-.072.113-1.127.991-1.261.091-.023-.384-.739-.338-3.361.081-.934.069.062-3.021z">   <title id="t124">Clay, AR</title>  </path>  <path id="FIPS_05121" d="m347.16 193.16-.062 3.021.05 1.522-2.43.104-.324.451-.703-.613-1.254-1.105-.036-.833-.216-.672-.414-.577-.374-.18-.632-.64-.004-.126 2.885-.153z">   <title id="t125">Randolph, AR</title>  </path>  <path id="FIPS_05049" d="m340.32 193.52.04 1.736-1.081 1.536-1.299.014-4.809.103-.055-3.081.307-.019 4.61-.207z">   <title id="t126">Fulton, AR</title>  </path>  <path id="FIPS_05005" d="m329.21 193.99 3.898-.161.055 3.081.014.911-.555.231.009.54h.203l.018.956-1.09 1.154-1.114.018-.013-1.132-.006-.757-.26-.605-.551-1.129-.477-.564-.171-.123.049-1.022z">   <title id="t127">Baxter, AR</title>  </path>  <path id="FIPS_05089" d="m326.71 194.08 2.501-.086.009 1.398-.049 1.022.171.123.477.564.551 1.129.26.605.006.757-4.413.062-.568-.553.211-4.994z">   <title id="t128">Marion, AR</title>  </path>  <path id="FIPS_05009" d="m325.87 194.1-.211 4.994-.559.004-3.678.032-.094-4.895z">   <title id="t129">Boone, AR</title>  </path>  <path id="FIPS_05015" d="m321.33 194.24.094 4.895-1.856.004h-.74l-.364-.37-.284-.396-.091-.185v-.487l-.14-.509-.279-.319-1.632-.006-.581-2.483 2.903-.072 2.771-.068z">   <title id="t130">Carroll, AR</title>  </path>  <path id="FIPS_05007" d="m313.28 194.43 2.168-.045.581 2.483-.726.946-1.28-.008-1.108.253-2.208.113-.46.941-.108.564-1.668-.009-.122-.772-.636-4.377z">   <title id="t131">Benton, AR</title>  </path>  <path id="FIPS_05143" d="m308.48 199.66 1.668.009.108-.564.46-.941 2.208-.113 1.108-.253 1.28.008-.54 1.88-.099 3.354v.942l-1.681-.014-1.285.159-2.546-.024z">   <title id="t132">Washington, AR</title>  </path>  <path id="FIPS_05033" d="m314.67 203.99h.734l-.004.19-.189.188-1.091.923-.031 1.372-.145.739-.194.621-.162.086-.618-.062-.089.013-.064.036-.09.076-.044.099.049.108.153.136.045.081.04.139-.008.095-.032.082-.077.067-.658.297-.171.055-.721.054-.266-.086-.243-.302-.036-.176.041-.171v-.049l-.059-.131-.343-.266-.171-.076-.14-.027-.027.013-.19.676-.472-3.115-.239-1.564 2.546.024 1.285-.159z">   <title id="t133">Crawford, AR</title>  </path>  <path id="FIPS_05131" d="m309.87 208.79.19-.676.027-.013.14.027.171.076.343.266.059.131v.049l-.041.171.036.176.243.302.266.086.721-.054.171-.055.658-.297.077-.067.032-.082.008-.095-.04-.139-.045-.081-.153-.136-.049-.108.044-.099.09-.076.064-.036.089-.013.618.062.545 2.993-.008.95-1.132-.013-.004.568-.19.004-.667.281-.289.184v.095l.236.004v1.154l-.357.148-1.735.375-.185-.036.063-5.8z">   <title id="t134">Sebastian, AR</title>  </path>  <path id="FIPS_05127" d="m312.99 212.6v.573l.711.365 1.668.013 2.213-.013.028 3.56-.366-.003-.882.472-.497.6-.549.022v-.189l-.933-.14-3.155-.005-.483-.252-.969-.131.027-2.663.185.036 1.735-.375.357-.148v-1.154l-.236-.004v-.095l.289-.184.667-.281z">   <title id="t135">Scott, AR</title>  </path>  <path id="FIPS_05097" d="m320.94 217.04-.014 4.498.009.744h-5.585l-.035-4.093.549-.022.497-.6.882-.472.366.003z">   <title id="t136">Montgomery, AR</title>  </path>  <path id="FIPS_05051" d="m324.29 216.58 1.113-.04.032 1.136.684.616 1.06.551.188.365.006.757-1.285.01-.324.752.022.775-4.858.045.014-4.498 1.108-.419z">   <title id="t137">Garland, AR</title>  </path>  <path id="FIPS_05125" d="m327.78 215.4.937.681 1.109 1.068 1.546 1.069 1.696.521.089 1.137-1.668.036-1.577.591-.658.509-.527.058-1.357-1.113-.006-.757-.188-.365-1.06-.551-.684-.616-.032-1.136-1.113.04-.022-1.118 1.086-.045h1.482l.843.222z">   <title id="t138">Saline, AR</title>  </path>  <path id="FIPS_05119" d="m334.2 213.1.529-.012.081 3.623.563 1.416.067 1.713-1.878.03-.402.01-.089-1.137-1.696-.521-1.546-1.069-1.109-1.068-.937-.681-.163.005-.008-.748 1.09-.212.772-.194.314-.217.829.235 2.137-.022.328-1.132z">   <title id="t139">Pulaski, AR</title>  </path>  <path id="FIPS_05085" d="m334.18 212.4 1.365.018.491.172 1.487.135.05 1.411 1.159-.028.753 3.782.094.829-.005.198-.419.861h-.288l-3.435.064-.067-1.713-.563-1.416-.081-3.623-.529.012z">   <title id="t140">Lonoke, AR</title>  </path>  <path id="FIPS_05117" d="m337.53 212.72 3.502-.928.032.338.051.143 1.004-.045.035 1.807.127 4.53-2.289.054.039 1.127-.31.027h-.559l.419-.861.005-.198-.094-.829-.753-3.782-1.159.028z">   <title id="t141">Prairie, AR</title>  </path>  <path id="FIPS_05095" d="m342.15 214.04.776-.036-.013-.549.085-.397.47-.27.923-.026.613 1.724.059 1.718.563-.018.032 1.145.085 2.267.576-.014.009.203.06 1.528-.569.022-.076.006-.334-.127-.166-.116-.96-1.038-.749-1.073-.346-.441-.911.022z">   <title id="t142">Monroe, AR</title>  </path>  <path id="FIPS_05077" d="m345.01 214.48-.022-.576.553-.032 1.07.01 5.628-.28.063.923-1.622 2.583-5.016.217-.032-1.145-.563.018z">   <title id="t143">Lee, AR</title>  </path>  <path id="FIPS_05107" d="m350.68 217.11.144 1.501.113 1.158-.076.248-.01.023-.023.018-.365.32-.459.22-.555.114-.553.108-1.01 1.812-.479.987-.153.319.036.126.005.019-1.978.099.508-2.849.569-.022-.06-1.528-.009-.203-.576.014-.085-2.267z">   <title id="t144">Phillips, AR</title>  </path>  <path id="FIPS_05069" d="m335.44 219.84 3.435-.064.076 3.227 1.263.01.555.026.107.077.992 1.154.14.492-.082.076-.058.027-.599.117-.799-.261-1.645-.799-.243.911-2.114.103.014.379-2.971.144-.04-1.378.172-.808-.081-3.403z">   <title id="t145">Jefferson, AR</title>  </path>  <path id="FIPS_05053" d="m333.56 219.87.081 3.403-.172.808.04 1.378-1.09.078-.991-.816-.735-.217h-1.948l-.017-3.43.527-.058.658-.509 1.577-.591 1.668-.036z">   <title id="t146">Grant, AR</title>  </path>  <path id="FIPS_05059" d="m327.37 219.96 1.357 1.113.017 3.43-2.209-.004-1.081-.005-.428-.645-3.524-.811-.568-.752-.009-.744 4.858-.045-.022-.775.324-.752z">   <title id="t147">Hot Spring, AR</title>  </path>  <path id="FIPS_05039" d="m326.54 224.5 2.209.004h1.948l.735.217.991.816-1.433.144-.004 1.041.193.036.383.346.248.357.721 1.271.044.235-2.654.004-3.312.013-.24-1.081.171-1.164z">   <title id="t148">Dallas, AR</title>  </path>  <path id="FIPS_05025" d="m333.51 225.46 2.971-.144-.086 3.538.05 1.132-3.791.108-.082-1.126-.044-.235-.721-1.271-.248-.357-.383-.346-.193-.036.004-1.041 1.433-.144z">   <title id="t149">Cleveland, AR</title>  </path>  <path id="FIPS_05079" d="m341.86 224.86.292.838.004.206-.445.316-.884.028.005 1.933.018.578-4.462.089.086-3.538-.014-.379 2.114-.103.243-.911 1.645.799.799.261z">   <title id="t150">Lincoln, AR</title>  </path>  <path id="FIPS_05001" d="m338.87 219.78h.847l.31-.027-.039-1.127 2.289-.054.911-.022.346.441.749 1.073.96 1.038.166.116.334.127.076-.006-.508 2.849-.524.356-.166.158-.087.14-.012.293.031.193.222.222.491.757-.19.253-1.298-.384-.635-.388-.988-.081-.292-.838.058-.027.082-.076-.14-.492-.992-1.154-.107-.077-.555-.026-1.263-.01z">   <title id="t151">Arkansas, AR</title>  </path>  <path id="FIPS_05041" d="m347.29 224.08.478.383.113.28-.063.433-2.083 1.049-.856 3.687-.059.293.014.026.064.114.319.239.302.244v.013l-.028.139-.189.162-.788.317-.167.581-.789.021-.292-.179-.059-.388-1.109.055-1.244-2.79-.018-.578-.005-1.933.884-.028.445-.316-.004-.206.988.081.635.388 1.298.384.19-.253-.491-.757-.222-.222-.031-.193.012-.293.087-.14.166-.158.524-.356z">   <title id="t152">Desha, AR</title>  </path>  <path id="FIPS_05043" d="m336.39 228.85 4.462-.089 1.244 2.79.068 2.262-5.711.134-.118-.166-.175-.518-.01-.063.033-.915.008-.023.338-.018-.089-2.262z">   <title id="t153">Drew, AR</title>  </path>  <path id="FIPS_05011" d="m332.65 230.09 3.791-.108.089 2.262-.338.018-.008.023-.033.915.01.063.175.518.118.166.333.244-.144.996-.31.262-.213.059-.472.382-.398.519-.252.648-.947-.72-1.405-.726-.028-.139.028-.082-.302-.193-.064-.402.046-.402.09-.053.045.017.18-.455.243-.724.081-.402-.197-1.807z">   <title id="t154">Bradley, AR</title>  </path>  <path id="FIPS_05013" d="m329.92 228.97 2.654-.004.082 1.126.118.879.197 1.807-.081.402-.243.724-.18.455-.045-.017-.09.053-.046.402.064.402.302.193-.316.275-.469.099-.207-.009-.325-.252.015-.036-.1-.401-.802-.432-.153-.041-1.506-.776-.675-.771-.091-.221-.036-.459.468-1.361.073-.059.712-.122.049-.039.347-.546z">   <title id="t155">Calhoun, AR</title>  </path>  <path id="FIPS_05103" d="m326.6 228.98 3.312-.013-.284 1.271-.347.546-.049.039-.712.122-.073.059-.468 1.361.036.459.091.221.675.771 1.506.776-4.413.023-1.505-.938v-4.201z">   <title id="t156">Ouachita, AR</title>  </path>  <path id="FIPS_05099" d="m321.44 227.23.77 1.105 1.663.707.225.126.276.307v4.201l-2.664.188-1.271-.373.005-2.551.112-1.974v-1.713z">   <title id="t157">Nevada, AR</title>  </path>  <path id="FIPS_05057" d="m316.64 226.68 3.912.576v1.713l-.112 1.974-.005 2.551-2.57-.014-1.139-1.631-1.443-1.794 1.343.008z">   <title id="t158">Hempstead, AR</title>  </path>  <path id="FIPS_05019" d="m320.19 222.29h.743l.568.752 3.524.811.428.645 1.081.005v2.239l-.171 1.164.24 1.081-2.231.496-.276-.307-.225-.126-1.663-.707-.77-1.105-.622-1.158-.159-.437-.459-2.218z">   <title id="t159">Clark, AR</title>  </path>  <path id="FIPS_05109" d="m315.35 222.29h4.842l.008 1.135.459 2.218.159.437.622 1.158-.884.023-3.912-.576-.027-2.268-1.117-.01-.14-.991z">   <title id="t160">Pike, AR</title>  </path>  <path id="FIPS_05061" d="m315.35 222.29.01 1.126.14.991 1.117.01.027 2.268-.014 3.383-1.343-.008h-.018l-1.189-2.136-.045-.131-.208-1.37-.077-.617-.032-.979.041-.392-.117-.055-1.519.018-.148-.995-.006-1.118z">   <title id="t161">Howard, AR</title>  </path>  <path id="FIPS_05113" d="m309.77 217.48.969.131.483.252 3.155.005.933.14v.189l.035 4.093-3.381-.005.006 1.118.148.995-2.402.073z">   <title id="t162">Polk, AR</title>  </path>  <path id="FIPS_05133" d="m312.12 224.39 1.519-.018.117.055-.041.392.032.979.077.617.208 1.37.045.131 1.189 2.136-.883-.013-2.804-.83-1.884-1.515.023-3.231z">   <title id="t163">Sevier, AR</title>  </path>  <path id="FIPS_05081" d="m309.7 227.7 1.884 1.515 2.804.83.883.013h.018l1.443 1.794-2.308.797-.257-.212-.198-.081-1.037-.208-.6.087-.157.019-.054.049-1.037.526-.577-.315-.157-.103-.438-.28-.071-.095-.082-.188-.085-.221z">   <title id="t164">Little River, AR</title>  </path>  <path id="FIPS_05091" d="m316.73 231.85 1.139 1.631-.076.829.74 1.096v.068l-.176.572-.807 1.424-.077.099-.076.072-.126.019-.604 1.072.464.762h-.104l-2.46.054-.145-6.901z">   <title id="t165">Miller, AR</title>  </path>  <path id="FIPS_05073" d="m317.87 233.48 2.57.014 1.271.373-.117.149-1.064 2.272-.013 3.133-.33.004-3.055.068-.464-.762.604-1.072.126-.019.076-.072.077-.099.807-1.424.176-.572v-.068l-.74-1.096z">   <title id="t166">Lafayette, AR</title>  </path>  <path id="FIPS_05027" d="m321.71 233.87 2.664-.188 1.505.938.04 4.659-2.69.073-2.713.072.013-3.133 1.064-2.272z">   <title id="t167">Columbia, AR</title>  </path>  <path id="FIPS_05139" d="m325.88 234.62 4.413-.023.153.041.802.432.1.401-.015.036.325.252.207.009.469-.099.316-.275-.028.082.028.139 1.405.726.947.72.82 1.975-7.063.19-2.839.053z">   <title id="t168">Union, AR</title>  </path>                                                                                                                                                                                                                                                                                                                                                                                                                                                                                                                                                                                                                                                                                                                                                                                                                                                                                                                                                                                                                                                                                                                                                                                                                                                                                                                                                                                                                                                                                                                                                                                                                                                                                                                                                                                                                                                                                                                                                                                                                                                                                                                                                                                                                                                                                                                                                                                                                                                                                                                                                                                                                                                                                                                                                                                                                                                                                                                                                                                                                                                                                                                                                                                                                                                                                                                                                                                                                                                                                                                                                                                                                                                                                                                                                                                                                                                                                                                                                                                                                                                                                                                                                                                                                                                                                                                                                                                                                                                                                                                                                                                                                                                                                                                                                                                                                                                                                                                                                                                                                                                                                                                                                                                                                                                                                                                                                                                                                                                                                                                                                                                                                                                                                                                                                                                                                                                                                                                                                                                                                                                                                                                                                                                         </g> </svg>