<svg id="svg9559" width="555.22" height="351.67" xmlns="http://www.w3.org/2000/svg" viewBox="90.87399291992188 170.6300048828125 69.63600158691406 81.10298156738281"> <g id="stylegroup" fill="#d0d0d0" stroke="#000" stroke-width=".1">                                                                                                                                                                                                                                                                                                                                                    <path id="FIPS_04015" d="m110.02 170.63 11.574 2.154 3.615.641-.992 2.153-.671 1.695-.045.122-.532 1.667-.027.167v.207l.122.379.112.181-.144.841-.122.222-.329.387-.131.109-.153.049-2.407.717-.446.095-.451.05-.085-.028-.604.077-1.095.419-1.56.695-.721 1.473-1.181 5.697-2.839 15.442-.235.202-.085.04-.113.019-3.826.212-4.151-1.866-.496-.867-.573-.638-.658-.789-.666-2.804-.036-.519-.717-1.126-.568-1.478-.009-.068.018-.18.324-1.434.965-1.613.094-.307.055-.257.013-.288.072-1.573-.014-.379-.094-.756-.135-1.595.126-2.259.279-3.695.131-1.262.009-.082.14-.126.103-.054 1.154-.271h.632l.594.122 1.312.387.14.131.306.433.126.316.018.099.005.027.009.108.072.216.239.379.09.094.131.1.054.013.203.023.626.014.045-.025.018-.012.14-.158 1.307-1.766.437-2.267.248-1.299.41-2.34.05-.259.405-2.124z">   <title id="t169">Mohave, AZ</title>  </path>  <path id="FIPS_04012" d="m102.5 204.85 4.151 1.866 3.826-.212.113-.019.085-.04.235-.202-.753 4.065-1.46 7.923-6.576-1.239.212-1.109-3.263-.613-1.082 5.512-1.09-.184-1.551-.307-.938-.157-.175-.077-.497-.348-.225-.599-.008-.022.635-3.912 1.081-.267 1.298-1.532.42-1.46.306-1.528.059-.419.275-.987.302-.523.969-1.37 1.329-.509.911-.374 1.352-.78.023-.018z">   <title id="t170">La Paz, AZ</title>  </path>  <path id="FIPS_04003" d="m151.66 237.64.713.094-1.961 13.999-4.101-.594-11.246-1.65.87-5.065 1.366-8.894 3.015.469 7.928 1.145z">   <title id="t171">Cochise, AZ</title>  </path>  <path id="FIPS_04023" d="m125.41 246.74.198-1.216 2.2.351.415-2.605 3.349.46 4.362.686-.87 5.065-5.616-.87-1.302-.302z">   <title id="t172">Santa Cruz, AZ</title>  </path>  <path id="FIPS_04019" d="m118.71 231.46 4.372.738 2.397.474 4.052.662.356.053 1.69.172 3.354.465 2.541.392-.175 1.108-1.366 8.894-4.362-.686-3.349-.46-.415 2.605-2.2-.351-.198 1.216-.518-.296-1.645-.952-13.012-7.504-2.605-1.482-2.074-1.245 1.091-5.932z">   <title id="t173">Pima, AZ</title>  </path>  <path id="FIPS_04011" d="m149.8 221.34.225-.451.086-.073 1.478-.851 3.183.432-2.407 17.334-.713-.094-1.018-1.488.022-.175.235-.509.144-.65v-.586l-.243-.946-.582-1.29-.162-.03-1.303-3.259z">   <title id="t174">Greenlee, AZ</title>  </path>  <path id="FIPS_04009" d="m145.45 221.82.64.599 1.078.243 1.055-.658 1.577-.666-1.055 7.364 1.303 3.259.162.03.582 1.29.243.946v.586l-.144.65-.235.509-.022.175 1.018 1.488-3.416-.496-7.928-1.145-3.015-.469.175-1.108.023.004.221-1.42.703-4.646.41-2.641.108-1.249.221-.947.108-.171.375-.194.784-.243.297-.04 1.596-.176 1.789.261.212-1.424z">   <title id="t175">Graham, AZ</title>  </path>  <path id="FIPS_04001" d="m160.51 178.99-1.78 12.826-2.529 18.3-1.428 10.285-3.183-.432-1.478.851-.086.073-.225.451-1.577.666-1.055.658-1.078-.243-.64-.599.316-2.133.392-.513.852-4.84 1.361-8.98.897-5.646.536-2.813.271-1.856-1.789-.266 2.546-17.164z">   <title id="t176">Apache, AZ</title>  </path>  <path id="FIPS_04017" d="m150.84 177.61-2.546 17.164 1.789.266-.271 1.856-.536 2.813-.897 5.646-1.361 8.98-.852 4.84-.392.513-.316 2.133-1.135-.289.807-5.422-7.888-1.204 6.026-38.517 2.583.391 1.649.325z">   <title id="t177">Navajo, AZ</title>  </path>  <path id="FIPS_04007" d="m137.77 211.54-.528 3.371 7.888 1.204-1.019 6.846-1.789-.261-1.596.176-.297.04-.784.243-.375.194-.108.171-.221.947-.108 1.249-.166.004-1.898.361-1.109.766-.013.058.063.253-.027.09-.622.612-.162.005-.032-.014-1.204-3.672-.094-1.042-.239-1.04-.216-.834-.767-2.898-.315.18-.266.224-1.582-2.514-.139-2.29-.064-.193-.027-.046-.216-.099-.311.033.482-.754v-.644l-.059-.221-.166-.324-2.213-.374-.068-.122.004-.033.371-.95.743-1.811.149-.06.788-.233.258-.181.018-.018.058-.423 2.993.864 2.271 1.552 1.718 1.351z">   <title id="t178">Gila, AZ</title>  </path>  <path id="FIPS_04021" d="m133.11 221.26.216.834.239 1.04.094 1.042 1.204 3.672.032.014.162-.005.622-.612.027-.09-.063-.253.013-.058 1.109-.766 1.898-.361.166-.004-.41 2.641-.703 4.646-.221 1.42-.023-.004-2.541-.392-3.354-.465-1.69-.172-.356-.053-4.052-.662-2.397-.474-4.372-.738.383-2.219 1.257-7.22.099-.558.045.022.956 1.181 1.176.297 1.456.258 2.74.437.348-2.219.225-1.108 3.484.587z">   <title id="t179">Pinal, AZ</title>  </path>  <path id="FIPS_04027" d="m108.7 218.23-2.051 11.105-1.091 5.932-.18-.112-14.504-8.717.357-1.551.031-.049.094-.032.185.041.46-.424.437-.635 1.132.085 1.496-.928.468-.658v-.005l.095-.329.104-.848-.32-.747-.031-.032-.032-.036 1.551.307 1.09.184 1.082-5.512 3.263.613-.212 1.109z">   <title id="t180">Yuma, AZ</title>  </path>  <path id="FIPS_04013" d="m110.16 210.31 6.17 1.108 4.647 2.362.424-.257.64-.806.045-.177.437-.667.153.042 4.322 1.343 2.43.406.311-.033.216.099.027.046.064.193.139 2.29 1.582 2.514.266-.224.315-.18.767 2.898-2.231-.342-3.484-.587-.225 1.108-.348 2.219-2.74-.437-1.456-.258-1.176-.297-.956-1.181-.045-.022-.099.558-1.257 7.22-.383 2.219-12.066-2.129z">   <title id="t181">Maricopa, AZ</title>  </path>  <path id="FIPS_04005" d="m136.57 175.34 6.693 1.05-5.498 35.146-.996-.257-1.718-1.351-2.271-1.552-2.993-.864.384-2.115.346-2.109-.419-.072-1.816-.32-.032-.505.307-1.78-2.479-.352-.356-.031-2.948-.496.378-2.244-.946-1.082-5.093-3.209-1.775-1.821-.879-.474-.402-.09-.162-.022-.149.009 1.181-5.697.721-1.473 1.56-.695 1.095-.419.604-.077.085.028.451-.05.446-.095 2.407-.717.153-.049.131-.109.329-.387.122-.222.144-.841-.112-.181-.122-.379v-.207l.027-.167.532-1.667.045-.122.671-1.695.992-2.153z">   <title id="t182">Coconino, AZ</title>  </path>  <path id="FIPS_04025" d="m113.75 190.8.149-.009.162.022.402.09.879.474 1.775 1.821 5.093 3.209.946 1.082-.378 2.244 2.948.496.356.031 2.479.352-.307 1.78.032.505 1.816.32.419.072-.346 2.109-.384 2.115-.058.423-.018.018-.258.181-.788.233-.149.06-.743 1.811-.371.95-.004.033.068.122 2.213.374.166.324.059.221v.644l-.482.754-2.43-.406-4.322-1.343-.153-.042-.437.667-.045.177-.64.806-.424.257-4.647-2.362-6.17-1.108.753-4.065z">   <title id="t183">Yavapai, AZ</title>  </path></g> </svg>