<svg id="svg9559" width="555.22" height="351.67" xmlns="http://www.w3.org/2000/svg" viewBox="20.206995010375977 83.49400329589844 82.29102325439453 140.375"> <g id="stylegroup" fill="#d0d0d0" stroke="#000" stroke-width=".1">                                                                                                                                                                                                                                                                                                                                                                                  <path id="FIPS_06015" d="m28.225 83.494 3.552 1.118 2.79.771-.307.513-.423.551-.654.063-.915.815-.73 3.376.086.298.086.829-.055.158-.45.522-.249.172-.527-.154-.374-.5.199-.667-1.055-.343-1.658-.486.161-1.077.036-.735.014-1.442-.004-.122-.023-.153-.05-.167.221-2.123z">   <title id="t184">Del Norte, CA</title>  </path>  <path id="FIPS_06093" d="m34.567 85.383 2.641.739.023.005.689.143.983.357.405.121.239.068 3.124.883 1.239.307 1.131.306.293.095.514.158 7.703 2.294-.249.568-.089.311-.492 1.812.014.04.045.027-1.172 4.354-.843 3.079-5.16-1.434-2.673-.775-1.947-.523.234-1.311-1.14-.703-2.024.797-1.411 1.461.086.599-.117.208-.216.171-.185-.027-.757-.384-1.298-1.37-.712-1.068-.442-.428-.46-.37.072-2.519-.18-.257-1.479-.437.249-.172.45-.522.055-.158-.086-.829-.086-.298.73-3.376.915-.815.654-.063.423-.551z">   <title id="t185">Siskiyou, CA</title>  </path>  <path id="FIPS_06025" d="m79.899 211.84 6.482 1.356 5.318 1.042 1.379.238 2.14.428-1.081.267-.635 3.912.008.022.225.599.497.348.175.077.938.157.032.036.031.032.32.747-.104.848-.095.329v.005l-.468.658-1.496.928-1.132-.085-.063-.005-7.968-.946-.158-.019-.906-.108-3.367-.401-1.433-.167-1.055-.122.487-2.131 1.018-3.587.316-1.475z">   <title id="t186">Imperial, CA</title>  </path>  <path id="FIPS_06065" d="m98.847 207.09-.969 1.37-.302.523-.275.987-.059.419-.306 1.528-.42 1.46-1.298 1.532-2.14-.428-1.379-.238-5.318-1.042-6.482-1.356-2.249-.51-3.322-.721-2.289-.5-4.219-1.013.05-.217-1.123-1.001-1.514-.347.077-.37 1.379-1.347-.514-.713-.599-.225-.312-.838-.671-1.525.352-.638 1.32-1.141 1.492.338.406.095.09.216 1.379.514 3.074.684 1.347.051 2.619.46 7.59 1.604 5.291 1.122.74-.243 1.361.067z">   <title id="t187">Riverside, CA</title>  </path>  <path id="FIPS_06073" d="m65.233 207.53 1.514.347 1.123 1.001-.05.217 4.219 1.013 2.289.5 3.322.721 2.249.51-.595 2.983-.316 1.475-1.018 3.587-.487 2.131-1.009-.122-2.055-.247-2.092-.243-2.952-.348-2.835-.346-.063-.005-.491-2.15.198-3.186v-.108h.005l.008-.695.005-.27-.126-1.104-.054-.391-.207-.615-.019-.053-.581-1.465-.171-.41-.032-.064-.234-.495-.347-.5-.212-.229-.23-.155z">   <title id="t188">San Diego, CA</title>  </path>  <path id="FIPS_06059" d="m63.678 201.3.915 1.215.671 1.525.312.838.599.225.514.713-1.379 1.347-.077.37-1.244 1.284-.068-.274-.18-.365-.112-.163-1.979-2.483-1.591-1.947-.388-.479.275-.486.577-.726 1.136-.977.482.031.122.027z">   <title id="t189">Orange, CA</title>  </path>  <path id="FIPS_06037" d="m54.348 214.1-.802-.031-.509-.627-.068-.108-.248-.789-.225-1.41.284.095 1.478 2.577.122.262zm-.545-8.779-.045-.033-.009-.093.009-.018.049.013.551.185.617.496.5.401.379.32.487 1.009.04.104.027.216-.049.117-.149.087-.009.004h-.086l-1.298-.613-.086-.077zm13.648-14.81-.686 2.974-.319 1.718-.24 1.46-.095.631-.693 1.5-.599 1.001-.239.397-.749.364-.27.33-.018.09.049.203.086.122-1.415-.325-.122-.027-.482-.031-1.136.977-.577.726-.275.486-.802.109-.843-.018-.388-.153-.193-.109-.753-.486-.135-.112-.081-.455.076-.081.244-.181.126-.027.063-.13.067-.325-.08-.595-.05-.289-.027-.162-.058-.334-.104-.406-.145-.391-.013-.028-.018-.041-.005-.008-.112-.221-.023-.031-.085-.122-.028-.04-.031-.028-.181-.171-.261-.103-1.032-.217-.811-.108-.428.036-1.596-.708.135-.361 1.028-.446.829-.347 1.244.307.631-1.006.068-.472-.978-6.901-.045-.374z">   <title id="t190">Los Angeles, CA</title>  </path>  <path id="FIPS_06111" d="m49.544 185.13.595.216 1.023.477.14.334.049.351 2.601 1.199.969.239.978 6.901-.068.472-.631 1.006-1.244-.307-.829.347-1.028.446-.135.361-1.415-1.068-1.555-2.705-1.064-1.37-.248-.315-.131-.059.298-.207.086-.076.198-.632z">   <title id="t191">Ventura, CA</title>  </path>  <path id="FIPS_06083" d="m38.38 194.35 1.884.152.843.771-.028.428-.008.081-.045.014-1.538.18-.139.008-.41-.418-.077-.135zm5.264.589.397.28 1.046.347.036-.022.017-.01.027-.013.041-.022.054-.032.032-.013.284.018.342.253.072.107-.004.005-.004.009-.01.008-.347.271-.099.081-.072.01-1.771.031-.384-.091-.374-.148h-.004l-.14-.069-.316-.147-.283-.208-.023-.076-.207-1.172.072-.091.063.019.555.22zm-6.134-13.899 1.609.175.573.222.531.545.699-.117.676-.379 2.082-.6.194.23.591.554 1.825 1.465 2.289 1.802.46.118h.194l.311.078-1.411 5.61-.198.632-.086.076-.298.207-.752-.689-.568-.247-.577-.082-.157.003h-.023l-.617-.03-1.299-.41-.446-.451-.762-.55-.306-.121-.793-.294-.663-.176-.771-.162-.883-.112-1.05-.181-1.352-1.766.085-1.024.663-3.402z">   <title id="t192">Santa Barbara, CA</title>  </path>  <path id="FIPS_06079" d="m33.242 168.85 11.349 3.107.198.054-.568 2.199 1.109 1.649 1.203 2.475.437 1.289 1.122.298 1.204 1.415.496 1.506-.559 2.207h-.194l-.46-.118-2.289-1.802-1.825-1.465-.591-.554-.194-.23-2.082.6-.676.379-.699.117-.531-.545-.573-.222-1.609-.175.171-.312.014-.022.162-.36.131-.347.062-.213.046-.215.013-.059.005-.024.022-.287v-.014l-.031-.207-.045-.123-.094-.098-.312-.32-.045-.041-.09-.062-.933-2.542-1.726-3.183-1.136-1.758-.176-.184-.103-.126-.163-.572z">   <title id="t193">San Luis Obispo, CA</title>  </path>  <path id="FIPS_06029" d="m51.396 173.7 4.89 1.212 5.539 1.361 4.417 1.032.596.171 3.817.785-.419 1.068-.099.369-.135 1.519-2.191 9.379-.36-.089-12.575-2.939.045.374-.969-.239-2.601-1.199-.049-.351-.14-.334-1.023-.477-.595-.216-.311-.078.559-2.207-.496-1.506-1.204-1.415-1.122-.298-.437-1.289-1.203-2.475-1.109-1.649.568-2.199z">   <title id="t194">Kern, CA</title>  </path>  <path id="FIPS_06071" d="m70.655 178.26 2.601.626 16.635 3.677.947-.004 2.068 3.106.713 1.063.265.393 3.823 5.72 1.41 2.099-.324 1.434-.018.18.009.068.568 1.478.717 1.126.036.519.666 2.804.658.789.573.638.496.867-.036.559-.023.018-1.352.78-.911.374-1.329.509-7.193-1.443-1.361-.067-.74.243-5.291-1.122-7.59-1.604-2.619-.46-1.347-.051-3.074-.684-1.379-.514-.09-.216-.406-.095-1.492-.338-1.32 1.141-.352.638-.915-1.215-.086-.122-.049-.203.018-.09.27-.33.749-.364.239-.397.599-1.001.693-1.5.095-.631.24-1.46.319-1.718.686-2.974.36.089 2.191-9.379.135-1.519.099-.369z">   <title id="t195">San Bernardino, CA</title>  </path>  <path id="FIPS_06027" d="m64.25 154.49 9.321 2.205 5.184 7.783.193.288 1.104 1.641.645.978 3.403 5.093 2.758 4.142.356.532 1.479 2.217.117.172 2.028 3.019-.947.004-16.635-3.677-2.601-.626-3.817-.785.491-1.072.171-.604-.045-.852-.288-4.196-.753-4.269-.243-1.924.293-1.27.085-.694-.027-.488-.167-1.581-.131-.267-.761-.824-.199-.018-.779-.55-.032-.031-.085-.19-.505-2.538.027-.783z">   <title id="t196">Inyo, CA</title>  </path>  <path id="FIPS_06107" d="m66.171 164.56.243 1.924.753 4.269.288 4.196.045.852-.171.604-.491 1.072-.596-.171-4.417-1.032-5.539-1.361-4.89-1.212 1.069-4.169.5-1.682.329-.089.261.062.419-1.662-.257-1.244-.446-.113 1.343-.816 1.88-.672 1.289.343 1.888.491.289-1.059 4.43 1.042z">   <title id="t197">Tulare, CA</title>  </path>  <path id="FIPS_06031" d="m53.271 164.81.446.113.257 1.244-.419 1.662-.261-.062-.329.089-.5 1.682-1.069 4.169-6.607-1.69-.198-.054-.627-1.744 4.462-2.525.699-2.762 1.537.378 1.451.149z">   <title id="t198">Kings, CA</title>  </path>  <path id="FIPS_06039" d="m60.248 149.81.748.203.632.203.139.167.311.622.118 1.343-3.147 1.937-.446.293-.189.186-.122.239-.086.576-.009.222-.022.085-.207.482-.149.162-.284.253-.307.17-1.465-.094-.427.068-1.641 1.023-.442.293-.103.085-.708.789-.171.284-.257.252-.036.01-4.332-.14-.617-.117-.712-.578-.388-.63-.104-.244-.049-.162-.036-.242-.284-2.214.82-.487 1.956-.199 1.528.204h.997l3.618-2.209 1.091.266.897-.803.225-.819 3.39-2.065z">   <title id="t199">Madera, CA</title>  </path>  <path id="FIPS_06019" d="m64.25 154.49-.36.835-.027.783.505 2.538.085.19.032.031.779.55.199.018.761.824.131.267.167 1.581.027.488-.085.694-.293 1.27-1.781-.427-4.43-1.042-.289 1.059-1.888-.491-1.289-.343-1.88.672-1.343.816-1.158.649-1.451-.149-1.537-.378-.699 2.762-4.462 2.525-2.042-2.497-.635-.915-.045-.728.275-1.346.513-.554.97-2.02-2.285-4.001 4.741-2.822.284 2.214.036.242.049.162.104.244.388.63.712.578.617.117 4.332.14.036-.01.257-.252.171-.284.708-.789.103-.085.442-.293 1.641-1.023.427-.068 1.465.094.307-.17.284-.253.149-.162.207-.482.022-.085.009-.222.086-.576.122-.239.189-.186.446-.293 3.147-1.937z">   <title id="t200">Fresno, CA</title>  </path>  <path id="FIPS_06053" d="m34.067 154.27-.055.262.104.397.83 1.378.941 1.695.852 2.312 1.357 2.737.617.753 1.898 1.599.274.108.055-.004.076-.045.501-.735-.275 1.346.045.728.635.915 2.042 2.497.627 1.744-11.349-3.107-.32-.467-.532-.983.018-.478.013-.23.023-.419-.059-.37-.009-.054-1.194-2.559-.266-.469-.513-.578-.145-.13h-.004l-.1-.014-.063-.036-.099-.125-.063-.14-.253-.586-.09-.212-.009-.203.33-3.281.721-.256.022.008.163.004.125-.054.249-.184.153-.158.112-.135.194-.294.185-.368.496-1.073.009-.149-.058-.469-.005-.032z">   <title id="t201">Monterey, CA</title>  </path>  <path id="FIPS_06069" d="m34.067 154.27.639.091.898-.505.919.195 2.005.539-.207.216-.072.1-.027.072.068.185.545 1.185 1.771 1.619.109.185 2.285 4.001-.97 2.02-.513.554-.501.735-.076.045-.055.004-.274-.108-1.898-1.599-.617-.753-1.357-2.737-.852-2.312-.941-1.695-.83-1.378-.104-.397z">   <title id="t202">San Benito, CA</title>  </path>  <path id="FIPS_06047" d="m48.926 148.33.487 2.483-.004.19-.009.036-.045.045.41 2.447.265.377.727.944h-.997l-1.528-.204-1.956.199-.82.487-4.741 2.822-.109-.185-1.771-1.619-.545-1.185-.068-.185.027-.072.072-.1.207-.216-.139-.144-.077-.17-.009-.073.144-.505.257-.117.212-.333.144-.695-.054-.17 3.299-1.948.018-.423-.058-.127-.076-.045 1.465-.433z">   <title id="t203">Merced, CA</title>  </path>  <path id="FIPS_06087" d="m30.438 147.97-.004.143.022.072.271.569.527 1.068.257.368.69.606.432.31.87.92 1.203 1.991.068.113-.068.235-.639-.091-1.794.086-.072-.406-.158-.747-.113-.279-.099-.19-.09-.122-.203-.181-.095-.021-.505.117-.451-.023-.233-.032-.163-.041-.081-.044-.032-.019-.143-.081-.109-.064-.392-.445-.388-.558-.292-.696-.244-.733-.027-.536.082-.51.837-.14.879.243.068-.175z">   <title id="t204">Santa Cruz, CA</title>  </path>  <path id="FIPS_06081" d="m29.595 142.03-.018.005-.22 1.316.134.211 1.56 1.637.113.071.27.095.185-.049.005-.013.185.464-1.371 2.204-.189.707-.068.175-.879-.243-.837.14-.082.51.027.536-.081-.131-.275-.451-.37-.69-.045-.127.023-.612.167-3.344.31-1.361.379-1.356z">   <title id="t205">San Mateo, CA</title>  </path>  <path id="FIPS_06001" d="m31.033 139.9.446.009.054.031.303.424.193.604.041.301 1.762 1.812 3.565-.095.73-.081-.405 1.461-.555 2.019.072.154.55.838-.009-.01-3.74-1.067-.122-.014-.104.077-.077.036-.351.045-.18-.023-1.236-.423-.161-.234-.185-.464.009-2.263-.78-2.263z">   <title id="t206">Alameda, CA</title>  </path>  <path id="FIPS_06085" d="m31.809 145.76.161.234 1.236.423.18.023.351-.045.077-.036.104-.077.122.014 3.74 1.067-.158.064-.04.676.289 3.299 1.135.979.054.17-.144.695-.212.333-.257.117-.144.505.009.073.077.17.139.144-2.005-.539-.919-.195-.898.505.068-.235-.068-.113-1.203-1.991-.87-.92-.432-.31-.69-.606-.257-.368-.527-1.068-.271-.569-.022-.072.004-.143z">   <title id="t207">Santa Clara, CA</title>  </path>  <path id="FIPS_06099" d="m45.145 141.35 1.835 3.787 1.951 3.186-.005.005-5.272 1.081-1.465.433.076.045.058.127-.018.423-3.299 1.948-1.135-.979-.289-3.299.04-.676.158-.064.009.01 2.655-1.569.469-.301.202-.091 1.141-.302.252.091.5.099.578.067.554-.145.361-1.482z">   <title id="t208">Stanislaus, CA</title>  </path>  <path id="FIPS_06043" d="m48.931 148.32.049-.505.086-.126.59-.424 2.93-.613.194.1.848.915.071.131.059.04.289.139.933.253.32-.004 1.239-.19.157-.085.87-.694.587-.135.95.684.604.695.271.716-3.39 2.065-.225.819-.897.803-1.091-.266-3.618 2.209-.727-.944-.265-.377-.41-2.447.045-.045.009-.036.004-.19-.487-2.483z">   <title id="t209">Mariposa, CA</title>  </path>  <path id="FIPS_06109" d="m58.495 141.49-.076.063-.109.38-.162 1.184.414.658.298.253.234.153.424.23.356.261.248.194.397.378.279.609.518 2.294-.351 1.135-.537.411-.18.117-.27-.586-.271-.716-.604-.695-.95-.684-.587.135-.87.694-.157.085-1.239.19-.32.004-.933-.253-.289-.139-.059-.04-.071-.131-.848-.915-.194-.1-2.93.613-.59.424-.086.126-.049.505-1.951-3.186 1.761-1.163.744-.731 1.24-1.279 1.185-1.1 1.51-1.31.244-.114.234-.073 1.239-.17 1.095 1.276.149-.073.771-.257.554-.068.392.091.045.045.036.09z">   <title id="t210">Tuolumne, CA</title>  </path>  <path id="FIPS_06051" d="m60.253 136.75 1.924 2.88 1.294 1.927 5.507 8.285 4.593 6.856-9.321-2.205-2.054-2.149-.118-1.343-.311-.622-.139-.167-.632-.203-.748-.203.18-.117.537-.411.351-1.135-.518-2.294-.279-.609-.397-.378-.248-.194-.356-.261-.424-.23-.234-.153-.298-.253-.414-.658.162-1.184.109-.38.076-.063 1.018-.866.469-1.076-.406-1.497.014-.131.235-.604z">   <title id="t211">Mono, CA</title>  </path>  <path id="FIPS_06003" d="m57.878 133.19 2.375 3.562-.428.562-.235.604-.014.131.406 1.497-.469 1.076-1.018.866-.316-1.185-.036-.09-.045-.045-.392-.091-.554.068-.771.257-.149.073-1.095-1.276-.261-1.096.626-2.429 1.33-.662.247-.18.807-.718.05-.077.068-.359-.014-.248z">   <title id="t212">Alpine, CA</title>  </path>  <path id="FIPS_06009" d="m55.137 139.2-1.239.17-.234.073-.244.114-1.51 1.31-1.185 1.1-1.24 1.279-.744.731-1.761 1.163-1.835-3.787-.171-2.041.067.077.126.077.785.167 2.384-.753 1.803-.794.469-.243.437.026 3.831.235z">   <title id="t213">Calaveras, CA</title>  </path>  <path id="FIPS_06005" d="m55.502 135.67-.626 2.429-3.831-.235-.437-.026-.469.243-1.803.794-2.384.753-.785-.167-.126-.077-.067-.077-.054-.987.698-2.641.933.108 2.92.987.447.113.716.082 1.975.089.559-.089z">   <title id="t214">Amador, CA</title>  </path>  <path id="FIPS_06077" d="m44.974 139.31.171 2.041-.644 2.394-.361 1.482-.554.145-.578-.067-.5-.099-.252-.091-1.141.302-.202.091-.469.301-2.655 1.569-.55-.838-.072-.154.555-2.019.405-1.461.708-3.497.437-.567 1.087-1.151h.229l.176.074.121.279.186.176.486.121 1.785.208.068-.009.694-.239.816.022z">   <title id="t215">San Joaquin, CA</title>  </path>  <path id="FIPS_06013" d="m32.061 137.97.87.527.5.145 2.127.517.144.015.131-.009.091-.059.081-.099.207.568.09.121.253.104.112.026.392.009.442-.125.239-.15.049-.089.028-.181.049-.08.072-.036h.112l.573.103.18.094.032.041-.708 3.497-.73.081-3.565.095-1.762-1.812-.041-.301-.193-.604-.303-.424-.054-.031-.446-.009-.387-.284-.37-.843 1.28-.28.212-.1.275-.215.027-.086z">   <title id="t216">Contra Costa, CA</title>  </path>  <path id="FIPS_06017" d="m57.368 131.26.51 1.933.112.24.014.248-.068.359-.05.077-.807.718-.247.18-1.33.662-2.334 1.299-.559.089-1.975-.089-.716-.082-.447-.113-2.92-.987-.933-.108-.405-2.858 1.23-1.469.275-.599.212-.176 1.063-.302 1.357-.221.433.023.068.027.234.138.311.321.112.252.082.137.139.161.595.59.122.073h.081l.482-.091.239-.107.532-.446 2.15.081.568.049.207-.049.14-.06.04-.152.122-.095z">   <title id="t217">El Dorado, CA</title>  </path>  <path id="FIPS_06067" d="m41.981 131.64 3.232 1.184.405 2.858-.698 2.641-.816-.022-.694.239-.068.009-1.785-.208-.486-.121-.186-.176-.121-.279-.176-.074h-.229l-1.087 1.151-.437.567-.032-.041-.18-.094-.573-.103h-.112l-.072.036-.049.08-.028.181-.049.089-.239.15-.442.125-.392-.009-.112-.026-.253-.104-.09-.121-.207-.568.586.247.959-.095 1.104-1.137.825-1.385.658-.285.195-.117.491-1.014.437-1.781.014-.134-.014-.059-.375-.663-.04-1.271z">   <title id="t218">Sacramento, CA</title>  </path>  <path id="FIPS_06095" d="m31.042 136.39 2.047.59.044-.117-.022-.058-.036-.005-.054-.076-.036-.105.027-.112.545-1.564 1.366.382.045-.107.014-.113.013-.23-.009-.108-.045-.293-.221-.667.004-.063.018-.085.455-.856.05-.055.455.076 3.412.681.104.172v.04l-.108.46-.613 2.176.982.281-.825 1.385-1.104 1.137-.959.095-.586-.247-.081.099-.091.059-.131.009-.144-.015-2.127-.517-.5-.145-.87-.527-1.001-1.501-.018-.076">   <title id="t219">Solano, CA</title>  </path>  <path id="FIPS_06075" d="m29.595 142.03-1.077-.306v-.009l.013-.199.127-.735.117-.067.464-.091.388.027.185.046.068.1.071.22-.058.77-.058.186z">   <title id="t220">San Francisco, CA</title>  </path>  <path id="FIPS_06041" d="m25.782 132.96.122-.064.816.019.081.021 2.132 2.538 1.131 1.262-.36.938-.374 1.185-.028.1.068.107.167.207.167.277.058.143-.004.04-.595.581-.266-.031-.167-.086-.113-.108-3.177-3.646.527-2.808-.031-.239-.113-.329z">   <title id="t221">Marin, CA</title>  </path>  <path id="FIPS_06055" d="m33.684 127.56.942.596.495 2.636.117.744.014.266-.005.942-.05.055-.455.856-.018.085-.004.063.221.667.045.293.009.108-.013.23-.014.113-.045.107-1.366-.382-.545 1.564-.027.112.036.105.054.076.036.005.022.058-.044.117-2.047-.59.392.072.311-.505.023-.297-.009-.302-.122-1.042-.69-2.442-.396-1.087.032-.847.166-.555 1.708-.022 1.155-.978.112-.171z">   <title id="t222">Napa, CA</title>  </path>  <path id="FIPS_06097" d="m22.429 125.58.388-.024 1.334.014 2.92.239 2.475.752 1.203 2.822-.166.555-.032.847.396 1.087.69 2.442.122 1.042.009.302-.023.297-.311.505-.392-.072.018.076-.996.275-1.131-1.262-2.132-2.538-.081-.021-.816-.019-.122.064-.639-2.273-2.087-3.993z">   <title id="t223">Sonoma, CA</title>  </path>  <path id="FIPS_06113" d="m34.423 126.96 4.84 1.356 1.582 2.989.04 1.271.375.663.014.059-.014.134-.437 1.781-.491 1.014-.195.117-.658.285-.982-.281.613-2.176.108-.46v-.04l-.104-.172-3.412-.681-.455-.076.005-.942-.014-.266-.117-.744-.495-2.636-.942-.596z">   <title id="t224">Yolo, CA</title>  </path>  <path id="FIPS_06061" d="m43.55 128.53 1.428-.117.478.409.104.05 1.352.455.324-.054.622-.617.086-.126.076-.198.086-.091.469-.352.469-.243.712-.355 1.365-.636.51-.117.374-.016 6.143 1.593-.482 1.897-.162.672-.136.568-1.361-.347-.122.095-.04.152-.14.06-.207.049-.568-.049-2.15-.081-.532.446-.239.107-.482.091h-.081l-.122-.073-.595-.59-.139-.161-.082-.137-.112-.252-.311-.321-.234-.138-.068-.027-.433-.023-1.357.221-1.063.302-.212.176-.275.599-1.23 1.469-3.232-1.184.802-2.363.532.14z">   <title id="t225">Placer, CA</title>  </path>  <path id="FIPS_06057" d="m58.585 126.5-.437 1.618-6.143-1.593-.374.016-.51.117-1.365.636-.712.355-.469.243-.469.352-.086.091-.076.198-.086.126-.622.617-.324.054-1.352-.455-.104-.05-.478-.409.672-2.461.261-.415.879-.609.824-.433.537-.058.235.036.27.13.135-.157.225-.058 1.623.13 1.271-.316.032-.039.144-.123.342-.166.154-.022.712.229.203.253.072.608.211.248.127.072z">   <title id="t226">Nevada, CA</title>  </path>  <path id="FIPS_06091" d="m49.62 121.53.924-.588.127-.467.256-.181.469-.135 1.83 1.434 1.988.495 2.853.758 1.438.175-.92 3.484-4.678-1.235-.127-.072-.211-.248-.072-.608-.203-.253-.712-.229-.154.022-.342.166-.144.123-.032.039-1.271.316-1.623-.13-.225.058-.135.157z">   <title id="t227">Sierra, CA</title>  </path>  <path id="FIPS_06115" d="m48.837 121.88.783-.356-.964 3.081-.27-.13-.235-.036-.537.058-.824.433-.879.609-.261.415-.672 2.461-1.428.117-.424-.132-.217.006-.675.094-.24.189-.139.149-.014-1.342.447-2.674.058-.193.171-.362.063-.036 1.253.069.996-.072.392-.199z">   <title id="t228">Yuba, CA</title>  </path>  <path id="FIPS_06101" d="m42.58 124.23-.063.036-.171.362-.058.193-.447 2.674.014 1.342.139-.149.24-.189.675-.094.217-.006.424.132-.235.883-.532-.14-.802 2.363-1.136-.33-1.582-2.989.379-.752-.342-1.533-.29-.594.095-.622.789-1.442z">   <title id="t229">Sutter, CA</title>  </path>  <path id="FIPS_06011" d="m40.35 122.43-.456.95-.789 1.442-.095.622.29.594.342 1.533-.379.752-4.84-1.356-.478-.568-.045-.103-.343-1.308.036-.905-.955-1.632-.347-.347-.546-.811-.081-.388.198-.334.397-.431z">   <title id="t230">Colusa, CA</title>  </path>  <path id="FIPS_06033" d="m32.259 120.14-.397.431-.198.334.081.388.546.811.347.347.955 1.632-.036.905.343 1.308.045.103.478.568-.739.599.04.65-.112.171-1.155.978-1.708.022-1.203-2.822-.82-.931-.248-.398-.554-1.455-.167-.739.022-.109.054-.184.221-.519.221-.415.428-.131.419-.468.086-.54-.054-1.773.108-.359.077-.195.279-.609.414-.085.835.276.486-.028.172-.441.058-.186 1.424.407-.329 1.275-.112.355z">   <title id="t231">Lake, CA</title>  </path>  <path id="FIPS_06007" d="m40.314 116.83-.127-.221.059-.375.401-.459 2.267.612.28.019.301-.158.077-.233.077-.155.148-.157.415-.303 1.744-1.081.483.131.617-.117.121-.072.136-.261.301.085.118.612.013.308-.049.176-.211.211-.803 2.326 1.419 2.583.736 1.582-3.616 2.149-.392.199-.996.072-1.253-.069-2.686-.855.456-.95.838-1.777.013-.051-.396-2.577z">   <title id="t232">Butte, CA</title>  </path>  <path id="FIPS_06021" d="m31.881 114.41 8.433 2.42.491 1.194.396 2.577-.013.051-.838 1.777-8.091-2.29.307-.827.112-.355.329-1.275-1.424-.407z">   <title id="t233">Glenn, CA</title>  </path>  <path id="FIPS_06063" d="m47.75 110.16 1.596.442 2.51.666-.644 2.385.117.321.924.824.356.095.202-.046.082-.301.978-.784.346-.104.361.095 1.659 1.243 2.19 2.569.28.366.482 2.09-.009.393-.095.364-.482 1.426-.536.64-2.853-.758-1.988-.495-1.83-1.434-.469.135-.256.181-.127.467-.924.588-.783.356-.736-1.582-1.419-2.583.803-2.326.211-.211.049-.176-.013-.308-.118-.612-.301-.085.852-.582.036-.036.072-.113.297-.888-.117-.605-.085-.016-.672-.326-.032-.031-.036-.126.004-.086.068-.861z">   <title id="t234">Plumas, CA</title>  </path>  <path id="FIPS_06103" d="m47.75 110.16-.05.171-.068.861-.004.086.036.126.032.031.672.326.085.016.117.605-.297.888-.072.113-.036.036-.852.582-.136.261-.121.072-.617.117-.483-.131-1.744 1.081-.415.303-.148.157-.077.155-.077.233-.301.158-.28-.019-2.267-.612-.401.459-.059.375.127.221-8.433-2.42-.041-.064v-.58l.293-.596.347-.203.104-.235.031-.418-.045-.138-.031-.241.212-1.762.184-.65.05-.045.122-.576.008-.133-.049-.111-.609-.693.83-.096 1.352-.031 1.081.013 2.268.307.612.415.933.298.33.088 1.244.083.928-.032.834.045 1.546.22 1.37.272z">   <title id="t235">Tehama, CA</title>  </path>  <path id="FIPS_06045" d="m22.398 108.84 4.511 1.347-.094.307 5.755 1.683.045.138-.031.418-.104.235-.347.203-.293.596v.58l.041.064-.298 2.865-.058.186-.172.441-.486.028-.835-.276-.414.085-.279.609-.077.195-.108.359.054 1.773-.086.54-.419.468-.428.131-.221.415-.221.519-.054.184-.022.109.167.739.554 1.455.248.398.82.931-2.475-.752-2.92-.239-1.334-.014-.388.024-.46-.824-.689-1.49.55-5.677.031-.221.022-.1.186-.463.216-.474.225-.328.126-.186.172-.179.063-.086.036-.05.009-.01.225-.347.018-.09.194-1.297.031-.321-.004-2.009-.009-.033-.433-1.153-.238-.622z">   <title id="t236">Mendocino, CA</title>  </path>  <path id="FIPS_06023" d="m30.956 92.68 1.479.437.18.257-.072 2.519-.158.154-.166.225-.298.59-.018.42.049.085-.049.627-.707.721-.312.275-1.041.838-.293 1.492-2.641 8.865-4.511-1.347-.217-.382-1.915-3.656-.059-.162.243-2.335.032-.059.82-1.181.577-.744.221-.248.397-.423.59-.573.694-.739.384-.405.292-.352.384-.554.418-.735.204-.469-.05-.288 1.212-2.88.916-2.123 1.658.486 1.055.343-.199.667.374.5z">   <title id="t237">Humboldt, CA</title>  </path>  <path id="FIPS_06105" d="m32.543 95.893.46.37.442.428.712 1.068 1.298 1.37.757.384.185.027.216-.171.117-.208-.086-.599 1.411-1.461 2.024-.797 1.14.703-.234 1.311.19.135.157.171.027.122-.14.51-.067.113-.09.13-1.087.965-.356.13-.063.009-2.587 3.146-1.659 2.092-1.541.712-1.172.951-.14.46.609.693.049.111-.008.133-.122.576-.05.045-.184.65-.212 1.762.031.241-5.755-1.683.094-.307 2.641-8.865.293-1.492 1.041-.838.312-.275.707-.721.049-.627-.049-.085.018-.42.298-.59.166-.225z">   <title id="t238">Trinity, CA</title>  </path>  <path id="FIPS_06089" d="m50.765 101.05 1.068.283-.892 3.295-.018.433-1.203 4.354-.374 1.185-1.596-.442-1.965-.612-1.37-.272-1.546-.22-.834-.045-.928.032-1.244-.083-.33-.088-.933-.298-.612-.415-2.268-.307-1.081-.013-1.352.031-.83.096.14-.46 1.172-.951 1.541-.712 1.659-2.092 2.587-3.146.063-.009.356-.13 1.087-.965.09-.13.067-.113.14-.51-.027-.122-.157-.171-.19-.135 1.947.523 2.673.775z">   <title id="t239">Shasta, CA</title>  </path>  <path id="FIPS_06035" d="m64.264 104.63-1.028 4.002-1.158 4.611-.581 2.248-.185.726-.005.013-.631 2.399-.973 3.65-.198.735-1.438-.175.536-.64.482-1.426.095-.364.009-.393-.482-2.09-.28-.366-2.19-2.569-1.659-1.243-.361-.095-.346.104-.978.784-.082.301-.202.046-.356-.095-.924-.824-.117-.321.644-2.385-2.51-.666.374-1.185 1.203-4.354.018-.433.892-3.295z">   <title id="t240">Lassen, CA</title>  </path>  <path id="FIPS_06049" d="m53.551 90.859 5.219 1.46 1.713.46.013.005 3.38.897.365.094 2.66.672-2.637 10.186-12.431-3.3-1.068-.283.843-3.079 1.172-4.354-.045-.027-.014-.04.492-1.812.089-.311z">   <title id="t241">Modoc, CA</title>  </path>    </g> </svg>