<svg id="svg9559" width="555.22" height="351.67" xmlns="http://www.w3.org/2000/svg" viewBox="160.5140380859375 127.4540023803711 74.4439697265625 58.785011291503906">
   <g id="stylegroup" fill="#d0d0d0" stroke="#000" stroke-width=".1">
    <path id="FIPS_08083" d="m172.44 172.17-.442.388-2.303 2.987-.077.108-.861 1.416-1.361 2.452-.135.37-6.747-.902.883-6.256 1.528-1.716 6.112.81 1.154.127.879.049z">
     <title id="t242">Montezuma, CO</title>
    </path>
    <path id="FIPS_08067" d="m172.44 172.17 4.926.608-.996 8.253-9.109-1.14.135-.37 1.361-2.452.861-1.416.077-.108 2.303-2.987z">
     <title id="t243">La Plata, CO</title>
    </path>
    <path id="FIPS_08099" d="m225.77 169.24 7 .446-.005.081-.406 6.801-.072 1.221-7.143-.473.162-2.325h.072l.018-.185z">
     <title id="t244">Prowers, CO</title>
    </path>
    <path id="FIPS_08011" d="m225.77 169.24-.374 5.566-.018.185h-.072l-.162 2.325-3.322-.239-3.317-.252.671-8.059z">
     <title id="t245">Bent, CO</title>
    </path>
    <path id="FIPS_08061" d="m221.8 164.45 1.104.049 4.498.349 2.465.139 3.187.211-.279 4.494-7-.446-6.594-.474-1.019-.072.226-3.263.428-.058 2.118.162.78.04z">
     <title id="t246">Kiowa, CO</title>
    </path>
    <path id="FIPS_08017" d="m233.4 159.59-.275 4.534-.072 1.067-3.187-.211-2.465-.139-4.498-.349-1.104-.049.514-5.503 1.108.054 3.326.252 2.141.112 1.461.046z">
     <title id="t247">Cheyenne, CO</title>
    </path>
    <path id="FIPS_08063" d="m222.91 152.1 3.466.226 7.423.425-.004.075-.334 5.648-.063 1.119-3.051-.186-1.461-.046-2.141-.112-3.326-.252-1.108-.054.085-1.145.235-2.069z">
     <title id="t248">Kit Carson, CO</title>
    </path>
    <path id="FIPS_08125" d="m228.52 141.14 5.972.383-.077 1.176-.284 4.488-.338 5.568-7.423-.425.293-3.87.103-1.759.42-4.52.216-1.119z">
     <title id="t249">Yuma, CO</title>
    </path>
    <path id="FIPS_08121" d="m217.94 146.04 2.285.181.154-2.142.211-2.37.144-1.118 6.671.472-.216 1.119-.42 4.52-.103 1.759-.293 3.87-3.466-.226-5.44-.431z">
     <title id="t250">Washington, CO</title>
    </path>
    <path id="FIPS_08095" d="m234.76 137.5-.045.677-.216 3.34-5.972-.383.419-4.017z">
     <title id="t251">Phillips, CO</title>
    </path>
    <path id="FIPS_08115" d="m229.46 133.86 5.498.368-.203 3.277-5.814-.383.207-3.28z">
     <title id="t252">Sedgwick, CO</title>
    </path>
    <path id="FIPS_08075" d="m220.26 133.18 1.852.143 7.04.515-.207 3.28-.419 4.017-1.118-.078-6.671-.472-1.041-1.218.199-2.311.058.004.298-3.578z">
     <title id="t253">Logan, CO</title>
    </path>
    <path id="FIPS_08087" d="m217.94 146.04-4.349-.361.608-6.774 3.155.271 1.226.125 1.113.072 1.041 1.218-.144 1.118-.211 2.37-.154 2.142z">
     <title id="t254">Morgan, CO</title>
    </path>
    <path id="FIPS_08009" d="m221.82 177.08 3.322.239 7.143.473-.216 3.308-.329 5.139-3.195-.225-5.301-.437-1.294-.1-.856-.063.113-1.622.293-3.321.081.004z">
     <title id="t255">Baca, CO</title>
    </path>
    <path id="FIPS_08089" d="m219.18 168.77-.671 8.059-6.608-.545.072-1.177.482-5.332.244.095.951.284 1.032.243 2.141.172 1.163-.68.175-1.191z">
     <title id="t256">Otero, CO</title>
    </path>
    <path id="FIPS_08025" d="m212.91 164.91 5.476.527-.226 3.263-.175 1.191-1.163.68-2.141-.172-1.032-.243-.951-.284-.244-.095z">
     <title id="t257">Crowley, CO</title>
    </path>
    <path id="FIPS_08073" d="m222.91 152.1-.279 3.629-.235 2.069-.085 1.145-.514 5.503-.086 1.131-.78-.04-2.118-.162-.428.058-5.476-.527.365-4.489 3.335.302.32-3.371.469-5.688.072.009z">
     <title id="t258">Lincoln, CO</title>
    </path>
    <path id="FIPS_08039" d="m213.27 160.42.324-3.359-6.048-.549.541-5.644 9.307.795-.469 5.688-.32 3.371z">
     <title id="t259">Elbert, CO</title>
    </path>
    <path id="FIPS_08005" d="m206.09 148.39.831.084.649.064 2.587.266 5.413.427 2.091.186-.189 2.249-.072-.009-9.307-.795-3.818-.359.023-.722.013-.112v-.018h.01l1.653.009.181-.401-.072-.671.011-.112">
     <title id="t260">Arapahoe, CO</title>
    </path>
    <path id="FIPS_08123" d="m215.64 132.8 4.615.378-.009.302-.298 3.578-.058-.004-.199 2.311-1.113-.072-1.226-.125-3.155-.271-.608 6.774-8.091-.732.039-.317-.412-.037-.057.319-.299-.021.297-3.394.095-1.127 1.077.1.121-1.136.695-7.253z">
     <title id="t261">Weld, CO</title>
    </path>
    <path id="FIPS_08001" d="m205.27 144.93 8.32.742 4.349.361-.284 3.385-2.091-.186-5.413-.427-2.587-.266-.649-.064-.83-.093.941-.932.734.016.077-.686-.547-.062-1.237.927-1.55-.062.154-1.591.302-.144.095-.678.178.021">
     <title id="t262">Adams, CO</title>
    </path>
    <path id="FIPS_08031" d="m204.51 147.58 1.545.072 1.249-.933.539.067-.089.671-.722-.018-.937.93-.011.217.072.671-.181.401-1.653-.009.04-.473.018-.186z">
     <title id="t263">Denver, CO</title>
    </path>
    <path id="FIPS_08035" d="m204.27 150.51 3.818.359-.541 5.644-3.664-.347-2.921-.279z">
     <title id="t264">Douglas, CO</title>
    </path>
    <path id="FIPS_08041" d="m213.27 160.42-.365 4.489-8.861-.758.153-1.685.108-.784.104-1.118-.802-1.013.216-2.083.059-1.303 3.664.347 6.048.549z">
     <title id="t265">El Paso, CO</title>
    </path>
    <path id="FIPS_08119" d="m200.95 155.88h.013l2.921.279-.059 1.303-.216 2.083.802 1.013-.104 1.118-.108.784-1.672-.13-1.298-.127.031-.311-.419-.37-.432-.049z">
     <title id="t266">Teller, CO</title>
    </path>
    <path id="FIPS_08101" d="m204.05 164.15 8.861.758-.456 4.867-.482 5.332-2.83-1.325-2.88-1.343-3.453-.09-.414-.32-.172-.163.429-4.43 1.09.099z">
     <title id="t267">Pueblo, CO</title>
    </path>
    <path id="FIPS_08071" d="m209.14 173.78 2.83 1.325-.072 1.177 6.608.545 3.317.252-.239 3.395-.081-.004-.293 3.321-.113 1.622-9.397-.699-7.382-.617-2.732-.251-1.573-.177.383-3.854h.392l3.854-1.086.437-.347 1.83-2.086 1.217-1.799z">
     <title id="t268">Las Animas, CO</title>
    </path>
    <path id="FIPS_08055" d="m197.94 171.7.541.136.054-.009 1.176-.307 1.573-.748.937 1.09.172.163.414.32 3.453.09 2.88 1.343-1.014.717-1.217 1.799-1.83 2.086-.437.347-3.854 1.086h-.392l.347-1.518-.374-2.606-.946-.676-.063-.013-.717.13-.758.275-.482.397.51-2.218z">
     <title id="t269">Huerfano, CO</title>
    </path>
    <path id="FIPS_08023" d="m194.51 178.4 2.893-2.591.482-.397.758-.275.717-.13.063.013.946.676.374 2.606-.347 1.518-.383 3.854-.667-.064-5.066-.513-.397-.442-.058-.139-.014-.118.064-.261.283-.487.203-.639.239-1.555z">
     <title id="t270">Costilla, CO</title>
    </path>
    <path id="FIPS_08021" d="m191.57 177.52 2.939.879.09 1.056-.239 1.555-.203.639-.283.487-.064.261.014.118.058.139.397.442-2.93-.302-4.777-.491-.099-.293-1.33-2.777-.284-.198.257-2.258z">
     <title id="t271">Conejos, CO</title>
    </path>
    <path id="FIPS_08003" d="m197.91 173.59-.51 2.218-2.893 2.591-2.939-.879.482-4.494z">
     <title id="t272">Alamosa, CO</title>
    </path>
    <path id="FIPS_08105" d="m185.59 171.18 1.068.129-.117 1.118 5.512.594-.482 4.494-6.454-.743-.329-.045.171-1.524.361-1.82z">
     <title id="t273">Rio Grande, CO</title>
    </path>
    <path id="FIPS_08027" d="m195.18 166.6 2.497.265 2.056.276 2.916.297-.429 4.43-.937-1.09-1.573.748-1.176.307-.054.009-.541-.136-.262-.392-.923-1.514-.523-1.528-.136-.284z">
     <title id="t274">Custer, CO</title>
    </path>
    <path id="FIPS_08043" d="m200.41 161.48.432.049.419.37-.031.311 1.298.127 1.672.13-.46 5.07-1.09-.099-2.916-.297-2.056-.276-2.497-.265-1.888-2.569 1.117-.775.294-.59.117-.488.004-.063-.049-.184-.293-.789-.032-.04-.18-.126-.235-.095 2.317.225 2.871.252z">
     <title id="t275">Fremont, CO</title>
    </path>
    <path id="FIPS_08109" d="m190.9 164.08 2.389-.055 1.888 2.569.915 1.388.136.284.523 1.528.923 1.514.262.392-.027 1.884-5.86-.564-5.512-.594.117-1.118-1.068-.129-.067-.529-1.645-1.32-.108-.086-.726-.189-.311.158-.045.05.284-2.466.424-3.597z">
     <title id="t276">Saguache, CO</title>
    </path>
    <path id="FIPS_08015" d="m188.52 155.51 3.822.442.054.248.563 1.319.406.163.05.005.053-.058.028-.059.067-.015.235.034.545.518.167.338.14 1.239-.347.914-.267.276.235.095.18.126.032.04.293.789.049.184-.004.063-.117.488-.294.59-1.117.775-2.389.055-.726-1.007-.77-2.144-.054-.473.346-1.556.091-.193.09-.054.027-1.231-1.686-1.162z">
     <title id="t277">Chaffee, CO</title>
    </path>
    <path id="FIPS_08051" d="m180.76 152.02.086.762.189.361.613.785 2.001.233.136.019.608.716-.009.248.176.302.595.545.779.284.253.023.189-.095.388-.469.053-.208.469-.116.068.009.865.848 1.686 1.162-.027 1.231-.09.054-.091.193-.346 1.556.054.473.77 2.144.726 1.007-7.508-.88-.424 3.597-5.675-.681-.419-2.078 1.348.167.568-4.733.86-7.088z">
     <title id="t278">Gunnison, CO</title>
    </path>
    <path id="FIPS_08097" d="m183.7 150.93 6.752.82-1.929 3.763-.298.749-.865-.848-.068-.009-.469.116-.053.208-.388.469-.189.095-.253-.023-.779-.284-.595-.545-.176-.302.009-.248-.608-.716-.136-.019-2.001-.233-.613-.785-.189-.361-.086-.762-.189-1.459z">
     <title id="t279">Pitkin, CO</title>
    </path>
    <path id="FIPS_08065" d="m192.64 151.76.703.077-.194.202-.378.653-.072.388-.05.897-.009.929-.158.788-.135.262-3.822-.442 1.929-3.763z">
     <title id="t280">Lake, CO</title>
    </path>
    <path id="FIPS_08093" d="m200.83 150.17-.55 5.647.668.068-.541 5.593-1.186-.122-2.871-.252-2.317-.225.267-.276.347-.914-.14-1.239-.167-.338-.545-.518-.235-.034-.067.015-.028.059-.053.058-.05-.005-.406-.163-.563-1.319-.054-.248.135-.262.158-.788.009-.929.05-.897.072-.388.378-.653.194-.202 1.145.297 1.726-1.744.388-.636z">
     <title id="t281">Park, CO</title>
    </path>
    <path id="FIPS_08059" d="m204.66 145.99-.154 1.591-.13 1.41-.018.186-.04.473h-.01v.018l-.013.112-.023.722-3.308 5.377h-.013l-.668-.068.55-5.647.239-2.339.217-2.147 2.785.269-.032.119.377.037">
     <title id="t282">Jefferson, CO</title>
    </path>
    <path id="FIPS_08047" d="m198.59 145.16 1.713.177.622.004.383.063-.022.283-.217 2.147-1.424-.586-.262-.348-.477-.495-.564-.217z">
     <title id="t283">Gilpin, CO</title>
    </path>
    <path id="FIPS_08019" d="m198.34 146.18.564.217.477.495.262.348 1.424.586-.239 2.339-4.236-.415.581-.465.009-.071-.045-.258-.094-.094-.235.014-.879-.465-.139-.161.053-.33.194-.333.92-.681.59-.063.221-.094.496-.406z">
     <title id="t284">Clear Creek, CO</title>
    </path>
    <path id="FIPS_08117" d="m191.17 144.47.383.049 1.587.578.942.775.351.5.104.568.032.519.266.486.288.099.505-.009.22-.108-.053.33.139.161.879.465.235-.014.094.094.045.258-.009.071-.581.465-.388.636-1.726 1.744-1.145-.297-.703-.077-.284-1.88-1.203-4.359-.05-.382z">
     <title id="t285">Summit, CO</title>
    </path>
    <path id="FIPS_08037" d="m189.3 144.26 1.875.207-.072.672.05.382 1.203 4.359.284 1.88-2.186-.009-6.752-.82.834-7.144.803.1z">
     <title id="t286">Eagle, CO</title>
    </path>
    <path id="FIPS_08013" d="m198.59 145.16.654-4.214.991.087 1.447.193 3.385.271-.297 3.394-.083.728-.345-.036-.257.367-2.799-.263.022-.283-.383-.063-.622-.004z">
     <title id="t287">Boulder, CO</title>
    </path>
    <path id="FIPS_08049" d="m189.3 144.26.113-.969.437-4.417-.041-1.361.303.842.076.104 1.505.555 2.033.513.406.014 2.141-.104.721-.541.599-1.077 1.659 3.123-.654 4.214-.248 1.028-.076.163-.496.406-.221.094-.59.063-.92.681-.194.333-.22.108-.505.009-.288-.099-.266-.486-.032-.519-.104-.568-.351-.5-.942-.775-1.587-.578-.383-.049z">
     <title id="t288">Grand, CO</title>
    </path>
    <path id="FIPS_08069" d="m195.05 130.86 8.798.901 3.214.311-.695 7.253-.121 1.136-1.077-.1-.095 1.127-3.385-.271-1.447-.193-.991-.087-1.659-3.123-.486-1.15-.37-1.671-.446-1.181-.113-.22-.938-1.569z">
     <title id="t289">Larimer, CO</title>
    </path>
    <path id="FIPS_08057" d="m188.64 130.09 5.151.625 1.253.149.189 1.163.938 1.569.113.22.446 1.181.37 1.671.486 1.15-.599 1.077-.721.541-2.141.104-.406-.014-2.033-.513-1.505-.555-.076-.104-.303-.842-.099-.414-.18-1.374.004-.47.663-1.96.09-.046.167-.162.032-.171-.009-.185-.203-.563-.118-.172-.175-.181-.672-.373-.072-.032-.054.041-.149.08-.455-.431-.122-.438-.008-.203.153-.329z">
     <title id="t290">Jackson, CO</title>
    </path>
    <path id="FIPS_08107" d="m184.22 129.57 4.427.521-.045.039-.153.329.008.203.122.438.455.431.149-.08.054-.041.072.032.672.373.175.181.118.172.203.563.009.185-.032.171-.167.162-.09.046-.663 1.96-.004.47.18 1.374.099.414.041 1.361-.437 4.417-.113.969-3.961-.373.202-2.237.199-1.726-3.904-.442.14-1.437.46-2.659.635-.632.32-.013.244.027.148-1.209z">
     <title id="t291">Routt, CO</title>
    </path>
    <path id="FIPS_08081" d="m178.44 128.87 5.773.697-.437 3.989-.148 1.209-.244-.027-.32.013-.635.632-.46 2.659-.14 1.437-.004.04-.077-.008-2.641-.366-3.944-.472-8.973-1.209.789-5.543.604-4.467 7.666 1.032z">
     <title id="t292">Moffat, CO</title>
    </path>
    <path id="FIPS_08103" d="m181.83 139.48 3.904.442-.199 1.726-2.722-.31-.162 1.167-.126 1.099-1.24.984-2.889-.353-2.064-.217-.212 1.687-2.731-.361-2.222-.085-1.145.233-3.335-.45-.036-.14-1.465-.198 1.005-7.239 8.973 1.209 3.944.472 2.641.366.077.008z">
     <title id="t293">Rio Blanco, CO</title>
    </path>
    <path id="FIPS_08045" d="m185.54 141.65-.202 2.237-.803-.1-.834 7.144-3.123-.374-15.91-2.07.235-1.685.288-2.096 1.465.198.036.14 3.335.45 1.145-.233 2.222.085 2.731.361.212-1.687 2.064.217 2.889.353 1.24-.984.126-1.099.162-1.167z">
     <title id="t294">Garfield, CO</title>
    </path>
    <path id="FIPS_08029" d="m179.65 152.39-.86 7.088-8.708-1.094.27-2.078 4.3-2.47 1.181-.067 1.866-.083.482-.485.329-.212z">
     <title id="t295">Delta, CO</title>
    </path>
    <path id="FIPS_08077" d="m164.66 148.49 15.91 2.07.189 1.459-1.109.371-1.14.599-.329.212-.482.485-1.866.083-1.181.067-4.3 2.47-.27 2.078-.288 2.168-6.761-.91.392-2.831.388-2.371.072-.496.342-2.34z">
     <title id="t296">Mesa, CO</title>
    </path>
    <path id="FIPS_08085" d="m170.09 158.38 8.708 1.094-.568 4.733-1.348-.167.081-.302-.04-.085-4.949-.619-.013.141.342.907.748.094.266.122.329.329.086.108-.081.581-.122.266-.189-.024-10.741-1.427.442-4.493 6.761.91z">
     <title id="t297">Montrose, CO</title>
    </path>
    <path id="FIPS_08111" d="m175.22 169.03.126.104.23.117h.05l.338-.104.153-.072.135-.122.005-.031-.032-.108v-.068l.059-.365.73.09.356 4.304-4.926-.608.121-.357.361-.446.554-.103.257-.46.045-.247z">
     <title id="t298">San Juan, CO</title>
    </path>
    <path id="FIPS_08033" d="m173.78 170.55-.045.247-.257.46-.554.103-.361.446-.121.357-1.37-.167-.879-.049-1.154-.127-6.112-.81-1.528 1.716.716-5.101 2.219.31.04-.108.243-.045 5.391.726.153.256.054.208v.234l.144.311 1.583-.081.441-.131.248.095.645.519z">
     <title id="t299">Dolores, CO</title>
    </path>
    <path id="FIPS_08113" d="m162.6 164.13 10.741 1.427-.009.096.095.393.364 1.22.081.203.059.063.32.212.333.104.266.184.338.37.127.316-.054.243-.041.068-1.438 1.524-.504-.631-.645-.519-.248-.095-.441.131-1.583.081-.144-.311v-.234l-.054-.208-.153-.256-5.391-.726-.243.045-.04.108-2.219-.31z">
     <title id="t300">San Miguel, CO</title>
    </path>
    <path id="FIPS_08091" d="m176.88 164.04.419 2.078-.288 2.353-.73-.09-.059.365v.068l.032.108-.005.031-.135.122-.153.072-.338.104h-.05l-.23-.117-.126-.104.041-.068.054-.243-.127-.316-.338-.37-.266-.184-.333-.104-.32-.212-.059-.063-.081-.203-.364-1.22-.095-.393.009-.096.189.024.122-.266.081-.581-.086-.108-.329-.329-.266-.122-.748-.094-.342-.907.013-.141 4.949.619.04.085z">
     <title id="t301">Ouray, CO</title>
    </path>
    <path id="FIPS_08053" d="m177.3 166.12 5.675.681-.284 2.466-.717-.073-.69.135-.382 2.862-.014 1.586-.288 2.223-3.57-.423.338-2.8-.356-4.304z">
     <title id="t302">Hinsdale, CO</title>
    </path>
    <path id="FIPS_08079" d="m182.69 169.26.045-.05.311-.158.726.189.108.086 1.645 1.32.067.529-.27 2.203-.361 1.82-.171 1.524-.009.104-4.232-.438.05-.396.288-2.223.014-1.586.382-2.862.69-.135z">
     <title id="t303">Mineral, CO</title>
    </path>
    <path id="FIPS_08007" d="m177.03 175.58 3.57.423-.05.396 4.232.438.009-.104.329.045-.257 2.258.284.198 1.33 2.777.099.293-1.433-.154-2.57-.283-1.315-.253-4.269-.505-.617-.076z">
     <title id="t304">Archuleta, CO</title>
    </path>
    <path id="FIPS_08014" d="m204.04 146.06.044-.114.261-.368.353.039.075-.733.301.02.055-.317.4.036-.031.321-.23-.02-.036.261-.182-.019-.095.681-.531.25z">
     <title id="t305">Broomfield, CO</title>
    </path>
   </g>
  </svg>