<svg id="svg9559" width="555.22" height="351.67" xmlns="http://www.w3.org/2000/svg" viewBox="506.157958984375 93.60399627685547 17.42608642578125 17.404991149902344">
 <g id="stylegroup" fill="#d0d0d0" stroke="#000" stroke-width=".1">
  <path id="FIPS_09003" d="m510.62 96.236 4.633-1.095.433 1.059 1.775 3.786.032.071.054.298-.464.361-.563-.703-1.119.37-.761.36-.203.703-2.339-.23-.807-1.924.605-.257.053-2.245-1.298.41z">
   <title id="t306">Hartford, CT</title>
  </path>
  <path id="FIPS_09005" d="m510.21 96.33.415-.094.031.964 1.298-.41-.053 2.245-.605.257.807 1.924-.996 1.244-1.722 1.217-.031.172.021.107.082.082.122.076-.018.027-.135.004-.515-.138-.757-.262-.084-.148-.181-.298-.505-1.06-.081-.094-.262-.054-.883-4.904z">
   <title id="t307">Litchfield, CT</title>
  </path>
  <path id="FIPS_09001" d="m507.35 103.88-.306-1.785.262.054.081.094.505 1.06.181.298.084.148.757.262.515.138.135-.004.018-.027.351.131.758.248 1.676 1.186-.032.626-.117.27-.023.104.028.614.027.061.154.096-.65.176-1.632 1.234-2.239 1.901-.055.105-.028.139-1.008-1.297.702-.717.06-.059.306-2.082-.158-.91z">
   <title id="t308">Fairfield, CT</title>
  </path>
  <path id="FIPS_09009" d="m514.44 101.45.329 1.005.685.708.348-.172.135.086.419.473 1.126 1.398-.496-.027-.315.076-1.298.393-.811.341-.442.064-.208-.257-.076.031-1.1 1.281-.149.208-.176.333-.012.049v.014l-.154-.096-.027-.061-.028-.614.023-.104.117-.27.032-.626-1.676-1.186-.758-.248-.351-.131-.122-.076-.082-.082-.021-.107.031-.172 1.722-1.217.996-1.244z">
   <title id="t309">New Haven, CT</title>
  </path>
  <path id="FIPS_09007" d="m517.09 100.72 2.177 3.493-1.781.735-1.126-1.398-.419-.473-.135-.086-.348.172-.685-.708-.329-1.005.203-.703.761-.36 1.119-.37z">
   <title id="t310">Middlesex, CT</title>
  </path>
  <path id="FIPS_09011" d="m523.34 98.936.244 3.619-1.194.334-2.43 1.126-.509.199-.095.013-.094-.018-2.177-3.493.464-.361 1.23-1.816.613.351.329.163 1.983-.199.843-.346.65-.113z">
   <title id="t311">New London, CT</title>
  </path>
  <path id="FIPS_09013" d="m519.04 94.258.251.869-.89.225-.194.063.387 1.551.442.252.387.627-.274.324-.366.37-1.23 1.816-.054-.298-.032-.071-1.775-3.786-.433-1.059 3.466-.821z">
   <title id="t312">Tolland, CT</title>
  </path>
  <path id="FIPS_09015" d="m521.9 93.793 1.015 3.538.28 1.064-.65.113-.843.346-1.983.199-.329-.163-.613-.351.366-.37.274-.324-.387-.627-.442-.252-.387-1.551.194-.063.89-.225-.251-.869.397-.082 2.406-.572z">
   <title id="t313">Windham, CT</title>
  </path>
 </g>
</svg>