<svg id="svg9559" width="555.22" height="351.67" xmlns="http://www.w3.org/2000/svg" viewBox="491.1480407714844 129.76998901367188 10.725982666015625 17.695999145507812">
 <g id="stylegroup" fill="#d0d0d0" stroke="#000" stroke-width=".1">
  <path id="FIPS_10003" d="m494.28 130.26-.352 1.249-.207-.04-.438.648-.17.433v.066l.035.122.045.11.509 1.234 1.096 1.501-2.208 1.397-.284-1.009-1.158-4.331 1.536-1.87 1.835.066z">
   <title id="t314">New Castle, DE</title>
  </path>
  <path id="FIPS_10005" d="m494.92 145.27-.686-2.443 1.359-.355.563-.51.034-.194.164-.387.784-.559.752-.419.081.347.108.13.898.718.508.387.357.139.266.05.198-.054.139-.108.023-.077.252.527.604 1.764.442 1.518.108.441-2.861.625-.145.034-.379.086-.159.03-.137.027-.037.006-.502.094-.206.041-.586.112-.293.055-.036.004-.689.117-.303.05-.116-.407-.108-.369-.135-.486z">
   <title id="t315">Sussex, DE</title>
  </path>
  <path id="FIPS_10001" d="m492.59 136.98 2.208-1.397.852.505.433.555.081.117.238.612.028.212.991 2.02.469.802-.752.419-.784.559-.164.387-.034.194-.563.51-1.359.355-1.464-5.214z">
   <title id="t316">Kent, DE</title>
  </path>
 </g>
</svg>