<svg id="svg9559" width="555.22" height="351.67" xmlns="http://www.w3.org/2000/svg" viewBox="385.9110107421875 256.60400390625 93.27801513671875 79.25991821289062">
 <g id="stylegroup" fill="#d0d0d0" stroke="#000" stroke-width=".1">
  <path id="FIPS_12005" d="m411.11 264.87.465 4.687.411 3.543-1.16-.352-.252-.104-.081-.053-.306-.218-.387-.356-2.44-1.415-.179-.098-.127-.072-.121-.068-.195-.095-.422-.216-.177-.086-.144-.068-.172-.071-.207-.096-.184-.066-.667-.244-.131-1.546.274-.302 1.195-.518 3.376-.325.671-.073-.166-1.671.563-.063z">
   <title id="t317">Bay, FL</title>
  </path>
  <path id="FIPS_12063" d="m409.35 259.48 5.327-.648 1.946 3.524-.59 1.433-1.816.198-.784.587-.839.139-1.483.154-.563.054-.279-2.794-.852-.479-1.055.105.878-2.254z">
   <title id="t318">Jackson, FL</title>
  </path>
  <path id="FIPS_12015" d="m454.37 304.99 5.665-.869.469 3.335-5.695.847.02-.414-.126-.708-.203-1.006-.04-.139-.167-.082-.36.064-.099.058-.542.479-.057.089.261 1.776-.032.055-.495.081-.132-.119h-.031l-.072.123-.073.249-.157.008-.054-.176-.054-.166-.027-.05-.005-.009-1.483-1.804 1.38-.193-.104-.757-.053-.352z">
   <title id="t319">Charlotte, FL</title>
  </path>
  <path id="FIPS_12071" d="m452.7 309.47 1.277 2.406.154.144.215.122.744.18.112-.157.159-.076.594.117v.026l-.518.424-.13.064-.09.012-.181-.012-.352-.095-.589-.316-.055-.045-.053-.049-.091-.159-1.19-2.194zm2.108-1.172 5.695-.847.523 3.23.194 1.141-.901 1.492-1.858.297-.329-.12-.365-.578-.585-.541-1.272-.816-1.262-1.884z">
   <title id="t320">Lee, FL</title>
  </path>
  <path id="FIPS_12051" d="m460.5 307.45 4.529-.686 2.597-.418.302-2.507 1.316 7.87.161.933-4.47.788-.369-2.127-.19-1.19-3.353.567z">
   <title id="t321">Hendry, FL</title>
  </path>
  <path id="FIPS_12021" d="m469.4 312.64.645 3.51.352 2.183-5.462.896-.081-.162-.054-.058-.542-.303-.292-.121-.086-.027-1.123-.239h-.139l-1.347.251-.109.073-.095.118-.013.135-.032.243-.044.154-.081-.009-.064-.064-.734-1.037-1.014-1.73-.123-.474-.08-.32-.298-1.045-.252-.708-.194-.396-.014-.022.329.12 1.858-.297.901-1.492-.194-1.141 3.353-.567.19 1.19.369 2.127z">
   <title id="t322">Collier, FL</title>
  </path>
  <path id="FIPS_12087" d="m474.38 329.55-.132.28-.472.423-.469.405-.569.208-.048.013v-.004l-.01-.009.05-.059.555-.554 1.004-.761zm4.29-6.644-.072.051-.166.314-.699 1.794-.02.081.083.185-.072.203-.167.334-1.848 2.52-.057.067-.916.874-.028-.027v-.009l.005-.059.369-.564.257-.225.538-.621.351-.424.617-.932.103-.19.664-1.406.788-2.023zm-7.247 8.852-.51.465-.68.464-.338.099-.194-.148-.027-.025-.022-.038.996-.563 1.379-.767.008.013.064.135-.059.073zm-7.054 2.272.009-.136.163-.328 1.572-.816.446.076.826.194.338.519v.031l-.05.041-.113.071-.212.136-.698.343-4.457 1.636-.285.067-.031-.017-.051-.212.024-.081.172-.237.536-.134.103-.012.067.067.051.018.41-.19.171-.098.446-.375zm6.035-15.693.887 5.548.524 2.122.122.175.009.005-.704.568-.937.371-.934.22-.188-.077-.514-.297-.103-.082-.479-.675-.031-.298.018-.568.049-.455.028-.108.077-.122.067-.036.153.031.026-.085-.008-.126-.814-1.271-1.335-2.033-1.375-1.911z">
   <title id="t323">Monroe, FL</title>
  </path>
  <path id="FIPS_12086" d="m478.67 322.91-.27-.057.122-.596.441-1.483.086-.158h.054l.086.442-.203.947zm-8.618-6.752 1.118-.176 1.163.095 2.78-.455 1.66-.36.356-.158.374-.077.45-.085.843-.168.011.033.116.712.135.942.022.293.028.585-.064.293-.055.132-.233.193-.095-.101-.153-.071-.148.042-.338.206-.114.127-.031.099-.595 2.474-.052.437.044.263.323.986.077.072h.122l.054.064-.018.143-.22.483-.488.73-.027.03-.306.344-.649.712-1.504.753-.335.162-.45.126-.74.131-1.167.022-.009-.005-.122-.175-.524-2.122-.887-5.548z">
   <title id="t324">Miami-Dade, FL</title>
  </path>
  <path id="FIPS_12011" d="m469.24 311.71 6.72-1.11.55-.089 2.042-.171.238 4.429-.843.168-.45.085-.374.077-.356.158-1.66.36-2.78.455-1.163-.095-1.118.176-.645-3.51z">
   <title id="t325">Broward, FL</title>
  </path>
  <path id="FIPS_12099" d="m467.93 303.84 5.733-.929.117-.018 2.661-.419.683-.296.203.446.221.474.193.418.302.761.19 1.204.157 1.117.055.55.13 2.989-.017.203-2.042.171-.55.089-6.72 1.11z">
   <title id="t326">Palm Beach, FL</title>
  </path>
  <path id="FIPS_12115" d="m454.05 302.76.317 2.221-2.266.32.053.352.104.757-1.38.193-2.036-3.082-.121-.168-.173-.232-.107-.151-.515-.635-.292-.296-.613-.614 4.465-.595.312 2.245z">
   <title id="t327">Sarasota, FL</title>
  </path>
  <path id="FIPS_12027" d="m459.43 300.24.603 3.882-5.665.869-.55-3.871 2.249-.316 1.24-.23z">
   <title id="t328">DeSoto, FL</title>
  </path>
  <path id="FIPS_12043" d="m466.76 300.77 1.167 3.07-.302 2.507-2.597.418-4.529.686-.469-3.335 3.385-.51-.181-1.118.952-1.298z">
   <title id="t329">Glades, FL</title>
  </path>
  <path id="FIPS_12085" d="m475.14 298.72 1.987 3.457-.683.296-2.661.419-.117.018-5.733.929 1.871-3.497 2.987-.492 1.488-.247-.113-.726z">
   <title id="t330">Martin, FL</title>
  </path>
  <path id="FIPS_12111" d="m469.06 295.9 4.069-.659 2.011 3.481-.974.157.113.726-1.488.247-2.987.492z">
   <title id="t331">St. Lucie, FL</title>
  </path>
  <path id="FIPS_12061" d="m466.37 292.91 4.074-.653.563-.523.059-.081 2.059 3.591-4.069.659-1.11.176-.179-1.068-1.082.184z">
   <title id="t332">Indian River, FL</title>
  </path>
  <path id="FIPS_12093" d="m463.63 295.67 3.056-.478 1.082-.184.179 1.068 1.11-.176.744 4.444-1.871 3.497-1.167-3.07-.974-.972-1.135-.876-1.25-2.117z">
   <title id="t333">Okeechobee, FL</title>
  </path>
  <path id="FIPS_12055" d="m458.84 296.37 4.791-.698-.226 1.136 1.25 2.117 1.135.876.974.972-2.574.42-.952 1.298.181 1.118-3.385.51-.603-3.882z">
   <title id="t334">Highlands, FL</title>
  </path>
  <path id="FIPS_12049" d="m453.26 297.21 5.58-.844.591 3.867-2.123.334-1.24.23-2.249.316z">
   <title id="t335">Hardee, FL</title>
  </path>
  <path id="FIPS_12081" d="m447.57 298.06 5.688-.843.559 3.903.233 1.65-2.252.315-.312-2.245-4.465.595-.65-.613-.365-.672.298-.139.389-.253.755-1.212.045-.095z">
   <title id="t336">Manatee, FL</title>
  </path>
  <path id="FIPS_12103" d="m445.52 291.52.405 2.619-.762.211-.04.037-.027.102.067.145.131.085 1.231.536.46-.197.058.324-.148.555-.951 2.434-.574-.799-1.225-3.078.008-.027.054-.667.032-.581-.108-.915-.094-.211-.059-.087-.199-.23 1.741-.256">
   <title id="t337">Pinellas, FL</title>
  </path>
  <path id="FIPS_12057" d="m445.52 291.52 6.171-.871.562-.081.6 3.881.405 2.768-5.688.843 1.145-1.708.022-.05.253-.614.058-.329-.185-.559-.162-.215-1.708-.605-.41.005-.338.064-.32.09z">
   <title id="t338">Hillsborough, FL</title>
  </path>
  <path id="FIPS_12053" d="m444.64 284.89 2.559-.371.06.365 1.739-.275.023.253.153.208.455.509.234.14 1.449.359.378.591-2.237.325.081.555-4.358.644-.433.063z">
   <title id="t339">Hernando, FL</title>
  </path>
  <path id="FIPS_12101" d="m451.69 286.67.301 2.113-.301 1.862-6.171.871-1.741.256.965-3.515.433-.063 4.358-.644-.081-.555z">
   <title id="t340">Pasco, FL</title>
  </path>
  <path id="FIPS_12097" d="m456.42 287.66 8.946-1.402.221 1.275.315 2.047-.072.014.537 3.312.315 2.285-3.056.478-.099-.45-.081-.317-.587-.874-.337-.481-2.511-2.299-.802-.623-2.619-1.852z">
   <title id="t341">Osceola, FL</title>
  </path>
  <path id="FIPS_12105" d="m456.42 287.66.17 1.113 2.619 1.852.802.623 2.511 2.299.337.481.587.874.081.317.099.45-4.791.698-5.58.844-.405-2.768-.6-3.881-.562.081.301-1.862 1.044-.585z">
   <title id="t342">Polk, FL</title>
  </path>
  <path id="FIPS_12095" d="m458.31 281.68-.362 1.042.041.285.586.517 1.095.222 3.768-.631 1.934 3.141-8.946 1.402-.849-5.472.109-.103.108-.024.158-.021z">
   <title id="t343">Orange, FL</title>
  </path>
  <path id="FIPS_12117" d="m458.31 281.68.342-1.269.613.481 1.456.329.238.042.068-.009.37-.177.112-.252.829.694.37.465.73 1.131-3.768.631-1.095-.222-.586-.517-.041-.285z">
   <title id="t344">Seminole, FL</title>
  </path>
  <path id="FIPS_12069" d="m454.8 275.84 2.064 2.073.759.504.472.257.455.351.027.037.136.658-.063.699-.342 1.269-2.358.358-.158.021-.108.024-.109.103.849 5.472-3.387.536-1.121-7.81 3.309-.5.021-1.335z">
   <title id="t345">Lake, FL</title>
  </path>
  <path id="FIPS_12119" d="m447.91 280.97 4.002-.586 1.121 7.81-1.044.585-.301-2.113-.378-.591-1.449-.359-.234-.14-.455-.509-.153-.208-.023-.253.049-.559.041-.117.14-.243.225-.306.208-.055.04-.04.118-.41-.009-.054-1.425-1.28z">
   <title id="t346">Sumter, FL</title>
  </path>
  <path id="FIPS_12017" d="m445.25 280.26 2.664.713.473.572 1.425 1.28.009.054-.118.41-.04.04-.208.055-.225.306-.14.243-.041.117-.049.559-1.739.275-.06-.365-2.559.371-.185-1.908-.072-.414-.077-.158-1.487-1.14.075-.135.114-.136.293-.284.212-.054.171.005.694.157.663-.391.198-.145z">
   <title id="t347">Citrus, FL</title>
  </path>
  <path id="FIPS_12075" d="m442.96 273.83 2.93.621.532 3.421-1.482.221.31 2.163-.009.027-.198.145-.663.391-.694-.157-.171-.005-.212.054-.293.284-.114.136-.075.135.022-.432-.116-.343-.672-1.105-.271-.117-4.015-1.135.901-.803.478-.861.243-.816.397-1.722z">
   <title id="t348">Levy, FL</title>
  </path>
  <path id="FIPS_12083" d="m445.89 274.46 2.001-.283.203.225-.023.139.821.361.829-.346.144-.091.009-.028-.057-.377.287-.343.235-.126.757-.298 1.803.099.315.708.555.675.504.528.527.537.446 2.717-.021 1.335-3.309.5-4.002.586-2.664-.713-.31-2.163 1.482-.221z">
   <title id="t349">Marion, FL</title>
  </path>
  <path id="FIPS_12127" d="m454.27 275.3 2.606-1.362.197.271.258 1.447.933-.157.045-.01 1.992-.36-.257-1.38.474-.748.85 1.416.687 1.059.531.825.319.432.943 1.155 2.083 2.514-2.637.438.396 2.234-.257.046-.73-1.131-.37-.465-.829-.694-.112.252-.37.177-.068.009-.238-.042-1.456-.329-.613-.481.063-.699-.136-.658-.027-.037-.455-.351-.472-.257-.759-.504-2.064-2.073z">
   <title id="t350">Volusia, FL</title>
  </path>
  <path id="FIPS_12009" d="m463.43 283.12.257-.046-.396-2.234 2.637-.438 2.059 2.181.022.027.088.089.016.028.821 1.497v.104l-.379.243-.104.144-.121.239-.009.063-.006.014-.036.193-.026.352.018.357.036.319.157.672.325.982.438.997.306.557.247.38.334.51.019.031.928 1.271-.059.081-.563.523-4.074.653-.537-3.312.072-.014-.315-2.047-.221-1.275z">
   <title id="t351">Brevard, FL</title>
  </path>
  <path id="FIPS_12133" d="m405.84 263.68.067-.857.063-.293.771-.072.202.167.033.374 1.294-.108.117-.887v-.11l-.028-.138 1.055-.105.852.479.279 2.794-.563.063.166 1.671-.671.073-3.376.325-1.195.518-.274.302.4-.762.383-1.87-.175-.194-.053-.392.512-.89z">
   <title id="t352">Washington, FL</title>
  </path>
  <path id="FIPS_12059" d="m403.35 260.18 5.889-.681-.878 2.254.028.138v.11l-.117.887-1.294.108-.033-.374-.202-.167-.771.072-.063.293-.067.857-2.127.208z">
   <title id="t353">Holmes, FL</title>
  </path>
  <path id="FIPS_12131" d="m401.68 260.35 1.673-.166.365 3.705 2.127-.208-.141.088-.512.89.053.392.175.194-.383 1.87-.4.762.131 1.546-4.598-.942-.703-7.906z">
   <title id="t354">Walton, FL</title>
  </path>
  <path id="FIPS_12091" d="m399.46 260.57.703 7.906-4.471.338-.599-7.847 1.058-.08z">
   <title id="t355">Okaloosa, FL</title>
  </path>
  <path id="FIPS_12113" d="m390.95 261.34 4.147-.37.599 7.847-1.297.333-1.803.293-.824-.5-1.394-2.528-.568-1.362-.171-.463-.036-.213-.135-.964.035-.189.207-.763.078-.134.494-.434z">
   <title id="t356">Santa Rosa, FL</title>
  </path>
  <path id="FIPS_12033" d="m386.16 261.8 4.795-.455-.668.553-.494.434-.078.134-.207.763-.035.189.135.964.036.213.171.463.568 1.362 1.394 2.528.824.5 1.803-.293-2.565.798-.096.023-.067.017-.392.1-.26.05-.416.081-1.725.41-1.015.293.712-.321.149-1.41.112-2.817-.018-.212-.04-.153-.135-.221-.496-.307-.374-.193-.185-.032-.062-.023-.353-.243-1.122-1.223-.145-.246z">
   <title id="t357">Escambia, FL</title>
  </path>
  <path id="FIPS_12013" d="m411.11 264.87 1.483-.154.839-.139.784-.587 1.816-.198-.527 1.204-.37 2.378-.523 1.854-3.037.329z">
   <title id="t358">Calhoun, FL</title>
  </path>
  <path id="FIPS_12045" d="m411.58 269.56 3.037-.329 1.339 2.807.131 1.754-.609.87-.166-.027-.983.965-.104.22-1.05.086-.031-1.284-.032-.14-.166-.275-.645-.813-.267-.255-.043-.036z">
   <title id="t359">Gulf, FL</title>
  </path>
  <path id="FIPS_12037" d="m421.23 270.9 2.339.366.081.224.032.122.027.095.004.018-.01.144-.063.181-.058.04-.324.09-.514-.067-.122-.027-.119-.081-.111-.185-.649.238-.257.118-1.609 1.243-.73.609-.635.469-.605.387-1.211.388-.483.109-.4-.06-.329.041-.217.064-1.042.391.104-.22.983-.965.166.027.609-.87-.131-1.754.135-.566z">
   <title id="t360">Franklin, FL</title>
  </path>
  <path id="FIPS_12029" d="m439.56 270.94.221 2.997-.397 1.722-.243.816-.478.861-.901.803-.202-.699-.389-.59-.221-.311-.27-.127h-.266l-.523-.238-.879-.451-.257-.144-.027-.072-.357-1.803.767-2.137z">
   <title id="t361">Dixie, FL</title>
  </path>
  <path id="FIPS_12041" d="m439.9 270.08.803-.701 1.753 1.081.5 3.377-3.172.102-.221-2.997z">
   <title id="t362">Gilchrist, FL</title>
  </path>
  <path id="FIPS_12001" d="m443.69 268.84 1.257.055.311.437.117.042 1.411.238.617-.045.126-.072.073-.014.518.054.158.041.987.933.122.253-.019.148.448 3.147.057.377-.009.028-.144.091-.829.346-.821-.361.023-.139-.203-.225-2.001.283-2.93-.621-.5-3.377z">
   <title id="t363">Alachua, FL</title>
  </path>
  <path id="FIPS_12107" d="m454.38 268.58 1.06 2.663 1.433 2.69-2.606 1.362-.504-.528-.555-.675-.315-.708-1.803-.099-.757.298-.235.126-.287.343-.448-3.147.059-.009.266-.134.988-.705.049-.229.076-.092 1.018-.728.172-.027z">
   <title id="t364">Putnam, FL</title>
  </path>
  <path id="FIPS_12035" d="m455.44 271.25 3.353-1.149 1.722 2.902-.474.748.257 1.38-1.992.36-.045.01-.933.157-.258-1.447-.197-.271z">
   <title id="t365">Flagler, FL</title>
  </path>
  <path id="FIPS_12109" d="m452.74 265.17.601-.252h.255l.739.234 1.159-.198-.325-1.866.627-.106 1.343 3.486.946 2.258.018.042.14.287.104.225.451.821-3.353 1.149-1.06-2.663z">
   <title id="t366">St. Johns, FL</title>
  </path>
  <path id="FIPS_12019" d="m452.74 265.17 1.645 3.417-2.389.401-.172.027-1.018.728-.076.092-.049.229-.988.705-.266.134-.802-5.404-.081-.555 1.109-.162 2.307-.383.307-.068.346-.045z">
   <title id="t367">Clay, FL</title>
  </path>
  <path id="FIPS_12007" d="m447.6 265.65 1.027-.153.802 5.404-.059.009.019-.148-.122-.253-.987-.933-.158-.041-.518-.054-.073.014-.126.072-.617.045-1.411-.238-.117-.042-.311-.437.483-.22.699-.379 1.193-1.681.33-.644.022-.14z">
   <title id="t368">Bradford, FL</title>
  </path>
  <path id="FIPS_12125" d="m447.6 265.65.076.181-.022.14-.33.644-1.193 1.681-.699.379-.483.22-1.257-.055.432-2.6z">
   <title id="t369">Union, FL</title>
  </path>
  <path id="FIPS_12121" d="m440.05 264.21.658 5.165-.803.701-.689-.818-.428-.424-.185-.135-1.135-.73-.527-.248-.555-.059-.045.127-.172.112-.343-.078-.144-.106-.396-.916-.154-.833.01-.069.045-.031.627-1.703.09-.384.031-.049.338-.244.415-.135.887.018.56.108z">
   <title id="t370">Suwannee, FL</title>
  </path>
  <path id="FIPS_12067" d="m435.18 265.87-.045.031-.01.069.154.833.396.916.144.106.343.078.172-.112.045-.127.555.059.527.248 1.135.73.185.135.428.424.689.818-.337.862-4.422.627-.374.055-.325-.916-.581-4.655z">
   <title id="t371">Lafayette, FL</title>
  </path>
  <path id="FIPS_12123" d="m433.86 266.05.581 4.655.325.916.374-.055-.767 2.137-.384-.096-1.111-.449-.122-.105-.104-.121-.386-.528.004-.062-.077-.244-.131-.194-.573-.68-.508-.352-.091-.059-1.222-.531-.662-.189-1.036-.465-.722-.424 1.537-3.047 3.876-.517.069.562z">
   <title id="t372">Taylor, FL</title>
  </path>
  <path id="FIPS_12129" d="m418.92 267.42 5.143-.668.117.361 1.834-.221.279 2.279-1.875.267-1.023.505-.175.095-.027.436.103.465.027.035.244.286-2.339-.366-.727-.428-.35-.244-.479-.622-.974-1.708.081-.306z">
   <title id="t373">Wakulla, FL</title>
  </path>
  <path id="FIPS_12077" d="m419.52 266.21-.604 1.218-.141.166-.081.306.974 1.708.479.622.35.244.727.428-5.139.569-.135.566-1.339-2.807.523-1.854.37-2.378.527-1.204z">
   <title id="t374">Liberty, FL</title>
  </path>
  <path id="FIPS_12039" d="m421.98 262 1.105-.077-.451 1.217-.508 1.514-.051.109-.162.144-.225.094-1.478.748-.69.46-3.489-2.416.59-1.433h.014z">
   <title id="t375">Gadsden, FL</title>
  </path>
  <path id="FIPS_12073" d="m426.12 261.71-.131 1.969-.23 1.163.253 2.055-1.834.221-.117-.361-5.143.668.604-1.218.69-.46 1.478-.748.225-.094.162-.144.051-.109.508-1.514.451-1.217 2.187-.154z">
   <title id="t376">Leon, FL</title>
  </path>
  <path id="FIPS_12065" d="m429.04 261.51 1.465-.095.099.153.099.722-.316.419-.883.951-.636 1.875-.081.621-1.537 3.047-.96-.028-.532-4.334.23-1.163.131-1.969z">
   <title id="t377">Jefferson, FL</title>
  </path>
  <path id="FIPS_12079" d="m433.33 261.22.533-.031.496.221.518 1.744.311.595.072.062.555.353-.627 1.703-1.321.181-1.13.152-.069-.562-3.876.517.081-.621.636-1.875.883-.951.316-.419-.099-.722-.099-.153z">
   <title id="t378">Madison, FL</title>
  </path>
  <path id="FIPS_12047" d="m435.78 261.06 4.961-.341-.252.486-.004.23.045.357.22.257.631.666.072.103.114.308.004.117-.297.771-.069.085-.59.289-.522-.045-.041-.131-1.915-.731-.56-.108-.887-.018-.415.135-.338.244-.031.049-.09.384-.555-.353-.072-.062-.311-.595-.518-1.744-.496-.221z">
   <title id="t379">Hamilton, FL</title>
  </path>
  <path id="FIPS_12023" d="m441.91 260.63 1.379-.099.834 5.705-.432 2.6-1.231 1.619-1.753-1.081-.658-5.165.041.131.522.045.59-.289.069-.085.297-.771-.004-.117-.114-.308-.072-.103-.631-.666-.22-.257-.045-.357.004-.23.252-.486z">
   <title id="t380">Columbia, FL</title>
  </path>
  <path id="FIPS_12003" d="m443.74 260.5 2.263-.139.324 1.807.109.288.207.297.229.18.073.015 1.262-.244.177 1.131.242 1.659-1.027.153-3.476.59-.834-5.705z">
   <title id="t381">Baker, FL</title>
  </path>
  <path id="FIPS_12031" d="m448.38 263.84 2-2.785.941-1.276.235-.225.113-.063.775-.333 1.257.049.167.023.726.59.212.14.194.162.311 1.014.131.766.121.46.126.366.104.254-.627.106.325 1.866-1.159.198-.739-.234h-.255l-.601.252-.127-.884-.346.045-.307.068-2.307.383-1.109.162z">
   <title id="t382">Duval, FL</title>
  </path>
  <path id="FIPS_12089" d="m454.19 257.27.406 2.543-.726-.59-.167-.023-1.257-.049-.775.333-.113.063-.235.225-.941 1.276-2 2.785-.177-1.131.058-.893.059-.882-.008-.862-.145-.396-.338-.442-.172-.261-.049-.266.096-1.393 1.206-.703.469.316 1.718.369 1.297.144.686-.031.938-.113z">
   <title id="t383">Nassau, FL</title>
  </path>
 </g>
</svg>