<svg id="svg9559" width="555.22" height="351.67" xmlns="http://www.w3.org/2000/svg" viewBox="402.44000244140625 204.9199981689453 55.6929931640625 58.03193664550781">
 <g id="stylegroup" fill="#d0d0d0" stroke="#000" stroke-width=".1">
  <path id="FIPS_13241" d="m428.42 204.92-.226 1.027-.956.743-.693 1.258-.172.974-3.307-.96.783-2.321.682-.109z">
   <title id="t384">Rabun, GA</title>
  </path>
  <path id="FIPS_13281" d="m419.83 206.22 4.023-.586-.783 2.321-.271.328-1.018.23-.045-.324-.383-.897-.308-.176-.305.023-.639-.361-.334-.32z">
   <title id="t385">Towns, GA</title>
  </path>
  <path id="FIPS_13205" d="m424.97 251.82.531 4.702-1.239.143-2.845.349-1.44.178.009-.54.165-.442.06-.094 1.315-1.885 1.326-1.031.567-1.136z">
   <title id="t386">Mitchell, GA</title>
  </path>
  <path id="FIPS_13007" d="m420.27 252.5 3.15-.436-.567 1.136-1.326 1.031-1.315 1.885-.06.094-.165.442-.009.54-.38.036-1.361-2.171-.225-2.25z">
   <title id="t387">Baker, GA</title>
  </path>
  <path id="FIPS_13201" d="m418.24 255.06 1.361 2.171-2.046.375-2.106.207-.225-2.357 2.331-.226.685-.139z">
   <title id="t388">Miller, GA</title>
  </path>
  <path id="FIPS_13099" d="m415.92 252.18 2.091.625.225 2.25v.031l-.685.139-2.331.226.225 2.357-1.092.09-.119-.257-.082-.147-.521-.573-.082-.023h-.095l-.095-.054-.112-.261-.153-.915.076-.334.117-.342.136-2.749.238.401.248-.027.212-.068.302-.119z">
   <title id="t389">Early, GA</title>
  </path>
  <path id="FIPS_13253" d="m415.45 257.81 2.106-.207-.193.473.198 1.92-.085.654-.344.635-.433.28-.158.333-.017.203.117.257h-.014l-1.946-3.524-.323-.934z">
   <title id="t390">Seminole, GA</title>
  </path>
  <path id="FIPS_13087" d="m421.42 257.01.564 4.984-5.345.36-.117-.257.017-.203.158-.333.433-.28.344-.635.085-.654-.198-1.92.193-.473 2.046-.375.38-.036z">
   <title id="t391">Decatur, GA</title>
  </path>
  <path id="FIPS_13131" d="m424.26 256.66.136 1.267.163.352.148.185.22.212.344 3.086-2.187.154-1.105.077-.564-4.984z">
   <title id="t392">Grady, GA</title>
  </path>
  <path id="FIPS_13275" d="m425.5 256.52 2.988.13.551 4.859-2.921.199-.846.057-.344-3.086-.22-.212-.148-.185-.163-.352-.136-1.267z">
   <title id="t393">Thomas, GA</title>
  </path>
  <path id="FIPS_13027" d="m431.36 256.35.99 2.547-.287.315-.321.677-.008.047.419.615.179.134.996.537-2.82.194-1.465.095-.551-4.859 1.7-.748z">
   <title id="t394">Brooks, GA</title>
  </path>
  <path id="FIPS_13071" d="m430.45 252.62-.261 3.281-1.7.748-2.988-.13-.373-3.304 3.773-.433z">
   <title id="t395">Colquitt, GA</title>
  </path>
  <path id="FIPS_13075" d="m431.27 252.22v.406l.071.202.071.103.597.419.175.064.901 1.929.257.802-1.982.203-1.168-.446.261-3.281z">
   <title id="t396">Cook, GA</title>
  </path>
  <path id="FIPS_13173" d="m435.78 253.78.826-.122.554 4.028-.491.326-.14-.694-.289-.518-1.5.166-.329-.937-.05-.379.194-1.225 1.389-.186.008-.05-.067-.225z">
   <title id="t397">Lanier, GA</title>
  </path>
  <path id="FIPS_13185" d="m433.34 256.15 1.069-.121.329.937 1.5-.166.289.518.14.694-.892 3.05-1.916.132-.533.031-.996-.537-.179-.134-.419-.615.008-.047.321-.677.287-.315-.99-2.547z">
   <title id="t398">Lowndes, GA</title>
  </path>
  <path id="FIPS_13101" d="m437.16 257.68 1.429.263.126.202.162.451.316.352.158.084.293.083.414-.019.221-.031.437-.01.726.045.194.079.112.112.04.067.122 1.271-1.172.086-4.961.341.892-3.05z">
   <title id="t399">Echols, GA</title>
  </path>
  <path id="FIPS_13065" d="m436.6 253.66 3.271-.445.987 1.684.379.383.69.514 1.18 1.695.226 1.488.212 1.144.189.383-.451.032-1.379.099-.122-1.271-.04-.067-.112-.112-.194-.079-.726-.045-.437.01-.221.031-.414.019-.293-.083-.158-.084-.316-.352-.162-.451-.126-.202-1.429-.263z">
   <title id="t400">Clinch, GA</title>
  </path>
  <path id="FIPS_13003" d="m440.02 250.84-.141 2.367-3.271.445-.826.122-.103-.541-.271-1.172-.501-.387-.512-.541-.018-.033-.023-.215 1.983-.231 1.457.299.17.166z">
   <title id="t401">Atkinson, GA</title>
  </path>
  <path id="FIPS_13019" d="m434.2 250.24.154.65.023.215.018.033.512.541.501.387.271 1.172.103.541.105.184.067.225-.008.05-1.389.186-.194 1.225.05.379-1.069.121-.257-.802-.901-1.929-.175-.064-.597-.419-.071-.103-.071-.202v-.406l.829-1.754z">
   <title id="t402">Berrien, GA</title>
  </path>
  <path id="FIPS_13155" d="m435.44 247.44-1.249 2.794-2.099.23-1.965-1.27.238-2.168.898-.108.617.91.688.252.97-.095.622-.297z">
   <title id="t403">Irwin, GA</title>
  </path>
  <path id="FIPS_13277" d="m428.55 249.74 1.578-.54 1.965 1.27-.829 1.754-.817.401-1.549.162z">
   <title id="t404">Tift, GA</title>
  </path>
  <path id="FIPS_13321" d="m424.94 246.56 1.555.378.049.032.081.509.235 1.767.856-.1.095.033.328.216.411.342.348 3.047-3.773.433-.158-1.398-.56-2.618z">
   <title id="t405">Worth, GA</title>
  </path>
  <path id="FIPS_13095" d="m421.42 249.94 2.993-.743.56 2.618-1.551.244-3.15.436-.508-2.347z">
   <title id="t406">Dougherty, GA</title>
  </path>
  <path id="FIPS_13037" d="m418.71 250.29 1.051-.135.508 2.347-2.258.307-2.091-.625-.158-1.525z">
   <title id="t407">Calhoun, GA</title>
  </path>
  <path id="FIPS_13061" d="m412.04 249 1.961-.195.328 1.959 1.439-.111.158 1.525-1.497.25-.302.119-.212.068-.248.027-.238-.401-1.199-2.989z">
   <title id="t408">Clay, GA</title>
  </path>
  <path id="FIPS_13239" d="m412.54 246.24 1.79.627-.338 1.947-1.961.195z">
   <title id="t409">Quitman, GA</title>
  </path>
  <path id="FIPS_13243" d="m417.07 246.6.608-.073.189 1.903.383.153.492.915.036.441-.036.253-.027.099-2.948.369-1.439.104-.328-1.952.338-1.947z">
   <title id="t410">Randolph, GA</title>
  </path>
  <path id="FIPS_13273" d="m421.23 249.07.187.874-1.656.208-1.051.135.027-.099.036-.253-.036-.441-.492-.915-.383-.153-.189-1.903 1.613-.815 1.293 1.068z">
   <title id="t411">Terrell, GA</title>
  </path>
  <path id="FIPS_13177" d="m425.02 245.72-.081.838-.533 2.641-2.993.743-.187-.874-.651-2.294-.066-.551z">
   <title id="t412">Lee, GA</title>
  </path>
  <path id="FIPS_13081" d="m424.41 244.25 3.81-.46.261 2.235-1.983.915-1.555-.378.081-.838z">
   <title id="t413">Crisp, GA</title>
  </path>
  <path id="FIPS_13287" d="m428.48 246.02 1.442-.103.446 1.109-.238 2.168-1.578.54-.411-.342-.328-.216-.095-.033-.856.1-.235-1.767-.081-.509-.049-.032z">
   <title id="t414">Turner, GA</title>
  </path>
  <path id="FIPS_13017" d="m429.92 245.92 3.276-.447 2.087.595.158 1.375-1.28.248-.622.297-.97.095-.688-.252-.617-.91-.898.108z">
   <title id="t415">Ben Hill, GA</title>
  </path>
  <path id="FIPS_13069" d="m435.29 246.07 1.663-.698.253 1.853 2.271-.334.195 1.464.351-.045.149 1.136-.153 1.398-2.056.279-.17-.166-1.457-.299-1.983.231-.154-.65 1.249-2.794z">
   <title id="t416">Coffee, GA</title>
  </path>
  <path id="FIPS_13005" d="m440.55 246.24.838.464.513.266.726.189 1.249.618.109.117.094.185-.14.022-.59.573.045.324-.411.55-.8.293-2.016-.397-.149-1.136-.351.045-.195-1.464z">
   <title id="t417">Bacon, GA</title>
  </path>
  <path id="FIPS_13305" d="m445.46 244.01.932.356 3.791 2.7.591 1.027-.923 1.749-.39-.171-.436-.145-.514.202-.78.226-1.212-.085-.117-.077-1.186-1.104-.572-3.858.41-.676z">
   <title id="t418">Wayne, GA</title>
  </path>
  <path id="FIPS_13229" d="m444.08 248.08 1.131.608 1.186 1.104.648.758-.026.279-.145.162-1.807 1.222h-.032l-1.014-.136-1.837-2.235.8-.293.411-.55-.045-.324.59-.573z">
   <title id="t419">Pierce, GA</title>
  </path>
  <path id="FIPS_13025" d="m449.85 249.84-.073 2.105-.603.888-.7.221-.194.09-.068.109-.053.522-1.416-.154-.095.865-.558.077-2.065-2.488 1.014.136h.032l1.807-1.222.145-.162.026-.279-.648-.758.117.077 1.212.085.78-.226.514-.202.436.145z">
   <title id="t420">Brantley, GA</title>
  </path>
  <path id="FIPS_13299" d="m440.17 249.44 2.016.397 1.837 2.235 2.065 2.488-3.11.42.351 2.794 2.664-.329.32.036-.311 2.876-2.263.139-.189-.383-.212-1.144-.226-1.488-1.18-1.695-.69-.514-.379-.383-.987-1.684.141-2.367z">
   <title id="t421">Ware, GA</title>
  </path>
  <path id="FIPS_13049" d="m448.16 253.78.756 2.83-1.206.703-.096 1.393.049.266.172.261.338.442.145.396.008.862-.059.882-.058.893-1.262.244-.073-.015-.229-.18-.207-.297-.109-.288-.324-1.807.311-2.876-.32-.036-2.664.329-.351-2.794 3.11-.42.558-.077.095-.865z">
   <title id="t422">Charlton, GA</title>
  </path>
  <path id="FIPS_13039" d="m453.54 253.38.653 3.893-.17.019-.938.113-.686.031-1.297-.144-1.718-.369-.469-.316-.756-2.83.053-.522.068-.109.194-.09.7-.221.603-.888.041.153.035.049.887.272.519.021z">
   <title id="t423">Camden, GA</title>
  </path>
  <path id="FIPS_13127" d="m454.92 249.54-1.388 3.844-2.281-.938-.519-.021-.887-.272-.035-.049-.041-.153.073-2.105.923-1.749.008.041.59.558.753.455 1.533.294 1.09.135z">
   <title id="t424">Glynn, GA</title>
  </path>
  <path id="FIPS_13191" d="m451.72 244.73.356.103.536.375.28.067.789-.334.594.024.316.103.198.095.36.297.045.09.015.356-.289 3.629-.181.04-1.09-.135-1.533-.294-.753-.455-.59-.558-.008-.041-.591-1.027z">
   <title id="t425">McIntosh, GA</title>
  </path>
  <path id="FIPS_13149" d="m410.92 227.71 1.118 2.488-3.038 1.591-1.045-3.772z">
   <title id="t426">Heard, GA</title>
  </path>
  <path id="FIPS_13143" d="m406.28 222.03 1.24-.116.594-.149 1.723-.176.265 1.177-.045.725-.757.834-1.632.807-.514.045z">
   <title id="t427">Haralson, GA</title>
  </path>
  <path id="FIPS_13233" d="m409.58 219.11 1.329.027-.39 1.757-.755.073.069.617-1.723.176-.594.149-1.24.116-.221-.788-.41-1.474 1.731-.176-.019-.216z">
   <title id="t428">Polk, GA</title>
  </path>
  <path id="FIPS_13115" d="m408.62 212.82.956 2.434.072.586.004 1.745-.216.022.149 1.51-2.223.261.019.216-1.731.176-.721-2.605.789-.081.558-1.234.554-.317.843-.627.086-.261.455-1.78z">
   <title id="t429">Floyd, GA</title>
  </path>
  <path id="FIPS_13055" d="m408.21 212.86-.455 1.78-.086.261-.843.627-.554.317-.558 1.234-.789.081-.884-3.001-.229-.816z">
   <title id="t430">Chattooga, GA</title>
  </path>
  <path id="FIPS_13313" d="m408.98 207.54 1.735-.203-.213.829-.661 2.876-.033.429.362.549-1.412.316-.149-1.253-1.239.135.014-.108.171-.528.117-.694.659-.198.247-.51.397-1.442-.027-.193z">
   <title id="t431">Whitfield, GA</title>
  </path>
  <path id="FIPS_13047" d="m405.98 207.92 2.971-.373.027.193-.397 1.442-.247.51-.659.198-.117.694z">
   <title id="t432">Catoosa, GA</title>
  </path>
  <path id="FIPS_13295" d="m405.98 207.92 1.578 2.664-.171.528-.014.108 1.239-.135.149 1.253-.144.477-.406.045-4.398.483-.126-.443.391-.643.293-1.204-.057-.487.238-1.473.401-1.033z">
   <title id="t433">Walker, GA</title>
  </path>
  <path id="FIPS_13083" d="m404.96 208.06-.401 1.033-.238 1.473.057.487-.293 1.204-.391.643-.848-2.997-.406-1.577 1.388-.144z">
   <title id="t434">Dade, GA</title>
  </path>
  <path id="FIPS_13183" d="m447.52 241.25.275.334.604 1.226.031.139 1.542 1.191 1.663.598.09-.004-1.546 2.335-3.791-2.7z">
   <title id="t435">Long, GA</title>
  </path>
  <path id="FIPS_13001" d="m443.39 243.19 2.069.821-.406.144-.41.676.572 3.858-1.131-.608-.094-.185-.109-.117-1.249-.618-.726-.189-.513-.266-.838-.464-.221-1.637.964-.13-.176-1.29-.061-.35z">
   <title id="t436">Appling, GA</title>
  </path>
  <path id="FIPS_13161" d="m441.06 242.83.061.35.176 1.29-.964.13.221 1.637-1.078.649-2.271.334-.253-1.853 1.88-1.6 1.032-.672.654-.248z">
   <title id="t437">Jeff Davis, GA</title>
  </path>
  <path id="FIPS_13259" d="m416.55 242.59.103-.019.108.091.086.733.072.87-.004.938.149 1.393-2.732.265-1.79-.627-.03-.964 1.172-2.315z">
   <title id="t438">Stewart, GA</title>
  </path>
  <path id="FIPS_13307" d="m416.66 242.57.307-.036.901.646.234.283.496.157.568-.064.126 2.151-1.613.815-.608.073-.149-1.393.004-.938-.072-.87-.086-.733z">
   <title id="t439">Webster, GA</title>
  </path>
  <path id="FIPS_13261" d="m421.71 242 1.754.54.95 1.709.614 1.474-4.511.503.066.551-1.293-1.068-.126-2.151-.036-.414z">
   <title id="t440">Sumter, GA</title>
  </path>
  <path id="FIPS_13315" d="m431.03 242.4 1.776 2.439.396.63-3.276.447-1.442.103-.261-2.235-.141-1.153 1.277-.168.576-.17.195-.131.451-.046.12.027z">
   <title id="t441">Wilcox, GA</title>
  </path>
  <path id="FIPS_13271" d="m435.4 241.43 3.434 2.343-1.88 1.6-1.663.698-2.087-.595-.396-.63z">
   <title id="t442">Telfair, GA</title>
  </path>
  <path id="FIPS_13309" d="m437.3 238.89.733.044.1.015.09.256.383 1.289.083.686.323 1.018.112.197.049.082.686.622-1.032.672-3.434-2.343.356-.844z">
   <title id="t443">Wheeler, GA</title>
  </path>
  <path id="FIPS_13091" d="m430.64 240.29 1.974-2.235 2.078 3.312 1.059-.78-.356.844-2.592 3.416-1.776-2.439.27-.297.032-.104.068-.604-1.015-.784z">
   <title id="t444">Dodge, GA</title>
  </path>
  <path id="FIPS_13235" d="m430.64 240.29-.258.329 1.015.784-.068.604-.032.104-.27.297-.329-.257-.12-.027-.451.046-.195.131-.576.17-1.277.168-.364-2.173 1.072-1.618z">
   <title id="t445">Pulaski, GA</title>
  </path>
  <path id="FIPS_13093" d="m427.72 240.46.364 2.173.141 1.153-3.81.46-.95-1.709 1.739-1.779z">
   <title id="t446">Dooly, GA</title>
  </path>
  <path id="FIPS_13193" d="m423.02 238.23 1.91.257.27 2.277-1.739 1.779-1.754-.54-1.013-1.731 1.924-2.195z">
   <title id="t447">Macon, GA</title>
  </path>
  <path id="FIPS_13249" d="m419.48 240.08 1.213.185 1.013 1.731-2.582 1.144-.095-.846.135-.609.186-.284-.208-1.492z">
   <title id="t448">Schley, GA</title>
  </path>
  <path id="FIPS_13197" d="m416.32 238.68 2.032-.599.793 1.83.208 1.492-.186.284-.135.609.095.846.036.414-.568.064-.496-.157-.234-.283-.901-.646-.307.036-.103.019z">
   <title id="t449">Marion, GA</title>
  </path>
  <path id="FIPS_13053" d="m416.32 238.68.234 3.909-2.866.365.026-.037.09-.406-.108-.215-.266-.222-.716-.193-.068-.076-.023-.109.121-.46 1.115-.591 1.185-.338.685-1.347z">
   <title id="t450">Chattahoochee, GA</title>
  </path>
  <path id="FIPS_13215" d="m411.41 238.31 1.889-.216.036.311 2.29-.28.104.839-.685 1.347-1.185.338-1.115.591-.3-1.78z">
   <title id="t451">Muscogee, GA</title>
  </path>
  <path id="FIPS_13269" d="m419.75 235.49.99.626 2.4 1.785-.524.171-1.924 2.195-1.213-.185-.338-.171-.793-1.83z">
   <title id="t452">Taylor, GA</title>
  </path>
  <path id="FIPS_13263" d="m417.18 234.06.096-.037.233.056.73.469.172.22.134.262.027.095.099.077.537.202.546.091-1.402 2.591-2.032.599-.591.28-.104-.839-.46-3.339z">
   <title id="t453">Talbot, GA</title>
  </path>
  <path id="FIPS_13145" d="m413.39 234.63 1.771.154.46 3.339-2.29.28-.036-.311-1.889.216-.779-1.716-.689-1.534z">
   <title id="t454">Harris, GA</title>
  </path>
  <path id="FIPS_13285" d="m412.04 230.2.866.334.491 4.096-3.452.428-.866-2.997-.077-.27z">
   <title id="t455">Troup, GA</title>
  </path>
  <path id="FIPS_13045" d="m410.1 222.76 1.492.234 1.298 2.547-.351.855-1.624 1.312-2.965.307-.194-.695-.604-2.149.514-.045 1.632-.807.757-.834z">
   <title id="t456">Carroll, GA</title>
  </path>
  <path id="FIPS_13223" d="m410.91 219.14 1.956-.19.185 1.699.173-.022.197 1.825-1.83.546-1.492-.234-.265-1.177-.069-.617.755-.073z">
   <title id="t457">Paulding, GA</title>
  </path>
  <path id="FIPS_13213" d="m412.69 207.1.234 1.707.406.311.027.04-.004.041-.226.388-.279.306-.126.595.252 1.871-2.798-.334-.362-.549.033-.429.661-2.876.213-.829.359-.045z">
   <title id="t458">Murray, GA</title>
  </path>
  <path id="FIPS_13129" d="m410.18 212.02 2.798.334.054.441.221 1.754-3.673.698-.956-2.434.144-.477z">
   <title id="t459">Gordon, GA</title>
  </path>
  <path id="FIPS_13015" d="m413.25 214.55.455 4.317-2.79.271-1.329-.027-.149-1.51.216-.022-.004-1.745-.072-.586z">
   <title id="t460">Bartow, GA</title>
  </path>
  <path id="FIPS_13067" d="m413.7 218.87 2.542-.248.429.969-.38 1.569-.121.504-.063.186-.666.837-.366.384-1.654-.618-.197-1.825-.173.022-.185-1.699z">
   <title id="t461">Cobb, GA</title>
  </path>
  <path id="FIPS_13097" d="m411.59 223 1.83-.546 1.654.618-.668 1.069-1.009.639-.41.473-.086.127-.013.167z">
   <title id="t462">Douglas, GA</title>
  </path>
  <path id="FIPS_13077" d="m412.54 226.4 2.577-.188.154 1.334.689.657.483.595.248.419.008.473-3.799.844-.866-.334-1.118-2.488z">
   <title id="t463">Coweta, GA</title>
  </path>
  <path id="FIPS_13199" d="m416.81 230.17.013 2.77.352 1.118-2.015.727-1.771-.154-.491-4.096 3.799-.844z">
   <title id="t464">Meriwether, GA</title>
  </path>
  <path id="FIPS_13231" d="m416.81 230.17.446-.389.617-.066.244.211 1.337-.153.083 2.57-2.714.597z">
   <title id="t465">Pike, GA</title>
  </path>
  <path id="FIPS_13293" d="m419.54 232.34 1.663.558.121 1.064-.582 2.154-.99-.626-.546-.091-.537-.202-.099-.077-.027-.095-.134-.262-.172-.22-.73-.469-.233-.056-.096.037-.352-1.118z">
   <title id="t466">Upson, GA</title>
  </path>
  <path id="FIPS_13079" d="m421.32 233.96 2.488-.298 2.308 1.74v.004l-2.978 2.493-2.4-1.785z">
   <title id="t467">Crawford, GA</title>
  </path>
  <path id="FIPS_13225" d="m423.14 237.9 2.978-2.493.065 2.074-.016.143-.68 1.055-.198.126-.108.024-.253-.348-1.91-.257-.402-.153z">
   <title id="t468">Peach, GA</title>
  </path>
  <path id="FIPS_13153" d="m426.12 235.41v-.004l1.157.212 1.429 2.578.082.649-1.072 1.618-2.516.298-.27-2.277.253.348.108-.024.198-.126.68-1.055.016-.143z">
   <title id="t469">Houston, GA</title>
  </path>
  <path id="FIPS_13023" d="m432.62 238.05-1.974 2.235-1.853-1.442-.082-.649 2.687-2.083z">
   <title id="t470">Bleckley, GA</title>
  </path>
  <path id="FIPS_13175" d="m431.39 236.11 2.673-1.983.997-.239.874.257 1.392.781.095 1.139.311.105-.432 2.717-1.551 1.694-1.059.78-2.078-3.312z">
   <title id="t471">Laurens, GA</title>
  </path>
  <path id="FIPS_13319" d="m429.4 231.92 1.946-1.231.162-.134.162.009.727.684.58.952.484.167.18.112.288.452.153.53-.018.672-2.673 1.983-2.474-3.767z">
   <title id="t472">Wilkinson, GA</title>
  </path>
  <path id="FIPS_13289" d="m427.87 233.18 1.045-.837 2.474 3.767-2.687 2.083-1.429-2.578.078-.974.694-.897.112-.329z">
   <title id="t473">Twiggs, GA</title>
  </path>
  <path id="FIPS_13021" d="m425.58 232.08.217.441.45.317.643-.081.375.085.605.346.287.235-.112.329-.694.897-.078.974-1.157-.212-2.308-1.74z">
   <title id="t474">Bibb, GA</title>
  </path>
  <path id="FIPS_13009" d="m429.84 228.45.221-.022 1.721.228.034.051.007.076-.013.104-.059.041-.04.108-.042.478.033.107.226.339.268-.226.195-.238.005 1.752-.727-.684-.162-.009-.162.134-1.946 1.231-1.208-3.227z">
   <title id="t475">Baldwin, GA</title>
  </path>
  <path id="FIPS_13169" d="m428.19 228.69 1.208 3.227-.483.429-1.045.837-.605-.346-.375-.085-.643.081-.45-.317-.217-.441-1.424-2.154 2.817-.888z">
   <title id="t476">Jones, GA</title>
  </path>
  <path id="FIPS_13207" d="m421.64 229.32 2.375-.009.144.614 1.424 2.154-1.772 1.591-2.488.298-.121-1.064.742-.081.082-.226z">
   <title id="t477">Monroe, GA</title>
  </path>
  <path id="FIPS_13171" d="m421.64 229.32.386 3.277-.082.226-.742.081-1.663-.558-.083-2.57 1.304-.347z">
   <title id="t478">Lamar, GA</title>
  </path>
  <path id="FIPS_13255" d="m417.71 227.85.356-.044 2.767.365-.072 1.253-1.304.347-1.337.153-.244-.211-.617.066-.446.389-.113-.479-.008-.473z">
   <title id="t479">Spalding, GA</title>
  </path>
  <path id="FIPS_13113" d="m415.12 226.21 1.529-.822 1.063 2.461-1.018 1.366-.248-.419-.483-.595-.689-.657z">
   <title id="t480">Fayette, GA</title>
  </path>
  <path id="FIPS_13063" d="m418.37 223.93.225.18.104.627.012.428-.139 1.501-.09.117-.509.231.09.797-.356.044-1.063-2.461.995-1.387z">
   <title id="t481">Clayton, GA</title>
  </path>
  <path id="FIPS_13035" d="m422.49 225.96.78.982.749 2.361-2.375.009-.88.109.072-1.253z">
   <title id="t482">Butts, GA</title>
  </path>
  <path id="FIPS_13151" d="m418.37 223.93 1.031-.113 1.682 1.348 1.401.803-1.654 2.208-2.767-.365-.09-.797.509-.231.09-.117.139-1.501-.012-.428-.104-.627z">
   <title id="t483">Henry, GA</title>
  </path>
  <path id="FIPS_13089" d="m417.93 219.92 3.006 2.3-.306.382-.613 1.32-.609-.113-1.031.113-.731.077-.108-.951-.086-.78-.012-.122-.262-2.176z">
   <title id="t484">DeKalb, GA</title>
  </path>
  <path id="FIPS_13121" d="m417.75 216.96 1.92 1.528-1.744 1.433-.752.05.262 2.176.012.122.086.78.108.951-.995 1.387-1.529.822-2.577.188.351-.855.013-.167.086-.127.41-.473 1.009-.639.668-1.069.366-.384.666-.837.063-.186.121-.504.38-1.569-.429-.969z">
   <title id="t485">Fulton, GA</title>
  </path>
  <path id="FIPS_13057" d="m417.46 214.45.059.591.234 1.92-1.505 1.658-2.542.248-.455-4.317z">
   <title id="t486">Cherokee, GA</title>
  </path>
  <path id="FIPS_13227" d="m413.03 212.8.982-.14 1.983-.216.248-.217.023.186.401 1.005.662-.076.131 1.112-4.209.1z">
   <title id="t487">Pickens, GA</title>
  </path>
  <path id="FIPS_13085" d="m417.71 211.32.112.185 2.489 2.091.374 1.064-3.169.379-.059-.591-.131-1.112-.662.076-.401-1.005-.023-.186z">
   <title id="t488">Dawson, GA</title>
  </path>
  <path id="FIPS_13117" d="m417.52 215.04 3.169-.379-.844 2.275-.171 1.552-1.92-1.528z">
   <title id="t489">Forsyth, GA</title>
  </path>
  <path id="FIPS_13135" d="m422.49 217.13.529 2.513-1.7 2.097-.388.484-3.006-2.3 1.744-1.433.171-1.552z">
   <title id="t490">Gwinnett, GA</title>
  </path>
  <path id="FIPS_13247" d="m422.1 222.19-1.014 2.975-1.682-1.348.609.113.613-1.32.306-.382.388-.484z">
   <title id="t491">Rockdale, GA</title>
  </path>
  <path id="FIPS_13159" d="m426.66 225.64.321 3.39-2.817.888-.144-.614-.749-2.361 1.659-2.276z">
   <title id="t492">Jasper, GA</title>
  </path>
  <path id="FIPS_13217" d="m422.1 222.19 2.722 1.574.104.91-1.659 2.276-.78-.982-1.401-.803z">
   <title id="t493">Newton, GA</title>
  </path>
  <path id="FIPS_13297" d="m423.02 219.64 1.644.096 1.641.942-1.483 3.079-2.722-1.574-.78-.446z">
   <title id="t494">Walton, GA</title>
  </path>
  <path id="FIPS_13013" d="m422.49 217.13.416.522.18.113.996.199.256-.032.874.004.123.073.383.811-1.055.919-1.644-.096z">
   <title id="t495">Barrow, GA</title>
  </path>
  <path id="FIPS_13157" d="m426.74 215.66.717 1.956-1.739 1.209-.383-.811-.123-.073-.874-.004-.256.032-.996-.199-.18-.113-.416-.522 1.799-2.43.329.266.217.14.126.045.459-.09.392-.127.659.492z">
   <title id="t496">Jackson, GA</title>
  </path>
  <path id="FIPS_13059" d="m427.46 217.61 1.146.389-.086.004-.059.599.009.037.05.112.437.441-.27.772-2.966-1.145z">
   <title id="t497">Clarke, GA</title>
  </path>
  <path id="FIPS_13219" d="m424.66 219.74 1.055-.919 2.966 1.145.094 1.117-1.217.991-1.257-1.392z">
   <title id="t498">Oconee, GA</title>
  </path>
  <path id="FIPS_13211" d="m427.56 222.07 1.705 2.583-2.611.987-1.73-.973-.104-.91 1.483-3.079z">
   <title id="t499">Morgan, GA</title>
  </path>
  <path id="FIPS_13237" d="m426.66 225.64 2.611-.987 1.45 1.479.154.086.079.071.02.041-.09.424-.429.342-.293.153-.221.244-.117.77.004.131.019.05-1.649.243-1.217.343z">
   <title id="t500">Putnam, GA</title>
  </path>
  <path id="FIPS_13141" d="m433.88 224.55.343.176.568 1.433.451.681.107.184-.315.046-.733.644-.109.217-.086.369-.073.213-.111.147-1.056.767-.468.068-.195.238-.268.226-.226-.339-.033-.107.042-.478.04-.108.059-.041.013-.104-.007-.076-.034-.051-1.721-.228-.221.022-.019-.05-.004-.131.117-.77.221-.244.293-.153.429-.342.09-.424-.02-.041-.079-.071-.154-.086 1.406-1.681z">
   <title id="t501">Hancock, GA</title>
  </path>
  <path id="FIPS_13265" d="m432.34 220.97.779 1.18.153.163h.023l1.307-.14.82.108-.347.536-.996.871-.351.549-.014.054.166.257-1.753-.094-.212-2.907z">
   <title id="t502">Taliaferro, GA</title>
  </path>
  <path id="FIPS_13133" d="m431.91 221.55.212 2.907-1.406 1.681-1.45-1.479-1.705-2.583 1.217-.991z">
   <title id="t503">Greene, GA</title>
  </path>
  <path id="FIPS_13221" d="m431.5 217.03 2.203.645-.666.5-.216.261-.568 1.033-.402.887-.004.063.492.555-.425.577-3.132-.465-.094-1.117.27-.772-.437-.441-.05-.112-.009-.037.059-.599.086-.004 1.229-.785.077-.009.154.09.577.168.144.017z">
   <title id="t504">Oglethorpe, GA</title>
  </path>
  <path id="FIPS_13317" d="m433.7 217.67 1.38-.375 2.389 4.178-1.744.649-.307.158-.82-.108-1.307.14h-.023l-.153-.163-.779-1.18-.492-.555.004-.063.402-.887.568-1.033.216-.261z">
   <title id="t505">Wilkes, GA</title>
  </path>
  <path id="FIPS_13301" d="m435.72 222.12.649 1.289.974 1.812.472.144 1.267.158-.442.55-.775-.266-.68-.211-.316.117-1.636 1.122-.451-.681-.568-1.433-.343-.176-.166-.257.014-.054.351-.549.996-.871.347-.536z">
   <title id="t506">Warren, GA</title>
  </path>
  <path id="FIPS_13189" d="m438.02 221.25-.095.131-.009.171.176 1.013.708.989.964 1.162.193.126-.554.635-.32.05-1.267-.158-.472-.144-.974-1.812-.649-1.289 1.744-.649z">
   <title id="t507">McDuffie, GA</title>
  </path>
  <path id="FIPS_13125" d="m435.24 226.84 1.636-1.122.316-.117.68.211.775.266-.369.379-1.069 1.181.036.121.086.546-.861.027-1.123-1.308z">
   <title id="t508">Glascock, GA</title>
  </path>
  <path id="FIPS_13163" d="m439.09 225.53.32-.05.995.443.06.013.09.072.293.325-.221 1.055-.072.567-.018.627.081.319.121.366.23.887-.134.784-.144.586-1.123 1.127-1.041-.635-.239-1.412-.482-.995-.032.004-.392-.202-.437-.334-.176-.235-.298-.508.861-.027-.086-.546-.036-.121 1.069-1.181.369-.379z">
   <title id="t509">Jefferson, GA</title>
  </path>
  <path id="FIPS_13303" d="m436.47 228.33.298.508.176.235.437.334.392.202.032-.004.482.995.239 1.412-.902.451-.587.274-1.179.015-.316-.154-1.456.86-.153-.53-.288-.452-.18-.112-.484-.167-.58-.952-.005-1.752.468-.068 1.056-.767.111-.147.073-.213.086-.369.109-.217.733-.644.315-.046z">
   <title id="t510">Washington, GA</title>
  </path>
  <path id="FIPS_13167" d="m439.56 232.65-1.83 3.526-.311-.105-.095-1.139-1.392-.781-.874-.257-.997.239.018-.672 1.456-.86.316.154 1.179-.015.587-.274.902-.451z">
   <title id="t511">Johnson, GA</title>
  </path>
  <path id="FIPS_13283" d="m437.74 236.17 1.623-.041.284.081.95.396.104.09-.023.635-.09.506-2.547 1.094-.733-.044z">
   <title id="t512">Treutlen, GA</title>
  </path>
  <path id="FIPS_13209" d="m440.58 237.84-.067 5.011-.654.248-.686-.622-.049-.082-.112-.197-.323-1.018-.083-.686-.383-1.289-.09-.256-.1-.015z">
   <title id="t513">Montgomery, GA</title>
  </path>
  <path id="FIPS_13279" d="m440.58 237.84 1.961.175.739 2.213.104 2.961-2.329-.355-.542.017z">
   <title id="t514">Toombs, GA</title>
  </path>
  <path id="FIPS_13179" d="m448.13 240.72.383-.599.928.423 1.916.644.793.272.09.152.348.83.021.09-.003.036.116.104.816.599 1.236.6.067.021-.039.096.219.198.293.085.068-.04.017-.062.028-.019.108-.022.095.036.076.532.045.397-.185.72-.108.207-.063.014-.184-.131-.015-.356-.045-.09-.36-.297-.198-.095-.316-.103-.594-.024-.789.334-.28-.067-.536-.375-.356-.103-.09.004-1.663-.598-1.542-1.191-.031-.139-.604-1.226-.275-.334z">
   <title id="t515">Liberty, GA</title>
  </path>
  <path id="FIPS_13109" d="m444.85 238.2.626.039 2.236 1.187.802.703-.383.599-1.38.176-1.041-.253z">
   <title id="t516">Evans, GA</title>
  </path>
  <path id="FIPS_13267" d="m442.54 238.02 2.308.181.86 2.451 1.041.253 1.38-.176-.613.523-1.132 3.119-.932-.356-2.069-.821-.104-2.961z">
   <title id="t517">Tattnall, GA</title>
  </path>
  <path id="FIPS_13043" d="m444.31 234.88.685.235.748 1.172-.17 1.64-.091.31-.626-.039-2.308-.181-.217-.531.483-1.537.261-.65.663-.613z">
   <title id="t518">Candler, GA</title>
  </path>
  <path id="FIPS_13107" d="m442.56 231.55 1.923 2.411-.18.914-.572-.194-.663.613-.261.65-.483 1.537.217.531-1.961-.175.09-.506.023-.635-.104-.09-.95-.396-.284-.081-1.623.041 1.83-3.526 1.123-1.127z">
   <title id="t519">Emanuel, GA</title>
  </path>
  <path id="FIPS_13051" d="m454.64 237.44.056.252.102.515.14.559.05.049.609.235 2.005.378.374.041.103.018.054.157v.113l-.04.198-.113.266-1.807 2.912-.081.113-.506.58-.076.036-.247-.053-.361-1.095-.5-1.312-1.249-.834-.897-.799-.231-.264z">
   <title id="t520">Chatham, GA</title>
  </path>
  <path id="FIPS_13029" d="m447.71 239.42 3.547-1.704.76 1.785.231.264.897.799 1.249.834.5 1.312.361 1.095-.415.089-.067-.021-1.236-.6-.816-.599-.116-.104.003-.036-.021-.09-.348-.83-.09-.152-.793-.272-1.916-.644-.928-.423z">
   <title id="t521">Bryan, GA</title>
  </path>
  <path id="FIPS_13031" d="m446.12 233.16 3.452 1.565 1.687 2.988-3.547 1.704-2.236-1.187.091-.31.17-1.64-.748-1.172-.685-.235.18-.914z">
   <title id="t522">Bulloch, GA</title>
  </path>
  <path id="FIPS_13165" d="m442.56 231.55-.046-.086.139-.857.389-.492 2.324-.819.362.053.463.15.113.08.099.136-.284 3.447-1.636.799z">
   <title id="t523">Jenkins, GA</title>
  </path>
  <path id="FIPS_13103" d="m451.06 233.11 1.127.451.207.077.96.793 1.144 2.321.14.685-2.615 2.065-.76-1.785-1.687-2.988z">
   <title id="t524">Effingham, GA</title>
  </path>
  <path id="FIPS_13251" d="m446.41 229.72 2.137-2.11 2.05 3.619.465 1.884-1.484 1.619-3.452-1.565z">
   <title id="t525">Screven, GA</title>
  </path>
  <path id="FIPS_13033" d="m440.4 225.92.974-.529.072.005.352.204.076.152.636.244 1.037-.009.883-.568.425.103 1.003.758 1.799.843.884.486-2.137 2.11-.099-.136-.113-.08-.463-.15-.362-.053-2.324.819-.389.492-.139.857.046.086-1.875-.033.144-.586.134-.784-.23-.887-.121-.366-.081-.319.018-.627.072-.567.221-1.055-.293-.325-.09-.072z">
   <title id="t526">Burke, GA</title>
  </path>
  <path id="FIPS_13245" d="m442.42 221.99.175.163.091.086.505.478.715.834.253.977.7.991-.425-.103-.883.568-1.037.009-.636-.244-.076-.152-.352-.204-.072-.005-.974.529-.995-.443.554-.635z">
   <title id="t527">Augusta-Richmond, GA</title>
  </path>
  <path id="FIPS_13073" d="m440.14 220.47 1.234 1.077 1.042.441-2.457 2.849-.193-.126-.964-1.162-.708-.989-.176-1.013.009-.171.095-.131z">
   <title id="t528">Columbia, GA</title>
  </path>
  <path id="FIPS_13181" d="m435.08 217.3.911.249 1.595.95.067.018.15-.058.049.004.92.464.279.199.663.545.428.807-2.118.775-.555.225z">
   <title id="t529">Lincoln, GA</title>
  </path>
  <path id="FIPS_13105" d="m433.28 213.53.397 1.033 1.875 2.312.442.672-.911-.249-1.38.375-2.203-.645-1.388-2.209z">
   <title id="t530">Elbert, GA</title>
  </path>
  <path id="FIPS_13195" d="m429.65 214.27.456.549 1.388 2.209-.712.455-.144-.017-.577-.168-.154-.09-.077.009-1.229.785-1.146-.389-.717-1.956.452-.405z">
   <title id="t531">Madison, GA</title>
  </path>
  <path id="FIPS_13011" d="m426.34 212.26.856 2.988-.452.405-.269-.229-.659-.492-.392.127-.459.09-.126-.045-.217-.14-.329-.266-.171-1.754 1.536-.856z">
   <title id="t532">Banks, GA</title>
  </path>
  <path id="FIPS_13139" d="m423.45 212.09.667.86.171 1.754-1.799 2.43-2.65-.191.844-2.275-.374-1.064 1.284-1.297z">
   <title id="t533">Hall, GA</title>
  </path>
  <path id="FIPS_13187" d="m421.1 209.53.496 2.773-1.284 1.297-2.489-2.091.249-.635.806-.162.865-.812z">
   <title id="t534">Lumpkin, GA</title>
  </path>
  <path id="FIPS_13123" d="m412.92 208.8 2.002-.234.599.068.46.289.244.183.743.996.626.91.113.307-1.47.901-.248.217-1.983.216-.982.14-.054-.441-.252-1.871.126-.595.279-.306.226-.388.004-.041-.027-.04z">
   <title id="t535">Gilmer, GA</title>
  </path>
  <path id="FIPS_13111" d="m415.81 206.71 2.007-.235-.419.447-.038.072.01.067.617 1.74.199.13.198-.062-.049 1.356-.266.645-.249.635-.112-.185-.113-.307-.626-.91-.743-.996-.244-.183-.46-.289-.599-.068-2.002.234-.234-1.707z">
   <title id="t536">Fannin, GA</title>
  </path>
  <path id="FIPS_13291" d="m419.11 206.32.718-.094-.063.238.334.32.639.361.305-.023.308.176.383.897.045.324-.681 1.014-1.357.37-.865.812-.806.162.266-.645.049-1.356-.198.062-.199-.13-.617-1.74-.01-.067.038-.072.419-.447z">
   <title id="t537">Union, GA</title>
  </path>
  <path id="FIPS_13311" d="m421.78 208.52 1.018-.23.555.32.072.122.072.325.405 2.456-.45.577-1.857.217-.496-2.773z">
   <title id="t538">White, GA</title>
  </path>
  <path id="FIPS_13137" d="m423.07 207.96 3.307.96.208.347-.929 2.825-1.536.856-.667-.86.45-.577-.405-2.456-.072-.325-.072-.122-.555-.32z">
   <title id="t539">Habersham, GA</title>
  </path>
  <path id="FIPS_13147" d="m429.91 211.36.654.091.117-.059.009-.004.42-.104.378-.05.221.063.108.082-.004.035.351.542 1.117 1.572-3.168 1.289-.456-.549z">
   <title id="t540">Hart, GA</title>
  </path>
  <path id="FIPS_13119" d="m429.26 210.91.646.45-.253 2.908-2.46.982-.856-2.988.211-.13.081-.028 1.988-.36z">
   <title id="t541">Franklin, GA</title>
  </path>
  <path id="FIPS_13257" d="m426.58 209.26 2.676 1.645-.643.834-1.988.36-.081.028-.211.13-.682-.172z">
   <title id="t542">Stephens, GA</title>
  </path>
 </g>
</svg>