<svg id="svg9559" width="555.22" height="351.67" xmlns="http://www.w3.org/2000/svg" viewBox="164.6699981689453 308.45001220703125 67.61500549316406 39.5570068359375">
 <g id="stylegroup" fill="#d0d0d0" stroke="#000" stroke-width=".1">
  <path id="FIPS_15007" d="m173.71 308.45h1.317l.567.377.186.564v.378l-.377.94v1.131l-.753.752-.563.379-1.883-.19-.754-.752-1.13-.378-.377-.376v-.566l.566-.753 1.884-1.506zm-8.852 6.028-.188-.191.188-1.129 1.13-.754.189-.564h.565l-.188 1.318-.942.377-.565.943z">
   <title id="t543">Kauai, HI</title>
  </path>
  <path id="FIPS_15003" d="m196.12 319-.755.568v-.189l-1.13.376-.942-.565-1.883.189-.754.189-.376-.944-.566-.376-.187-.564-.566-.566v-.565l-.565-.375 1.884-.379.942-1.316.565-.378.564.187.942 1.695h.188l.188.378-.188.376.188.564.754.567.188-.567h.377v.567l.377.189.188.753z">
   <title id="t544">Honolulu, HI</title>
  </path>
  <path id="FIPS_15009" d="m204.59 320.5h.19l.377.187h.187l-.187-.376 1.693-.376.754.189-.377.754-1.13.752h-.565l-2.258-.375-2.637.187h-.19l.567-1.507h.188l2.637.189.565.187zm4.52 1.318.565.189.942 1.507 1.883-.941 1.13.188v.188l1.507.943 1.318.376.188.376v.752l-.753.754-.942.377-1.883.755h-1.319l-.377-.19-.376-2.259-.564-.189-.377.375-1.13-.564-.753-.754-.189-.752.377-.754.188-.377zm-4.895 1.696h1.317l.754.565.376.565-.189.752-1.693.567-.19-.754-.186-.565-.753-.752v-.191zm5.649 3.768.188.187.188.753-1.507.377-.564-.19.376-.562z">
   <title id="t545">Maui, HI</title>
  </path>
  <path id="FIPS_15001" d="m222.68 347.63-.376.377-.754-.565-1.883-.753-.379-.566-.188-.376.188-3.014-1.318-3.203-.754-.752-.565-.753.189-.567 1.13-1.129 1.318-1.694v-.753l-.941-1.319-.189-.753.189-.755.376-.188 1.131.188.376.565 1.696.755 2.073.376 2.26.943 1.507.941.753.941.188 1.508.941-.189.377.563v.755l.942.753 1.318.564-.377.754-2.071 1.883-1.695.944-1.507.188-1.695 1.317-.941.564z">
   <title id="t546">Hawaii, HI</title>
  </path>
  <path id="FIPS_15005" d="m204.41 320.32-.565-.187 1.318.187.187.376h-.187l-.377-.187h-.19z">
   <title id="t547">Kalawao, HI</title>
  </path>
 </g>
</svg>