<svg id="svg9559" width="555.22" height="351.67" xmlns="http://www.w3.org/2000/svg" viewBox="287.8119812011719 102.56999969482422 61.50604248046875 40.553016662597656">
 <g id="stylegroup" fill="#d0d0d0" stroke="#000" stroke-width=".1">
  <path id="FIPS_19163" d="m342.31 124.8 1.072-.058 3.21-.091 1.306.384-.149 1.405-.5.672-.572.667-1.821.902-.776.198-.329.009-.139-.018-1.195-1.811z">
   <title id="t548">Scott, IA</title>
  </path>
  <path id="FIPS_19045" d="m342.13 121.4 7.084-.402.104 1.349-.744 1.928-.676.758-1.306-.384-3.21.091-1.072.058-.122-2.262z">
   <title id="t549">Clinton, IA</title>
  </path>
  <path id="FIPS_19119" d="m287.9 103.67 1.36.009 3.736.013 1.79.005-.005 3.137-6.72-.05z">
   <title id="t550">Lyon, IA</title>
  </path>
  <path id="FIPS_19167" d="m288.06 106.79 6.72.05.032 4.512-6.251-.01.653-2.254.149-.397.027-.089-.361-1.298-.089-.042-.672-.003z">
   <title id="t551">Sioux, IA</title>
  </path>
  <path id="FIPS_19149" d="m294.82 111.35v4.515l-5.864-.014-.342-.901-.244-.392-.311-.289-.247-.189.378-1.73.379-1.01z">
   <title id="t552">Plymouth, IA</title>
  </path>
  <path id="FIPS_19035" d="m299.26 111.32.031 4.512-3.348.019-1.123.008v-4.515z">
   <title id="t553">Cherokee, IA</title>
  </path>
  <path id="FIPS_19141" d="m294.78 106.84 4.444.013.028 4.475-4.44.024z">
   <title id="t554">O'Brien, IA</title>
  </path>
  <path id="FIPS_19143" d="m298.59 103.68h.622l.017 3.173-4.444-.013.005-3.137z">
   <title id="t555">Osceola, IA</title>
  </path>
  <path id="FIPS_19059" d="m299.21 103.68 4.412-.04.049 3.172-4.444.041z">
   <title id="t556">Dickinson, IA</title>
  </path>
  <path id="FIPS_19041" d="m299.23 106.85 4.444-.041.05 4.476-4.466.04z">
   <title id="t557">Clay, IA</title>
  </path>
  <path id="FIPS_19021" d="m303.72 111.28.045 4.529-4.48.023-.031-4.512z">
   <title id="t558">Buena Vista, IA</title>
  </path>
  <path id="FIPS_19151" d="m303.72 111.28 4.435-.04.054 3.411.023 1.113-4.467.045z">
   <title id="t559">Pocahontas, IA</title>
  </path>
  <path id="FIPS_19147" d="m308.08 106.75.077 4.494-4.435.04-.05-4.476z">
   <title id="t560">Palo Alto, IA</title>
  </path>
  <path id="FIPS_19063" d="m308.03 103.57.049 3.178-4.408.058-.049-3.172.568-.009z">
   <title id="t561">Emmet, IA</title>
  </path>
  <path id="FIPS_19109" d="m312.44 103.5.072 3.164.085 4.503-4.439.077-.077-4.494-.049-3.178 1.826-.031z">
   <title id="t562">Kossuth, IA</title>
  </path>
  <path id="FIPS_19091" d="m308.16 111.24 4.439-.077.073 3.407-4.458.081z">
   <title id="t563">Humboldt, IA</title>
  </path>
  <path id="FIPS_19193" d="m294.82 115.86 1.123-.008.004.938.37.183h.31v3.416l-6.522-.048.118-.798-.289-.541-.112-1.484.067-.179-.004-.199-.04-.149-.1-.139-.126-.049-.324-.023-.339-.934z">
   <title id="t564">Woodbury, IA</title>
  </path>
  <path id="FIPS_19093" d="m299.29 115.84.009 1.127.617-.005.014 3.427-3.304.007v-3.416h-.31l-.37-.183-.004-.938z">
   <title id="t565">Ida, IA</title>
  </path>
  <path id="FIPS_19161" d="m299.29 115.84 4.48-.023.009 1.115h.55l.027 3.429-4.426.028-.014-3.427-.617.005z">
   <title id="t566">Sac, IA</title>
  </path>
  <path id="FIPS_19025" d="m303.77 115.81 4.467-.045.014 1.109.432-.004.059 3.426-2.2.031-2.186.027-.027-3.429h-.55z">
   <title id="t567">Calhoun, IA</title>
  </path>
  <path id="FIPS_19187" d="m312.67 114.58.045 2.236.379-.004.076 3.393-2.217.051-2.213.049-.059-3.426-.432.004-.014-1.109-.023-1.113z">
   <title id="t568">Webster, IA</title>
  </path>
  <path id="FIPS_19073" d="m308.74 120.3 2.213-.049.094 4.497-1.114.021-3.33.06-.063-4.498z">
   <title id="t569">Greene, IA</title>
  </path>
  <path id="FIPS_19027" d="m304.35 120.36 2.186-.027.063 4.498-1.109.018-3.326.027-.027-4.502z">
   <title id="t570">Carroll, IA</title>
  </path>
  <path id="FIPS_19047" d="m302.14 120.37.027 4.502-4.439.027-1.105.009v-4.517l3.304-.007z">
   <title id="t571">Crawford, IA</title>
  </path>
  <path id="FIPS_19133" d="m296.62 120.39v4.517l-4.466-.031-1.267-2.353-.789-2.181z">
   <title id="t572">Monona, IA</title>
  </path>
  <path id="FIPS_19085" d="m297.73 124.9.004 3.394.577-.005.005 1.249h-4.642l-1.344-2.28-.171-2.38 4.466.031z">
   <title id="t573">Harrison, IA</title>
  </path>
  <path id="FIPS_19165" d="m297.73 124.9 4.439-.027.031 3.389.501-.004.014 1.261-1.1.006-3.299.013-.005-1.249-.577.005z">
   <title id="t574">Shelby, IA</title>
  </path>
  <path id="FIPS_19009" d="m302.17 124.87 3.326-.027.045 2.807.425.563.017 1.273-3.267.03-.014-1.261-.501.004z">
   <title id="t575">Audubon, IA</title>
  </path>
  <path id="FIPS_19077" d="m306.6 124.83 3.33-.06.064 3.395h.374l.022 1.263-4.412.063-.017-1.273-.425-.563-.045-2.807z">
   <title id="t576">Guthrie, IA</title>
  </path>
  <path id="FIPS_19001" d="m310.39 129.43.082 4.497-2.213.032-2.217.027-.064-4.493z">
   <title id="t577">Adair, IA</title>
  </path>
  <path id="FIPS_19029" d="m305.98 129.49.064 4.493-2.196.023-2.204.012-.031-4.492 1.1-.006z">
   <title id="t578">Cass, IA</title>
  </path>
  <path id="FIPS_19155" d="m298.31 129.54 3.299-.013.031 4.492-2.195.018-4.538.01-.676-.406-.144-2.623-.419-1.478z">
   <title id="t579">Pottawattamie, IA</title>
  </path>
  <path id="FIPS_19071" d="m295.21 137.4 4.244-.018.014 1.749.113 1.452.009.968-3.813-.04-.87-2.579z">
   <title id="t580">Fremont, IA</title>
  </path>
  <path id="FIPS_19129" d="m299.45 134.04.004 3.345-4.244.018-.429-1.884.131-1.469z">
   <title id="t581">Mills, IA</title>
  </path>
  <path id="FIPS_19137" d="m301.64 134.02 2.204-.012.027 3.347-4.422.028-.004-3.345z">
   <title id="t582">Montgomery, IA</title>
  </path>
  <path id="FIPS_19145" d="m303.87 137.35.028 2.25h.148l.009 1.979-2.803-.018-1.668-.014-.009-.968-.113-1.452-.014-1.749z">
   <title id="t583">Page, IA</title>
  </path>
  <path id="FIPS_19173" d="m308.31 137.31.063 4.268-1.563.019-2.755-.014-.009-1.979h-.148l-.028-2.25z">
   <title id="t584">Taylor, IA</title>
  </path>
  <path id="FIPS_19003" d="m308.26 133.96.054 3.353-4.44.044-.027-3.347 2.196-.023z">
   <title id="t585">Adams, IA</title>
  </path>
  <path id="FIPS_19175" d="m310.47 133.92 2.195-.036.067 3.372-4.421.049-.054-3.353z">
   <title id="t586">Union, IA</title>
  </path>
  <path id="FIPS_19159" d="m308.31 137.31 4.421-.049.077 4.196-2.109.066-2.326.055z">
   <title id="t587">Ringgold, IA</title>
  </path>
  <path id="FIPS_19053" d="m312.74 137.26 4.435-.118.104 4.128-2.114.087-2.348.099z">
   <title id="t588">Decatur, IA</title>
  </path>
  <path id="FIPS_19039" d="m317.08 133.72.094 3.417-4.435.118-.067-3.372 2.172-.117z">
   <title id="t589">Clarke, IA</title>
  </path>
  <path id="FIPS_19121" d="m314.72 129.23.117 4.544-2.172.117-2.195.036-.082-4.497z">
   <title id="t590">Madison, IA</title>
  </path>
  <path id="FIPS_19049" d="m314.37 124.67.081 2.848.238.564.032 1.144-4.332.2-.022-1.263h-.374l-.064-3.395 1.114-.021z">
   <title id="t591">Dallas, IA</title>
  </path>
  <path id="FIPS_19015" d="m315.39 120.16.113 4.485-1.127.027-3.327.077-.094-4.497 2.217-.051z">
   <title id="t592">Boone, IA</title>
  </path>
  <path id="FIPS_19079" d="m317.16 115.6.464 4.505-2.239.055-2.218.041-.076-3.393-.379.004-.022-1.113z">
   <title id="t593">Hamilton, IA</title>
  </path>
  <path id="FIPS_19197" d="m312.6 111.17 4.454-.117.112 4.548-4.47.099-.023-1.123z">
   <title id="t594">Wright, IA</title>
  </path>
  <path id="FIPS_19081" d="m316.94 106.56.108 4.494-4.454.117-.085-4.503z">
   <title id="t595">Hancock, IA</title>
  </path>
  <path id="FIPS_19189" d="m316.86 103.4.081 3.16-4.431.108-.072-3.164 3.006-.068z">
   <title id="t596">Winnebago, IA</title>
  </path>
  <path id="FIPS_19195" d="m321.27 103.27.103 3.161-4.434.13-.081-3.16 4.182-.121z">
   <title id="t597">Worth, IA</title>
  </path>
  <path id="FIPS_19033" d="m316.94 106.56 4.434-.13.018.554.113 3.948-4.457.122z">
   <title id="t598">Cerro Gordo, IA</title>
  </path>
  <path id="FIPS_19069" d="m317.05 111.05 4.457-.122.126 4.552-4.471.118z">
   <title id="t599">Franklin, IA</title>
  </path>
  <path id="FIPS_19083" d="m321.63 115.48.384 4.493-2.191.073-2.2.057-.464-4.505z">
   <title id="t600">Hardin, IA</title>
  </path>
  <path id="FIPS_19169" d="m319.82 120.05.13 4.489-1.108.026-3.348.082-.113-4.485 2.239-.055z">
   <title id="t601">Story, IA</title>
  </path>
  <path id="FIPS_19153" d="m318.85 124.56.311 4.608.008.207-4.443-.15-.032-1.144-.238-.564-.081-2.848 1.127-.027z">
   <title id="t602">Polk, IA</title>
  </path>
  <path id="FIPS_19181" d="m319.17 129.38.126 4.294-2.216.054-2.236.046-.117-4.544z">
   <title id="t603">Warren, IA</title>
  </path>
  <path id="FIPS_19117" d="m319.29 133.67 2.21-.063.116 3.404-4.448.13-.094-3.417z">
   <title id="t604">Lucas, IA</title>
  </path>
  <path id="FIPS_19185" d="m321.62 137.01.131 4.084-2.695.125-1.78.049-.104-4.128z">
   <title id="t605">Wayne, IA</title>
  </path>
  <path id="FIPS_19007" d="m326.06 136.86.157 4.002-.744.041-3.723.195-.131-4.084z">
   <title id="t606">Appanoose, IA</title>
  </path>
  <path id="FIPS_19135" d="m325.93 133.46.132 3.402-4.441.154-.116-3.404 2.213-.072z">
   <title id="t607">Monroe, IA</title>
  </path>
  <path id="FIPS_19125" d="m323.55 129.02.163 4.511-2.213.072-2.21.063-.126-4.294-.008-.207z">
   <title id="t608">Marion, IA</title>
  </path>
  <path id="FIPS_19099" d="m319.96 124.54 4.448-.135.249 4.583-1.1.041-4.394.145-.311-4.608z">
   <title id="t609">Jasper, IA</title>
  </path>
  <path id="FIPS_19127" d="m322.02 119.97 2.221-.081.166 4.508-4.448.135-.13-4.489z">
   <title id="t610">Marshall, IA</title>
  </path>
  <path id="FIPS_19075" d="m326.11 115.34.307 3.342-2.218.087.036 1.122-2.221.081-.384-4.493z">
   <title id="t611">Grundy, IA</title>
  </path>
  <path id="FIPS_19023" d="m321.51 110.93 4.431-.139.122 3.43.053 1.122-4.48.139z">
   <title id="t612">Butler, IA</title>
  </path>
  <path id="FIPS_19067" d="m321.39 106.98 4.399-.149.145 3.958-4.431.139z">
   <title id="t613">Floyd, IA</title>
  </path>
  <path id="FIPS_19131" d="m325.67 103.11.121 3.723-4.399.149-.121-3.715z">
   <title id="t614">Mitchell, IA</title>
  </path>
  <path id="FIPS_19089" d="m326.64 103.07 3.438-.14.149 3.723-4.44.176-.121-3.723z">
   <title id="t615">Howard, IA</title>
  </path>
  <path id="FIPS_19037" d="m330.23 106.66.062 1.687.091 2.275-4.448.172-.145-3.958z">
   <title id="t616">Chickasaw, IA</title>
  </path>
  <path id="FIPS_19017" d="m325.94 110.79 4.448-.172.141 3.43-4.467.172z">
   <title id="t617">Bremer, IA</title>
  </path>
  <path id="FIPS_19013" d="m330.53 114.05.097 2.259.177.288.072 1.916-2.222.086-2.231.087-.307-3.342-.053-1.122z">
   <title id="t618">Black Hawk, IA</title>
  </path>
  <path id="FIPS_19171" d="m328.65 118.6.225 5.636-4.472.168-.206-5.631z">
   <title id="t619">Tama, IA</title>
  </path>
  <path id="FIPS_19157" d="m324.4 124.4 4.472-.168.186 4.58-1.101.045-3.308.126z">
   <title id="t620">Poweshiek, IA</title>
  </path>
  <path id="FIPS_19123" d="m324.65 128.98 3.308-.126.19 4.508-2.223.09-2.212.08-.163-4.511z">
   <title id="t621">Mahaska, IA</title>
  </path>
  <path id="FIPS_19179" d="m328.15 133.37 2.222-.096.144 3.412-4.457.176-.132-3.402z">
   <title id="t622">Wapello, IA</title>
  </path>
  <path id="FIPS_19051" d="m330.52 136.68.148 3.881-1.658.108-2.79.189-.157-4.002z">
   <title id="t623">Davis, IA</title>
  </path>
  <path id="FIPS_19177" d="m330.52 136.68 4.462-.207.046 1.136.147 2.784-2.208.006-2.299.162z">
   <title id="t624">Van Buren, IA</title>
  </path>
  <path id="FIPS_19101" d="m334.85 133.08.131 3.398-4.462.207-.144-3.412 2.257-.108z">
   <title id="t625">Jefferson, IA</title>
  </path>
  <path id="FIPS_19011" d="m333.09 118.39.244 5.669-4.458.171-.225-5.636 2.222-.086z">
   <title id="t626">Benton, IA</title>
  </path>
  <path id="FIPS_19095" d="m328.88 124.23 4.458-.171.22 4.538-1.117.06-3.375.153z">
   <title id="t627">Iowa, IA</title>
  </path>
  <path id="FIPS_19107" d="m329.06 128.81 3.375-.153.193 4.502-2.257.108-2.222.096-.19-4.508z">
   <title id="t628">Keokuk, IA</title>
  </path>
  <path id="FIPS_19183" d="m333.55 128.6 2.966-.129.158.225.248.888.14 3.393-2.218.1-2.218.085-.193-4.502z">
   <title id="t629">Washington, IA</title>
  </path>
  <path id="FIPS_19087" d="m337.06 132.98 1.167 1.091-.207 3.412-3.001.131-.046-1.136-.131-3.398z">
   <title id="t630">Henry, IA</title>
  </path>
  <path id="FIPS_19111" d="m335.02 137.61 3.001-.131 2.957 1.366-.677.794-.315.008-.257.019-.077.004h-.004l-.51.179-.014.009-.058.033-.244.139-.086.054-.03.033-.036.035-.036.041-.41.63-.015.096.032.108.199.094.162.235.054.157.008.13-.026 1.16-.004.008-.023.113-.103.086-.014.008-.298.105-.639-.046-.407-.329-.982-1.208-.036-.09.032-.262-.023-.085-.771-.582-.203-.127-.147-2.784">
   <title id="t631">Lee, IA</title>
  </path>
  <path id="FIPS_19057" d="m342.3 133.88.009.032.036.112.049.348-.039 1.05-.082.383-.054.081-.279.158-.104.102-.753 1.074-.036.167-.067 1.46-2.957-1.366.207-3.412z">
   <title id="t632">Des Moines, IA</title>
  </path>
  <path id="FIPS_19115" d="m336.92 129.58 1.109-.045.049 1.131 2.785-.108v.004l-.275 1.101.01.107.004.009.653.785.308.153.129-.018.078.036.082.085.454.744-.009.311-4.07.189-1.167-1.091z">
   <title id="t633">Louisa, IA</title>
  </path>
  <path id="FIPS_19139" d="m342.41 127.06 1.195 1.811-.59.005-1.352.369-.362.131-.103.067-.009.005v.004l-.068.096-.009.025-.134.551-.114.442-2.785.108-.049-1.131-.09-2.272z">
   <title id="t634">Muscatine, IA</title>
  </path>
  <path id="FIPS_19103" d="m337.78 123.88.163 3.389.09 2.272-1.109.045-.248-.888-.158-.225-2.966.129-.22-4.538z">
   <title id="t635">Johnson, IA</title>
  </path>
  <path id="FIPS_19113" d="m337.53 118.22.195 4.525.053 1.131-4.448.184-.244-5.669 2.227-.064z">
   <title id="t636">Linn, IA</title>
  </path>
  <path id="FIPS_19031" d="m342.18 122.54.122 2.262.107 2.259-4.47.211-.216-4.52z">
   <title id="t637">Cedar, IA</title>
  </path>
  <path id="FIPS_19105" d="m339.75 118.12 2.199-.109.182 3.39.058 1.136-4.457.212-.195-4.525z">
   <title id="t638">Jones, IA</title>
  </path>
  <path id="FIPS_19019" d="m335.01 113.83.027.983.063 1.28.163 1.239.054.996-2.227.064-2.217.118-.072-1.916-.177-.288-.097-2.259z">
   <title id="t639">Buchanan, IA</title>
  </path>
  <path id="FIPS_19065" d="m330.29 108.34 4.473-.182.242 5.67-4.483.217-.141-3.43z">
   <title id="t640">Fayette, IA</title>
  </path>
  <path id="FIPS_19191" d="m334.46 102.74.094 2.051.068-.005.145 3.371-4.473.182-.062-1.687-.149-3.723 3.264-.139z">
   <title id="t641">Winneshiek, IA</title>
  </path>
  <path id="FIPS_19005" d="m338.13 102.57.162.996-.009.663 1.001.704.217.275.283.455-.036.161-.72 1.213-.245.951-4.014.175-.145-3.371-.068.005-.094-2.051z">
   <title id="t642">Allamakee, IA</title>
  </path>
  <path id="FIPS_19043" d="m338.78 107.99.2 1.226.211.986.861 1.912.117.243.761.505.262.121.496.118-2.204.492-4.476.242-.242-5.67z">
   <title id="t643">Clayton, IA</title>
  </path>
  <path id="FIPS_19055" d="m335.01 113.83 4.476-.242.261 4.529-2.213.104-2.217.107-.054-.996-.163-1.239-.063-1.28z">
   <title id="t644">Delaware, IA</title>
  </path>
  <path id="FIPS_19061" d="m339.48 113.59 2.204-.492 1.221.234.473.113.108.053.068.068.6 1.091.103.325.006.073-.036.062-.132.226-.004.03.009.072.022.065.077.08.22.158.637.329.81.564.004.004.024.023-1.803.094.059 1.135-2.21.113-2.199.109z">
   <title id="t645">Dubuque, IA</title>
  </path>
  <path id="FIPS_19097" d="m345.9 116.67.567.657.027.042.005.049-.054.365-.054.121v.082l.132.297.007.014.271.338.009.008.163.131.175.113.397.127 1.667 1.986-7.084.402-.182-3.39 2.21-.113-.059-1.135z">
   <title id="t646">Jackson, IA</title>
  </path>
 </g>
</svg>