<svg id="svg9559" width="555.22" height="351.67" xmlns="http://www.w3.org/2000/svg" viewBox="94.49300384521484 13.071000099182129 61.04900360107422 98.70000457763672">
 <g id="stylegroup" fill="#d0d0d0" stroke="#000" stroke-width=".1">
  <path id="FIPS_16043" d="m153.13 76.13.433.428.74 1.451.401 1.158.104.307.734.681-.992 6.264-3.34.253-.036.041-.035.009-1.474.216-1.253-.208-1.203-.779-1.276-.217.09-.554-1.636-.289.189-1.099 1.114.194 1.289-.915.599-.473.19-.825.139-.816.676-.645.834-.207.802.131.325-1.929 1.559-1.79z">
   <title id="t647">Fremont, ID</title>
  </path>
  <path id="FIPS_16033" d="m150.55 78.307-.325 1.929-.802-.131-.834.207-.676.645-.139.816-.19.825-.599.473-1.289.915-1.114-.194-4.912-.865-.199 1.099-2.727-.496.591-3.33.541.149 1.099.193.334-1.861-.054-.262.108-.482.131-.203.356-.378.608-.144 3.223.802 1.37-.514 2.51.257 1.817.518z">
   <title id="t648">Clark, ID</title>
  </path>
  <path id="FIPS_16009" d="m109.58 33.421 1.195.265 2.37.374.122-.265.343-.113 2.212.496-1.067 4.903-1.114-.238-2.668-.789-2.069-1.645.375-1.65z">
   <title id="t649">Benewah, ID</title>
  </path>
  <path id="FIPS_16055" d="m111.28 25.781 2.335.46 1.19.139 1.1.244-.289 1.262 1.56.338-1.353 5.954-2.212-.496-.343.113-.122.265-2.37-.374-1.195-.265z">
   <title id="t650">Kootenai, ID</title>
  </path>
  <path id="FIPS_16017" d="m113.79 14.969 2.087.455-.464 2.159-.492 2.159 6.229 1.343-.771 3.583-.626 2.979-.081-.167-.446-.644-.785-.622-.099-.063-.361.031-.514.437-.04.181-.252 1.424-1.56-.338.289-1.262-1.1-.244-1.19-.139-2.335-.46.194-.851z">
   <title id="t651">Bonner, ID</title>
  </path>
  <path id="FIPS_16021" d="m114.22 13.071 8.253 1.79-1.33 6.224-6.229-1.343.492-2.159.464-2.159-2.087-.455z">
   <title id="t652">Boundary, ID</title>
  </path>
  <path id="FIPS_16057" d="m108.9 36.409 2.069 1.645 2.668.789 1.114.238-.239 1.104-.726 3.345-.478.41-.73-.162-1.344-.32h-.094l-.387.144-.402.248-.108.14.005.045-.189.325-2.808-.614z">
   <title id="t653">Latah, ID</title>
  </path>
  <path id="FIPS_16069" d="m107.25 43.746 2.808.614.189-.325-.005-.045.108-.14.402-.248.387-.144h.094l1.344.32-.199.915-.139.802.536.014.203.058-.09.41-.05-.036-.085-.022-.221-.036-.05.008.014.176.027.158.216.708-.059.387-.044.109-.086.108-1.104-.009-1.957-.433-.053.271.004.089-.766 3.8-.163.063-.279.217-.072.076-.113.208-.009.153.028.185.053.076.046.122-.028.131-.176.22-.067.055-.365.094-.099-.031-.635-1.979-.055-.892.429-1.182-.055-1.108-.086-.712-.013-.045-.283-1.141.189-.563z">
   <title id="t654">Nez Perce, ID</title>
  </path>
  <path id="FIPS_16061" d="m114.37 47.555.546 1.631-1.6.915-1.663-.91-.212.036-.032.031-1.794 1.691-.937.306.766-3.8-.004-.089.053-.271 1.957.433 1.104.009.086-.108.044-.109.059-.387-.216-.708-.027-.158-.014-.176.05-.008.221.036.085.022.05.036.333.433 1.028.572.09.167.023.171z">
   <title id="t655">Lewis, ID</title>
  </path>
  <path id="FIPS_16003" d="m106.74 60.441 3.101.676.045.234.09.789-.013.59-.127.298-.062.04-.032.126 1.425.325.374.667-.505 1.221-.195.231h-.081l-.13-.078-.433.659-.126.279-.36 1.001-.312 2.51v1.172l-1.433.415-.829-.181-.306-.162-.781-.694-.342-1.713-.05-.653.483-2.218-2.38-.55.271-.288.211-.226.302-.522.009-.009-.013-.104-.054-.126-.032-.126-.009-.261.225-.469.285-.262.437-.396z">
   <title id="t656">Adams, ID</title>
  </path>
  <path id="FIPS_16087" d="m103.76 65.425 2.38.55-.483 2.218.05.653.342 1.713.781.694.306.162.829.181-.536.915-.203.518-.171.843-.306 1.014-.118.297-.843-.189-4.015-.901.013-.023.013-.027.018-.036.005-.005v-.013l.013-.131-.031-.099-.009-.018-.478-.946-.094-.059-.357-.126h-.049l-.086.04-1.122-.455-.135-.229-.018-.185.013-.109.023-.068.311-2.122.113-.226 1.996-2.744.212-.19.063-.027.221-.049.861-.293z">
   <title id="t657">Washington, ID</title>
  </path>
  <path id="FIPS_16075" d="m101.78 74.093 4.015.901-.244 1.086-1.315.838-1.271-.292-.487 2.203-2.213-1.464.27-.451.438-.829.351-1.433z">
   <title id="t658">Payette, ID</title>
  </path>
  <path id="FIPS_16015" d="m116.75 74.836.482.541 1.478 2.249.041.212.041 2.128-.037.107-.261.262-.717-.023-1.911-.414-2.109.234-.19.094-1.018.952-.442.531-.406.559-.261.244-.225.104-1.276.482-.729.027-.519-.064-.108-.049-.059.059-1.01-1.609-1.131-1.781.068.018.018-.063.937-4.286.55.117.883-.068.339-.797 5.412 1.163.437-.014.501-.167z">
   <title id="t659">Boise, ID</title>
  </path>
  <path id="FIPS_16045" d="m109.4 71.181.045.009-.477 2.204-.537-.112-.473 2.185-.55-.117-.937 4.286-.018.063-.068-.018-2.096-.459-1.816-.393.487-2.203 1.271.292 1.315-.838.244-1.086.843.189.118-.297.306-1.014.171-.843.203-.518.536-.915z">
   <title id="t660">Gem, ID</title>
  </path>
  <path id="FIPS_16027" d="m100.26 77.365 2.213 1.464 1.816.393-.482 2.19.131.545-.095 1.01-.162.735-.392.658-.424 1.402-.59-.379-1.33-2.475-.018-.067.081-.492.014-.23-.068-.4-.058-.194-.225-.28-1.101-1.271-.306-.193z">
   <title id="t661">Canyon, ID</title>
  </path>
  <path id="FIPS_16001" d="m104.29 79.222 2.096.459 1.131 1.781 1.01 1.609.059-.059-.604 2.871-.212.996-.505 2.178-2.641-.555-.144-.131-.217-.257-.293-.464-.216-.392-.004-.036.072-.257.117-.176.018-.122-.176-.626-.113-.149-.067-.05-.735-.08.424-1.402.392-.658.162-.735.095-1.01-.131-.545z">
   <title id="t662">Ada, ID</title>
  </path>
  <path id="FIPS_16039" d="m118.5 80.335.149.185-.37.973-.122.077-.288.414-.126.235-.974 2.325-.636 2.962-.441 2.181-.288 3.727-.375 1.826-3.853-.785.221-1.059.149-.319.179-.668-3.217-.91-1.889-.397-.113-.049-.594-.622-.857-.992-.401-.811-.027-.126 2.641.555.505-2.178.212-.996.604-2.871.108.049.519.064.729-.027 1.276-.482.225-.104.261-.244.406-.559.442-.531 1.018-.952.19-.094 2.109-.234 1.911.414z">
   <title id="t663">Elmore, ID</title>
  </path>
  <path id="FIPS_16073" d="m99.266 79.781.306.193 1.101 1.271.225.28.058.194.068.4-.014.23-.081.492.018.067 1.33 2.475.59.379.735.08.067.05.113.149.176.626-.018.122-.117.176-.072.257.004.036.216.392.293.464.217.257.144.131.027.126.401.811.857.992.594.622.113.049 1.889.397 3.217.91-.179.668-.149.319-.221 1.059 3.853.785-1.996 9.817-13.742-2.917-1.082-.248-3.642-.834-.072-.027z">
   <title id="t664">Owyhee, ID</title>
  </path>
  <path id="FIPS_16025" d="m118.28 81.493.942.658 1.456.424.067.086.027.094.023.189.009.586-.072 1.001-.045.946 1.384 3.692.301.171-.018 1.055-.117.585-2.023-.382-4.521-.911.441-2.181.636-2.962.974-2.325.126-.235.288-.414z">
   <title id="t665">Camas, ID</title>
  </path>
  <path id="FIPS_16047" d="m115.69 89.687 4.521.911-.875 4.417-.712 2.519-1.235-.55-.64-.591-.496-.928.253-1.086-.005-.063-.379-.794-.328-.108-.258-.054-.134.054z">
   <title id="t666">Gooding, ID</title>
  </path>
  <path id="FIPS_16053" d="m119.34 95.015 2.118.418-.067.343.149.221 1.789.545.843.546 1.081.212-.55 2.924-.662-.008-1.181.121-.437-.441-.05-.104-.446-.387-1.483-.803-.577-.216-1.122-.73-.117-.122z">
   <title id="t667">Jerome, ID</title>
  </path>
  <path id="FIPS_16083" d="m115.4 93.414.134-.054.258.054.328.108.379.794.005.063-.253 1.086.496.928.64.591 1.235.55.117.122 1.122.73.577.216 1.483.803.446.387.05.104.437.441 1.181-.121-.361.054-.486.942-2.069-.117-.14.753-.036.35-.838 4.287-2.028-.401-2.47-.559-1.411-.284-1.167-.184 1.996-9.817z">
   <title id="t668">Twin Falls, ID</title>
  </path>
  <path id="FIPS_16031" d="m124.7 100.22 2.002.6.121.019.063-.014.388-.122.13-.113.149-.216.69-.892.072-.059.149-.086.387-.063.447.045.567.041.487.149.248.41.14.198.477.262.055-.005.108-.09.383-.045 1.708.919-.581 3.326-.762 4.205-3.777-.639-.275-.045-3.132-.533-.298-.049-.802-.14-.112-.022-.753-.18-.627-.158-2.244-.442.838-4.287.036-.35.14-.753 2.069.117.486-.942.361-.054z">
   <title id="t669">Cassia, ID</title>
  </path>
  <path id="FIPS_16071" d="m138.71 103.21.794.839v.932l.369.433.87.892.23.159.189.256.23.431-.149.881-.365-.066-.378 2.211-.515-.082-.689-.178h-.005l-1.992-.344-2.429-.42-2.745-.464.762-4.205 3.245.564.199-1.114 1.455.258.194-1.114z">
   <title id="t670">Oneida, ID</title>
  </path>
  <path id="FIPS_16077" d="m134.63 94.483-.577 3.163 1.781.316.811-1.018.383.414 1.104-.432.122.022.257.288.216.618.676 3.592-.045.276-.18.667-.469.824-.73-.131-.194 1.114-1.455-.258-.199 1.114-3.245-.564.581-3.326-1.708-.919-.383.045.32-1.749.14-1.104.617-3.349z">
   <title id="t671">Power, ID</title>
  </path>
  <path id="FIPS_16005" d="m143.17 97.151-.762.892-.027.05-.189.446-.288 1.434-.023.364.014.14.175.731.077.054.112-.009.177-.091.049-.072.077-.045.82.139.252 1.182.018.193.018 1.691-.004.571-.063.371-.185-.027-.36 2.037-.821-.141-.401-.32-.865-.273-.23-.159-.87-.892-.369-.433v-.932l-.794-.839.469-.824.18-.667.045-.276-.676-3.592-.216-.618-.257-.288-.122-.022-1.104.432-.383-.414v-.086l.023-.063.144-.311.752-.266.108-.014z">
   <title id="t672">Bannock, ID</title>
  </path>
  <path id="FIPS_16041" d="m143.61 105.19 2.591.442-.099 1.279-.41.867-.189.458-.032.23.054 1.221.032.073.622 1.337-5.674-.918.378-2.211.365.066.149-.881-.23-.431-.189-.256.865.273.401.32.821.141.36-2.037z">
   <title id="t673">Franklin, ID</title>
  </path>
  <path id="FIPS_16007" d="m151.57 105.22-1.051 6.551-4.34-.676-.622-1.337-.032-.073-.054-1.221.032-.23.189-.458.41-.867.099-1.279-.031-1.727.018-.307.333-.216 3.376.537.117.265.005.086-.086.321-.068.179-.112.239.766.375z">
   <title id="t674">Bear Lake, ID</title>
  </path>
  <path id="FIPS_16029" d="m147.56 97.917 5.066.825-1.058 6.482-1.051.162-.766-.375.112-.239.068-.179.086-.321-.005-.086-.117-.265-3.376-.537-.333.216-.018.307.031 1.727-2.591-.442.063-.371.004-.571-.018-1.691-.018-.193-.252-1.182-.82-.139-.077.045-.049.072-.177.091-.112.009-.077-.054-.175-.731-.014-.14.023-.364.288-1.434.189-.446.027-.05.762-.892z">
   <title id="t675">Caribou, ID</title>
  </path>
  <path id="FIPS_16067" d="m128.32 92.143 2.772.523-.821 4.467-.549-.104-.424 2.294-.447-.045-.387.063-.149.086-.072.059-.69.892-.149.216-.13.113-.388.122-.063.014-.121-.019-2.002-.6.55-2.924 1.56.306.676-1z">
   <title id="t676">Minidoka, ID</title>
  </path>
  <path id="FIPS_16063" d="m120.21 90.598 2.023.382 6.085 1.163-.834 4.463-.676 1-2.641-.518-.843-.546-1.789-.545-.149-.221.067-.343-2.118-.418z">
   <title id="t677">Lincoln, ID</title>
  </path>
  <path id="FIPS_16019" d="m148.51 90.111 2.073.401 1.434.239.13.221.009.13.762.974.68.514-.369 2.366-.6 3.786-5.066-.825.392-2.294.181-1.045-1.988-1.443-2.461-1.185-3.84-.672.451-2.569z">
   <title id="t678">Bonneville, ID</title>
  </path>
  <path id="FIPS_16011" d="m140.29 88.709-.451 2.569 3.84.672 2.461 1.185 1.988 1.443-.181 1.045-.392 2.294-4.385-.766-5.499-.947-.108.014-.752.266-.144.311-.023.063v.086l-.811 1.018-1.781-.316.577-3.163.406-2.213.55.099.279-1.037.194-1.046 1.109.204 1.284-.97.203-1.05z">
   <title id="t679">Bingham, ID</title>
  </path>
  <path id="FIPS_16013" d="m118.65 80.52.437-.312.112-.058.343-.126.135-.023.546.108 1.04 1.069.758.847 1.041-.076 1.339.392.351.261 2.421 2.637.72.888.127.171.257.5.089.203.077.306.501-.153.189.005.239.112.045.081.356 1.145.068.528-.203.139-.185.983 2.515.473-.194 1.055 3.268.595-.406 2.213-2.177-.397-.617 3.349-.14 1.104-.32 1.749-.108.09-.055.005-.477-.262-.14-.198-.248-.41-.487-.149-.567-.041.424-2.294.549.104.821-4.467-2.772-.523-6.085-1.163.117-.585.018-1.055-.301-.171-1.384-3.692.045-.946.072-1.001-.009-.586-.023-.189-.027-.094-.067-.086-1.456-.424-.942-.658.37-.973">
   <title id="t680">Blaine, ID</title>
  </path>
  <path id="FIPS_16085" d="m111.17 63.519.008-.072.144-.28.194-.243 1.398-.189 11.434 2.339-.176.086-.122.126-.148.36-.14.694-.095.591-.31 1.186-.528 1.023-.523.644-1.415.829-.095.018-.387-.135-.293-.401-.28-.244-.153-.049-.441.207-1.646 1.402-.311.365-.008.356.022.217.05.238.216.072.054-.036.027.014.059.122.031.405-.162.73-.054.095-.203.325-.167.189-.288.266-.108.067-1.222.748-.501.167-.437.014-5.412-1.163-.339.797-.883.068.473-2.185.537.112.477-2.204-.045-.009v-1.172l.312-2.51.36-1.001.126-.279.433-.659.13.078h.081l.195-.231.505-1.221-.374-.667">
   <title id="t681">Valley, ID</title>
  </path>
  <path id="FIPS_16079" d="m117.17 28.224.252-1.424.04-.181.514-.437.361-.031.099.063.785.622.446.644.081.167.266.473 1.735 3.534.013.045.014.031.004.014v.049l-.004.722-.293.743-.248.564-.167 1.037v.009l.009.319 1.38 1.907.189.162.149.131.473.23.685.274.149.109.784 1.766.734 1.713.415.775.225.415-11.749-2.484.239-1.104 1.067-4.903z">
   <title id="t682">Shoshone, ID</title>
  </path>
  <path id="FIPS_16035" d="m114.51 40.185 11.749 2.484.172 1.303v.008l.04.109 1.299 1.735.126.036.058.018.387.005.487 1.221-5.611.099-3.849.072-.018.009-1.226 1.452-.27.527-.153.171-.185.163-.14-.019-.18-.058-1.32-.622-.05-.041-.23-.324-.158-.347-.861-.536-.212-.095-.004-.235-.023-.171-.09-.167-1.028-.572-.333-.433.09-.41-.203-.058-.536-.014.139-.802.199-.915.73.162.478-.41z">
   <title id="t683">Clearwater, ID</title>
  </path>
  <path id="FIPS_16049" d="m131.05 47.402.049.049.032.149-.054.284-.312.883-.527 1.213-.789 1.753-2.515 6.274-.315 1.726-.158.874-.009.045.027.032-.396.298-.893.558-.459-.243-.127-.126-.076-.144-.09-.095-.127-.018-.058.04-.073.145-.054.261-.063.46.005.049.325.46.464.626.392.834-.897 1.285-11.434-2.339-1.398.189-.194.243-.144.28-.008.072-1.425-.325.032-.126.062-.04.127-.298.013-.59-.09-.789-.045-.234-3.101-.676.306-.645 1.56-2.001.865-.884.217-.247.036-.163-.311-1.631-.059-.248v-.004l-.175-.222-.154-.198-.004-.004-.329-.144-.785-.722-.41-.378-.027-.05-.04-.076.099.031.365-.094.067-.055.176-.22.028-.131-.046-.122-.053-.076-.028-.185.009-.153.113-.208.072-.076.279-.217.163-.063.937-.306 1.794-1.691.032-.031.212-.036 1.663.91 1.6-.915-.546-1.631.212.095.861.536.158.347.23.324.05.041 1.32.622.18.058.14.019.185-.163.153-.171.27-.527 1.226-1.452.018-.009 3.849-.072 5.611-.099.018.014.96.202.203-.054.14-.054.23-.045.464.063.158.131z">
   <title id="t684">Idaho, ID</title>
  </path>
  <path id="FIPS_16037" d="m116.75 74.836.108-.067.288-.266.167-.189.203-.325.054-.095.162-.73-.031-.405-.059-.122-.027-.014-.054.036-.216-.072-.05-.238-.022-.217.008-.356.311-.365 1.646-1.402.441-.207.153.049.28.244.293.401.387.135.095-.018 1.415-.829-.225.757.013.167.072.207 1.479 1.925.266.315.054.018.816-.081.279-.185.699-.595.036-.049.211-.442.208-.514.27-.401.384-.302.924-.672.175.293-.049.456.022 1.095 2.538 3.718 1.289.816.955.514.117.045.32.09.055-.013.135-.1.144-.175.09-.068.117.023.041.063.063.166.464 1.33.126.393.032.549-.05.545-.874-.162-.785 2.141-.072.36-.157 1.501-.226 1.352-.955.965-1.546.509-.893.478-.396.419-.032.072-.077-.306-.089-.203-.257-.5-.127-.171-.72-.888-2.421-2.637-.351-.261-1.339-.392-1.041.076-.758-.847-1.04-1.069-.546-.108-.135.023-.343.126-.112.058-.437.312-.149-.185.261-.262.037-.107-.041-2.128-.041-.212-1.478-2.249z">
   <title id="t685">Custer, ID</title>
  </path>
  <path id="FIPS_16059" d="m132.13 60.062.185.194.874 1.235.05.162.103 1.023-.008.383-.117.212-.023.766.013 1.01 1.411 5.246 1.496 2.082.307-.076.32.252.383.428.172.266.197.618.262 1.122v.099l-.054.099-.036.027-.013 1.609.107.609.249.36.734.821.234.085.185-.103.09-.14.005-.032.054.262-.334 1.861-1.099-.193-.541-.149-2.957-.528.05-.545-.032-.549-.126-.393-.464-1.33-.063-.166-.041-.063-.117-.023-.09.068-.144.175-.135.1-.055.013-.32-.09-.117-.045-.955-.514-1.289-.816-2.538-3.718-.022-1.095.049-.456-.175-.293-.924.672-.384.302-.27.401-.208.514-.211.442-.036.049-.699.595-.279.185-.816.081-.054-.018-.266-.315-1.479-1.925-.072-.207-.013-.167.225-.757.523-.644.528-1.023.31-1.186.095-.591.14-.694.148-.36.122-.126.176-.086.897-1.285-.392-.834-.464-.626-.325-.46-.005-.049.063-.46.054-.261.073-.145.058-.04.127.018.09.095.076.144.127.126.459.243.893-.558.396-.298.397.054.356.09.113.05.662 1.046.081.315v.005l.37.058 1.767-.811 1.113-.974z">
   <title id="t686">Lemhi, ID</title>
  </path>
  <path id="FIPS_16023" d="m137.33 80.2-.591 3.33 2.727.496-.811 4.444-.203 1.05-1.284.97-1.109-.204-.194 1.046-.279 1.037-.55-.099-3.268-.595.194-1.055-2.515-.473.185-.983.203-.139-.068-.528-.356-1.145-.045-.081-.239-.112-.189-.005-.501.153.032-.072.396-.419.893-.478 1.546-.509.955-.965.226-1.352.157-1.501.072-.36.785-2.141.874.162z">
   <title id="t687">Butte, ID</title>
  </path>
  <path id="FIPS_16051" d="m139.47 84.026.199-1.099 4.912.865-.189 1.099 1.636.289-.09.554-.338 1.645-.099.559.103.095.199.014.032-.018 2.735 1.716-.063.366-8.212-1.402-1.636-.239z">
   <title id="t688">Jefferson, ID</title>
  </path>
  <path id="FIPS_16065" d="m145.94 85.734 1.276.217 1.203.779 1.253.208 1.474-.216.035-.009.036-.041-.635 3.84-2.073-.401.063-.366-2.735-1.716-.032.018-.199-.014-.103-.095.099-.559z">
   <title id="t689">Madison, ID</title>
  </path>
  <path id="FIPS_16081" d="m154.55 86.419-.96 6.171-.68-.514-.762-.974-.009-.13-.13-.221-1.434-.239.635-3.84z">
   <title id="t690">Teton, ID</title>
  </path>
 </g>
</svg>