<svg id="svg9559" width="555.22" height="351.67" xmlns="http://www.w3.org/2000/svg" viewBox="337.4150085449219 113.40899658203125 40.861968994140625 72.40200805664062">
 <g id="stylegroup" fill="#d0d0d0" stroke="#000" stroke-width=".1">
  <path id="FIPS_17183" d="m376 139.23.333 4.265.288 3.43-3.957.387-.429-4.471.131-.013-.229-2.249-.122-1.118 3.97-.415z">
   <title id="t691">Vermilion, IL</title>
  </path>
  <path id="FIPS_17075" d="m369.56 133 5.827-.668.599 6.716-3.97.415-1.776.126z">
   <title id="t692">Iroquois, IL</title>
  </path>
  <path id="FIPS_17003" d="m359.77 181.49 2.397-.172-.031 1.411-.032 1.311.095.203.081.096.249.112.663.279.481 1.081-1.961-.211-.681-.555-.36-.883-.626-1.172-.258-.369z">
   <title id="t693">Alexander, IL</title>
  </path>
  <path id="FIPS_17153" d="m362.16 181.32 2.073-.081 1.2.266.086.992-.055.018-2.279 2.217-.663-.279-.249-.112-.081-.096-.095-.203.032-1.311z">
   <title id="t694">Pulaski, IL</title>
  </path>
  <path id="FIPS_17127" d="m365.44 181.5 2.185-.612 2.416 2.126.1 1.203-.743-.079-3.872-1.646z">
   <title id="t695">Massac, IL</title>
  </path>
  <path id="FIPS_17069" d="m370.75 177.22 2.475.125.805.834v.208l-.193.22-.103.023-1.407.298-.212.045-.175.049-.064.019-.022.004-.244.148-.049.032-.009.004-.172.159-.256.341-.591-.193-.153-2.289z">
   <title id="t696">Hardin, IL</title>
  </path>
  <path id="FIPS_17151" d="m370.38 177.25.153 2.289-.063.027-.175.08-.072.055-.091.064-.131.17-.053.127-.289 1.27v.005l-.006.086.087.279.428.514.136.077.126.121.288.64-.149.716-.121.334-.235.104-.076.013-.1-1.203-2.416-2.126-.238-3.399z">
   <title id="t697">Pope, IL</title>
  </path>
  <path id="FIPS_17087" d="m367.38 177.49.238 3.399-2.185.612-1.2-.266-.22-3.457z">
   <title id="t698">Johnson, IL</title>
  </path>
  <path id="FIPS_17181" d="m364.02 177.78.22 3.457-2.073.081-2.397.172.369-.099.117-.06.009-.013.01-.009.008-.013.041-.122.04-.397.005-.017-.005-.014-.058-.217-.005-.021-.004-.01-.162-.365-.126-.158-.267-.262-.189-.283-.288-.537-.004-.003-.064-.258-.009-.117v-.077l3.696-.627z">
   <title id="t699">Union, IL</title>
  </path>
  <path id="FIPS_17059" d="m373.54 173.2.509 1.141-.131.491-.049.131-.076.139-.122.132-.469.341-.008.005-.163.307-.082.139-.013.028-.054.144-.014.09.005.014.053.292.006.014.216.586.082.148-2.475-.125-.311-3.994v-.009z">
   <title id="t700">Gallatin, IL</title>
  </path>
  <path id="FIPS_17165" d="m370.44 173.23.311 3.994-.37.027-2.997.243-.248-3.426-.04-.563z">
   <title id="t701">Saline, IL</title>
  </path>
  <path id="FIPS_17199" d="m367.14 174.06.248 3.426-3.367.288-1.136.031-.221-3.394z">
   <title id="t702">Williamson, IL</title>
  </path>
  <path id="FIPS_17077" d="m358.1 173.52 4.205-.23.351 1.126.221 3.394-3.696.627-1.748-2.894z">
   <title id="t703">Jackson, IL</title>
  </path>
  <path id="FIPS_17133" d="m350.93 166.62 1.252 1.14 2.357 1.923.276.591-1.376.06.073 1.136-1.651.712-.512-.383-.848-.825-.026-.028-.032-.045-.185-.253-.117-.289-.135-.58-.019-.541.009-.131.019-.054.147-.5.045-.09.028-.036z">
   <title id="t704">Monroe, IL</title>
  </path>
  <path id="FIPS_17157" d="m357.89 170.09.211 3.425-.667 2.023-2.723-.756-2.854-2.605 1.651-.712-.073-1.136 1.376-.06 1.969-.107z">
   <title id="t705">Randolph, IL</title>
  </path>
  <path id="FIPS_17145" d="m357.89 170.09 4.474-.231.268 1.127-.326 2.299-4.205.23z">
   <title id="t706">Perry, IL</title>
  </path>
  <path id="FIPS_17055" d="m366.9 170.67.239 3.398-4.476.351-.351-1.126.326-2.299z">
   <title id="t707">Franklin, IL</title>
  </path>
  <path id="FIPS_17065" d="m370.12 168.72.321 4.498v.009l-3.344.275-.199-2.835-.109-1.704z">
   <title id="t708">Hamilton, IL</title>
  </path>
  <path id="FIPS_17193" d="m373.92 168.34.374.419-.058 1.352-.144 2.987-.027.055-.006.009-.022.015-.017.003-.483.018-3.096.014-.321-4.498 2.2-.189z">
   <title id="t709">White, IL</title>
  </path>
  <path id="FIPS_17081" d="m366.6 166.13.184 2.83.109 1.704-4.262.324-.268-1.127-.212-3.389z">
   <title id="t710">Jefferson, IL</title>
  </path>
  <path id="FIPS_17189" d="m362.13 166.1.022.378.212 3.389-4.474.231-1.11.072-.18-2.583.342-.343.514-.428.406-.153 3.001-.519z">
   <title id="t711">Washington, IL</title>
  </path>
  <path id="FIPS_17027" d="m360.81 163.08 1.158-.008.167 3.029-1.267.044-3.001.519-.406.153-.514.428-.342.343-.23-3.069 1.014-1.217z">
   <title id="t712">Clinton, IL</title>
  </path>
  <path id="FIPS_17163" d="m351.64 164.75 4.738-.234.23 3.069.18 2.583-1.969.107-.276-.591-2.357-1.923-1.252-1.14.045-.159z">
   <title id="t713">St. Clair, IL</title>
  </path>
  <path id="FIPS_17119" d="m356.75 160.01.095 1.045.158.563.315.789.072.893-1.014 1.217-4.738.234-.206-1.038.726-.886.022-.122.036-.298-.009-.076-.041-.072-.978-.591-.19-.112-.252-.121-.257-.078 1.231-1.037 4.444-.269z">
   <title id="t714">Madison, IL</title>
  </path>
  <path id="FIPS_17005" d="m360.58 159.37.226 3.708-3.421.222-.072-.893-.315-.789-.158-.563-.095-1.045z">
   <title id="t715">Bond, IL</title>
  </path>
  <path id="FIPS_17121" d="m361.97 163.07-.077-1.14 1.376-.086 3.028-.266.19 2.853.121 1.704-4.449.342-.022-.378z">
   <title id="t716">Marion, IL</title>
  </path>
  <path id="FIPS_17191" d="m370.92 164.16 1.095.312.302 4.056-2.2.189-3.331.243-.184-2.83-.121-1.704z">
   <title id="t717">Wayne, IL</title>
  </path>
  <path id="FIPS_17185" d="m374.36 164.25 2.606-.195-.717 2.064-1.942 2.579-.014.063-.374-.419.018-4.056z">
   <title id="t718">Wabash, IL</title>
  </path>
  <path id="FIPS_17047" d="m373.94 164.29-.018 4.056-1.6.185-.302-4.056z">
   <title id="t719">Edwards, IL</title>
  </path>
  <path id="FIPS_17101" d="m377.83 160.27.041.005.022.036.384.825-.004.315-.141.82-.099.181-.08.067-.789 1.009-.194.528-2.606.195-.266-3.629z">
   <title id="t720">Lawrence, IL</title>
  </path>
  <path id="FIPS_17159" d="m374.09 160.62.266 3.629-.423.036-1.92.185-1.095-.312-.406-1.132-.028-.193-.003-.365.262-.009-.137-1.51 3.11-.293z">
   <title id="t721">Richland, IL</title>
  </path>
  <path id="FIPS_17025" d="m366.22 160.43 3.304-.212.066.834 1.019-.095.137 1.51-.262.009.003.365.028.193.406 1.132-4.439.266-.19-2.853z">
   <title id="t722">Clay, IL</title>
  </path>
  <path id="FIPS_17079" d="m372.75 156.52.568-.062.405 4.204-4.129.389-.332-4.206z">
   <title id="t723">Jasper, IL</title>
  </path>
  <path id="FIPS_17033" d="m373.32 156.46 3.2-.046.203.693.469.551.716 1.279-.027.411-.072.204-.059.081.081.643-3.732.352-.374.036z">
   <title id="t724">Crawford, IL</title>
  </path>
  <path id="FIPS_17023" d="m372.88 152.5 2.668-.311.006.139 1.55-.144-.46 2.885-.131 1.343-3.2.046-.568.062-.266-2.65z">
   <title id="t725">Clark, IL</title>
  </path>
  <path id="FIPS_17035" d="m372.48 153.87.266 2.65-4.576.425-.211-2.646z">
   <title id="t726">Cumberland, IL</title>
  </path>
  <path id="FIPS_17049" d="m368.12 156.36.048.579 1.089-.101.266 3.371-3.304.212-1.122.122-.284-3.949">
   <title id="t727">Effingham, IL</title>
  </path>
  <path id="FIPS_17051" d="m364.82 156.6.284 3.949 1.122-.122.072 1.149-3.028.266-1.376.086.077 1.14-1.158.008-.226-3.708.919-2.542z">
   <title id="t728">Fayette, IL</title>
  </path>
  <path id="FIPS_17173" d="m362.21 151.09 2.114-.144.09.943 2.33 1.338.473.175.668-.049.071.947.162 2.068-3.307.234-3.314.226-.121-1.699 1.132-.046-.153-2.293z">
   <title id="t729">Shelby, IL</title>
  </path>
  <path id="FIPS_17135" d="m355.68 153.25 1.653-.132.187 2.281 2.758-.189 1.103-.085.121 1.699-.919 2.542-3.835.64-.586.041z">
   <title id="t730">Montgomery, IL</title>
  </path>
  <path id="FIPS_17083" d="m351.49 156.92.23 3.397-1.231 1.037-1.775-.432-1.626-1.857.174-.888.437-.104.276.049.057.051.006.027.17.098 1.709-.134-.046-.663 1.155-.551z">
   <title id="t731">Jersey, IL</title>
  </path>
  <path id="FIPS_17117" d="m353.46 153.41 2.214-.157.482 6.797-4.444.269-.23-3.397-.266-3.345z">
   <title id="t732">Macoupin, IL</title>
  </path>
  <path id="FIPS_17013" d="m343.44 155.59 3.334-.135.308 3.606 1.626 1.857-2.113.558-.536-1.437v-.005l-.025-.09.01-.041.271-.419.008-.162-.464-1.582z">
   <title id="t733">Calhoun, IL</title>
  </path>
  <path id="FIPS_17061" d="m351.22 153.58.266 3.345-.464.03-1.155.551.046.663-1.709.134-.17-.098-.006-.027-.057-.051-.276-.049-.437.104-.174.888-.308-3.606.23-1.654 2.754-.14z">
   <title id="t734">Greene, IL</title>
  </path>
  <path id="FIPS_17021" d="m360.18 149.16.758.107.161 1.884 1.114-.067.145 1.7.153 2.293-1.132.046-1.103.085-2.758.189-.187-2.281-.116-1.509 1.275-1.406 1.321-1.041z">
   <title id="t735">Christian, IL</title>
  </path>
  <path id="FIPS_17029" d="m367.66 150.7 4.017-.338-.031-.374.364-.077.581-.065.289 2.648-.401 1.37-4.521.429-.071-.947z">
   <title id="t736">Coles, IL</title>
  </path>
  <path id="FIPS_17045" d="m372.67 147.32 3.957-.387.329 3.569.154 1.685-1.55.144-.006-.139-2.668.311-.289-2.648-.094-.944.243-.456z">
   <title id="t737">Edgar, IL</title>
  </path>
  <path id="FIPS_17041" d="m367.52 147.75 5.143-.432.076 1.135-.243.456.094.944-.581.065-.364.077.031.374-4.017.338-.157-1.816z">
   <title id="t738">Douglas, IL</title>
  </path>
  <path id="FIPS_17139" d="m367.5 148.89.157 1.816.227 2.646-.668.049-.473-.175-2.33-1.338-.09-.943.504-1.847z">
   <title id="t739">Moultrie, IL</title>
  </path>
  <path id="FIPS_17115" d="m364.58 145.69.257 3.408-.504 1.847-2.114.144-1.114.067-.161-1.884-.758-.107-.099-1.348.595-1.758 1.132-.094 2.194-.236z">
   <title id="t740">Macon, IL</title>
  </path>
  <path id="FIPS_17167" d="m356.49 147.3.929-.072.041.563.784.144 1.834-.117.099 1.348h-.369l-1.321 1.041-1.275 1.406.116 1.509-1.653.132-2.214.157-.009-.378-.067-.279-.662-1.849-.145-.865-.076-1.136-.027-.379 2.209-.144.648-.251-.022-.262.008-.478z">
   <title id="t741">Sangamon, IL</title>
  </path>
  <path id="FIPS_17137" d="m346.72 149.2 5.787-.298.076 1.136.145.865.662 1.849.067.279.009.378-2.244.167-1.46.09-.076-1.51-.784-1.478-1.127-.397-1.14.055.229-.658z">
   <title id="t742">Morgan, IL</title>
  </path>
  <path id="FIPS_17171" d="m349.76 153.66-2.754.14.072-.23-.004-.049-.077-.261-.346-.969-.176-1.371.158-.59 1.14-.055 1.127.397.784 1.478z">
   <title id="t743">Scott, IL</title>
  </path>
  <path id="FIPS_17149" d="m346.86 149.68-.229.658-.158.59.176 1.371.346.969.077.261.004.049-.072.23-.23 1.654-3.334.135-2.375-2.466-1.39-1.058-.585-.929 1.618-.058 2.825-.149-.063-1.14z">
   <title id="t744">Pike, IL</title>
  </path>
  <path id="FIPS_17009" d="m343.32 146.42 1.15-.076.982-.032.74.979.225.436.905-.009-.603 1.479.144.478-3.39.117z">
   <title id="t745">Brown, IL</title>
  </path>
  <path id="FIPS_17001" d="m343.28 145.27.044 1.15.153 3.372.063 1.14-2.825.149-1.618.058-.983-2.383-.69-3.286z">
   <title id="t746">Adams, IL</title>
  </path>
  <path id="FIPS_17067" d="m340.3 139.64 2.736-.159.19 4.607.045 1.184-5.856.2.06-.631.72-1.717.298-.105.014-.008.103-.086.023-.113.004-.008.026-1.16-.008-.13-.054-.157-.162-.235-.199-.094-.032-.108.015-.096.41-.63.036-.041.036-.035.03-.033.086-.054.244-.139.058-.033.014-.009.51-.179h.004l.077-.004.257-.019z">
   <title id="t747">Hancock, IL</title>
  </path>
  <path id="FIPS_17109" d="m344.16 139.46 3.343-.086.222 4.561-4.493.149-.19-4.607z">
   <title id="t748">McDonough, IL</title>
  </path>
  <path id="FIPS_17169" d="m343.23 144.09 4.493-.149 2.519 1.054-1.474.866-1.447 1.861-.905.009-.225-.436-.74-.979-.982.032-1.15.076z">
   <title id="t749">Schuyler, IL</title>
  </path>
  <path id="FIPS_17017" d="m348.77 145.86.735.852.874-.014.018-.009.974-.397.898-.369.04-.072.171 2.672.027.379-5.787.298.603-1.479z">
   <title id="t750">Cass, IL</title>
  </path>
  <path id="FIPS_17129" d="m352.31 145.85.432-.342 2.704-.536.351.062.348.379.351 1.884-1.172.09-.008.478.022.262-.648.251-2.209.144z">
   <title id="t751">Menard, IL</title>
  </path>
  <path id="FIPS_17125" d="m352.72 141.56 2.018-.126.122 1.509 1.09-.086.19 2.561-.348-.379-.351-.062-2.704.536-.432.342-.04.072-.898.369-.974.397-.018.009-.874.014-.735-.852 1.474-.866.672-.603.063-.082.456-.851.121-.734.054-.204.059-.105.914-.774z">
   <title id="t752">Mason, IL</title>
  </path>
  <path id="FIPS_17107" d="m359.26 142.56 1.157.478.262 3.019-.595 1.758-1.834.117-.784-.144-.041-.563-.929.072-.351-1.884-.19-2.561z">
   <title id="t753">Logan, IL</title>
  </path>
  <path id="FIPS_17039" d="m366.02 142.62-1.44 3.065-.572.039-2.194.236-1.132.094-.262-3.019z">
   <title id="t754">De Witt, IL</title>
  </path>
  <path id="FIPS_17147" d="m366.02 142.62 1.121-.09.387 5.214-.018 1.141-2.673.208-.257-3.408z">
   <title id="t755">Piatt, IL</title>
  </path>
  <path id="FIPS_17019" d="m367.01 141.01 5.129-.432.229 2.249-.131.013.429 4.471-5.143.432-.387-5.214z">
   <title id="t756">Champaign, IL</title>
  </path>
  <path id="FIPS_17053" d="m368.45 133.13 1.11-.131.68 6.589 1.776-.126.122 1.118-5.129.432-.216-2.831 2.176-.184z">
   <title id="t757">Ford, IL</title>
  </path>
  <path id="FIPS_17113" d="m362.1 136.77 3.341-.31.103 1.127.135.693 1.114-.099.216 2.831.126 1.519-1.121.09-5.6.415-1.157-.478-.302-3.484 1.313-.127.841-.464.541-.527z">
   <title id="t758">McLean, IL</title>
  </path>
  <path id="FIPS_17179" d="m356.04 137.28 2.181-.158.054.758.095.965.582.234.302 3.484-3.305.292-1.09.086-.122-1.509-2.018.126.44-1.033 2.007-1.284.914-1.38.068-.229-.053-.239z">
   <title id="t759">Tazewell, IL</title>
  </path>
  <path id="FIPS_17203" d="m360.8 134.62 1.117-.108.189 2.257-.45 1.186-.541.527-.841.464-1.313.127-.582-.234-.095-.965-.054-.758-2.181.158.649-2.303z">
   <title id="t760">Woodford, IL</title>
  </path>
  <path id="FIPS_17143" d="m355.04 134.4 1.654.572-.649 2.303.055.113.053.239-.068.229-.914 1.38-2.007 1.284-.049-.869-.053-.573-1.123.055-.041-1.123-.211-3.403z">
   <title id="t761">Peoria, IL</title>
  </path>
  <path id="FIPS_17057" d="m351.9 138.01.041 1.123 1.123-.055.053.573.049.869-.44 1.033-.141.085-.914.774-.059.105-.054.204-.121.734-.456.851-.063.082-.672.603-2.519-1.054-.222-4.561-.054-1.127z">
   <title id="t762">Fulton, IL</title>
  </path>
  <path id="FIPS_17187" d="m343.89 133.85 3.344-.131.269 5.661-3.343.086z">
   <title id="t763">Warren, IL</title>
  </path>
  <path id="FIPS_17071" d="m342.31 133.91 1.578-.063.27 5.616-1.118.017-2.736.159.677-.794.067-1.46.036-.167.753-1.074.104-.102.279-.158.054-.081.082-.383.039-1.05-.049-.348z">
   <title id="t764">Henderson, IL</title>
  </path>
  <path id="FIPS_17131" d="m340.87 130.57 6.217-.261.148 3.412-3.344.131-1.578.063-.009-.032.009-.311-.454-.744-.082-.085-.078-.036-.129.018-.308-.153-.653-.785-.004-.009-.01-.107z">
   <title id="t765">Mercer, IL</title>
  </path>
  <path id="FIPS_17095" d="m351.55 132.34.136 2.266.211 3.403-4.449.239-.215-4.534-.05-1.131z">
   <title id="t766">Knox, IL</title>
  </path>
  <path id="FIPS_17175" d="m352.7 131.17 2.181.974.154 2.262-3.353.207-.136-2.266z">
   <title id="t767">Stark, IL</title>
  </path>
  <path id="FIPS_17123" d="m354.88 132.14 1.665-.113 1.318-.086-.017.316-.019.086-.057.08-.095.051-.054.062 1.894-.141 1.275 2.228-4.102.351-1.654-.572z">
   <title id="t768">Marshall, IL</title>
  </path>
  <path id="FIPS_17155" d="m359.31 129.73.208 2.668-1.894.141.054-.062.095-.051.057-.08.019-.086.017-.316-1.318.086-.083-1.109 1.303-.983.523-.288.117-.013z">
   <title id="t769">Putnam, IL</title>
  </path>
  <path id="FIPS_17105" d="m365.07 131.93 3.217-.334.166 1.538.519 4.867-2.176.184-1.114.099-.135-.693-.103-1.127-3.341.31-.189-2.257-.167-2.309z">
   <title id="t770">Livingston, IL</title>
  </path>
  <path id="FIPS_17091" d="m375.2 130.32.185 2.015-5.827.668-1.11.131-.166-1.538-.023-1.14 1.673-.186.487-.748-.046-.427 4.674-.483z">
   <title id="t771">Kankakee, IL</title>
  </path>
  <path id="FIPS_17063" d="m367.91 127.08.351 3.376.023 1.14-3.217.334-.448-4.512z">
   <title id="t772">Grundy, IL</title>
  </path>
  <path id="FIPS_17197" d="m367.54 123.7 2.263.32.063.569 2.457 2.028 2.536-.225.19 2.221-4.674.483.046.427-.487.748-1.673.186-.351-3.376z">
   <title id="t773">Will, IL</title>
  </path>
  <path id="FIPS_17093" d="m367.54 123.7h.004l.37 3.381-3.291.338-.238-2.254-.085-1.14z">
   <title id="t774">Kendall, IL</title>
  </path>
  <path id="FIPS_17099" d="m361.17 125.45 3.213-.289.238 2.254.448 4.512-3.323.278.167 2.309-1.117.108-1.275-2.228-.208-2.668-.328-4.123 1.102-.054z">
   <title id="t775">LaSalle, IL</title>
  </path>
  <path id="FIPS_17011" d="m359.03 126.17.285 3.559-.902-.093-.117.013-.523.288-1.303.983.083 1.109-1.665.113-2.181-.974-.338-4.526 2.208-.162z">
   <title id="t776">Bureau, IL</title>
  </path>
  <path id="FIPS_17073" d="m352.37 126.64.338 4.526-1.154 1.177-4.367.243-.098-2.281-.078-1.68.613-.637.113-.086.17-.076.456-.108.356-.058.496-.262.086-.195.041-.225-.015-.08-.054-.073z">
   <title id="t777">Henry, IL</title>
  </path>
  <path id="FIPS_17161" d="m348.57 124.27-.036.248.009.236.108.517.144.293.186.171.188.068.159.099.126.136.022.175.005.158-.027.293-.023.041-.163.116.054.073.015.08-.041.225-.086.195-.496.262-.356.058-.456.108-.17.076-.113.086-.613.637.078 1.68-6.217.261v-.004l.114-.442.134-.551.009-.025.068-.096v-.004l.009-.005.103-.067.362-.131 1.352-.369.59-.005.139.018.329-.009.776-.198 1.821-.902.572-.667.5-.672.149-1.405z">
   <title id="t778">Rock Island, IL</title>
  </path>
  <path id="FIPS_17103" d="m354.32 122.38.639-.049 1.925-.141.014.19 3.993-.338.28 3.412-1.083.099-1.102.054.043.564-4.453.31z">
   <title id="t779">Lee, IL</title>
  </path>
  <path id="FIPS_17195" d="m353.75 122.04.568.338.256 4.101-2.208.162-3.097.185.163-.116.023-.041.027-.293-.005-.158-.022-.175-.126-.136-.159-.099-.188-.068-.186-.171-.144-.293-.108-.517-.009-.236.036-.248.744-1.928z">
   <title id="t780">Whiteside, IL</title>
  </path>
  <path id="FIPS_17015" d="m353.5 118.56.249 3.476-4.435.307-.104-1.349-1.667-1.986 3.768-.267z">
   <title id="t781">Carroll, IL</title>
  </path>
  <path id="FIPS_17141" d="m356.27 118.34 2.119-.176.049.697 2.212-.189.235 3.372-3.993.338-.014-.19-1.925.141-.639.049-.568-.338-.249-3.476z">
   <title id="t782">Ogle, IL</title>
  </path>
  <path id="FIPS_17037" d="m363.99 118.4.311 5.625.085 1.14-3.213.289-.28-3.412-.235-3.372 2.223-.184z">
   <title id="t783">DeKalb, IL</title>
  </path>
  <path id="FIPS_17089" d="m367.31 118.13-.059 2.19.284 3.38-3.24.325-.311-5.625z">
   <title id="t784">Kane, IL</title>
  </path>
  <path id="FIPS_17043" d="m367.54 123.7-.284-3.38 2.199-.265.951-.095.14.455.325 3.109-1.064.496-2.263-.32z">
   <title id="t785">DuPage, IL</title>
  </path>
  <path id="FIPS_17031" d="m367.68 118.1 4.174-.333.951 1.28.518 1.451.113.393.099.423.095.301.036.081.068.149.279.506.586.959.26 3.084-2.536.225-2.457-2.028-.063-.569 1.064-.496-.325-3.109-.14-.455-.951.095-2.199.265.059-2.19z">
   <title id="t786">Cook, IL</title>
  </path>
  <path id="FIPS_17097" d="m367.31 113.67 3.778-.261h.004l.045.256.027 1.131-.086.267-.036.045-.063.409v.38l.09.401.199.477.143.298.447.685-4.174.333z">
   <title id="t787">Lake, IL</title>
  </path>
  <path id="FIPS_17111" d="m366.32 113.77.983-.099.374 4.421-.369.032-3.326.27-1.109.086-.356-4.394z">
   <title id="t788">McHenry, IL</title>
  </path>
  <path id="FIPS_17007" d="m361.87 114.13.654-.045.356 4.394-2.223.184-.337-4.43z">
   <title id="t789">Boone, IL</title>
  </path>
  <path id="FIPS_17201" d="m360.32 114.24.337 4.43-2.212.189-.049-.697-2.119.176-.321-3.856.338-.021z">
   <title id="t790">Winnebago, IL</title>
  </path>
  <path id="FIPS_17177" d="m351.83 114.69 4.123-.213.321 3.856-2.773.228-2.189.181-.325-4.003z">
   <title id="t791">Stephenson, IL</title>
  </path>
  <path id="FIPS_17085" d="m350.99 114.74.325 4.003-3.768.267-.397-.127-.175-.113-.163-.131-.009-.008-.271-.338-.007-.014-.132-.297v-.082l.054-.121.054-.365-.005-.049-.027-.042-.567-.657-.024-.023-.004-.004-.81-.564-.637-.329-.22-.158-.077-.08-.022-.065-.009-.072.004-.03.132-.226 2.027-.1z">
   <title id="t792">Jo Daviess, IL</title>
  </path>
 </g>
</svg>