<svg id="svg9559" width="555.22" height="351.67" xmlns="http://www.w3.org/2000/svg" viewBox="373.5389709472656 119.97000122070312 31.46502685546875 54.37300109863281">
 <g id="stylegroup" fill="#d0d0d0" stroke="#000" stroke-width=".1">
  <path id="FIPS_18127" d="m380.24 122.75.615 6.121-.082.108-.276.154-.085-.024-.744-.472-.522-.181-.194-.049-.108.022-.545.316-.226.324-.492-4.935z">
   <title id="t793">Porter, IN</title>
  </path>
  <path id="FIPS_18089" d="m374.6 123.3 2.978.83.492 4.935-.519.352-2.348.896-.153-1.708z">
   <title id="t794">Lake, IN</title>
  </path>
  <path id="FIPS_18123" d="m387.04 167.1 1.09-.153 1.177.662.163 1.426-.199.679-.059.008-.207.038-.054.031-.041.058-.017.141.076.77-.658 1.5-.28.217-.134.045-.077-.005-1.793-1.86-.033-2.7-.062-.568 1.136-.095z">
   <title id="t795">Perry, IN</title>
  </path>
  <path id="FIPS_18147" d="m385.99 167.96.033 2.7-1.569 1.04-.627.587-.753 1.36-1.473-.982-.049-.622.017-.049 1.708-2.579.451-1.216z">
   <title id="t796">Spencer, IN</title>
  </path>
  <path id="FIPS_18173" d="m380.68 167.93 2.457-.055.59.325-.451 1.216-1.708 2.579-.017.049.049.622-.361-.252-1.546-.415-.099-1.217-.235.023-.089-1.127-.005-.568-.032-.464 1.498-.144z">
   <title id="t797">Warrick, IN</title>
  </path>
  <path id="FIPS_18163" d="m377.05 169.27 2.218-.157.005.568.089 1.127.235-.023.099 1.217-2.465.744z">
   <title id="t798">Vanderburgh, IN</title>
  </path>
  <path id="FIPS_18129" d="m374.31 168.7 2.744.567.181 3.476-2.286.181-.901 1.419-.509-1.141.483-.018.017-.003.022-.015.006-.009.027-.055.144-2.987.058-1.352z">
   <title id="t799">Posey, IN</title>
  </path>
  <path id="FIPS_18051" d="m376.25 166.12 2.637-1.779.077.878.22.365.591.713.14-.05.531-.09.085.036.205 2.308-1.498.144.032.464-2.218.157-2.744-.567z">
   <title id="t800">Gibson, IN</title>
  </path>
  <path id="FIPS_18125" d="m381.08 163.99 1.727.234.338 3.651-2.457.055-.154-1.736-.085-.036-.531.09-.14.05-.591-.713-.22-.365-.077-.878.365-.131.663-.104.067.019.546.368.129-.035.172-.153.131-.131z">
   <title id="t801">Pike, IN</title>
  </path>
  <path id="FIPS_18037" d="m386.68 163.7.176 1.698.185 1.705.028.194-1.136.095.062.568-2.262.239-.59-.325-.338-3.651 1.491-.008z">
   <title id="t802">Dubois, IN</title>
  </path>
  <path id="FIPS_18025" d="m390.54 164.66.536-.051.226 3.801-2.033 1.306.199-.679-.163-1.426-1.177-.662-1.09.153-.185-1.705 2.29-.251 1.433-.112z">
   <title id="t803">Crawford, IN</title>
  </path>
  <path id="FIPS_18061" d="m393.3 164.44.122 1.127.221.356h.032l.41.302.207.171.645.907.013.099-.248 2.267-.487.166-.301.099-1.456-.072-.072-.009-.438-.172-.455-.301-.049-.031-.023-.036-.059-.09-.072-.252-.009-.023-.004-.059-.004-.09v-.023l.031-.364-.226-3.801z">
   <title id="t804">Harrison, IN</title>
  </path>
  <path id="FIPS_18043" d="m393.68 164.4.01.094.288.067 1.582-.179.55.649-.221.829-.938 1.546-.013-.099-.645-.907-.207-.171-.41-.302h-.032l-.221-.356-.122-1.127z">
   <title id="t805">Floyd, IN</title>
  </path>
  <path id="FIPS_18019" d="m397.64 161.51 1.452.097.031.813-1.839 2.082-1.401 1.352.221-.829-.55-.649-1.582.179-.288-.067-.01-.094-.081-.911.437-.221.622-.084.167-.213.144-.393-.023-.179z">
   <title id="t806">Clark, IN</title>
  </path>
  <path id="FIPS_18115" d="m401.49 156.61 2.39-1.356.995 1.586-3.388.013z">
   <title id="t807">Ohio, IN</title>
  </path>
  <path id="FIPS_18155" d="m401.48 156.85 3.388-.013.136.563-2.182 1.475-1.64 1.122-.347-2.866z">
   <title id="t808">Switzerland, IN</title>
  </path>
  <path id="FIPS_18077" d="m398.45 157.41 2.394-.278.347 2.866-1.393-.483-.698 2.095-1.452-.097-.113-.938-.387-.144-.298-.163-.323-.343-.222-.284-.081-.708.712-.193.315-.505.1-.305.18-.408z">
   <title id="t809">Jefferson, IN</title>
  </path>
  <path id="FIPS_18143" d="m396.22 158.93.081.708.222.284.323.343.298.163.387.144.113.938-2.7.883-.644-2.196.825-1.045z">
   <title id="t810">Scott, IN</title>
  </path>
  <path id="FIPS_18175" d="m390.42 160.22 3.88-.024.644 2.196.023.179-.144.393-.167.213-.622.084-.437.221.081.911-.379.044-2.222.171-.536.051-.351-3.431z">
   <title id="t811">Washington, IN</title>
  </path>
  <path id="FIPS_18117" d="m390.19 161.23.351 3.431.036.374-1.433.112-2.29.251-.176-1.698-.211-2.073z">
   <title id="t812">Orange, IN</title>
  </path>
  <path id="FIPS_18101" d="m384 159.02 2.195-.219.275 2.825.211 2.073-2.384.515z">
   <title id="t813">Martin, IN</title>
  </path>
  <path id="FIPS_18027" d="m382.07 159.21 1.929-.186.297 5.194-1.491.008-1.727-.234-.45-1.975.135-1.058.176-.348.843-1.171z">
   <title id="t814">Daviess, IN</title>
  </path>
  <path id="FIPS_18083" d="m380.65 159.29 1.415-.081-.288.23-.843 1.171-.176.348-.135 1.058.45 1.975-.117.185-.131.131-.172.153-.129.035-.546-.368-.067-.019-.663.104-.365.131-2.637 1.779.717-2.064.194-.528.789-1.009.08-.067.099-.181.141-.82.004-.315-.384-.825-.022-.036-.041-.005-.081-.643z">
   <title id="t815">Knox, IN</title>
  </path>
  <path id="FIPS_18153" d="m380.24 154.75.1 1.127.316 3.416-2.908.339.059-.081.072-.204.027-.411-.716-1.279-.469-.551-.203-.693.131-1.343z">
   <title id="t816">Sullivan, IN</title>
  </path>
  <path id="FIPS_18055" d="m382.18 155.75 3.678-.324.225 2.24.108 1.136-2.195.219-1.929.186-1.415.081-.316-3.416z">
   <title id="t817">Greene, IN</title>
  </path>
  <path id="FIPS_18093" d="m386.08 157.67 3.614-.343.722 2.899-.23 1.008-3.723.397-.275-2.825z">
   <title id="t818">Lawrence, IN</title>
  </path>
  <path id="FIPS_18071" d="m391.97 156.32 2.754-.526.401 3.366-.825 1.045-3.88.024-.722-2.899-.081-.748z">
   <title id="t819">Jackson, IN</title>
  </path>
  <path id="FIPS_18079" d="m398.09 153.76.355 3.655-.919.112-.18.408-.1.305-.315.505-.712.193-1.095.222-.401-3.366 1.022-.929z">
   <title id="t820">Jennings, IN</title>
  </path>
  <path id="FIPS_18137" d="m401.61 151.89-.126 4.714-.003.243-.645.281-2.394.278-.355-3.655 1.307-1.1z">
   <title id="t821">Ripley, IN</title>
  </path>
  <path id="FIPS_18029" d="m401.61 151.89 2.426-.257.297 2.579-.459 1.036-2.39 1.356z">
   <title id="t822">Dearborn, IN</title>
  </path>
  <path id="FIPS_18047" d="m403.75 148.83.288 2.804-2.426.257-2.216.761-.28-2.388-.113-.928 2.573-.307z">
   <title id="t823">Franklin, IN</title>
  </path>
  <path id="FIPS_18031" d="m395.86 150.64 3.263-.37.28 2.388-1.307 1.1-2.345 1.105-.288-2.835z">
   <title id="t824">Decatur, IN</title>
  </path>
  <path id="FIPS_18005" d="m395.46 152.02.288 2.835-1.022.929-2.754.526-.45-3.795 1.311-.175z">
   <title id="t825">Bartholomew, IN</title>
  </path>
  <path id="FIPS_18013" d="m389.88 152.72 1.637-.204.45 3.795-2.353.262-1.009-3.696z">
   <title id="t826">Brown, IN</title>
  </path>
  <path id="FIPS_18105" d="m386.14 153.02 2.465-.139 1.009 3.696.081.748-3.614.343-.225-2.24z">
   <title id="t827">Monroe, IN</title>
  </path>
  <path id="FIPS_18119" d="m382.94 151.7 2.492-.202.713 1.527-.284 2.408-3.678.324-.203-2.262 1.094-.095z">
   <title id="t828">Owen, IN</title>
  </path>
  <path id="FIPS_18021" d="m380.22 150.2 1.833-.145.88 1.636.134 1.7-1.094.095.203 2.262-1.844.122-.1-1.127-.296-3.39.378-.022z">
   <title id="t829">Clay, IN</title>
  </path>
  <path id="FIPS_18167" d="m380.22 150.2.094 1.131-.378.022.296 3.39-3.591.32.46-2.885-.154-1.685 1.47-.14z">
   <title id="t830">Vigo, IN</title>
  </path>
  <path id="FIPS_18165" d="m377.57 143.65.072 2.277.451.59.127.167.179.356-.085 2.307.104 1.006-1.47.14-.329-3.569-.288-3.43z">
   <title id="t831">Vermillion, IN</title>
  </path>
  <path id="FIPS_18121" d="m380.87 145.63.902 1.042.287 3.388-1.833.145-1.803.153-.104-1.006.085-2.307-.179-.356-.127-.167-.451-.59z">
   <title id="t832">Parke, IN</title>
  </path>
  <path id="FIPS_18133" d="m381.77 146.67 3.078-.276.081-.009.171 1.771.294 1.249.166.365-.131 1.722-2.492.202-.88-1.636z">
   <title id="t833">Putnam, IN</title>
  </path>
  <path id="FIPS_18109" d="m389.51 148.95.369 3.778-1.275.157-2.465.139-.713-1.527.131-1.722 1.88-.185-.041-.378 1.271-.153.095-.009z">
   <title id="t834">Morgan, IN</title>
  </path>
  <path id="FIPS_18081" d="m392.43 148.58.401 3.763-1.311.175-1.637.204-.369-3.778z">
   <title id="t835">Johnson, IN</title>
  </path>
  <path id="FIPS_18145" d="m392.35 147.82 3.119-.355.383 3.173-.397 1.388-2.627.32-.401-3.763z">
   <title id="t836">Shelby, IN</title>
  </path>
  <path id="FIPS_18139" d="m395.7 146.29 2.89-.334.527 4.314-3.263.37-.383-3.173z">
   <title id="t837">Rush, IN</title>
  </path>
  <path id="FIPS_18041" d="m398.59 145.95.784-.099.37-.04.094.942 1.474-.157.265 2.433-2.573.307z">
   <title id="t838">Fayette, IN</title>
  </path>
  <path id="FIPS_18161" d="m401.31 146.6 2.136-.407.235 2.056.068.585-2.174.199z">
   <title id="t839">Union, IN</title>
  </path>
  <path id="FIPS_18177" d="m403.06 142.59.117 1.141.274 2.46-2.136.407-1.474.157-.094-.942-.37.04-.127-2.812z">
   <title id="t840">Wayne, IN</title>
  </path>
  <path id="FIPS_18065" d="m395.49 142.52 3.53-.393.228.92.127 2.812-.784.099-2.89.334-.026-2.078z">
   <title id="t841">Henry, IN</title>
  </path>
  <path id="FIPS_18059" d="m395.68 144.21.026 2.078-.229 1.177-3.119.355-.18-2.987.712-.289z">
   <title id="t842">Hancock, IN</title>
  </path>
  <path id="FIPS_18097" d="m392.17 144.83.18 2.987.077.763-2.916.364-.748.1-.384-3.778.835-.107z">
   <title id="t843">Marion, IN</title>
  </path>
  <path id="FIPS_18063" d="m388.38 145.27.384 3.778-.095.009-1.271.153.041.378-1.88.185-.166-.365-.294-1.249-.171-1.771-.081.009-.072-.748z">
   <title id="t844">Hendricks, IN</title>
  </path>
  <path id="FIPS_18011" d="m388.86 141.87.357 3.295-.835.107-3.605.379-.334-3.308z">
   <title id="t845">Boone, IN</title>
  </path>
  <path id="FIPS_18057" d="m388.81 141.41 3.701-.427.374 3.56-.712.289-2.956.329-.357-3.295z">
   <title id="t846">Hamilton, IN</title>
  </path>
  <path id="FIPS_18135" d="m398.64 139.16 4.024-.509.398 3.944-3.81.451-.228-.92z">
   <title id="t847">Randolph, IN</title>
  </path>
  <path id="FIPS_18035" d="m398.52 138.22.117.932.384 2.966-3.53.393-.45-3.904 1.302-.139z">
   <title id="t848">Delaware, IN</title>
  </path>
  <path id="FIPS_18095" d="m395.04 138.61.45 3.904.185 1.694-2.79.334-.374-3.56-.226-2.061z">
   <title id="t849">Madison, IN</title>
  </path>
  <path id="FIPS_18159" d="m392.28 138.92.226 2.061-3.701.427-.216-2.042 3.655-.811z">
   <title id="t850">Tipton, IN</title>
  </path>
  <path id="FIPS_18023" d="m384.13 139.06 3.096-.306.645-.063.059.559.297.162.365-.041.216 2.042.05.456-4.417.473-.045-.464z">
   <title id="t851">Clinton, IN</title>
  </path>
  <path id="FIPS_18107" d="m384.4 141.88.045.464.334 3.308.072.748-3.078.276-.902-1.042-.334-3.389z">
   <title id="t852">Montgomery, IN</title>
  </path>
  <path id="FIPS_18045" d="m380.54 142.24.334 3.389-3.223.302-.072-2.277-.306-.329-.05-.121.009-.068.132-.251 1.554-1.632.239-.198 1.203-.776z">
   <title id="t853">Fountain, IN</title>
  </path>
  <path id="FIPS_18075" d="m402.27 135.26.319 2.836.067.548-4.024.509-.117-.932-.095-2.448 1.281-.162z">
   <title id="t854">Jay, IN</title>
  </path>
  <path id="FIPS_18009" d="m396.04 136.05 2.38-.276.095 2.448-2.177.248z">
   <title id="t855">Blackford, IN</title>
  </path>
  <path id="FIPS_18053" d="m394.07 135.14 1.833-.211.14 1.122.298 2.42-1.302.139-2.755.311-.036-.365-.239-2.05-.125-1.114z">
   <title id="t856">Grant, IN</title>
  </path>
  <path id="FIPS_18067" d="m389.1 136.85 2.911-.342.239 2.05-3.655.811-.365.041-.297-.162-.059-.559-.645.063-.153-1.672z">
   <title id="t857">Howard, IN</title>
  </path>
  <path id="FIPS_18015" d="m387.08 137.08.153 1.672-3.096.306-.198-1.672-.707.063-.122-1.076.049-1.068.037-.091.04-.053 1.609-.137.549-.049 1.519.406z">
   <title id="t858">Carroll, IN</title>
  </path>
  <path id="FIPS_18157" d="m380.08 137.74 3.143-.294.708-.063.197 1.672.266 2.818-3.863.365-.18-1.961-.149-1.411z">
   <title id="t859">Tippecanoe, IN</title>
  </path>
  <path id="FIPS_18171" d="m376 139.23 4.204-.365.149 1.411-1.203.776-.239.198-1.554 1.632-.132.251-.009.068.05.121.306.329-1.239-.156z">
   <title id="t860">Warren, IN</title>
  </path>
  <path id="FIPS_18007" d="m378.21 135.65 1.632-.152.365 3.37-4.204.365-.015-.184-.283-3.178z">
   <title id="t861">Benton, IN</title>
  </path>
  <path id="FIPS_18001" d="m401.73 130.75.304 2.506.236 2.01-2.569.351-.573-4.502z">
   <title id="t862">Adams, IN</title>
  </path>
  <path id="FIPS_18179" d="m396.61 131.41 2.52-.297.573 4.502-1.281.162-2.38.276-.14-1.122 1.105-.132z">
   <title id="t863">Wells, IN</title>
  </path>
  <path id="FIPS_18069" d="m393.52 130.64 2.965-.371.122 1.141.397 3.389-1.105.132-1.833.211z">
   <title id="t864">Huntington, IN</title>
  </path>
  <path id="FIPS_18169" d="m393.07 130.11.451.532.546 4.502-2.186.252-.727.086-.54-4.488-.054-.563z">
   <title id="t865">Wabash, IN</title>
  </path>
  <path id="FIPS_18103" d="m390.62 130.99.54 4.488.727-.086.125 1.114-2.911.342-.505-4.475z">
   <title id="t866">Miami, IN</title>
  </path>
  <path id="FIPS_18017" d="m385.71 132.67 2.885-.293.505 4.475-2.024.23-.167-1.699-1.519-.406-.549.049-.226-2.262z">
   <title id="t867">Cass, IN</title>
  </path>
  <path id="FIPS_18181" d="m384.61 132.76.226 2.262-1.609.137-.04.053-.037.091-.049 1.068.122 1.076-3.143.294-.243-2.244 1.406-2.43z">
   <title id="t868">White, IN</title>
  </path>
  <path id="FIPS_18003" d="m401.22 126.49.406 3.399.105.861-2.602.365-2.52.297-.122-1.141-.112-3.37 1.104-.127 3.713-.522z">
   <title id="t869">Allen, IN</title>
  </path>
  <path id="FIPS_18183" d="m393.03 126.87 1.109-.127.032.374 2.204-.22.112 3.37-2.965.371-.451-.532-.208-1.699.326-.037-.091-.973z">
   <title id="t870">Whitley, IN</title>
  </path>
  <path id="FIPS_18049" d="m385.38 129.28 3.741-.401 1.443 1.547.054.563-2.024 1.383-2.885.293z">
   <title id="t871">Fulton, IN</title>
  </path>
  <path id="FIPS_18131" d="m385.38 129.28.329 3.385-1.095.094-3.367.307-.319-3.358z">
   <title id="t872">Pulaski, IN</title>
  </path>
  <path id="FIPS_18033" d="m397.08 123.39 3.71-.478.162 1.343.243 1.997-3.713.522z">
   <title id="t873">DeKalb, IN</title>
  </path>
  <path id="FIPS_18113" d="m397.08 123.39.402 3.384-1.104.127-2.204.22-.032-.374-1.109.127-.215-1.835-.135-1.113z">
   <title id="t874">Noble, IN</title>
  </path>
  <path id="FIPS_18085" d="m388.94 125.46 3.876-.428.215 1.835.068.527.091.973-.326.037.208 1.699-2.51.321-1.443-1.547z">
   <title id="t875">Kosciusko, IN</title>
  </path>
  <path id="FIPS_18099" d="m388.94 125.46.179 3.417-3.741.401-.338-3.381-.057-.558 1.72-.203 2.174-.23z">
   <title id="t876">Marshall, IN</title>
  </path>
  <path id="FIPS_18149" d="m385.04 125.9.338 3.381-4.452.428-.076-.838 1.058-.577.284-.185.22-.347.168-.316.064-.171.197-.758.518-.446 1.126-.112z">
   <title id="t877">Starke, IN</title>
  </path>
  <path id="FIPS_18073" d="m380.85 128.87.076.838.319 3.358-1.406 2.43-1.632.152-.224-2.262-.054-.022-.028-.055-.352-3.889.519-.352.226-.324.545-.316.108-.022.194.049.522.181.744.472.085.024.276-.154z">
   <title id="t878">Jasper, IN</title>
  </path>
  <path id="FIPS_18111" d="m375.2 130.32 2.348-.896.352 3.889.028.055.054.022.224 2.262-2.505.221-.316-3.538z">
   <title id="t879">Newton, IN</title>
  </path>
  <path id="FIPS_18151" d="m400.24 119.97.279.801.266 2.137-3.71.478-.369-3.001z">
   <title id="t880">Steuben, IN</title>
  </path>
  <path id="FIPS_18087" d="m395.8 120.48.91-.098.369 3.001-4.397.536-.38-3.037z">
   <title id="t881">LaGrange, IN</title>
  </path>
  <path id="FIPS_18039" d="m392.3 120.89.38 3.037.135 1.113-3.876.428-.474-4.182 2.582-.262z">
   <title id="t882">Elkhart, IN</title>
  </path>
  <path id="FIPS_18141" d="m388.47 121.28.411 3.628-2.174.23-1.72.203.057.558-.555.059-.414-4.219 2.84-.293z">
   <title id="t883">St. Joseph, IN</title>
  </path>
  <path id="FIPS_18091" d="m381.21 122.02 2.866-.275.414 4.219-1.126.112-.518.446-.197.758-.064.171-.168.316-.22.347-.284.185-1.058.577-.615-6.121z">
   <title id="t884">LaPorte, IN</title>
  </path>
 </g>
</svg>