<svg id="svg9559" width="555.22" height="351.67" xmlns="http://www.w3.org/2000/svg" viewBox="231.7410125732422 147.17999267578125 75.87797546386719 40.95001220703125">
 <g id="stylegroup" fill="#d0d0d0" stroke="#000" stroke-width=".1">
  <path id="FIPS_20043" d="m299.97 149.09h.311l.005.121.063.091 1.19 1.077.482.31.243.09.189.072.036.013.045-.004.375-.036.073-.027.058-.054.008-.009.338-.383.825 1.037.081.383.077.356-.207.461-.208.036-.712.63-.04.046-.339.495-.117.167-2.744-.361z">
   <title id="t885">Doniphan, KS</title>
  </path>
  <path id="FIPS_20013" d="m295.57 149.11 4.399-.017.032 4.511-2.213.013-2.218.01z">
   <title id="t886">Brown, KS</title>
  </path>
  <path id="FIPS_20187" d="m232.36 176.57 5.202.347-.248 4.512-.316-.018-4.926-.312.216-3.308z">
   <title id="t887">Stanton, KS</title>
  </path>
  <path id="FIPS_20129" d="m232.07 181.1 4.926.312-.284 5.102-4.827-.266-.144-.009z">
   <title id="t888">Morton, KS</title>
  </path>
  <path id="FIPS_20189" d="m237 181.41.316.018 4.426.256.22.014-.256 5.062-4.99-.248z">
   <title id="t889">Stevens, KS</title>
  </path>
  <path id="FIPS_20067" d="m237.56 176.92 4.421.243-.243 4.525-4.426-.256z">
   <title id="t890">Grant, KS</title>
  </path>
  <path id="FIPS_20081" d="m246.41 177.39-.176 3.394-.054 1.136-4.219-.221-.22-.014.243-4.525z">
   <title id="t891">Haskell, KS</title>
  </path>
  <path id="FIPS_20175" d="m246.18 181.92-.049 5.039-3.187-.135-1.239-.063.256-5.062z">
   <title id="t892">Seward, KS</title>
  </path>
  <path id="FIPS_20119" d="m250.67 180.98 1.105.059-.086 6.146-5.557-.229.049-5.039.054-1.136z">
   <title id="t893">Meade, KS</title>
  </path>
  <path id="FIPS_20069" d="m250.81 175.28-.14 5.701-4.435-.199.176-3.394-.072-1.212.117-2.253 4.413.23z">
   <title id="t894">Gray, KS</title>
  </path>
  <path id="FIPS_20057" d="m250.81 175.28 6.635.287.018 2.318-.095 3.469-5.593-.314-1.105-.059z">
   <title id="t895">Ford, KS</title>
  </path>
  <path id="FIPS_20025" d="m257.37 181.36.085 1.132-.162 4.957-4.715-.216-.887-.041.086-6.146z">
   <title id="t896">Clark, KS</title>
  </path>
  <path id="FIPS_20033" d="m262.86 182.63-.049 5.003-4.652-.158-.87-.032.162-4.957z">
   <title id="t897">Comanche, KS</title>
  </path>
  <path id="FIPS_20097" d="m257.46 177.89 5.521.216-.095 3.411-.027 1.118-5.409-.144-.085-1.132z">
   <title id="t898">Kiowa, KS</title>
  </path>
  <path id="FIPS_20047" d="m257.53 173.3 2.204.077-.036 1.131 3.308.112.014 2.281-.04 1.199-5.521-.216-.018-2.318z">
   <title id="t899">Edwards, KS</title>
  </path>
  <path id="FIPS_20151" d="m268.49 177.07.045 1.195-.09 3.398-5.562-.149.095-3.411.04-1.199z">
   <title id="t900">Pratt, KS</title>
  </path>
  <path id="FIPS_20007" d="m262.89 181.51 5.562.149 1.14 1.163-.095 5.017-2.023-.064-4.66-.144.049-5.003z">
   <title id="t901">Barber, KS</title>
  </path>
  <path id="FIPS_20077" d="m269.59 182.83 5.521.091-.045 5.038-3.169-.059-2.402-.053z">
   <title id="t902">Harper, KS</title>
  </path>
  <path id="FIPS_20095" d="m268.54 178.26 6.648.134-.059 3.376-.018 1.142-5.521-.091-1.14-1.163z">
   <title id="t903">Kingman, KS</title>
  </path>
  <path id="FIPS_20155" d="m274.15 172.66 2.217.04-.063 3.39-1.113 2.306-6.648-.134-.045-1.195.112-4.525z">
   <title id="t904">Reno, KS</title>
  </path>
  <path id="FIPS_20079" d="m279.68 172.76 2.185 1.149-.017 2.271-5.553-.085.063-3.39z">
   <title id="t905">Harvey, KS</title>
  </path>
  <path id="FIPS_20173" d="m276.3 176.09 5.553.085-.077 5.684-6.648-.087.059-3.376z">
   <title id="t906">Sedgwick, KS</title>
  </path>
  <path id="FIPS_20191" d="m275.13 181.78 6.648.087-.018 6.193-3.218-.04-3.475-.06.045-5.038z">
   <title id="t907">Sumner, KS</title>
  </path>
  <path id="FIPS_20035" d="m281.78 181.86 6.373.045v2.258l-.032 3.943-2.294-.013-4.065-.04z">
   <title id="t908">Cowley, KS</title>
  </path>
  <path id="FIPS_20015" d="m285.02 173.96 3.209.013-.063 6.229-.014 1.7-6.373-.045.077-5.684.017-2.271z">
   <title id="t909">Butler, KS</title>
  </path>
  <path id="FIPS_20019" d="m288.15 184.16 5.707.059.003 3.903h-.373l-5.369-.019z">
   <title id="t910">Chautauqua, KS</title>
  </path>
  <path id="FIPS_20049" d="m293.89 180.26v2.822l-.03 1.137-5.707-.059v-2.258l.014-1.7z">
   <title id="t911">Elk, KS</title>
  </path>
  <path id="FIPS_20073" d="m293.9 172.89-.005 1.703-.014 3.975v1.698l-5.723-.058.063-6.229 1.672-1.117z">
   <title id="t912">Greenwood, KS</title>
  </path>
  <path id="FIPS_20125" d="m293.89 183.09 4.431.023h.046l.04 1.524-.031 2.659.003.815-2.704.014-1.812.005-.003-3.903z">
   <title id="t913">Montgomery, KS</title>
  </path>
  <path id="FIPS_20205" d="m293.89 178.57 4.408.009.023 4.534-4.431-.023z">
   <title id="t914">Wilson, KS</title>
  </path>
  <path id="FIPS_20207" d="m293.9 174.59 4.44.013-.046 3.971-4.408-.009z">
   <title id="t915">Woodson, KS</title>
  </path>
  <path id="FIPS_20099" d="m298.36 183.11 4.407-.032.135.572.063 4.422-3.42.032-1.173.004-.003-.815.031-2.659z">
   <title id="t916">Labette, KS</title>
  </path>
  <path id="FIPS_20133" d="m302.72 178.55.01.751.035 3.777-4.407.032h-.046l-.023-4.534z">
   <title id="t917">Neosho, KS</title>
  </path>
  <path id="FIPS_20001" d="m302.79 174.58-.067 3.972-4.431.026.046-3.971z">
   <title id="t918">Allen, KS</title>
  </path>
  <path id="FIPS_20021" d="m302.9 183.65 4.66-.036.059 4.422-3.984.032-.672.004z">
   <title id="t919">Cherokee, KS</title>
  </path>
  <path id="FIPS_20037" d="m307.5 179.26.063 4.015.004.338-4.66.036-.135-.572-.035-3.777z">
   <title id="t920">Crawford, KS</title>
  </path>
  <path id="FIPS_20011" d="m302.79 174.58 4.675-.045.031 4.728-4.763.04-.01-.751z">
   <title id="t921">Bourbon, KS</title>
  </path>
  <path id="FIPS_20075" d="m232.77 169.77 4.787.285.252.012-.212 3.769.036 1.897-.067 1.185-5.202-.347z">
   <title id="t922">Hamilton, KS</title>
  </path>
  <path id="FIPS_20071" d="m233.12 164.13 4.764.265-.333 5.662-4.787-.285.284-4.575z">
   <title id="t923">Greeley, KS</title>
  </path>
  <path id="FIPS_20199" d="m239.1 158.79-.388 5.638-.829-.04-4.764-.265.275-4.534.063-1.119z">
   <title id="t924">Wallace, KS</title>
  </path>
  <path id="FIPS_20181" d="m233.79 152.83 6.269.38.243.013-.346 5.621-.857-.046-5.643-.32z">
   <title id="t925">Sherman, KS</title>
  </path>
  <path id="FIPS_20023" d="m234.14 147.18 6.274.389-.347 5.634-6.269-.38.004-.075z">
   <title id="t926">Cheyenne, KS</title>
  </path>
  <path id="FIPS_20185" d="m264.22 171.27 4.35.126.04 1.145-.112 4.525-5.472-.166-.014-2.281 1.096.036z">
   <title id="t927">Stafford, KS</title>
  </path>
  <path id="FIPS_20093" d="m237.8 170.07 4.187.221.221.01-.104 2.168-.203 3.487.077 1.208-4.421-.243.067-1.185-.036-1.897z">
   <title id="t928">Kearny, KS</title>
  </path>
  <path id="FIPS_20055" d="m246.42 170.52 4.421.236.171.009-.143 3.394-4.413-.23-.117 2.253.072 1.212-4.426-.23-.077-1.208.203-3.487.104-2.168z">
   <title id="t929">Finney, KS</title>
  </path>
  <path id="FIPS_20083" d="m257.47 171.03.063 2.277-.089 2.266-6.635-.287.059-1.127.143-3.394z">
   <title id="t930">Hodgeman, KS</title>
  </path>
  <path id="FIPS_20145" d="m257.51 169.89 5.543.209 1.167 1.175-.112 3.385-1.096-.036-3.308-.112.036-1.131-2.204-.077-.063-2.277z">
   <title id="t931">Pawnee, KS</title>
  </path>
  <path id="FIPS_20031" d="m298.42 169.45v.573l.019 1.703h-.095l-.009 2.876-4.44-.013.005-1.703.085-3.421z">
   <title id="t932">Coffey, KS</title>
  </path>
  <path id="FIPS_20003" d="m298.42 170.03 4.445-.027.022 1.703-.1 1.74v1.136l-4.452.027.009-2.876h.095z">
   <title id="t933">Anderson, KS</title>
  </path>
  <path id="FIPS_20107" d="m307.41 169.96.054 4.271.005.303-4.675.045v-1.136l.1-1.74-.022-1.703z">
   <title id="t934">Linn, KS</title>
  </path>
  <path id="FIPS_20121" d="m307.38 165.42.014 3.39.013 1.154-4.538.04.044-4.534z">
   <title id="t935">Miami, KS</title>
  </path>
  <path id="FIPS_20059" d="m298.48 165.5 4.439-.036-.044 4.534-4.445.027v-.573z">
   <title id="t936">Franklin, KS</title>
  </path>
  <path id="FIPS_20139" d="m298.47 163.79.005 1.708-.05 3.952-4.435.015.041-3.958-.004-1.703z">
   <title id="t937">Osage, KS</title>
  </path>
  <path id="FIPS_20111" d="m289.97 165.5 4.061.014-.041 3.958-.085 3.421-4.007-.028.049-4.535z">
   <title id="t938">Lyon, KS</title>
  </path>
  <path id="FIPS_20017" d="m285.28 168.29 4.665.04-.049 4.535-1.672 1.117-3.209-.013.018-2.136.045-1.285.184.006z">
   <title id="t939">Chase, KS</title>
  </path>
  <path id="FIPS_20127" d="m288.49 163.79 1.479 1.703-.023 2.83-4.665-.04-1.099-1.14.433-3.384z">
   <title id="t940">Morris, KS</title>
  </path>
  <path id="FIPS_20115" d="m284.18 167.15 1.099 1.14-.018 2.264-.184-.006-.045 1.285-.018 2.136-3.147-.058-2.185-1.149.081-5.666z">
   <title id="t941">Marion, KS</title>
  </path>
  <path id="FIPS_20113" d="m279.77 167.09-.081 5.666-3.322-.055-2.217-.04.089-5.67z">
   <title id="t942">McPherson, KS</title>
  </path>
  <path id="FIPS_20159" d="m268.65 168.01 5.571.117-.072 4.539-5.54-.118-.04-1.145z">
   <title id="t943">Rice, KS</title>
  </path>
  <path id="FIPS_20169" d="m279.83 162.56-.068 4.53-5.531-.099.028-3.399.022-1.131z">
   <title id="t944">Saline, KS</title>
  </path>
  <path id="FIPS_20053" d="m268.72 163.47 5.54.126-.028 3.399-.017 1.131-5.571-.117.005-2.281z">
   <title id="t945">Ellsworth, KS</title>
  </path>
  <path id="FIPS_20009" d="m268.65 165.73-.005 2.281-.081 3.393-4.35-.126-1.167-1.175.14-4.526z">
   <title id="t946">Barton, KS</title>
  </path>
  <path id="FIPS_20165" d="m257.67 165.38 5.417.184.1.005-.14 4.526-5.543-.209z">
   <title id="t947">Rush, KS</title>
  </path>
  <path id="FIPS_20135" d="m251.06 165.09.933.049 5.544.239.135.005-.166 4.506-.037 1.136-6.459-.265-.171-.009z">
   <title id="t948">Ness, KS</title>
  </path>
  <path id="FIPS_20101" d="m246.66 164.86 4.399.235-.221 5.661-4.421-.236z">
   <title id="t949">Lane, KS</title>
  </path>
  <path id="FIPS_20171" d="m242.27 164.62 3.092.171 1.302.063-.243 5.66-4.205-.219-.221-.01z">
   <title id="t950">Scott, KS</title>
  </path>
  <path id="FIPS_20203" d="m238.72 164.43 3.552.19-.275 5.665-4.187-.221-.252-.012.333-5.662z">
   <title id="t951">Wichita, KS</title>
  </path>
  <path id="FIPS_20109" d="m239.96 158.84 1.478.081 1.509.108 2.763.144-.351 5.62-3.092-.171-3.552-.19.388-5.638z">
   <title id="t952">Logan, KS</title>
  </path>
  <path id="FIPS_20063" d="m246.61 159.22 5.525.275.163.004-.307 5.643-.933-.049-4.399-.235-1.302-.063.351-5.62z">
   <title id="t953">Gove, KS</title>
  </path>
  <path id="FIPS_20195" d="m252.3 159.5 5.386.217.135.004-.284 5.661-5.544-.239z">
   <title id="t954">Trego, KS</title>
  </path>
  <path id="FIPS_20051" d="m257.82 159.72 5.399.18.104.005-.235 5.665-5.417-.184-.135-.005z">
   <title id="t955">Ellis, KS</title>
  </path>
  <path id="FIPS_20167" d="m263.32 159.9 5.435.162-.036 3.403-.071 2.258-5.463-.153-.1-.005z">
   <title id="t956">Russell, KS</title>
  </path>
  <path id="FIPS_20105" d="m274.34 159.07-.059 3.394-.022 1.131-5.54-.126.036-3.403.032-1.132z">
   <title id="t957">Lincoln, KS</title>
  </path>
  <path id="FIPS_20143" d="m274.37 157.94 5.548.099-.049 2.263-.036 2.262-5.549-.099.059-3.394z">
   <title id="t958">Ottawa, KS</title>
  </path>
  <path id="FIPS_20041" d="m283.92 160.34.694 3.417-.433 3.384-4.417-.054.068-4.53.036-2.262z">
   <title id="t959">Dickinson, KS</title>
  </path>
  <path id="FIPS_20061" d="m283.92 160.34.031-1.145 1.104.026-.027 1.701 2.695.219.784.009v.38l-.018 2.258-3.875-.031z">
   <title id="t960">Geary, KS</title>
  </path>
  <path id="FIPS_20197" d="m293.1 160.47.925 3.336.004 1.703-4.061-.014-1.479-1.703.018-2.258 1.123-1.673.063.059.252.158.104.026.523-.536.672-.162 1.185.095.235.095.144.184.279.587z">
   <title id="t961">Wabaunsee, KS</title>
  </path>
  <path id="FIPS_20177" d="m293.14 159.3 4.426-.004.897 2.077.009 2.421-4.443.014-.925-3.336z">
   <title id="t962">Shawnee, KS</title>
  </path>
  <path id="FIPS_20045" d="m301.58 161.51 1.311.793.027 3.164-4.439.036-.005-1.708-.009-2.421.434-.157.202-.024.139.024.199.085.126.144.316.19.176.045.143-.009z">
   <title id="t963">Douglas, KS</title>
  </path>
  <path id="FIPS_20091" d="m304.35 162.17.266-.82.063-.054.131-.045.153-.005.852.217 1.528-.023.032 2.56.004 1.415-4.467.05-.027-3.164z">
   <title id="t964">Johnson, KS</title>
  </path>
  <path id="FIPS_20209" d="m307.38 159.93-.046.605.014.901-1.528.023-.852-.217-.153.005-.131.045-.063.054-.266.82-.014-1.789.068-.956h1.064z">
   <title id="t965">Wyandotte, KS</title>
  </path>
  <path id="FIPS_20103" d="m301.61 156.63 2.086-.02 1.776 2.814h-1.064l-.068.956.014 1.789-1.465.131-1.311-.793-.018-1.1.067-1.307z">
   <title id="t966">Leavenworth, KS</title>
  </path>
  <path id="FIPS_20087" d="m297.74 156.65 3.868-.023.017 2.47-.067 1.307.018 1.1-1.38.162-.143.009-.176-.045-.316-.19-.126-.144-.199-.085-.139-.024-.202.024-.434.157-.897-2.077z">
   <title id="t967">Jefferson, KS</title>
  </path>
  <path id="FIPS_20005" d="m302.36 155.14 1.338 1.472-2.086.02-3.868.023.05-3.039 2.213-.013 2.744.361z">
   <title id="t968">Atchison, KS</title>
  </path>
  <path id="FIPS_20085" d="m297.74 156.65-.176 2.641-4.426.004v-4.543l2.434-1.131 2.218-.01z">
   <title id="t969">Jackson, KS</title>
  </path>
  <path id="FIPS_20149" d="m293.14 159.3-.036 1.172-.013-.103-.279-.587-.144-.184-.235-.095-1.185-.095-.672.162-.523.536-.104-.026-.252-.158-.063-.059-.712-.212-.658-.289-.933-.864-.491-.767-.487-.896.004-.519.122-.203 1.271-1.379 3.385.019 2.005.004z">
   <title id="t970">Pottawatomie, KS</title>
  </path>
  <path id="FIPS_20161" d="m283.95 159.2.072-4.498 1.505.014 2.218.017-1.271 1.379-.122.203-.004.519.487.896.491.767.933.864.658.289.712.212-1.123 1.673v-.38l-.784-.009-2.695-.219.027-1.701z">
   <title id="t971">Riley, KS</title>
  </path>
  <path id="FIPS_20027" d="m279.92 158.04.059-3.39 4.047.055-.072 4.498-.031 1.145-4.052-.045z">
   <title id="t972">Clay, KS</title>
  </path>
  <path id="FIPS_20029" d="m274.42 154.55.027-1.132 5.548.099-.013 1.131-.059 3.39-5.548-.099z">
   <title id="t973">Cloud, KS</title>
  </path>
  <path id="FIPS_20123" d="m274.42 154.55-.045 3.389-.027 1.131-5.553-.136.145-4.519z">
   <title id="t974">Mitchell, KS</title>
  </path>
  <path id="FIPS_20141" d="m268.79 158.93-.032 1.132-5.435-.162-.104-.005.059-1.888.077-1.501.081-2.257 5.318.157.181.005z">
   <title id="t975">Osborne, KS</title>
  </path>
  <path id="FIPS_20163" d="m257.93 154.06 5.296.177.212.01-.081 2.257-.077 1.501-.059 1.888-5.399-.18-.135-.004z">
   <title id="t976">Rooks, KS</title>
  </path>
  <path id="FIPS_20065" d="m252.14 159.49.275-5.652 5.264.213.253.011-.243 5.649-5.386-.217z">
   <title id="t977">Graham, KS</title>
  </path>
  <path id="FIPS_20179" d="m246.9 153.57 5.328.268.184.004-.275 5.652-5.525-.275z">
   <title id="t978">Sheridan, KS</title>
  </path>
  <path id="FIPS_20193" d="m239.96 158.84.346-5.621 6.391.342.203.008-.288 5.649-.902-.045-2.763-.144-1.509-.108z">
   <title id="t979">Thomas, KS</title>
  </path>
  <path id="FIPS_20153" d="m240.41 147.57.852.045 5.543.297.195.014-.303 5.633-6.634-.355z">
   <title id="t980">Rawlins, KS</title>
  </path>
  <path id="FIPS_20039" d="m247 147.93 5.345.256.153.01-.27 5.643-5.328-.268-.203-.008z">
   <title id="t981">Decatur, KS</title>
  </path>
  <path id="FIPS_20147" d="m262.3 148.57 1.099.031-.171 5.643-5.296-.177-.253-.011.235-5.644z">
   <title id="t982">Phillips, KS</title>
  </path>
  <path id="FIPS_20137" d="m257.89 148.41h.023l-.235 5.644-5.264-.213-.184-.004.27-5.643z">
   <title id="t983">Norton, KS</title>
  </path>
  <path id="FIPS_20183" d="m263.4 148.6 3.34.104 2.177.059-.158 5.647-5.318-.157-.212-.01z">
   <title id="t984">Smith, KS</title>
  </path>
  <path id="FIPS_20089" d="m271.18 148.82 3.358.081-.09 4.521-.027 1.132-5.48-.135-.181-.005.158-5.647z">
   <title id="t985">Jewell, KS</title>
  </path>
  <path id="FIPS_20157" d="m275.62 148.92 4.439.071-.063 4.525-5.548-.099.09-4.521z">
   <title id="t986">Republic, KS</title>
  </path>
  <path id="FIPS_20201" d="m280.05 148.99 4.449.059 1.086.013-.059 5.653-1.505-.014-4.047-.055.013-1.131z">
   <title id="t987">Washington, KS</title>
  </path>
  <path id="FIPS_20117" d="m288.94 149.09 2.203.013-.013 5.648-3.385-.019-2.218-.017.059-5.653z">
   <title id="t988">Marshall, KS</title>
  </path>
  <path id="FIPS_20131" d="m293.39 149.11h2.186v4.517l-2.434 1.131-2.005-.004.013-5.648z">
   <title id="t989">Nemaha, KS</title>
  </path>
 </g>
</svg>