<svg id="svg9559" width="555.22" height="351.67" xmlns="http://www.w3.org/2000/svg" viewBox="359.5689697265625 153.97900390625 75.8580322265625 38.397003173828125">
 <g id="stylegroup" fill="#d0d0d0" stroke="#000" stroke-width=".1">
  <path id="FIPS_21105" d="m363.95 188.35 3.187-.078.234 3.508-.112.009-.077.004-.779-.91-.42-.158-2.429-.587z">
   <title id="t990">Hickman, KY</title>
  </path>
  <path id="FIPS_21075" d="m363.55 190.14 2.429.587.42.158.779.91-5.251.379-.726.103.798-1.789zm-3.602 2.236-.229-.328-.014-.014-.112-.239-.004-.009-.01-.054-.01-.041.01-.045.014-.059.013-.049.017-.023.118-.158.064-.04.189-.026.288.045.158.045.027.018.022.018.014.009.066.103.006.013.063.149.032.14v.005l.004.022v.055l-.009.035-.032.127-.013.049-.016.032-.101.19z">
   <title id="t991">Fulton, KY</title>
  </path>
  <path id="FIPS_21013" d="m420.96 180.52.272.532.684 2.929-2.077 1.114-2.583.496.378-1.343.686-1.209.958-.983.425-.4.627-.698.063-.271-.05-.099-.23-.181z">
   <title id="t992">Bell, KY</title>
  </path>
  <path id="FIPS_21121" d="m417.09 179.5.127-.014.883.113.329.094.131.117.14.162.022.091.302.126.437.14.424.076h.225l.23.181.05.099-.063.271-.627.698-.425.4-.958.983-.686 1.209-.888-.411-1.289-1.496-.441-1.285z">
   <title id="t993">Knox, KY</title>
  </path>
  <path id="FIPS_21235" d="m412.94 181.45 2.07-.393.441 1.285 1.289 1.496.888.411-.378 1.343-.581.058-2.443.28-.654-.609-.298-.365-.594-1.28-.022-.181z">
   <title id="t994">Whitley, KY</title>
  </path>
  <path id="FIPS_21125" d="m413.96 176.43 2.077.644-.13 1.015.306.338.532.329.284.423.063.33-2.077 1.554-2.07.393-.639-.096.397-2.568z">
   <title id="t995">Laurel, KY</title>
  </path>
  <path id="FIPS_21051" d="m417.48 175.6.83.037 1.524.752.405.036.229.261.496 3.836-.847-.113h-.225l-.424-.076-.437-.14-.302-.126-.022-.091-.14-.162-.131-.117-.329-.094-.883-.113-.127.014-.063-.33-.284-.423-.532-.329-.306-.338.13-1.015z">
   <title id="t996">Clay, KY</title>
  </path>
  <path id="FIPS_21131" d="m420.46 176.69.758-1.018.856.496 1.114.698.387.339.41.716.159.536-.014.563-2.902 2.038-.272-.532z">
   <title id="t997">Leslie, KY</title>
  </path>
  <path id="FIPS_21095" d="m424.13 179.02.644.171.306.384 1.519-.82.785.432-.041.977-.212.371-2.042 1.686-2.141 1.212-1.036.554-.684-2.929z">
   <title id="t998">Harlan, KY</title>
  </path>
  <path id="FIPS_21133" d="m428.23 175.16.459.401.289-.013.282-.23h.06l.333.211.402.361-2.668 3.29-.785-.432-1.519.82-.306-.384.123.1.036-.005.46-.365.034-.049.027-.145-.013-.625-.261-.501.017-.09.176-.456.288-.54.183.127.219.003.397-.315.202-.203.19-.244.698-.486z">
   <title id="t999">Letcher, KY</title>
  </path>
  <path id="FIPS_21119" d="m425.9 172.67 1.006.149.74.41.093.145.05.423-.022.351.184.54.054.055.226.131.194.086-.198.207-.677.23-.698.486-.19.244-.202.203-.397.315-.219-.003-.183-.127-1.621-2.525 1.599-1.5z">
   <title id="t1000">Knott, KY</title>
  </path>
  <path id="FIPS_21193" d="m424.04 173.99 1.621 2.525-.288.54-.176.456-.017.09.261.501.013.625-.027.145-.034.049-.46.365-.036.005-.123-.1-.644-.171.014-.563-.159-.536-.41-.716-.387-.339-1.114-.698-.856-.496-.758 1.018-.229-.261-.342-.956 1.185-.419 2.19-1.081z">
   <title id="t1001">Perry, KY</title>
  </path>
  <path id="FIPS_21189" d="m419.29 173.3.605 2.167.342.956-.405-.036-1.524-.752-.83-.037-1.293-2.051.239.18.234.096.203.04.802-.194.595-.311.121-.176.479-.031z">
   <title id="t1002">Owsley, KY</title>
  </path>
  <path id="FIPS_21109" d="m414.04 173.19 1.903.064.243.296 1.293 2.051-1.438 1.469-2.077-.644-.158-.618-.278-.671-.303-.424-.194-.347-.049-.329.031-.148z">
   <title id="t1003">Jackson, KY</title>
  </path>
  <path id="FIPS_21065" d="m413.67 169.48.812.09.434.425.689.464.805.054 1.082.27-1.554 2.471-1.903-.064z">
   <title id="t1004">Estill, KY</title>
  </path>
  <path id="FIPS_21129" d="m417.64 170.76 1.996.761-.347 1.781-.432-.149-.479.031-.121.176-.595.311-.802.194-.203-.04-.234-.096-.239-.18-.243-.296 1.554-2.471z">
   <title id="t1005">Lee, KY</title>
  </path>
  <path id="FIPS_21025" d="m419.63 171.52.344.188.31-.17.072-.099.13-.27.027-.166-.012-.082.026-.122.054-.09.267-.157 1.477.198 3.313 1.735-1.599 1.5-.776-.017-2.19 1.081-1.185.419-.605-2.167z">
   <title id="t1006">Breathitt, KY</title>
  </path>
  <path id="FIPS_21071" d="m428.34 169.26.839.346-.271.091-.171.104-.045.067.195 1.857.297.293.171.402.008.283-.198.816-.473 1.131-.171.23-.095.077-.194-.086-.226-.131-.054-.055-.184-.54.022-.351-.05-.423-.093-.145-.74-.41-1.006-.149-.563-2.94.329.006 1.172-.603.32-.117.302.008.848.211z">
   <title id="t1007">Floyd, KY</title>
  </path>
  <path id="FIPS_21115" d="m428.33 167.17.009 2.086-.031-.028-.848-.211-.302-.008-.32.117-1.172.603-.329-.006-.896-1.748-.028-1.374.086-.28.045-.09.173-.148.039-.004 1.222.256 1.049.532.6.212z">
   <title id="t1008">Johnson, KY</title>
  </path>
  <path id="FIPS_21153" d="m424.44 167.98.896 1.748.563 2.94-.261-.18-3.313-1.735-.207-.536-.185-.718 1.177-1.779.028-.028h.4l.468.095z">
   <title id="t1009">Magoffin, KY</title>
  </path>
  <path id="FIPS_21237" d="m419.53 168.61.139.216.555.253 1.063.36.838.781.207.536-1.477-.198-.267.157-.054.09-.026.122.012.082-.027.166-.13.27-.072.099-.31.17-.344-.188-1.996-.761.586-1.506z">
   <title id="t1010">Wolfe, KY</title>
  </path>
  <path id="FIPS_21197" d="m414.69 168.33 2-.09 1.538 1.019-.586 1.506-.145.022-1.082-.27-.805-.054-.689-.464-.434-.425z">
   <title id="t1011">Powell, KY</title>
  </path>
  <path id="FIPS_21049" d="m413.25 166.1 1.438 2.226-.203 1.244-.812-.09-2.637-.18.232-2.326z">
   <title id="t1012">Clark, KY</title>
  </path>
  <path id="FIPS_21173" d="m414.14 164.97.536.513.522.081.113.099.582.537.667.808.086.174.039 1.05-2 .09-1.438-2.226z">
   <title id="t1013">Montgomery, KY</title>
  </path>
  <path id="FIPS_21165" d="m419.16 166.18.682.13-.32 2.299-1.303.649-1.538-1.019-.039-1.05z">
   <title id="t1014">Menifee, KY</title>
  </path>
  <path id="FIPS_21175" d="m424.01 166.1.409.509.028 1.374-.434-.193-.468-.095h-.4l-.028.028-1.177 1.779.185.718-.838-.781-1.063-.36-.555-.253-.139-.216.32-2.299 1.563-1.279z">
   <title id="t1015">Morgan, KY</title>
  </path>
  <path id="FIPS_21063" d="m424.68 163.8-.671 2.294-2.597-1.068.054-1.014.532-1.051.244.05.77.428.41.297.775.158.316-.005z">
   <title id="t1016">Elliott, KY</title>
  </path>
  <path id="FIPS_21205" d="m420.28 162.5 1.185 1.51-.054 1.014-1.563 1.279-.682-.13-1.596-1.582.524-.428.171-.186.432-.657-.094-.234.1-.569.36-.671z">
   <title id="t1017">Rowan, KY</title>
  </path>
  <path id="FIPS_21011" d="m415.26 163.46.076-.088.045-.003.974.049.108.059.247.189.335.644.437.515.067-.104.017-.126 1.596 1.582-2.518 1.009-.086-.174-.667-.808-.582-.537-.113-.099-.522-.081-.536-.513z">
   <title id="t1018">Bath, KY</title>
  </path>
  <path id="FIPS_21181" d="m413.72 161.79 1.542 1.669-1.122 1.514-2.444-2.042.771-1.25z">
   <title id="t1019">Nicholas, KY</title>
  </path>
  <path id="FIPS_21069" d="m416.94 160.24 2.126 1.605-.36.671-.1.569.094.234-.432.657-.171.186-.524.428-.017.126-.067.104-.437-.515-.335-.644-.247-.189-.108-.059-.974-.049-.045.003-.076.088-1.542-1.669.406-.747.766.373 1.289-.793z">
   <title id="t1020">Fleming, KY</title>
  </path>
  <path id="FIPS_21201" d="m413.35 159.81.775 1.232-.406.747-1.253-.109-.743-1.143z">
   <title id="t1021">Robertson, KY</title>
  </path>
  <path id="FIPS_21023" d="m413.93 157.45-.581 2.361-1.627.727-.478-.312-.645-3.145 1.852.527z">
   <title id="t1022">Bracken, KY</title>
  </path>
  <path id="FIPS_21161" d="m416.7 158.82.241 1.424-.754.379-1.289.793-.766-.373-.775-1.232.581-2.361.342.045.122.045.063.051.879.91.78.387z">
   <title id="t1023">Mason, KY</title>
  </path>
  <path id="FIPS_21135" d="m422.65 156.86-.956 3.038-.451 1.619.109.527-.041.094-.402.23-.63.14-1.217-.654-2.126-1.605-.241-1.424.054-.455.077-.126.104-.072.784-.343.123-.027.085.009h.014l.404.099 1.074.258.027.013.337.158.024.008.571.428z">
   <title id="t1024">Lewis, KY</title>
  </path>
  <path id="FIPS_21019" d="m427.53 160.16.212 2.263-1.883.311-.469-1.641 1.27-1.911z">
   <title id="t1025">Boyd, KY</title>
  </path>
  <path id="FIPS_21089" d="m425.05 158.56 1.608.626-1.27 1.911-.988-.194-1.5-.667-.415-.144-.793-.194.956-3.038v-.005l.179-.081.834-.378.272-.119.012-.003h.051l.103.045.046.05.013.023.027.04.017.031.005.018.004.018.019.077.008.091v.013l.005.006-.01.156.095.406.28.843.023.05.067.143.081.095.01.014.216.144z">
   <title id="t1026">Greenup, KY</title>
  </path>
  <path id="FIPS_21043" d="m421.69 159.89.793.194.415.144 1.5.667.988.194.469 1.641-1.181 1.068-.167.089-.316.005-.775-.158-.41-.297-.77-.428-.244-.05-.532 1.051-1.185-1.51.63-.14.402-.23.041-.094-.109-.527z">
   <title id="t1027">Carter, KY</title>
  </path>
  <path id="FIPS_21127" d="m425.86 162.73 1.883-.311-.252 1.103v.004l.04.113.091.226v.01l.181.161.193.042.027.008 1.586 1.514.014.018.004.01v.072l-.261.451-1.032 1.019-.703-.091-.6-.212-1.049-.532-1.222-.256-.039.004-.173.148-.045.09-.086.28-.409-.509.671-2.294z">
   <title id="t1028">Lawrence, KY</title>
  </path>
  <path id="FIPS_21159" d="m430.41 167.12 1.046 1.415-2.275 1.072-.839-.346-.009-2.086 1.032-1.019z">
   <title id="t1029">Martin, KY</title>
  </path>
  <path id="FIPS_21195" d="m429.18 169.61 2.275-1.072-.004.009.019.063.377.581 2.052 1.38h.003l.732.266.4-.091.393-.117-2.962 3.56-.379.489-1.523.859-.396.284-.113.077-.402-.361-.333-.211h-.06l-.282.23-.289.013-.459-.401.198-.207.095-.077.171-.23.473-1.131.198-.816-.008-.283-.171-.402-.297-.293-.195-1.857.045-.067.171-.104z">
   <title id="t1030">Pike, KY</title>
  </path>
  <path id="FIPS_21097" d="m411.72 160.54.743 1.143-.771 1.25-2.335 1.447-1.473-2.57.725-.743 2.633-.839z">
   <title id="t1031">Harrison, KY</title>
  </path>
  <path id="FIPS_21017" d="m409.36 164.38 2.335-1.447 2.444 2.042-.893 1.126-1.982.874-1.38-1.671z">
   <title id="t1032">Bourbon, KY</title>
  </path>
  <path id="FIPS_21151" d="m411.03 169.3 2.637.18.365 3.71-1.027.699-1.519-.023-2.154-2.759.784-1.108z">
   <title id="t1033">Madison, KY</title>
  </path>
  <path id="FIPS_21203" d="m413.01 173.89-.031.148.049.329.194.347.303.424.278.671.158.618-1.257 2.362-2.448-2.015.32-2.099.915-.808z">
   <title id="t1034">Rockcastle, KY</title>
  </path>
  <path id="FIPS_21147" d="m412.31 181.36.639.096-.282 2.045.022.181.594 1.28.298.365.654.609-.352.04-5.292.496.821-1.817.649-1.022.157-.812z">
   <title id="t1035">McCreary, KY</title>
  </path>
  <path id="FIPS_21137" d="m408.21 173.01 2.362 1.66-.32 2.099-2.06 1.429.05-.812-.257-.761-.789-.302-.608-.406-.158-.509.01-1.055z">
   <title id="t1036">Lincoln, KY</title>
  </path>
  <path id="FIPS_21079" d="m407.35 170.75.189-.18.149-.051.735.42.04.302.32.397.154.058.027-.017.374-.569 2.154 2.759-.915.808-2.362-1.66-.992-.911z">
   <title id="t1037">Garrard, KY</title>
  </path>
  <path id="FIPS_21113" d="m407.62 168.25 2.498 1.748-.784 1.108-.374.569-.027.017-.154-.058-.32-.397-.04-.302-.735-.42-.149.051-.189.18-.004-.608z">
   <title id="t1038">Jessamine, KY</title>
  </path>
  <path id="FIPS_21067" d="m409.89 165.3 1.38 1.671-.232 2.326-.914.699-2.498-1.748.177-1.498z">
   <title id="t1039">Fayette, KY</title>
  </path>
  <path id="FIPS_21239" d="m406.68 165.85 1.123.901-.177 1.498-.278 1.888-1.033-1.294-.91-1.812z">
   <title id="t1040">Woodford, KY</title>
  </path>
  <path id="FIPS_21209" d="m407.89 161.81 1.473 2.57.524.924-2.087 1.45-1.123-.901-.393-2.005 1.408-1.748z">
   <title id="t1041">Scott, KY</title>
  </path>
  <path id="FIPS_21073" d="m404.98 163.94 1.301-.094.393 2.005-1.275 1.181-1.61.027-.049-2.699z">
   <title id="t1042">Franklin, KY</title>
  </path>
  <path id="FIPS_21005" d="m403.79 167.06 1.61-.027.91 1.812-.797.478-1.204.789-.125.067-.073-.008-.032-.037-1.235.063-.261-.937.564-.915z">
   <title id="t1043">Anderson, KY</title>
  </path>
  <path id="FIPS_21167" d="m406.31 168.84 1.033 1.294.004.608-.127 1.356-2.767.771-.374-2.74.032.037.073.008.125-.067 1.204-.789z">
   <title id="t1044">Mercer, KY</title>
  </path>
  <path id="FIPS_21021" d="m407.22 172.1.992.911-1.77 1.343-1.935.262-.036-1.123-.018-.622z">
   <title id="t1045">Boyle, KY</title>
  </path>
  <path id="FIPS_21045" d="m404.51 174.62 1.935-.262-.01 1.055.158.509.608.406.789.302.257.761-.05.812-1.64 1.789-1.546-.73-1.42-1.466.771-1.442z">
   <title id="t1046">Casey, KY</title>
  </path>
  <path id="FIPS_21199" d="m408.2 178.2 2.06-1.429 2.448 2.015-.397 2.568-2.092 1.461-2.812-1.371-.847-1.455z">
   <title id="t1047">Pulaski, KY</title>
  </path>
  <path id="FIPS_21231" d="m410.21 182.82-.157.812-.649 1.022-.821 1.817-.076.004-1.884.086-.217-.045-.117-.063-.049-.104-.265-.766-.028-.122-.008-.198.027-.171-.411-1.105-.276-.477 2.119-2.061z">
   <title id="t1048">Wayne, KY</title>
  </path>
  <path id="FIPS_21207" d="m405.01 179.26 1.546.73.847 1.455-2.119 2.061-.504.472-.843-.495-.374-.157-.054.035.009.064.235.315-.137.054-.085-.018-.067-.04-.384-.488.398-.4.163-.957.346-.517.64-1.271z">
   <title id="t1049">Russell, KY</title>
  </path>
  <path id="FIPS_21053" d="m403.75 183.74-.235-.315-.009-.064.054-.035.374.157.843.495.504-.472.276.477.411 1.105-.027.171.008.198.028.122.265.766.049.104.117.063.217.045-3.164.199-.198.035z">
   <title id="t1050">Clinton, KY</title>
  </path>
  <path id="FIPS_21057" d="m403.48 182.85-.398.4.384.488.067.04.085.018.137-.054-.487 3.051-1.425.258-1.915-2.403 1.298-1.717z">
   <title id="t1051">Cumberland, KY</title>
  </path>
  <path id="FIPS_21001" d="m403.59 177.8 1.42 1.466-.383.843-.64 1.271-.346.517-.163.957-2.254.081-1.005-2.123 1.644-1.271z">
   <title id="t1052">Adair, KY</title>
  </path>
  <path id="FIPS_21217" d="m400.32 176.14.019-.035.197-.084.948-.089 2.257-.024.618.446-.771 1.442-1.727 1.741-.946-1.344-.571-.724-1.182-.776-.031-.113-.005-.369z">
   <title id="t1053">Taylor, KY</title>
  </path>
  <path id="FIPS_21155" d="m400.59 172.64.383.522.442.41.776.195 2.284-.267.036 1.123-.148 1.734-.618-.446-2.257.024-.948.089-.197.084-.019.035-.689-1.088z">
   <title id="t1054">Marion, KY</title>
  </path>
  <path id="FIPS_21229" d="m404.08 170.13.374 2.74.018.622-2.284.267-.776-.195-.442-.41-.383-.522 2.258-2.439z">
   <title id="t1055">Washington, KY</title>
  </path>
  <path id="FIPS_21215" d="m399.76 167.28 3.385 1.069-.564.915-3.25.112.42-1.712z">
   <title id="t1056">Spencer, KY</title>
  </path>
  <path id="FIPS_21211" d="m400.86 164.4 2.88-.04.049 2.699-.643 1.285-3.385-1.069-.636-1.729.112-.147.091-.061.171-.068.379-.113.374.027.266-.117z">
   <title id="t1057">Shelby, KY</title>
  </path>
  <path id="FIPS_21103" d="m401.67 161.33.915-.252 2.393 2.866-1.24.42-2.88.04-.504-1.705z">
   <title id="t1058">Henry, KY</title>
  </path>
  <path id="FIPS_21187" d="m403.88 160.08 1.384-.925.27 1.299 1.655 1.474.193.085.307.091-1.408 1.748-1.301.094-2.393-2.866z">
   <title id="t1059">Owen, KY</title>
  </path>
  <path id="FIPS_21081" d="m406.82 157.89.852.032.937 3.146-.725.743-.198.29-.307-.091-.193-.085-1.655-1.474-.27-1.299 1.163-.887z">
   <title id="t1060">Grant, KY</title>
  </path>
  <path id="FIPS_21191" d="m410.6 157.08.645 3.145-2.633.839-.937-3.146 1.1-.324 1.73-1.105z">
   <title id="t1061">Pendleton, KY</title>
  </path>
  <path id="FIPS_21037" d="m409.41 154.7 1.095 1.794-1.73 1.105-1.321-3.62z">
   <title id="t1062">Campbell, KY</title>
  </path>
  <path id="FIPS_21117" d="m407.46 153.98 1.321 3.62-1.1.324-.852-.032-.496-3.501z">
   <title id="t1063">Kenton, KY</title>
  </path>
  <path id="FIPS_21015" d="m406.33 154.39.496 3.501-.396.375-1.42-.862-.136-.563-.995-1.586.459-1.036z">
   <title id="t1064">Boone, KY</title>
  </path>
  <path id="FIPS_21077" d="m405.01 157.4 1.42.862-1.163.887-1.384.925-1.055-1.199z">
   <title id="t1065">Gallatin, KY</title>
  </path>
  <path id="FIPS_21041" d="m401.19 160 1.64-1.122 1.055 1.199-1.293 1-.915.252-1.88-1.812z">
   <title id="t1066">Carroll, KY</title>
  </path>
  <path id="FIPS_21223" d="m399.79 159.52 1.88 1.812-1.316 1.369-1.231-.273-.031-.813z">
   <title id="t1067">Trimble, KY</title>
  </path>
  <path id="FIPS_21185" d="m400.36 162.7.504 1.705-.342.667-.266.117-.374-.027-.379.113-.171.068-.091.061-.112.147-1.839-1.042 1.839-2.082z">
   <title id="t1068">Oldham, KY</title>
  </path>
  <path id="FIPS_21111" d="m397.29 164.5 1.839 1.042.636 1.729-.009.384-1.218.716h-1.576l-1.543.744-.302.224-.297.421-.117-.095.248-2.267.938-1.546z">
   <title id="t1069">Jefferson, KY</title>
  </path>
  <path id="FIPS_21029" d="m399.75 167.66-.42 1.712-.82 1.38.095.085-.014.027-.576.703-.321.231-.437.172-.171-.01-2.272-2.195.297-.421.302-.224 1.543-.744h1.576z">
   <title id="t1070">Bullitt, KY</title>
  </path>
  <path id="FIPS_21179" d="m402.58 169.26.261.937-2.258 2.439-.955 2.415-.348.423-.039.028-.514-.18-.028-.244.018-.401.018-.199.212-.243-.23-.906-.094-.066-.703-.307-.144-.027-.69-.969.171.01.437-.172.321-.231.576-.703.014-.027-.095-.085.82-1.38z">
   <title id="t1071">Nelson, KY</title>
  </path>
  <path id="FIPS_21123" d="m397.78 172.93.144.027.703.307.094.066.23.906-.212.243-.018.199-.018.401.028.244.514.18.039-.028.348-.423.689 1.088-1.194.071-.676.698-2.411.026.031-1.369.681-.937.423-.532z">
   <title id="t1072">Larue, KY</title>
  </path>
  <path id="FIPS_21087" d="m398.45 176.91.676-.698.005.369.031.113 1.182.776.571.724.946 1.344-1.644 1.271-1.727-.762z">
   <title id="t1073">Green, KY</title>
  </path>
  <path id="FIPS_21169" d="m398.49 180.04 1.727.762 1.005 2.123-1.298 1.717-1.492-.144-.342-2.118-.176-.789-.185-.523-.094-.361.288-.45z">
   <title id="t1074">Metcalfe, KY</title>
  </path>
  <path id="FIPS_21171" d="m398.43 184.5 1.492.144 1.915 2.403-3.601.346-1.929.118-.135-1.217z">
   <title id="t1075">Monroe, KY</title>
  </path>
  <path id="FIPS_21213" d="m389.49 184.89.356.654 1.892.108-.012.405.108 1.632-1.542.379h-2.056z">
   <title id="t1076">Simpson, KY</title>
  </path>
  <path id="FIPS_21003" d="m393.95 183.77 2.223 2.53.135 1.217-2.348.099-2.127.076-.108-1.632 1.009-1.063.306-.487.587-.68z">
   <title id="t1077">Allen, KY</title>
  </path>
  <path id="FIPS_21009" d="m397.92 180.26-.288.45.094.361.185.523.176.789.342 2.118-2.258 1.794-2.223-2.53.37-1.699.438-1.432z">
   <title id="t1078">Barren, KY</title>
  </path>
  <path id="FIPS_21099" d="m396.04 176.93 2.411-.026.04 3.137-.567.217-3.164.374-1.253-2.069.96-1.595z">
   <title id="t1079">Hart, KY</title>
  </path>
  <path id="FIPS_21093" d="m394.7 169.67.117.095 2.272 2.195.69.969-.605 1.167-.423.532-.681.937-.031 1.369-1.573.038-.162-.636-.645-.771-.194-.017-.176.098-.275.109-1.045-.398.978-2.785 1.424-.405.235-.779-.393-1.552z">
   <title id="t1080">Hardin, KY</title>
  </path>
  <path id="FIPS_21163" d="m389.27 169.72 2.033-1.306-.031.364v.023l.004.09.004.059.009.023.072.252.059.09.023.036.049.031.455.301.438.172.072.009 1.456.072.301-.099.393 1.552-.235.779-1.424.405-3.737-2.845z">
   <title id="t1081">Meade, KY</title>
  </path>
  <path id="FIPS_21091" d="m384.46 171.7 1.569-1.04 1.793 1.86-.1.096-.063.567.736 1.726-.172-.066-1.96-.803-.006-.703-.432-.6-.618-.64-.789.013z">
   <title id="t1082">Hancock, KY</title>
  </path>
  <path id="FIPS_21027" d="m387.82 172.52.077.005.134-.045.28-.217.658-1.5-.076-.77.017-.141.041-.058.054-.031.207-.038 3.737 2.845-.978 2.785-.112.082-.844.464-1.009-.383-.01-.05-.121-.125-.275-.131-.044.005-.231.126-.216.248-.302.459-.586-1.207.172.066-.736-1.726.063-.567z">
   <title id="t1083">Breckinridge, KY</title>
  </path>
  <path id="FIPS_21085" d="m388.81 176.05.302-.459.216-.248.231-.126.044-.005.275.131.121.125.01.05 1.009.383.844-.464.112-.082 1.045.398.275-.109.176-.098.194.017.645.771.162.636-.96 1.595-3.133.513-1.546-.819z">
   <title id="t1084">Grayson, KY</title>
  </path>
  <path id="FIPS_21061" d="m390.37 179.08 3.133-.513 1.253 2.069-.438 1.432-3.046-1.107z">
   <title id="t1085">Edmonson, KY</title>
  </path>
  <path id="FIPS_21227" d="m391.28 180.96 3.046 1.107-.37 1.699-.323.06-.587.68-.306.487-1.009 1.063.012-.405-1.892-.108-.356-.654-.789-1.447.352-2.249 1.537-.045z">
   <title id="t1086">Warren, KY</title>
  </path>
  <path id="FIPS_21031" d="m388.83 178.26 1.546.819.902 1.881-.685.188-1.537.045-.352 2.249-2.803-.635.248-1.892.753-1.137.649-.288z">
   <title id="t1087">Butler, KY</title>
  </path>
  <path id="FIPS_21141" d="m385.9 182.81 2.803.635.789 1.447-1.254 3.178-3.033.364-.432-5.413z">
   <title id="t1088">Logan, KY</title>
  </path>
  <path id="FIPS_21219" d="m382.66 183.08 2.115-.059.432 5.413-.554.064-2.257.221z">
   <title id="t1089">Todd, KY</title>
  </path>
  <path id="FIPS_21177" d="m383.87 178.47 2.281 2.445-.248 1.892-1.127.211-2.115.059-.85-1.031.166-.365-.676-.834-.122-.721.735-1.154z">
   <title id="t1090">Muhlenberg, KY</title>
  </path>
  <path id="FIPS_21183" d="m386.26 174.04 1.96.803.586 1.207.022 2.209-1.279 1.23-.649.288-.753 1.137-2.281-2.445.442-1.932.991-.929.56-1.154z">
   <title id="t1091">Ohio, KY</title>
  </path>
  <path id="FIPS_21059" d="m381.24 172.42.361.252 1.473.982.753-1.36.627-.587-.042.41.789-.013.618.64.432.6.006.703-.401.414-.56 1.154-.991.929-3.88-1.239z">
   <title id="t1092">Daviess, KY</title>
  </path>
  <path id="FIPS_21149" d="m380.43 175.3 3.88 1.239-.442 1.932-1.956.502-1.013-2.241-1.308-.892z">
   <title id="t1093">McLean, KY</title>
  </path>
  <path id="FIPS_21107" d="m380.9 176.73 1.013 2.241-.735 1.154.122.721.676.834-.166.365-.69.387-1.164.451-1.666-.429-1.574-2.486 1.799-1.403 1.249-.653z">
   <title id="t1094">Hopkins, KY</title>
  </path>
  <path id="FIPS_21047" d="m381.81 182.05.85 1.031-.264 5.639-3.119.325-.541.062.048-1.104-.071-3.191-.794-.396.371-1.957 1.666.429 1.164-.451z">
   <title id="t1095">Christian, KY</title>
  </path>
  <path id="FIPS_21221" d="m377.92 184.41.794.396.071 3.191-.048 1.104-1.627.19.004-.397-1.676-.032-.601.036-.486-.856-.603-1.519 2.758-1.441z">
   <title id="t1096">Trigg, KY</title>
  </path>
  <path id="FIPS_21143" d="m373.08 182.93.951-.504.555.018.797 1.325 1.123 1.312-2.758 1.441-.968-1.415z">
   <title id="t1097">Lyon, KY</title>
  </path>
  <path id="FIPS_21033" d="m376.71 179.97 1.574 2.486-.371 1.957-1.414.672-1.123-1.312-.797-1.325-.555-.018 2.777-2.84z">
   <title id="t1098">Caldwell, KY</title>
  </path>
  <path id="FIPS_21233" d="m379.59 175.84 1.308.892-1.136 1.182-1.249.653-1.799 1.403.091-.38-1.446-1.191 1.829-2.225z">
   <title id="t1099">Webster, KY</title>
  </path>
  <path id="FIPS_21101" d="m379.7 172 1.546.415-.815 2.885-.839.54-2.402.334-2.241-3.249 2.286-.181z">
   <title id="t1100">Henderson, KY</title>
  </path>
  <path id="FIPS_21225" d="m374.04 174.34.901-1.419 2.241 3.249-1.829 2.225-1.327-.22-.805-.834-.082-.148-.216-.586-.006-.014-.053-.292-.005-.014.014-.09.054-.144.013-.028.082-.139.163-.307.008-.005.469-.341.122-.132.076-.139.049-.131z">
   <title id="t1101">Union, KY</title>
  </path>
  <path id="FIPS_21055" d="m375.36 178.4 1.446 1.191-2.777 2.84-.951.504-1.951-3.205.256-.341.172-.159.009-.004.049-.032.244-.148.022-.004.064-.019.175-.049.212-.045 1.407-.298.103-.023.193-.22v-.208z">
   <title id="t1102">Crittenden, KY</title>
  </path>
  <path id="FIPS_21139" d="m371.12 179.73 1.951 3.205-.3 2.177-2.516-.329-.865-.643.743.079.076-.013.235-.104.121-.334.149-.716-.288-.64-.126-.121-.136-.077-.428-.514-.087-.279.006-.086v-.005l.289-1.27.053-.127.131-.17.091-.064.072-.055.175-.08.063-.027z">
   <title id="t1103">Livingston, KY</title>
  </path>
  <path id="FIPS_21035" d="m370.51 188.31 3.84-.265.486.856.37 2.33-4.475.311z">
   <title id="t1104">Calloway, KY</title>
  </path>
  <path id="FIPS_21157" d="m370.26 184.78 2.516.329.968 1.415.603 1.519-3.84.265-.185-2.487z">
   <title id="t1105">Marshall, KY</title>
  </path>
  <path id="FIPS_21083" d="m370.32 185.82.185 2.487.221 3.232-.279.018-3.079.222-.234-3.508-.167-2.243z">
   <title id="t1106">Graves, KY</title>
  </path>
  <path id="FIPS_21145" d="m365.52 182.49 3.872 1.646.865.643.062 1.041-3.353.208-.036-.099-1.465-3.421z">
   <title id="t1107">McCracken, KY</title>
  </path>
  <path id="FIPS_21039" d="m366.97 186.03.167 2.243-3.187.078-.59-.311-.005-.005v-.297l.005-.005.284-.162.006-.004.386-1.289 2.898-.347z">
   <title id="t1108">Carlisle, KY</title>
  </path>
  <path id="FIPS_21007" d="m365.47 182.51 1.465 3.421-2.898.347-.365-.47-.481-1.081z">
   <title id="t1109">Ballard, KY</title>
  </path>
 </g>
</svg>