<svg id="svg9559" width="555.22" height="351.67" xmlns="http://www.w3.org/2000/svg" viewBox="314.56988525390625 238.63999938964844 57.880096435546875 50.82402038574219">
 <g id="stylegroup" fill="#d0d0d0" stroke="#000" stroke-width=".1">
  <path id="FIPS_22103" d="m357.12 267.65 4.61.307 1.852 2.551.019.017.072.073.69 1.402.017.239-.103.261-.028.108.009.069.353.67.108.208.242.283.082.095.028.018.04.027.027.019.021-.005.515-.031-1.072.44-.072-.045-.619-.202-2.175-.172-.258.1-1.045.627-1.236-.469-1.554-.324z">
   <title id="t1110">St. Tammany, LA</title>
  </path>
  <path id="FIPS_22117" d="m361.52 263.63 1.185-.081.023.4-.136.681-.111.248-.069.009-.09.013-.026.028-.145.603-.167.824-.134.68-.123.921-4.61-.307-.005-.23-.802-1.91-.347-.289-.081-1.221.969-.059z">
   <title id="t1111">Washington, LA</title>
  </path>
  <path id="FIPS_22081" d="m320.99 249.52.469.005 2.642 1.054.13.127.265.4.208.65.005.058-.059.748-1.014 1.2-.455.206h-.438l-.319-.113-.06-.427-.982-.725-.117-.144-.69-1.074-.419-1.383-.724-.545z">
   <title id="t1112">Red River, LA</title>
  </path>
  <path id="FIPS_22013" d="m327.26 244.83 1.181 1.664-.275 3.974-1.349.032-2.716.076-2.642-1.054.541-2.267 1.474-.045.956-.609-.015-.32-.378-1.348z">
   <title id="t1113">Bienville, LA</title>
  </path>
  <path id="FIPS_22061" d="m328.87 242.52.892-.026.464.054.352.077 1.686.933.045 1.127.036 1.125-2.24.079.027.557-1.685.051-1.181-1.664z">
   <title id="t1114">Lincoln, LA</title>
  </path>
  <path id="FIPS_22049" d="m328.44 246.49 1.685-.051-.027-.557 2.24-.079.041 1.038.063.158 1.108 1.023.018.558.063 1.699-5.466.185z">
   <title id="t1115">Jackson, LA</title>
  </path>
  <path id="FIPS_22127" d="m328.17 250.47 5.466-.185.109 2.821-.482 1.713-2.804.095.014.609-.041.523-3.808.139.676-2.105.198-.905.019-.158-.072-.956-.231-.833-.393-.726z">
   <title id="t1116">Winn, LA</title>
  </path>
  <path id="FIPS_22021" d="m333.57 248.58 3.016-.116 1.586 1.559.239.32.059.108.027.334-.572.351.257.91.147.298-1.238.626-3.349.13-.109-2.821z">
   <title id="t1117">Caldwell, LA</title>
  </path>
  <path id="FIPS_22073" d="m336.02 242.72 1.762 2.736-1.19 3.011-3.016.116-.018-.558-1.108-1.023-.063-.158-.041-1.038-.036-1.125 1.664-.054.297-.091.112-.077 1.415-1.384z">
   <title id="t1118">Ouachita, LA</title>
  </path>
  <path id="FIPS_22083" d="m342.8 244.24-.106.576-.128 1.713-1.685.09-.406.238-.943 1.123-.49 1.131-.866.911-1.586-1.559 1.19-3.011.396-.36.757-.538.73-.247.668-.335.103-.112.149-.27.099-.306-.013-.05.45.145.473.91z">
   <title id="t1119">Richland, LA</title>
  </path>
  <path id="FIPS_22041" d="m342.51 249.16-.708 4.188-.266-.735-.55-.261-.017.108-.197.334-.399.441-.278.203-.52.144-.162-.207-.261-.401-.392-.397-.276-.176-.158-.049-.147-.298-.257-.91.572-.351-.027-.334-.059-.108-.239-.32.866-.911.49-1.131.943-1.123.406-.238 1.685-.09z">
   <title id="t1120">Franklin, LA</title>
  </path>
  <path id="FIPS_22107" d="m342.51 249.16 1.87-.076.054-.103.189-.135 1.203-.388.491-.082h.064l.141.117.003.28v.012l1.1 1.285-2.24 3.269-1.248 1.65-.108.194-1.817-.172-.41-1.663z">
   <title id="t1121">Tensas, LA</title>
  </path>
  <path id="FIPS_22065" d="m346.65 244.3-.245.825.019.207v.014l.031.045.046.072.009.023 1.203 1.28.076 1.861-1.257.156v-.012l-.003-.28-.141-.117h-.064l-.491.082-1.203.388-.189.135-.054.103-1.87.076.049-2.622.128-1.713z">
   <title id="t1122">Madison, LA</title>
  </path>
  <path id="FIPS_22035" d="m345.54 238.64-.355.573-.113.41.018.104.865 3.92.064.154.012.022.034.04.012.024.023.018.103.09.027.023.343.107.077.176-3.956.523.106-.576.308-.294.103-.314.324-1.245.166-1.429.05-.379.393-1.154.333-.752z">
   <title id="t1123">East Carroll, LA</title>
  </path>
  <path id="FIPS_22123" d="m344.47 238.68-.333.752-.393 1.154-.05.379-.166 1.429-.324 1.245-.103.314-.308.294-1.208.049-.473-.91-.45-.145.396-1.113 1.509-3.096.064-.277z">
   <title id="t1124">West Carroll, LA</title>
  </path>
  <path id="FIPS_22067" d="m342.37 238.77.266-.015-.064.277-1.509 3.096-.396 1.113.013.05-.099.306-.149.27-.103.112-.668.335-.73.247-.757.538-.396.36-1.762-2.736.049-.04.081-.176-.032-.681-.391-1.109.098-1.681z">
   <title id="t1125">Morehouse, LA</title>
  </path>
  <path id="FIPS_22111" d="m335.82 239.03-.098 1.681.391 1.109.032.681-.081.176-.049.04-.222.355-1.415 1.384-.112.077-.297.091-1.664.054-.045-1.127-1.686-.933-.352-.077-.464-.054-.892.026-.109-3.293z">
   <title id="t1126">Union, LA</title>
  </path>
  <path id="FIPS_22027" d="m325.92 239.28 2.839-.053.109 3.293-1.604 2.313-3.223.103.027-.635-.163-1.068-.548.023-.127-3.903z">
   <title id="t1127">Claiborne, LA</title>
  </path>
  <path id="FIPS_22119" d="m320.52 239.42 2.713-.072.127 3.903.548-.023.163 1.068-.027.635.378 1.348.015.32-.956.609-1.474.045-.744.013-.091-1.13-.071-3.404-.113-1.401-.307-.32-.378-.564-.202-.36v-.194l.089-.469z">
   <title id="t1128">Webster, LA</title>
  </path>
  <path id="FIPS_22015" d="m320.18 239.43-.089.469v.194l.202.36.378.564.307.32.113 1.401.071 3.404.091 1.13.744-.013-.541 2.267-.469-.005-.96-1.248-1.208-.644-1.356-4.165-.113-.609-.464-3.209.018-.049.117-.099h.104z">
   <title id="t1129">Bossier, LA</title>
  </path>
  <path id="FIPS_22017" d="m317.03 239.49-.117.099-.018.049.464 3.209.113.609 1.356 4.165 1.208.644.96 1.248-1.558.037-.01-.424-.104-.157-.252-.271-.226-.167-.888-.298-.189-.04-.206.045-.159.1-.058.048-.542.64-.03.19.022.077-.036.112-.383.353-.587.418-.995.018-.14-6.427-.045-2.434-.04-1.789z">
   <title id="t1130">Caddo, LA</title>
  </path>
  <path id="FIPS_22031" d="m319.43 249.55.724.545.419 1.383.69 1.074.117.144.982.725-.91 1.149-4.777.127-1.537-1.717-.351-2.786.995-.018.587-.418.383-.353.036-.112-.022-.077.03-.19.542-.64.058-.048.159-.1.206-.045.189.04.888.298.226.167.252.271.104.157z">
   <title id="t1131">De Soto, LA</title>
  </path>
  <path id="FIPS_22085" d="m316.68 254.7 4.777-.127.036 1.686 1.127-.027.082 2.272 1.104-.032.072 2.245-1.699.048-1.568 1.227-.127.401-.054.704.027.022-.513.135-.114-.667-.076-.423-.329-1.434-1.01-1.465-1.185-1.245z">
   <title id="t1132">Sabine, LA</title>
  </path>
  <path id="FIPS_22069" d="m324.1 250.58 2.716-.076.393.726.231.833.072.956-.019.158-.198.905-.676 2.105 2.866 2.375-2.808 2.304-2.803-.144-.072-2.245-1.104.032-.082-2.272-1.127.027-.036-1.686.91-1.149.06.427.319.113h.438l.455-.206 1.014-1.2.059-.748-.005-.058-.208-.65-.265-.4z">
   <title id="t1133">Natchitoches, LA</title>
  </path>
  <path id="FIPS_22043" d="m326.62 256.18 3.808-.139.041-.523-.014-.609 2.804-.095.126 1.633.36.995.519.722.501.55.476.138-1.167.299-3.574 1.014-.293.04-.334-.117-.075-.054-.149-.664-.163-.815z">
   <title id="t1134">Grant, LA</title>
  </path>
  <path id="FIPS_22059" d="m333.74 253.1 3.349-.13.298 7.762-.871-.09-1.276-1.791-.476-.138-.501-.55-.519-.722-.36-.995-.126-1.633z">
   <title id="t1135">LaSalle, LA</title>
  </path>
  <path id="FIPS_22025" d="m337.09 252.97 1.238-.626.158.049.276.176.392.397.261.401.162.207.52-.144.278-.203.399-.441.197-.334.017-.108.55.261.266.735.41 1.663-1.511.189-.089.081-1.18 1.42-.073.126-.41 1.664-.059.368.05 1.957.037.118.35.491-.612-.302-.226-.056-.193.034-.127.13-.076.198.107.261.132.159.036.086-.212.126-.523-.033-.05-.053-.197-.803v-.432l-.298-7.762">
   <title id="t1136">Catahoula, LA</title>
  </path>
  <path id="FIPS_22029" d="m342.22 255.01 1.817.172-.173.296-.008.01-1.176 2.362-.027.053-.041.087-.004.009-.41 3.361-.266 1.389-.267 2.015-.265.387.032-.311-.753-.609.081-.194.054-.188.294-1.493-.127-.152-.201-.104-.056.014-.37-.051-.522-.139-.249-.157-.248-.343-.35-.491-.037-.118-.05-1.957.059-.368.41-1.664.073-.126 1.18-1.42.089-.081 1.511-.189">
   <title id="t1137">Concordia, LA</title>
  </path>
  <path id="FIPS_22009" d="m336.52 260.65.871.09v.432l.197.803.05.053.523.033.212-.126-.036-.086-.132-.159-.107-.261.076-.198.127-.13.193-.034.226.056.612.302.248.343.249.157.522.139.37.051.056-.014.201.104.127.152-.294 1.493-.054.188-.081.194-.274.343-.624 2.231-4.394.176-.807-1.469.695-.369-.266-1.799-.091-2.461.1-.086.076-.031.046.008.684.321z">
   <title id="t1138">Avoyelles, LA</title>
  </path>
  <path id="FIPS_22079" d="m329.49 258.56.163.815.149.664.075.054.334.117.293-.04 3.574-1.014 1.167-.299 1.276 1.791-.699.446-.684-.321-.046-.008-.076.031-.1.086.091 2.461.266 1.799-.695.369-1.117-.423-2.353 1.441-2.492.166-.099-1.562-.126-3.107-.577-.82-.19-.09-.942-.252z">
   <title id="t1139">Rapides, LA</title>
  </path>
  <path id="FIPS_22115" d="m323.88 260.72 2.803.144.942.252.19.09.577.82.126 3.107.099 1.562-1.709.208-1.716-.004-3.178.085-1.514.226-.041-4.088-.027-.022.054-.704.127-.401 1.568-1.227z">
   <title id="t1140">Vernon, LA</title>
  </path>
  <path id="FIPS_22039" d="m331.11 266.53 2.353-1.441 1.117.423.807 1.469.491 1.023.028.703.013.496-.46 1.393-.464.401-1.695.063-.369.068-.116.131-.353.585-1.541.046.019-.086.071-.073.099-.175.321-.78-.024-.059-.148-.135-.095-2.353-.018-.481z">
   <title id="t1141">Evangeline, LA</title>
  </path>
  <path id="FIPS_22003" d="m328.61 266.69 2.492-.166.036 1.218.018.481.095 2.353.148.135.024.059-.321.78-.099.175-.071.073-1.597.049-.883.464-1.767.271-1.293.224-.059-2.244.924-.037.753-.021-.054-2.596-.055-1.01z">
   <title id="t1142">Allen, LA</title>
  </path>
  <path id="FIPS_22011" d="m326.9 266.9.055 1.01.054 2.596-.753.021-.924.037.059 2.244.009.267-2.827.085-.027-1.127-1.126.027.031 1.132-2.852.076.012-.012.425-.357.045-.112.004-.067-.157-.804-.311-.375-.032-.034v-.005l.126-.451 1.582-2.979.199-.865 1.514-.226 3.178-.085z">
   <title id="t1143">Beauregard, LA</title>
  </path>
  <path id="FIPS_22053" d="m330.92 271.89.252 5.003-1.239.751-2.88.082-.014-.568 1.19-.068-.199-.572-.274-.333-1.177-1.308-1.162-1.501-.009-.297-.009-.267 1.293-.224 1.767-.271.883-.464 1.597-.049z">
   <title id="t1144">Jefferson Davis, LA</title>
  </path>
  <path id="FIPS_22019" d="m325.4 273.08.009.297 1.162 1.501 1.177 1.308.274.333.199.572-1.19.068.014.568-1.474.05-.005-.19-6.617.184-.017.018.008-2.491-.341-2.025 2.852-.076-.031-1.132 1.126-.027.027 1.127z">
   <title id="t1145">Calcasieu, LA</title>
  </path>
  <path id="FIPS_22023" d="m329.93 277.64 1.375-.058.167 4.408.017 1.496-.406-.103-1.031-.342-.934-.406-.513-.221-.789-.374-.373-.15-.015-.003-1.288-.415-1.006-.244-.564-.072-.45.004-2.326.181-.708.094-1.08.163-.542.084-.648.155-.033.013-.062.023-.177.058-.364.194-.221.149-.207.176-.1-2.875 1.285-1.791.017-.018 6.617-.184.005.19 1.474-.05z">
   <title id="t1146">Cameron, LA</title>
  </path>
  <path id="FIPS_22001" d="m330.92 271.89 1.541-.046 2.759-.103.783.527.451 1.478v.284l-1.509 2.01-.874.997-.23.161-.217.1-.198.067-2.132-.436-.122-.036z">
   <title id="t1147">Acadia, LA</title>
  </path>
  <path id="FIPS_22097" d="m339.78 266.8.164.127.426.725.393.969.05.433-.054 1.753-.122.474.446.612.474.676-1.488.072-.085-.067-.558-.199-.668.293-.631.388-1.673.969v-.284l-.451-1.478-.783-.527-2.759.103.353-.585.116-.131.369-.068 1.695-.063.464-.401.46-1.393-.013-.496-.028-.703-.491-1.023z">
   <title id="t1148">St. Landry, LA</title>
  </path>
  <path id="FIPS_22077" d="m340.4 264.57 1.027.266-.032.311.072 1.424.026.072.082.077.067.036 1.217.635 1.781.334.058.027.211.315.344.92-1.609 2.163-2.398.109-.613.023.122-.474.054-1.753-.05-.433-.393-.969-.426-.725-.164-.127z">
   <title id="t1149">Pointe Coupee, LA</title>
  </path>
  <path id="FIPS_22121" d="m345.25 268.99.288.063.086.041 1.938 4.111-1.888.103-.433-.545-1.226-1.331-.374-.279z">
   <title id="t1150">West Baton Rouge, LA</title>
  </path>
  <path id="FIPS_22055" d="m336.45 274.03 1.673-.969.58 3.781-.139.506-1.154-.465-.712-.496-.927-.306-.83-.041z">
   <title id="t1151">Lafayette, LA</title>
  </path>
  <path id="FIPS_22113" d="m338.56 277.34.069 2.961-.718.324-.229.131-.554.379-.402.377-.045.253.207.46.253.492.207.031 1.073.031-.464.42-.06-.032h-.671l-.58.086h-.009l-.596.269-.429.317-.293.081-.026.004-.072.004-.199.014h-.054l-2.817-.369-.649-.091h-.018l-.017-1.496-.167-4.408-1.375.058 1.239-.751.122.036 2.132.436.198-.067.217-.1.23-.161.874-.997.83.041.927.306.712.496z">
   <title id="t1152">Vermilion, LA</title>
  </path>
  <path id="FIPS_22045" d="m338.43 282.78.833-.302.267-.058.374.054 1.767.78.03.049-.02.085-.624.871-.131.081-.437.135-.189-.054-2.163-1.036-.171-.185zm6.783-6.058 1.636.352-.311.713-2.412.314-1.703.217-.906 1.32-1.776 1.682-1.103-1.018-.069-2.961.139-.506.488-.009 1.564-.536.207-.126.15-.04.319-.014.4.086.1.035 1.943.564z">
   <title id="t1153">Iberia, LA</title>
  </path>
  <path id="FIPS_22047" d="m343.64 271.15.374.279 1.226 1.331.433.545 1.888-.103 1.347-.05-.774 3.38-1.294.545-1.636-.352-.01-.17-.121-.293-1.163-1.672-.193-.085-.208-.042-.352.032-.229-.018-.145-.068-.143-.118-.397-.661-.063-.177-.024-.075.024-.155-.028-.675-.049-.252-.153-.365-.708-.672z">
   <title id="t1154">Iberville, LA</title>
  </path>
  <path id="FIPS_22007" d="m349.72 276.4.982 2.025-1.225 2.518-.794 1.181-.243-.928.027-.83-.009-.486-.086-.167-.14-.145-.229-.121h-.117l-.488-.095-.166-.162-.609-1.158-.094-.243.311-.713 1.294-.545z">
   <title id="t1155">Assumption, LA</title>
  </path>
  <path id="FIPS_22099" d="m340.63 271.28.613-.023.708.672.153.365.049.252.028.675-.024.155.024.075.063.177.397.661.143.118.145.068.229.018.352-.032.208.042.193.085 1.163 1.672.121.293.01.17-1.334.073-1.943-.564-.1-.035-.4-.086-.319.014-.15.04-.207.126-1.564.536-.488.009-.58-3.781.631-.388.668-.293.558.199.085.067 1.488-.072-.474-.676zm3.488 6.822 2.412-.314.094.243.609 1.158.166.162.488.095h.117l.229.121.14.145.086.167.009.486-.027.83-1.32-.6-1.852-.856z">
   <title id="t1156">St. Martin, LA</title>
  </path>
  <path id="FIPS_22101" d="m344.12 278.1 1.151 1.637 1.852.856 1.32.6.243.928-2.028 2.037h-.248l-.473-.09-2.222-.482-.091-.437-.067-.365-.153-.487-.825-1.28-.131-.09-1.175-.032-.168.023-1.37.401 1.776-1.682.906-1.32z">
   <title id="t1157">St. Mary, LA</title>
  </path>
  <path id="FIPS_22109" d="m349.48 280.94 1.961-.888.076-.036.149.018 2.767 2.638 2.115 2.172.161.17.067.191.068.602-.283 1.416-1.713-.004-.915 1.023.13.712-2.281.51-5.051-2.371-.281-.221-.381-.402.017-.093.617-.338.758-.438.107-.122-.043-.253-.155-.392-.068-.148-.045-.045-.599-.483 2.028-2.037z">
   <title id="t1158">Terrebonne, LA</title>
  </path>
  <path id="FIPS_22057" d="m354.57 278.38.605.395.973 1.036.578.744.004.078.103.139.136.032 1.248-.064.284-.013.369.086.118.072.031.099.13.905.009.13-.066.241.901 1.329.68.298.014 1.46-.667.82.337.658-.166.622-.123.121-.03.036-.721.596-.037.031-.03.019-.511.274-1.329.442-.063-.004v-.01l-.013-.067.266-.163.238-.044.127-.023.107-.055.276-.134.053-.032.199-.225-.014-.238-.478-.948-.189-.257-.359-.482-.2-.145-.382.06-.216.288-.203.739.283-1.416-.068-.602-.067-.191-.161-.17-2.115-2.172-2.767-2.638-.149-.018-.076.036-1.961.888 1.225-2.518 2.574.062 1.293-.107">
   <title id="t1159">Lafourche, LA</title>
  </path>
  <path id="FIPS_22093" d="m353.24 274.92-.13 1.497-.297.212.22 1.077.154.586.094.198-2.574-.062-.982-2.025z">
   <title id="t1160">St. James, LA</title>
  </path>
  <path id="FIPS_22005" d="m350.33 272.77 2.028 1.893.239.162.054.015.045-.024.605-.613-.064.712-3.515 1.483-1.586.131.774-3.38z">
   <title id="t1161">Ascension, LA</title>
  </path>
  <path id="FIPS_22033" d="m350.54 267.93-.631.939-.725.867.037 1.782.211.528.896.725-1.42.379-1.347.05-1.938-4.111.329-.654.114-.085z">
   <title id="t1162">East Baton Rouge, LA</title>
  </path>
  <path id="FIPS_22037" d="m348.02 264.46 2.583-.145-.334.839.221 1.117.054.721v.942l-4.474.42-.114.085-.329.654-.086-.041-.026-.302.021-.423.162-.506.114-.153.446-.766.324-1.487.157-.892z">
   <title id="t1163">East Feliciana, LA</title>
  </path>
  <path id="FIPS_22091" d="m353.46 264.15.256 4.503-3.804.222.631-.939v-.942l-.054-.721-.221-1.117.334-.839z">
   <title id="t1164">St. Helena, LA</title>
  </path>
  <path id="FIPS_22063" d="m349.91 268.87 3.804-.222.122 2.1.27.676.866 1.199.378.389.131.107.14.063.206.048-.747.254-.253.136-.071.062-.168.371-.14.215-.147.154-.136.086-.113.017-.121-.021-.631-.299-.605.613-.045.024-.054-.015-.239-.162-2.028-1.893-.896-.725-.211-.528-.037-1.782z">
   <title id="t1165">Livingston, LA</title>
  </path>
  <path id="FIPS_22095" d="m355.83 273.23 1.416.623-1.339 2.02-.923.703-.478.198-.117.19.018.238.166 1.178-1.293.107-.094-.198-.154-.586-.22-1.077.297-.212.194-2.209.631.299.121.021.113-.017.136-.086.147-.154.14-.215.168-.371.071-.062.253-.136z">
   <title id="t1166">St. John the Baptist, LA</title>
  </path>
  <path id="FIPS_22089" d="m354.57 278.38-.166-1.178-.018-.238.117-.19.478-.198.923-.703 1.339-2.02.149 2.885.027.446.113.641.072.211.342.528.681.406-.185 1.072-.063.198-.162.5-1.248.064-.136-.032-.103-.139-.004-.078-.578-.744-.973-1.036z">
   <title id="t1167">St. Charles, LA</title>
  </path>
  <path id="FIPS_22105" d="m353.67 264.14 2.209-.141.081 1.221.347.289.802 1.91.005.23.523 6.266-.393-.06-1.416-.623-.206-.048-.14-.063-.131-.107-.378-.389-.866-1.199-.27-.676-.122-2.1-.256-4.503z">
   <title id="t1168">Tangipahoa, LA</title>
  </path>
  <path id="FIPS_22071" d="m359.19 274.24 1.236.469 1.045-.627.258-.1 2.175.172.619.202.072.045-.479.569-1.495.96-.501.599-.5 1.727-1.109-.275-.6-.608-.753-1.024z">
   <title id="t1169">Orleans, LA</title>
  </path>
  <path id="FIPS_22087" d="m362.12 276.53.068.284.108.275.072.123.113.075 1.586.808.357.048.252-.03.269-.122.163-.131.063-.203.127-.816-.015-.311.831-.924.387-.189.464.144.293.24-.239.134-.073.073-.107.103.009.217.018.157.658.717.126.095.532.274.126.069-.747 1.248-.433.639-.641.243-.5-.192-1.172-.042-.19.06.046.378.063.113.559.306.267.113.188.036.263-.018.549.473.031.076-.013.05-.068-.099-.311-.248-1.226-.294-.793-.715-.167-.177-1.654-.441-.122.045-.072-.013-.141-.166-.247-.429-.157-.329.5-1.727">
   <title id="t1170">St. Bernard, LA</title>
  </path>
  <path id="FIPS_22075" d="m360.52 277.98 1.109.275.157.329.247.429.141.166.072.013.122-.045 1.654.441.167.177.793.715 1.226.294.311.248.068.099-.208-.126-.355-.193-.97-.045-.221.13-.356.301-.09.311-.112 1.064.008.063.082.091.329.216 2.09 1.104.334-.022.871-.041 2.33.672.599.744.302.418.455.262.42-.189.08.031.082.077.193.393v.012l-.036.176v.009l-.203.465-.351.797-1.023.609-.722-.446-1.554.04-1.244-1.438-.033-.032-.152-.147-.018-.019-.123-.086v-.004l-.048-.018-.334-.122-.244-.09-1.563-.573-.248-.068-.045-.012-.239-.05-.094-.023h-.019l-.049-.005-.236-.017-.332-.028-.635-.572.143-.248.041-.09v-.121l-.014-.068-.248-.865-.007-.037-.074-.036-.103-.053-.145.031-.148.063-.283.176-.177.216-.14.199-.257.026-.108-.072-.148-.157-.163-1.929-.058-.244-.447-.762-.22-.256-.36-.483-.124-.419.209-.865.446-.766">
   <title id="t1171">Plaquemines, LA</title>
  </path>
  <path id="FIPS_22125" d="m341.66 264.76 5.079-.239-.157.892-.324 1.487-.446.766-.114.153-.162.506-.021.423.026.302-.288-.063-.344-.92-.211-.315-.058-.027-1.781-.334-1.217-.635-.067-.036-.082-.077-.026-.072-.072-1.424zm-.986-.533.753.609-1.027-.266z">
   <title id="t1172">West Feliciana, LA</title>
  </path>
  <path id="FIPS_22051" d="m357.25 273.86.393.06 1.554.324-.032 2.109.753 1.024.6.608-.446.766-.209.865.124.419.36.483.22.256.447.762.058.244.163 1.929-.555.185-.68-.298-.901-1.329.066-.241-.009-.13-.13-.905-.031-.099-.118-.072-.369-.086-.284.013.162-.5.063-.198.185-1.072-.681-.406-.342-.528-.072-.211-.113-.641-.027-.446zm3.114 12.972.01.01.311-.06.243-.274.649-.5.095.013.019.037-.01.031-.058.094-.709.527-.608.632-.105.108-.003.004z">
   <title id="t1173">Jefferson, LA</title>
  </path>
 </g>
</svg>