<svg id="svg9559" width="555.22" height="351.67" xmlns="http://www.w3.org/2000/svg" viewBox="505.8550109863281 80.5739974975586 35.595062255859375 19.132003784179688">
 <g id="stylegroup" fill="#d0d0d0" stroke="#000" stroke-width=".1">
  <path id="FIPS_25027" d="m518.7 85.203.04.09.694.707.465-.108.15-.135.751.094.369.045 1.375.559.145.267.067.703.036.72-.112.366-.289.568.64 1.613.252.235.298.098.802.127.274 1.798-2.749.843-.063-.189-2.406.572-.397.082-.315.062-.415-1.654-.604.162-.658-.139-.044-.163.004-.098.238-.609-1.175-1.014-.167-.663-.054-1.104.112-.671-.197-1.073-.614-1.321 3.271-.708z">
   <title id="t1174">Worcester, MA</title>
  </path>
  <path id="FIPS_25017" d="m524.5 83.382.358.861.919.617 1.045.622.748.951-.054.347-.216.486-.37.344-.387.247.049 1.014-.455-.356-.027-.018-.23-.022-.157.022-.501.338.118.185.22.288.127.271-.222.699-.463.414-.623.46-.802-.127-.298-.098-.252-.235-.64-1.613.289-.568.112-.366-.036-.72-.067-.703-.145-.267-1.375-.559-.369-.045-.751-.094-.15.135-.465.108-.694-.707-.04-.09 2.28-.51.14-.031.04-.009 3.111-.717z">
   <title id="t1175">Middlesex, MA</title>
  </path>
  <path id="FIPS_25019" d="m540.11 98.431.085-.045.15-.172.108-.202.072-.262-.044-.261-.051-.09-.099-.091-.091-.072-.053-.045-.009-.049.167.036.198.175.856.97.051.18-.006.135-.004.027-.068.09-.221.167-.122.054-.765.176-.207.04-.533-.036-.906-.18-.121-.054-.086-.072-.05-.104.14-.036.122.027.054.018.473-.018.671-.175z">
   <title id="t1176">Nantucket, MA</title>
  </path>
  <path id="FIPS_25001" d="m534.21 93.149.063.067.19.135.274.153.248.1.605.063.363-.023.965-.099 1.303-.802.482-.325.316-.283.097-.212.02-.109-.113-.374-.176-.46-.081-.18-.297-.423-.963-1.127-.15-.104-.167-.063-.266-.063-.067.014-.126.071-.069.064-.054.095-.031.157.009.068-.532-.207-.031-.037.036-.13.095-.104.162-.09.157-.05.278-.027.447.023.353.077.269.117.312.216.297.297.374.433.298.428.446.771.213.424.306.833.178.618.032.284-.148 1.231-.09.089-.031-.856-.022-.072-.046-.081-.239-.113-.112-.027-.068.014-2.867 1.279-.121.055-2.088 1.807-.333.433-.351-.036-.208-2.51z">
   <title id="t1177">Barnstable, MA</title>
  </path>
  <path id="FIPS_25025" d="m527.57 86.433.456.181.211 1.514-1.645.743-.049-1.014.387-.247.37-.344.216-.486z">
   <title id="t1178">Suffolk, MA</title>
  </path>
  <path id="FIPS_25005" d="m525.84 93.072 2.407-2.127.725 1.581.808 1.47.959.374.428.297 1.005 1.547-.171-.01-.428.063-.175.23-.105.136-.017.031.031.419.044.153.145.298-.829.775-.785.235-1.288-2.042-.392-.365-1.078-.6z">
   <title id="t1179">Bristol, MA</title>
  </path>
  <path id="FIPS_25023" d="m529.14 88.448.878-.271.46.067.091.01.076.05.512.342 1.16 1.289 1.68 2.217.162.37.06.627-.659 1.429-1.388 1.636-1.005-1.547-.428-.297-.959-.374-.808-1.47-.725-1.581z">
   <title id="t1180">Plymouth, MA</title>
  </path>
  <path id="FIPS_25021" d="m528.24 88.128.898.32-.893 2.497-2.407 2.127-1.182-.122-.274-1.798.623-.46.463-.414.222-.699-.127-.271-.22-.288-.118-.185.501-.338.157-.022.23.022.027.018.455.356z">
   <title id="t1181">Norfolk, MA</title>
  </path>
  <path id="FIPS_25009" d="m528.03 80.574.067.27.347.829.54 1.037.559.248-.901 1.87-.612 1.786-.456-.181-.748-.951-1.045-.622-.919-.617-.358-.861.06-.136.509-1.022.122-.127.22-.189.667-.568.869-.645h.004l.074-.031.063-.032.274-.018z">
   <title id="t1182">Essex, MA</title>
  </path>
  <path id="FIPS_25013" d="m517.24 91.819-.238.609-.004.098.044.163.658.139.604-.162.415 1.654-3.466.821-4.633 1.095-.415.094-.352-.635-.045-.117-.108-.573.352-.022-.028-1.429-.18-.775.334-.505.544-.09.123.077.252.838-.144.27.392.199.874.131.925-.014.77-.572 1.681-.695z">
   <title id="t1183">Hampden, MA</title>
  </path>
  <path id="FIPS_25015" d="m516.07 90.805 1.175 1.014-1.645.599-1.681.695-.77.572-.925.014-.874-.131-.392-.199.144-.27-.252-.838-.123-.077-.544.09-.334.505-.031.108-.203.009-.392-.18-.212-.64v-.113l.527-.009-.04-1.149-.063-.965-.114-.184 1.187.667 1.571.04 1.616-.077.476-.207 1.096-.099z">
   <title id="t1184">Hampshire, MA</title>
  </path>
  <path id="FIPS_25003" d="m506.08 87.916 2.235-.483 1.009 2.223.114.184.063.965.04 1.149-.527.009v.113l.212.64.392.18.203-.009.031-.108.18.775.028 1.429-.352.022.108.573.045.117.352.635-4.052.857-.09.022-.216-.437.142-5.688z">
   <title id="t1185">Berkshire, MA</title>
  </path>
  <path id="FIPS_25011" d="m513.53 86.32 1.623-.347.614 1.321.197 1.073-.112.671.054 1.104.167.663-.803-.825-1.096.099-.476.207-1.616.077-1.571-.04-1.187-.667-1.009-2.223.857-.18z">
   <title id="t1186">Franklin, MA</title>
  </path>
  <path id="FIPS_25007" d="m534.83 97.543 1.529.27.121.293.13.541-.009.077-2.69.982-.28-.238.365-1.145.1-.167.279-.343.35-.382.055.004zm-.717-.419-.77.974-.226.256-.631.496-.329.104-.089-.018.436-.446.848-.933.41-.469z">
   <title id="t1187">Dukes, MA</title>
  </path>
 </g>
</svg>