<svg id="svg9559" width="555.22" height="351.67" xmlns="http://www.w3.org/2000/svg" viewBox="455.490966796875 131.63400268554688 46.43402099609375 23.468017578125">
 <g id="stylegroup" fill="#d0d0d0" stroke="#000" stroke-width=".1">
  <path id="FIPS_24001" d="m466.11 136.67.366-.068.301 1.091-1.032 1.767-1.879.103-1.19-.473-1.618 2.227-1.064-.239.782-3.426 1.188-.217z">
   <title id="t1188">Allegany, MD</title>
  </path>
  <path id="FIPS_24023" d="m460.78 137.66-.782 3.426-1.834 2.213-1.614 1.937-1.059-6.612.821-.148z">
   <title id="t1189">Garrett, MD</title>
  </path>
  <path id="FIPS_24037" d="m488.93 150.76.473 1.234-.527 1.149-3.705-.748-.395-.532-.515-.896.004-.24.536-1.644.087-.077.346-.049.185-.015.397.054z">
   <title id="t1190">St. Mary's, MD</title>
  </path>
  <path id="FIPS_24017" d="m481.25 147.19.596 1.072.157-.338.026-.1.046-.058.13-.089.317-.149 1.027-.177 1.221.285.039.072.245.685.5.149.153-.005.109.459-.397-.054-.185.015-.346.049-.087.077-.536 1.644-.004.24.515.896.052.329v.167l-.022.1-3.867-.618-.104-.023-.378-.184-.217-.374-.27-.838.026-.411.154-.554.406-.731.437-.541z">
   <title id="t1191">Charles, MD</title>
  </path>
  <path id="FIPS_24047" d="m499.01 146.81 2.861-.625.05.473.004.338-.009.461-.04.419-.393 2.957-.026.181-.032.125-.056.207-.033.149-.159.495-3.672 1.249.558-1.392-.316-1.155-.918-1.094 2.41-.681.302-.667.05-.303-.217-.607z">
   <title id="t1192">Worcester, MD</title>
  </path>
  <path id="FIPS_24045" d="m495.18 146.2.135.486.108.369.116.407.303-.05.689-.117.036-.004.293-.055.586-.112.206-.041.502-.094.037-.006.137-.027.159-.03.379-.086.145-.034.364.53.217.607-.05.303-.302.667-2.41.681-2.362 1.049-.587-.203.019-.968.306-2.001.063-.118.208-.117.233-.212z">
   <title id="t1193">Wicomico, MD</title>
  </path>
  <path id="FIPS_24043" d="m468.84 136.16 6.099-1.154-.145.708-.148.4-.081.137-.353.228-.025.14-.078.938-.023 1.208-.184 1.762-.387.045-1.461-2.006-2.228-1.23-.166-.184-.45-.326-.361-.135-.364-.04-.334-.009-.059.022-.068.077-.256.405-.348.641-.117.014-.523-.104-.301-1.091z">
   <title id="t1194">Washington, MD</title>
  </path>
  <path id="FIPS_24009" d="m488.93 150.76-3.114-1.764-.109-.459-.662-2.682.049-.108.27-.234.248-.028.374.536.686-.03.004.171.059.27.513 1.745.046.126.157.289.19.252.446.324.834.672.036.067.045.267z">
   <title id="t1195">Calvert, MD</title>
  </path>
  <path id="FIPS_24041" d="m491.79 142.18.095.306-.12 1.839-.101.405.032.045.527.443.27.062-1.906.951.031-.058-.139-.253-1.019-.811-.167.019-.545.193-.032.023-.103.238v.131l.158.149.017.131-.153.139-.112-.171-.114-.852.009-.28.192-.747.021-.032.261-.311.699-.054z">
   <title id="t1196">Talbot, MD</title>
  </path>
  <path id="FIPS_24011" d="m491.79 142.18 1.343-3.282 1.79 6.373-2.43.009-.27-.062-.527-.443-.032-.045.101-.405.12-1.839z">
   <title id="t1197">Caroline, MD</title>
  </path>
  <path id="FIPS_24029" d="m490.04 136.51 2.272-.546.284 1.009.18.636-1.289.22-.821.231-.329.144-.383.486-.672 1.686-.418.199-.307-.009-.586-.599-.014-.262.036-.207.415-1.93.113-.193.473-.636z">
   <title id="t1198">Kent, MD</title>
  </path>
  <path id="FIPS_24510" d="m485.33 139.56-.91-.064-.767-.253-.188-1.222h1.856z">
   <title id="t1199">Baltimore, MD</title>
  </path>
  <path id="FIPS_24033" d="m482.08 141.38.536.269 1.695 1.236.37.825.365 2.149.662 2.682-.153.005-.5-.149-.245-.685-.039-.072-1.221-.285-1.027.177-.317.149-.13.089-.046.058-.026.1-.157.338-.596-1.072.243-1.124-.005-.057 1.074-1.686-1.173-.604z">
   <title id="t1200">Prince George's, MD</title>
  </path>
  <path id="FIPS_24003" d="m485.33 139.56.019.002 1.198 1.141.586 1.077.067.14-.359 1.006-.249.797-.365 1.635.087.286.066.113.289.238-.686.03-.374-.536-.248.028-.27.234-.049.108-.365-2.149-.37-.825-1.695-1.236 1.095-1.694.713-.459z">
   <title id="t1201">Anne Arundel, MD</title>
  </path>
  <path id="FIPS_24027" d="m481.57 138.58 2.144 1.37-1.095 1.694-.536-.269-.162.121-.424.023-.113-.036-2.068-1.407-.474-.486-.198-.258-.009-.03.018-.069.123-.134.008-.009z">
   <title id="t1202">Howard, MD</title>
  </path>
  <path id="FIPS_24031" d="m478.77 139.1-.123.134-.018.069.009.03.198.258.474.486 2.068 1.407.113.036.424-.023.162-.121-.69 2.343-.513-.266-.551.897-2.347-1.176-.469.053-.483.023-.355-.023-.019-.008-.639-.429-.063-.045h-.006l-.057-.076-.069-.22-.003-.01.012-.117.024-.162.004-.059.041-.108.396-.626z">
   <title id="t1203">Montgomery, MD</title>
  </path>
  <path id="FIPS_24035" d="m491.79 142.18-2.199 1.505-.312-3.304.672-1.686.383-.486.329-.144.821-.231 1.289-.22.36 1.284z">
   <title id="t1204">Queen Anne's, MD</title>
  </path>
  <path id="FIPS_24015" d="m487.8 132.35 3.345-.716 1.158 4.331-2.272.546-1.169-2.015-2.004-1.942z">
   <title id="t1205">Cecil, MD</title>
  </path>
  <path id="FIPS_24025" d="m486.8 132.57.063-.013 2.004 1.942.385 1.127.014.058-.965 1.135-.379.448-.406.445-.266-.175-.234-.168-.049-.116-.884-1.051-.59-.446-.582-.176-.202.041-.262-.207-.405-.605-.095-.225-.325-1.348z">
   <title id="t1206">Harford, MD</title>
  </path>
  <path id="FIPS_24005" d="m481.52 133.67 2.099-.437.325 1.348.095.225.405.605.262.207.202-.041.582.176.59.446.884 1.051.049.116h-.049l-.167.077-.234.78-.098.563.17.086.056-.019-.011.095-.031.105-.267.45-.139.167-.608-.059-.284-.055-.019-.002-.009-1.539h-1.856l.188 1.222.767.253-.713.459-2.144-1.37-.383-1.343.157-1.019z">
   <title id="t1207">Baltimore Co., MD</title>
  </path>
  <path id="FIPS_24013" d="m481.52 133.67-.181 2.547-.157 1.019.383 1.343-2.786.51.203-1.479.036-.396-.009-.027-1.208-.883-.817-.741.387-1.041 2.097-.424z">
   <title id="t1208">Carroll, MD</title>
  </path>
  <path id="FIPS_24021" d="m475.03 134.99 2.342-.464-.387 1.041.817.741 1.208.883.009.027-.036.396-.203 1.479-.008.009-2.48 2.267-2.393-.839.184-1.762.023-1.208.078-.938.025-.14.353-.228.081-.137.148-.4.145-.708z">
   <title id="t1209">Frederick, MD</title>
  </path>
  <path id="FIPS_24039" d="m494.47 150.64 2.362-1.049.918 1.094.316 1.155-.558 1.392-.33.645-1.186-.032-.874-1.952zm-1.818 2.001.33-.116.126-.262.054-.256.14.328.143.424.073.23-.045.071-.109.045-.148-.045-.274-.197zm.8 2.001-.109-.374-.077-.4-.006-.14.028-.094.185-.131.077-.028.09.023.329.139.067.055.023.121-.131.06-.022.391.067.271.018.243-.027.247-.271.077-.179-.179z">
   <title id="t1210">Somerset, MD</title>
  </path>
  <path id="FIPS_24019" d="m492.49 145.28 2.43-.009.262.934-.47.824-.233.212-.208.117-.063.118-.306 2.001-.019.968-1.172.356-1.366.204-.139-.045-.775-.473-.045-.033-.14-.252-.613-1.204-.32-.707.083-1.496.056-.095.222-.189.09-.05.82-.23zm.162 7.369-.022-.018-.009.006-.086-.149-.072-.253-.072-.537.14-.171.221-.05.333.271.019.077.058.19-.054.256-.126.262z">
   <title id="t1211">Dorchester, MD</title>
  </path>
 </g>
</svg>