<svg id="svg9559" width="555.22" height="351.67" xmlns="http://www.w3.org/2000/svg" viewBox="517.4390258789062 18.52899742126465 37.77783203125 59.41700744628906">
 <g id="stylegroup" fill="#d0d0d0" stroke="#000" stroke-width=".1">
  <path id="FIPS_23003" d="m533.3 31.793-.668-2.172-7.706 2.208-2.592.73-.194-1.523-.005-.04.01-.032.234-.694.657-1.929 1.272-3.696 1.713-4.958.698-.058.83-.018.126.036.152.207.032.055-.063.085-.009.014-.018.301.451 1.452.131.117.072.032 1.348.441.346-.301.938-.893 1.036-.942 1.596-1.393.221-.126.419-.131.392-.036.158.032.721.243 2.1.897 1.889 1.19.027.063 3.006 9.605 1.763 5.697-.141.211-.009.122.284 1.276.153.126-1.941 1.14-1.664.96-.004.045.022.067-.614.348-.649.36-.202-.031-.608-2.065-.145-.608-.279-.991-.271-.857-1.681-5.367-2.267.495z">
   <title id="t1212">Aroostook, ME</title>
  </path>
  <path id="FIPS_23021" d="m533.3 31.793.504 1.803.901 3.074 1.127 3.922-1.086.617.5 1.866.875-.456 1.752 3.34-.347 1.415-2.442 1.276-1.682.852-1.239 1.014-.865.433-.613-1.023-2.655-5.183-.328-2.759.364-1.555-.748-1.361-.604-.685-1.253-4.295-.535-2.259 7.706-2.208z">
   <title id="t1213">Piscataquis, ME</title>
  </path>
  <path id="FIPS_23013" d="m542.12 60.688-.126.28-.085.077-.37.202-.099.023-.166-.05-.757-.815-.024-.036.019-.244.095-.266.495-.613.184-.099.072.054.79 1.145.048.104-.037.17zm-6.525-1.798.081-.216 1.027-.595 2.051.847.455.239-.085.902-.007.053.007.055.143.482.135.329.33.275-.96 1.456-.708.45-.866.154.06-.744.378-.604-.405-.928-.578-.862-.293.136-.315.023-.297-.131-.276-.402-.198-.635.091-.166z">
   <title id="t1214">Knox, ME</title>
  </path>
  <path id="FIPS_23015" d="m533.17 62.121.965-.044-.451-1.285-.05-.69.974-.026.076-.072.091-.239-.091-.807.916-.068-.23.118-.091.166.198.635.276.402.297.131.315-.023.293-.136.578.862.405.928-.378.604-.06.744-.234-.027-.18-.023-.139.18-.039.045-.007.303.063.5-.157.928-.077.108-1.19.532-.284.09h-.212z">
   <title id="t1215">Lincoln, ME</title>
  </path>
  <path id="FIPS_23023" d="m533.17 62.121 1.577 3.836-1.456 1.001-.202-.964-.464-.857-.199.252-.522-.004-.416-.244-.202-.288-.265-1.924.684-.045.307-.24.022-.306.018-.09.081-.149.067-.085.874-.05.069.086z">
   <title id="t1216">Sagadahoc, ME</title>
  </path>
  <path id="FIPS_23005" d="m527.11 65.259-.006.027.027.04.334.135.51.082 2.821.373.243-.333.248-.73.202.288.416.244.522.004.199-.252.464.857.202.964-.599.293-.468-.284-.23-.663-.087-.062-.081.031-.874 1.144-.355.618-.244 1.005v.086l.18.189.05 1.28-.632.541-.4-.135-1.091-.411.184-.527-1.08-.689-2.426-.654.104-2.01.577-1.514.148.234.244.226.063.031.352.054z">
   <title id="t1217">Cumberland, ME</title>
  </path>
  <path id="FIPS_23031" d="m525.14 68.72 2.426.654 1.08.689-.184.527 1.091.411.4.135-.04.897-1.087 5.07-.121.546-.045.09-.24.207-1.261-.505-.35-1.406-.028-.031-1.09-.65-.452-.225-.166-.086-.262-.364-.085-.181-.069-.288-.157-1.758-1.136-2.961z">
   <title id="t1218">York, ME</title>
  </path>
  <path id="FIPS_23001" d="m527.78 59.346.87-.627.604 1.194.851 2.172.912.844.265 1.924-.248.73-.243.333-2.821-.373-.51-.082-.334-.135-.027-.04.006-.027-.145-.343.829-2.244.085-.384v-1.686l-.297-.616-.05-.33z">
   <title id="t1219">Androscoggin, ME</title>
  </path>
  <path id="FIPS_23017" d="m519.81 50.786.703 1.632.198 1.429 1.439 3.384 1.144-1.162 1.501 1.843 2.231.158.496.748.261.528-.253.31.05.33.297.616v1.686l-.085.384-.829 2.244.145.343-.483.482-.352-.054-.063-.031-.244-.226-.148-.234-.577 1.514-.104 2.01-1.776.771-1.842-6.098-1.691-5.377-.135-.433-1.907-5.751-.347-.991.618-.347 1.244.689.126.063.262.004h.004l.108-.099.019-.049z">
   <title id="t1220">Oxford, ME</title>
  </path>
  <path id="FIPS_23011" d="m529.98 56.691.964-.23 2.029-.167.103-.121-.046-.564-.306-.225-.121-.036-.158-.163-.104-.216-.045-.135 1.244-.627.126-.004.064.117.012.198.273.541.611-.085.524 1.149.104 1.131-.461.045-.113 1.659.091.807-.091.239-.076.072-.974.026.05.69.451 1.285-.965.044-.027-.071-.069-.086-.874.05-.067.085-.081.149-.018.09-.022.306-.307.24-.684.045-.912-.844-.851-2.172-.604-1.194z">
   <title id="t1221">Kennebec, ME</title>
  </path>
  <path id="FIPS_23027" d="m535.45 53.64.514-.253.501 1.005 2.839-1.609.257.171-.064.803.019.072.057.081.236.148.303.267.337.892.049.248.009.072-.112.067-.968.69-.402.284-.032.163.121.207.087.117.121.032.077.063.185.202.058.41v.131l-.428 1.262-.455-.239-2.051-.847-1.027.595-.081.216-.916.068.113-1.659.461-.045-.104-1.131-.524-1.149-.611.085-.273-.541z">
   <title id="t1222">Waldo, ME</title>
  </path>
  <path id="FIPS_23009" d="m542.23 57.615.045-.018.077.022.473.14.145.104.103.157.067.649-.125.356-.186.311-.027.027-.063.005-.396-.212-.059-.072-.207-.617-.013-.05.017-.072.059-.023.081-.095.077-.4v-.091l-.023-.08zm2.466-1.965.479-.365.403-.23.524-.05.009.009.175.18.181.289.067.185-.076.306-.005.014-.036.036-.261.297-.37.108-.108.1-.049.117.029.121.025.04.027.01.09.162-.153.351-.186.086-.657-.202-.244-.226-.189-.27-.049-.172.058-.369.225-.401zm-5.134-2.696.253-.112.486-.271.222-.41.58-.433 1.416-.73-.956-1.92-.338-.626 1.05-.537.542-1.541-.745-1.411 2.033-1.063.802 1.509.667 1.42.154.645-.879.459 1.127 2.033.644.974.275.694.04.396.554.992.267.473.248.388.117.126.018.221-.104.194-.063.017-.049-.045-.1-.085-.112.166-.036.249-.032.175-.013.23-.005.072v.104l-.103.014h-.005l-.068-.027-.508-.514-.141-.181-.229-.522-.05-.176.009-.113-.05-.081-.063-.036-.257.032-.35.072-.313.063-.319.139-.05.455-.338.334-.302.208-.203.18-.153.297-.04.032-.06.013-.067-.045-.081-.311-.021-.166-.119-.082-.081.005-.053.04-.033.068-.008.09.13.32.109.392-.036.032-.114.022-.081-.112-.012-.122-.23-.158-.244.294-.137.356.146.725.022.054.036.054.095.072.163-.036.094.099.203.28.014.063.058.311.014.108h-.089l-.173-.045-.008-.023-.136-.09-.459-.22-.28-.073-.972-.189-.402.131-.162.22-.304.032-.026-.054-.28-1.163-.009-.252.024-.032.072-.09.035-.383-.017-.144-.105.063-.009-.072-.049-.248-.337-.892-.303-.267-.236-.148-.057-.081-.019-.072z">
   <title id="t1223">Hancock, ME</title>
  </path>
  <path id="FIPS_23029" d="m544.67 37.991 3.034.14.104-.073.18-.063.058.009.298.225.045.081.748 2.367.072.455-.103.613-.037.063-.15.126.011.136.364.387.808.811.531.28.018.009.032.014.094.022.045-.009.226-.329-.036-.212v-.356l.045-.072.112-.023 1.064.05h.005l.396.289.222.198 1.906 2.321.198.388.239.572.018.09-.238.577-.789 1.627-.208.388-.599.658-.339.072-1.234.59-2.956 3.25-.357.185-.302.135-.081.027-.117-.126-.248-.388-.267-.473-.554-.992-.04-.396-.275-.694-.644-.974-1.127-2.033.879-.459-.154-.645-.667-1.42-.802-1.509.253-.099.72-.361-.464-1.023-1.878-3.286z">
   <title id="t1224">Washington, ME</title>
  </path>
  <path id="FIPS_23019" d="m542.73 39.131 1.878 3.286.464 1.023-.72.361-.253.099-2.033 1.063.745 1.411-.542 1.541-1.05.537.338.626.956 1.92-1.416.73-.58.433-.222.41-.486.271-.253.112-.257-.171-2.839 1.609-.501-1.005-.514.253-2.042-4.138 1.682-.852 2.442-1.276.347-1.415-1.752-3.34-.875.456-.5-1.866 1.086-.617-1.127-3.922-.901-3.074-.504-1.803 1.067-.306 2.267-.495 1.681 5.367.271.857.279.991.145.608.608 2.065.202.031.649-.36.614-.348-.022-.067.004-.045z">
   <title id="t1225">Penobscot, ME</title>
  </path>
  <path id="FIPS_23007" d="m520.9 45.139 1.191 2.569 1.735 3.538 1.122-.045 1.014-.279.198-.104 3.31 5.07.509.803-1.33 2.028-.87.627-.261-.528-.496-.748-2.231-.158-1.501-1.843-1.144 1.162-1.439-3.384-.198-1.429-.703-1.632-.009-.432-.009-.415.121-2.569.126-.689.082-.163.094-.189.222-.401.341-.626.028-.046z">
   <title id="t1226">Franklin, ME</title>
  </path>
  <path id="FIPS_23025" d="m524.93 31.829.535 2.259 1.253 4.295.604.685.748 1.361-.364 1.555.328 2.759 2.655 5.183.613 1.023.865-.433 1.239-1.014 2.042 4.138-1.704.878-.012-.198-.064-.117-.126.004-1.244.627.045.135.104.216.158.163.121.036.306.225.046.564-.103.121-2.029.167-.964.23-.509-.803-3.31-5.07-.198.104-1.014.279-1.122.045-1.735-3.538-1.191-2.569.073-.09.501-.6 1.163-2.812.021-.207-.021-.537-.14-.108-.144-.067h-.433l-.167-.551-.145-.603-.279-1.618.113-.875.14-1.05.005-.013.098-.28.087-.135.012-.009.024-.013.283-.208.5-.775-.103-.825-.153-1.204z">
   <title id="t1227">Somerset, ME</title>
  </path>
 </g>
</svg>