<svg id="svg9559" width="555.22" height="351.67" xmlns="http://www.w3.org/2000/svg" viewBox="343.2579345703125 40.677001953125 77.49404907226562 81.33899688720703">
 <g id="stylegroup" fill="#d0d0d0" stroke="#000" stroke-width=".1">
  <path id="FIPS_26053" d="m347.8 59.828.235-.019.131 2.213 1.168 1.055 3.348-.234.158 2.213 3.345-.243.22 3.028-.635-.311-.613-.207-.38-.081-.486-.099-6.464-1.326-.91-.189-.829-.175-1.812-2.227-1.018-.554.595-.483.176-.099 1.429-.573.554-.157.482-.203.145-.086.274-.261.649-.645z">
   <title id="t1228">Gogebic, MI</title>
  </path>
  <path id="FIPS_26131" d="m356.04 55.821.261 3.421.608-.045.078 1.095-1.108.072.089 1.456.14 1.884.086 1.109-3.345.243-.158-2.213-3.348.234-1.168-1.055-.131-2.213-.235.019.335-.415.144-.117.351-.207.617-.194.41-.064.118.018.166.063 1.808-.306.19-.067.369-.199 3.181-2.006z">
   <title id="t1229">Ontonagon, MI</title>
  </path>
  <path id="FIPS_26115" d="m411.91 114.26 1.106-.248 1.185-.171.081.036 1.068.662-1.073 1.367-.513.918-.406.739-.04.078-.014.058.017.996-2.924.496-.699-4.602z">
   <title id="t1230">Monroe, MI</title>
  </path>
  <path id="FIPS_26091" d="m409.7 114.58.699 4.602-1.109.194-4.544.744-.602-4.719 2.194-.258z">
   <title id="t1231">Lenawee, MI</title>
  </path>
  <path id="FIPS_26059" d="m404.14 115.4.602 4.719-.364.058-3.854.59-.279-.801-.487-4.027 1.108-.102z">
   <title id="t1232">Hillsdale, MI</title>
  </path>
  <path id="FIPS_26023" d="m395.33 116.47 4.426-.525.487 4.027-3.534.415-.91.098z">
   <title id="t1233">Branch, MI</title>
  </path>
  <path id="FIPS_26149" d="m390.89 116.99 4.439-.522.469 4.015-3.498.402-1.253.134z">
   <title id="t1234">St. Joseph, MI</title>
  </path>
  <path id="FIPS_26027" d="m386.53 117.42 4.367-.433.157 4.029-2.582.262-1.555.166z">
   <title id="t1235">Cass, MI</title>
  </path>
  <path id="FIPS_26021" d="m384.95 115.35 1.574 2.074.387 4.024-2.84.293-2.866.275.004-.008.42-.352.526-.505.329-.365.506-.689.175-.334.117-.325.172-.771.491-1.42.19-.4z">
   <title id="t1236">Berrien, MI</title>
  </path>
  <path id="FIPS_26163" d="m415.58 109.03 1.997-.32-.077.693-.035.122-.217.519-.31.207-.262.131-.239.064-.036.007-.411.212-.13.14-.127.257-.207.703.004.044v.042l.055.744-.068 1.176-.167.761-1.068-.662-.081-.036-1.185.171-1.106.248-.71-4.477z">
   <title id="t1237">Wayne, MI</title>
  </path>
  <path id="FIPS_26161" d="m411.2 109.78.71 4.477-2.212.329-3.362.563-.568-4.533 4.382-.658z">
   <title id="t1238">Washtenaw, MI</title>
  </path>
  <path id="FIPS_26075" d="m405.68 110.62.09-.008.568 4.533-2.194.258-3.274.437-.626-4.521 1.11-.127z">
   <title id="t1239">Jackson, MI</title>
  </path>
  <path id="FIPS_26025" d="m396.91 111.72 3.326-.403.626 4.521-1.108.102-4.426.525-.559-4.477z">
   <title id="t1240">Calhoun, MI</title>
  </path>
  <path id="FIPS_26077" d="m392.47 112.22 2.303-.233.559 4.477-4.439.522-.505-4.529z">
   <title id="t1241">Kalamazoo, MI</title>
  </path>
  <path id="FIPS_26159" d="m385.58 112.98 4.804-.522.505 4.529-4.367.433-1.574-2.074z">
   <title id="t1242">Van Buren, MI</title>
  </path>
  <path id="FIPS_26005" d="m389.73 108 2.226-.244.514 4.47-2.082.237-4.804.522.149-4.553z">
   <title id="t1243">Allegan, MI</title>
  </path>
  <path id="FIPS_26015" d="m396.37 107.22.541 4.5-2.141.268-2.303.233-.514-4.47 2.209-.27z">
   <title id="t1244">Barry, MI</title>
  </path>
  <path id="FIPS_26045" d="m398.6 106.97 2.195-.251.56 4.479-1.11.127-3.326.403-.541-4.5z">
   <title id="t1245">Eaton, MI</title>
  </path>
  <path id="FIPS_26065" d="m403.02 106.36 1.923-.247.731 4.506-4.326.572-.56-4.479z">
   <title id="t1246">Ingham, MI</title>
  </path>
  <path id="FIPS_26093" d="m409.35 105.47.798 4.484-4.382.658-.09.008-.731-4.506 2.197-.334z">
   <title id="t1247">Livingston, MI</title>
  </path>
  <path id="FIPS_26125" d="m414.64 103.38.937 5.648-4.38.746-1.05.178-.798-4.484-.176-1.133 1.1-.17 1.094-.235z">
   <title id="t1248">Oakland, MI</title>
  </path>
  <path id="FIPS_26099" d="m415.72 103.17 2.28-.364.442 2.442.05.306-.919 3.16-1.997.32-.937-5.648z">
   <title id="t1249">Macomb, MI</title>
  </path>
  <path id="FIPS_26147" d="m415.15 99.842 4.56-.825.023.081.185.545.073.194.761 1.127-.063 3.605-.068 1.267-.041.315-.032.086-.473.766-.044.054-.159.046-.536.107-.517-.509-.034-.09.168-.405.176-.158.23.05.117-.164.036-.071.014-.112-.023-.122-.081-.095-.045-.022-.388-.095-.108-.023-.144.027-.225.123-.014.008-.05-.306-.442-2.442-2.28.364z">
   <title id="t1250">St. Clair, MI</title>
  </path>
  <path id="FIPS_26087" d="m410.71 99.54-.018-.127.834-1.28 2.163-.351.085.55 1.1-.163.271 1.673.576 3.326-1.081.216-3.273.55z">
   <title id="t1251">Lapeer, MI</title>
  </path>
  <path id="FIPS_26049" d="m408.53 99.846 2.183-.306.657 4.394-1.094.235-1.1.17.176 1.133-2.208.31-.636-4.516z">
   <title id="t1252">Genesee, MI</title>
  </path>
  <path id="FIPS_26155" d="m406.51 101.27.636 4.516-2.197.334-1.923.247-.582-4.394-.014-.13z">
   <title id="t1253">Shiawassee, MI</title>
  </path>
  <path id="FIPS_26037" d="m402.44 101.97.582 4.394-2.232.352-2.195.251-.527-4.479z">
   <title id="t1254">Clinton, MI</title>
  </path>
  <path id="FIPS_26067" d="m393.63 103 4.435-.51.527 4.479-2.222.258-2.208.261z">
   <title id="t1255">Ionia, MI</title>
  </path>
  <path id="FIPS_26139" d="m389.04 102.38.28 2.234.203 1.506.203 1.879-3.997.432-1.056-4.457 1.371-.139 2.032-.231-.136-1.117z">
   <title id="t1256">Ottawa, MI</title>
  </path>
  <path id="FIPS_26121" d="m382.44 99.589 3.934-.338.243 2.236 2.313-.239.116 1.132-1.1.107.136 1.117-2.032.231-1.371.139-.108-.225-.41-.726-.901-1.487-.14-.274-.329-.722-.171-.446z">
   <title id="t1257">Muskegon, MI</title>
  </path>
  <path id="FIPS_26081" d="m388.93 101.25 2.118-.253 2.33-.256.257 2.258.532 4.488-2.209.27-2.226.244-.203-1.879-.203-1.506-.28-2.234z">
   <title id="t1258">Kent, MI</title>
  </path>
  <path id="FIPS_26117" d="m397.46 98.03.613 4.457-4.435.51-.257-2.258-2.33.256-.243-2.24 4.434-.469z">
   <title id="t1259">Montcalm, MI</title>
  </path>
  <path id="FIPS_26057" d="m399.67 97.768 2.203-.27.555 4.341.014.13-4.372.518-.613-4.457z">
   <title id="t1260">Gratiot, MI</title>
  </path>
  <path id="FIPS_26145" d="m408.07 96.547.459 3.299-2.022 1.42-4.08.573-.555-4.341-.021-.203 1.843-.23-.114-1.117 1.092-.118.37.334.676.112 1.185-.148.41.324z">
   <title id="t1261">Saginaw, MI</title>
  </path>
  <path id="FIPS_26151" d="m413.1 93.307 4.69-.848.045.266.167.847.05.163 1.357 4.574.063.158.229.55-4.56.825-.271-1.673-1.1.163-.085-.55z">
   <title id="t1262">Sanilac, MI</title>
  </path>
  <path id="FIPS_26157" d="m409.79 93.054.114.789 3.205-.536.585 4.475-2.163.351-.834 1.28.018.127-2.183.306-.459-3.299-.203-1.514z">
   <title id="t1263">Tuscola, MI</title>
  </path>
  <path id="FIPS_26063" d="m413.1 93.307-3.205.536-.114-.789.015-.063.102-.51.257-.82 1.109-1.938 2.533-1.613.464-.122 1.208.451.482.288.077.072.342.491.789 1.141.127.261.257.78.103.36.144.627z">
   <title id="t1264">Huron, MI</title>
  </path>
  <path id="FIPS_26017" d="m402.9 90.449 1.114-.144.149 1.1 1.226-.145-.068 1.97 1.402 1.348 1.14.455.203 1.514-.757-.095-.41-.324-1.185.148-.676-.112-.37-.334-1.092.118-.404-3.3z">
   <title id="t1265">Bay, MI</title>
  </path>
  <path id="FIPS_26111" d="m399.14 93.284 2.212-.257-.023-.189 1.844-.19.404 3.3.114 1.117-1.843.23.021.203-2.203.27z">
   <title id="t1266">Midland, MI</title>
  </path>
  <path id="FIPS_26073" d="m399.14 93.284.526 4.484-2.213.262-2.218.256-.549-4.461z">
   <title id="t1267">Isabella, MI</title>
  </path>
  <path id="FIPS_26107" d="m390.31 94.293 4.377-.468.549 4.461-4.434.469z">
   <title id="t1268">Mecosta, MI</title>
  </path>
  <path id="FIPS_26123" d="m390.31 94.293.492 4.462.243 2.24-2.118.253-2.313.239-.243-2.236-.465-4.485z">
   <title id="t1269">Newaygo, MI</title>
  </path>
  <path id="FIPS_26127" d="m382.28 95.096 3.632-.33.465 4.485-3.934.338-.672-1.289-.109-.207-.117-.302-.04-.198-.015-.149.006-.185.058-.257.149-.284.23-.365.163-.297.116-.338.05-.235.023-.347z">
   <title id="t1270">Oceana, MI</title>
  </path>
  <path id="FIPS_26011" d="m408.15 87.596.027.482.005.329-.023.586-.779.919-.753.212-.221.027h-.387l-.162.122-.055.063-.18.257-.207.563-.023.104-1.226.145-.149-1.1-1.114.144-.26-2.119 2.584-.329z">
   <title id="t1271">Arenac, MI</title>
  </path>
  <path id="FIPS_26051" d="m402.64 88.33.532 4.318-1.844.19.023.189-2.212.257-.556-4.44 2.204-.27z">
   <title id="t1272">Gladwin, MI</title>
  </path>
  <path id="FIPS_26035" d="m396.35 89.101 2.235-.257.556 4.44-4.454.541-.504-4.512z">
   <title id="t1273">Clare, MI</title>
  </path>
  <path id="FIPS_26133" d="m394.18 89.313.504 4.512-4.377.468-.518-4.489 2.113-.239z">
   <title id="t1274">Osceola, MI</title>
  </path>
  <path id="FIPS_26085" d="m389.79 89.804.518 4.489-4.404.473-.508-4.529 2.037-.172z">
   <title id="t1275">Lake, MI</title>
  </path>
  <path id="FIPS_26105" d="m382.22 90.427 3.182-.19.508 4.529-3.632.33-.492-1.925.114-1.947z">
   <title id="t1276">Mason, MI</title>
  </path>
  <path id="FIPS_26069" d="m404.64 83.557 5.184-.716.048.324.059.92-.113 1.095-.752.87-.171-.05-.15.005-.189.068-.071.049-.122.171-.099.19-.068.279-.041.834-2.923.405z">
   <title id="t1277">Iosco, MI</title>
  </path>
  <path id="FIPS_26129" d="m404.64 83.557.592 4.444-2.584.329-1.853.244-.563-4.444z">
   <title id="t1278">Ogemaw, MI</title>
  </path>
  <path id="FIPS_26143" d="m395.83 84.612 4.399-.482.563 4.444-2.204.27-2.235.257z">
   <title id="t1279">Roscommon, MI</title>
  </path>
  <path id="FIPS_26113" d="m395.83 84.612.523 4.489-2.167.212-2.278.252-.496-4.462z">
   <title id="t1280">Missaukee, MI</title>
  </path>
  <path id="FIPS_26165" d="m386.99 85.581 4.421-.478.496 4.462-2.113.239-2.357.261z">
   <title id="t1281">Wexford, MI</title>
  </path>
  <path id="FIPS_26101" d="m386.99 85.581.447 4.484-2.037.172-3.182.19.865-2.254.081-.735.009-.256.004-1.263z">
   <title id="t1282">Manistee, MI</title>
  </path>
  <path id="FIPS_26001" d="m404.05 79.104 5.146-.707.235.347.446 1.451.01.32-.067 2.326-5.184.716z">
   <title id="t1283">Alcona, MI</title>
  </path>
  <path id="FIPS_26135" d="m399.66 79.677 4.385-.573.586 4.453-4.408.573z">
   <title id="t1284">Oscoda, MI</title>
  </path>
  <path id="FIPS_26039" d="m395.33 80.15 4.332-.473.563 4.453-4.399.482z">
   <title id="t1285">Crawford, MI</title>
  </path>
  <path id="FIPS_26079" d="m395.33 80.15.496 4.462-4.418.491-.426-3.858.026-.45.013-.064.271-.126z">
   <title id="t1286">Kalkaska, MI</title>
  </path>
  <path id="FIPS_26055" d="m389.97 80.637 1.015.608.426 3.858-4.421.478-.337-3.357 1.585-.19z">
   <title id="t1287">Grand Traverse, MI</title>
  </path>
  <path id="FIPS_26019" d="m386.65 82.224.337 3.357-3.813.338.045-.41.01-.23-.081-.351-.081-.181-.252-.482-.069-.194-.009-.297.009-.072.05-.095.14-.108.527-.243.591-.195.139-.153.082-.225.022-.153-.005-.113z">
   <title id="t1288">Benzie, MI</title>
  </path>
  <path id="FIPS_26089" d="m388.24 82.034-1.585.19-2.358.193-.099-1.117.307-.577.743-.686 1.469-.95.176-.487.97-1.862.577-.374.094-.004.158.252-.483 3.511-.035.027-.131.5-.018.131.005.32.036.226z">
   <title id="t1289">Leelanau, MI</title>
  </path>
  <path id="FIPS_26007" d="m408 74.025.735.807.671 1.352-.044.049-.155-.017-.5-.131-.171-.095-.108-.14-.303-.063-.287.203-.062.095-.078.216-.004.045.108.527.122.478.067.14.063.095.081.072.325.266.738.473-5.146.707-.267-1.983.005-.162.041-.09-.284-2.195z">
   <title id="t1290">Alpena, MI</title>
  </path>
  <path id="FIPS_26119" d="m403.54 74.674.284 2.195-.041.09-.005.162.267 1.983-4.385.573-.501-4.412 1.086-.136z">
   <title id="t1291">Montmorency, MI</title>
  </path>
  <path id="FIPS_26137" d="m395.84 75.625 3.322-.36.501 4.412-4.332.473-.472-3.295z">
   <title id="t1292">Otsego, MI</title>
  </path>
  <path id="FIPS_26009" d="m389.92 76.238.107-.014 1.384-.13.099.928.357.158 1.69-.198 1.299-.127.472 3.295-4.038.455-.271.126-.013.064-.026.45-1.015-.608.071-.18.136-.406.068-.257.064-.883.003-.92-.072-.613z">
   <title id="t1293">Antrim, MI</title>
  </path>
  <path id="FIPS_26029" d="m392.53 73.894.631.83.46.004 2.095-.221.122 1.118-.981 1.23-1.299.127-1.69.198-.357-.158-.099-.928-1.384.13-.107.014-.055-.352.104-.477.131-.167.253-.298.134-.139.821-.663.112-.063.465-.176z">
   <title id="t1294">Charlevoix, MI</title>
  </path>
  <path id="FIPS_26141" d="m408 74.025-4.453.649-3.295.455-.378-2.984-.347-2.479.427-.063.83.996 3.083 1.208 1.979.609.266.036.504-.059.145-.162.071.013.465.528z">
   <title id="t1295">Presque Isle, MI</title>
  </path>
  <path id="FIPS_26031" d="m395.72 74.507-.756-6.382.18.262 2.456 1.176.762-.131.406-.167 1.072.253.112.085-.427.063.347 2.479.378 2.984-1.086.136-3.322.36z">
   <title id="t1296">Cheboygan, MI</title>
  </path>
  <path id="FIPS_26047" d="m395.72 74.507-2.095.221-.46-.004-.631-.83.454-.072.555-.184.365-.267.018-.126-.012-.09-.042-.099-.062-.045-.541-.037-.081.064-.468-.095-.295-.257-.192-.207-.258-.549-.08-.222-.082-.374v-.081l.046-.144.27-.595.104-.144.951-1.028 1.239-.627.091-.076.45-.514z">
   <title id="t1297">Emmet, MI</title>
  </path>
  <path id="FIPS_26097" d="m384.18 63.429 5.589-.631 1.109-.131.135 1.118 6.675-.793 1.05.996.32.996 1.136.031-1.889.519-1.893-.411-1.744.988-2.56-.541-1.091-.329-1.902-.388-.694-.036-.136.009-.643.135-.109.041-.077.054-.152.167-.496.693-.091.294-.283.482-.072.094-.289.118-1.528.058z">
   <title id="t1298">Mackinac, MI</title>
  </path>
  <path id="FIPS_26033" d="m403.12 64.344.045-.045.076-.194-.017-.176-.113-.239-.211-.04-.167-.194-.154-.375.064-.071.032-.005 1.59-.144.086.009.415.112 1.053 1.073.074.09.013.05-.239.748-.05.081-.072.073-.31.121-1.529-.004-.289-.208-.13-.171-.148-.167-.019-.189zm-13.354-1.546-.739-6.517.558-.167 1.213-.099.302.383-.09.216-.041.198-.004.162.004 2.047.026.153.06.131.166.189.082.054.095.032 1.703.261 1.948-.396 1.393-.586.202-.18 1.947-.745.491.037.094.013.122.149.077.167-.031 1.713.014 2.464 1.09 1.087.392.374.379.239.852.329.206.031.109.356-.077.289-1.222-.031-.662-.023-.144-.059-.09-.054-1.136-.031-.32-.996-1.05-.996-6.675.793-.135-1.118z">
   <title id="t1299">Chippewa, MI</title>
  </path>
  <path id="FIPS_26095" d="m383.82 60.098-.238-2.366.616.049.398.005 1.451-.122.396-.04.289-.054.24-.086.944-.536 1.11-.667.739 6.517-5.589.631z">
   <title id="t1300">Luce, MI</title>
  </path>
  <path id="FIPS_26153" d="m383.82 60.098.356 3.331.365 3.533-.477.311-1.357-.076-.208.005-.906.139-.207.076-.495.271-.302.379-.063.121-.005.703-.099.708-.099.113-.645.446-.14.063-.036-.009-.171-1.771-.298-1.1-.32-2.226-1.122.099-.221-2.232 2.232-.202-.221-2.231z">
   <title id="t1301">Schoolcraft, MI</title>
  </path>
  <path id="FIPS_26003" d="m383.82 60.098-4.439.451.221 2.231-2.232.202.221 2.232-4.471.432-.405-4.308.324-.289.509-.284.077.004.288.05.126.117.195.397.612.496.082.049.229.018 2.308-.604 1.613-1.451 1.677-1.347 2.294-.636.533-.126z">
   <title id="t1302">Alger, MI</title>
  </path>
  <path id="FIPS_26041" d="m373.12 65.646 4.471-.432 1.122-.099.32 2.226.298 1.1.171 1.771-.487.122-.261-1.28-2.227.978-1.654.694-.103-.496-.086-.23-.176-.257-.131-.077-.112.032-.072.045-.094.167-1.362 3.146-.216.496-.005.018-.572.054-.392-4.467-.279-.351-.199-.726 1.118-.099-.194-2.231z">
   <title id="t1303">Delta, MI</title>
  </path>
  <path id="FIPS_26109" d="m368.84 68.269 2.235-.189.199.726.279.351.392 4.467.572-.054-.166.649-.288.928-.826 1.871-.585.946-.56 1.722-.41-.064-.234-.04-.009-.004-.712-.753-.041-.068-.08-.265-.005-.009-.798-3.836-.09-2.326-.27-.333-.023-.022-.014-.01-.171-.139 1.18-.109-.192-2.253.712-.064z">
   <title id="t1304">Menominee, MI</title>
  </path>
  <path id="FIPS_26043" d="m364.08 65.313 4.476-.388.289 3.344.095 1.122-.712.064.192 2.253-1.18.109-2.131-.573-.122.018-.009-.004-.122-.032-.076-.018-.344-.279-.009-.005-.058-.113.013-.045.005-.009.158-.202.063-.05.144-.203.126-.216-.013-.045-.028-.041-.265-.379-.139-.089z">
   <title id="t1305">Dickinson, MI</title>
  </path>
  <path id="FIPS_26103" d="m364.01 56.731 1.275-.072.795.208.283.081 1.393.753.369.342.077.378.094.284 1.957 2.484.076.085.145.117.143.068.37.081.469.005 1.159-.18.099-.027.405 4.308-1.122.104.194 2.231-1.118.099-2.235.189-.289-3.344-4.476.388-.18-2.218-.266-3.317 1.101-.104-.091-1.086-.022-.009-.451.032z">
   <title id="t1306">Marquette, MI</title>
  </path>
  <path id="FIPS_26071" d="m358.88 63.492 5.016-.397.18 2.218.353 4.219-.212-.141-.343-.166-.224-.036-.02-.005-2.623-.329-1.577.167-.185-.329-2.289-.586-.546-.266-.22-3.028-.086-1.109z">
   <title id="t1307">Iron, MI</title>
  </path>
  <path id="FIPS_26083" d="m357.16 41.813.064-.122.016-.031.136-.163.36-.23.559-.301 1.063-.289.05.13-.004.127-1.275 1.537-.739.662-1.989 1.695-1.793.933-.288.081-.294-.077-.405-.229-.203-.298.064-.162.26-.343.289-.293.7-.473.846-.504 1.92-1.204zm2.33 10.479.414-.731.326-.428.243-.189 1.441-.942.302-.139 1.226-.338.533-.091.436-.027 1.127-.027.405.127.24.13.139.104.086.428-.008.063-.889.289-.104-.009-1.198.252-1.321 1.848-.247.32-.555.257-.622.054-.095-1.104z">
   <title id="t1308">Keweenaw, MI</title>
  </path>
  <path id="FIPS_26061" d="m359.49 52.292 1.879-.153.095 1.104.622-.054-1.686 3.389-.91.185-1.033 1.199.42 5.53-2.776.212-.14-1.884-.089-1.456 1.108-.072-.078-1.095-.608.045-.261-3.421.207-.712.117-.194.614-.572.955-.889.224-.202z">
   <title id="t1309">Houghton, MI</title>
  </path>
  <path id="FIPS_26013" d="m364.01 56.731.154 1.88.451-.032.022.009.091 1.086-1.101.104.266 3.317-5.016.397-.42-5.53 1.033-1.199.91-.185-.179.802-.015.699.015.072.102.248.118.243.211-.018.032-.09.149-.248.433-.604.956-1.023.752-.518.099-.032.099.05z">
   <title id="t1310">Baraga, MI</title>
  </path>
 </g>
</svg>