<svg id="svg9559" width="555.22" height="351.67" xmlns="http://www.w3.org/2000/svg" viewBox="282.8389587402344 28.05699920654297 67.41806030273438 75.64300537109375">
 <g id="stylegroup" fill="#d0d0d0" stroke="#000" stroke-width=".1">
  <path id="FIPS_27055" d="m337.28 98.12.226 1.559.617 2.889-3.668.176-1.113.05-.204-4.476z">
   <title id="t1311">Houston, MN</title>
  </path>
  <path id="FIPS_27045" d="m329.91 98.453 3.236-.135.204 4.476-3.264.139-3.438.14-.163-4.313z">
   <title id="t1312">Fillmore, MN</title>
  </path>
  <path id="FIPS_27071" d="m307.13 40.938-.086-4.336.121-.049.235-.018.694.009.154.027.265.144.081.162.005.086.009.257v.005l.053.036.177.045.847.049.635-.009 1.834.158.055.045.108.198.144.402.018.116-.045.334-.058.099v.059l.031.045.181.131h.329l.815-.027 1.014-.194.663-.23.054-.063.031-.144-.003-.072-.042-.086-.045-.167.015-.059 1-.468.793-.23.41-.009.243.216.307-.009h.018l.464-.049.049 2.718.024 2.199.075 2.231.087.586.098 1.172.019.491-6.072.072.014.672-5.62.121z">
   <title id="t1313">Koochiching, MN</title>
  </path>
  <path id="FIPS_27077" d="m299.31 32.974 1.456-.013-.017-2.366-.009-.83-.009-1.329-.005-.365v-.014l1.677.163.414.247.731.519.468 2.388.217 1.537.549 2.822.401.365.139.126.574.32.247.136.014.013.122.009.436.045.33-.145.086 4.336-6.788.104-.027-2.222-1.132.005-.013-2.205 2.181-.018-.04-2.649-.212.22-.19.113-.085.036-.671.14h-.099l-.145-.036-.397-.244-.189-.365-.036-.622z">
   <title id="t1314">Lake of the Woods, MN</title>
  </path>
  <path id="FIPS_27135" d="m299.31 32.974-.022.221.036.622.189.365.397.244.145.036h.099l.671-.14.085-.036.19-.113.212-.22.04 2.649-2.181.018.013 2.205-2.249.031-6.796-.072-.005-.974-.136-1.234.014-3.602z">
   <title id="t1315">Roseau, MN</title>
  </path>
  <path id="FIPS_27069" d="m282.93 32.902 7.08.072-.014 3.602.136 1.234.005.974-6.712-.05.632-1.753-.379-.861-.167-.496-.622-2.032-.05-.27.01-.19.04-.189z">
   <title id="t1316">Kittson, MN</title>
  </path>
  <path id="FIPS_27125" d="m296.03 46.563.005 1.118-1.118 1.126h-4.507l-1.136-1.121v-1.483l6.751-.005z">
   <title id="t1317">Red Lake, MN</title>
  </path>
  <path id="FIPS_27113" d="m297.03 43.525.104 1.952.009 1.104-1.109-.018-.005-.365-6.751.005-.145-2.696 2.133.005.648.027 1.577.014z">
   <title id="t1318">Pennington, MN</title>
  </path>
  <path id="FIPS_27089" d="m283.42 38.734 6.712.05 6.796.072v1.659l.014.55.076.004.005 2.456-3.539.028-1.577-.014-.648-.027-2.133-.005-5.629-.035.005-.262.284-1.095-.055-3.074-.202-.248-.068-.036z">
   <title id="t1319">Marshall, MN</title>
  </path>
  <path id="FIPS_27119" d="m289.13 43.507.145 2.696v1.483l1.136 1.121h4.507l1.118-1.126-.005-1.118 1.109.018.045 3.128.091.207h.134v2.218l-4.511.023-6.919-.032-.302-2.222-1.135-2.592-.839-3.024-.203-.784v-.031z">
   <title id="t1320">Polk, MN</title>
  </path>
  <path id="FIPS_27107" d="m292.9 52.157v4.457l-1.127.005-5.589-.023-.045-1.118-.158-3.353z">
   <title id="t1321">Norman, MN</title>
  </path>
  <path id="FIPS_27087" d="m297.41 52.134.05 4.471-4.561.009v-4.457z">
   <title id="t1322">Mahnomen, MN</title>
  </path>
  <path id="FIPS_27029" d="m297.14 46.581-.009-1.104 3.087-.014.325 1.885.099 2.55.04 3.336.154 3.335-3.376.036-.05-4.471v-2.218h-.134l-.091-.207z">
   <title id="t1323">Clearwater, MN</title>
  </path>
  <path id="FIPS_27007" d="m299.18 38.825 1.132-.005.027 2.222 6.788-.104.198 6.666.032 2.074.067 1.613.005 1.447-2.227.478-4.521.018-.04-3.336-.099-2.55-.325-1.885-3.087.014-.104-1.952-.005-2.456-.076-.004-.014-.55v-1.659z">
   <title id="t1324">Beltrami, MN</title>
  </path>
  <path id="FIPS_27031" d="m336.7 42.169.46-.383.775-.379h.334l.031.009.041.05.347.77.148.424v.009l.279.564.091.085 1.573-.293 3.415-.27.353-.018.393.072.156.036.451.18.244.334.044.104-.018.175.041.09.226.163.64.306.211.014.216-.104 1.66-.306 1.446-.185-.013.121-.032.036-.496.388-.144.108-1.861 1.095-1.189.65-.677.369-.636.275-.779.261-.6.212-1.654.694-.816.348-1.686 1.103-1.113.925-1.298 1.248-.256-5.242-.158-2.416z">
   <title id="t1325">Cook, MN</title>
  </path>
  <path id="FIPS_27075" d="m336.7 42.169.149 1.622.158 2.416.256 5.242-.194.117-.684.766-.238.28-1.087 1.505-1.412 1.695-.171.184-.356.24-.473.257-1.109 1.14-.275.301-.483.578-.278-7.437-.213-2.713-.054-1.091-.203-4.89.489-.077.238.054.009.014.031.054.126.622-.063.28-.031.081.004.031.627.184 1.347.316 1.389-.099.332-.058.204-.073.134-.072h.006z">
   <title id="t1326">Lake, MN</title>
  </path>
  <path id="FIPS_27061" d="m319 46.739.004.893.055 1.302.153 1.483.121 2.979.054 1.555.144 1.803.033 1.063-6.37.122-.072-3.52-.085-.045-.645-.122-.171-.013-.004.049-.216.189-.1.055-.238-.149-.758-.514-.103-.108-.072-.194v-.32l.017-.036-.023-.23-.342-.599-.135-.122-.203-.031-1.568.744-.217.126-.546-.154-.287-.207-.005-1.447-.067-1.613-.032-2.074 5.62-.121-.014-.672z">
   <title id="t1327">Itasca, MN</title>
  </path>
  <path id="FIPS_27057" d="m300.68 53.234 4.521-.018.073 1.136.107 4.421.018 2.227-1.126.009-3.34.022-.019-2.226-.063-.149-.017-.924v-1.163z">
   <title id="t1328">Hubbard, MN</title>
  </path>
  <path id="FIPS_27021" d="m305.2 53.216 2.227-.478.287.207.546.154.217-.126 1.568-.744.203.031.135.122.342.599.023.23-.017.036v.32l.072.194.103.108.758.514.238.149.1-.055.216-.189.004-.049.171.013.645.122.085.045.131 6.441-5.034.068-.005 1.483.018.756.144.614.086 3.24.009.532-.045.135-.081.023-.022-.131-.059-.095-.69-.464-.302.022-.063.109-.175.112-.425.153-.089-.022-.726-.32-.253-.23-.703-.252-.433-.32-.098-3.033-.036-2.231 1.126-.009-.018-2.227-.107-4.421z">
   <title id="t1329">Cass, MN</title>
  </path>
  <path id="FIPS_27159" d="m304.28 61.009.036 2.231.098 3.033.433.32-3.795.041-.112-4.481v-1.122z">
   <title id="t1330">Wadena, MN</title>
  </path>
  <path id="FIPS_27005" d="m300.84 56.569v1.163l.017.924.063.149.019 2.226v1.122l-4.197.054-4.799-.027-.167-5.561 1.127-.005 4.561-.009z">
   <title id="t1331">Becker, MN</title>
  </path>
  <path id="FIPS_27027" d="m291.77 56.619.167 5.561-.952 1.118-4.475-.022-.005-.722.172-2.803-.109-.298-.374-1.226-.013-1.631z">
   <title id="t1332">Clay, MN</title>
  </path>
  <path id="FIPS_27167" d="m286.51 63.276 4.475.022-.004 4.48h.136l-.01 2.24-.009 1.118-2.803-.018.167-.469.022-.081.018-.261-.027-.226-.343-2.704-1.239-2.984-.383-1.113z">
   <title id="t1333">Wilkin, MN</title>
  </path>
  <path id="FIPS_27111" d="m291.94 62.18 4.799.027 4.197-.054.112 4.481.118 3.375-5.608.018-4.448-.009.01-2.24h-.136l.004-4.48z">
   <title id="t1334">Otter Tail, MN</title>
  </path>
  <path id="FIPS_27137" d="m318.65 37.342.933.004 6.116 3.385.225-.157 1.794-.131.23.419.393.82.04.063.072.1 1.581.536.203 4.89.054 1.091.213 2.713.278 7.437-.404.202-.361.266-1.51 1.294-.23.212-.068.085.06.18.225.352.36.428.099.054-.046.032-.125-.054-.513-.501-.24.018-.63.429-.05.103-.009.095.031.081v.009l.045.05.009.009.009.144-.121.316-.041.04-.044.027-.267.018-.248-.022-.202-.14-.136-1.289-2.064.054-4.692.149-.053-3.336-.033-1.063-.144-1.803-.054-1.555-.121-2.979-.153-1.483-.055-1.302-.004-.893-.019-.491-.098-1.172-.087-.586-.075-2.231-.024-2.199z">
   <title id="t1335">St. Louis, MN</title>
  </path>
  <path id="FIPS_27017" d="m319.62 61.153 4.692-.149 2.064-.054.136 1.289.117 3.159-6.811.217-.067-1.934-.072-.302-.028-.477-.026-.636z">
   <title id="t1336">Carlton, MN</title>
  </path>
  <path id="FIPS_27115" d="m319.82 65.615 6.811-.217.121 3.345.023.559.018.505-1.312.819-1.875 1.231-.003.005-.448.392-.113.149-.112.202-.905 1.812-2.714.077-.109-3.218.789-.032-.057-2.276z">
   <title id="t1337">Pine, MN</title>
  </path>
  <path id="FIPS_27065" d="m316.54 69.121 3.39-.153.057 2.276-.789.032.109 3.218-3.362.049-.086-1.812-.035-1.374.4-.014.357-.374z">
   <title id="t1338">Kanabec, MN</title>
  </path>
  <path id="FIPS_27001" d="m319.57 57.817.053 3.336.005 1.113.026.636.028.477.072.302.067 1.934.114 3.353-3.39.153.009-.338-.027-.847-.929.014-2.348.107-.103-.067-.028-.027-.004-.031-.103-4.255.274-.942-.027-1.875-.059-2.921z">
   <title id="t1339">Aitkin, MN</title>
  </path>
  <path id="FIPS_27035" d="m308.35 67.711.081-.023.045-.135-.009-.532-.086-3.24-.144-.614-.018-.756.005-1.483 5.034-.068.027 1.875-.274.942.103 4.255.004.031.028.027.103.067-.103 1.118-5.062.095-.014-.428.009-.681z">
   <title id="t1340">Crow Wing, MN</title>
  </path>
  <path id="FIPS_27097" d="m305.55 66.845.253.23.726.32.089.022.425-.153.175-.112.063-.109.302-.022.69.464.059.095.022.131-.271.45-.009.681.014.428 5.062-.095.053 2.232h.046l.347.752.072 1.307-2.222.027-3.092.085.743.591-3.357.068z">
   <title id="t1341">Morrison, MN</title>
  </path>
  <path id="FIPS_27153" d="m304.84 66.593.703.252.19 7.392-4.475.063-.095-4.291-.118-3.375z">
   <title id="t1342">Todd, MN</title>
  </path>
  <path id="FIPS_27041" d="m301.17 70.009.095 4.291v.185l-5.59.018-.004-2.236h-.099l-.01-2.24z">
   <title id="t1343">Douglas, MN</title>
  </path>
  <path id="FIPS_27051" d="m291.11 70.018 4.448.009.01 2.24h.099l.004 2.236-4.47.004-.1-3.371z">
   <title id="t1344">Grant, MN</title>
  </path>
  <path id="FIPS_27155" d="m288.3 71.118 2.803.018.1 3.371v2.245l-5.274-.041-.162-.207-.036-.05.126-.432.031-.072.014-.014.018-.023.014-.018.824-.662.312-.203.347-.189.184-.185.631-.937.014-.032.009-.018.009-.027.009-.064.022-.117.032-.279.04-.342.005-.014v-.027l.05-.563z">
   <title id="t1345">Traverse, MN</title>
  </path>
  <path id="FIPS_27011" d="m285.93 76.711 5.274.041h.107l-.009 2.226 1.132.014.117 3.033-.636-.221-.924-.373-.085-.186-.387-.176-1.145-.243-.149-.744-.172-.396-.297-.239-.87-.424-1.325-1.469z">
   <title id="t1346">Big Stone, MN</title>
  </path>
  <path id="FIPS_27151" d="m295.78 78.983 4.473-.027.103 3.358-7.202.027-.609-.316-.117-3.033z">
   <title id="t1347">Swift, MN</title>
  </path>
  <path id="FIPS_27149" d="m295.67 74.503.009 2.249h.095l.008 2.231-3.352.009-1.132-.014.009-2.226h-.107v-2.245z">
   <title id="t1348">Stevens, MN</title>
  </path>
  <path id="FIPS_27121" d="m301.26 74.485.017 2.239h.077l.018 2.228-1.117.004-4.473.027-.008-2.231h-.095l-.009-2.249z">
   <title id="t1349">Pope, MN</title>
  </path>
  <path id="FIPS_27145" d="m305.74 74.237 3.357-.068 1.159 2.763.965 1.744-1.907 1.821-1.114.036-.527-.55-.861.01-2.077.031-.015-1.118-3.343.046-.018-2.228h-.077l-.017-2.239v-.185z">
   <title id="t1350">Stearns, MN</title>
  </path>
  <path id="FIPS_27009" d="m309.09 74.169-.743-.591 3.092-.085 2.222-.027.117 3.38-3.529.086z">
   <title id="t1351">Benton, MN</title>
  </path>
  <path id="FIPS_27095" d="m313.25 68.057 2.348-.107.929-.014.027.847-.009.338.041 1.848-.357.374-.4.014.035 1.374.086 1.812.085 2.258-2.253.045-.117-3.38-.072-1.307-.347-.752h-.046l-.053-2.232z">
   <title id="t1352">Mille Lacs, MN</title>
  </path>
  <path id="FIPS_27059" d="m319.31 74.494.063 2.227 1.091.161.081 1.686-1.303.01-2.605.08h-.545l-.059-1.857-.085-2.258z">
   <title id="t1353">Isanti, MN</title>
  </path>
  <path id="FIPS_27025" d="m322.02 74.417-.367 1.122-.012.204.004.085.023.342.031.253.122.094.433.073.18-.028.713.384.445.842.18.911-.342.874-.24.297-.012.01-.109.099-2.478.072-.05-1.483-.081-1.686-1.091-.161-.063-2.227z">
   <title id="t1354">Chisago, MN</title>
  </path>
  <path id="FIPS_27123" d="m318.8 83.481 1.849-1.199.104 3.006-1.447.077z">
   <title id="t1355">Ramsey, MN</title>
  </path>
  <path id="FIPS_27003" d="m316.09 78.658h.545l2.605-.08 1.303-.01.05 1.483.054 2.231-1.849 1.199-2.672-2.641z">
   <title id="t1356">Anoka, MN</title>
  </path>
  <path id="FIPS_27141" d="m316.03 76.801.059 1.857.036 2.182-.085-.009-.559-.573-.803-.022-.766.027-.131-.032-.915-.523-1.653-1.032-.965-1.744 3.529-.086z">
   <title id="t1357">Sherburne, MN</title>
  </path>
  <path id="FIPS_27171" d="m309.31 80.497 1.907-1.821 1.653 1.032.915.523.131.032.766-.027.803.022.559.573-1.087.554-.126.104-.816 1.554-.117 1.307-2.245.041-2.226.032z">
   <title id="t1358">Wright, MN</title>
  </path>
  <path id="FIPS_27093" d="m304.73 80.024 2.077-.031.861-.01.527.55 1.114-.036.117 3.926-2.235 1.167-2.34.036z">
   <title id="t1359">Meeker, MN</title>
  </path>
  <path id="FIPS_27067" d="m300.26 78.956 1.117-.004 3.343-.046.015 1.118.121 5.602-4.484.055-.009-3.367z">
   <title id="t1360">Kandiyohi, MN</title>
  </path>
  <path id="FIPS_27023" d="m293.16 82.341 7.202-.027.009 3.367-2.15.022.014 1.776-2.336-2.353z">
   <title id="t1361">Chippewa, MN</title>
  </path>
  <path id="FIPS_27163" d="m320.6 80.051 2.478-.072-.139 1.122-.19 1.699.028.424.224.478.196.906-.07.973-.319 1.524-2.05-1.817-.104-3.006z">
   <title id="t1362">Washington, MN</title>
  </path>
  <path id="FIPS_27037" d="m319.31 85.365 1.447-.077 2.05 1.817.654.378.035 1.091-.508 1.127-1.164.04-1.09.406.013.558-2.258-.865-.004-1.122-.366.009-.121-1.117-.041-.947z">
   <title id="t1363">Dakota, MN</title>
  </path>
  <path id="FIPS_27053" d="m316.13 80.84 2.672 2.641.506 1.884-1.353 1.298-1.753-.127-.027-1.122-2.258.059-.018-1.123.117-1.307.816-1.554.126-.104 1.087-.554z">
   <title id="t1364">Hennepin, MN</title>
  </path>
  <path id="FIPS_27139" d="m316.2 86.536 1.753.127.041.947.121 1.117.366-.009.004 1.122-2.23.064-3.552.09 1.28-1.285.041.014.243-.1.771-.604.225-.302-.063-.117.009-.189.463-.734.339-.141z">
   <title id="t1365">Scott, MN</title>
  </path>
  <path id="FIPS_27019" d="m311.65 84.391 2.245-.041.018 1.123 2.258-.059.027 1.122h-.189l-.339.141-.463.734-.009.189.063.117-.225.302-.771.604-.243.1-.041-.014-2.245-.946z">
   <title id="t1366">Carver, MN</title>
  </path>
  <path id="FIPS_27085" d="m309.43 84.423 2.226-.032.086 3.372-1.117.022-1.114.14.01 1.009-1.898.037-.334.004-.018-1.127-.076-2.258z">
   <title id="t1367">McLeod, MN</title>
  </path>
  <path id="FIPS_27143" d="m311.74 87.763 2.245.946-1.28 1.285-.149 1.122-6.396.122-.063-1.114-.036-2.254 1.208-.022.018 1.127.334-.004 1.898-.037-.01-1.009 1.114-.14z">
   <title id="t1368">Sibley, MN</title>
  </path>
  <path id="FIPS_27129" d="m307.19 85.59.076 2.258-1.208.022.036 2.254.063 1.114-1.443.013-.788-.527-4.565-2.542-1.131-.703-.014-1.776 2.15-.022 4.484-.055z">
   <title id="t1369">Renville, MN</title>
  </path>
  <path id="FIPS_27073" d="m292.55 82.025.609.316 2.739 2.785v.577l-1.017 1.113-5.522-.009.014-5.981 1.145.243.387.176.085.186.924.373z">
   <title id="t1370">Lac qui Parle, MN</title>
  </path>
  <path id="FIPS_27173" d="m289.36 86.807 5.522.009 1.017-1.113v-.577l2.336 2.353 1.131.703.009 2.023-2.155.005-.085-1.131h-4.494l-3.295-.018z">
   <title id="t1371">Yellow Medicine, MN</title>
  </path>
  <path id="FIPS_27081" d="m292.64 89.079.126 5.606-3.457-.013.028-4.48.008-1.131z">
   <title id="t1372">Lincoln, MN</title>
  </path>
  <path id="FIPS_27083" d="m297.25 94.69-4.344-.005h-.14l-.126-5.606h4.494l.085 1.131z">
   <title id="t1373">Lyon, MN</title>
  </path>
  <path id="FIPS_27127" d="m303.93 90.724.032 2.79-2.226.031-.005 1.122-3.268.01-1.213.013-.031-4.48 2.155-.005-.009-2.023z">
   <title id="t1374">Redwood, MN</title>
  </path>
  <path id="FIPS_27015" d="m304.72 91.251.295.09.391.194 1.952.987.108.077.221.216.843.866.059 2.014-4.539.072-2.317-1.1.005-1.122 2.226-.031-.032-2.79z">
   <title id="t1375">Brown, MN</title>
  </path>
  <path id="FIPS_27103" d="m312.56 91.116-.279 1.127-.442 1.32.022.379.104.82-.014.09-.388.189-.081.01-.269-.082-.276-.158-.113-.089-1.915-.911-.378-.13-.843-.866-.221-.216-.108-.077-1.952-.987-.391-.194-.295-.09 1.443-.013z">
   <title id="t1376">Nicollet, MN</title>
  </path>
  <path id="FIPS_27079" d="m312.7 89.994 3.552-.09.107 4.493-2.244.054-2.263-.509-.022-.379.442-1.32.279-1.127z">
   <title id="t1377">Le Sueur, MN</title>
  </path>
  <path id="FIPS_27131" d="m316.26 89.904 2.23-.064 2.258.865.095 3.557h-.05l-3.33.099-1.096.036z">
   <title id="t1378">Rice, MN</title>
  </path>
  <path id="FIPS_27049" d="m323.46 87.483.95.807.099.126.023.126.667.663.145.067.392.046 1.239.049.158.036.104.05.089.077.032.049.731 1.091-1.736.058-1.064 1.159.076 2.249-1.179.027-3.345.099-.095-3.557-.013-.558 1.09-.406 1.164-.04.508-1.127z">
   <title id="t1379">Goodhue, MN</title>
  </path>
  <path id="FIPS_27157" d="m328.09 90.67 1.478.563 2.154 2.668-1.951 1.195-2.218.086-.05-1.127-2.137.081-.076-2.249 1.064-1.159z">
   <title id="t1380">Wabasha, MN</title>
  </path>
  <path id="FIPS_27169" d="m331.72 93.901 2.907 2.055 1.312.451 1.347 1.713-4.142.198-3.236.135-.139-3.357z">
   <title id="t1381">Winona, MN</title>
  </path>
  <path id="FIPS_27109" d="m324.18 94.163 1.179-.027 2.137-.081.05 1.127 2.218-.086.139 3.357-3.425.307-2.245-.108z">
   <title id="t1382">Olmsted, MN</title>
  </path>
  <path id="FIPS_27039" d="m320.84 94.262 3.345-.099.053 4.489-3.303.113-.145-4.503z">
   <title id="t1383">Dodge, MN</title>
  </path>
  <path id="FIPS_27147" d="m320.79 94.262.145 4.503h-.035l-3.319.099-.121-4.503z">
   <title id="t1384">Steele, MN</title>
  </path>
  <path id="FIPS_27161" d="m316.36 94.397 1.096-.036.121 4.503-2.244.058-1.109.027-.108-4.498z">
   <title id="t1385">Waseca, MN</title>
  </path>
  <path id="FIPS_27013" d="m314.12 94.451.108 4.498-4.453.1-1.131.017-.058-3.371-.059-2.014.378.13 1.915.911.113.089.276.158.269.082.081-.01.388-.189.014-.09-.104-.82z">
   <title id="t1386">Blue Earth, MN</title>
  </path>
  <path id="FIPS_27165" d="m304.05 95.767 4.539-.072.058 3.371-4.507.063h-.045z">
   <title id="t1387">Watonwan, MN</title>
  </path>
  <path id="FIPS_27033" d="m298.46 94.677 3.268-.01 2.317 1.1.045 3.362-5.513.054h-.094z">
   <title id="t1388">Cottonwood, MN</title>
  </path>
  <path id="FIPS_27101" d="m297.25 94.69 1.213-.013.023 4.506-5.476-.004h-.113l.009-4.494z">
   <title id="t1389">Murray, MN</title>
  </path>
  <path id="FIPS_27117" d="m289.31 94.672 3.457.013h.14l-.009 4.494-3.615-.018z">
   <title id="t1390">Pipestone, MN</title>
  </path>
  <path id="FIPS_27133" d="m289.28 99.161 3.615.018h.113l-.01 4.516-3.736-.013z">
   <title id="t1391">Rock, MN</title>
  </path>
  <path id="FIPS_27105" d="m293.01 99.179 5.476.004h.094l.01 4.494-3.8.023-1.79-.005z">
   <title id="t1392">Nobles, MN</title>
  </path>
  <path id="FIPS_27063" d="m304.09 99.129h.045l.054 4.499-.568.009-4.412.04h-.622l-.01-4.494z">
   <title id="t1393">Jackson, MN</title>
  </path>
  <path id="FIPS_27091" d="m309.77 99.049.082 4.493-1.826.031-3.84.055-.054-4.499 4.507-.063z">
   <title id="t1394">Martin, MN</title>
  </path>
  <path id="FIPS_27043" d="m315.34 98.922.108 4.511-3.006.068-2.582.041-.082-4.493 4.453-.1z">
   <title id="t1395">Faribault, MN</title>
  </path>
  <path id="FIPS_27047" d="m320.9 98.765.143 4.511-4.182.121-1.416.036-.108-4.511 2.244-.058z">
   <title id="t1396">Freeborn, MN</title>
  </path>
  <path id="FIPS_27099" d="m324.24 98.652 2.245.108.163 4.313-.974.036-4.399.157-.23.01-.143-4.511h.035z">
   <title id="t1397">Mower, MN</title>
  </path>
 </g>
</svg>