<svg id="svg9559" width="555.22" height="351.67" xmlns="http://www.w3.org/2000/svg" viewBox="295.7799987792969 140.39999389648438 68.2559814453125 59.02799987792969">
 <g id="stylegroup" fill="#d0d0d0" stroke="#000" stroke-width=".1">
  <path id="FIPS_29143" d="m358.07 187.8 1.749-.248 2.181 2.938-.798 1.789-.698.069.101-.19.016-.032.013-.049.032-.127.009-.035v-.055l-.004-.022v-.005l-.032-.14-.063-.149-.006-.013-.066-.103-.014-.009-.022-.018-.027-.018-.158-.045-.288-.045-.189.026-.064.04-.118.158-.017.023-.013.049-.014.059-.01.045.01.041.01.054.004.009.112.239.014.014.229.328.082 2.096-.541-.833-.204-.086-.747.135-.758.292-1.581.1h-.496l-.177-3.118 2.651-.15-.238-3.005z">
   <title id="t1398">New Madrid, MO</title>
  </path>
  <path id="FIPS_29155" d="m360.03 194.47-.736 2.019-.91 2.466-2.339.176-.342-5.053h.496l1.581-.1.758-.292.747-.135.204.086z">
   <title id="t1399">Pemiscot, MO</title>
  </path>
  <path id="FIPS_29005" d="m295.78 141.51 3.813.04 1.668.014.018 1.288h.234l.013 1.227-.017 1.6-3.633-.014.01-.234v-.018l.003-.023-.026-.067-.681-.663-.635-1.596-.054-.229.112-.104.212-.379-.365-.324-.127.275z">
   <title id="t1400">Atchison, MO</title>
  </path>
  <path id="FIPS_29087" d="m301.5 145.68.927.003.208.402-.026.049-.05.397.131.651.058.098.118.094.517 2.979-.338.383-.008.009-.058.054-.073.027-.375.036-.045.004-.036-.013-.189-.072-.243-.09-.482-.31-1.19-1.077-.063-.091-.005-.121-2.411-3.39v-.036z">
   <title id="t1401">Holt, MO</title>
  </path>
  <path id="FIPS_29165" d="m302.36 155.14 4.952-.045.023.991.046 3.849-1.907-.509-1.776-2.814z">
   <title id="t1402">Platte, MO</title>
  </path>
  <path id="FIPS_29021" d="m307.24 151.36.018.943.049 2.794-4.952.045.391-1.176.117-.167.339-.495.04-.046.712-.63.208-.036.207-.461-.077-.356-.081-.383z">
   <title id="t1403">Buchanan, MO</title>
  </path>
  <path id="FIPS_29003" d="m307.15 147.37.021 1.132.068 2.852-3.029.032-.825-1.037-.517-2.979z">
   <title id="t1404">Andrew, MO</title>
  </path>
  <path id="FIPS_29147" d="m304.06 141.58 2.755.014.359 2.392-.021 3.385h-4.282l-.118-.094-.058-.098-.131-.651.05-.397.026-.049-.208-.402-.927-.003.017-1.6-.013-1.227h-.234l-.018-1.288z">
   <title id="t1405">Nodaway, MO</title>
  </path>
  <path id="FIPS_29227" d="m308.38 141.58 2.326-.055.22 2.435-3.75.031-.359-2.392z">
   <title id="t1406">Worth, MO</title>
  </path>
  <path id="FIPS_29075" d="m307.17 143.99 3.75-.031.041 3.224v1.318l-3.791.006-.021-1.132z">
   <title id="t1407">Gentry, MO</title>
  </path>
  <path id="FIPS_29063" d="m310.96 148.5.189 3.191.009.561-3.903.049-.018-.943-.068-2.852z">
   <title id="t1408">DeKalb, MO</title>
  </path>
  <path id="FIPS_29049" d="m311.16 152.25.028 2.843v.942l-3.859.049-.023-.991-.049-2.794z">
   <title id="t1409">Clinton, MO</title>
  </path>
  <path id="FIPS_29047" d="m307.33 156.08 3.859-.049.04 3.218-.289-.297-.054-.036-.099-.036-.343-.005-.116.058-.059.074-.076.147-.05.226-.132.193-.292.302-1.001.496-1.388.163.046-.605z">
   <title id="t1410">Clay, MO</title>
  </path>
  <path id="FIPS_29025" d="m311.15 151.69 1.109.019 2-.049 1.29-.006.059 2.25.018 1.131-4.439.059-.028-2.843z">
   <title id="t1411">Caldwell, MO</title>
  </path>
  <path id="FIPS_29061" d="m315.4 147.13.072 2.254.081 2.27-1.29.006-2 .049-1.109-.019-.189-3.191v-1.318z">
   <title id="t1412">Daviess, MO</title>
  </path>
  <path id="FIPS_29081" d="m315.16 141.36.203 4.07.036 1.703-4.435.051-.041-3.224-.22-2.435 2.109-.066z">
   <title id="t1413">Harrison, MO</title>
  </path>
  <path id="FIPS_29129" d="m317.27 141.27 1.78-.049.144 2.56.037 1.515-3.872.131-.203-4.07z">
   <title id="t1414">Mercer, MO</title>
  </path>
  <path id="FIPS_29079" d="m319.24 145.3.135 3.028.022.851-3.921.209-.072-2.254-.036-1.703z">
   <title id="t1415">Grundy, MO</title>
  </path>
  <path id="FIPS_29117" d="m319.39 149.18.018 1.141.05 2.29.965-.027-.078 1.148-4.736.177-.059-2.25-.081-2.27z">
   <title id="t1416">Livingston, MO</title>
  </path>
  <path id="FIPS_29033" d="m315.61 153.9 4.736-.177 1.803 2.963-.41.035-.422.163-.908.811-.563.947-.108.067-.396.099-.135-.023-.063-.058-.65-.757-1.059.708-.663-.082-1.036.559-.108-4.124z">
   <title id="t1417">Carroll, MO</title>
  </path>
  <path id="FIPS_29177" d="m315.63 155.04.108 4.124-.73-.09-1.389.202-.549.443.026.049.019.14-.212.181-.108.071-.135.023-.14-.014-.203-.104-1.086-.806-.04-3.218v-.942z">
   <title id="t1418">Ray, MO</title>
  </path>
  <path id="FIPS_29107" d="m315.74 159.16 1.036-.559.663.082 1.059-.708-.072 4.552v.19l-3.366-.041-.006.379-2.771-.05.036-2.944.203.104.14.014.135-.023.108-.071.212-.181-.019-.14-.026-.049.549-.443 1.389-.202z">
   <title id="t1419">Lafayette, MO</title>
  </path>
  <path id="FIPS_29095" d="m312.32 160.06-.036 2.944-.027 1.095-4.876-.099-.032-2.56-.014-.901 1.388-.163 1.001-.496.292-.302.132-.193.05-.226.076-.147.059-.074.116-.058.343.005.099.036.054.036.289.297z">
   <title id="t1420">Jackson, MO</title>
  </path>
  <path id="FIPS_29101" d="m318.42 162.72-.014 4.841-5.539-.015-.617-3.443.027-1.095 2.771.05.006-.379z">
   <title id="t1421">Johnson, MO</title>
  </path>
  <path id="FIPS_29083" d="m318.41 167.56v.567l-.004 3.971-5.295.036-.222-3.025-.018-1.564z">
   <title id="t1422">Henry, MO</title>
  </path>
  <path id="FIPS_29037" d="m307.38 164 4.876.099.617 3.443.018 1.564-1.443.009-.563-.058-.581-.221-2.906-.031-.014-3.39z">
   <title id="t1423">Cass, MO</title>
  </path>
  <path id="FIPS_29185" d="m313.11 172.13 5.295-.036.244 1.74-.027 2.072h-.258l-.32.564-.013.569-.559-.006-1.852-.027.013-.752-2.6-.05.04-1.767z">
   <title id="t1424">St. Clair, MO</title>
  </path>
  <path id="FIPS_29013" d="m307.4 168.8 2.906.031.581.221.563.058 1.443-.009.222 3.025-.037 2.307-.761-.265-.676.057-.401.06-3.773-.06-.054-4.271z">
   <title id="t1425">Bates, MO</title>
  </path>
  <path id="FIPS_29039" d="m313.03 176.2 2.6.05-.013.752 1.852.027.208 3.331-4.66-.009v-.757z">
   <title id="t1426">Cedar, MO</title>
  </path>
  <path id="FIPS_29217" d="m313.07 174.44-.04 1.767-.013 3.394-5.518-.085-.004-.253-.031-4.728-.005-.303 3.773.06.401-.06.676-.057z">
   <title id="t1427">Vernon, MO</title>
  </path>
  <path id="FIPS_29057" d="m313.02 180.36 4.66.009-.005 1.889v1.892l-4.345-.005-.319-.765z">
   <title id="t1428">Dade, MO</title>
  </path>
  <path id="FIPS_29011" d="m313.02 179.6v.757l-.009 3.02-5.45-.1-.059-3.762z">
   <title id="t1429">Barton, MO</title>
  </path>
  <path id="FIPS_29097" d="m313.01 183.38.319.765-.004 3.147-5.712-.014-.049-3.66-.004-.338z">
   <title id="t1430">Jasper, MO</title>
  </path>
  <path id="FIPS_29145" d="m307.61 187.27 5.712.014-.023 3.898-5.638-.144z">
   <title id="t1431">Newton, MO</title>
  </path>
  <path id="FIPS_29119" d="m313.3 191.19-.018 3.241-5.567.089-.031-2.189-.022-1.285z">
   <title id="t1432">McDonald, MO</title>
  </path>
  <path id="FIPS_29109" d="m317.68 184.15.234 2.385.018 1.329.018.947-4.628-.009.009-1.51.004-3.147z">
   <title id="t1433">Lawrence, MO</title>
  </path>
  <path id="FIPS_29009" d="m313.32 188.8 4.628.009.014 1.33h.401l-.004 4.173-2.903.072-2.168.045z">
   <title id="t1434">Barry, MO</title>
  </path>
  <path id="FIPS_29167" d="m318.03 177.04 3.908.22.199 5.007-4.463-.013.005-1.889-.208-3.331z">
   <title id="t1435">Polk, MO</title>
  </path>
  <path id="FIPS_29209" d="m317.93 187.86 2.79-.031.018 2.275.388-.004.004 4.142-2.771.068.004-4.173h-.401l-.014-1.33z">
   <title id="t1436">Stone, MO</title>
  </path>
  <path id="FIPS_29077" d="m322.14 182.27 1.112-.004.024 1.883h.152l.036 2.353-5.553.032-.234-2.385v-1.892z">
   <title id="t1437">Greene, MO</title>
  </path>
  <path id="FIPS_29213" d="m325.17 190.08 1.483-.008.059 4.007-.844.027-4.542.135-.199.004-.004-4.142z">
   <title id="t1438">Taney, MO</title>
  </path>
  <path id="FIPS_29043" d="m323.46 186.5 1.663.181.045 3.397-4.047.023-.388.004-.018-2.275-2.79.031-.018-1.329z">
   <title id="t1439">Christian, MO</title>
  </path>
  <path id="FIPS_29225" d="m325.45 181.29 1.696-.028.04 2.835h.134l.019 2.551-2.218.028-1.663-.181-.036-2.353h-.152l-.024-1.883z">
   <title id="t1440">Webster, MO</title>
  </path>
  <path id="FIPS_29059" d="m323.06 175.92 2.195.018.031 2.273.136-.005.031 3.083-2.204.969-1.112.004-.199-5.007z">
   <title id="t1441">Dallas, MO</title>
  </path>
  <path id="FIPS_29085" d="m318.65 173.84 4.42.009-.008 2.081-1.122 1.335-3.908-.22.013-.569.32-.564h.258z">
   <title id="t1442">Hickory, MO</title>
  </path>
  <path id="FIPS_29015" d="m318.41 168.12 2.213.022.005-.379 1.05-.012 1.186.012.004 3.507.202 2.57-4.42-.009-.244-1.74z">
   <title id="t1443">Benton, MO</title>
  </path>
  <path id="FIPS_29159" d="m318.42 162.53 1.942.04h2.056l.451.024v3.059l-.009 2.118-1.186-.012-1.05.012-.005.379-2.213-.022v-.567l.014-4.841z">
   <title id="t1444">Pettis, MO</title>
  </path>
  <path id="FIPS_29195" d="m322.15 156.69 2.597 1.969-.78 2.122-1.095 1.809-.451-.024h-2.056l-1.942-.04.072-4.552.65.757.063.058.135.023.396-.099.108-.067.563-.947.908-.811.422-.163z">
   <title id="t1445">Saline, MO</title>
  </path>
  <path id="FIPS_29041" d="m324.46 152.5 1.673 1.112-.023 3.751-1.361 1.293-2.597-1.969-1.803-2.963.078-1.148z">
   <title id="t1446">Chariton, MO</title>
  </path>
  <path id="FIPS_29115" d="m324.33 148.12.085-.003.045 4.385-4.033.076-.965.027-.05-2.29-.018-1.141-.022-.851z">
   <title id="t1447">Linn, MO</title>
  </path>
  <path id="FIPS_29211" d="m319.2 143.78 2.737-.121 2.253-.068.013.563.127 3.966-4.958.203-.135-3.028z">
   <title id="t1448">Sullivan, MO</title>
  </path>
  <path id="FIPS_29171" d="m325.47 140.9.177.636-.064 1.23.293 1.321-1.677.067-.013-.563-2.253.068-2.737.121-.144-2.56 2.695-.125z">
   <title id="t1449">Putnam, MO</title>
  </path>
  <path id="FIPS_29197" d="m329.01 140.67.13 3.254-3.258.163-.293-1.321.064-1.23-.177-.636.744-.041z">
   <title id="t1450">Schuyler, MO</title>
  </path>
  <path id="FIPS_29001" d="m329.14 143.92.046.568.157 3.448-4.926.177-.085.003-.127-3.966 1.677-.067z">
   <title id="t1451">Adair, MO</title>
  </path>
  <path id="FIPS_29121" d="m329.34 147.94.605 1.081.063 4.513h-.019l-3.857.08-1.673-1.112-.045-4.385z">
   <title id="t1452">Macon, MO</title>
  </path>
  <path id="FIPS_29175" d="m329.99 153.54.04 3.348.009 1.317-1.148.013-2.781-.847.023-3.751z">
   <title id="t1453">Randolph, MO</title>
  </path>
  <path id="FIPS_29089" d="m326.11 157.37 2.781.847-1.132 3.66-2.262.071-.618-.103-.107-.045-.501-.347-.081-.108-.221-.473v-.087l.78-2.122z">
   <title id="t1454">Howard, MO</title>
  </path>
  <path id="FIPS_29053" d="m323.97 160.78v.087l.221.473.081.108.501.347.107.045.618.103 2.262-.071.613.613-.801 2.208-.195.577-.076.284-1.275.117-.947.027-2.204-.05v-3.059z">
   <title id="t1455">Cooper, MO</title>
  </path>
  <path id="FIPS_29019" d="m330.04 158.2 2.083.004.04 2.284-.148.006-.054.121-.193 1.88-.055 1.897-.509.892.076.717-1.785-1.181-1.122-2.334-.613-.613 1.132-3.66z">
   <title id="t1456">Boone, MO</title>
  </path>
  <path id="FIPS_29051" d="m329.49 164.82 1.785 1.181 2.159.851-1.735 3.134-.559.189-1.59-.18.009-1.091h-.92z">
   <title id="t1457">Cole, MO</title>
  </path>
  <path id="FIPS_29135" d="m328.37 162.49 1.122 2.334-.851 4.084-1.308.009-2.244-2.082-.013-1.132.947-.027 1.275-.117.076-.284.195-.577z">
   <title id="t1458">Moniteau, MO</title>
  </path>
  <path id="FIPS_29141" d="m322.87 165.65 2.204.05.013 1.132 2.244 2.082-.612 2.735-.681.352-1.997.063-1.176-.789-.004-3.507z">
   <title id="t1459">Morgan, MO</title>
  </path>
  <path id="FIPS_29131" d="m328.64 168.9h.92l-.009 1.091 1.59.18.559-.189.009.564.049 1.698h.163l.036 1.884-2.227.023-.905.018-.582-.366-.189-.185-.283-.564-.015-.374-.095-.4-.379-.537-.562-.099.612-2.735z">
   <title id="t1460">Miller, MO</title>
  </path>
  <path id="FIPS_29029" d="m326.72 171.65.562.099.379.537.095.4.015.374.283.564.189.185.582.366.905-.018.05 2.104-.59.437-.7.356-.093.023-.159-.062-.378-.438-.158-.302-.072-.294.019-.027-.014-.045-2.38.036-2.195-.018.008-2.081-.202-2.57 1.176.789 1.997-.063z">
   <title id="t1461">Camden, MO</title>
  </path>
  <path id="FIPS_29169" d="m331.96 174.13 1.658.005.14 5.304-2.23.064-.019-.569-1.698-.788-.028-1.889-.05-2.104z">
   <title id="t1462">Pulaski, MO</title>
  </path>
  <path id="FIPS_29105" d="m325.26 175.94 2.38-.036.014.045-.019.027.072.294.158.302.378.438.159.062.093-.023.7-.356.59-.437.028 1.889 1.698.788.019.569.04 1.712-4.416.049-1.696.028-.031-3.083-.136.005z">
   <title id="t1463">Laclede, MO</title>
  </path>
  <path id="FIPS_29229" d="m327.15 181.27 4.416-.049.103 2.831.068.473.049 2.064-4.443.067-.019-2.551h-.134z">
   <title id="t1464">Wright, MO</title>
  </path>
  <path id="FIPS_29067" d="m333.44 186.56-.098 3.416-6.694.095-1.483.008-.045-3.397 2.218-.028 4.443-.067z">
   <title id="t1465">Douglas, MO</title>
  </path>
  <path id="FIPS_29153" d="m326.65 190.07 6.694-.095.071 3.836-.307.019-3.898.161-2.501.086z">
   <title id="t1466">Ozark, MO</title>
  </path>
  <path id="FIPS_29091" d="m337.87 186.46.073 2.082.04 1.312-.018 2.371.062 1.375-4.61.207-.071-3.836.098-3.416 1.105-.036 1.27.013z">
   <title id="t1467">Howell, MO</title>
  </path>
  <path id="FIPS_29215" d="m333.76 179.44 2.235-.05.551-.022.1 2.268 1.098-.033.131 4.859-2.051.072-1.27-.013-1.105.036-1.659.027-.049-2.064-.068-.473-.103-2.831-.04-1.712z">
   <title id="t1468">Texas, MO</title>
  </path>
  <path id="FIPS_29161" d="m337.47 172.11.964-.032.278 4.72-2.803.094.081 2.501-2.235.05-.14-5.304.816-.383.428-.199 1.212-.072 1.439-.041z">
   <title id="t1469">Phelps, MO</title>
  </path>
  <path id="FIPS_29125" d="m337.24 170.36.226 1.75.04 1.334-1.439.041-1.212.072-.428.199-.816.383-1.658-.005-.036-1.884h-.163l-.049-1.698 1.722-.024 1.41-.076z">
   <title id="t1470">Maries, MO</title>
  </path>
  <path id="FIPS_29151" d="m336.97 164.97.068-.009.203 5.393-2.403.092-1.41.076-1.722.024-.009-.564 1.735-3.134.397-.296.798-.757.072-.132.073-.081.089-.058 1.298-.554.325-.037z">
   <title id="t1471">Osage, MO</title>
  </path>
  <path id="FIPS_29027" d="m332.16 160.49 4.733-.139.081 4.625-.486-.037-.325.037-1.298.554-.089.058-.073.081-.072.132-.798.757-.397.296-2.159-.851-.076-.717.509-.892.055-1.897.193-1.88.054-.121z">
   <title id="t1472">Callaway, MO</title>
  </path>
  <path id="FIPS_29137" d="m335.74 152.61.157 4.138-5.869.135-.04-3.348h.019l1.113-.027-.018-.767 3.335-.081z">
   <title id="t1473">Monroe, MO</title>
  </path>
  <path id="FIPS_29205" d="m333.23 148.92 1.104-.032.099 3.768-3.335.081.018.767-1.113.027-.063-4.513z">
   <title id="t1474">Shelby, MO</title>
  </path>
  <path id="FIPS_29103" d="m329.18 144.49 3.886-.13.017.568.149 3.993-3.29.098-.605-1.081z">
   <title id="t1475">Knox, MO</title>
  </path>
  <path id="FIPS_29199" d="m332.96 140.4.105 3.962-3.886.13-.046-.568-.13-3.254 1.658-.108z">
   <title id="t1476">Scotland, MO</title>
  </path>
  <path id="FIPS_29045" d="m335.17 140.4.203.127.771.582.023.085-.032.262.036.09.982 1.208.407.329.639.046-.72 1.717-4.395.09-.017-.568-.105-3.962z">
   <title id="t1477">Clark, MO</title>
  </path>
  <path id="FIPS_29111" d="m337.48 144.84-.06.631.69 3.286-3.772.134-1.104.032-.149-3.993z">
   <title id="t1478">Lewis, MO</title>
  </path>
  <path id="FIPS_29127" d="m338.11 148.76.983 2.383.585.929-3.938.54-1.303.05-.099-3.768z">
   <title id="t1479">Marion, MO</title>
  </path>
  <path id="FIPS_29173" d="m335.74 152.61 3.938-.54 1.39 1.058-.253.014-2.44 2.041.299 1.705-1.308.004-1.469.049v-.193z">
   <title id="t1480">Ralls, MO</title>
  </path>
  <path id="FIPS_29007" d="m330.03 156.88 5.869-.135v.193l1.469-.049 1.308-.004.401 2.271-2.182 1.19-4.733.139-.04-2.284-2.083-.004z">
   <title id="t1481">Audrain, MO</title>
  </path>
  <path id="FIPS_29139" d="m340.55 159.12.054 1.91.089 1.934-1.5.053.054 1.763-2.208.181-.068.009-.081-4.625 2.182-1.19z">
   <title id="t1482">Montgomery, MO</title>
  </path>
  <path id="FIPS_29163" d="m341.07 153.13 2.375 2.466 2.419 2.15-2.821.148-1.781.055.036 1.15-.743.027-1.478.035-.401-2.271-.299-1.705 2.44-2.041z">
   <title id="t1483">Pike, MO</title>
  </path>
  <path id="FIPS_29113" d="m345.86 157.74.464 1.582-.008.162-.271.419-.01.041.025.09v.005l.536 1.437-2.867.979-1.05.031-.749-.735-.568-.739-.757.018-.054-1.91.743-.027-.036-1.15 1.781-.055z">
   <title id="t1484">Lincoln, MO</title>
  </path>
  <path id="FIPS_29219" d="m340.61 161.03.757-.018.568.739.749.735 1.05-.031.166 4.2-2.691-1.086-.063-.122-.838-.681-.112-.012-.442.139-.501-.113-.054-1.763 1.5-.053z">
   <title id="t1485">Warren, MO</title>
  </path>
  <path id="FIPS_29073" d="m339.75 164.9.126 2.464.144 2.309.059 1.582-1.645.824-.964.032-.226-1.75-.203-5.393 2.208-.181z">
   <title id="t1486">Gasconade, MO</title>
  </path>
  <path id="FIPS_29055" d="m340.08 171.25 2.732-.064.269 6.027-.512.58-1.592.046-.032-1.131-2.232.086-.278-4.72z">
   <title id="t1487">Crawford, MO</title>
  </path>
  <path id="FIPS_29065" d="m342.57 177.8.057 1.421-1.6.018.042 1.14 1.044-.009.049 1.123-4.421.116-1.098.033-.1-2.268-.551.022-.081-2.501 2.803-.094 2.232-.086.032 1.131z">
   <title id="t1488">Dent, MO</title>
  </path>
  <path id="FIPS_29203" d="m337.74 181.6 4.421-.116.371-.009 1.077 3.064.744.992-.934.167-1.095.063.072 2.627-4.452.153-.073-2.082z">
   <title id="t1489">Shannon, MO</title>
  </path>
  <path id="FIPS_29149" d="m337.94 188.54 4.452-.153 1.136.726.109 4.237-2.885.153-.441.013-2.287.082-.062-1.375.018-2.371z">
   <title id="t1490">Oregon, MO</title>
  </path>
  <path id="FIPS_29181" d="m343.53 189.12.74-.022 1.594.04 2.313-.108 1.118 4.012-2.142.116-3.514.199z">
   <title id="t1491">Ripley, MO</title>
  </path>
  <path id="FIPS_29035" d="m344.35 185.54 2.461.46 1.117 1.55.248 1.483-2.313.108-1.594-.04-.74.022-1.136-.726-.072-2.627 1.095-.063z">
   <title id="t1492">Carter, MO</title>
  </path>
  <path id="FIPS_29179" d="m342.63 179.22 1.971-.307 1.932-.094.099 2.439.293 1.874.181-.023.045.569.013.788-.387.649.041.884-2.461-.46-.744-.992-1.077-3.064-.371.009-.049-1.123-1.044.009-.042-1.14z">
   <title id="t1493">Reynolds, MO</title>
  </path>
  <path id="FIPS_29093" d="m347.68 177.03 1.181 1.123.095 4.236-1.857.712-.181.023-.293-1.874-.099-2.439-1.932.094-1.971.307-.057-1.421.512-.58z">
   <title id="t1494">Iron, MO</title>
  </path>
  <path id="FIPS_29221" d="m345.98 171.02 1.501 1.578.198 4.439-4.602.181-.269-6.027z">
   <title id="t1495">Washington, MO</title>
  </path>
  <path id="FIPS_29071" d="m343.9 166.66 2.254-1.315.085 2.243-.252 3.43-3.172.171-2.732.064-.059-1.582-.144-2.309-.126-2.464.442-.139.112.012.838.681.063.122z">
   <title id="t1496">Franklin, MO</title>
  </path>
  <path id="FIPS_29510" d="m351.43 163.71.206 1.038-.661 1.712-.415-.215-.127-.687-.157-1.013.248-.514.406-.306z">
   <title id="t1497">St. Louis, MO</title>
  </path>
  <path id="FIPS_29183" d="m348.71 160.92 1.775.432.257.078.252.121.19.112.978.591.041.072.009.076-.036.298-.022.122-.095-.189-.163-.105-.171.014-.243.163-.171-.064-.618-.37-.099-.103-.721.063-.017.154-.078.175-.063.1-.112.094-.149.013-.357-.067h-.107l-.073.032-.067.075-.235.429-.505 1.091.009.148-.066.126-.163.091-.15.014-.86-.051-.072.024-.131.099-.293.459-.234.105-2.254 1.315-.166-4.2 2.867-.979z">
   <title id="t1498">St. Charles, MO</title>
  </path>
  <path id="FIPS_29189" d="m352.16 162.82-.726.886-.5.015-.406.306-.248.514.157 1.013.127.687.415.215-.045.159-.695 1.807-.077-.293-.635-1.185-1.857.103-1.316.329-.113.207-.085-2.243.234-.105.293-.459.131-.099.072-.024.86.051.15-.014.163-.091.066-.126-.009-.148.505-1.091.235-.429.067-.075.073-.032h.107l.357.067.149-.013.112-.094.063-.1.078-.175.017-.154.721-.063.099.103.618.37.171.064.243-.163.171-.014.163.105z">
   <title id="t1499">St. Louis Co., MO</title>
  </path>
  <path id="FIPS_29099" d="m346.24 167.59.113-.207 1.316-.329 1.857-.103.635 1.185.077.293-.028.036-.045.09-.147.5-.019.054-.009.131.019.541.135.58.117.289.185.253.032.045.026.028.848.825-1.582 1.112-2.281-.315-1.501-1.578z">
   <title id="t1500">Jefferson, MO</title>
  </path>
  <path id="FIPS_29187" d="m347.48 172.6 2.281.315.982.73-1.293 1.417.824.796 1.953 1.762.441-.418.463.343-.341.404-3.931.213-1.181-1.123z">
   <title id="t1501">St. Francois, MO</title>
  </path>
  <path id="FIPS_29186" d="m351.86 172.18 2.854 2.605-1.578 2.754-.463-.343-.441.418-1.953-1.762-.824-.796 1.293-1.417-.982-.73 1.582-1.112z">
   <title id="t1502">Ste. Genevieve, MO</title>
  </path>
  <path id="FIPS_29123" d="m352.8 177.94.036.578.13.721.108 2.98-.734.007-3.376.163-.095-4.236z">
   <title id="t1503">Madison, MO</title>
  </path>
  <path id="FIPS_29223" d="m348.96 182.39 3.376-.163.125 2.967 1.15-.063.027.582-1.411 1.635-4.295.194-1.117-1.55-.041-.884.387-.649-.013-.788-.045-.569z">
   <title id="t1504">Wayne, MO</title>
  </path>
  <path id="FIPS_29023" d="m352.23 187.35.501 1.321.355.784.069.027.094.068.333.639.127.46-.027.252-.091.158-.635 1.772-3.655.208-1.118-4.012-.248-1.483z">
   <title id="t1505">Butler, MO</title>
  </path>
  <path id="FIPS_29069" d="m355.53 190.96.177 3.118.342 5.053-3.407.243-.823.054 1.593-2.772 1.127-.991.072-.113.109-.297-.067-1.024-.1-.134-.919-1.298-.406.013-.275.018.635-1.772z">
   <title id="t1506">Dunklin, MO</title>
  </path>
  <path id="FIPS_29207" d="m356.06 184.45 1.027-.063.197 1.195.207.278.163.262.221.537.158.441.036.695-.13.009.238 3.005-2.651.15-1.942.098.091-.158.027-.252-.127-.46-.333-.639-.094-.068-.069-.027-.355-.784-.501-1.321 1.411-1.635.946-.05.596-.222-.064-.946z">
   <title id="t1507">Stoddard, MO</title>
  </path>
  <path id="FIPS_29017" d="m355.72 178.31.343 6.139-.948.045.064.946-.596.222-.946.05-.027-.582-1.15.063-.125-2.967.734-.007-.108-2.98-.13-.721z">
   <title id="t1508">Bollinger, MO</title>
  </path>
  <path id="FIPS_29157" d="m354.71 174.79 2.723.756 1.748 2.894v.077l-3.465-.199-2.889.208-.036-.578.341-.404z">
   <title id="t1509">Perry, MO</title>
  </path>
  <path id="FIPS_29031" d="m355.72 178.31 3.465.199.009.117.064.258.004.003.288.537.189.283.267.262.126.158.162.365.004.01.005.021.058.217.005.014-.005.017-.04.397-.041.122-.008.013-.01.009-.009.013-.117.06-.369.099.017 1.131-2.694 1.771-1.027.063z">
   <title id="t1510">Cape Girardeau, MO</title>
  </path>
  <path id="FIPS_29201" d="m359.78 182.62.258.369.626 1.172.36.883.681.555-1.888 1.952-1.749.248-.036-.695-.158-.441-.221-.537-.163-.262-.207-.278-.197-1.195z">
   <title id="t1511">Scott, MO</title>
  </path>
  <path id="FIPS_29133" d="m361.71 185.6 1.961.211.365.47-.386 1.289-.006.004-.284.162-.005.005v.297l.005.005.59.311-.396 1.788-1.551.348-2.181-2.938z">
   <title id="t1512">Mississippi, MO</title>
  </path>
 </g>
</svg>