<svg id="svg9559" width="555.22" height="351.67" xmlns="http://www.w3.org/2000/svg" viewBox="341.656982421875 210.7889862060547 36.391021728515625 63.20997619628906">
 <g id="stylegroup" fill="#d0d0d0" stroke="#000" stroke-width=".1">
  <path id="FIPS_28047" d="m372.32 267.07.694 3.466-.839.212-1.767.458-2.168.624-.694-.478-.257-3.534 1.122-.077.051-.387z">
   <title id="t1513">Harrison, MS</title>
  </path>
  <path id="FIPS_28059" d="m372.26 266.32 5.216-.404.572 4.691-.009.189-.794.51-.089.032-2.786-.099-.208-.046-.752-.424-.396-.234-.694-3.466z">
   <title id="t1514">Jackson, MS</title>
  </path>
  <path id="FIPS_28043" d="m358.13 226.31 1.667-.093.027.382 2.785-.184.171 2.452-2.983.211-3.642.23-.121-.572-.068-1.136 1.15-.082 1.077-.247-.027-.374z">
   <title id="t1515">Grenada, MS</title>
  </path>
  <path id="FIPS_28161" d="m362.32 222.61.288 3.809-2.785.184-.027-.382-1.667.093-.274-3.438 2.203-.509z">
   <title id="t1516">Yalobusha, MS</title>
  </path>
  <path id="FIPS_28025" d="m371.03 226.54.135 1.685 2.336-.175.064.077-.177.32-1.532 1.992-.064-.761-3.334.265-.365.05-.334-2.276z">
   <title id="t1517">Clay, MS</title>
  </path>
  <path id="FIPS_28155" d="m366.08 227.85 1.676-.131.334 2.276-.713.429-3.06 1.166-1.338.1-.24-3.39z">
   <title id="t1518">Webster, MS</title>
  </path>
  <path id="FIPS_28017" d="m369.66 223.22 1.118-.082.248 3.407-3.271 1.177-1.676.131-.051-.947.555-.046-.257-3.384z">
   <title id="t1519">Chickasaw, MS</title>
  </path>
  <path id="FIPS_28013" d="m362.32 222.61 2.799-.184 1.208 1.045.257 3.384-.555.046.051.947-3.341.45-.131-1.879z">
   <title id="t1520">Calhoun, MS</title>
  </path>
  <path id="FIPS_28115" d="m369.38 219.46.287 3.75-3.334.256-1.208-1.045-.208-2.827z">
   <title id="t1521">Pontotoc, MS</title>
  </path>
  <path id="FIPS_28081" d="m370.16 217.53 2.091.406.371 4.863-1.845.334-1.118.082-.287-3.75z">
   <title id="t1522">Lee, MS</title>
  </path>
  <path id="FIPS_28145" d="m366.37 216.65 3.714-.258.076 1.136-.788 1.935-4.463.134-.108-1.5-.071-1.132z">
   <title id="t1523">Union, MS</title>
  </path>
  <path id="FIPS_28071" d="m359.75 217.68.555-.035 1.092-.091.931-.044 1.371.316 1.108.27.108 1.5.208 2.827-2.799.184-2.262-.243z">
   <title id="t1524">Lafayette, MS</title>
  </path>
  <path id="FIPS_28137" d="m354.56 215.8 1.027-.17 1.969-.645 1.979-.127.085 1.122.568.091.113 1.573-.555.035-5.029.321z">
   <title id="t1525">Tate, MS</title>
  </path>
  <path id="FIPS_28107" d="m354.72 218 5.029-.321.312 4.684-2.203.509-2.16.189-.077-1.37-.672-.734-.198-2.394z">
   <title id="t1526">Panola, MS</title>
  </path>
  <path id="FIPS_28119" d="m354.75 218.57.198 2.394.672.734.077 1.37.068 1.127-.573.036-2.772.166-.14-2.451.551-.022-.132-2.101 1.034-.072-.096-1.1z">
   <title id="t1527">Quitman, MS</title>
  </path>
  <path id="FIPS_28135" d="m355.7 223.06 2.16-.189.274 3.438.036.587.027.374-1.077.247-1.15.082.068 1.136-.42-.838-.139-.266-2.866.143-.123-2.258-.067-1.127 2.772-.166.573-.036z">
   <title id="t1528">Tallahatchie, MS</title>
  </path>
  <path id="FIPS_28083" d="m352.61 227.78 2.866-.143.139.266.42.838.121.572.281.176.026.135.157 2.488-.355.572-.391.019.067 1.081-1.66.496-1.32-.266z">
   <title id="t1529">Leflore, MS</title>
  </path>
  <path id="FIPS_28133" d="m352.49 225.52.123 2.258.351 6.234-1.101.068.051.757-1.726.103-.691-3.326-.062-1.122 1.118-.062-.253-4.805z">
   <title id="t1530">Sunflower, MS</title>
  </path>
  <path id="FIPS_28053" d="m352.96 234.01 1.32.266.145 2.168-.347.64-.063.045-.122-.023-.288-.179-.135-.181-.046.013-.026.042-.038.215.05.428.024.068.522.433.203.129-.915.073.059 1.11-2.227.139-.612-2.217-.28-2.241 1.726-.103-.051-.757z">
   <title id="t1531">Humphreys, MS</title>
  </path>
  <path id="FIPS_28051" d="m354.28 234.28 1.66-.496 4.65 1.248-2.046 4.477-4.385-1.431-.203-.129-.522-.433-.024-.068-.05-.428.038-.215.026-.042.046-.013.135.181.288.179.122.023.063-.045.347-.64z">
   <title id="t1532">Holmes, MS</title>
  </path>
  <path id="FIPS_28015" d="m356.16 229.31 3.642-.23.239 3.367.758.135.738-.058.113 1.514-1.055.991-4.65-1.248-.067-1.081.391-.019.355-.572-.157-2.488-.026-.135z">
   <title id="t1533">Carroll, MS</title>
  </path>
  <path id="FIPS_28097" d="m362.78 228.87.2 2.817 1.338-.1-.622 2.307-2.051.145-.113-1.514-.738.058-.758-.135-.239-3.367z">
   <title id="t1534">Montgomery, MS</title>
  </path>
  <path id="FIPS_28019" d="m367.38 230.42.231 3.194-.222.019-1.035 1.22.076 1.137-1.114.085-1.618-2.182.622-2.307z">
   <title id="t1535">Choctaw, MS</title>
  </path>
  <path id="FIPS_28105" d="m368.09 229.99.365-.05 3.334-.265.064.761.245 2.826-1.544.125-2.946.226-.231-3.194z">
   <title id="t1536">Oktibbeha, MS</title>
  </path>
  <path id="FIPS_28087" d="m373.39 228.45 2.726-1.452-.057 2.745-.059 3.199-3.897.326-.245-2.826z">
   <title id="t1537">Lowndes, MS</title>
  </path>
  <path id="FIPS_28095" d="m376.23 222.54-.01.369-.104 4.083-2.726 1.452.177-.32-.064-.077-2.336.175-.135-1.685-.248-3.407 1.845-.334z">
   <title id="t1538">Monroe, MS</title>
  </path>
  <path id="FIPS_28057" d="m376.34 217.64-.108 4.908-3.601.256-.371-4.863 2.25-.158z">
   <title id="t1539">Itawamba, MS</title>
  </path>
  <path id="FIPS_28117" d="m373.81 214.03.694 3.745-2.25.158-2.091-.406-.076-1.136.022-2.086z">
   <title id="t1540">Prentiss, MS</title>
  </path>
  <path id="FIPS_28141" d="m373.58 210.93 1.712-.141 1.182 1.248-.108 4.053-.036 1.546-1.83.143-.694-3.745z">
   <title id="t1541">Tishomingo, MS</title>
  </path>
  <path id="FIPS_28003" d="m373.41 210.94.176-.012.226 3.104-3.701.275-1.333-2.997.383-.032z">
   <title id="t1542">Alcorn, MS</title>
  </path>
  <path id="FIPS_28139" d="m366.74 211.47 2.034-.158 1.333 2.997-.022 2.086-3.714.258-.203-2.808.554-.04.145-.578z">
   <title id="t1543">Tippah, MS</title>
  </path>
  <path id="FIPS_28009" d="m364.85 211.61 1.892-.139.127 1.757-.145.578-.554.04.203 2.808-1.64.315-.555.041-.252-3.385-.419-.617-.275-1.284z">
   <title id="t1544">Benton, MS</title>
  </path>
  <path id="FIPS_28093" d="m360.18 211.92 3.056-.198.275 1.284.419.617.252 3.385.555-.041.071 1.132-1.108-.27-1.371-.316-.931.044-1.092.091-.113-1.573-.568-.091-.085-1.122-.198-2.88z">
   <title id="t1545">Marshall, MS</title>
  </path>
  <path id="FIPS_28033" d="m359.34 211.98.198 2.88-1.979.127-1.969.645-1.027.17-1.088-1.707-.265-1.74z">
   <title id="t1546">DeSoto, MS</title>
  </path>
  <path id="FIPS_28143" d="m353.47 214.1 1.088 1.707.157 2.2.031.563-1.113.081.096 1.1-1.034.072-1.879-1.208-.144-1.501 1.622-2.583z">
   <title id="t1547">Tunica, MS</title>
  </path>
  <path id="FIPS_28027" d="m350.82 218.61 1.879 1.208.132 2.101-.551.022.14 2.451.067 1.127-2.19.105-.121-1.7-1.695.067-1.195.072-.036-.126.153-.319.479-.987 1.01-1.812.553-.108.555-.114.459-.22.365-.32.023-.018.01-.023.076-.248z">
   <title id="t1548">Coahoma, MS</title>
  </path>
  <path id="FIPS_28011" d="m347.29 224.06 1.195-.072 1.695-.067.121 1.7.253 4.805-1.118.062.062 1.122-4.831.257-.148-.409.788-.317.189-.162.028-.139v-.013l-.302-.244-.319-.239-.064-.114-.014-.026.059-.293.856-3.687 2.083-1.049.063-.433-.113-.28-.478-.383z">
   <title id="t1549">Bolivar, MS</title>
  </path>
  <path id="FIPS_28151" d="m344.66 231.87 4.831-.257.691 3.326.28 2.241-2.224 1.267-2.617.089.315-.356.009-.009.338-1.403v-.011l-.031-.98-.28-.297-.365-.662-.541-1.547.555-.162.13-.257-.085-.301-.446-.301-.546-.372z">
   <title id="t1550">Washington, MS</title>
  </path>
  <path id="FIPS_28125" d="m350.46 237.18.612 2.217-1.05 1.185.018.28.203.05.293.233.292.293.338 1.019-.013.167-.104.108-.504.068-2.614.135-.108-2.268.063-.189.054-.008.076-.058.05-.083.184-1.004-.014-.878z">
   <title id="t1551">Sharkey, MS</title>
  </path>
  <path id="FIPS_28055" d="m348.24 238.45.014.878-.184 1.004-.05.083-.076.058-.054.008-.063.189.108 2.268 2.614-.135.062.558-.485.6-.921 1.766-1.09.339-.113-2.001-1.433.058-.343-.107-.027-.023-.103-.09-.023-.018-.012-.024-.034-.04-.012-.022-.064-.154-.865-3.92-.018-.104.113-.41.355-.573.087-.099z">
   <title id="t1552">Issaquena, MS</title>
  </path>
  <path id="FIPS_28163" d="m354.16 238.08 4.385 1.431-.685 1.757-.108.171-.617.442-3.169 1.799-.401.094-1.072.924-1.881-1.335-.062-.558.504-.068.104-.108.013-.167-.338-1.019-.292-.293-.293-.233-.203-.05-.018-.28 1.05-1.185 2.227-.139-.059-1.11z">
   <title id="t1553">Yazoo, MS</title>
  </path>
  <path id="FIPS_28007" d="m363.7 233.9 1.618 2.182.144 2.29-2.582.194-1.835.13.04.586-2.537.231 2.046-4.477 1.055-.991z">
   <title id="t1554">Attala, MS</title>
  </path>
  <path id="FIPS_28159" d="m367.61 233.62 2.946-.226.357 4.653-1.095.076-4.359.248-.144-2.29 1.114-.085-.076-1.137 1.035-1.22z">
   <title id="t1555">Winston, MS</title>
  </path>
  <path id="FIPS_28103" d="m372.1 233.26 3.897-.326-.076 3.868-.015.807-4.993.429-.357-4.653z">
   <title id="t1556">Noxubee, MS</title>
  </path>
  <path id="FIPS_28069" d="m370.91 238.04 4.993-.429-.076 4.561-5.675.455-.337-4.511z">
   <title id="t1557">Kemper, MS</title>
  </path>
  <path id="FIPS_28099" d="m365.46 238.37 4.359-.248.337 4.511-4.353.32z">
   <title id="t1558">Neshoba, MS</title>
  </path>
  <path id="FIPS_28079" d="m365.46 238.37.343 4.583-.055.006-4.403.292-.054-.739-.208-3.232-.04-.586 1.835-.13z">
   <title id="t1559">Leake, MS</title>
  </path>
  <path id="FIPS_28089" d="m358.54 239.51 2.537-.231.208 3.232-.541.654-.239.009-.563.067-1.515 1.393-.59.657-.04.096-.005.166.063.221-1.375.077-.558-.054-.063-1.036-.398.021-1.833.104-.068-1.113.401-.094 3.169-1.799.617-.442.108-.171z">
   <title id="t1560">Madison, MS</title>
  </path>
  <path id="FIPS_28121" d="m360.75 243.16.893 4.669.153 2.253-5.445.312-.279-.798.392-1.826.658-.951.739-1.05-.063-.221.005-.166.04-.096.59-.657 1.515-1.393.563-.067z">
   <title id="t1561">Rankin, MS</title>
  </path>
  <path id="FIPS_28049" d="m352.49 244.7 1.072-.924.068 1.113 1.833-.104.398-.021.063 1.036.558.054 1.375-.077-.739 1.05-.658.951-.392 1.826.279.798-5.309.328-.237-2.275z">
   <title id="t1562">Hinds, MS</title>
  </path>
  <path id="FIPS_28149" d="m346.57 244.12 1.433-.058.113 2.001 1.09-.339.921-1.766.485-.6 1.881 1.335-1.689 3.755-.263.315-.536.635-1.132 1-.298-.04-.946-.294-1.1-1.285 1.257-.156-.076-1.861-1.203-1.28-.009-.023-.046-.072-.031-.045v-.014l-.019-.207.245-.825z">
   <title id="t1563">Warren, MS</title>
  </path>
  <path id="FIPS_28063" d="m345.39 253.34 2.564-.031 1.894.356.027.152.004.145.086.225 1.068-.063.058 1.131.055 1.127-4.556.258-2.448-1.65z">
   <title id="t1564">Jefferson, MS</title>
  </path>
  <path id="FIPS_28021" d="m350.8 248.45.237 2.275-.009 3.394-1.068.063-.086-.225-.004-.145-.027-.152-1.894-.356-2.564.031 2.24-3.269.946.294.298.04 1.132-1 .536-.635z">
   <title id="t1565">Claiborne, MS</title>
  </path>
  <path id="FIPS_28029" d="m356.35 250.4 1.411 3.759-1.312.536-5.359.558-.058-1.131.009-3.394z">
   <title id="t1566">Copiah, MS</title>
  </path>
  <path id="FIPS_28127" d="m361.8 250.08 1.068 3.381-1.109.153-2.384.32-1.609.217-1.411-3.759z">
   <title id="t1567">Simpson, MS</title>
  </path>
  <path id="FIPS_28129" d="m361.64 247.83 4.426-.319.446 5.425-.92.131-2.731.397-1.068-3.381z">
   <title id="t1568">Smith, MS</title>
  </path>
  <path id="FIPS_28123" d="m361.29 242.51.054.739 4.403-.292.321 4.557-4.426.319-.893-4.669z">
   <title id="t1569">Scott, MS</title>
  </path>
  <path id="FIPS_28101" d="m365.8 242.95 4.353-.32.347 4.549-4.434.334-.321-4.557z">
   <title id="t1570">Newton, MS</title>
  </path>
  <path id="FIPS_28075" d="m370.16 242.63 5.675-.455-.077 3.503-.026 1.054-5.225.447z">
   <title id="t1571">Lauderdale, MS</title>
  </path>
  <path id="FIPS_28023" d="m375.73 246.73-.073 4.323-4.732 1.244-.42-5.12z">
   <title id="t1572">Clarke, MS</title>
  </path>
  <path id="FIPS_28061" d="m370.5 247.18.42 5.12-.357.053-4.051.586-.446-5.425z">
   <title id="t1573">Jasper, MS</title>
  </path>
  <path id="FIPS_28067" d="m370.56 252.35.371 5.038-2.217.155-2.774.198-.351-4.674.92-.131z">
   <title id="t1574">Jones, MS</title>
  </path>
  <path id="FIPS_28031" d="m365.59 253.07.351 4.674-.577.04-1.482.105-.067-1.028-.199-.316-.392-.23-.396-.05-.294-.144-.649-.374-.135-2.127 1.109-.153z">
   <title id="t1575">Covington, MS</title>
  </path>
  <path id="FIPS_28065" d="m359.37 253.94 2.384-.32.135 2.127.649.374.294.144.396.05.392.23.199.316.067 1.028-.739.048-1.865.119.049.567-1.488.09-.108-1.698-.261-1.349z">
   <title id="t1576">Jefferson Davis, MS</title>
  </path>
  <path id="FIPS_28077" d="m357.76 254.16 1.609-.217.104 1.726.261 1.349.108 1.698-.848.758-2.244-.045-.302-4.733z">
   <title id="t1577">Lawrence, MS</title>
  </path>
  <path id="FIPS_28085" d="m356.45 254.69.302 4.733-.184.012-3.156.195-.937.058-.189-3.381-1.14.068-.055-1.127z">
   <title id="t1578">Lincoln, MS</title>
  </path>
  <path id="FIPS_28037" d="m346.59 256.64 4.556-.258 1.14-.068.189 3.381-3.84.217-1.211.419-.709-.294z">
   <title id="t1579">Franklin, MS</title>
  </path>
  <path id="FIPS_28001" d="m344.14 254.98 2.448 1.65.125 3.397-.054-.05-.775-.26-.45.081-.357.126-1.478.609-1.406 1.307-.104.229-.162.672.266-1.389.41-3.361.004-.009.041-.087.027-.053 1.176-2.362.008-.01.173-.296z">
   <title id="t1580">Adams, MS</title>
  </path>
  <path id="FIPS_28157" d="m346.71 260.03.709.294.598 4.133-1.281.063-5.079.239.267-2.015.162-.672.104-.229 1.406-1.307 1.478-.609.357-.126.45-.081.775.26z">
   <title id="t1581">Wilkinson, MS</title>
  </path>
  <path id="FIPS_28005" d="m353.41 259.63.262 4.508-.211.007-2.858.167-2.583.145-.598-4.133 1.211-.419 3.84-.217z">
   <title id="t1582">Amite, MS</title>
  </path>
  <path id="FIPS_28113" d="m353.41 259.63 3.156-.195.284 4.503-.969.059-2.209.141z">
   <title id="t1583">Pike, MS</title>
  </path>
  <path id="FIPS_28147" d="m356.75 259.42 2.244.045.082 1.315.19.744.428.528.806.509.807.13.212.934-4.669.31-.284-4.503z">
   <title id="t1584">Walthall, MS</title>
  </path>
  <path id="FIPS_28091" d="m363.15 257.94.374 5.553-.816.06-1.185.081-.212-.934-.807-.13-.806-.509-.428-.528-.19-.744-.082-1.315.848-.758 1.488-.09-.049-.567z">
   <title id="t1585">Marion, MS</title>
  </path>
  <path id="FIPS_28073" d="m365.37 257.78.087 1.127 1.131-.081.289 4.327-3.354.333-.374-5.553.739-.048z">
   <title id="t1586">Lamar, MS</title>
  </path>
  <path id="FIPS_28035" d="m368.72 257.54.292 3.975.193 1.6.091 1.167-2.24.156-.18-1.287-.289-4.327-1.131.081-.087-1.127.577-.04z">
   <title id="t1587">Forrest, MS</title>
  </path>
  <path id="FIPS_28153" d="m375.65 251.06.261 2.528.429 3.362-4.29.361-1.118.084-.371-5.038.357-.053z">
   <title id="t1588">Wayne, MS</title>
  </path>
  <path id="FIPS_28041" d="m372.05 257.31 4.29-.361.522 4.118.191 1.489-4.499.352z">
   <title id="t1589">Greene, MS</title>
  </path>
  <path id="FIPS_28111" d="m370.94 257.39 1.118-.084.504 5.598-.478 1.162-2.785.221-.091-1.167-.193-1.6-.292-3.975z">
   <title id="t1590">Perry, MS</title>
  </path>
  <path id="FIPS_28131" d="m372.08 264.07.175 2.253.06.749-3.858.284-.051.387-1.122.077-.229-3.373 2.24-.156z">
   <title id="t1591">Stone, MS</title>
  </path>
  <path id="FIPS_28109" d="m366.88 263.16.18 1.287.229 3.373-1.532.104-.681.428.085 1.312-1.09.815-.487.032-1.852-2.551.123-.921.134-.68.167-.824.145-.603.026-.028.09-.013.069-.009.111-.248.136-.681-.023-.4.816-.06z">
   <title id="t1592">Pearl River, MS</title>
  </path>
  <path id="FIPS_28045" d="m363.58 270.51.487-.032 1.09-.815-.085-1.312.681-.428 1.532-.104.257 3.534-1.87 2.61-.515.031-.021.005-.027-.019-.04-.027-.028-.018-.082-.095-.242-.283-.108-.208-.353-.67-.009-.069.028-.108.103-.261-.017-.239-.69-1.402-.072-.073z">
   <title id="t1593">Hancock, MS</title>
  </path>
  <path id="FIPS_28039" d="m372.56 262.9 4.499-.352.414 3.363-5.216.404-.175-2.253z">
   <title id="t1594">George, MS</title>
  </path>
 </g>
</svg>