<svg id="svg9559" width="555.22" height="351.67" xmlns="http://www.w3.org/2000/svg" viewBox="119.75401306152344 14.86099910736084 104.65599060058594 66.36199188232422">
 <g id="stylegroup" fill="#d0d0d0" stroke="#000" stroke-width=".1">
  <path id="FIPS_30091" d="m224.41 30.054-.388 4.651-.257 3.11-5.021-.437.104-1.109-1.019-1.208-1.857-.175.104-1.1-.563-.059.153-3.322.109-1.122z">
   <title id="t1595">Sheridan, MT</title>
  </path>
  <path id="FIPS_30085" d="m215.97 34.886 1.857.175 1.019 1.208-.104 1.109 5.021.437-.401 5.012-1.654-.573-1.704-.991-3.65-.919-.51.207-.23.306-.279.212-.185.094-1.059-.004-.645-.126-.491-.356-.739-.144-.645-.027-1.577-.023-.428.014-.469.257-1.352.414.28-2.654.337.036.451-4.372z">
   <title id="t1596">Roosevelt, MT</title>
  </path>
  <path id="FIPS_30031" d="m158.92 58.245 2.465.397-.158.631-.302 1.803-.067.667-.145.929-.188 1.131-.438 2.483-.645.424-.599.23-.153 1.104-.18 1.113-1.082-.171-.433 2.213-.158.964-.175 1.271-.784 4.26-.334 2.461-.734-.681-.104-.307-.401-1.158-.74-1.451-.433-.428.339-2.037.951-5.585.261-.36.536-3.313-1.654-.275-.612-.852-.352-.627-.419-.45-.329-.243-.352-.208 1.37-.234 1.925-1.222.527-.482.121-.852.316-.518.6-.766.396-.144 1.298.139z">
   <title id="t1597">Gallatin, MT</title>
  </path>
  <path id="FIPS_30057" d="m147.97 62.23.05.018.176-.009.292-.217.262-.486.049-.248.104-.095.221-.076.581-.037.771.194.996.699.041.067-.014.14.352.208.329.243.419.45.352.627.612.852 1.654.275-.536 3.313-.261.36-.951 5.585-.339 2.037-1.027.387-2.718-.446.154-.919-1.091-.18-1.469-.289-.821-.703-.022-1.131.189-1.114-1.289-.225-.91-1.312.577-3.321.035-.573-.257-.685-.274-.081-.244.054-.148.081-.167-.022-.266-.194-.451-.582-.022-.067.004-.653.36-1.137.871-.333.432-.189.221-.162.108-.104.636-.347 2.429.347">
   <title id="t1598">Madison, MT</title>
  </path>
  <path id="FIPS_30007" d="m153.3 52.423 1.334.05.333-1.975.348-.423.049-.028.149-.027.744.374 2.204 4.471.405 2.624.059.756-.866-.144-1.298-.139-.396.144-.6.766-.316.518-.121.852-.527.482-1.925 1.222.451-2.745-1.1-.189z">
   <title id="t1599">Broadwater, MT</title>
  </path>
  <path id="FIPS_30043" d="m148.38 53.513.339.131.333-.077.582-.288.022-.032-.027-.207 1.55-.978 2.123.361-1.073 6.589 1.1.189-.451 2.745-1.37.234.014-.14-.041-.067-.996-.699-.771-.194-.581.037-.221.076-.104.095-.049.248-.262.486-.292.217-.176.009-.05-.018-1.528-1.266-.256-.587.085-2.69.004-.248-.468-1.158-.321-.108.357-1.074.005-.324.035-.194.329-.274 1.384-.433z">
   <title id="t1600">Jefferson, MT</title>
  </path>
  <path id="FIPS_30093" d="m145.49 56.173.321.108.468 1.158-.004.248-.085 2.69.256.587 1.528 1.266-2.429-.347-.636.347-.108.104-.221.162-.432.189-.871.333-.378-1.266-.307-.609-.315-.306-1.438-.748-.572-.69.581-.058.397-.194.523-.329.104-.099.892-1.325.856-.992 1.095-.009z">
   <title id="t1601">Silver Bow, MT</title>
  </path>
  <path id="FIPS_30023" d="m145.85 55.099-.357 1.074-.775.22-1.095.009-.856.992-.892 1.325-.104.099-.523.329-.397.194-.581.058.009-.149-.085-.134-.063-.027-.627-.154-.338.073-1.267.608-.153.185-.649-.374-.059-.681-.225-.965-.045-.08-.036-.005-.099.013-.009-.018.766-.397.766-.197.987-1.506.203-1.1 2.186.392.099-.549z">
   <title id="t1602">Deer Lodge, MT</title>
  </path>
  <path id="FIPS_30001" d="m136.63 57.709.099-.013.036.005.045.08.225.965.059.681.649.374.153-.185 1.267-.608.338-.073.627.154.063.027.085.134-.009.149.572.69 1.438.748.315.306.307.609.378 1.266-.36 1.137-.004.653.022.067.451.582.266.194.167.022.148-.081.244-.054.274.081.257.685-.035.573-.577 3.321.91 1.312 1.289.225-.189 1.114.022 1.131.821.703 1.469.289 1.091.18-.154.919 2.718.446-1.559 1.79-1.172-.032-1.817-.518-2.51-.257-1.37.514-3.223-.802-.608.144-.356.378-.131.203-.108.482-.005.032-.09.14-.185.103-.234-.085-.734-.821-.249-.36-.107-.609.013-1.609.036-.027.054-.099v-.099l-.262-1.122-.197-.618-.172-.266-.383-.428-.32-.252-.307.076-1.496-2.082-1.411-5.246-.013-1.01.023-.766.117-.212.008-.383-.103-1.023-.05-.162-.874-1.235-.185-.194.185.014.298-.05 2.853-1.262.563-.297.32-.226.284-.532">
   <title id="t1603">Beaverhead, MT</title>
  </path>
  <path id="FIPS_30081" d="m135.61 48.06-.496 1.626.135 2.083.031 1.271-.459 1.172.054 1.721.654 1.222.545.451.55.085.009.018-.284.532-.32.226-.563.297-2.853 1.262-.298.05-.185-.014-.793.455-1.113.974-1.767.811-.37-.058v-.005l-.081-.315-.662-1.046-.113-.05-.356-.09-.397-.054-.027-.032.009-.045.158-.874.315-1.726 2.515-6.274.789-1.753.527-1.213.312-.883.054-.284-.032-.149-.049-.049z">
   <title id="t1604">Ravalli, MT</title>
  </path>
  <path id="FIPS_30039" d="m140.6 46.757 1.104 1.523.257.276.504-.127.136-.063.09.027-.568 3.241-.496 2.7-.099.549-2.186-.392-.203 1.1-.987 1.506-.766.197-.766.397-.55-.085-.545-.451-.654-1.222-.054-1.721.459-1.172-.031-1.271-.135-2.083.496-1.626.293.09 1.104.207 1.856-.847.123-.667.626-.266z">
   <title id="t1605">Granite, MT</title>
  </path>
  <path id="FIPS_30049" d="m145.94 33.114.122 2.447-.086.942.036.122.293.663.284.446.315.176.068.013 1.018-.135.992-.207.045.009.983.811.072.266-.045.063-.009.288.013.028.974.694.581.216.907.126.558-.027-.676 4.092.816.803.333.284.19.022.031-.045.721.117-.46 2.723 1.155.198 1.086 2.145-.744-.374-.149.027-.049.028-.348.423-.333 1.975-1.334-.05-2.123-.361-1.55.978.027.207-.022.032-.582.288-.333.077-.339-.131.117-.365.374-1.83-.112-.806-.644-.681-1.096-.176.303-1.717-1.164-.198-.099.013-1.019-.185.744-4.196.027-.171-2.199-.392-.077-.045.699-3.876h-.158l-.243-1.001-.086-.518.104-1.6.022-.099 1.235-1.803.464-.491z">
   <title id="t1606">Lewis and Clark, MT</title>
  </path>
  <path id="FIPS_30077" d="m140.97 36.81 2.772.559.086.518.243 1.001h.158l-.699 3.876.077.045 2.199.392-.027.171-.744 4.196 1.019.185.099-.013 1.164.198-.303 1.717 1.096.176.644.681.112.806-.374 1.83-.117.365-.775.361-1.384.433-.329.274-.035.194-.005.324-4.219-.765.496-2.7.568-3.241-.09-.027-.136.063-.504.127-.257-.276-1.104-1.523.806-4.385-1.42-.253z">
   <title id="t1607">Powell, MT</title>
  </path>
  <path id="FIPS_30047" d="m139.52 36.544-2.714-.523.288 4.309.018.077-.212 1.095-1.076.365-2.205-.424.113-.55.284-2.217-.739-.144-.212-.095-.072-.081-.189-.352.221-.617.203-.32.045-.014.072.041.211-.311.032-1.294-.049-.072-.19-.085-.541-.104-1.469-.289.176-1.852.112-.545 1.091.216.212-1.073-.013-.383.103-.73 3.885.748.05-.346-.018-.095-.041-.054-.062-.01-.014-.301.166-.154.226-.144 1.216.243 1.474 2.312.018.068.145 2.222-.009.316-.041.198z">
   <title id="t1608">Lake, MT</title>
  </path>
  <path id="FIPS_30063" d="m139.52 36.544 1.446.266-.983 5.309 1.42.253-.806 4.385-.992-.18-.626.266-.123.667-1.856.847-1.104-.207-.293-.09-4.561-.658-.041-.041-.158-.131-.464-.063-.23.045-.14.054-.203.054-.96-.202-.018-.014-.487-1.221.068-.352 1.213-1.144.942-1.858-.406-.838-1.568-2.578.067-.356.974.117.491.212.631.351 1.027.762.285.289.162.446.455.46.131.09.185.068.621-.109 2.205.424 1.076-.365.212-1.095-.018-.077-.288-4.309z">
   <title id="t1609">Missoula, MT</title>
  </path>
  <path id="FIPS_30061" d="m121.24 33.822.311.541.198.229.424.145.352.117 1.171.203.298-.077.072.009.964.176.271.135 1.73 1.217.379.329.036.289-.157.77.987.776.387.076-.067.356 1.568 2.578.406.838-.942 1.858-1.213 1.144-.068.352-.387-.005-.058-.018-.126-.036-1.299-1.735-.04-.109v-.008l-.172-1.303-.225-.415-.415-.775-.734-1.713-.784-1.766-.149-.109-.685-.274-.473-.23-.149-.131-.189-.162-1.38-1.907-.009-.319v-.009z">
   <title id="t1610">Mineral, MT</title>
  </path>
  <path id="FIPS_30089" d="m120.38 24.668.906.608.5-.149.996-.437.704 1.438.491 2.628.469.649.09.072 1.568.636.879-.199.423-.491.091-.69 1.226.253.148.22-.333 1.632 1.1.221.739.126 1.469.28-.212 1.077-.112.545-.176 1.852 1.469.289.541.104.19.085.049.072-.032 1.294-.211.311-.072-.041-.045.014-.203.32-.221.617.189.352.072.081.212.095.739.144-.284 2.217-.113.55-.621.109-.185-.068-.131-.09-.455-.46-.162-.446-.285-.289-1.027-.762-.631-.351-.491-.212-.974-.117-.387-.076-.987-.776.157-.77-.036-.289-.379-.329-1.73-1.217-.271-.135-.964-.176-.072-.009-.298.077-1.171-.203-.352-.117-.424-.145-.198-.229-.311-.541.248-.564.293-.743.004-.722v-.049l-.004-.014-.014-.031-.013-.045-1.735-3.534-.266-.473.626-2.979">
   <title id="t1611">Sanders, MT</title>
  </path>
  <path id="FIPS_30053" d="m121.15 21.085 1.33-6.224 6.711 1.428 3.722.744.685.135-.013 1.776.374 1.492v.036l-.459 1.118-2.115-.42-.031.731.144.401-.856 4.349-1.271-.257-.198-.036-.226 1.086-.225 1.542-1.226-.253-.091.69-.423.491-.879.199-1.568-.636-.09-.072-.469-.649-.491-2.628-.704-1.438-.996.437-.5.149-.906-.608z">
   <title id="t1612">Lincoln, MT</title>
  </path>
  <path id="FIPS_30029" d="m139.15 18.272.157 2.204.357.252 1.838 1.317 1.672 2.853-.045.202-.058.136-.212.734.555 1.618.211.474.749 1.338-.081.532.022.072.789.541.054.036.063.023.757.234.086-.018-.131 2.294-.37.262-.464.491-1.235 1.803-.022.099-.104 1.6-2.772-.559-1.446-.266.495-.969.041-.198.009-.316-.145-2.222-.018-.068-1.474-2.312-1.216-.243-.226.144-.166.154.014.301.062.01.041.054.018.095-.05.346-3.885-.748-.103.73.013.383-.212 1.073-1.091-.216.212-1.077-1.469-.28-.739-.126-1.1-.221.333-1.632-.148-.22.225-1.542.226-1.086.198.036 1.271.257.856-4.349-.144-.401.031-.731 2.115.42.459-1.118v-.036l-.374-1.492.013-1.776z">
   <title id="t1613">Flathead, MT</title>
  </path>
  <path id="FIPS_30035" d="m153.96 27.733-.234-.095-.32-.081-2.781-.482-.384 2.145-.036.031-6.571-1.189-.211-.474-.555-1.618.212-.734.058-.136.045-.202-1.672-2.853-1.838-1.317-.357-.252-.157-2.204.829.162 2.339.465 4.872.892.902.158 6.909 1.226z">
   <title id="t1614">Glacier, MT</title>
  </path>
  <path id="FIPS_30051" d="m162.82 22.487 4.475.707-.23 1.05-.676 4.381-.333 1.807-.401 2.561-.613-.095-.171 1.09-5.008-.788.181-1.1 1.153.185.703-4.376.753-4.368z">
   <title id="t1615">Liberty, MT</title>
  </path>
  <path id="FIPS_30101" d="m153.96 27.733 1.05-6.558 2.876.491.78.135 2.149.356 2.015.33-.167 1.054-.753 4.368-.703 4.376-1.153-.185-2.213-.365.279-1.64-1.05-.546-.807-.329-.829-.158-1.406-1.181z">
   <title id="t1616">Toole, MT</title>
  </path>
  <path id="FIPS_30073" d="m143.63 28.062 6.571 1.189.036-.031.384-2.145 2.781.482.32.081.234.095.068.148 1.406 1.181.829.158.807.329 1.05.546-.279 1.64 2.213.365-.181 1.1-.293 1.83-4.962-.794.09-.518-1.442-1.609-7.193-1.289-.086.018-.757-.234-.063-.023-.054-.036-.789-.541-.022-.072.081-.532z">
   <title id="t1617">Pondera, MT</title>
  </path>
  <path id="FIPS_30099" d="m146.07 30.82 7.193 1.289 1.442 1.609-.09.518 4.962.794-.604 3.651-2.231-.366-.18 1.096-2.217-.375-.397 1.303-.888-.284-.558.027-.907-.126-.581-.216-.974-.694-.013-.028.009-.288.045-.063-.072-.266-.983-.811-.045-.009-.992.207-1.018.135-.068-.013-.315-.176-.284-.446-.293-.663-.036-.122.086-.942-.122-2.447z">
   <title id="t1618">Teton, MT</title>
  </path>
  <path id="FIPS_30013" d="m153.06 40.055.888.284.397-1.303 2.217.375.18-1.096 2.231.366 3.746.594-.297.374-.185.185-.302.455-.054.154.04.103 2.091 2.213 1.068.55-.108.726-1.113-.176-.288.626-.113.731-.167 1.974 1.109.176-.257 2.19-.171 1.1-.172.149-.842-.907-1.127-1.437-.09-.077-1.212-.969-4.138-.095-.185 1.1-1.036-.171-1.155-.198.46-2.723-.721-.117-.031.045-.19-.022-.333-.284-.816-.803z">
   <title id="t1619">Cascade, MT</title>
  </path>
  <path id="FIPS_30059" d="m155.17 48.249 1.036.171.185-1.1 4.138.095 1.212.969.09.077 1.127 1.437.842.907-.013.288.036.144.072.153.09.122 1.312 1.375.802.013.816-.149-.37 2.434-.369 1.956-.28 1.831-.067.459-4.44-.789-2.465-.397-.059-.756-.405-2.624-2.204-4.471z">
   <title id="t1620">Meagher, MT</title>
  </path>
  <path id="FIPS_30067" d="m161.39 58.642 4.44.789-.194.631-.672 4.439.64.095-.324 2.33-.446 2.899-.145.319-.333 2.245 1.483.234 2.384.41-.311 2.11-2.813-.438-1.018-.049-2.997-.406-.023-.004-1.357-.212-.396-.136-1.122-.229-1.519-.235.175-1.271.158-.964.433-2.213 1.082.171.18-1.113.153-1.104.599-.23.645-.424.438-2.483.188-1.131.145-.929.067-.667.302-1.803z">
   <title id="t1621">Park, MT</title>
  </path>
  <path id="FIPS_30041" d="m167.3 23.194 10.66 1.569-.329 1.653-.212 1.137-.374 2.654-.613 3.448-.419 1.983-.555-.05-1.113-.157.167-1.123-.865-1.221-6.698-1.014-.171 1.095-1.118-.175.401-2.561.333-1.807.676-4.381z">
   <title id="t1622">Hill, MT</title>
  </path>
  <path id="FIPS_30015" d="m165.66 32.993 1.118.175.171-1.095 6.698 1.014.865 1.221-.167 1.123 1.113.157.555.05-.757 5.012-.352-.162-.866.045-.991.189-.505.423.005.294-.302 1.257-.027.059-.234.176-2.75 1.004-.442-.062-3.714-.564-1.068-.55-2.091-2.213-.04-.103.054-.154.302-.455.185-.185.297-.374-3.746-.594.604-3.651.293-1.83 5.008.788.171-1.09z">
   <title id="t1623">Chouteau, MT</title>
  </path>
  <path id="FIPS_30045" d="m165.08 43.309 3.714.564-.112.729.644.807.996.938 1.091.347.928.698-.522 3.678-.289 2.588-.649-.091-.387-.275-.555-.437-.081-.104-.185-.131-.748-.071-.446.004-1.564.198-.816.149-.802-.013-1.312-1.375-.09-.122-.072-.153-.036-.144.013-.288.172-.149.171-1.1.257-2.19-1.109-.176.167-1.974.113-.731.288-.626 1.113.176z">
   <title id="t1624">Judith Basin, MT</title>
  </path>
  <path id="FIPS_30107" d="m171.53 53.658 3.142.45-.239 1.699-.739 4.322-2.231-.32-5.567-.837.28-1.831.369-1.956.37-2.434 1.564-.198.446-.004.748.071.185.131.081.104.555.437.387.275z">
   <title id="t1625">Wheatland, MT</title>
  </path>
  <path id="FIPS_30097" d="m165.89 58.972 5.567.837-.158 1.109.275 1.172 1.667.248-.153.698-.509.316-.825 1.032-.293 1.1-.302 2.222-1.104-.158-1.19.388-1.185.392-.329 2.218-1.177-.176-.342 2.253-1.483-.234.333-2.245.145-.319.446-2.899.324-2.33-.64-.095.672-4.439.194-.631z">
   <title id="t1626">Sweet Grass, MT</title>
  </path>
  <path id="FIPS_30009" d="m177.61 68.585.437-.253.153-.026-.049.329-.095.18-.072.113-.036.008.248.871.459.829.478.063-.388.351-.302 1.05-.225 1.682 5.165.644-.076.167-1.388 2.52-3.367-.456-2.799-.37-1.195-.162-.184-.026-1.677-.307-4.791-.649.311-2.11.969.145.383-1.168.848-.825.711-.653.424-.316 1.19-.401 1.478.212.672-.671.058-.424.307-.311 1.154-.271.094.027.271.19.207.045.176.023z">
   <title id="t1627">Carbon, MT</title>
  </path>
  <path id="FIPS_30095" d="m177.79 61.833-.158 1.055-.126 1.149-.333 3.557.135.392.302.599-.451.05-.176-.023-.207-.045-.271-.19-.094-.027-1.154.271-.307.311-.058.424-.672.671-1.478-.212-1.19.401-.424.316-.711.653-.848.825-.383 1.168-.969-.145-2.384-.41.342-2.253 1.177.176.329-2.218 1.185-.392 1.19-.388 1.104.158.302-2.222.293-1.1.825-1.032.509-.316.153-.698.177-1.113 4.371.608">
   <title id="t1628">Stillwater, MT</title>
  </path>
  <path id="FIPS_30037" d="m178.12 53.851-.221 1.641.103.577.582 1.235.748 2.861-.252 1.84-1.285-.172-4.371-.608-.177 1.113-1.667-.248-.275-1.172.158-1.109 2.231.32.739-4.322.239-1.699.104-.73z">
   <title id="t1629">Golden Valley, MT</title>
  </path>
  <path id="FIPS_30027" d="m175.26 40.65.951.379 1.028-.339.233-.157 2.615-.036.144.027.32.207.32.762.392.252.194.181.252.36.013.086-.031.067.203.366.689.405 2.714 1.046.094.013.14-.04.117-.149-.32 2.249-.148 1.163-.199.067-2.208-.275-1.203.307-.298 1.073-.149 1.095 1.122.153-.464 3.322-.324 1.086-3.335-.469-3.344-.473-.104.73-3.142-.45.289-2.588.522-3.678-.928-.698-1.091-.347-.996-.938-.644-.807.112-.729.442.062 2.75-1.004.234-.176.027-.059.302-1.257-.005-.294.505-.423.991-.189.866-.045z">
   <title id="t1630">Fergus, MT</title>
  </path>
  <path id="FIPS_30005" d="m176.01 35.638.419-1.983.613-3.448.374-2.654.212-1.137.329-1.653.897.126 2.753.397.51.076.049.005 3.845.518.473.063 2.141.279-.045.356-.117.726-.456 2.145-1.36 3.723-.073-.045-.31-.072-.073.185-.545 2.632-.406 3.078-2.028.442-.117-.045-1.88-.243-.112.657-.239 1.727-.32-.762-.32-.207-.144-.027-2.615.036-.233.157-1.028.339-.951-.379z">
   <title id="t1631">Blaine, MT</title>
  </path>
  <path id="FIPS_30071" d="m180.87 41.493.239-1.727.112-.657 1.88.243.117.045 2.028-.442.406-3.078.545-2.632.073-.185.31.072.073.045 1.36-3.723.456-2.145.117-.726.045-.356 9.014 1.113-.356 1.073-.464 3.894-.92 3.755-.937-.118-.455 1.245-.6 4.227-.279 2.272-.1.41-.171.351-.044.054-.059.028-.433-.068-.748-.401-.104-.036-.356-.046-.532.249-.383.568-.315.346-1.01 1.051-.374.045-.054-.018.059-.474-.063-.829-.045-.234-.334-.266-.077-.041-1.09-.171-.284.036-.37-.009-.843-.068-.198-.04-.059-.045-.117.149-.14.04-.094-.013-2.714-1.046-.689-.405-.203-.366.031-.067-.013-.086-.252-.36-.194-.181z">
   <title id="t1632">Phillips, MT</title>
  </path>
  <path id="FIPS_30069" d="m185.64 44.08.059.045.198.04.843.068.37.009.284-.036 1.09.171.077.041.334.266.045.234.063.829-.059.474-.635 1.167-.194 1.294-.365 4.737.004.076.032.041.298.302.049.027.414 1.289-3.894-.469-.982-.072-2.222-.293.324-1.086.464-3.322-1.122-.153.149-1.095.298-1.073 1.203-.307 2.208.275.199-.067.148-1.163z">
   <title id="t1633">Petroleum, MT</title>
  </path>
  <path id="FIPS_30065" d="m178.12 53.851 3.335.469 2.222.293.982.072 3.894.469-.004 3.367-.167 1.284-1.298-.163-.833.654-.203.347-.077.564-2.587-.338-.793.256-.176 1.321-3.335-.441.252-1.84-.748-2.861-.582-1.235-.103-.577z">
   <title id="t1634">Musselshell, MT</title>
  </path>
  <path id="FIPS_30111" d="m188.55 58.521.356.229.167.208.748 1.591.843 2.357-.225 1.118-.203.572-1.452-.18-1.194.599-.424.325-.063.361-.396.297-1.488-.158-.378 1.451-.442 3.394-2.312.451-1.154-.153-1.794-.284-.478-.063-.459-.829-.248-.871.036-.008.072-.113.095-.18.049-.329-.153.026-.437.253-.302-.599-.135-.392.333-3.557.126-1.149.158-1.055 1.285.172 3.335.441.176-1.321.793-.256 2.587.338.077-.564.203-.347.833-.654 1.298.163z">
   <title id="t1635">Yellowstone, MT</title>
  </path>
  <path id="FIPS_30003" d="m195.09 67.417-.059.492.018 1.916.582.162.865.103.181.068-.464 4.115-.316.703-.284 1.46 2.217.307 1.123.099 1.082.086-.113 2.402-5.67-.663-1.74-.212-.482-.099-4.296-.527-2.744-.342-3.069-.374 1.388-2.52.076-.167-5.165-.644.225-1.682.302-1.05.388-.351 1.794.284 1.154.153 2.312-.451.442-3.394.378-1.451 1.488.158.396-.297.063-.361.424-.325 1.194-.599 1.452.18.775.095-.135 1.104 2.221.266.415.609.568.63z">
   <title id="t1636">Big Horn, MT</title>
  </path>
  <path id="FIPS_30103" d="m188.9 58.75 5.003.6 1.167 1.262.41 3.398-.392 3.407-1.014-.117-.568-.63-.415-.609-2.221-.266.135-1.104-.775-.095.203-.572.225-1.118-.843-2.357-.748-1.591z">
   <title id="t1637">Treasure, MT</title>
  </path>
  <path id="FIPS_30087" d="m188.14 53.865 3.75.464.175-.045.339.004.301.032 5.783.676.315.163.65.135 4.61.491-.324.157-.419 2.953-.361 1.46-.32 2.984-.005.333-.202.73-.271.347-.486 4.458-.379-.036-.221 2.095-.397 2.322-.4 1.154-.239 2.186-1.082-.086-1.123-.099-2.217-.307.284-1.46.316-.703.464-4.115-.181-.068-.865-.103-.582-.162-.018-1.916.059-.492.392-3.407-.41-3.398-1.167-1.262-5.003-.6-.356-.229.004-3.367z">
   <title id="t1638">Rosebud, MT</title>
  </path>
  <path id="FIPS_30033" d="m202.69 41.308.523.059.72 1.225-.464 4.318-.297.717-.275 1.474 1.117.117-.233 2.213.734.081-.433 4.092-.018.181-4.61-.491-.65-.135-.315-.163-5.783-.676-.301-.032-.339-.004-.175.045-3.75-.464-.049-.027-.298-.302-.032-.041-.004-.076.365-4.737.194-1.294.635-1.167.054.018.374-.045 1.01-1.051.315-.346.383-.568.532-.249.356.046.104.036.748.401.433.068.059-.028.044-.054.171-.351.1-.41 1.411.559 1.906.238.131-.004.82-.027.217-.027.153-.045 2.217-1.199 1.488-1.979.442-.099z">
   <title id="t1639">Garfield, MT</title>
  </path>
  <path id="FIPS_30019" d="m206.76 28.372 9.015.911-.109 1.122-.153 3.322.563.059-.104 1.1-7.157-.708-1.415-.154-.37-.775.266-2.573-1.117-.117.121-1.1.267-.352z">
   <title id="t1640">Daniels, MT</title>
  </path>
  <path id="FIPS_30105" d="m206.76 28.372-.193.735-.267.352-.121 1.1 1.117.117-.266 2.573.37.775 1.415.154-.451 4.372-.337-.036-.28 2.654-.667.014-2.659-.573-.126-.058-.221-.23-1.028-.351-.059.026-.053.059-.122.167-.122.315-.004.771-.27-.203-.442.099-1.488 1.979-2.217 1.199-.153.045-.217.027-.82.027-.131.004-1.906-.238-1.411-.559.279-2.272.6-4.227.455-1.245.937.118.92-3.755.464-3.894.356-1.073z">
   <title id="t1641">Valley, MT</title>
  </path>
  <path id="FIPS_30055" d="m213.45 41.033-.071.834-.158 1.496-.36.149-.095.987-1.123-.108-.347 2.208-.36 1.087-.437 4.434-3.755-.374-.112 1.123-.379-.036-.744-.082.117-1.122-1.113-.117-.734-.081.233-2.213-1.117-.117.275-1.474.297-.717.464-4.318-.72-1.225-.523-.059.004-.771.122-.315.122-.167.053-.059.059-.026 1.028.351.221.23.126.058 2.659.573.667-.014 1.352-.414.469-.257.428-.014 1.577.023.645.027.739.144z">
   <title id="t1642">McCone, MT</title>
  </path>
  <path id="FIPS_30079" d="m204.51 51.512 1.113.117-.117 1.122.744.082.379.036.112-1.123 3.755.374.716.073-.261 2.61 1.131.107 1.054.853.167.193.162.275-.031.302 3.75.356-.234 2.249-.036.37-1.114-.104-.049.554-1.118-.099-.234.536-.974.28-2.263-.225-1.821-.564-.31-.41-.446-.794-.149-1.135-.253-1.154-1.866-.554-2.24-.235z">
   <title id="t1643">Prairie, MT</title>
  </path>
  <path id="FIPS_30075" d="m201.67 69.207 10.861 1.122-.41 4.422-.162 1.153-.464-.04-.433 4.516-.464-.045-6.891-.69-.649-.036-.97-.045-2.167-.234.113-2.402.239-2.186.4-1.154.397-2.322.221-2.095z">
   <title id="t1644">Powder River, MT</title>
  </path>
  <path id="FIPS_30017" d="m204.08 55.604 2.24.235 1.866.554.253 1.154.149 1.135.446.794.31.41 1.821.564 2.263.225.974-.28.234-.536 1.118.099-.158 1.672-1.537-.144-.126 1.375.009.532.094.275-.215 2.262-.479-.045-.419 4.48-.388-.036-10.861-1.122.486-4.458.271-.347.202-.73.005-.333.32-2.984.361-1.46.419-2.953.324-.157z">
   <title id="t1645">Custer, MT</title>
  </path>
  <path id="FIPS_30011" d="m213.82 65.93 2.312.221.986.203.492.978.451 1.131.775.104 1.519.117-.095 1.113.811.072-.694 8.596-.392 2.758-8.92-.843.433-4.516.464.04.162-1.153.41-4.422.388.036.419-4.48z">
   <title id="t1646">Carter, MT</title>
  </path>
  <path id="FIPS_30025" d="m215.75 59.958.049-.554 1.114.104.036-.37 1.676.148.55.235-.032.374 2.741.234-.108 1.29-.289 3.34-.36 4.295-.059.815-.811-.072.095-1.113-1.519-.117-.775-.104-.451-1.131-.492-.978-.986-.203-2.312-.221.215-2.262-.094-.275-.009-.532.126-1.375 1.537.144z">
   <title id="t1647">Fallon, MT</title>
  </path>
  <path id="FIPS_30109" d="m222.71 50.462-.077.861-.748 8.806-2.741-.234.032-.374-.55-.235-1.676-.148.234-2.249.946.085.595-.319.203-.167.861-1.235.235-.45.085-1.024-.022-.748-.023-.189-.072-.285-.627-1.834 2.538.23.049-.559z">
   <title id="t1648">Wibaux, MT</title>
  </path>
  <path id="FIPS_30021" d="m212.76 44.499-.113 1.109 2.244.216-.112 1.113 3.367.316.604 1.172-.203 2.226.815.072.627 1.834.072.285.023.189.022.748-.085 1.024-.235.45-.861 1.235-.203.167-.595.319-.946-.085-3.75-.356.031-.302-.162-.275-.167-.193-1.054-.853-1.131-.107.261-2.61-.716-.073.437-4.434.36-1.087.347-2.208z">
   <title id="t1649">Dawson, MT</title>
  </path>
  <path id="FIPS_30083" d="m223.36 42.827-.653 7.635-.758-.068-.049.559-2.538-.23-.815-.072.203-2.226-.604-1.172-3.367-.316.112-1.113-2.244-.216.113-1.109.095-.987.36-.149.158-1.496.071-.834.645.126 1.059.004.185-.094.279-.212.23-.306.51-.207 3.65.919 1.704.991z">
   <title id="t1650">Richland, MT</title>
  </path>
 </g>
</svg>