<svg id="svg9559" width="555.22" height="351.67" xmlns="http://www.w3.org/2000/svg" viewBox="415.77398681640625 172.08999633789062 90.37094116210938 39.86198425292969">
 <g id="stylegroup" fill="#d0d0d0" stroke="#000" stroke-width=".1">
  <path id="FIPS_37043" d="m421.61 203.79 2.921 1.739-.682.109-4.023.586-.718.094z">
   <title id="t1651">Clay, NC</title>
  </path>
  <path id="FIPS_37113" d="m425.45 200.99 2.97 3.926-3.889.612-2.921-1.739.216-1.239.18-.429.073-.05 2.23-.689z">
   <title id="t1652">Macon, NC</title>
  </path>
  <path id="FIPS_37175" d="m431.44 198.97 1.351 1.203.288.33.117.369.068.473.249.753.076.127.135.071-1.848 1.262-1.356.347-1.1.531.437-3.528z">
   <title id="t1653">Transylvania, NC</title>
  </path>
  <path id="FIPS_37099" d="m426.72 198.42 3.137 2.488-.437 3.528-1.001.484-2.97-3.926z">
   <title id="t1654">Jackson, NC</title>
  </path>
  <path id="FIPS_37087" d="m428.52 194.5 1.027 1.378 1.894 3.083-1.583 1.938-3.137-2.488-1.024-2.239-.045-.245z">
   <title id="t1655">Haywood, NC</title>
  </path>
  <path id="FIPS_37173" d="m425.7 196.18 1.024 2.239-1.271 2.574-1.141.392-2.23.689-.073.05-.189-.213-.004-.125.072-.23.055-.068.185-.112.242-.1.145-.081.216-.5.049-.32-.009-.14-.045-.239-.59-.04-3.254.197 2.816-1.784.05.005.189.004 1.473-.152.127-.082 1.789-1.416z">
   <title id="t1656">Swain, NC</title>
  </path>
  <path id="FIPS_37075" d="m418.88 200.15 3.254-.197.59.04.045.239.009.14-.049.32-.216.5-.145.081-.242.1-.185.112-.055.068-.072.23.004.125.189.213-.18.429-1.897.414-.712.333h-.101l-.378-.157-.368-.708.423-2.312z">
   <title id="t1657">Graham, NC</title>
  </path>
  <path id="FIPS_37039" d="m421.83 202.55-.216 1.239-2.502 2.528-1.292.162-2.007.235-.039-2.849.85-.748 1.111-.027.395-.325.244-.333.368.708.378.157h.101l.712-.333z">
   <title id="t1658">Cherokee, NC</title>
  </path>
  <path id="FIPS_37121" d="m437.01 189.2 1.388 2.345-1.388 1.351-.294-1.108-.108-.204-.578-.99-.048-.059-1.708-.653-.64.243 1.839-1.37z">
   <title id="t1659">Mitchell, NC</title>
  </path>
  <path id="FIPS_37199" d="m433.63 190.13.64-.243 1.708.653.048.059.578.99.108.204.294 1.108-1.235 1.753-1.587-1.262-1.288-1.919z">
   <title id="t1660">Yancey, NC</title>
  </path>
  <path id="FIPS_37115" d="m431.79 190.83 1.11.645 1.288 1.919-.969.352-.568.357-.333.238-.649.472-1.316.858-.803.216-1.027-1.378.399-2.033.466-.118.91-.852.648-.64.181-.131.262-.189.049-.008.155.098v.005z">
   <title id="t1661">Madison, NC</title>
  </path>
  <path id="FIPS_37021" d="m435.78 194.65 1.423 2.11-.883.92-.752-.316-.681.478-.861.464-.78.289-.478-.041-.324-.073-.109-.057-.202-.036-.319.125-.1.077-.265.374-1.894-3.083.803-.216 1.316-.858.649-.472.333-.238.568-.357.969-.352z">
   <title id="t1662">Buncombe, NC</title>
  </path>
  <path id="FIPS_37089" d="m436.32 197.68.185.951-.625 2.532-2.147 1.127-.135-.071-.076-.127-.249-.753-.068-.473-.117-.369-.288-.33-1.351-1.203.265-.374.1-.077.319-.125.202.036.109.057.324.073.478.041.78-.289.861-.464.681-.478z">
   <title id="t1663">Henderson, NC</title>
  </path>
  <path id="FIPS_37149" d="m439.91 200.83-2.578.266-1.458.067.625-2.532.617-.217.401-.144.095.013.325.141.153.101 1.648 1.39.105.171z">
   <title id="t1664">Polk, NC</title>
  </path>
  <path id="FIPS_37161" d="m442.02 195.36.324 2.875-.324 1.822-.009.554-1.109.113-.988.108-.067-.744-.105-.171-1.648-1.39-.153-.101-.325-.141-.095-.013-.401.144-.617.217-.185-.951.883-.92 3.466-1.13z">
   <title id="t1665">Rutherford, NC</title>
  </path>
  <path id="FIPS_37111" d="m438.4 191.55.301-.672.073.041.077.098.229.37.058.122.087.288-.069.487.766 1.559.744 1.791-3.466 1.13-1.423-2.11 1.235-1.753z">
   <title id="t1666">McDowell, NC</title>
  </path>
  <path id="FIPS_37011" d="m438.22 186.94.108-.311 1.429 2.092.333 1.915-1.393.244-.301.672-1.388-2.345z">
   <title id="t1667">Avery, NC</title>
  </path>
  <path id="FIPS_37189" d="m440.15 185.03.915.361.599.528.397.289.86.338-.45 1.679-2.713.488-1.429-2.092.076-.207.474-.531.514-.352.013-.01.054-.031.064.148.27.086.161-.008h.019l.215-.072z">
   <title id="t1668">Watauga, NC</title>
  </path>
  <path id="FIPS_37003" d="m447.9 188.32-.317 3.547-2.307.143-.338-2.578.559-.463.302-.118.464-.148.167.04.711-.17.573-.163z">
   <title id="t1669">Alexander, NC</title>
  </path>
  <path id="FIPS_37009" d="m440.2 182.39 3.322-.334.041.256.675.952.366.311.099.162.23.481.058.388-2.069 1.944-.86-.338-.397-.289-.599-.528-.915-.361z">
   <title id="t1670">Ashe, NC</title>
  </path>
  <path id="FIPS_37005" d="m448.14 181.5-.338 2.163-.09.369-.474.076-.198-.219-.04-.221-.451-.226-.08-.013-.654.194-.821.986-.058-.388-.23-.481-.099-.162-.366-.311-.675-.952-.041-.256z">
   <title id="t1671">Alleghany, NC</title>
  </path>
  <path id="FIPS_37193" d="m444.99 184.61.821-.986.654-.194.08.013.451.226.04.221.198.219.474-.076.09-.369 1.299 1.965.279 2.335-1.482.365-.186.09-.573.163-.711.17-.167-.04-.464.148-.302.118-.559.463-2.461-1.208.45-1.679z">
   <title id="t1672">Wilkes, NC</title>
  </path>
  <path id="FIPS_37027" d="m439.76 188.72 2.713-.488 2.461 1.208.338 2.578-.248.416-.121.158-.222.017-1.65.005-2.001-1.212-.851-.65-.086-.117z">
   <title id="t1673">Caldwell, NC</title>
  </path>
  <path id="FIPS_37023" d="m440.09 190.63.086.117.851.65 2.001 1.212 1.65-.005.222-.017.121-.158-1.361 2.826-.023.062-1.622.041-1.353.272-.744-1.791-.766-1.559.069-.487-.087-.288-.058-.122-.229-.37-.077-.098-.073-.041z">
   <title id="t1674">Burke, NC</title>
  </path>
  <path id="FIPS_37045" d="m443.64 195.32 1.122 1.727 1.839 3.083-.406.04-4.186.442.009-.554.324-1.822-.324-2.875z">
   <title id="t1675">Cleveland, NC</title>
  </path>
  <path id="FIPS_37071" d="m444.76 197.05 5.206-.572-.393 3.384-2.974.271z">
   <title id="t1676">Gaston, NC</title>
  </path>
  <path id="FIPS_37109" d="m449.62 194.6.256.748.09 1.127-5.206.572-1.122-1.727.023-.062z">
   <title id="t1677">Lincoln, NC</title>
  </path>
  <path id="FIPS_37035" d="m445.27 192.02 2.307-.143 1.343.779.379.379.496.645-.175.924-5.959.658 1.361-2.826z">
   <title id="t1678">Catawba, NC</title>
  </path>
  <path id="FIPS_37097" d="m449.38 187.96 1.946-.257.258 2.569-.199 1.667-.085.717.595 1.623.067.243.041.23-.487.077-1.636.518-.256-.748.175-.924-.496-.645-.379-.379-1.343-.779.317-3.547z">
   <title id="t1679">Iredell, NC</title>
  </path>
  <path id="FIPS_37119" d="m449.88 195.35 1.636-.518-.009.094.014.086.401 1.144 1.312 1.551 1.32.559-2.574 3.141-.838-.856-1.565-.69.393-3.384z">
   <title id="t1680">Mecklenburg, NC</title>
  </path>
  <path id="FIPS_37159" d="m451.58 190.27 2.785.992 1.348.089 1.573 1.565.423.929-1.158.21-4.552.695-.041-.23-.067-.243-.595-1.623.085-.717z">
   <title id="t1681">Rowan, NC</title>
  </path>
  <path id="FIPS_37059" d="m451.32 187.7 2.017-.267 1.188.767.189.104.06.09.121.338.052.356-.092.761-.388.262-.104 1.15-2.785-.992z">
   <title id="t1682">Davie, NC</title>
  </path>
  <path id="FIPS_37197" d="m453.38 184.86-.039 2.573-2.017.267-1.946.257-.279-2.335.883-.55 1.509-.514.61-.009.95.162.217.068z">
   <title id="t1683">Yadkin, NC</title>
  </path>
  <path id="FIPS_37171" d="m451.09 181.07 1.762-.189.492 3.722.039.262-.112-.081-.217-.068-.95-.162-.61.009-1.509.514-.883.55-1.299-1.965.338-2.163.654-.068z">
   <title id="t1684">Surry, NC</title>
  </path>
  <path id="FIPS_37169" d="m457.05 180.28.537 3.668-4.249.653-.492-3.722 3.938-.554z">
   <title id="t1685">Stokes, NC</title>
  </path>
  <path id="FIPS_37067" d="m453.34 184.6 4.249-.653.459 3.174-3.52 1.081-1.188-.767.039-2.573z">
   <title id="t1686">Forsyth, NC</title>
  </path>
  <path id="FIPS_37057" d="m454.53 188.2 3.52-1.081.153 1.158.7 5.345-1.191.222-.423-.929-1.573-1.565-1.348-.089.104-1.15.388-.262.092-.761-.052-.356-.121-.338-.06-.09z">
   <title id="t1687">Davidson, NC</title>
  </path>
  <path id="FIPS_37167" d="m456.55 194.06 1.158-.21.798.405.063.04.483.766.193.402.5 2.33.015.076-.019.117-.149.302-2.198-.329-2.332.527z">
   <title id="t1688">Stanly, NC</title>
  </path>
  <path id="FIPS_37025" d="m456.55 194.06-1.488 4.426-.513-.22-1.32-.559-1.312-1.551-.401-1.144-.014-.086.009-.094.487-.077z">
   <title id="t1689">Cabarrus, NC</title>
  </path>
  <path id="FIPS_37179" d="m457.4 197.96.368 4.966-2.509.372-2.25.332-.212-.04-.005-.122-.072-1.316-.739-.744 2.574-3.141.513.22z">
   <title id="t1690">Union, NC</title>
  </path>
  <path id="FIPS_37007" d="m459.59 198.28.027.113.122.271.492.193.274.028.055-.009.063-.055.026-.036.032-.131.208-.221.134-.081h.167l.19.235.298.482.778 1.861v.068l-.102.244-.501 1.082-4.093.593-.368-4.966z">
   <title id="t1691">Anson, NC</title>
  </path>
  <path id="FIPS_37157" d="m460.22 179.75 2.073-.347.438 3.759.012.108-5.155.681-.537-3.668z">
   <title id="t1692">Rockingham, NC</title>
  </path>
  <path id="FIPS_37081" d="m457.59 183.95 5.155-.681.668 4.391-5.211.622-.153-1.158z">
   <title id="t1693">Guilford, NC</title>
  </path>
  <path id="FIPS_37151" d="m463.41 187.66.121.721.595 4.222-2.185.429-3.042.595-.7-5.345z">
   <title id="t1694">Randolph, NC</title>
  </path>
  <path id="FIPS_37123" d="m461.94 193.03 1.086 2.759.031.162.153.247.591.691.244.198.266.117-1.051.059-1.447.112-.549.37-1.077.473-.231.049-.365.018.149-.302.019-.117-.015-.076-.5-2.33-.193-.402-.483-.766-.063-.04-.798-.405 1.191-.222z">
   <title id="t1695">Montgomery, NC</title>
  </path>
  <path id="FIPS_37153" d="m459.59 198.28.365-.018.231-.049 1.077-.473.549-.37 1.447-.112 1.051-.059 1.875 1.262-.51.315-.379.343-.172.184-.054.51.041.157.095.149-.148.749-.163.347-.549.703-2.493.406.501-1.082.102-.244v-.068l-.778-1.861-.298-.482-.19-.235h-.167l-.134.081-.208.221-.032.131-.026.036-.063.055-.055.009-.274-.028-.492-.193-.122-.271z">
   <title id="t1696">Richmond, NC</title>
  </path>
  <path id="FIPS_37165" d="m467.8 200.88-.71 2.867-2.736-1.821.549-.703.163-.347.148-.749-.095-.149-.041-.157.054-.51.172-.184.379-.343.51-.315z">
   <title id="t1697">Scotland, NC</title>
  </path>
  <path id="FIPS_37033" d="m466.07 178.72.527 3.858-1.054.167-2.807.414-.438-3.759.41-.076 1.289-.229 1.258-.231z">
   <title id="t1698">Caswell, NC</title>
  </path>
  <path id="FIPS_37001" d="m462.73 183.16 2.807-.414.915 4.679-2.921.955-.121-.721-.668-4.391z">
   <title id="t1699">Alamance, NC</title>
  </path>
  <path id="FIPS_37125" d="m466.24 192.2 2.195 2.389 1.159 1.306.027.236-1.627-.203-.352.306-.495.59-.645 1.082-.31.564-1.875-1.262-.266-.117-.244-.198-.591-.691-.153-.247-.031-.162-1.086-2.759 2.185-.429z">
   <title id="t1700">Moore, NC</title>
  </path>
  <path id="FIPS_37093" d="m466.19 198.47.31-.564.645-1.082.495-.59.352-.306 1.627.203 1.159 2.699-1.2 1.618-.567.261-1.214.172z">
   <title id="t1701">Hoke, NC</title>
  </path>
  <path id="FIPS_37155" d="m470.78 198.83 1.654 1.267 1.329 1.676.04.19-.103 2.299-.139.275-.496.485-.627 1.348-.532.883-4.674-3.406-.143-.099.71-2.867 1.214-.172.567-.261z">
   <title id="t1702">Robeson, NC</title>
  </path>
  <path id="FIPS_37047" d="m480.15 204.4 1.082.358-.622 1.977-1.262.712-1.127.388-.121.01-.081.03-.266.325-.482 1.772-.15 1.004-5.219-3.728.532-.883.627-1.348.496-.485.441.175h.09l.221-.04 1.149-.298 1.307.279 1.465.414 1.158-.085z">
   <title id="t1703">Columbus, NC</title>
  </path>
  <path id="FIPS_37019" d="m481.23 204.76 1.436.062.858 1.014.622 1.46.216.803.05.278.207 1.385-.753.685-.846-.072-.452.004-.428.054-1.028.216-1.063.334-.036.013h-.004l-1.222.708-.303.248-1.365-.974.15-1.004.482-1.772.266-.325.081-.03.121-.01 1.127-.388 1.262-.712z">
   <title id="t1704">Brunswick, NC</title>
  </path>
  <path id="FIPS_37129" d="m486.02 204.7-.194.292-.18.393-.478 1.185-.077.307-.18.891-.017.109-.276 1.885-.207-1.385-.05-.278-.216-.803-.622-1.46-.858-1.014 1.002-.614.812-.387.419-.005-.082.127.045.099.167.162.726.496z">
   <title id="t1705">New Hanover, NC</title>
  </path>
  <path id="FIPS_37017" d="m476.58 199.04 3.21 3.389-.14.239.028.062.257.321.184.113.316.04.382.203-.671.991-.762.577-1.158.085-1.465-.414-1.307-.279-1.149.298-.221.04h-.09l-.441-.175.139-.275.103-2.299-.04-.19-1.329-1.676.576-.271.434-.112 2.757-.528.288-.072z">
   <title id="t1706">Bladen, NC</title>
  </path>
  <path id="FIPS_37051" d="m474.4 194.31-.19 2.055v.095l.253.555.334.622.076.117 1.712 1.289-.099.067-.288.072-2.757.528-.434.112-.576.271-1.654-1.267-1.159-2.699-.027-.236.32-.143 1.857-.852.915-.492.311-.071z">
   <title id="t1707">Cumberland, NC</title>
  </path>
  <path id="FIPS_37037" d="m469.98 186.9.021.329-.342 3.128.888.194-.429.888-1.008-.794-.2-.131-.107-.048-.28-.078-.208.018-.185.06-.436.67-.465.407-.739.522-.257.126-2.109.405-.595-4.222 2.921-.955 2.411-.257z">
   <title id="t1708">Chatham, NC</title>
  </path>
  <path id="FIPS_37085" d="m470.55 190.56 2.267.437 2.2 2.284-.618 1.033-1.406.023-.311.071-.915.492-1.857.852-.32.143-1.159-1.306 1.69-3.141z">
   <title id="t1709">Harnett, NC</title>
  </path>
  <path id="FIPS_37105" d="m466.24 192.2.257-.126.739-.522.465-.407.436-.67.185-.06.208-.018.28.078.107.048.2.131 1.008.794-1.69 3.141z">
   <title id="t1710">Lee, NC</title>
  </path>
  <path id="FIPS_37135" d="m466.59 182.58 2.071-.333.201 4.922-2.411.257-.915-4.679z">
   <title id="t1711">Orange, NC</title>
  </path>
  <path id="FIPS_37145" d="m466.07 178.72 3.462-.626.658 3.916-1.522.235-2.071.333z">
   <title id="t1712">Person, NC</title>
  </path>
  <path id="FIPS_37063" d="m470.19 182.01.924 2.005.644.65-.045.595-.116.329-.232.401-.603.784-.774.131-1.119.262-.201-4.922z">
   <title id="t1713">Durham, NC</title>
  </path>
  <path id="FIPS_37141" d="m480.86 200.01 4.475-.843 2.385 3.235-1.695 2.295h-.266l-.726-.496-.167-.162-.045-.099.082-.127-.419.005-.812.387-1.002.614-1.436-.062-1.082-.358.671-.991-.382-.203-.316-.04-.184-.113-.257-.321-.028-.062.14-.239z">
   <title id="t1714">Pender, NC</title>
  </path>
  <path id="FIPS_37163" d="m475.02 193.28 2.501-.085 1.685.96.307 1.393.558 2.23-.153 2.214.749.225.064-.036.13-.166-1.064 2.42-3.21-3.389-1.712-1.289-.076-.117-.334-.622-.253-.555v-.095l.19-2.055z">
   <title id="t1715">Sampson, NC</title>
  </path>
  <path id="FIPS_37191" d="m479.26 188.91 2.496-.314.681 2.55.185 2.506-3.417.5-1.685-.96.405-.591.816-1.374z">
   <title id="t1716">Wayne, NC</title>
  </path>
  <path id="FIPS_37101" d="m477.6 187.31.447.477.546 1.02.667.107-.519 2.317-.816 1.374-.405.591-2.501.085-2.2-2.284 1.419-1.987 1.446-1.61 1.065-1.082z">
   <title id="t1717">Johnston, NC</title>
  </path>
  <path id="FIPS_37183" d="m471.11 184.02 2.177.253.59.14.743.231 1.402.788.361.301.338.456.027.13-1.065 1.082-1.446 1.61-1.419 1.987-2.267-.437-.888-.194.342-3.128-.021-.329.774-.131.603-.784.232-.401.116-.329.045-.595z">
   <title id="t1718">Wake, NC</title>
  </path>
  <path id="FIPS_37077" d="m470.15 177.97 2.804-.523-.343.438-.027.253.086.837.365 1.956.252 1.204.14.076-.144 2.055-2.177-.253-.924-2.005-.658-3.916z">
   <title id="t1719">Granville, NC</title>
  </path>
  <path id="FIPS_37181" d="m472.96 177.45 1.343-.27.838 3.511-1.708 1.523-.14-.076-.252-1.204-.365-1.956-.086-.837.027-.253z">
   <title id="t1720">Vance, NC</title>
  </path>
  <path id="FIPS_37185" d="m477.1 176.64 1.479-.293.112.483-.351 4.088-3.205-.23-.838-3.511z">
   <title id="t1721">Warren, NC</title>
  </path>
  <path id="FIPS_37069" d="m478.34 180.92-1.596 5.394-.027-.13-.338-.456-.361-.301-1.402-.788-.743-.231-.59-.14.144-2.055 1.708-1.523z">
   <title id="t1722">Franklin, NC</title>
  </path>
  <path id="FIPS_37127" d="m481.6 180.95-.028.626-.422 2.128-.172 1.149-3.377 2.452-.851-.992 1.596-5.394z">
   <title id="t1723">Nash, NC</title>
  </path>
  <path id="FIPS_37131" d="m486 174.87.929.803-.41 1.461-.199 1.644-.643 1.168-.06.058-.104-.019-.878-.373-2.263-1.532-.184-.816-1.024-.55-2.425.041-.045.081-.112-.483 1.338-.256 4.755-.938z">
   <title id="t1724">Northampton, NC</title>
  </path>
  <path id="FIPS_37083" d="m478.7 176.83.045-.081 2.425-.041 1.024.55.184.816 2.263 1.532.878.373.104.019.06-.058-.123 1.267-.585 1.04-.213.059-1.041-.24-.179-.386-.555-.298-1.384-.433-3.254-.031z">
   <title id="t1725">Halifax, NC</title>
  </path>
  <path id="FIPS_37065" d="m484.97 182.25.995 2.258-.437-.094-.757.572-.216.369-.298.384-1.105 1.203-.729-.559-.47-.947-.977-.581.172-1.149.422-2.128.028-.626 1.384.433.555.298.179.386 1.041.24z">
   <title id="t1726">Edgecombe, NC</title>
  </path>
  <path id="FIPS_37195" d="m480.98 184.85.977.581.47.947.729.559-.337.397-1.06 1.258-2.496.314-.667-.107-.546-1.02-.447-.477z">
   <title id="t1727">Wilson, NC</title>
  </path>
  <path id="FIPS_37079" d="m482.82 187.34 2.863 2.425-.831.739-.645.505-.338.152-.093.019-.19-.216-1.145.184-.681-2.55z">
   <title id="t1728">Greene, NC</title>
  </path>
  <path id="FIPS_37107" d="m486.77 190.69-.574 1.591-.567-.077.343.893-.005.085-.689 1.361-1.167 1.069-1.488-1.961-.185-2.506 1.145-.184.19.216.093-.019.338-.152.645-.505.831-.739z">
   <title id="t1729">Lenoir, NC</title>
  </path>
  <path id="FIPS_37103" d="m486.19 192.28.109.014 3.155 1.257.32.171.392-.239.117.023.064.077.189.585.392 2.426.293.314-.735.384-.784-1.072-.05-.061-.577-.444-.325-.04h-2.955l-1.069.278-.621-.342 1.167-1.069.689-1.361.005-.085-.343-.893z">
   <title id="t1730">Jones, NC</title>
  </path>
  <path id="FIPS_37061" d="m479.2 194.15 3.417-.5 1.488 1.961.621.342.406.563.108 2.42.009.081.081.15-4.475.843-.13.166-.064.036-.749-.225.153-2.214-.558-2.23z">
   <title id="t1731">Duplin, NC</title>
  </path>
  <path id="FIPS_37133" d="m484.73 195.96 1.069-.278h2.955l.325.04.577.444.05.061.784 1.072.924 1.744-3.695 3.366-2.385-3.235-.081-.15-.009-.081-.108-2.42z">
   <title id="t1732">Onslow, NC</title>
  </path>
  <path id="FIPS_37031" d="m495.26 193.22.044.086.185.197.423-.044 1.988-.216.306 1.541 2.105-2.24-.519 1.244-2.041 3.659-.527.324-.354-.121-1.084-.211-.533.063-.444.09-.479.139-.892.326-.834.346-.091.04-.037.018-.27.132-.229.131-.392.225-.167.094-.924-1.744.735-.384 1.366-.383 1.951-.869.609-.424.194-.617.049-.293-.073-.067-.653-.42z">
   <title id="t1733">Carteret, NC</title>
  </path>
  <path id="FIPS_37137" d="m494.79 189.08 1.141-.009.207.063.153.22.096.221.04.199-.149.671-.294 1.252-.161.38-.571 1.14-.588.622-.45.465-.181.085-.401.054-.928-.229-.582-.325-.243-.257-.474-1.429.114-.614.135-.32.411-.495.607.374 2.137-.694.089-.487v-.117z">
   <title id="t1734">Pamlico, NC</title>
  </path>
  <path id="FIPS_37049" d="m488.62 189.28 3.449 1.492-.411.495-.135.32-.114.614.474 1.429.243.257.582.325.928.229.401-.054.181-.085.45-.465.653.42.073.067-.049.293-.194.617-.609.424-1.951.869-1.366.383-.293-.314-.392-2.426-.189-.585-.064-.077-.117-.023-.392.239-.32-.171-3.155-1.257-.109-.014.574-1.591z">
   <title id="t1735">Craven, NC</title>
  </path>
  <path id="FIPS_37147" d="m485.96 184.51 2.023.74.632 4.033-1.852 1.411-1.09-.928-2.863-2.425.337-.397 1.105-1.203.298-.384.216-.369.757-.572z">
   <title id="t1736">Pitt, NC</title>
  </path>
  <path id="FIPS_37117" d="m485.56 181.21.014.071.094.145 1.541 1.243.123.072 1.653.605.118.031 2.01-.248.744-.415-.443 2.204-.986.686-.325.206-.914-.284-1.196-.278-2.023-.74-.995-2.258z">
   <title id="t1737">Martin, NC</title>
  </path>
  <path id="FIPS_37041" d="m491.37 177.09 1.244-.99-.012 1.499.509 1.59.04.041.118.059.229.035.419.032.918-.054-2.459 1.23-.97-2.758z">
   <title id="t1738">Chowan, NC</title>
  </path>
  <path id="FIPS_37091" d="m488.52 174.39.194.289-.014.126-.175.509-.167.077.174.699.038.046.158.107.288.085.92.153h.279l1.162.61.036.684-1.951.41-1.095.271-1.771.315h-.271l.199-1.644.41-1.461-.929-.803 2.497-.469z">
   <title id="t1739">Hertford, NC</title>
  </path>
  <path id="FIPS_37015" d="m491.41 177.78.97 2.758-.041 1.011-.486 1.166-.744.415-2.01.248-.118-.031-1.653-.605-.123-.072-1.541-1.243-.094-.145-.014-.071.123-1.267.643-1.168h.271l1.771-.315 1.095-.271z">
   <title id="t1740">Bertie, NC</title>
  </path>
  <path id="FIPS_37073" d="m492.27 173.54.608.401.734 1.604-.996.562-1.244.99-1.162-.61h-.279l-.92-.153-.288-.085-.158-.107-.038-.046-.174-.699.167-.077.175-.509.014-.126-.194-.289z">
   <title id="t1741">Gates, NC</title>
  </path>
  <path id="FIPS_37029" d="m492.78 173.43 1.792-.379 1.893 1.253 1.226.671.05-.044.139.013.23.09.762.577 1.039 1.456.007.032-1.659.044-.312-.351-.784-.55-1.527-.929-2.06-.946-.694-.428-.608-.401z">
   <title id="t1742">Camden, NC</title>
  </path>
  <path id="FIPS_37139" d="m492.88 173.94.694.428 2.06.946 1.527.929.784.55.312.351-1.262 1.131-1.018-.662-1.254-.721-1.004-1.171-.105-.177z">
   <title id="t1743">Pasquotank, NC</title>
  </path>
  <path id="FIPS_37143" d="m493.61 175.54.105.177 1.004 1.171 1.254.721 1.018.662-2.156 1.033-.918.054-.419-.032-.229-.035-.118-.059-.04-.041-.509-1.59.012-1.499z">
   <title id="t1744">Perquimans, NC</title>
  </path>
  <path id="FIPS_37013" d="m493.52 184.49 1.849 1.375-.844.83-.117.068-.032.054v.054l.041.153.329.61.357.472.175.203-.483.771.108.77v.117l-.089.487-2.137.694-.607-.374-3.449-1.492-.632-4.033 1.196.278.914.284.325-.206.986-.686z">
   <title id="t1745">Beaufort, NC</title>
  </path>
  <path id="FIPS_37187" d="m492.34 181.55.009.008.208.085.067.005.595-.162.987-.384.312-.21.107-.15.596-.307.099.038.103.089.307.324.167 1.362-.208.685.325 1.14-2.493.418-2.11.429.443-2.204z">
   <title id="t1746">Washington, NC</title>
  </path>
  <path id="FIPS_37177" d="m499.83 183.64-3.822.429-.325-1.14.208-.685-.167-1.362.8-.573.551-.319.365-.144 1.164-.243.442.198.126.113.252.68-.023.167-.004.365.104.708.185.725.17.852z">
   <title id="t1747">Tyrrell, NC</title>
  </path>
  <path id="FIPS_37055" d="m499.83 183.64.026-.229-.17-.852-.185-.725-.104-.708.004-.365.023-.167.432-.821.077-.085.361-.238.198-.063.194-.037.112.004.455.126.361.334.73 1.029.119.193.484 1.541.011.059.018.901-.334.69-.207.113-.402.13-.355-.081zm2.866-4.069.185.085.184.145.24.248.184.315.14.509-.045.096-.041.008-.483-.086-.089-.067-.757-1.104-.055-.095-.005-.027.077-.068.131-.026h.154zm1.208 9.429.189-.104.149-.099.816-.564.874-.648.024-.207-.047-1.308-.062-.874-.109-1.294-.131-.586-.094-.293-.135-.305-.162-.204-.128-.162-.522-1.123.038-.045.057.009.019.005.021.027.267.325.103.167.311.594.184.428.253.568.081.555.019.166.094.789.089 1.154.043.942-.006 1.145-.054.118-.121-.005-.167-.014-.203.059-.297.112-.239.149-1.069.694-.085-.171m-3.029-13.058.564.906.003.004.312.47.315.41.546.64.581.784.753 1.015.495.765-.048.149-1.019-1.135-1.735-2.097-.969-1.811z">
   <title id="t1748">Dare, NC</title>
  </path>
  <path id="FIPS_37053" d="m496.49 172.64 2.571-.55 1.82 3.848-.202.1-1.091-2.268-.672-.738-.081-.032-1.027-.049-.151.066-.033.046-.043.095.006.153.184.28.108.126.1.053.486.222.649.722 1.817 2.794.171.369.009.139h-.063l-.424-.175-.143-.095-.272-.275-.292-.378-.007-.032-1.039-1.456-.762-.577-.23-.09-.139-.013-.05.044-1.226-.671-1.893-1.253z">
   <title id="t1749">Currituck, NC</title>
  </path>
  <path id="FIPS_37095" d="m499.83 183.64 1.848.749-.239.18-.447.658-.031.064-.279.739.04.148-.005.135-.057.415-.014.086-.05.094-.383.609-.64.699-.063.04-2.614.253-.095.005-.848-.105-.68-.103-.175-.203-.357-.472-.329-.61-.041-.153v-.054l.032-.054.117-.068.844-.83-1.849-1.375 2.493-.418zm4.074 5.36.085.171-.193.108-.186.149-.463.374-.654.563-.288.253-.325.383-.153.225-.104.095-.031-.04.01-.051.161-.459.185-.265.654-.573.991-.794z">
   <title id="t1750">Hyde, NC</title>
  </path>
 </g>
</svg>