<svg id="svg9559" width="555.22" height="351.67" xmlns="http://www.w3.org/2000/svg" viewBox="221.12599182128906 30.054000854492188 67.37602233886719 42.1820068359375">
 <g id="stylegroup" fill="#d0d0d0" stroke="#000" stroke-width=".1">
  <path id="FIPS_38017" d="m280.68 55.392 5.463.086.045 1.118.013 1.631.374 1.226.109.298-.172 2.803.005.722v.004l-4.43-.036-3.579-.063.081-4.48-.189-1.303.031-2.055z">
   <title id="t1751">Cass, ND</title>
  </path>
  <path id="FIPS_38077" d="m286.51 63.28.383 1.113 1.239 2.984.343 2.704.027.226-.018.261-.022.081-.167.469.122 1.118-5.991-.059-.189-.78-.072-.798.041-2.888-.19-.005.064-4.462z">
   <title id="t1752">Richland, ND</title>
  </path>
  <path id="FIPS_38013" d="m241.62 33.799-1.117-.076-.776 1.063-.148 2.218-5.63-.397.081-1.104.081-1.113-.468-.032.27-3.543 7.87.541z">
   <title id="t1753">Burke, ND</title>
  </path>
  <path id="FIPS_38023" d="m224.41 30.054 9.505.761-.27 3.543.468.032-.081 1.113-10.01-.798z">
   <title id="t1754">Divide, ND</title>
  </path>
  <path id="FIPS_38105" d="m224.02 34.705 10.01.798-.081 1.104-.153 2.213.496.031-.234 3.178-.366-.194-1.982-.27-.884.076-.108.077-.226.235-.157.216-.005.022.018.028.131.058.072.077.004.054-.018.072-.067.072-.406.149-.595.162-1.262.234-.112-.009-.455-.401-.195-.324-.022-.397-.153-.293-.568-.189-.18.036-.176.09-.27.207-.005.059.027.058.18.176-.252.37-.766.586-.55.302-.307.063-1.041-.604.401-5.012z">
   <title id="t1755">Williams, ND</title>
  </path>
  <path id="FIPS_38061" d="m239.58 37.004 2.254.126.301 2.258-.279 4.453.248.766.054 1.501-4.489-.288-.077 1.144-2.181-.991-.036-.041-.018-.063-.037-.378.023-.181.086-.338.031-.063.311-.374.19-.117.144-.131.13-.176.113-.229.005-.068-.028-.041-1.243-1.216-.65-.479-.373-.049.234-3.178-.496-.031.153-2.213z">
   <title id="t1756">Mountrail, ND</title>
  </path>
  <path id="FIPS_38053" d="m234.06 42.029.373.049.65.479 1.243 1.216.028.041-.005.068-.113.229-.13.176-.144.131-.19.117-.311.374-.031.063-.086.338-.023.181.037.378.018.063.036.041-.14 1.911-3.998-.298-.324 4.418-4.99-.393-3.326-.288.077-.861.653-7.635 1.041.604.307-.063.55-.302.766-.586.252-.37-.18-.176-.027-.058.005-.059.27-.207.176-.09.18-.036.568.189.153.293.022.397.195.324.455.401.112.009 1.262-.234.595-.162.406-.149.067-.072.018-.072-.004-.054-.072-.077-.131-.058-.018-.028.005-.022.157-.216.226-.235.108-.077.884-.076 1.982.27z">
   <title id="t1757">McKenzie, ND</title>
  </path>
  <path id="FIPS_38025" d="m237.59 46.964.288-.428.063-.059.064-.031.126.023.477.212.091.058.022.068-.004.081-.036.094-.149 1.781.018.063.036.054.429.532-.208 3.155.536.031-.266 4.07-3.366-.225-.023.369-4.489-.306.333-4.458-.585-.044.324-4.418 3.998.298.14-1.911z">
   <title id="t1758">Dunn, ND</title>
  </path>
  <path id="FIPS_38089" d="m239.08 56.668.402.401-.212 3.376-.077 1.109-7.392-.492-2.699-.202.347-4.485 1.753.131 4.489.306.023-.369z">
   <title id="t1759">Stark, ND</title>
  </path>
  <path id="FIPS_38033" d="m225.96 51.611-.365 4.467.51.041-.356 4.483-1.704-.139-.095 1.14-2.172-.184.108-1.29.748-8.806z">
   <title id="t1760">Golden Valley, ND</title>
  </path>
  <path id="FIPS_38007" d="m225.96 51.611 4.99.393.585.044-.333 4.458-1.753-.131-.347 4.485-3.353-.258.356-4.483-.51-.041z">
   <title id="t1761">Billings, ND</title>
  </path>
  <path id="FIPS_38011" d="m230.87 65.497-.32 4.305-9.424-.748.36-4.295z">
   <title id="t1762">Bowman, ND</title>
  </path>
  <path id="FIPS_38087" d="m225.75 60.602 3.353.258 2.699.202-.297 4.472-.631-.037-9.384-.738.289-3.34 2.172.184.095-1.14z">
   <title id="t1763">Slope, ND</title>
  </path>
  <path id="FIPS_38041" d="m239.19 61.554.406.031-.018 3.007.207 1.555-.063.928-4.471-.302.072-.991-3.822-.248.297-4.472z">
   <title id="t1764">Hettinger, ND</title>
  </path>
  <path id="FIPS_38001" d="m230.87 65.497.631.037 3.822.248-.072.991 4.471.302-.216 3.349h-.018l-8.456-.586-.482-.036z">
   <title id="t1765">Adams, ND</title>
  </path>
  <path id="FIPS_38057" d="m239.02 49.412.193.099 2.497.964.572.171.126-.022.204-.103.437-.271.306-.099 2.24-.189h.158l.072.032.487.504-.018.077-.073.081-.328.167-.082.072-.153.175-.031.095.013.09.699 1.947.775.676-.023.302-4.466-.261-.203 3.331-2.938-.181-.402-.401.266-4.07-.536-.031z">
   <title id="t1766">Mercer, ND</title>
  </path>
  <path id="FIPS_38037" d="m239.27 60.445 3.358.203-.068 1.117 3.732.226-.189 3.322 2.239.121.145 1.132-.857.856-.915.713-.842.594-1.921.874-.712.212-.026-.004-.893-.185-1.335-.469-.589-.198-.798.068.126-1.952.063-.928-.207-1.555.018-3.007-.406-.031z">
   <title id="t1767">Grant, ND</title>
  </path>
  <path id="FIPS_38085" d="m248.49 66.566.103-.46.92-.852.378-.126.126.113.352.072.911.058.225-.071.969-.38.077.154.171.451.063.239.005.387-.14 1.177-.037.121-.139.284-.167.171-.248.37-.108.257-.004.149.09.802.036.13.807 1.565-2.046-.104-.203-.009-.073-.005-1.081-.054-.816-.045-2.614-.144-.919-.05-.523-.031-1.127-.063-1.362-.086-1.293-.076-1.086-.068-.145-.009-.022-.004-.058-.005.09-1.397.798-.068.589.198 1.335.469.893.185.026.004.712-.212 1.921-.874.842-.594.915-.713z">
   <title id="t1768">Sioux, ND</title>
  </path>
  <path id="FIPS_38059" d="m239.48 57.069 2.938.181 7.333.392.014.239.203.842.54 1.988.392.775.438.433.622.315.518.424.172.302.247.55-.275.415-.081.162-.135.572.009.113.054.148-.969.38-.225.071-.911-.058-.352-.072-.126-.113-.378.126-.92.852-.103.46-.145-1.132-2.239-.121.189-3.322-3.732-.226.068-1.117-3.358-.203z">
   <title id="t1769">Morton, ND</title>
  </path>
  <path id="FIPS_38065" d="m249.61 55.402.14 2.24-7.333-.392.203-3.331 4.466.261.023-.302 1.208-.297.311-.027.252.067.203.086.293.225.153.199.032.072z">
   <title id="t1770">Oliver, ND</title>
  </path>
  <path id="FIPS_38075" d="m241.62 33.799.163-2.443 4.497.266-.207 3.557.262 2.235 3.385.198-.059 1.105-6.765-.397.198-3.322-1.541-.095z">
   <title id="t1771">Renville, ND</title>
  </path>
  <path id="FIPS_38101" d="m239.58 37.004.148-2.218.776-1.063 1.117.076-.067 1.104 1.541.095-.198 3.322 6.765.397-.059 1.112.203 1.168.005 2.312.225 1.01.108.005-.121 2.221-7.865-.437-.054-1.501-.248-.766.279-4.453-.301-2.258z">
   <title id="t1772">Ward, ND</title>
  </path>
  <path id="FIPS_38055" d="m250.02 46.545 3.371.185-.103 2.218-.767-.037-.045.654-.184 3.782-.668-.037-.113 2.182-1.902-.09-.049-1.199-.032-.072-.153-.199-.293-.225-.203-.086-.252-.067-.311.027-1.208.297-.775-.676-.699-1.947-.013-.09.031-.095.153-.175.082-.072.328-.167.073-.081.018-.077-.487-.504-.072-.032h-.158l-2.24.189-.306.099-.437.271-.204.103-.126.022-.572-.171-2.497-.964-.193-.099-.429-.532-.036-.054-.018-.063.149-1.781.036-.094.004-.081-.022-.068-.091-.058-.477-.212-.126-.023-.064.031-.063.059-.288.428.077-1.144 4.489.288z">
   <title id="t1773">McLean, ND</title>
  </path>
  <path id="FIPS_38009" d="m246.28 31.622 11.278.577-.158 3.57.32.014-.1 2.212-1.131-.041-1.122-.049.05-1.118-3.372-.171-2.267-.113-.058 1.109-3.385-.198-.262-2.235z">
   <title id="t1774">Bottineau, ND</title>
  </path>
  <path id="FIPS_38049" d="m256.49 37.954-.094 2.209.157 1.501-.018 2.979.199.753.044 1.487-3.384-.153-3.371-.185.121-2.221-.108-.005-.225-1.01-.005-2.312-.203-1.168.118-2.217.058-1.109 2.267.113 3.372.171-.05 1.118z">
   <title id="t1775">McHenry, ND</title>
  </path>
  <path id="FIPS_38083" d="m256.78 46.883 1.127.054-.099 2.222.32.014-.189 4.435-.708-.027-4.934-.234.184-3.782.045-.654.767.037.103-2.218z">
   <title id="t1776">Sheridan, ND</title>
  </path>
  <path id="FIPS_38015" d="m257.23 53.581-.202 4.426.351.013-.248 4.467-5.169-.253-.622-.315-.438-.433-.392-.775-.54-1.988-.203-.842-.014-.239-.14-2.24 1.902.09.113-2.182.668.037z">
   <title id="t1777">Burleigh, ND</title>
  </path>
  <path id="FIPS_38029" d="m257.13 62.487 1.474.067.149 4.512-.198 4.386-5.567-.271-.112-.004-.807-1.565-.036-.13-.09-.802.004-.149.108-.257.248-.37.167-.171.139-.284.037-.121.14-1.177-.005-.387-.063-.239-.171-.451-.077-.154-.054-.148-.009-.113.135-.572.081-.162.275-.415-.247-.55-.172-.302-.518-.424z">
   <title id="t1778">Emmons, ND</title>
  </path>
  <path id="FIPS_38051" d="m258.75 67.066 7.531.27.307.014-.163 4.413-6.413-.244-1.46-.067z">
   <title id="t1779">McIntosh, ND</title>
  </path>
  <path id="FIPS_38047" d="m258.6 62.554 4.151.176 3.678.144-.149 4.462-7.531-.27z">
   <title id="t1780">Logan, ND</title>
  </path>
  <path id="FIPS_38043" d="m257.23 53.581.708.027 4.868.194-.167 4.439.306.009-.189 4.48-4.151-.176-1.474-.067.248-4.467-.351-.013z">
   <title id="t1781">Kidder, ND</title>
  </path>
  <path id="FIPS_38103" d="m257.91 46.937 2.249.091 4.494.175-.072 2.227.27.013-.036 1.091-.117 3.335-1.888-.067-4.868-.194.189-4.435-.32-.014z">
   <title id="t1782">Wells, ND</title>
  </path>
  <path id="FIPS_38069" d="m257.62 37.995 5.644.234-.077 2.218-3.07-.121-.193 4.466.315.014-.086 2.222-2.249-.091-1.127-.054-.044-1.487-.199-.753.018-2.979-.157-1.501.094-2.209z">
   <title id="t1783">Pierce, ND</title>
  </path>
  <path id="FIPS_38079" d="m257.62 37.995.1-2.212-.32-.014.158-3.57 5.642.226-.139 3.583.288.008-.085 2.213z">
   <title id="t1784">Rolette, ND</title>
  </path>
  <path id="FIPS_38095" d="m263.2 32.425 4.516.153-.086 2.294-.026 1.293.252.01-.067 2.217-.077 2.217-1.988-.067-2.537-.095.077-2.218.085-2.213-.288-.008z">
   <title id="t1785">Towner, ND</title>
  </path>
  <path id="FIPS_38005" d="m263.19 40.447 2.537.095-.09 2.749.063.086 1.785 2.005.307-.067 1.681.184 1.081 1.001.866.041-.018.878-6.752-.216-4.494-.175.086-2.222-.315-.014.193-4.466z">
   <title id="t1786">Benson, ND</title>
  </path>
  <path id="FIPS_38027" d="m264.65 47.203 6.752.216.162 2.231-.027 1.091-6.725-.207.036-1.091-.27-.013z">
   <title id="t1787">Eddy, ND</title>
  </path>
  <path id="FIPS_38031" d="m264.81 50.534 6.725.207-.081 3.34-6.761-.212z">
   <title id="t1788">Foster, ND</title>
  </path>
  <path id="FIPS_38093" d="m262.81 53.802 1.888.067 6.761.212.252 1.109-.085 3.349.247.004-.112 4.475-5.323-.144-3.678-.144.189-4.48-.306-.009z">
   <title id="t1789">Stutsman, ND</title>
  </path>
  <path id="FIPS_38045" d="m271.76 63.018 3.61.091-.104 4.475-8.671-.234-.307-.014.149-4.462z">
   <title id="t1790">LaMoure, ND</title>
  </path>
  <path id="FIPS_38021" d="m266.59 67.35 8.671.234.257.005-.113 4.457-6.449-.193-2.529-.09z">
   <title id="t1791">Dickey, ND</title>
  </path>
  <path id="FIPS_38081" d="m275.52 67.589 6.499.117.19.005-.041 2.888.072.798.189.78-6.756-.122-.266-.009z">
   <title id="t1792">Sargent, ND</title>
  </path>
  <path id="FIPS_38073" d="m275.37 63.109 3.137.072 3.579.063-.064 4.462-6.499-.117-.257-.005z">
   <title id="t1793">Ransom, ND</title>
  </path>
  <path id="FIPS_38003" d="m276.18 55.294 2.249.049-.031 2.055.189 1.303-.081 4.48-3.137-.072-3.61-.091.112-4.475-.247-.004.085-3.349z">
   <title id="t1794">Barnes, ND</title>
  </path>
  <path id="FIPS_38039" d="m276.08 49.759.094 5.535-4.471-.104-.252-1.109.108-4.431z">
   <title id="t1795">Griggs, ND</title>
  </path>
  <path id="FIPS_38091" d="m276.08 49.759.897.018 3.591.068.104 5.547-4.498-.098z">
   <title id="t1796">Steele, ND</title>
  </path>
  <path id="FIPS_38063" d="m273.55 43.012 3.385.076-.045 2.227.184.005v.018l-.089 4.439-.897-.018-4.521-.109-.162-2.231.018-.878.04-1.357.897.023.063-2.218z">
   <title id="t1797">Nelson, ND</title>
  </path>
  <path id="FIPS_38071" d="m273.43 38.554-.04 1.497.212.73-.059 2.231-1.127-.023-.063 2.218-.897-.023-.04 1.357-.866-.041-1.081-1.001-1.681-.184-.307.067-1.785-2.005-.063-.086.09-2.749 1.988.067.077-2.217z">
   <title id="t1798">Ramsey, ND</title>
  </path>
  <path id="FIPS_38019" d="m267.72 32.578 9.015.225-.068 3.601.194.005-.045 2.231-3.381-.086-5.642-.162.067-2.217-.252-.01.026-1.293z">
   <title id="t1799">Cavalier, ND</title>
  </path>
  <path id="FIPS_38067" d="m276.73 32.803 6.197.099-.041.041-.04.189-.01.19.05.27.622 2.032.167.496.379.861-.632 1.753.041.023-6.652-.117.045-2.231-.194-.005z">
   <title id="t1800">Pembina, ND</title>
  </path>
  <path id="FIPS_38099" d="m273.43 38.554 3.381.086 6.652.117.068.036.202.248.055 3.074-.284 1.095-6.576-.122-3.385-.076.059-2.231-.212-.73z">
   <title id="t1801">Walsh, ND</title>
  </path>
  <path id="FIPS_38035" d="m283.51 43.21-.005.262v.031l.203.784.839 3.024 1.135 2.592-5.107-.058-3.591-.068.089-4.439v-.018l-.184-.005.045-2.227z">
   <title id="t1802">Grand Forks, ND</title>
  </path>
  <path id="FIPS_38097" d="m280.57 49.845 5.107.058.302 2.222.158 3.353-5.463-.086z">
   <title id="t1803">Traill, ND</title>
  </path>
 </g>
</svg>