<svg id="svg9559" width="555.22" height="351.67" xmlns="http://www.w3.org/2000/svg" viewBox="215.64698791503906 106.96001434326172 84.63404846191406 42.150978088378906">
 <g id="stylegroup" fill="#d0d0d0" stroke="#000" stroke-width=".1">
  <path id="FIPS_31045" d="m222.98 107.38 4.728.365 1.956.149-.202 2.775.126.754-.262 3.726-6.35-.441-.334-.027.347-4.494-.081-.504-.022-.993z">
   <title id="t1804">Dawes, NE</title>
  </path>
  <path id="FIPS_31165" d="m222.98 107.38-.094 1.31.022.993.081.504-.347 4.494.334.027-.347 4.48.401.036-.086 1.123-6.192-.479 1.091-12.908z">
   <title id="t1805">Sioux, NE</title>
  </path>
  <path id="FIPS_31147" d="m293.39 145.72 4.48-.018 2.411 3.39h-.311l-4.399.017h-2.186z">
   <title id="t1806">Richardson, NE</title>
  </path>
  <path id="FIPS_31133" d="m288.96 145.7 3.881.013.55.009-.005 3.389-2.24-.004-2.203-.013z">
   <title id="t1807">Pawnee, NE</title>
  </path>
  <path id="FIPS_31127" d="m292.84 142.32 3.479-.013.127-.275.365.324-.212.379-.112.104.054.229.635 1.596.681.663.026.067-.003.023v.018l-.01.234v.036l-4.48.018-.55-.009z">
   <title id="t1808">Nemaha, NE</title>
  </path>
  <path id="FIPS_31097" d="m292.84 142.32v3.394l-3.881-.013.014-3.386z">
   <title id="t1809">Johnson, NE</title>
  </path>
  <path id="FIPS_31131" d="m294.9 138.93.87 2.579.545.793-3.479.013-3.867-.005.013-3.393z">
   <title id="t1810">Otoe, NE</title>
  </path>
  <path id="FIPS_31025" d="m290.41 135.53.072.112.14.127.712.406.086.013.261-.099.288-.144.149-.117.1-.135.216-.204.095-.062.423-.158.217-.005 1.324.082.073.012.216.154.429 1.884-.303 1.532-5.918-.013.018-3.015z">
   <title id="t1811">Cass, NE</title>
  </path>
  <path id="FIPS_31153" d="m290.33 133.65 3.903-.009.676.406-.131 1.469-.216-.154-.073-.012-1.324-.082-.217.005-.423.158-.095.062-.216.204-.1.135-.149.117-.288.144-.261.099-.086-.013-.712-.406-.14-.127-.072-.112z">
   <title id="t1812">Sarpy, NE</title>
  </path>
  <path id="FIPS_31055" d="m288.96 131 1.366.009 3.764.004.144 2.623-3.903.009z">
   <title id="t1813">Douglas, NE</title>
  </path>
  <path id="FIPS_31177" d="m289.23 127.24 3.096.023 1.344 2.28.419 1.478-3.764-.004-.924-1.159-.09-.234-.086-.311z">
   <title id="t1814">Washington, NE</title>
  </path>
  <path id="FIPS_31021" d="m290.89 122.53 1.267 2.353.171 2.38-3.096-.023-1.055-.762.022-3.556z">
   <title id="t1815">Burt, NE</title>
  </path>
  <path id="FIPS_31173" d="m286.58 119.51 3.633.04-.118.798.789 2.181-2.691.392-2.559-.983.035-2.258z">
   <title id="t1816">Thurston, NE</title>
  </path>
  <path id="FIPS_31043" d="m287.47 116.32 1.821.465.324.023.126.049.1.139.04.149.004.199-.067.179.112 1.484.289.541-3.633-.04z">
   <title id="t1817">Dakota, NE</title>
  </path>
  <path id="FIPS_31051" d="m283.9 113.25 1.975.738.77.487.104.235.054.216-.036.152-.005.118.028.117.676 1.005-.884 3.188-.911.17-1.843-1.144z">
   <title id="t1818">Dixon, NE</title>
  </path>
  <path id="FIPS_31179" d="m280.51 118.48 3.322.05 1.843 1.144-.035 2.258-1.862-.022-3.326-.046z">
   <title id="t1819">Wayne, NE</title>
  </path>
  <path id="FIPS_31139" d="m276.01 121.81.086-4.515 3.313.049 1.099 1.14-.058 3.384z">
   <title id="t1820">Pierce, NE</title>
  </path>
  <path id="FIPS_31027" d="m279.5 111.95.586-.077.893.036.671.081 1.091.929 1.167.334-.072 5.282-3.322-.05-1.099-1.14z">
   <title id="t1821">Cedar, NE</title>
  </path>
  <path id="FIPS_31107" d="m271.74 111.45 1.324.6 1.028.887.203.09.167.027.157-.008.478-.072.126-.078.266-.242.198-.284 1.087-.401.824.107 1.902-.125-.085 5.395-3.313-.049-4.412-.086.054-4.202z">
   <title id="t1822">Knox, NE</title>
  </path>
  <path id="FIPS_31053" d="m288.18 126.47 1.055.762-.005 2.073.086.311.09.234.924 1.159-1.366-.009-4.178-.812v-.013l.032-3.742z">
   <title id="t1823">Dodge, NE</title>
  </path>
  <path id="FIPS_31037" d="m283.72 126.42 1.091.013-.032 3.742-.139-.004-.131.036-1.443.698-1.009.23-.636-.004.073-4.738z">
   <title id="t1824">Colfax, NE</title>
  </path>
  <path id="FIPS_31039" d="m283.78 121.91 1.862.022 2.559.983-.022 3.556-3.362-.037-1.091-.013z">
   <title id="t1825">Cuming, NE</title>
  </path>
  <path id="FIPS_31167" d="m283.78 121.91-.054 4.511-2.226-.027-1.109-.017.063-4.513z">
   <title id="t1826">Stanton, NE</title>
  </path>
  <path id="FIPS_31119" d="m276.01 121.81 4.44.058-.063 4.513-4.43-.064.022-2.259z">
   <title id="t1827">Madison, NE</title>
  </path>
  <path id="FIPS_31003" d="m276.01 121.81-.031 2.248-4.417-.076.009-2.257.113-4.516 4.412.086z">
   <title id="t1828">Antelope, NE</title>
  </path>
  <path id="FIPS_31011" d="m271.56 123.98 4.417.076-.022 2.259-.046 2.803-.531-.004-1.614.357-.455.184-1.844-.041.041-3.384z">
   <title id="t1829">Boone, NE</title>
  </path>
  <path id="FIPS_31141" d="m280.39 126.38 1.109.017-.073 4.738-1.099-.235-2.232.771-1-.825-1.181-1.727.046-2.803z">
   <title id="t1830">Platte, NE</title>
  </path>
  <path id="FIPS_31155" d="m284.78 130.19 4.178.812 1.371 2.645.076 1.884-1.402.37.005-.375-4.305-.045z">
   <title id="t1831">Saunders, NE</title>
  </path>
  <path id="FIPS_31159" d="m284.68 135.48-.067 4.522-4.422-.06.063-4.524z">
   <title id="t1832">Seward, NE</title>
  </path>
  <path id="FIPS_31023" d="m280.26 135.42.068-4.521 1.099.235.636.004 1.009-.23 1.443-.698.131-.036.139.004v.013l-.077 5.291h-.022z">
   <title id="t1833">Butler, NE</title>
  </path>
  <path id="FIPS_31143" d="m278.09 131.67 2.232-.771-.068 4.521-4.43-.072.013-1.651z">
   <title id="t1834">Polk, NE</title>
  </path>
  <path id="FIPS_31185" d="m280.26 135.42-.063 4.524-4.435-.081h-.014l.082-4.515z">
   <title id="t1835">York, NE</title>
  </path>
  <path id="FIPS_31081" d="m275.83 135.35-.082 4.515-4.394-.09h-.045l.054-2.258.478-.563 1.018-1.015 1.204-.961.365-.254.054.084h.014l.211-.076.501-.239.121-.095.154-.174.279-.375.081-.15z">
   <title id="t1836">Hamilton, NE</title>
  </path>
  <path id="FIPS_31125" d="m271.47 129.62 1.844.041.455-.184 1.614-.357.531.004 1.181 1.727-.036 1.113-1.375-.009-1.469.153-.852.18-.415.173-1.392-.028.054-1.681-.122-.006h-.049z">
   <title id="t1837">Nance, NE</title>
  </path>
  <path id="FIPS_31121" d="m271.49 130.74.122.006-.054 1.681.199.004 1.193.024.415-.173.852-.18 1.469-.153 1.375.009.036-1.113 1 .825-2.253 2.027-.081.15-.279.375-.154.174-.121.095-.501.239-.211.076h-.014l-.054-.084-.365.254-1.204.961-1.018 1.015-.478.563.014-2.262z">
   <title id="t1838">Merrick, NE</title>
  </path>
  <path id="FIPS_31079" d="m267.17 135.14 4.205.113-.014 2.262-.054 2.258-4.263-.121z">
   <title id="t1839">Hall, NE</title>
  </path>
  <path id="FIPS_31093" d="m267.08 130.62 4.354.121h.049l-.112 4.513-4.205-.113-.257-.009z">
   <title id="t1840">Howard, NE</title>
  </path>
  <path id="FIPS_31163" d="m267.01 130.62h.072l-.171 4.512-4.44-.145.194-4.502z">
   <title id="t1841">Sherman, NE</title>
  </path>
  <path id="FIPS_31015" d="m262.89 109.68 7.107.208 1.741 1.562.004 1.559-1.487-.104-1.015-.189-1.541-.522-.847-.293-.956-.549-.23-.235-.113-.037-.148-.004-.108.026-1.627.676-.816.349-.072.058z">
   <title id="t1842">Boyd, NE</title>
  </path>
  <path id="FIPS_31089" d="m262.78 112.18.072-.058.816-.349 1.627-.676.108-.026.148.004.113.037.23.235.956.549.847.293 1.541.522 1.015.189 1.487.104-.054 4.202-.113 4.516-4.39-.114-4.399-.131-.112-.004.144-4.132.04-4.453z">
   <title id="t1843">Holt, NE</title>
  </path>
  <path id="FIPS_31175" d="m262.73 125.99 4.335.14h.068l-.126 4.493-4.345-.135z">
   <title id="t1844">Valley, NE</title>
  </path>
  <path id="FIPS_31077" d="m271.51 126.23-.041 3.384-.031 1.126-4.354-.121h-.072l.126-4.493z">
   <title id="t1845">Greeley, NE</title>
  </path>
  <path id="FIPS_31183" d="m271.57 121.72-.009 2.257-.054 2.25-4.372-.104h-.068l.113-4.517z">
   <title id="t1846">Wheeler, NE</title>
  </path>
  <path id="FIPS_31071" d="m262.64 125.98.144-4.503 4.399.131-.113 4.517-4.335-.14z">
   <title id="t1847">Garfield, NE</title>
  </path>
  <path id="FIPS_31115" d="m262.67 121.48.112.004-.144 4.503-4.448-.157.171-4.484.234.012z">
   <title id="t1848">Loup, NE</title>
  </path>
  <path id="FIPS_31149" d="m262.67 121.48-4.075-.122.162-4.52h-.117l.136-3.844.711.152.523.059.19-.026.333-.123 2.069-.751.081-.037.095-.081.076.708-.04 4.453z">
   <title id="t1849">Rock, NE</title>
  </path>
  <path id="FIPS_31103" d="m254.02 109.32 6.242.262 2.628.094-.108 2.505-.095.081-.081.037-2.069.751-.333.123-.19.026-.523-.059-.711-.152-.082.031h-.175l-.695-.122-2.591-.757-.541-.22-.18-.104-.587-.523.091-1.973">
   <title id="t1850">Keya Paha, NE</title>
  </path>
  <path id="FIPS_31017" d="m258.78 112.99-.136 3.844h.117l-.162 4.52-.234-.012-4.575-.186.198-4.502-.059-5.359.587.523.18.104.541.22 2.591.757.695.122h.175z">
   <title id="t1851">Brown, NE</title>
  </path>
  <path id="FIPS_31009" d="m252.84 121.11.951.045 4.575.186-.171 4.484-5.4-.217-.139-.009z">
   <title id="t1852">Blaine, NE</title>
  </path>
  <path id="FIPS_31041" d="m258.19 125.82 4.448.157.095.005-.068 4.498-.194 4.502-2.109-.066-7.716-.312-.136-.004.077-1.506.086-1.297.054-1.641-.14-.059.203-4.494z">
   <title id="t1853">Custer, NE</title>
  </path>
  <path id="FIPS_31019" d="m260.36 134.92 2.109.066 4.44.145.257.009-.126 4.512-.032.121-.307.036-.703.14-.373.176-.397.076-1.186-.04-1.383-.117-.082-.031-2.307-.212z">
   <title id="t1854">Buffalo, NE</title>
  </path>
  <path id="FIPS_31047" d="m252.65 134.61 7.716.312-.09 4.881-2.191-.266-3.277-.325-2.348-.108z">
   <title id="t1855">Dawson, NE</title>
  </path>
  <path id="FIPS_31137" d="m258.08 139.54 2.191.266 2.307.212-.135 4.024-4.408-.162-.113-.005z">
   <title id="t1856">Phelps, NE</title>
  </path>
  <path id="FIPS_31099" d="m267.01 139.77-.117 4.408-.032-.004-4.417-.14.135-4.024.082.031 1.383.117 1.186.04.397-.076.373-.176.703-.14z">
   <title id="t1857">Kearney, NE</title>
  </path>
  <path id="FIPS_31001" d="m267.01 139.77.032-.121 4.263.121h.045l-.108 4.522-4.349-.114z">
   <title id="t1858">Adams, NE</title>
  </path>
  <path id="FIPS_31035" d="m275.74 139.86h.014l-.081 4.526-4.39-.094h-.045l.108-4.522z">
   <title id="t1859">Clay, NE</title>
  </path>
  <path id="FIPS_31059" d="m280.19 139.94-.067 4.521-4.418-.076h-.031l.081-4.526z">
   <title id="t1860">Fillmore, NE</title>
  </path>
  <path id="FIPS_31151" d="m280.19 139.94 4.422.06-.018 2.266-.054 2.258-4.417-.063z">
   <title id="t1861">Saline, NE</title>
  </path>
  <path id="FIPS_31109" d="m284.7 135.48 4.305.045-.005.375-.018 3.015-.013 3.393-4.376-.04.018-2.266.067-4.522z">
   <title id="t1862">Lancaster, NE</title>
  </path>
  <path id="FIPS_31067" d="m288.97 142.31-.014 3.386-.017 3.394-3.354-.028-1.086-.013.041-4.521.054-2.258z">
   <title id="t1863">Gage, NE</title>
  </path>
  <path id="FIPS_31095" d="m280.13 144.47 4.417.063-.041 4.521-4.449-.059z">
   <title id="t1864">Jefferson, NE</title>
  </path>
  <path id="FIPS_31169" d="m280.13 144.47-.073 4.525-4.439-.071.094-4.53z">
   <title id="t1865">Thayer, NE</title>
  </path>
  <path id="FIPS_31129" d="m275.68 144.39h.031l-.094 4.53-1.082-.024-3.358-.081.113-4.519z">
   <title id="t1866">Nuckolls, NE</title>
  </path>
  <path id="FIPS_31181" d="m266.89 144.18 4.349.114h.045l-.113 4.519-2.262-.053-2.177-.059.126-4.525z">
   <title id="t1867">Webster, NE</title>
  </path>
  <path id="FIPS_31061" d="m266.86 144.18-.126 4.525-3.34-.104-1.099-.031.148-4.53z">
   <title id="t1868">Franklin, NE</title>
  </path>
  <path id="FIPS_31083" d="m258.04 143.88 4.408.162-.148 4.53-4.386-.158h-.023z">
   <title id="t1869">Harlan, NE</title>
  </path>
  <path id="FIPS_31073" d="m258.08 139.54-.158 4.335-4.417-.181.046-1.134 1.113.053.139-3.398z">
   <title id="t1870">Gosper, NE</title>
  </path>
  <path id="FIPS_31065" d="m252.5 143.66 1.004.03 4.417.181.113.005-.149 4.534-5.39-.216-.153-.01z">
   <title id="t1871">Furnas, NE</title>
  </path>
  <path id="FIPS_31145" d="m247.03 143.41 5.472.253-.158 4.524-5.345-.256-.195-.014z">
   <title id="t1872">Red Willow, NE</title>
  </path>
  <path id="FIPS_31087" d="m241.52 143.1 5.328.298.18.004-.226 4.507-5.543-.297z">
   <title id="t1873">Hitchcock, NE</title>
  </path>
  <path id="FIPS_31057" d="m241.33 143.1.189.008-.261 4.512-.852-.045-6.274-.389.284-4.488z">
   <title id="t1874">Dundy, NE</title>
  </path>
  <path id="FIPS_31063" d="m247.07 138.85 5.386.254 2.348.108-.139 3.398-1.113-.053-.046 1.134-1.004-.03-5.472-.253-.18-.004z">
   <title id="t1875">Frontier, NE</title>
  </path>
  <path id="FIPS_31085" d="m247.07 138.85-.22 4.554-5.328-.298-.189-.008.23-4.513.946.055z">
   <title id="t1876">Hayes, NE</title>
  </path>
  <path id="FIPS_31029" d="m234.71 138.18 6.851.405-.23 4.513-6.914-.402z">
   <title id="t1877">Chase, NE</title>
  </path>
  <path id="FIPS_31135" d="m234.96 134.22.004-.017 7.744.46-.199 3.971-.946-.055-6.851-.405.045-.677z">
   <title id="t1878">Perkins, NE</title>
  </path>
  <path id="FIPS_31111" d="m248.14 129.89 4.444.216.14.059-.054 1.641-.086 1.297-.077 1.506.136.004-.19 4.494-5.386-.254-4.561-.21.199-3.971.09-5.079z">
   <title id="t1879">Lincoln, NE</title>
  </path>
  <path id="FIPS_31101" d="m235.93 129.18 5.548.326 1.321.081-.09 5.079-7.744-.46.14-2.821z">
   <title id="t1880">Keith, NE</title>
  </path>
  <path id="FIPS_31113" d="m248.38 125.4 4.269.198.139.009-.203 4.494-4.444-.216z">
   <title id="t1881">Logan, NE</title>
  </path>
  <path id="FIPS_31117" d="m241.74 125 2.456.149 1.685.117 1.254.063 1.248.072-.239 4.485-5.345-.297-1.321-.081z">
   <title id="t1882">McPherson, NE</title>
  </path>
  <path id="FIPS_31005" d="m236.2 124.68 5.35.31.185.009-.262 4.508-5.548-.326z">
   <title id="t1883">Arthur, NE</title>
  </path>
  <path id="FIPS_31171" d="m247.33 120.82 5.508.293-.184 4.489-4.269-.198-1.248-.072z">
   <title id="t1884">Thomas, NE</title>
  </path>
  <path id="FIPS_31091" d="m241.81 120.47 5.521.346-.193 4.512-1.254-.063-1.685-.117-2.456-.149-.185-.009z">
   <title id="t1885">Hooker, NE</title>
  </path>
  <path id="FIPS_31075" d="m235.65 121.17.648-1.091 5.508.388-.252 4.52-5.35-.31-.789-.046z">
   <title id="t1886">Grant, NE</title>
  </path>
  <path id="FIPS_31049" d="m229.76 131.03 5.341.361-.14 2.821-.004.017-5.498-.368z">
   <title id="t1887">Deuel, NE</title>
  </path>
  <path id="FIPS_31069" d="m235.65 121.17-.235 3.461.789.046-.275 4.501-.825 2.205-5.341-.361-.058-2.835.22-3.209-.212-.749-.062-.377-.014-.231.032-.689.162-2.1z">
   <title id="t1888">Garden, NE</title>
  </path>
  <path id="FIPS_31033" d="m229.71 128.19.058 2.835-.301 2.831-.312-.018-7.04-.515.446-5.079.127-.555z">
   <title id="t1889">Cheyenne, NE</title>
  </path>
  <path id="FIPS_31123" d="m229.64 120.83.194.01-.162 2.1-.032.689.014.231.062.377.212.749-.22 3.209-7.022-.501.247-3.383.375-3.926z">
   <title id="t1890">Morrill, NE</title>
  </path>
  <path id="FIPS_31105" d="m222.56 128.24-.446 5.079-1.852-.143-4.615-.378.437-5.067z">
   <title id="t1891">Kimball, NE</title>
  </path>
  <path id="FIPS_31007" d="m222.93 124.31-.247 3.383-.127.555-6.476-.509.329-3.943z">
   <title id="t1892">Banner, NE</title>
  </path>
  <path id="FIPS_31157" d="m222.94 120.34.366.036-.375 3.926-6.521-.514.338-3.927z">
   <title id="t1893">Scotts Bluff, NE</title>
  </path>
  <path id="FIPS_31013" d="m229.64 120.83-6.332-.445-.366-.036.086-1.123-.401-.036.347-4.48 6.35.441.226.014-.252 4.502.238.398z">
   <title id="t1894">Box Butte, NE</title>
  </path>
  <path id="FIPS_31031" d="m236.32 108.35 1.942.127 2.344.18 3.736.194 3.016.158 3.407.158 1.83.086.672.031.748.037-.091 1.973.059 5.359-.198 4.502-.951-.045-5.508-.293-5.521-.346-5.508-.388-.324-.027.306-4.485-.089-1.487.098-2.956-.045-.93z">
   <title id="t1895">Cherry, NE</title>
  </path>
  <path id="FIPS_31161" d="m236.32 108.35-.077 1.848.045.93-.098 2.956.089 1.487-.306 4.485.324.027-.648 1.091-5.819-.338-.194-.01-.104-.765-.238-.398.252-4.502-.226-.014.262-3.726-.126-.754.202-2.775z">
   <title id="t1896">Sheridan, NE</title>
  </path>
 </g>
</svg>