<svg id="svg9559" width="555.22" height="351.67" xmlns="http://www.w3.org/2000/svg" viewBox="511.5729675292969 50.840999603271484 16.847015380859375 35.47898483276367">
 <g id="stylegroup" fill="#d0d0d0" stroke="#000" stroke-width=".1">
  <path id="FIPS_33007" d="m517.44 50.841.347.991 1.907 5.751.135.433 1.691 5.377-.132.662-2.573 1.65-.676-.441-.365-.397-.271-.072-1.198-.284-.99-.167-.926-.69.193.018.289-.212.023-.035.126-.163.053-.077.037-.058.446-.784.045-.077v-.004l.104-.289.121-1.122-.234-.378-.04-.064-.226-.28-.414-.509-.339-.334-.076-.215.013-3.165.217-.446-.076-.766.216-2.33.725-.947.1-.071.193.099.081.161.041.046.289.144.473.032.396-.082.059-.049z">
   <title id="t1897">Coos, NH</title>
  </path>
  <path id="FIPS_33009" d="m513.78 64.438.604-.784.926.69.99.167 1.198.284.271.072.365.397.443.639.648.987.374 1.956-1.744.757.508 1.163.203.365.316.825-1.077.767-.338 1.392-.519.167-.734-.482-.266.563-.239.68-.592.046-1.035.04-1.05-.162-1.118.09.572-2.429.248-5.201-.153-.122-.168-.226-.296-1.032v-.081l.031-.131.302-.545.028-.022.047-.045.624-.388z">
   <title id="t1898">Grafton, NH</title>
  </path>
  <path id="FIPS_33017" d="m522.64 73.074.211-.51.365.789 1.027-.315.253-.586.157 1.758.069.288.085.181.262.364.166.086.452.225 1.09.65.028.031.35 1.406-.284.555-.081.117-1.798.465.23-.817-2.452-1.167.068-.162.446-1.073-.446-1.001-.365-.879z">
   <title id="t1899">Strafford, NH</title>
  </path>
  <path id="FIPS_33015" d="m528.42 77.946-.39 2.628-.664.04-.274.018-.063.032-.074.031h-.004l-.869.645-.667.568-.22.189-.122.127-.509 1.022-1.064-.117-.897-.55-.316-.703-.225-.491.28-1.122.432-3.669 2.452 1.167-.23.817 1.798-.465.081-.117.284-.555z">
   <title id="t1900">Rockingham, NH</title>
  </path>
  <path id="FIPS_33005" d="m512.2 80.849.267.274.554-.094.027-.329.239-.149 1.532-.649-.046.451.01.229 1.284-.288.171 1.425.203.942.514-.122 1.065 1.803.395.923-3.271.708-1.623.347-1.031-.829-.267-.573-.041-.13.587-2.01-.246-1.379-.02-.077z">
   <title id="t1901">Cheshire, NH</title>
  </path>
  <path id="FIPS_33019" d="m511.92 75.057 1.118-.09 1.05.162 1.035-.04.592-.046-.625 1.74-.109 1.204.441.788.32.347.406.366-.073.806-1.284.288-.01-.229.046-.451-1.532.649-.239.149-.027.329-.554.094-.267-.274-.036-.951.041-1.127-.193-.505-.447-2.055z">
   <title id="t1902">Sullivan, NH</title>
  </path>
  <path id="FIPS_33011" d="m516.14 79.488.806-.469 2.407.103 1.753.938 1.227.203-.28 1.122.225.491.316.703.897.55 1.064.117-.06.136-.233.554-3.111.717-.04.009-.14.031-2.28.51-.276.062-.395-.923-1.065-1.803-.514.122-.203-.942-.171-1.425z">
   <title id="t1903">Hillsborough, NH</title>
  </path>
  <path id="FIPS_33001" d="m518.57 71.131.793.496 2.29 1.271.988.176-.167.405.365.879.446 1.001-.446 1.073-1.213-.505-2.159-.848-.423.348-.117-.014-.803-.64-.158-.149-.495-.509.338-1.392 1.077-.767z">
   <title id="t1904">Belknap, NH</title>
  </path>
  <path id="FIPS_33013" d="m517.47 74.115.495.509.158.149.803.64.117.014.423-.348 2.159.848 1.213.505-.068.162-.432 3.669-1.227-.203-1.753-.938-2.407-.103-.806.469-.406-.366-.32-.347-.441-.788.109-1.204.625-1.74.239-.68.266-.563.734.482z">
   <title id="t1905">Merrimack, NH</title>
  </path>
  <path id="FIPS_33003" d="m521.52 63.393 1.842 6.098 1.136 2.961-.253.586-1.027.315-.365-.789-.211.51-.988-.176-2.29-1.271-.793-.496-.203-.365-.508-1.163 1.744-.757-.374-1.956-.648-.987-.443-.639.676.441 2.573-1.65z">
   <title id="t1906">Carroll, NH</title>
  </path>
 </g>
</svg>