<svg id="svg9559" width="555.22" height="351.67" xmlns="http://www.w3.org/2000/svg" viewBox="493.6090087890625 108.58099365234375 13.676971435546875 31.329986572265625">
 <g id="stylegroup" fill="#d0d0d0" stroke="#000" stroke-width=".1">
  <path id="FIPS_34025" d="m503.9 118.97 1.589-.054.443-.618-.009-.027.031-.037h.068l.13.06.249.32.268.852.073.3.006.024.081.603.022.262.014.555.027 1.844-1.281.197-.324.009-.802-.573-1.371.271-1.126 1.501-.501-.671-.373-.505.5-.37.58-.685v-.032l-.053-.094z">
   <title id="t1907">Monmouth, NJ</title>
  </path>
  <path id="FIPS_34029" d="m501.99 124.46 1.126-1.501 1.371-.271.802.573.324-.009 1.281-.197-.005.239.055 1.054.017.293.076.892.199 1.433.05.482-.008.051-.205.981-.547 1.924-.237.601-.294.306-1.197-.542.135-.233.032-.315-.519-2.249-2.267-3.255z">
   <title id="t1908">Ocean, NJ</title>
  </path>
  <path id="FIPS_34013" d="m502.27 113.48 1.569.667-.068.465.437 1.383-2.421-.297z">
   <title id="t1910">Essex, NJ</title>
  </path>
  <path id="FIPS_34039" d="m501.78 115.7 2.421.297-.144.447-.194.013-.045.015-.022.035-.09.189.067.483-.405.013-.108-.005-.446.013-1.236.442-.248.037-.198-.961z">
   <title id="t1911">Union, NJ</title>
  </path>
  <path id="FIPS_34017" d="m505.25 114.1-.091 1.212-.13.37-.969.762.144-.447-.437-1.383z">
   <title id="t1912">Hudson, NJ</title>
  </path>
  <path id="FIPS_34003" d="m502.12 110.37 3.411 1.02.015 1.057-.04.488-.258 1.171-1.483.514.068-.465.045-.045.059-.477-.014-.068-.392-.689-.23-.309-.419-.295-.974-.366z">
   <title id="t1913">Bergen, NJ</title>
  </path>
  <path id="FIPS_34023" d="m503.78 117.18.009.072.023.153-.009.211-.023.054h-.063l-.067.006-.136.157-.004.099.112.256-.138.312-.006.014-.013.144.099.202.077.077.257.032h.005l-1.759 3.132-1.645-1.249.059-.017.117-.135.888-1.552-.018-.318-.189-.065-.244-.198-.252-.27-.014-.094.063-.186.059-.072.369-.265.248-.037 1.236-.442.446-.013.108.005z">
   <title id="t1914">Middlesex, NJ</title>
  </path>
  <path id="FIPS_34035" d="m501.14 116.72.198.961-.369.265-.059.072-.063.186.014.094.252.27.244.198.189.065.018.318-.888 1.552-.117.135-.059.017-.057-.107-.289-.032-.632.361-.387-.563-.06-.081-.422-.875.162-.69.067-.107.108-.838-.361-1.02-.072-.135-.063-.046 1.501-.852.031.019.068.112.019.082.504 1.095z">
   <title id="t1915">Somerset, NJ</title>
  </path>
  <path id="FIPS_34027" d="m499.54 111.6.914.586.618.032.622-.004.576 1.27-.483 2.218-.648 1.018-.523.456-.504-1.095-.019-.082-.068-.112-.031-.019-1.501.852-1.749-.508.798-1.835z">
   <title id="t1916">Morris, NJ</title>
  </path>
  <path id="FIPS_34031" d="m501.9 110.3.225.068-.212 1.536.974.366.419.295.23.309.392.689.014.068-.059.477-.045.045-1.569-.667-.576-1.27-.622.004-.618-.032-.914-.586.95-1.78z">
   <title id="t1917">Passaic, NJ</title>
  </path>
  <path id="FIPS_34037" d="m500.49 109.82-.95 1.78-1.998 2.777-2.443-1.925-.054-.067.384-.54.266-.627.058-.388-.018-.212-.04-.041.018-.176.117-.5.049-.144.23-.473.27-.293.569-.41z">
   <title id="t1918">Sussex, NJ</title>
  </path>
  <path id="FIPS_34041" d="m495.1 112.45 2.443 1.925-.798 1.835-.093.247-.42.807-.077.104-.549.551-.947 1.057-.211.361-.105-.203-.064-.117-.238-.92-.1-.778.164-.385.076-.021.144.014.146-.02.197-.273.324-.993.005-.076-.032-.076-.915-1.078z">
   <title id="t1919">Warren, NJ</title>
  </path>
  <path id="FIPS_34019" d="m496.74 116.21 1.749.508.063.046.072.135.361 1.02-.108.838-.067.107-.162.69.422.875.06.081-.515.324-.285.896-.679.244h-.094l-.064-.036-.937-.568-.73-1.469-1.383-.564.211-.361.947-1.057.549-.551.077-.104.42-.807z">
   <title id="t1920">Hunterdon, NJ</title>
  </path>
  <path id="FIPS_34021" d="m499.13 120.51.387.563.632-.361.289.032.057.107 1.645 1.249.053.094v.032l-.58.685-.5.37.373.505-1.329.185-2.6-1.997h.094l.679-.244.285-.896z">
   <title id="t1921">Mercer, NJ</title>
  </path>
  <path id="FIPS_34007" d="m496.69 128.03.734-1.365 3.826 2.618-1.01 1.844-1.248-.983-1.401-1.537-.527-.384z">
   <title id="t1922">Camden, NJ</title>
  </path>
  <path id="FIPS_34015" d="m496.3 128.58.385-.55.374.193.527.384 1.401 1.537 1.248.983-.769 1.425-.893-.519-4.295-1.781.239-.424z">
   <title id="t1923">Gloucester, NJ</title>
  </path>
  <path id="FIPS_34033" d="m494.28 130.26 4.295 1.781.118 1.126v.267l-.014.063-1.789-.951-.956 1.581-.153 1.028-2.074-2.533-.098-.298.319-.815z">
   <title id="t1924">Salem, NJ</title>
  </path>
  <path id="FIPS_34011" d="m501.21 134.71-.098 1.969-1.965-.01-.677-.156-1.301-.448-1.169-.652-.058-.063-.162-.199.153-1.028.956-1.581 1.789.951.014-.063v-.267l-.118-1.126.893.519z">
   <title id="t1925">Cumberland, NJ</title>
  </path>
  <path id="FIPS_34009" d="m501.21 134.71 3.143-.393-.411.636-.122.217-.139.346-.221.599-.243.858v.04l.004.008.013.014-.365 1.303-.265.644-.339.582-.5.279-.126.036-.297.032-.046-.023-.063-.077-.014-.806.018-.199.05-.27.19-.739.022-.157.009-.195-.023-.401-.053-.19-.222-.162-.098-.013z">
   <title id="t1926">Cape May, NJ</title>
  </path>
  <path id="FIPS_34001" d="m505.99 131.31-1.638 3.006-3.143.393-1.743-2.154.769-1.425 1.01-1.844.136.072.553.284.714.704.892.414.239.072.432.086.582-.15z">
   <title id="t1927">Atlantic, NJ</title>
  </path>
  <path id="FIPS_34005" d="m500.16 123.97 1.329-.185.501.671.189.257 2.267 3.255.519 2.249-.032.315-.135.233-.582.15-.432-.086-.239-.072-.892-.414-.714-.704-.553-.284-.136-.072-3.826-2.618.622-.906z">
   <title id="t1928">Burlington, NJ</title>
  </path>
 </g>
</svg>