<svg id="svg9559" width="555.22" height="351.67" xmlns="http://www.w3.org/2000/svg" viewBox="150.4129638671875 178.98800659179688 71.54304504394531 73.95698547363281">
 <g id="stylegroup" fill="#d0d0d0" stroke="#000" stroke-width=".1">
  <path id="FIPS_35025" d="m218.14 229.83-.221 2.353-.496 5.535-.834 11.249-.085 1.118-.267-.019-.612-.049-.767-.059-.563-.039-.64-.051-4.314-.338.551-6.733-.983-.076.46-5.711.518.041.455-5.554.672-2.208 2.244.172z">
   <title id="t1929">Lea, NM</title>
  </path>
  <path id="FIPS_35015" d="m197.7 241.76.104.006.541-5.703 11.02.947-.46 5.711.983.076-.551 6.733-2.794-.229-.482-.041-8.946-.802.306-3.25-.041-.004z">
   <title id="t1930">Eddy, NM</title>
  </path>
  <path id="FIPS_35028" d="m187.46 195.82-.022.461-.136.969-.297-.027.253.207.022.032-.117 1.082-.149-.33-.153-.18-.419-.243-.316-.153-.063.058-.212.018-.189-.014-.104-.054-.068-.126.348-1.325.175-.351.911-.095.374.014z">
   <title id="t1931">Los Alamos, NM</title>
  </path>
  <path id="FIPS_35039" d="m176.99 181.1 4.269.505 1.315.253 2.57.283 1.433.154 4.777.491.113.892-.095 1.397-.126 2.777.059.766.036.807-.009.261-.288 1.258-.086.18-.135.109-.325.13-.257.014-.13.031-.208.248-.036.099 1.978 1.078.839 1.379.104.216.131.216 2 1.343-1.973.248.04-.307-3.628-.374.013.167.099.014.014.05-.072.707-1.974-.216.022-.461.023-.089.036-.361-6.576-.702.167-1.537.157-1.272-3.619-.419-3.961-.522.351-3.043.131-.996.491-3.363.27-.491 1.637-1.352z">
   <title id="t1932">Rio Arriba, NM</title>
  </path>
  <path id="FIPS_35045" d="m167.26 179.89 9.109 1.14.617.076-.423.568-1.637 1.352-.27.491-.491 3.363-.131.996-.351 3.043-.37 2.825-4.755-.627-9.825-1.303 1.78-12.826z">
   <title id="t1933">San Juan, NM</title>
  </path>
  <path id="FIPS_35031" d="m158.73 191.81 9.825 1.303 4.755.627 3.272.419-1.086 8.938-2.434-.27-.874-.126-1.095-.136-7.617-1.001-.023.181-.573 4.296-6.003-.821z">
   <title id="t1934">McKinley, NM</title>
  </path>
  <path id="FIPS_35001" d="m176.55 204.35 2.425.292 2.078.244 1.708.198 2.488.279 1.19.163-.235 2.258-.121 1.118.982.103-.113 1.077-.833-.076-1.898-.221-.005-.289-.081-.13-.085-.032-2.65-.333-.33.302-.085.122-3.178-.366-.306-1.171z">
   <title id="t1935">Bernalillo, NM</title>
  </path>
  <path id="FIPS_35061" d="m177.5 207.89.306 1.171 3.178.366.085-.122.33-.302 2.65.333.085.032.081.13.005.289-.645.726-.356 2.573-.112 1.136.55.054-.109 1.055-.842-.289-2.763-1.333-1.082-.731-.292-.045-3.084-.338.595-4.886z">
   <title id="t1936">Valencia, NM</title>
  </path>
  <path id="FIPS_35006" d="m176.55 204.35.951 3.538-1.42-.181-.595 4.886-5.453-.654-.713-.103-3.483-.461-2.506-.297-7.126-.964.676-4.89 6.003.821.573-4.296.023-.181 7.617 1.001 1.095.136.874.126 2.434.27z">
   <title id="t1937">Cibola, NM</title>
  </path>
  <path id="FIPS_35051" d="m168.4 226.12 7.008.825 1.177.167 3.376.397 1.528.161 1.163.073.167 1.181-.419 4.358-6.198 2.299-.063.558-4.413-.527-.27 2.245-3.317-.401-1.145-.365-.171-.142.027-.138.117-.225.194-.757.054-.546-.018-.193-.636-5.284-.018-.102-.131-.231-.09-.027-1.428-.171.451-3.552z">
   <title id="t1938">Sierra, NM</title>
  </path>
  <path id="FIPS_35053" d="m175.48 212.59 3.084.338.292.045 1.082.731 2.763 1.333.842.289-.243 2.321 5.183.554-.369 3.349-.226 2.254-1.356-.15-.243 2.264-1.033-.109-.09-.041-1.154-.224-1.117-.127-.248 2.326-1.163-.073-1.528-.161-3.376-.397-1.177-.167-7.008-.825.266-2.109.947-7.964-.099-.014.373-3.092.145-1.005z">
   <title id="t1939">Socorro, NM</title>
  </path>
  <path id="FIPS_35003" d="m170.03 211.94-.145 1.005-.373 3.092.099.014-.947 7.964-.266 2.109-3.055-.397-.451 3.552-4.786-.613-.988-.221-1.095-.168-4.264-.571 2.443-17.591 7.126.964 2.506.297 3.483.461z">
   <title id="t1940">Catron, NM</title>
  </path>
  <path id="FIPS_35017" d="m153.76 227.7 4.264.571 1.095.168.988.221 4.786.613 1.428.171.09.027.131.231.018.102.636 5.284.018.193-.054.546-.194.757-.117.225-.027.138.171.142 1.145.365-3.389-.41-.14 1.117-3.291-.414-.73 5.601.005.686-.126 1.356-.099.745-3.331-.433.401-4.052.572-4.337-1.023-1.267-2.217-.301.288-2.227-2.064-.289z">
   <title id="t1941">Grant, NM</title>
  </path>
  <path id="FIPS_35023" d="m153 233.23 2.064.289-.288 2.227 2.217.301 1.023 1.267-.572 4.337-.401 4.052 3.331.433-.036 1.041-.474 3.637-.274 2.131-7.009-.915-.108-.017-.865-.118-1.195-.167 1.961-13.999z">
   <title id="t1942">Hidalgo, NM</title>
  </path>
  <path id="FIPS_35029" d="m171.46 237.86-1.231 10.551-9.892-1.23.036-1.041.099-.745.126-1.356-.005-.686.73-5.601 3.291.414.14-1.117 3.389.41z">
   <title id="t1943">Luna, NM</title>
  </path>
  <path id="FIPS_35013" d="m182.4 233.28-.136 1.217-.383-.041-1.352 12.295-2.371-.251-.036-.005h-.004v.005l-.235.554-.027.094-.252 1.113.018.059.104.14.847.906-8.348-.96 1.231-10.551.27-2.245 4.413.527.063-.558z">
   <title id="t1944">Doña Ana, NM</title>
  </path>
  <path id="FIPS_35055" d="m194.28 183.09 5.066.513-.041.794-.315 2.051-.645.608-.36.135-.325.15-.238.171-.136.941-.023.699.082 1.298-.158 2.51-2.272 3.029-2-1.343-.131-.216-.104-.216-.839-1.379-1.978-1.078.036-.099.208-.248.13-.031.257-.014.325-.13.135-.109.086-.18.288-1.258.009-.261-.036-.807-.059-.766.126-2.777.095-1.397-.113-.892z">
   <title id="t1945">Taos, NM</title>
  </path>
  <path id="FIPS_35049" d="m187.43 196.28 1.974.216.072-.707-.014-.05-.099-.014-.013-.167 3.628.374-.04.307-.172 1.388-1.036 10.719-5.531-.564.235-2.258.721-6.981.139-1.294z">
   <title id="t1946">Santa Fe, NM</title>
  </path>
  <path id="FIPS_35035" d="m182.82 228.92 3.677.409 2.912.293-.095 1.105 4.345.432-.198 2.231-.203 1.455-.203.723-.302 1.1-.469 4.583 2.209.217.419.018 2.794.265-.32 3.444.041.004-.306 3.25-.767-.072-11.714-1.195-4.11-.433 1.352-12.295.383.041.136-1.217z">
   <title id="t1947">Otero, NM</title>
  </path>
  <path id="FIPS_35057" d="m191.73 208.35 4.421.436-.541 5.611-.239-.017-.333 3.362-.113 1.117-6.441-.653-5.183-.554.243-2.321.109-1.055-.55-.054.112-1.136.356-2.573.645-.726 1.898.221.833.076.113-1.077-.982-.103.121-1.118z">
   <title id="t1948">Torrance, NM</title>
  </path>
  <path id="FIPS_35027" d="m195.04 217.74 4.439.423-.329 3.336-.333 3.407h.022l.009.031-.46 4.788-.523 4.015-1.086-.045-3.321-.298.198-2.231-4.345-.432.095-1.105-2.912-.293-3.677-.409-.167-1.181.248-2.326 1.117.127 1.154.224.09.041 1.033.109.243-2.264 1.356.15.226-2.254.369-3.349 6.441.653z">
   <title id="t1949">Lincoln, NM</title>
  </path>
  <path id="FIPS_35007" d="m200.01 183.67 1.573.177 2.732.251 7.382.617-.865 10.074-4.399-.388-4.417-.396.058-.555-4.89-.487.158-2.51-.082-1.298.023-.699.136-.941.238-.171.325-.15.36-.135.645-.608.315-2.051.041-.794z">
   <title id="t1950">Colfax, NM</title>
  </path>
  <path id="FIPS_35033" d="m197.19 192.96 4.89.487-.058.555 4.417.396.212 5.72-3.972-.312-2.649-.167-1.023-.558-2.367-1.055-3.867-.401.172-1.388 1.973-.248z">
   <title id="t1951">Mora, NM</title>
  </path>
  <path id="FIPS_35059" d="m221.1 185.41.856.063-.477 6.477-.424.252-.157 2.078-.244 3.407-.307 4.093-3.461-.275.262-3.349.121-.229.068-.897-4.431-.348.099-1.14-2.213-.194.046-.563.865-10.074z">
   <title id="t1952">Union, NM</title>
  </path>
  <path id="FIPS_35021" d="m206.44 194.4 4.399.388-.046.563 2.213.194-.099 1.14 4.431.348-.068.897-.121.229-.262 3.349-.131 1.132-.266 3.294-.112.094-2.574-.202.037-.415-.911-.077-2.213-5.129-1.56.126-2.505-.211z">
   <title id="t1953">Harding, NM</title>
  </path>
  <path id="FIPS_35047" d="m192.77 197.63 3.867.401 2.367 1.055 1.023.558 2.649.167 3.972.312 2.505.211 1.56-.126 2.213 5.129.911.077-.037.415-.153 1.929-2.299-.207.023-.284-2.921 1.342.073-.952-12.152-1.126-.216 2.254-4.421-.436z">
   <title id="t1954">San Miguel, NM</title>
  </path>
  <path id="FIPS_35037" d="m216.88 201.51 3.461.275-.117 1.511-.428 5.687-.225 2.965-2.091-.157-2.646 2.077-2.479.924-.437 1.104-2.213-.184-1.893-.162.185-2.253.103-1.182.239-2.294.108-1.213 2.921-1.342-.023.284 2.299.207.153-1.929 2.574.202.112-.094.266-3.294z">
   <title id="t1955">Quay, NM</title>
  </path>
  <path id="FIPS_35019" d="m208.45 208.61-.108 1.213-.239 2.294-.103 1.182-2.209-.187-.482 1.088-.821 1.063-4.696-.423-.311 3.325-4.439-.423.333-3.362.239.017.757-7.865 12.152 1.126z">
   <title id="t1956">Guadalupe, NM</title>
  </path>
  <path id="FIPS_35011" d="m208 213.3-.185 2.253 1.893.162-.32 3.767-.028.695-.189 2.289-2.222-.198-.104 1.136-2.32-.208-4.346-.446.104-1.136-1.131-.112.329-3.336.311-3.325 4.696.423.821-1.063.482-1.088z">
   <title id="t1957">De Baca, NM</title>
  </path>
  <path id="FIPS_35009" d="m219.57 211.95-.198 2.673-.433 5.621-.009.135-7.351-.581.338-3.9.437-1.104 2.479-.924 2.646-2.077z">
   <title id="t1958">Curry, NM</title>
  </path>
  <path id="FIPS_35041" d="m211.92 215.89-.338 3.9 7.351.581-.496 6.175-.297 3.276-4.882-.369.095-1.123-2.222-.162.189-2.106-1.329-.112.284-3.39-1.105-.103.189-2.289.028-.695.32-3.767z">
   <title id="t1959">Roosevelt, NM</title>
  </path>
  <path id="FIPS_35005" d="m209.17 222.46 1.105.103-.284 3.39 1.329.112-.189 2.106 2.222.162-.095 1.123-2.244-.172-.672 2.208-.455 5.554-.518-.041-11.02-.947-.541 5.703-.104-.006-2.794-.265-.419-.018-2.209-.217.469-4.583.302-1.1.203-.723.203-1.455 3.321.298 1.086.045.523-4.015.46-4.788-.009-.031h-.022l.333-3.407 1.131.112-.104 1.136 4.346.446 2.32.208.104-1.136z">
   <title id="t1960">Chaves, NM</title>
  </path>
  <path id="FIPS_35043" d="m173.68 190.92 3.961.522 3.619.419-.157 1.272-.167 1.537 6.576.702-.036.361-.023.089-.162-.057-.374-.014-.911.095-.175.351-.348 1.325.068.126.104.054.189.014.212-.018.063-.058.316.153.419.243.153.18.149.33-.721 6.981-1.19-.163-2.488-.279-1.708-.198-2.078-.244-2.425-.292-1.05-1.249 1.086-8.938-3.272-.419zm13.593 6.544-.022-.032-.253-.207.297.027z">
   <title id="t1961">Sandoval, NM</title>
  </path>
 </g>
</svg>