<svg id="svg9559" width="555.22" height="351.67" xmlns="http://www.w3.org/2000/svg" viewBox="57.36799621582031 94.447021484375 64.98200988769531 100.49800109863281">
 <g id="stylegroup" fill="#d0d0d0" stroke="#000" stroke-width=".1">
  <path id="FIPS_32007" d="m113.03 105.06 1.167.184 1.411.284 2.47.559 2.028.401 2.244.442-2.438 12.67-2.204 11.257-1.974-.378-5.905-1.245-2.172-.441-2.194-.473-1.902-.442-3.002-.63-1.592-.329-.031-5.685.005-1.252.026-.36.879-4.11-4.051-.889-4.079-.904 2.848-12.658 3.642.834 1.082.248z">
   <title id="t1962">Elko, NV</title>
  </path>
  <path id="FIPS_32033" d="m100.56 127.24 3.002.63 1.902.442 2.194.473 2.172.441 5.905 1.245 1.974.378-.523 2.692-.897 4.633-2.145 11.046-9.33-1.843-7.558-8 .739-3.484.094-.279.402-.297.239-.231.248-.293.351-.716.879-3.273.365-3.249z">
   <title id="t1963">White Pine, NV</title>
  </path>
  <path id="FIPS_32003" d="m91.117 168.89 1.312.292.279-.088 7.442 1.536 1.622.329.739.275 7.121 1.406-.405 2.124-.05.259-.41 2.34-.248 1.299-.437 2.267-1.307 1.766-.14.158-.018.012-.045.025-.626-.014-.203-.023-.054-.013-.131-.1-.09-.094-.239-.379-.072-.216-.009-.108-.005-.027-.018-.099-.126-.316-.306-.433-.14-.131-1.312-.387-.594-.122h-.632l-1.154.271-.103.054-.14.126-.009.082-.131 1.262-.279 3.695-.126 2.259.135 1.595.094.756.014.379-.072 1.573-.013.288-.055.257-.094.307-.965 1.613-1.41-2.099-3.823-5.72-.265-.393-.713-1.063-2.068-3.106-2.028-3.019z">
   <title id="t1964">Clark, NV</title>
  </path>
  <path id="FIPS_32017" d="m104.81 147.38 9.33 1.843-.262 1.335-1.036 5.417-1.361 6.937-1.465 7.716-.388 2.01-7.121-1.406-.739-.275-1.622-.329-7.442-1.536-.279.088-1.312-.292.189-1.004.577-2.714 2.498-11.633 8.815 1.83z">
   <title id="t1965">Lincoln, NV</title>
  </path>
  <path id="FIPS_32009" d="m77.939 144.25 3.781 7.161-2.965 13.07-5.184-7.783-4.593-6.856.135.068.627.148 3.655-2.609z">
   <title id="t1966">Esmeralda, NV</title>
  </path>
  <path id="FIPS_32023" d="m78.02 136.26.924-.051 2.794.036 1.708.072 7.076 1.61 6.734 1.455 7.558 8-1.618 7.987-8.815-1.83-2.498 11.633-.577 2.714-.189 1.004-2.307 10.655-.117-.172-1.479-2.217-.356-.532-2.758-4.142-3.403-5.093-.645-.978-1.104-1.641-.193-.288 2.965-13.07-7.369-13.955.243-1.023z">
   <title id="t1967">Nye, NV</title>
  </path>
  <path id="FIPS_32011" d="m95.796 114.62 4.051.889-.879 4.11-.026.36-.005 1.252.031 5.685 1.592.329.013.315-.365 3.249-.879 3.273-.351.716-.248.293-.239.231-.402.297-.094.279-.739 3.484-6.734-1.455.185-.672.554-2.312.969-4.291.938-4.263-.058-.023-.027-.018.96-4.093 1.505-6.973z">
   <title id="t1968">Eureka, NV</title>
  </path>
  <path id="FIPS_32015" d="m91.717 113.72 4.079.904-.248.662-1.505 6.973-.96 4.093.027.018.058.023-.938 4.263-.969 4.291-.554 2.312-.185.672-7.076-1.61-1.708-.072-2.794-.036-.095-.342.054-.356.929-2.555.08-.198.131-.15 1.28-.87.658-.31.82-.16.073.019.068-.022.13-.126.095-.203.284-1.132.757-3.732-.347-.833 3.822-6.121.847-1.361 2.168.482z">
   <title id="t1969">Lander, NV</title>
  </path>
  <path id="FIPS_32021" d="m69.429 134.19 8.591 2.071-3.426.174-.243 1.023 3.588 6.794-4.544 3.199-3.655 2.609-.627-.148-.135-.068-5.507-8.285 2.433.601.316-1.253.771-3.169.076-1.139-.851-.208.284-1.159.554-.671.671-.776z">
   <title id="t1970">Mineral, NV</title>
  </path>
  <path id="FIPS_32005" d="m57.504 130.69 1.176.297 1.127.47.027.202 1.938.483 2.303.608-.284 1.173h-.384l-.518-.127-.275.315-.414.868-.095.372.05 1.18.09.415.207.757-.112 1.248-.163.682-1.924-2.88-2.375-3.562-.51-1.933z">
   <title id="t1971">Douglas, NV</title>
  </path>
  <path id="FIPS_32510" d="m57.666 130.02 3.078-.351.162.595.275.261.834.208.005.067-.208 1.294-.04.05-1.938-.483-.027-.202-1.127-.47-1.176-.297z">
   <title id="t1972">Carson City, NV</title>
  </path>
  <path id="FIPS_32019" d="m66.95 126.14 1.082-.681.266-.104-.347.952-.645 1.421-.41 1.639.924 1.604.577.92.455.671.69 1.159-.113.472-1.704-.405-.671.776-.554.671-.284 1.159.851.208-.076 1.139-.771 3.169-.316 1.253-2.433-.601-1.294-1.927.163-.682.112-1.248-.207-.757-.09-.415-.05-1.18.095-.372.414-.868.275-.315.518.127h.384l.284-1.173-2.303-.608.04-.05.208-1.294-.005-.067-.834-.208-.275-.261-.162-.595.681-.04 1.843-.483 2.772-3.109z">
   <title id="t1973">Lyon, NV</title>
  </path>
  <path id="FIPS_32001" d="m83.861 125.24.347.833-.757 3.732-.284 1.132-.095.203-.13.126-.068.022-.073-.019-.82.16-.658.31-1.28.87-.131.15-.08.198-.929 2.555-.054.356.095.342-.924.051-8.591-2.071.113-.472-.69-1.159-.455-.671-.577-.92-.924-1.604.41-1.639.645-1.421.347-.952-.266.104-1.082.681.244-.6.293-1.356-.086-.464.257-1.768.131-.545 5.899 1.47 3.399.761 2.916.685z">
   <title id="t1974">Churchill, NV</title>
  </path>
  <path id="FIPS_32027" d="m87.683 119.12-3.822 6.121-3.858-.92-2.916-.685-3.399-.761-5.899-1.47-1.091-.262 1.649-6.539.244.054 1.424-5.566 4.917 1.212-.324 1.326 10.785 2.541-.509 2.195 3.168.74.077.032-.004.08z">
   <title id="t1975">Pershing, NV</title>
  </path>
  <path id="FIPS_32029" d="m66.04 126.03-2.772 3.109-1.843.483-.681.04.78-.884.405-1.456-.122-.355.036-.635 1.506-.186.744.076 1 .028.465-.072z">
   <title id="t1976">Storey, NV</title>
  </path>
  <path id="FIPS_32031" d="m72.809 95.952.33.085-.456 1.722-.843 3.358-.342 2.263-.343 1.37-.239.577-.234.252-.617 2.457-.239 1.009.189.045-1.424 5.566-.244-.054-1.649 6.539 1.091.262-.131.545-.257 1.768.086.464-.293 1.356-.244.6-.91-.103-.482.148-.465.072-1-.028-.744-.076-1.506.186-.036.635.122.355-.405 1.456-.78.884-3.078.351.482-1.897.437-1.618.92-3.484.198-.735.973-3.65.631-2.399.005-.013.185-.726.581-2.248 1.158-4.611 1.028-4.002 2.637-10.186z">
   <title id="t1977">Washoe, NV</title>
  </path>
  <path id="FIPS_32013" d="m73.139 96.037 5.061 1.276 5.395 1.24 10.898 2.478.072.027-3.867 17.181-2.168-.482-.847 1.361.442-1.902.004-.08-.077-.032-3.168-.74.509-2.195-10.785-2.541.324-1.326-4.917-1.212-.189-.045.239-1.009.617-2.457.234-.252.239-.577.343-1.37.342-2.263.843-3.358z">
   <title id="t1978">Humboldt, NV</title>
  </path>
 </g>
</svg>