<svg id="svg9559" width="555.22" height="351.67" xmlns="http://www.w3.org/2000/svg" viewBox="447.09600830078125 59.619998931884766 75.362060546875 58.836002349853516">
 <g id="stylegroup" fill="#d0d0d0" stroke="#000" stroke-width=".1">
  <path id="FIPS_36085" d="m504.54 117.78-.04.018-.091.127-.142.126-.041-.004-.145.153-.091.055-.067.107-.231.094-.053-.036-.019-.063.019-.072.053-.105-.012-.152.023-.117.194-.226.044-.202-.032-.248.028-.117-.008-.127.053-.198.084-.185.136-.103.248-.131.301-.158.105-.018.077.077.072.212.197.225-.026.14-.36.707-.231.231z">
   <title id="t1909">Richmond, NY</title>
  </path>
  <path id="FIPS_36019" d="m498.44 59.62-.014.221.33 2.114.459 2.691.27.505.149.126.262.153-1.086.387.035.24-.17.473-.627.442-.802.5-.699.148-1.411.51-.316-.92-.329-.874-.689-1.6-1.172-2.871-.225-.604 1.343-.388 2.213-.563z">
   <title id="t1979">Clinton, NY</title>
  </path>
  <path id="FIPS_36031" d="m495.14 68.13 1.411-.51.699-.148.802-.5.627-.442.17-.473-.035-.24 1.086-.387.429.518.129.28.167.451.005.008.014.14-.05.541.302 1.568-.378 1.078-.005 1.067v.42l.022.429v.004l.02.044 1.075 2.538.157.284-.517.19-5.422 2.077-.009-.487-.054-.189-1.024-.198-.332.149-.108.071-.087.149-1.451-1.181.6-.729-.672-1.848 1.647-.609-1.228-3.295z">
   <title id="t1980">Essex, NY</title>
  </path>
  <path id="FIPS_36073" d="m461.48 92.49-.614.14-3.195.614-.5.121-.555-3.097 4.323-.734z">
   <title id="t1981">Orleans, NY</title>
  </path>
  <path id="FIPS_36037" d="m461.48 92.49 1.163 1.695-.109 1.672-4.732.829-.522-2.812-.109-.509.5-.121 3.195-.614z">
   <title id="t1982">Genesee, NY</title>
  </path>
  <path id="FIPS_36121" d="m457.8 96.686 4.732-.829.465 2.479-.172.667-.346.302-.078.438-.058.463.013.041.231.108-2.511.478-1.482.077-.573-3.115-.235.041-.189-1.113z">
   <title id="t1983">Wyoming, NY</title>
  </path>
  <path id="FIPS_36051" d="m462.65 94.185 1.653-.329.108.09.045.081-.053.356-.009.028-.239.054-.014.018.023.031 1.123-.211.513-.154.145.117.085.135.144.334.112.487v.018l-.329.067.006 1.199.347 1.136.923-.162.208.559.117.608-1.902 1.776-1.1.167-.108-.55-1.852.315-.231-.108-.013-.041.058-.463.078-.438.346-.302.172-.667-.465-2.479z">
   <title id="t1984">Livingston, NY</title>
  </path>
  <path id="FIPS_36093" d="m497.85 87.091.355-.054 1.244.342.414.298.109.306.825.699.063.031.122-.009-3.263 1.42-.965-.662-.018-.036.032-.172 1.338-1.451z">
   <title id="t1985">Schenectady, NY</title>
  </path>
  <path id="FIPS_36057" d="m497.74 86.753.116.338.256.712-1.338 1.451-.032.172.018.036-.649.342-1.037.365-1.099-.275-.843-.031-1.154-.185-.5-2.335 2.177.325.491-.108z">
   <title id="t1986">Montgomery, NY</title>
  </path>
  <path id="FIPS_36035" d="m491.22 84.229 1.794.361 2.776-.911.748-.252 1.196 3.326-3.594.807-.491.108-2.177-.325z">
   <title id="t1987">Fulton, NY</title>
  </path>
  <path id="FIPS_36099" d="m473.58 91.526-.058.843.433 2.186.054.243.202.613.046.095.07.099.74.915-.081 1.032-1.83.446-1.289-2.686-.338-1.249.014-.063.022-.027.109-.054-.365-1.784z">
   <title id="t1988">Seneca, NY</title>
  </path>
  <path id="FIPS_36069" d="m471.31 92.135.365 1.784-.109.054-.022.027-.014.063.338 1.249-3.141.671-.158.41-.045.267-.063.612.239 1.159-1.149.216-.117-.608-.208-.559-.923.162-.347-1.136-.006-1.199.329-.067v-.018l-.112-.487-.144-.334-.085-.135-.145-.117.905-.167-.252-1.158 1.051-.207 1.136-.293 1.036-.212.077.347z">
   <title id="t1989">Ontario, NY</title>
  </path>
  <path id="FIPS_36123" d="m471.87 95.312 1.289 2.686-1.816 1.131-.369-.072-.064-.058-.117-.582-.031-.297.005-.108-2.065.419-.239-1.159.063-.612.045-.267.158-.41z">
   <title id="t1990">Yates, NY</title>
  </path>
  <path id="FIPS_36097" d="m473.16 97.998 1.83-.446.221.865.284 1.1.009.226.222 1.131.676-.117.089.432-.172.235-.414.031-.481-.116-.118-.501-.987.202-1.145.316.022.113-1.139.315-.1.018-.347-1.478-.266-1.195z">
   <title id="t1991">Schuyler, NY</title>
  </path>
  <path id="FIPS_36109" d="m475.07 96.52 1.903-.442.036.104 1.771-.437.694 2.717-2.317 2.15-.756.145-.676.117-.222-1.131-.009-.226-.284-1.1-.221-.865z">
   <title id="t1992">Tompkins, NY</title>
  </path>
  <path id="FIPS_36011" d="m473.43 86.343.41 1.478.483.5.792-.189.096.365.266.997.126.545-.014.013-.167.005-.049.058-.005.068.316 1.163.803 1.938.851-.226.65.419.288.298.031.113.478 1.857-1.771.437-.036-.104-1.903.442-.74-.915-.07-.099-.046-.095-.202-.613-.054-.243-.433-2.186.058-.843-.91-4.038z">
   <title id="t1993">Cayuga, NY</title>
  </path>
  <path id="FIPS_36067" d="m479.79 88.114.179.176.664.897.441 1.226.676 2.483-3.443.992-.031-.113-.288-.298-.65-.419-.851.226-.803-1.938-.316-1.163.005-.068.049-.058.167-.005.014-.013-.126-.545-.266-.997 1.41-.356 1.203-.604 1.159.333z">
   <title id="t1994">Onondaga, NY</title>
  </path>
  <path id="FIPS_36023" d="m481.75 92.896.239.839 1.078 3.853-2.452.595-1.136.279-.694-2.717-.478-1.857z">
   <title id="t1995">Cortland, NY</title>
  </path>
  <path id="FIPS_36017" d="m481.98 93.735 3.597-1.024.627-.085 1.203-.343.094 5.688.303 1.515-1.064.229-.969.208-.672-.325-1.18.022-.136.091-.113-.185-.612-1.938z">
   <title id="t1996">Chenango, NY</title>
  </path>
  <path id="FIPS_36053" d="m479.79 88.114 1.076.14.953-.424.463.05.221.117.577.329 1.15.762.338 1.144.036.181 1.176.648 1.717-.486-.081 1.708-1.203.343-.627.085-3.597 1.024-.239-.839-.676-2.483-.441-1.226-.664-.897z">
   <title id="t1997">Madison, NY</title>
  </path>
  <path id="FIPS_36065" d="m486.66 80.89 1.109 3.528.361 1.289-.51 1.573-.37.946.551 2.169-.307.18-1.717.486-1.176-.648-.036-.181-.338-1.144-1.15-.762-.577-.329-.221-.117-.463-.05-.953.424-.251-2.114-.235-.027.232-2.15.566.054 2.171.199z">
   <title id="t1998">Oneida, NY</title>
  </path>
  <path id="FIPS_36049" d="m481.93 73.957 2.83.969 1.902 5.964-3.314 3.326-2.171-.199-.767-2.731-.382-1.23.013-1.204 1.708-1.55.258-.609-.041-.793-.618-.298z">
   <title id="t1999">Lewis, NY</title>
  </path>
  <path id="FIPS_36043" d="m484.76 74.926 2.93-.302 2.385 7.203-.42 2.046 1.569.356.252 3.114.5 2.335-1.163-.203.063.852-.112.131-2.02-.654-.22.694-.645.189-.076-.292-.551-2.169.37-.946.51-1.573-.361-1.289-1.109-3.528z">
   <title id="t2000">Herkimer, NY</title>
  </path>
  <path id="FIPS_36077" d="m493.13 89.863-.05.509.054.356.045.172.578 1.18.121.307-.203.861-.229.684-1.208.348-1.623 1.46-.821.775-.387.451-.916.694-.238.095-.744.216-.094-5.688.081-1.708.307-.18.076.292.645-.189.22-.694 2.02.654.112-.131-.063-.852 1.163.203z">
   <title id="t2001">Otsego, NY</title>
  </path>
  <path id="FIPS_36095" d="m496.76 89.462.965.662.18.126.099.64-.072.663-.064 1.212-.008 1.457.049.157.081-.031-1.594 1.077-2.948-1.493.229-.684.203-.861-.121-.307-.578-1.18-.045-.172-.054-.356.05-.509.843.031 1.099.275 1.037-.365z">
   <title id="t2002">Schoharie, NY</title>
  </path>
  <path id="FIPS_36001" d="m500.98 88.704 1.203-.347-.023 4.26-4.178 1.731-.081.031-.049-.157.008-1.457.064-1.212.072-.663-.099-.64-.18-.126z">
   <title id="t2003">Albany, NY</title>
  </path>
  <path id="FIPS_36091" d="m496.01 81.989 2.442-.924.117.149.578.897.184.698.092.05.611.166.766-.739.551-.694.072.113.743 2.416.041.243.04.884-.045.455-.117.572.099 2.082-1.203.347-.122.009-.063-.031-.825-.699-.109-.306-.414-.298-1.244-.342-.355.054-.116-.338-1.196-3.326z">
   <title id="t2004">Saratoga, NY</title>
  </path>
  <path id="FIPS_36113" d="m495.84 77.067 5.422-2.077-.023 1.049-.058.78-.518 1.262-.168.447-.098.468-.01.086.027.18.934 2.33-.551.694-.766.739-.611-.166-.092-.05-.184-.698-.578-.897-.117-.149-2.442.924-1.545-4.39z">
   <title id="t2005">Warren, NY</title>
  </path>
  <path id="FIPS_36041" d="m492.71 72.804.672 1.848-.6.729 1.451 1.181.087-.149.108-.071.332-.149 1.024.198.054.189.009.487-1.378.532 1.545 4.39.527 1.438-.748.252-2.776.911-1.794-.361-1.569-.356.42-2.046-2.385-7.203 2.799-1.023z">
   <title id="t2006">Hamilton, NY</title>
  </path>
  <path id="FIPS_36033" d="m495.14 68.13-2.01.77 1.228 3.295-1.647.609-2.222.797-.123-.919-.328-.978-1.825-5.224-1.146-3.407-.698.157-.22-.658.238-.013 3.688-.703 1.288-.289.942-.275.104-.031.225.604 1.172 2.871.689 1.6.329.874z">
   <title id="t2007">Franklin, NY</title>
  </path>
  <path id="FIPS_36089" d="m486.15 62.572.22.658.698-.157 1.146 3.407 1.825 5.224.328.978.123.919-2.799 1.023-2.93.302-2.83-.969-.672-.256-1.974-.677-1.595-.603.283-.965.262-.645.478-.784 1.442-2.236.419-.581 3.294-3.741.167-.117 1.208-.698.226-.036z">
   <title id="t2008">St. Lawrence, NY</title>
  </path>
  <path id="FIPS_36045" d="m477.69 72.421 1.595.603 1.974.677.672.256-.582 1.645.618.298.041.793-.258.609-1.708 1.55-.013 1.204.382 1.23-1.875.216-.414.189.086.343-1.649.203-.596-1.524.636-1.311.041-.072-.019-.194-.198-.514-.063-.081-.073-.023-.788-.067-.558-.235-.875-.63-.139-.361-.006-.148.019-.29.216-.914 2.061-2.191z">
   <title id="t2009">Jefferson, NY</title>
  </path>
  <path id="FIPS_36075" d="m476.56 82.237 1.649-.203-.086-.343.414-.189 1.875-.216.767 2.731-.566-.054-.232 2.15.235.027.251 2.114-1.076-.14-.807-.244-1.159-.333-1.203.604-1.41.356-.096-.365-.792.189-.483-.5-.41-1.478.434-.487 1.135-1.199.059-.036.374-.117.247.113.136-.009.306-.077.519-.325.054-.063.067-.171.032-.207.018-.199-.027-.333-.108-.627z">
   <title id="t2010">Oswego, NY</title>
  </path>
  <path id="FIPS_36117" d="m472.67 87.488.91 4.038-2.271.609-1.564.324-.077-.347-1.036.212-1.136.293-.645-3.083.546-.153 1.554-.397.289-.063.428.005.329.063.699-.127.054-.018 1.343-.788.217-.163z">
   <title id="t2011">Wayne, NY</title>
  </path>
  <path id="FIPS_36055" d="m461.48 92.49-.541-2.956.387-.054 1.488.027.96.23.441.248.068.031.793.325.262.045.157-.014 1.357-.838.645 3.083-1.051.207.252 1.158-.905.167-.513.154-1.123.211-.023-.031.014-.018.239-.054.009-.028.053-.356-.045-.081-.108-.09-1.653.329z">
   <title id="t2012">Monroe, NY</title>
  </path>
  <path id="FIPS_36063" d="m457.17 93.365.109.509-.213.113-.978.32-3.203.658-.768.144-.298-.058-.107-.19-.433-2.177 2.05-1.1 1.745-.847.771-.302.527-.167.059-.004.184.004z">
   <title id="t2013">Niagara, NY</title>
  </path>
  <path id="FIPS_36029" d="m457.28 93.874.522 2.812-.203.037.189 1.113.235-.041.573 3.115-1.203.55-1.037.555-1.079.716-.229.094-.23.059-.554-.284-1.232-.694-.778-.275.018-.271.117-.334.405-1.067.253-.212.622-.514.231-.108.386-.505.109-.203v-.103l-.338-.748-.528-.956-.122-.158-.143-.09-.398-.072-.405-.171-.099-.108-.077-.28-.167-.622.768-.144 3.203-.658.978-.32z">
   <title id="t2014">Erie, NY</title>
  </path>
  <path id="FIPS_36013" d="m453.04 101.91 1.236 6.878-5.156.914-.144.027-1.28.221-.297-1.689-.248-1.43-.055-.342.379-.261.608-.514.821-.772.762-.76.189-.262.162-.357.419-.541.925-.729.901-.658z">
   <title id="t2015">Chautauqua, NY</title>
  </path>
  <path id="FIPS_36009" d="m458.6 100.91 1.482-.077 1.259 6.648-2.711.499-2.604.506-.415.072-1.339.226-1.236-6.878 1.232.694.554.284.23-.059.229-.094 1.079-.716 1.037-.555z">
   <title id="t2016">Cattaraugus, NY</title>
  </path>
  <path id="FIPS_36003" d="m462.59 100.36 1.852-.315.108.55 1.1-.167.919 6.062-4.282.808-.949.188-1.259-6.648z">
   <title id="t2017">Allegany, NY</title>
  </path>
  <path id="FIPS_36101" d="m467.55 98.647 1.149-.216 2.065-.419-.005.108.031.297.117.582.064.058.369.072.266 1.195.347 1.478.1-.018 1.139-.315.708 3.528-6.021 1.223-1.312.265-.919-6.062z">
   <title id="t2018">Steuben, NY</title>
  </path>
  <path id="FIPS_36015" d="m477.16 100.61.56 3.615-3.453.69-.361.08-.708-3.528-.022-.113 1.145-.316.987-.202.118.501.481.116.414-.031.172-.235-.089-.432z">
   <title id="t2019">Chemung, NY</title>
  </path>
  <path id="FIPS_36107" d="m480.61 98.183.073.095.774 1.658.023.081.104.505.026.414-.266.073.599 2.348-.382.081-3.844.789-.56-3.615 2.317-2.15z">
   <title id="t2020">Tioga, NY</title>
  </path>
  <path id="FIPS_36007" d="m483.06 97.588.612 1.938.113.185.136-.091 1.18-.022.672.325.969-.208 1.064-.229 1.094 2.357-1.153.256-5.806 1.258-.599-2.348.266-.073-.026-.414-.104-.505-.023-.081-.774-1.658-.073-.095z">
   <title id="t2021">Broome, NY</title>
  </path>
  <path id="FIPS_36025" d="m493.44 93.932 2.948 1.493.161.04-.581 2.101.888.225-2.614 2.632-2.939 2.862-1.181-.194-.302-.645-.171-.162-.568-.4-.181-.041-1.094-2.357-.303-1.515.744-.216.238-.095.916-.694.387-.451.821-.775 1.623-1.46z">
   <title id="t2022">Delaware, NY</title>
  </path>
  <path id="FIPS_36105" d="m491.31 103.28 2.939-2.862 1.321.401 2.131.681-.194.581-.369.847-.189.482.923.429 1.046.455.419.622-.329.293-.18.388-.248.649-2.564.725-.068.054-.009.031.117.488.126.282-.423.047-.758.041-.167-.077-1.027-.533-.293-.279-.414-.405-.258-.591z">
   <title id="t2023">Sullivan, NY</title>
  </path>
  <path id="FIPS_36039" d="m502.16 92.617h.05l.032.022.073.212.355 1.794.036.324-.023.176-.365.915-.284.897-.04.189-.928-.392-.419.136-.081 1.004-1.482.19-.727.09-1.501-.383-.888-.225.581-2.101-.161-.04 1.594-1.077z">
   <title id="t2024">Greene, NY</title>
  </path>
  <path id="FIPS_36061" d="m506.23 113.9.017.086-.175.869-.145.127-.698.622-.069-.289.091-1.212.258-1.171.603.301z">
   <title id="t2025">New York, NY</title>
  </path>
  <path id="FIPS_36111" d="m501.96 97.8.186 2.209.531 1.73.203.414.319 1.875-.91.338-.684.136-.586-.019-.695-.252-.996.69-.419-.622-1.046-.455-.923-.429.189-.482.369-.847.194-.581-2.131-.681-1.321-.401 2.614-2.632 1.501.383.727-.09 1.482-.19.081-1.004.419-.136.928.392z">
   <title id="t2026">Ulster, NY</title>
  </path>
  <path id="FIPS_36005" d="m505.55 112.44 1.374.163.185.983-.878.31-.118-.667-.603-.301z">
   <title id="t2027">Bronx, NY</title>
  </path>
  <path id="FIPS_36047" d="m505.23 115.6.698-.622.243.063.325.735-.094 1.153-.618-.036-.423-.635z">
   <title id="t2028">Kings, NY</title>
  </path>
  <path id="FIPS_36087" d="m503.73 107.48.312.654.576.789.514.581.059.148.341 1.733-3.411-1.02-.225-.068 1.834-2.856z">
   <title id="t2029">Rockland, NY</title>
  </path>
  <path id="FIPS_36059" d="m511.14 115.22-3.051 1.045-.77-2.704 2.181-2.136z">
   <title id="t2030">Nassau, NY</title>
  </path>
  <path id="FIPS_36071" d="m503.2 104.03.19 1.971.338 1.443-1.834 2.856-1.411-.478-3.542-1.239-.767-.75-.126-.282-.117-.488.009-.031.068-.054 2.564-.725.248-.649.18-.388.329-.293.996-.69.695.252.586.019.684-.136z">
   <title id="t2031">Orange, NY</title>
  </path>
  <path id="FIPS_36081" d="m506.23 113.9.878-.31.208-.028.77 2.704-1.685.667.094-1.153-.325-.735-.243-.063.145-.127.175-.869z">
   <title id="t2032">Queens, NY</title>
  </path>
  <path id="FIPS_36103" d="m511.14 115.22-1.64-3.795-.011-.248.051-.073.771-.288 1.766.226 5.765-2.668 1.45-1.687.547-.284 2.619.884-.117.289-2.304 2.001-.622.478-4.957 3.596-.785.473-.555.33-.274.145-.203.097-1.501.524">
   <title id="t2033">Suffolk, NY</title>
  </path>
  <path id="FIPS_36119" d="m503.73 107.48 3.966-1.541.158.91-.306 2.082-.06.059-.702.717 1.008 1.297-.873 1.601-1.374-.163-.015-1.057-.341-1.733-.059-.148-.514-.581-.576-.789z">
   <title id="t2034">Westchester, NY</title>
  </path>
  <path id="FIPS_36079" d="m507.35 103.88.352 2.064-3.966 1.541v-.039l-.338-1.443.298-.731 3.2-1.271z">
   <title id="t2035">Putnam, NY</title>
  </path>
  <path id="FIPS_36027" d="m506.16 97.187.883 4.904.306 1.785-.454.121-3.2 1.271-.298.731-.19-1.971-.319-1.875-.203-.414-.531-1.73-.186-2.209.127-.055.121.005 1.526.365.475.131 1.79-.063.063-.974z">
   <title id="t2036">Dutchess, NY</title>
  </path>
  <path id="FIPS_36021" d="m502.16 92.617 3.83-1.533-.142 5.688.216.437-.063.974-1.79.063-.475-.131-1.526-.365-.121-.005-.127.055.032-.654.04-.189.284-.897.365-.915.023-.176-.036-.324-.355-1.794-.073-.212-.032-.022z">
   <title id="t2037">Columbia, NY</title>
  </path>
  <path id="FIPS_36083" d="m502.09 86.275 3.299-.829.69 2.47-.083 3.168-3.83 1.533.023-4.26z">
   <title id="t2038">Rensselaer, NY</title>
  </path>
  <path id="FIPS_36115" d="m501.78 74.8.334.649-.174.956-.051.523.091.753.036.048.306.127 1.55.342.546 2.538.964 4.71-3.299.829.117-.572.045-.455-.04-.884-.041-.243-.743-2.416-.072-.113-.934-2.33-.027-.18.01-.086.098-.468.168-.447.518-1.262.058-.78.023-1.049z">
   <title id="t2039">Washington, NY</title>
  </path>
 </g>
</svg>