<svg id="svg9559" width="555.22" height="351.67" xmlns="http://www.w3.org/2000/svg" viewBox="400.5199890136719 111.42400360107422 42.9100341796875 48.765968322753906">
 <g id="stylegroup" fill="#d0d0d0" stroke="#000" stroke-width=".1">
  <path id="FIPS_39155" d="m441.61 117.54.024.14.752 4.556-4.588.736-.45-2.742-.334-1.969z">
   <title id="t2040">Trumbull, OH</title>
  </path>
  <path id="FIPS_39007" d="m440.88 113.06.734 4.48-4.596.721-.438-2.736-.279-1.793 4.311-2.308z">
   <title id="t2041">Ashtabula, OH</title>
  </path>
  <path id="FIPS_39087" d="m426.19 154.74.744-.045.048.853 1.212.324 1.248.879.082.982.748-.076-.004.564-.004.027-.045.924-.018.094-.018.086-.028.076-.053.068-.099.064-1.592.63-.884-.027-.87-.978-1.608-.626.612-.392.587-2.107.009-.192z">
   <title id="t2042">Lawrence, OH</title>
  </path>
  <path id="FIPS_39145" d="m419.77 153.44.644.619.036.021 2.095-.234 1.916-.159.537-.04.045.649.231.51.919-.064.067 1.128-.009.192-.587 2.107-.612.392-.045-.023-.216-.144-.01-.014-.081-.095-.067-.143-.023-.05-.28-.843-.095-.406.01-.156-.005-.006v-.013l-.008-.091-.019-.077-.004-.018-.005-.018-.017-.031-.027-.04-.013-.023-.046-.05-.103-.045h-.051l-.012.003-.272.119-.834.378-.179.081v.005l-2.277 1.915z">
   <title id="t2043">Scioto, OH</title>
  </path>
  <path id="FIPS_39001" d="m419.77 153.44.603 5.336-.571-.428-.024-.008-.337-.158-.027-.013-1.074-.258-.404-.099h-.014l-.085-.009-.123.027-.784.343-.104.072-.077.126-.054.455-.576.068-.325-4.985 2.776-.82z">
   <title id="t2044">Adams, OH</title>
  </path>
  <path id="FIPS_39131" d="m418.64 151.2 5.63-.391.188 2.87-1.916.159-2.095.234-.036-.021-.644-.619-1.2-.351z">
   <title id="t2045">Pike, OH</title>
  </path>
  <path id="FIPS_39079" d="m424.43 150.28 1.118-.081 1.154.116 1.181.393.085 1.339-1.031 2.649-.744.045-.919.064-.231-.51-.045-.649-.537.04-.188-2.87z">
   <title id="t2046">Jackson, OH</title>
  </path>
  <path id="FIPS_39053" d="m429.09 151.98.015.19 2.27-.198.05.585-.226 1.235-.13 2.083.003.004.258 1.051.014.09v.018l-.005.045-.005.076-.013.063-.041.067-.025.027-.056.045-.022.024-.059.012-.189.041-.654.217-.748.076-.082-.982-1.248-.879-1.212-.324-.048-.853 1.031-2.649z">
   <title id="t2047">Gallia, OH</title>
  </path>
  <path id="FIPS_39105" d="m429.29 149.64 5.142-.446.184 1.081-.612.266v.112l.049.176.108.141.112.082.226.151.108.126.24 1.038-.024.108-1.045.744-.329.086v-.676l-.036-.1-.247-.37-.195-.242-.73-.398h-.005l-.153-.008-.171.09-.46.779-.031.18-.05-.585-2.27.198-.015-.19z">
   <title id="t2048">Meigs, OH</title>
  </path>
  <path id="FIPS_39163" d="m424.28 148.19 1.119-.073 1.144-.265-.018-.343 2.226-.166.077 1.162.378-.032.087 1.159-.204 2.343-1.122.064-.085-1.339-1.181-.393-1.154-.116-1.118.081z">
   <title id="t2049">Vinton, OH</title>
  </path>
  <path id="FIPS_39167" d="m438.16 143.02.406.289 2.064-.235.045.41-.869 1.357-1.981 1.699-.435-.536-.072-.077-.253-.14-.113-.009-.09.028-.103.089-.627.766-1.289 1.641-.23.506-.076-.808-.951.108-.432-.536-.173-1.708 2.241-2.141z">
   <title id="t2050">Washington, OH</title>
  </path>
  <path id="FIPS_39009" d="m429.7 144.94 1.105-.085 2.171 1 .173 1.708.432.536.951-.108.076.808-.175.387-5.142.446-.087-1.159-.378.032-.153-2.312 1.118-.081z">
   <title id="t2051">Athens, OH</title>
  </path>
  <path id="FIPS_39073" d="m427.41 143.98 2.289.96.091 1.172-1.118.081.076 1.15-2.226.166.018.343-1.144.265-1.119.073-.103-1.299-.068-1.122.167-.198.852-.658 1.145-.861z">
   <title id="t2052">Hocking, OH</title>
  </path>
  <path id="FIPS_39141" d="m418.94 146.98 2.545-.22.222.175.126.136 2.345-.181.103 1.299.149 2.082-.157.536-5.63.391-.501-2.288z">
   <title id="t2053">Ross, OH</title>
  </path>
  <path id="FIPS_39071" d="m416 149.18 2.144-.266.501 2.288-.073 1.881-2.776.82-1.965.243-.31-2.921z">
   <title id="t2054">Highland, OH</title>
  </path>
  <path id="FIPS_39015" d="m412.25 151.3 1.267-.073.31 2.921 1.965-.243.325 4.985-.78-.387-.879-.91-.063-.051-.122-.045-.342-.045-1.479.158z">
   <title id="t2055">Brown, OH</title>
  </path>
  <path id="FIPS_39025" d="m412.12 151.3h.136l.202 6.31-1.852-.527-.095-.591-1.095-1.794-.04-1.992-.159-.433.393-.856z">
   <title id="t2056">Clermont, OH</title>
  </path>
  <path id="FIPS_39061" d="m408.65 151.25.956.162-.393.856.159.433.04 1.992-1.956-.721-1.127.411-1.992-.171-.297-2.579 1.627-.189.726-.132 1.876-.085z">
   <title id="t2057">Hamilton, OH</title>
  </path>
  <path id="FIPS_39027" d="m414.93 147.07 1.064 2.11-2.479 2.045-1.267.073h-.136l-.22-4.082z">
   <title id="t2058">Clinton, OH</title>
  </path>
  <path id="FIPS_39165" d="m410.54 147.27 1.357-.052.22 4.082-2.51.117-.956-.162-.59-3.826z">
   <title id="t2059">Warren, OH</title>
  </path>
  <path id="FIPS_39017" d="m406.95 147.56 1.114-.129.59 3.826-.381-.023-1.876.085-.726.132-1.627.189-.288-2.804-.068-.585z">
   <title id="t2060">Butler, OH</title>
  </path>
  <path id="FIPS_39135" d="m406.36 143.33.585 4.226-3.262.691-.235-2.056-.274-2.46z">
   <title id="t2061">Preble, OH</title>
  </path>
  <path id="FIPS_39113" d="m406.94 143.24 2.618-.369-.081.158.058.203.073.122 1.049-.054.024.378-.145 3.587-2.479.159-1.114.129-.585-4.226z">
   <title id="t2062">Montgomery, OH</title>
  </path>
  <path id="FIPS_39057" d="m414.78 144.17.037.734.117 2.168-3.038.146-1.357.052.145-3.587.697-.032.424.013 1.137.096.017.324z">
   <title id="t2063">Greene, OH</title>
  </path>
  <path id="FIPS_39047" d="m414.82 144.9 3.952-.243.171 2.325-.798 1.93-2.144.266-1.064-2.11z">
   <title id="t2064">Fayette, OH</title>
  </path>
  <path id="FIPS_39129" d="m418.65 143.13 4.119-.323.086 1.288.149 1.745 1.104-.064.068 1.122-2.345.181-.126-.136-.222-.175-2.545.22-.171-2.325z">
   <title id="t2065">Pickaway, OH</title>
  </path>
  <path id="FIPS_39045" d="m422.92 140.88 3.124-.32.08 1.212.51-.031.703 1.1.077 1.14-1.14.072-1.145.861-.852.658-.167.198-1.104.064-.149-1.745-.086-1.288z">
   <title id="t2066">Fairfield, OH</title>
  </path>
  <path id="FIPS_39127" d="m426.04 140.56 2.258-.104 1.803 1.609.703 2.791-1.105.085-2.289-.96-.077-1.14-.703-1.1-.51.031z">
   <title id="t2067">Perry, OH</title>
  </path>
  <path id="FIPS_39111" d="m438.08 139.58 1.077-.131 2.29-.203.712-.081.086-.063.108 1.735-.888 1.64-.789 1.001-.045-.41-2.064.235-.406-.289-.184-1.302-.369.053-.272-2.09z">
   <title id="t2068">Monroe, OH</title>
  </path>
  <path id="FIPS_39121" d="m437.94 138.5.134 1.077-.744.095.272 2.09.369-.053.184 1.302-2.938.703-1.398-2.005-.134-1.122 1.113-.126-.054-.41.311-.384 1.41-.929.365-.095z">
   <title id="t2069">Noble, OH</title>
  </path>
  <path id="FIPS_39115" d="m430.1 142.07 3.717-.355 1.398 2.005-2.241 2.141-2.171-1z">
   <title id="t2070">Morgan, OH</title>
  </path>
  <path id="FIPS_39119" d="m428.28 137.13 4.593-.492.307 2.852.364-.044.145 1.141.134 1.122-3.717.355-1.803-1.609z">
   <title id="t2071">Muskingum, OH</title>
  </path>
  <path id="FIPS_39013" d="m440.92 135.29 1.744-.253-.026 1.641-.397 2.425-.086.063-.712.081-2.29.203-1.077.131-.134-1.077-.362-2.822z">
   <title id="t2072">Belmont, OH</title>
  </path>
  <path id="FIPS_39067" d="m439.81 131.98.739-.094.072.559-.031.081.333 2.763-3.34.392-1.176-.396-.144-1.164.361-.05.198-.142-.194-1.565z">
   <title id="t2073">Harrison, OH</title>
  </path>
  <path id="FIPS_39059" d="m433.64 135.62 2.762-.333 1.176.396.362 2.822-1.11.143-.365.095-1.41.929-.311.384.054.41-1.113.126-.145-1.141-.364.044-.307-2.852.351-.042.081-.053-.085-.784z">
   <title id="t2074">Guernsey, OH</title>
  </path>
  <path id="FIPS_39031" d="m427.76 133.41 4.61-.536.113.956.932-.108.226 1.897-.424.144.085.784-.081.053-.351.042-4.593.492-.221-.916z">
   <title id="t2075">Coshocton, OH</title>
  </path>
  <path id="FIPS_39089" d="m422.6 136.5 2.7-.221.022.244 1.105-.095 1.631-.212.221.916.023 3.325-2.258.104-3.124.32-.14-2.425z">
   <title id="t2076">Licking, OH</title>
  </path>
  <path id="FIPS_39041" d="m417.51 135.02 2.218-.171 2.82.716.055.942.18 1.956-3.989.325-.198-1.293-.73.089-.249-1.676z">
   <title id="t2077">Delaware, OH</title>
  </path>
  <path id="FIPS_39049" d="m422.78 138.46.14 2.425-.149 1.921-4.119.323-.149-3.84.288-.504z">
   <title id="t2078">Franklin, OH</title>
  </path>
  <path id="FIPS_39097" d="m415.61 139.63 2.897-.344.149 3.84.117 1.533-3.952.243-.037-.734.888-3.237z">
   <title id="t2079">Madison, OH</title>
  </path>
  <path id="FIPS_39023" d="m410.54 141.22 5.125-.284-.888 3.237-1.821-.086-.017-.324-1.137-.096-.424-.013-.697.032-.024-.378z">
   <title id="t2080">Clark, OH</title>
  </path>
  <path id="FIPS_39021" d="m414.94 138.17.663 1.461.062 1.301-5.125.284-.167-3.033 2.259-.118.582.168z">
   <title id="t2081">Champaign, OH</title>
  </path>
  <path id="FIPS_39109" d="m406.44 139.67 4.002-.324.103 1.869.117 2.088-1.049.054-.073-.122-.058-.203.081-.158-2.618.369z">
   <title id="t2082">Miami, OH</title>
  </path>
  <path id="FIPS_39149" d="m406.18 137.64.107-.324.615-1.425.215-.026 3.038-.405.225 2.721.064 1.164-4.002.324-.267-2.024z">
   <title id="t2083">Shelby, OH</title>
  </path>
  <path id="FIPS_39037" d="m406.17 137.65.267 2.024.505 3.573-.582.087-3.186.401-.117-1.141-.398-3.944-.067-.548z">
   <title id="t2084">Darke, OH</title>
  </path>
  <path id="FIPS_39107" d="m405.44 133.41.731 4.232-.005.005-3.578.452-.319-2.836-.236-2.01z">
   <title id="t2085">Mercer, OH</title>
  </path>
  <path id="FIPS_39011" d="m406.02 133.34 1.676-.222.048.375 1.863-.068 1.465-.194.174 1.367-1.09.865-3.038.405-.215.026-.615 1.425-.107.324-.731-4.232z">
   <title id="t2086">Auglaize, OH</title>
  </path>
  <path id="FIPS_39091" d="m411.24 134.6.409.066 3.108-.14.022.068.163 3.579-1.726.063-.582-.168-2.259.118-.225-2.721z">
   <title id="t2087">Logan, OH</title>
  </path>
  <path id="FIPS_39159" d="m414.78 134.59.978-.149 1.749.573.107.888.249 1.676.73-.089.198 1.293-.288.504-2.897.344-.663-1.461z">
   <title id="t2088">Union, OH</title>
  </path>
  <path id="FIPS_39101" d="m420.81 131.14.091.753-.942.148-.284 2.145.05.659-2.218.171-1.749-.573-.323-2.334 2.941-.608z">
   <title id="t2089">Marion, OH</title>
  </path>
  <path id="FIPS_39117" d="m420.81 131.14 1.249-.257 1.294 1.933-.023.659.171 2.009-.956.077-2.82-.716-.05-.659.284-2.145.942-.148z">
   <title id="t2090">Morrow, OH</title>
  </path>
  <path id="FIPS_39083" d="m427.21 132.02.556 1.388.296 2.808-1.631.212-1.105.095-.022-.244-2.7.221-.055-.942.956-.077-.171-2.009.023-.659 2.754-.459z">
   <title id="t2091">Knox, OH</title>
  </path>
  <path id="FIPS_39075" d="m432.51 129.92.063.429-.109.108.289 2.375-.378.045-4.61.536-.556-1.388.717-1.42z">
   <title id="t2092">Holmes, OH</title>
  </path>
  <path id="FIPS_39157" d="m435.73 129.64.131 1.093.554-.062.406 3.26-.198.142-.361.05.144 1.164-2.762.333-.226-1.897-.932.108-.113-.956.378-.045-.289-2.375.109-.108z">
   <title id="t2093">Tuscarawas, OH</title>
  </path>
  <path id="FIPS_39019" d="m437.79 128.31 2.424 1.302-.406 2.366-3.182.384-.212-1.695-.554.062-.131-1.093.739-.1-.094-.82.342-.253z">
   <title id="t2094">Carroll, OH</title>
  </path>
  <path id="FIPS_39081" d="m440.21 129.62 1.902-.086.878 2.336-.225 2.767-.104.405-1.744.253-.333-2.763.031-.081-.072-.559-.739.094z">
   <title id="t2095">Jefferson, OH</title>
  </path>
  <path id="FIPS_39029" d="m442.87 125.23.114.62.446 2.724-1.312.955-1.902.086-2.424-1.302-.352-2.25z">
   <title id="t2096">Columbiana, OH</title>
  </path>
  <path id="FIPS_39151" d="m434.33 125.43 2.937-.455.523 3.339-1.074.153-.342.253.094.82-.739.1-3.159.707-.527-3.593z">
   <title id="t2097">Stark, OH</title>
  </path>
  <path id="FIPS_39169" d="m431.51 125.86.533.896.464 3.164-4.584.685-.646-4.16z">
   <title id="t2098">Wayne, OH</title>
  </path>
  <path id="FIPS_39005" d="m426.74 125.59.536.856.646 4.16-.717 1.42-1.099.334-.343-2.209-.627-.977-.392-.88-.229-1.455-.144.017.788-1.068z">
   <title id="t2099">Ashland, OH</title>
  </path>
  <path id="FIPS_39139" d="m421.57 127.22 2.803-.366.144-.017.229 1.455.392.88.627.977.343 2.209-2.754.459-1.294-1.933z">
   <title id="t2100">Richland, OH</title>
  </path>
  <path id="FIPS_39033" d="m421.57 127.22.49 3.664-1.249.257-2.434.361-.521-3.737 2.708-.419z">
   <title id="t2101">Crawford, OH</title>
  </path>
  <path id="FIPS_39175" d="m414.91 128.18 2.948-.415.521 3.737-2.941.608-.2.018-.558-.108-.203-1.502-.191.024z">
   <title id="t2102">Wyandot, OH</title>
  </path>
  <path id="FIPS_39065" d="m410.78 130.97 3.506-.433.191-.024.203 1.502.558.108.2-.018.323 2.334-.978.149-.022-.068-3.108.14-.409-.066z">
   <title id="t2103">Hardin, OH</title>
  </path>
  <path id="FIPS_39003" d="m410.61 129.68.17 1.294.29 2.257-1.465.194-1.863.068-.048-.375-1.676.222.265-2.313 1.118-.153 1.077-.333-.05-.379 1.083-.333z">
   <title id="t2104">Allen, OH</title>
  </path>
  <path id="FIPS_39063" d="m410.19 126.49 4.407-.559.307 2.245-.624 2.362-3.506.433-.17-1.294z">
   <title id="t2105">Hancock, OH</title>
  </path>
  <path id="FIPS_39137" d="m410.19 126.49.414 3.187-1.099.149-1.083.333.05.379-1.077.333-1.118.153-.771-1.623.281-2.325 1.081-.141z">
   <title id="t2106">Putnam, OH</title>
  </path>
  <path id="FIPS_39161" d="m401.63 129.89 3.88-.483.771 1.623-.265 2.313-.57.071-3.407-.157-.304-2.506z">
   <title id="t2107">Van Wert, OH</title>
  </path>
  <path id="FIPS_39099" d="m442.4 122.34.465 2.889-5.43.833-.171-1.089.531-2.001 4.588-.736z">
   <title id="t2108">Mahoning, OH</title>
  </path>
  <path id="FIPS_39133" d="m433.64 120.8 3.71-.573.45 2.742-.531 2.001-2.937.455-.696-4.625z">
   <title id="t2109">Portage, OH</title>
  </path>
  <path id="FIPS_39153" d="m433.63 120.8.696 4.625-2.287 1.324-.533-.896-.531-3.71 1.14-.18-.293-.528-.163-.364z">
   <title id="t2110">Summit, OH</title>
  </path>
  <path id="FIPS_39103" d="m430.98 122.15.531 3.71-4.233.585-.536-.856-.121-.946 1.646-1.862.878-.324z">
   <title id="t2111">Medina, OH</title>
  </path>
  <path id="FIPS_39077" d="m419.92 123.59 4.772-.595.465 2.79-.788 1.068-2.803.366-1.006.126z">
   <title id="t2112">Huron, OH</title>
  </path>
  <path id="FIPS_39147" d="m420 124.04.564 3.308-2.708.419-2.948.415-.307-2.245-.14-1.126z">
   <title id="t2113">Seneca, OH</title>
  </path>
  <path id="FIPS_39143" d="m414.09 121.63.717-.109.085.564 2.579-.347 1.085-.162.054.365 1.004-.146.384 2.242-5.539.771z">
   <title id="t2114">Sandusky, OH</title>
  </path>
  <path id="FIPS_39173" d="m413.88 120.1.212 1.525.369 3.178.14 1.126-4.407.559-.429-3.173.279-.036.934-.798.261-.486 1.171-1.678z">
   <title id="t2115">Wood, OH</title>
  </path>
  <path id="FIPS_39069" d="m409.65 122.38.117.942.429 3.173-3.322.445-.425-3.375-1.082.135-.094-.742z">
   <title id="t2116">Henry, OH</title>
  </path>
  <path id="FIPS_39125" d="m405.79 127.08-.281 2.325-3.88.483-.406-3.399 3.312-.41 1.182.438z">
   <title id="t2117">Paulding, OH</title>
  </path>
  <path id="FIPS_39039" d="m405.36 123.7 1.082-.135.425 3.375-1.081.141-.073-.563-1.182-.438-3.312.41-.028-.238-.243-1.997z">
   <title id="t2118">Defiance, OH</title>
  </path>
  <path id="FIPS_39055" d="m433.2 117.96.902-.143-.135-.912 1.641-.256.049-.888.919-.239.438 2.736.334 1.969-3.71.573z">
   <title id="t2119">Geauga, OH</title>
  </path>
  <path id="FIPS_39085" d="m436.3 113.73.279 1.793-.919.239-.049.888-1.641.256.135.912-.902.143-1.049-.643.356-.609.441-.514.293-.316.563-.514 2.064-1.365z">
   <title id="t2120">Lake, OH</title>
  </path>
  <path id="FIPS_39035" d="m432.15 117.32 1.049.643.438 2.84h-.004l-1.971.271.163.364.293.528-1.14.18-1.835.307-.135-.975-.901.127-.27-1.996.066.059.046.027.207.063.591.017 1.252-.239.055-.026.239-.207.662-.61.279-.305.821-.953z">
   <title id="t2121">Cuyahoga, OH</title>
  </path>
  <path id="FIPS_39093" d="m427.84 119.61.27 1.996.901-.127.135.975-.878.324-1.646 1.862.121.946-1.581.198-.465-2.79-.32-1.853z">
   <title id="t2122">Lorain, OH</title>
  </path>
  <path id="FIPS_39043" d="m420.96 120.77.857.735.613.287.451.141.144.018.171-.022.185-.094.262-.176.733-.52.32 1.853-4.772.595-.308-1.795-1.004.146-.054-.365z">
   <title id="t2123">Erie, OH</title>
  </path>
  <path id="FIPS_39123" d="m416.2 119.72 1.033.244 2.065.121.319-.131 1.064.645.274.175-2.402.803-1.085.162-2.579.347-.085-.564-.717.109-.212-1.525z">
   <title id="t2124">Ottawa, OH</title>
  </path>
  <path id="FIPS_39095" d="m410.4 119.19 2.924-.496 2.885 1.028-2.325.386-1.47.217-1.171 1.678-.261.486-.934.798-.279.036-.117-.942-.361-2.997z">
   <title id="t2125">Lucas, OH</title>
  </path>
  <path id="FIPS_39051" d="m404.74 120.12 4.544-.744.361 2.997-4.377.578-.892-2.773z">
   <title id="t2126">Fulton, OH</title>
  </path>
  <path id="FIPS_39171" d="m400.52 120.77 3.854-.59.892 2.773.094.742-4.412.555-.162-1.343z">
   <title id="t2127">Williams, OH</title>
  </path>
 </g>
</svg>