<svg id="svg9559" width="555.22" height="351.67" xmlns="http://www.w3.org/2000/svg" viewBox="221.47300720214844 185.47999572753906 88.39897155761719 46.14100646972656">
 <g id="stylegroup" fill="#d0d0d0" stroke="#000" stroke-width=".1">
  <path id="FIPS_40139" d="m236.71 186.51 4.99.248 1.239.063-.104 1.938-.085.003-.239 4.522-1.348-.067-5.535-.316-4.195-.265.45-6.392z">
   <title id="t2128">Texas, OK</title>
  </path>
  <path id="FIPS_40025" d="m221.95 185.48 1.294.1 5.301.437 3.195.225.144.009-.45 6.392-1.339-.087-8.622-.599z">
   <title id="t2129">Cimarron, OK</title>
  </path>
  <path id="FIPS_40115" d="m307.62 188.04.041 3.006.022 1.285-3.921.014-.126-4.273z">
   <title id="t2130">Ottawa, OK</title>
  </path>
  <path id="FIPS_40035" d="m302.97 188.07.672-.004.126 4.273-.04 2.091-3.318.022-1.072-1.126.212-5.224z">
   <title id="t2131">Craig, OK</title>
  </path>
  <path id="FIPS_40097" d="m303.73 194.43-.01 4.521-1.108.013.014 1.131-.929.004-2.407.01-.009-2.26.028-3.388 1.103-.009z">
   <title id="t2132">Mayes, OK</title>
  </path>
  <path id="FIPS_40041" d="m307.69 192.33.031 2.189.636 4.377-2.424.037-2.214.023.01-4.521.04-2.091z">
   <title id="t2133">Delaware, OK</title>
  </path>
  <path id="FIPS_40001" d="m305.93 198.93 2.424-.037.122.772.92 6.007-3.484.051-.046-3.409.087-1.392z">
   <title id="t2134">Adair, OK</title>
  </path>
  <path id="FIPS_40021" d="m303.72 198.95 2.214-.023.023 1.992-.087 1.392.046 3.409-3.336.031-1.455-2.249-.023-.036-.167-1.19.041-.735.063-.121.207-.185.144-.007.041-.044.27-.634-.004-.452.929-.004-.014-1.131z">
   <title id="t2135">Cherokee, OK</title>
  </path>
  <path id="FIPS_40135" d="m309.4 205.67.472 3.115-.004.226-.644.662-1.979.072-.478-.315-.212-.059-.202.022-.058.028-.397.391-.996-.96-.343.005-.514-.135-.154-.055-.161-.148-.321-.437-.829-2.33 3.336-.031z">
   <title id="t2136">Sequoyah, OK</title>
  </path>
  <path id="FIPS_40061" d="m303.4 208.08.321.437.161.148.154.055.514.135.343-.005.996.96.008 1.293-.784.285-.402.004.023 1.875-4.42.041-.01-1.325-1.104.004-.01-.55.038-1.208 1.112.028.753.134 1.001-.593.332-.66.804-.946z">
   <title id="t2137">Haskell, OK</title>
  </path>
  <path id="FIPS_40079" d="m309.86 209.01-.063 5.8-.027 2.663-.022 2.872-5.036.076-1.311-2.24-.022-2.263.64-.942.734-.202-.041-3.381.402-.004.784-.285-.008-1.293.397-.391.058-.028.202-.022.212.059.478.315 1.979-.072z">
   <title id="t2138">Le Flore, OK</title>
  </path>
  <path id="FIPS_40077" d="m304.74 213.27.018 1.506-.734.202-.64.942.022 2.263-4.795.032v-1.168l.049-3.349 1.389-.013.271-.374z">
   <title id="t2139">Latimer, OK</title>
  </path>
  <path id="FIPS_40121" d="m299.23 210.23-.038 1.208.01.55 1.104-.004.01 1.325-.271.374-1.389.013-.049 3.349v1.168l-1.654 1.14-2.222.009v-1.132h-2.213v-1.126l.041-3.665.292-.541.509-.694.091-.054.207-.031.379.018 2.078-.437.388-.177 2.027-1.126z">
   <title id="t2140">Pittsburg, OK</title>
  </path>
  <path id="FIPS_40029" d="m292.52 217.11v3.389l-.563 1.137-2.777-.01-1.118-1.131.032-2.263h1.113l.005-1.13z">
   <title id="t2141">Coal, OK</title>
  </path>
  <path id="FIPS_40005" d="m292.52 218.23h2.213v1.132l2.222-.009.005 1.127-1.132.089.005 4.454h-2.254l-4.412-.013.013-3.39 2.777.01.563-1.137z">
   <title id="t2142">Atoka, OK</title>
  </path>
  <path id="FIPS_40127" d="m298.61 218.22 4.795-.032 1.311 2.24-1.152.008.036 3.417-.659.005-.451.244-.045.887-6.611.041-.005-4.454 1.132-.089-.005-1.127z">
   <title id="t2143">Pushmataha, OK</title>
  </path>
  <path id="FIPS_40089" d="m304.72 220.42 5.036-.076-.032 4.119-.049 7.158-2.79-.803-1.325-.541-1.83-1.465-1.249-1.068-.032-2.763.045-.887.451-.244.659-.005-.036-3.417z">
   <title id="t2144">McCurtain, OK</title>
  </path>
  <path id="FIPS_40023" d="m302.44 224.98.032 2.763-.676-.226-.076-.003-.036.018-.009.004h-.006l-.229.347-.005.018v.023l-.004.013.004.009.041.086v.019l.018.112-.018.13-.058.131-.06.058-.284.185-.084.009-.158.018-.311.041h-.005l-.722.036-.4-.032-1.055-.14-.04-.036-.042-.072v-.009l-.003-.066.032-.091.003-.086-.113-.288-.081-.032-.346-.018-.78.405-.893.465-.004.004-.888-.09-.829-.653-.185-.234-.023-.073-.004-2.298-.568-.406h2.254z">
   <title id="t2145">Choctaw, OK</title>
  </path>
  <path id="FIPS_40013" d="m293.58 225.03.568.406.004 2.298.023.073.185.234.829.653.888.09-.915.343-.518-.095-.617-.122-.145.015-.23.017-1.199.1-.541.125-.09.316-.067.311-.005.032-.009.036-.031.099-.027.086-.005.009-.013.017-.1.104-.013.016-.194.083-.221.059-1.591.393-.103-.141-.464-.631v-.004l-.14-.045-.126-.014-.546.104h-.014l-.099-.068-1.095-.735-.009-.031-.009-.062-.009-.159.036-.207.307-3.174 1.893-.544z">
   <title id="t2146">Bryan, OK</title>
  </path>
  <path id="FIPS_40095" d="m283.58 224.77 2.762.028.559.138.406.479v.081l-.036.058-.307 3.174-1.068.482-.009.004-.518.087-1.006-.308-.108-.075-.175-.196-.541-1.112-.356-1.523z">
   <title id="t2147">Marshall, OK</title>
  </path>
  <path id="FIPS_40069" d="m284.75 220.46 3.312.032 1.118 1.131-.013 3.39-1.893.544.036-.058v-.081l-.406-.479-.559-.138-2.762-.028.022-2.073h.554l.028-2.244z">
   <title id="t2148">Johnston, OK</title>
  </path>
  <path id="FIPS_40123" d="m288.33 215.24.879 1.862-.005 1.13h-1.113l-.032 2.263-3.312-.032.008-1.131-1.108-.009.005-.563.027-2.826.036-1.424 1.618.846z">
   <title id="t2149">Pontotoc, OK</title>
  </path>
  <path id="FIPS_40049" d="m283.68 215.93-.027 2.826-2.218-.027-.545.175-.027.032-.018.131.08.18.167.136.14.405.126.559-.397.067-1.757-.027-2.222-.036-1.082-2.28.045-2.254z">
   <title id="t2150">Garvin, OK</title>
  </path>
  <path id="FIPS_40099" d="m279.21 220.39 1.757.027.397-.067-.126-.559-.14-.405-.167-.136-.08-.18.018-.131.027-.032.545-.175 2.218.027-.005.563 1.108.009-.008 1.131-.563-.004-.028 2.244h-.554l-1.01-.009-.112-.067-.032-.063v-.027l.122-.086-.023-.284-.031-.031-3.34-.05z">
   <title id="t2151">Murray, OK</title>
  </path>
  <path id="FIPS_40085" d="m276.91 226 6.279.086.356 1.523-.104.058-1.604 2.782-.05.067-.108.086-.153.049-.171-.022-.149-.05-3.106-1.357-.094-.063-.063-.076v-.005l-.009-.023-.028-.067-.211-.964-.821.221z">
   <title id="t2152">Love, OK</title>
  </path>
  <path id="FIPS_40019" d="m276.98 220.35 2.222.036-.027 1.695 3.34.05.031.031.023.284-.122.086v.027l.032.063.112.067 1.01.009-.022 2.073-.397 1.317-6.279-.086.028-2.825z">
   <title id="t2153">Carter, OK</title>
  </path>
  <path id="FIPS_40067" d="m270.83 223.05 6.108.132-.028 2.825-.036 2.245-.383-.267-1.086-.725-.365.46-.559.581-.532.419-.333.099-.127-.012-.941-.429-.118-.109.275-.595.095-.689-.004-.005-.397-.157-.37.09-.013.004h-.23l-.451-.135-.018-.004-.027-.027-.185-.37z">
   <title id="t2154">Jefferson, OK</title>
  </path>
  <path id="FIPS_40137" d="m275.9 218.07 1.082 2.28-.049 2.827-6.108-.132.032-2.817.608-2.244z">
   <title id="t2155">Stephens, OK</title>
  </path>
  <path id="FIPS_40033" d="m265.33 221.4.558.014 1.109-.157 2.222-.317.559-.476.374-.249.708.013-.032 2.817.275 3.331-.644-1.059-1.65-.518-.406-.091-.207.117-.428.541-.568.51-.009.009-.004-.004-.303-.109-.504-.811-.243-.207-.235-.155-.108-.008.067-2.24-.554-.009z">
   <title id="t2156">Cotton, OK</title>
  </path>
  <path id="FIPS_40031" d="m265.94 215.59 5.544.139-.014 2.254-.608 2.244-.708-.013-.374.249-.559.476-2.222.317-1.109.157-.558-.014.031-.981-.613-.349-1.113-.031.032-1.131.099-3.385z">
   <title id="t2157">Comanche, OK</title>
  </path>
  <path id="FIPS_40141" d="m263.67 218.91-.032 1.131 1.113.031.613.349-.031.981-.023.942.554.009-.067 2.24-.965.297-.694-.026-.978-.239-.982-.587-.149-.075h-.014l-.978-.077-.428.008-.198.009-.397-.09-.216-.067-.135-.04-.005-.006v-.004l-.184-1 .009-.28.013-.298.167-.049.036-.071v-.105l-.158-.446-.067-.054-.145.019-.058-.195-.018-.251.198-.871.424-.883.238-.334.235-.049.446.031.05.054.076-.009.041-.027.022-.306-.08-.153-.136-.167.712.027.352.433-.005.143z">
   <title id="t2158">Tillman, OK</title>
  </path>
  <path id="FIPS_40065" d="m259.34 215.81.595-.446.099-.014.041.014.221.149.049.082.906 1.847-.482.807.136.167.08.153-.022.306-.041.027-.076.009-.05-.054-.446-.031-.235.049-.238.334-.424.883-.198.871.018.251.058.195.145-.019.067.054.158.446v.105l-.036.071-.167.049v-.013l-.5-.87-.528-.284-.464-.252-.455.815-.004.01-.014.023h-.009l-.081.035-.356-.031-.347-.329-.262-.153-.162-.068-.505-.059-.117-.017-.058.022-.411.519-.41.004h-.09l-.325-.077-.739-.703-.266-.315-.55-.713 1.92.077.104-2.821 1.465.049 1.001-.036-.05-.117-.014-.284.036-.099.352-.559 1.636.063z">
   <title id="t2159">Jackson, OK</title>
  </path>
  <path id="FIPS_40075" d="m257.76 211.96.519-.008 5.35.176 1.848.03.536.284-.072 3.147-2.172-.068-.099 3.385-1.844-.055.005-.143-.352-.433-.712-.027.482-.807-.906-1.847-.049-.082-.221-.149-.041-.014-.099.014-.595.446-.644-.554-.077-.108-.135-1.524.099-.351.045-.293-.446-.658z">
   <title id="t2160">Kiowa, OK</title>
  </path>
  <path id="FIPS_40055" d="m252.69 212.86 1.108.05.045-1.127 3.467.136.445.044.42.361.446.658-.045.293-.099.351.135 1.524.077.108.644.554-.045.122-1.636-.063-.352.559-.036.099.014.284.05.117-1.001.036-1.465-.049-.564-2.871-1.653-.064z">
   <title id="t2161">Greer, OK</title>
  </path>
  <path id="FIPS_40057" d="m251.52 212.81 1.172.049-.045 1.122 1.653.064.564 2.871-.104 2.821-1.92-.077-1.545-.77.072-2.398z">
   <title id="t2162">Harmon, OK</title>
  </path>
  <path id="FIPS_40101" d="m295.92 202.97 1.204-.009 1.798.676 1.605-.13h.595l1.455 2.249.829 2.33-.17.112-.804.946-.332.66-1.001.593-.753-.134-.026-3.362-3.836.022-.005-2.258-.554.005z">
   <title id="t2163">Muskogee, OK</title>
  </path>
  <path id="FIPS_40091" d="m296.48 206.92 3.836-.022.026 3.362-1.112-.028-.7.167-2.027 1.126-.388.177-2.078.437-.379-.018.028-1.793v-1.132l1.103.005v-.361l.153-.77.397-1.145z">
   <title id="t2164">McIntosh, OK</title>
  </path>
  <path id="FIPS_40063" d="m288.88 210.31 4.814.015-.028 1.793-.207.031-.091.054-.509.694-.292.541-.041 3.665-3.308-.008-.879-1.862.018-2.665.514.006z">
   <title id="t2165">Hughes, OK</title>
  </path>
  <path id="FIPS_40133" d="m286.98 208.86.068.067.063.018.78.05.018-.014.014-.067-.037-.162.086-.443.613-.224.306-.081-.013 2.306-.009 2.264-.514-.006-.018 2.665-2.997.116.044-6.633.546-.176z">
   <title id="t2166">Seminole, OK</title>
  </path>
  <path id="FIPS_40125" d="m281.58 207.99 5.391.069.004.803-1.05-.32-.546.176-.044 6.633-1.618-.846-2.232.395.077-5.772z">
   <title id="t2167">Pottawatomie, OK</title>
  </path>
  <path id="FIPS_40027" d="m276.03 209.04 5.53.09-.077 5.772-.572.036-1.325-.355-.135-.081-.054-.05-.068-.207-.085-.73-.159-.631-.495-.835-2.114-2.113-.459-.374z">
   <title id="t2168">Cleveland, OK</title>
  </path>
  <path id="FIPS_40087" d="m276.02 209.56.459.374 2.114 2.113.495.835.159.631.085.73.068.207.054.05.135.081 1.325.355.572-.036 2.232-.395-.036 1.424-7.735-.113.073-6.242z">
   <title id="t2169">McClain, OK</title>
  </path>
  <path id="FIPS_40051" d="m271.59 208.94 1.411.423 1.227.203 1.117.145.306-.005.366-.135-.073 6.242-.045 2.254-4.435-.086.014-2.254z">
   <title id="t2170">Grady, OK</title>
  </path>
  <path id="FIPS_40015" d="m269.38 206.64h.055l.009.139-.045 2.128 2.194.041-.112 6.787-5.544-.139.072-3.147.037-.053.036-1.331-.018-1.334.054-2.046.035-1.13z">
   <title id="t2171">Caddo, OK</title>
  </path>
  <path id="FIPS_40017" d="m270.54 204.41 5.544.105-.05 4.525-.013.522v.014l-.366.135-.306.005-1.117-.145-1.227-.203-1.411-.423-2.194-.041.045-2.128-.009-.139h-.055z">
   <title id="t2172">Canadian, OK</title>
  </path>
  <path id="FIPS_40109" d="m276.08 204.52 5.544.097-.046 3.38-.018 1.138-5.53-.09z">
   <title id="t2173">Oklahoma, OK</title>
  </path>
  <path id="FIPS_40081" d="m287.05 201.85-.018 3.925-.058 2.289-5.391-.069.046-3.38.035-2.82z">
   <title id="t2174">Lincoln, OK</title>
  </path>
  <path id="FIPS_40107" d="m291.49 205.79-.005 1.136 1.091-.005.004 2.276h1.11v1.132l-4.814-.015.013-2.306-.306.081-.613.224-.086.443.037.162-.014.067-.018.014-.78-.05-.063-.018-.068-.067-.004-.803.058-2.289z">
   <title id="t2175">Okfuskee, OK</title>
  </path>
  <path id="FIPS_40111" d="m295.92 202.97.005 1.7.554-.005.005 2.258-1.141.005-.397 1.145-.153.77v.361l-1.103-.005h-1.11l-.004-2.276-1.091.005.005-1.136.004-2.826 1.655.004 2.213.009z">
   <title id="t2176">Okmulgee, OK</title>
  </path>
  <path id="FIPS_40145" d="m299.29 200.11 2.407-.01.004.452-.27.634-.041.044-.144.007-.207.185-.063.121-.041.735.167 1.19.023.036h-.595l-1.605.13-1.798-.676-1.204.009-.558.009.599-3.984 1.479-.009.495.636.113.202-.045.177-.162.021.026.059.064.041z">
   <title id="t2177">Wagoner, OK</title>
  </path>
  <path id="FIPS_40131" d="m295.45 193.34 3.885-.013 1.072 1.126-1.103.009-.028 3.388.009 2.26-1.356.009-.064-.041-.026-.059.162-.021.045-.177-.113-.202-.495-.636-1.479.009-.532-3.389z">
   <title id="t2178">Rogers, OK</title>
  </path>
  <path id="FIPS_40105" d="m298.38 188.11 1.173-.004-.212 5.224-3.885.013.22-5.219z">
   <title id="t2179">Nowata, OK</title>
  </path>
  <path id="FIPS_40147" d="m293.86 188.13 1.812-.005-.22 5.219-.023 2.263h-1.947l.005-7.477z">
   <title id="t2180">Washington, OK</title>
  </path>
  <path id="FIPS_40143" d="m293.48 195.6h1.947l.532 3.389-.599 3.984-2.213-.009.041-.577-.006-2.262-2.771-.014v-1.122l.306.005 2.763.021z">
   <title id="t2181">Tulsa, OK</title>
  </path>
  <path id="FIPS_40037" d="m287.07 199.01 3.344-.014v1.122l2.771.014.006 2.262-.041.577-1.655-.004-.004 2.826-4.458-.018.018-3.925z">
   <title id="t2182">Creek, OK</title>
  </path>
  <path id="FIPS_40119" d="m283.94 197.86 1.1.009-.014 1.141h2.047l-.019 2.84-5.386-.055-2.204-.59.032-2.264 2.204.028.014-1.131z">
   <title id="t2183">Payne, OK</title>
  </path>
  <path id="FIPS_40083" d="m276.16 198.81 2.222.041 1.104.085-.032 2.264 2.204.59-.035 2.82-5.544-.097z">
   <title id="t2184">Logan, OK</title>
  </path>
  <path id="FIPS_40073" d="m270.64 198.7 1.1.023 4.426.089-.081 5.703-5.544-.105.054-2.253.014-1.88z">
   <title id="t2185">Kingfisher, OK</title>
  </path>
  <path id="FIPS_40011" d="m266.23 198.59 4.408.112-.031 1.577-.014 1.88-.054 2.253-1.159 2.227-3.227-.085v-3.385z">
   <title id="t2186">Blaine, OK</title>
  </path>
  <path id="FIPS_40149" d="m266.12 207.68-.054 2.046.018 1.334-.036 1.331-.037.053-.536-.284-1.848-.03-5.35-.176.117-4.53z">
   <title id="t2187">Washita, OK</title>
  </path>
  <path id="FIPS_40009" d="m258.41 206.86-.018.564-.117 4.53-.519.008-.445-.044-3.467-.136-.045 1.127-1.108-.05-1.172-.049.086-1.974.13-3.111 4.431.186.04-1.132z">
   <title id="t2188">Beckham, OK</title>
  </path>
  <path id="FIPS_40039" d="m258.43 202.92 7.725.245v3.385l-.035 1.13-7.726-.256.018-.564z">
   <title id="t2189">Custer, OK</title>
  </path>
  <path id="FIPS_40043" d="m262.93 198.53 3.299.054-.077 4.579-7.725-.245.041-2.609.058-1.965z">
   <title id="t2190">Dewey, OK</title>
  </path>
  <path id="FIPS_40129" d="m258.47 200.31-.041 2.609-.018 3.94-2.204-.081-.04 1.132-4.431-.186.109-2.55.139-3.399.982-.572 1.101.27.247.307.09.072.51.32.324.117.518.131.158.018.609-.253.036-.031.496-.784.175-.591.027-.054.1-.089.256-.185.176-.087.253-.054z">
   <title id="t2191">Roger Mills, OK</title>
  </path>
  <path id="FIPS_40045" d="m256.43 192.7-.167 4.493.054 1.077 2.208.076-.058 1.965h-.428l-.253.054-.176.087-.256.185-.1.089-.027.054-.175.591-.496.784-.036.031-.609.253-.158-.018-.518-.131-.324-.117-.51-.32-.09-.072-.247-.307-1.101-.27-.982.572.095-2.266.212-5.765.058-1.213z">
   <title id="t2192">Ellis, OK</title>
  </path>
  <path id="FIPS_40153" d="m256.43 192.7 3.186.085.104-2.912.009.185.234.207.171.063.902-.036.135.045.149.087 1.726 2.423-.022 1.2-.095 4.485-4.404-.186-2.208-.076-.054-1.077z">
   <title id="t2193">Woodward, OK</title>
  </path>
  <path id="FIPS_40093" d="m271.82 194.85-.081 3.873-1.1-.023-4.408-.112-3.299-.054.095-4.485 1.199.045.234.464.117.135.153.104.947.509.563.262.189.064.235.03.717-.067.022-.857z">
   <title id="t2194">Major, OK</title>
  </path>
  <path id="FIPS_40047" d="m278.46 193.28h.005l-.077 5.57-2.222-.041-4.426-.089.081-3.873.04-1.694z">
   <title id="t2195">Garfield, OK</title>
  </path>
  <path id="FIPS_40103" d="m282.62 193.33.478 1.136-.23-.005-.023 2.254 1.104.013-.013 1.127-2.226-.022-.014 1.131-2.204-.028-1.104-.085.077-5.57z">
   <title id="t2196">Noble, OK</title>
  </path>
  <path id="FIPS_40117" d="m283.94 197.86.013-1.127-1.104-.013.023-2.254.23.005.045.27.239.262.139.076.298.067 2.569.429 3.628 2.556.703.87-.306-.005-3.344.014h-2.047l.014-1.141z">
   <title id="t2197">Pawnee, OK</title>
  </path>
  <path id="FIPS_40113" d="m285.82 188.1 2.294.013 5.369.019-.005 7.477v3.415l-2.763-.021-.703-.87-3.628-2.556-2.569-.429-.298-.067-.139-.076-.239-.262-.045-.27-.478-1.136.054-.649.55-.595 1.51-.716.203.04.076-.027.762-.468z">
   <title id="t2198">Osage, OK</title>
  </path>
  <path id="FIPS_40071" d="m278.54 188.02 3.218.04 4.065.04-.049 2.822-.762.468-.076.027-.203-.04-1.51.716-.55.595-.054.649-4.155-.049h-.005z">
   <title id="t2199">Kay, OK</title>
  </path>
  <path id="FIPS_40053" d="m275.06 187.96 3.475.06-.081 5.268-6.599-.127-.053-.004.098-4.525-.009-.731z">
   <title id="t2200">Grant, OK</title>
  </path>
  <path id="FIPS_40003" d="m269.49 187.84 2.402.053.009.731-.098 4.525.053.004-.04 1.694-4.417-.112.068-6.959z">
   <title id="t2201">Alfalfa, OK</title>
  </path>
  <path id="FIPS_40151" d="m258.16 187.48 4.652.158 4.66.144-.068 6.959-.022.857-.717.067-.235-.03-.189-.064-.563-.262-.947-.509-.153-.104-.117-.135-.234-.464-1.199-.045.022-1.2-1.726-2.423-.149-.087-.135-.045-.902.036-.171-.063-.234-.207-.009-.185z">
   <title id="t2202">Woods, OK</title>
  </path>
  <path id="FIPS_40059" d="m252.57 187.23 4.715.216.87.032 1.564 2.398-.104 2.912-3.186-.085-4.084-.168z">
   <title id="t2203">Harper, OK</title>
  </path>
  <path id="FIPS_40007" d="m242.94 186.82 3.187.135 5.557.229.887.041-.225 5.305-.058 1.213-5.58-.249-4.196-.211.239-4.522.085-.003z">
   <title id="t2204">Beaver, OK</title>
  </path>
 </g>
</svg>