<svg id="svg9559" width="555.22" height="351.67" xmlns="http://www.w3.org/2000/svg" viewBox="27.449995040893555 32.545997619628906 82.27701568603516 68.48499298095703">
 <g id="stylegroup" fill="#d0d0d0" stroke="#000" stroke-width=".1">
  <path id="FIPS_41007" d="m51.203 34.408-1.317 4.534-1.09-.266-2.006-.568-.027-.013.009-.131-2.136-.645 1.203-2.681.108-.402.077-.378.036-.469.005-.085 3.524-.483.401-.144.045-.131.581.032.05.031.027.014.036.059.131.234.094.302-.197.577.378.59z">
   <title id="t2205">Clatsop, OR</title>
  </path>
  <path id="FIPS_41009" d="m52.595 34.466.46-.085.424.176 1.455 1.784.086.339.252 1.405-.081 1.226-.067.212-.235 1.573-1.469-.347-.681-.964-2.853-.843 1.317-4.534z">
   <title id="t2206">Columbia, OR</title>
  </path>
  <path id="FIPS_41015" d="m34.833 74.783.842.328-.04.014-.167.126-1.401 1.424-.005.063.054.14v.05l-.04.067-.852 1.046-.185.112-.351-.022-.492-.185-.041-.032-.148 1.867.383.23.351.513.09 1.077-.049.33-.23.36-.216.307-.626 1.32.013.352.054.342-3.552-1.118-.356-.748-.419-1.271.095-2.754.32-1.063.266-.712.067-.154.144-3.506.005-1.181 1.1-1.213 1.996.618.027.058.406 1.06-.045.721-.081.122-.099.347-.149.626-.068.915.036.068 1.303.135.698-.37.141-.103.144-.437.739.031z">
   <title id="t2207">Curry, OR</title>
  </path>
  <path id="FIPS_41011" d="m34.833 74.783-.338-.1-.739-.031-.144.437-.141.103-.698.37-1.303-.135-.036-.068.068-.915.149-.626.099-.347.081-.122.045-.721-.406-1.06-.027-.058-1.996-.618 4.822-7.396 1.713.528 1.343.432.338 2.479-.108 2.326-.617 2.123-.74.527-.514.333-.157-.049-.636 2.132z">
   <title id="t2208">Coos, OR</title>
  </path>
  <path id="FIPS_41033" d="m39.777 77.432-2.569 8.69-2.641-.739-2.79-.771-.054-.342-.013-.352.626-1.32.216-.307.23-.36.049-.33-.09-1.077-.351-.513-.383-.23.148-1.867.041.032.492.185.351.022.185-.112.852-1.046.04-.067v-.05l-.054-.14.005-.063 1.401-1.424.167-.126.04-.014-.152.55 1.455.834.41.226.334.148.505-.05.076-.121h.351l.834.252.194.153z">
   <title id="t2209">Josephine, OR</title>
  </path>
  <path id="FIPS_41029" d="m49.422 76.252-1.785 6.187-.248.758-1.541 5.368-.514-.158-.293-.095-1.131-.306-1.239-.307-3.124-.883-.239-.068-.405-.121-.983-.357-.689-.143-.023-.005 2.569-8.69.027-.094.879-.365.356.112.947.225 2.014.316 1.379-.78 1.321-.599 1.65-.297z">
   <title id="t2210">Jackson, OR</title>
  </path>
  <path id="FIPS_41019" d="m52.338 71.104.167.077.158.212.383.992.049.238-.004 1.046-1.609 1.92-1.812-.221-.248.884-1.072-.302-1.65.297-1.321.599-1.379.78-2.014-.316-.947-.225-.356-.112-.879.365-.027.094-.095-.329-.194-.153-.834-.252h-.351l-.076.121-.505.05-.334-.148-.41-.226-1.455-.834.152-.55-.842-.328.058-.456.636-2.132.157.049.514-.333.74-.527.617-2.123.108-2.326-.338-2.479-1.343-.432-1.713-.528 1.497-2.965.829.27.969.288.279.041 1.167-.717 1.101.338.364.226.235.5-.045.153.577 1.001.446.401.983.699 1.875.559-.632 2.159.028.897.946.288.122.027.018-.022 1 .252 1.204.351-.374 1.339 2.176.572z">
   <title id="t2211">Douglas, OR</title>
  </path>
  <path id="FIPS_41035" d="m54.114 69.252 6.021 1.65-.883 3.249-.216.514-.365 1.046-1.078 3.84-.581 2.176 3.029.83 1.213.356-2.484 9.406-5.219-1.46-7.703-2.294 1.541-5.368.248-.758 1.785-6.187.248-.884 1.812.221 1.609-1.92.004-1.046-.049-.238-.383-.992-.158-.212-.167-.077 1.776-1.852">
   <title id="t2212">Klamath, OR</title>
  </path>
  <path id="FIPS_41037" d="m60.135 70.902 3.092.824.135.037 5.792 1.618 3.903 1.027-.067.329-.992 3.358-.658 1.64-.942 3.259-.558 2.141 1.451.365.73.162 3.123.785-1.528 6.147-.352 1.564-.455 1.794-5.908-1.505-2.66-.672-.365-.094-3.38-.897-.013-.005-1.713-.46 2.484-9.406-1.213-.356-3.029-.83.581-2.176 1.078-3.84.365-1.046.216-.514z">
   <title id="t2213">Lake, OR</title>
  </path>
  <path id="FIPS_41025" d="m76.33 70.586 7.567 1.875.275-1.1 1.37.37.672.23 3.235.78-.784 3.281-.139.423-.365 1.51-.825 3.471-1.276 5.485-.558 2.704-1.231 5.381.068.248-.05.46-.694 2.849-5.395-1.24-5.061-1.276-.33-.085.455-1.794.352-1.564 1.528-6.147-3.123-.785-.73-.162-1.451-.365.558-2.141.942-3.259.658-1.64.992-3.358.067-.329.271-1.108 1.086.283.852-3.267z">
   <title id="t2214">Harney, OR</title>
  </path>
  <path id="FIPS_41045" d="m90.053 70.009.352.086.41-.099.712-.6.726-.64.077-.32.225-.14.397-.085 3.416.78.469.491.297.437-.238 1.091 2.6.594-.023.068-.013.109.018.185.135.229 1.122.455.086-.04h.049l.357.126.094.059.478.946.009.018.031.099-.013.131v.013l-.005.005-.018.036-.013.027-.013.023-.456.559-.351 1.433-.438.829-.27.451-.996 2.416-4.773 21.25-10.898-2.478.694-2.849.05-.46-.068-.248 1.231-5.381.558-2.704 1.276-5.485.825-3.471.365-1.51.139-.423.784-3.281z">
   <title id="t2215">Malheur, OR</title>
  </path>
  <path id="FIPS_41001" d="m92.046 61.161.365-.346.829-.455.181-.023.405.505.464.36.086.032 1.92.478 1.911.437.257-1.091 2.641.59 4.291.988-.437.396-.285.262-.225.469.009.261.032.126.054.126.013.104-.009.009-.302.522-.211.226-.271.288-.491.528-.861.293-.221.049-.063.027-.212.19-1.996 2.744-.113.226-.311 2.122-2.6-.594.238-1.091-.297-.437-.469-.491-3.416-.78-.397.085-.225.14-.077.32-.726.64-.712.6-.41.099-.352-.086-2.379-.554.059-.294.031-.08 1.162-1.83.095-.126.541-.473.69-.771.139-.212 1.587-3.425.086-.519.023-.311z">
   <title id="t2216">Baker, OR</title>
  </path>
  <path id="FIPS_41063" d="m97.499 48.641 3.277.789 1.077.261 4.945 1.154.635 1.979.04.076.027.05.41.378.785.722.329.144.004.004.154.198.175.222v.004l.059.248.311 1.631-.036.163-.217.247-.865.884-1.56 2.001-.306.645-1.347 2.195-4.291-.988.239-1.072-1.866-.419-.104-1.38-.094-.396-.244-.618-.347-.081-.117-.352-.163-.901-.134-1.176-.019-2.317.239-1.059.325-.306.293-.703-1.983-.46z">
   <title id="t2217">Wallowa, OR</title>
  </path>
  <path id="FIPS_41061" d="m97.13 50.408 1.983.46-.293.703-.325.306-.239 1.059.019 2.317.134 1.176.163.901.117.352.347.081.244.618.094.396.104 1.38 1.866.419-.239 1.072-2.641-.59-.257 1.091-1.911-.437-1.92-.478-.086-.032-.464-.36-.405-.505-.181.023-.829.455-.365.346-2.321-1.059.261-1.063.099-1.519-.964-.23-.177-.852.258-1.099.775.058 1.636.392 2.249-.415.712-.405.252-.523.528-2.181 1.014-1.46z">
   <title id="t2218">Union, OR</title>
  </path>
  <path id="FIPS_41023" d="m79.498 57.588 4.503 1.113 5.724 1.401 2.321 1.059.041.253-.023.311-.086.519-1.587 3.425-.139.212-.69.771-.541.473-.095.126-1.162 1.83-.031.08-.059.294 2.379.554-.604 2.732-3.235-.78-.672-.23-1.37-.37-.275 1.1-7.567-1.875 1.122-4.354 1.677-6.459.049-.914z">
   <title id="t2219">Grant, OR</title>
  </path>
  <path id="FIPS_41069" d="m72.463 54.775 6.219 1.627.816 1.186-.32 1.271-.049.914-1.677 6.459-1.965-.505.041-1.027-.925-.956-3.245-.829.113-.486.306-1.096.964-3.186z">
   <title id="t2220">Wheeler, OR</title>
  </path>
  <path id="FIPS_41013" d="m71.777 61.333-.306 1.096-.113.486 3.245.829.925.956-.041 1.027 1.965.505-1.122 4.354-1.064-.27-.852 3.267-1.086-.283-3.051-.776-.194-.068.283-1.081-.802-1.37-3.317-.87.257-1.082-.879-.239-1.217-.369.577-2.163-1.019-.33.221-1.019.591-2.145 1.055.293.288-1.081 1.433.383.293-1.073z">
   <title id="t2221">Crook, OR</title>
  </path>
  <path id="FIPS_41017" d="m58.252 59.972 6.526 1.816-.591 2.145-.221 1.019 1.019.33-.577 2.163 1.217.369.879.239-.257 1.082 3.317.87.802 1.37-.283 1.081.194.068 3.051.776-.271 1.108-3.903-1.027-5.792-1.618-.135-.037-3.092-.824-6.021-1.65.275-.446.302-.649.441-1.217 1.245-1.199 1.456-1.839.121-.284.076-.595.141-1.276z">
   <title id="t2222">Deschutes, OR</title>
  </path>
  <path id="FIPS_41031" d="m60.487 54.785 5.895 1.622.979.288 5.38 1.452-.964 3.186-3.93-1.023-.293 1.073-1.433-.383-.288 1.081-1.055-.293-6.526-1.816 1.437-3.511z">
   <title id="t2223">Jefferson, OR</title>
  </path>
  <path id="FIPS_41043" d="m48.025 52.242.847.41 1.163.248 1.068-.153 1.384.36 2.763 1.109.329.167 1.036.757.974.703.613.199 1.487.419-1.437 3.511-.081 1.775-2.042-.563-2.664-.694-.081.108-.005.05.032.045-.05.076-.415.167-.125-.036-1.046-.473-.618-.374-.337-.27-.33-.356-.207-.19-.536-.315-.938-.235-.441.262-.095.266-.14.455-1.956-.568-.338-.135.127-.374.058-.564-.014-.063-.054-.068-.121-.027-.028-.022-.013-.054-.059-.698.83-2.466 1.731-1.023-.429-1.014z">
   <title id="t2224">Linn, OR</title>
  </path>
  <path id="FIPS_41039" d="m37.704 55.537 3.033.82 1.591.545 1.988.528 1.519.441.121.027.054.068.014.063-.058.564-.127.374.338.135 1.956.568.14-.455.095-.266.441-.262.938.235.536.315.207.19.33.356.337.27.618.374 1.046.473.125.036.415-.167.05-.076-.032-.045.005-.05.081-.108 2.664.694 2.042.563-.141 1.276-.076.595-.121.284-1.456 1.839-1.245 1.199-.441 1.217-.302.649-.275.446-1.776 1.852-3.304-.951-2.176-.572.374-1.339-1.204-.351-1-.252-.018.022-.122-.027-.946-.288-.028-.897.632-2.159-1.875-.559-.983-.699-.446-.401-.577-1.001.045-.153-.235-.5-.364-.226-1.101-.338-1.167.717-.279-.041-.969-.288-.829-.27z">
   <title id="t2225">Lane, OR</title>
  </path>
  <path id="FIPS_41003" d="m47.867 52.594.429 1.014-1.731 1.023-.83 2.466.059.698.013.054.028.022-1.519-.441-1.988-.528-1.591-.545.032-.428.121-.347 1.407-.779.567.179.785-2.622.234-.961z">
   <title id="t2226">Benton, OR</title>
  </path>
  <path id="FIPS_41041" d="m44.005 47.086-1.132 3.768.117.279.893.266-.234.961-.785 2.622-.567-.179-1.407.779-.121.347-.032.428-3.033-.82.342-.645.505-1.032.054-.135.776-2.159 1.406-3.524.779-1.704z">
   <title id="t2227">Lincoln, OR</title>
  </path>
  <path id="FIPS_41053" d="m44.005 47.086.13-.396 5.716 1.712-.118.433-.744 1.258-.044.013-.469.55-.271.554-.198.951.018.081-.158.352-3.984-1.195-.893-.266-.117-.279z">
   <title id="t2228">Polk, OR</title>
  </path>
  <path id="FIPS_41071" d="m47.714 42.944 2.866.857.528.536.504.59.551.794.328.193-.045.762-.748-.329-.996.784.005.185-.14.477-.203.407-.513.202-5.716-1.712-.531-.163.523-1.721 2.803.834.365-1.204z">
   <title id="t2229">Yamhill, OR</title>
  </path>
  <path id="FIPS_41047" d="m52.446 46.676.181-.14.437.126.324.293-.306.775-.108.172-.136.162-.08.027-.14.185-.099.167.468 1.082 1.23 2.221.862.717 3.492.947 2.349.657-.433.718-.798 1.676-1.487-.419-.613-.199-.974-.703-1.036-.757-.329-.167-2.763-1.109-1.384-.36-1.068.153-1.163-.248-.847-.41-.018-.081.198-.951.271-.554.469-.55.044-.013.744-1.258.118-.433.513-.202.203-.407.14-.477-.005-.185.996-.784z">
   <title id="t2230">Marion, OR</title>
  </path>
  <path id="FIPS_41005" d="m53.992 44.792.829.248-.018-.338.181.004 7.166 2.024.379 2.83-.618.519-.049.09-1.123 2.177-.022.054-.185.888.014.036.374.743-2.349-.657-3.492-.947-.862-.717-1.23-2.221-.468-1.082.099-.167.14-.185.08-.027.136-.162.108-.172.306-.775-.324-.293-.437-.126-.181.14.045-.762z">
   <title id="t2231">Clackamas, OR</title>
  </path>
  <path id="FIPS_41059" d="m88.67 46.523 8.663 2.077.166.041-.369 1.767-.762.397-1.014 1.46-.528 2.181-.252.523-.712.405-2.249.415-1.636-.392-.775-.058-.258 1.099.177.852.964.23-.099 1.519-.261 1.063-5.724-1.401.428-1.05 1.356-5.422-.64-1.298-1.631-.419.825-3.272.175-.609.51.031 1.352.185.248.127.23.058.392.027.32-.049.658-.19.193-.085z">
   <title id="t2232">Umatilla, OR</title>
  </path>
  <path id="FIPS_41049" d="m79.232 46.636h1.226l.861.09.937.089 1.749-.216.509.032-.175.609-.825 3.272 1.631.419.64 1.298-1.356 5.422-.428 1.05-4.503-1.113-.816-1.186.306-.099.28-1.081-.869-1.082-1.015-.6.856-3.24.348-1.217z">
   <title id="t2233">Morrow, OR</title>
  </path>
  <path id="FIPS_41021" d="m73.278 46.072.189-.063.384.094.252.177.234.441.109.158.184.121.703.122 1.776.108.469-.356.288-.072 1.352-.166h.014l-.644 2.447-.348 1.217-.856 3.24 1.015.6.869 1.082-.28 1.081-.306.099-6.219-1.627-.028-.198.311-.289.154-1.117-.32-.829.423-.889.483-.941 1.082-.586.328-.167.109-.023.085-.135-.158-1.199-.635-1.095-.767-.956z">
   <title id="t2234">Gilliam, OR</title>
  </path>
  <path id="FIPS_41055" d="m70.664 46.658.469-.144.793-.122.964-.135.388-.185.252.279.767.956.635 1.095.158 1.199-.085.135-.109.023-.328.167-1.082.586-.483.941-.423.889.32.829-.154 1.117-.311.289-1.397-.379-.428-.423-1.253-1.623.005-1.708.915-.685.527-.933.162-.325.018-.085z">
   <title id="t2235">Sherman, OR</title>
  </path>
  <path id="FIPS_41065" d="m66.27 44.715.617.091.311.063 3.272 1.532.194.257.32 1.758-.018.085-.162.325-.527.933-.915.685-.005 1.708 1.253 1.623.428.423 1.397.379.028.198.278 3.372-5.38-1.452-.979-.288-5.895-1.622.433-.718-.374-.743-.014-.036.185-.888.022-.054 1.123-2.177.049-.09.618-.519 1.893.519.112-.388.771-2.866.442-.667z">
   <title id="t2236">Wasco, OR</title>
  </path>
  <path id="FIPS_41027" d="m61.911 44.161.253-.226.383-.198.532-.031.621.342.244.059.744.058.968.018.614.532-.523 1.443-.442.667-.771 2.866-.112.388-1.893-.519-.379-2.83-.239-2.569">
   <title id="t2237">Hood River, OR</title>
  </path>
  <path id="FIPS_41051" d="m54.889 41.096-.193.325-.086.234.009.316.176.225.459.482.239.181 2.501 1.541.294.144.008.005.248.063h.018l.149-.005 3.2-.446.239 2.569-7.166-2.024-.181-.004.018.338-.829-.248.163-1.244-.167-.108-.505-.928-.351-.78.288-.983z">
   <title id="t2238">Multnomah, OR</title>
  </path>
  <path id="FIPS_41067" d="m53.42 40.749-.288.983.351.78.505.928.167.108-.163 1.244-1.501 1.122-.328-.193-.551-.794-.504-.59-.528-.536-2.866-.857-.185-.049.059-.176 1.231-2.168.806-.735.261-.874 2.853.843z">
   <title id="t2239">Washington, OR</title>
  </path>
  <path id="FIPS_41057" d="m49.886 38.942-.261.874-.806.735-1.231 2.168-.059.176.185.049-.419 1.492-.365 1.204-2.803-.834-.523 1.721.531.163-.13.396-2.439-.748.316-.568.036-.067.004-.009.257-.487.018-.036.073-.167.202-.501 1.974-5.606.172-.582.036-.234v-.086l-.018-.676 2.136.645-.009.131.027.013 2.006.568z">
   <title id="t2240">Tillamook, OR</title>
  </path>
 </g>
</svg>