<svg id="svg9559" width="555.22" height="351.67" xmlns="http://www.w3.org/2000/svg" viewBox="440.6130065917969 101.84400177001953 59.541015625 38.498008728027344">
 <g id="stylegroup" fill="#d0d0d0" stroke="#000" stroke-width=".1">
  <path id="FIPS_42101" d="m498.04 125.76-.622.906-.734 1.365-.385.55-.941-1.262.46-.622-.513-.396.554-.852.549.365.996-1.095z">
   <title id="t2241">Philadelphia, PA</title>
  </path>
  <path id="FIPS_42017" d="m494.44 119.34 1.383.564.73 1.469.937.568.064.036 2.6 1.997-2.114 1.789-.636-1.041-5.268-2.57 1.099-1.815 1.1-1.2z">
   <title id="t2242">Bucks, PA</title>
  </path>
  <path id="FIPS_42059" d="m444.85 137.25 1.986-1.091.112-.014 1.078-.008 1.827.005 1.365 3.226-4.908.82-.955.154z">
   <title id="t2243">Greene, PA</title>
  </path>
  <path id="FIPS_42051" d="m450.71 134.1 1.281-.239 2.284-.566.235-.069.243.062.1.052 1.689.884-.248.666-.45 1.302-.077.631.338 1.51.208.14-.821.148-2.791.492-1.477.252-1.365-3.226z">
   <title id="t2244">Fayette, PA</title>
  </path>
  <path id="FIPS_42125" d="m445.29 130.39 2.02 1.573 2.266.942 1.042.278.09.915-.851 2.039-1.827-.005-1.078.008-.112.014-1.986 1.091-.413-2.528-.498-3.07-.171-1.005z">
   <title id="t2245">Washington, PA</title>
  </path>
  <path id="FIPS_42003" d="m451.28 126.84.004.008.393 2.903.027.208-.009.066-.514 2.602-.09.229-.478.324-1.042-.278-2.266-.942-2.02-1.573 1.07-1.438.711-.658-.167-.771z">
   <title id="t2246">Allegheny, PA</title>
  </path>
  <path id="FIPS_42007" d="m442.98 125.85 3.438-.62.482 2.294.167.771-.711.658-1.07 1.438-1.518.252-.342-2.069z">
   <title id="t2247">Beaver, PA</title>
  </path>
  <path id="FIPS_42073" d="m446.55 122.38-.126 2.848-3.438.62-.114-.62-.465-2.889 2.48-.447 1.077.005z">
   <title id="t2248">Lawrence, PA</title>
  </path>
  <path id="FIPS_42019" d="m450.19 120.43 1.09 6.418-4.381.68-.482-2.294.126-2.848.703-1.465 2.899-.514z">
   <title id="t2249">Butler, PA</title>
  </path>
  <path id="FIPS_42005" d="m454.99 121.16.317 1.781.31 1.736-1.144 2.424-.546 1.119-2.637-1.372-.004-.008-1.09-6.418.247.87.032.117.225.527 1.041.658.203.031.289.023.18-.054.694-.249 1.037-.418z">
   <title id="t2250">Armstrong, PA</title>
  </path>
  <path id="FIPS_42031" d="m451.74 117.32.733-.131-.108-.634.397-.073 1.442-.185.207 1.266.581 3.606-.846.767-1.037.418-.694.249-.18.054-.289-.023-.203-.031-1.041-.658-.225-.527-.032-.117-.247-.87-.045-.023.247-1.104.161-.338.181-.271.438-.414.1-.017.567-.295z">
   <title id="t2251">Clarion, PA</title>
  </path>
  <path id="FIPS_42053" d="m450.87 114.33 5.255-.928.284 1.74-.081.495-.825.127-.218.437.178 1.055-1.06.305-.207-1.266-1.442.185-.397.073.108.634-.733.131-.127-.689-.46-.794z">
   <title id="t2252">Forest, PA</title>
  </path>
  <path id="FIPS_42121" d="m450.87 114.33.275 1.505.46.794.127.689.107.649-.567.295-.1.017-.438.414-.181.271-.161.338-.247 1.104-2.899.514-.694-4.074.343-.366 1.027-1.343 2.015-.545-.018-.085z">
   <title id="t2253">Venango, PA</title>
  </path>
  <path id="FIPS_42085" d="m441.63 117.68 4.921-.838.694 4.074-.703 1.465-.586-.483-1.077-.005-2.48.447-.017-.104z">
   <title id="t2254">Mercer, PA</title>
  </path>
  <path id="FIPS_42039" d="m449.43 111.61.496 2.894.018.085-2.015.545-1.027 1.343-.343.366-4.921.838-.024-.14-.734-4.48 5.742-.978 2.142-.385z">
   <title id="t2255">Crawford, PA</title>
  </path>
  <path id="FIPS_42049" d="m449.12 109.7.311 1.912-.666.088-2.142.385-5.742.978-.268-1.636 1.657-1.045 2.185-1.812 1.731-1.416.91-.667.055.342.248 1.43.297 1.689 1.28-.221z">
   <title id="t2256">Erie, PA</title>
  </path>
  <path id="FIPS_42129" d="m453.92 128.22-.067.169.135.42.024.023.643.257 2.37.144 1.763-.112-.522 1.558-1.732 3.54-1.689-.884-.1-.052-.243-.062-.235.069-2.284.566-1.281.239-.09-.915.478-.324.09-.229.514-2.602.009-.066-.027-.208-.393-2.903z">
   <title id="t2257">Westmoreland, PA</title>
  </path>
  <path id="FIPS_42063" d="m455.3 122.94 3.925-.636.454 2.312-.891 4.504-1.763.112-2.37-.144-.643-.257-.024-.023-.135-.42.067-.169.546-1.119 1.144-2.424z">
   <title id="t2258">Indiana, PA</title>
  </path>
  <path id="FIPS_42065" d="m454.41 117.56 1.06-.305.188-.199 1.051-.307 2.353.879.315.375.068.365-.537.085-.162.793-.005.028.011.373.481 2.664-3.925.636-.317-1.781z">
   <title id="t2259">Jefferson, PA</title>
  </path>
  <path id="FIPS_42123" d="m454.27 108.78 1.339-.226.135.568.257 1.434-.026.134-.258.055.41 2.65-5.255.928-.951.177-.496-2.894-.311-1.912z">
   <title id="t2260">Warren, PA</title>
  </path>
  <path id="FIPS_42083" d="m461.34 107.48.949-.188.951 4.862-1.996.586-.672-.239-1.28.262-.491.129-1.465.299-1.208.207-.41-2.65.258-.055.026-.134-.257-1.434-.135-.568.415-.072 2.604-.506z">
   <title id="t2261">McKean, PA</title>
  </path>
  <path id="FIPS_42023" d="m461.24 112.74 1.996-.586 2.37 1.442-.355 3.48-1.396.085-.205-1.193-.374-1.002-1.572.293z">
   <title id="t2262">Cameron, PA</title>
  </path>
  <path id="FIPS_42047" d="m456.13 113.4 1.208-.207 1.465-.299.491-.129 1.28-.262.672.239.464 2.519 1.572-.293.374 1.002.205 1.193-3.075.343-.847.172-.496.689-.068-.365-.315-.375-2.353-.879-1.051.307-.188.199-.178-1.055.218-.437.825-.127.081-.495z">
   <title id="t2263">Elk, PA</title>
  </path>
  <path id="FIPS_42033" d="m463.86 117.16 1.396-.085.677.707.094 1.527.013.308-.116.802-.051.058-.54.222-.46.405-.108.121-1.086 2.257.013.042.168.207.138.086-4.314.802-.454-2.312-.481-2.664-.011-.373.005-.028.162-.793.537-.085.496-.689.847-.172z">
   <title id="t2264">Clearfield, PA</title>
  </path>
  <path id="FIPS_42013" d="m463.86 123.73 2.342-.522-.716.676-.104.194-.036.149.523 1.423.532.347.28.429.009.089-.019.122-.117.478-.636 1.983-.066.352-.1.378-1.56-.107-1.833-.343 1.639-5.562z">
   <title id="t2265">Blair, PA</title>
  </path>
  <path id="FIPS_42021" d="m459.68 124.62 4.314-.802-1.639 5.562-.167 1.14-.879.162-1.263.19-.193-.274-.338-.141-1.248.225.522-1.558z">
   <title id="t2266">Cambria, PA</title>
  </path>
  <path id="FIPS_42111" d="m462.19 130.52-.375 2.362.406 3.178-.028.373-.229 1.005-5.656 1.033-.208-.14-.338-1.51.077-.631.45-1.302.248-.666 1.732-3.54 1.248-.225.338.141.193.274 1.263-.19z">
   <title id="t2267">Somerset, PA</title>
  </path>
  <path id="FIPS_42009" d="m462.36 129.38 1.833.343 1.56.107.1-.378.066-.352 1.501 1.47-.126.595-.31 1.889-.33 2.154-.27.861-.271.604-4.146.765.229-1.005.028-.373-.406-3.178.375-2.362z">
   <title id="t2268">Bedford, PA</title>
  </path>
  <path id="FIPS_42057" d="m467.42 130.57.631.307 1.533.116.69.401-.099.109-.055.094-.234.641-.041.73-.212 1.244-.121.455-.437 1.073-.235.419-2.361.446-.366.068.271-.604.27-.861.33-2.154.31-1.889z">
   <title id="t2269">Fulton, PA</title>
  </path>
  <path id="FIPS_42061" d="m466.2 123.21 1.754.293 2.174-.721.241-.253-.067.298-.545 1.198-.284.542-.122.32-.068.234-.293 1.884.51.437.104.068.252-.037.639-.188.073-.15.752 1.379-1.049 2.88-.69-.401-1.533-.116-.631-.307-1.501-1.47.636-1.983.117-.478.019-.122-.009-.089-.28-.429-.532-.347-.523-1.423.036-.149.104-.194z">
   <title id="t2270">Huntingdon, PA</title>
  </path>
  <path id="FIPS_42055" d="m471.32 128.52.236-.391.783 1.046-.104.161.262.415 1.465 1.672.383.73.685 2.839-.094.019-6.099 1.154.235-.419.437-1.073.121-.455.212-1.244.041-.73.234-.641.055-.094.099-.109z">
   <title id="t2271">Franklin, PA</title>
  </path>
  <path id="FIPS_42087" d="m473.1 120.44.167.496.941 1.321-.536.365-.306.23-.587.505-.319.312-.896 1.486-.997 1.983-.073.15-.639.188-.252.037-.104-.068-.51-.437.293-1.884.068-.234.122-.32.284-.542.545-1.198.067-.298z">
   <title id="t2272">Mifflin, PA</title>
  </path>
  <path id="FIPS_42105" d="m467.88 106.22 1.235 5.805.175.811-3.683.761-2.37-1.442-.951-4.862 4.282-.808z">
   <title id="t2273">Potter, PA</title>
  </path>
  <path id="FIPS_42035" d="m469.29 112.84.1.473.667.643 1.149 1.024 3.223 2.263.188-.041.069.32-1.727 1.081-1.532.64-.888-.941-.148-.292-.357-.19-3.295-.934-.81.902-.677-.707.355-3.48z">
   <title id="t2274">Clinton, PA</title>
  </path>
  <path id="FIPS_42027" d="m465.93 117.78.81-.902 3.295.934.357.19.148.292.888.941 1.532-.64 1.727-1.081-.443.771-.486 1.163-.658.986-2.732 2.092-.241.253-2.174.721-1.754-.293-2.342.522-.168-.207-.013-.042 1.086-2.257.108-.121.46-.405.54-.222.051-.058.116-.802-.013-.308z">
   <title id="t2275">Centre, PA</title>
  </path>
  <path id="FIPS_42119" d="m474.62 117.2 1.525-.554.012-.815.627.003.239.554.35 1.412-.012.162.113.229.316.42.323.24.253.067-.32-.018-1.036.211-1.247.532-2.108 1.06-.386.233-.167-.496.658-.986.486-1.163.443-.771z">
   <title id="t2276">Union, PA</title>
  </path>
  <path id="FIPS_42093" d="m478.25 115.09.915.032.442.959.496.194.748 1.091.081.166.018.838-.992-.707-.207-.117h-.289l-.656.316-.538.216-.022-.027.094-1.343z">
   <title id="t2277">Montour, PA</title>
  </path>
  <path id="FIPS_42117" d="m474.26 104.92 1.542 5.053-.044.107-.647.633-2.167.512-3.831.803-1.235-5.805 6.021-1.223z">
   <title id="t2278">Tioga, PA</title>
  </path>
  <path id="FIPS_42081" d="m475.81 109.97.59-.038 1.068 2.213 1.763.993.446.058.995.023-1.505 1.907-.915-.032-1.465.738-.627-.003-.012.815-1.525.554-.188.041-3.223-2.263-1.149-1.024-.667-.643-.1-.473-.175-.811 3.831-.803 2.167-.512.647-.633z">
   <title id="t2279">Lycoming, PA</title>
  </path>
  <path id="FIPS_42131" d="m482.79 107.78.031.107 2.308-.5 1.388-.275-.068.098-.253.871-.121.703.338.162-.374 1.121-.139.105-1.389.793-2.556.635.15-2.216z">
   <title id="t2280">Wyoming, PA</title>
  </path>
  <path id="FIPS_42113" d="m476.4 109.93 5.706-.548-.15 2.216-.081.929-1.203.69-.995-.023-.446-.058-1.763-.993z">
   <title id="t2281">Sullivan, PA</title>
  </path>
  <path id="FIPS_42037" d="m481.87 112.53.141 1.036.063.299.585.847 1.146 2.177-.302.511-.249.48.005 1.087-.622.477-1.69-1.069-.018-.838-.081-.166-.748-1.091-.496-.194-.442-.959 1.505-1.907z">
   <title id="t2282">Columbia, PA</title>
  </path>
  <path id="FIPS_42097" d="m476.78 115.83 1.465-.738.09 1.618-.094 1.343.022.027.538-.216.656-.316h.289l.207.117.992.707 1.69 1.069-2.749 2.132-.405.126-1.114.739-.447.176-.045.018-.112-.028-.157-.17.068-.154.076-.09.359-.64.073-.166.045-.172.018-.225-.081-.343.104-1.135.094-.595-.253-.067-.323-.24-.316-.42-.113-.229.012-.162-.35-1.412z">
   <title id="t2283">Northumberland, PA</title>
  </path>
  <path id="FIPS_42109" d="m478.37 118.92-.094.595-.104 1.135.081.343-.018.225-.045.172-.073.166-.359.64-.076.09-.032-.095-.055-.045-.991-.175-.676-.027-.375.226-1.339.089-.941-1.321.386-.233 2.108-1.06 1.247-.532 1.036-.211z">
   <title id="t2284">Snyder, PA</title>
  </path>
  <path id="FIPS_42067" d="m477.68 122.28-.068.154-1.939 1.257-1.032.793-1.37 1.262-.726.735-.825 1.321-.161.32-.236.391-.752-1.379.997-1.983.896-1.486.319-.312.587-.505.306-.23.536-.365 1.339-.089.375-.226.676.027.991.175.055.045z">
   <title id="t2285">Juniata, PA</title>
  </path>
  <path id="FIPS_42099" d="m478.73 126.18-.544.365-.428.162-3.525 1.324-1.776 1.303-.113-.161-.783-1.046.161-.32.825-1.321.726-.735 1.37-1.262 1.032-.793 1.939-1.257-.078.585-.072 2.601.009.045.13.244.145.076z">
   <title id="t2286">Perry, PA</title>
  </path>
  <path id="FIPS_42041" d="m478.73 126.18.795 1.198-.429.599-1.186.992-.658.947-.243.369-.348.317-.675.279-1.104.509-.532.761-.383-.73-1.465-1.672-.262-.415.104-.161.113.161 1.776-1.303 3.525-1.324.428-.162z">
   <title id="t2287">Cumberland, PA</title>
  </path>
  <path id="FIPS_42001" d="m477.25 129.91.113.009.366.107.801.365.708.899.045.18.072.617-.158.581v.053l.275 1.375-2.097.424-2.342.464-.685-2.839.532-.761 1.104-.509.675-.279.348-.317z">
   <title id="t2288">Adams, PA</title>
  </path>
  <path id="FIPS_42133" d="m479.52 127.38 1.586 1.082.91.618.632.026.265-.036.225.054 1.871 1.61 1.735 1.694.054.082v.063l-3.178.666-2.099.437-2.052.428-.275-1.375v-.053l.158-.581-.072-.617-.045-.18-.708-.899-.801-.365-.366-.107-.113-.009.658-.947 1.186-.992z">
   <title id="t2289">York, PA</title>
  </path>
  <path id="FIPS_42043" d="m479.89 121.58 1.856.979-1.149 1.305 1.771 3.336.032-.022-1.293 1.284-1.586-1.082-.795-1.198-.982-.19-.145-.076-.13-.244-.009-.045.072-2.601.078-.585.157.17.112.028.045-.018.447-.176 1.114-.739z">
   <title id="t2290">Dauphin, PA</title>
  </path>
  <path id="FIPS_42075" d="m481.75 122.55 1.064.567 3.24 1.708-1.329 1.086-1.19.478-1.131.78-.032.022-1.771-3.336z">
   <title id="t2291">Lebanon, PA</title>
  </path>
  <path id="FIPS_42071" d="m486.05 124.83 3.143 1.704-.591.509-.063 2.073.036.329.049.226.126.346-.098.699-.154.568-.127.338-.567.73-.942.204-.063.013v-.063l-.054-.082-1.735-1.694-1.871-1.61-.225-.054-.265.036-.632-.026-.91-.618 1.293-1.284 1.131-.78 1.19-.478z">
   <title id="t2292">Lancaster, PA</title>
  </path>
  <path id="FIPS_42011" d="m491.63 121.88-1.027 2.955-1.406 1.696-3.143-1.704-3.24-1.708 1.231-.519.459-.117.194-.099 1.547-1.063.427-.527.014-.406.865-.681z">
   <title id="t2293">Berks, PA</title>
  </path>
  <path id="FIPS_42107" d="m483.81 116.89 2.096.041 2.757 1.765-1.113 1.015-.865.681-.014.406-.427.527-1.547 1.063-.194.099-.459.117-1.231.519-1.064-.567-1.856-.979 2.749-2.132.622-.477-.005-1.087.249-.48z">
   <title id="t2294">Schuylkill, PA</title>
  </path>
  <path id="FIPS_42025" d="m485.9 116.93 2.248-1.749-.122-.253-.378-.307-.045-.271.004-.112.028-.058.519-.618.039-.031.23-.082.198.113.307.108 1.51 1.289-.569.695 1.259 1.451-1.204.625-1.267.965z">
   <title id="t2295">Carbon, PA</title>
  </path>
  <path id="FIPS_42079" d="m481.95 111.6 2.556-.635 1.389-.793.139-.105.076.227.235.256.569.211.571.119.731.96.229.891.08.131.132.069.311.032-.347.598-.198-.113-.23.082-.039.031-.519.618-.028.058-.004.112.045.271.378.307.122.253-2.248 1.749-2.096-.041-1.146-2.177-.585-.847-.063-.299-.141-1.036z">
   <title id="t2296">Luzerne, PA</title>
  </path>
  <path id="FIPS_42069" d="m486.52 107.11 2.425-.523 1.266 4.808-.157.189-.379.28-.699 1.097-.311-.032-.132-.069-.08-.131-.229-.891-.731-.96-.571-.119-.569-.211-.235-.256-.076-.227.374-1.121-.338-.162.121-.703.253-.871z">
   <title id="t2297">Lackawanna, PA</title>
  </path>
  <path id="FIPS_42015" d="m477.72 104.23 3.844-.789 1.226 4.342-.685 1.604-5.706.548-.59.038-1.542-5.053z">
   <title id="t2298">Bradford, PA</title>
  </path>
  <path id="FIPS_42115" d="m481.94 103.36 5.806-1.258 1.19 4.49-2.425.523-1.388.275-2.308.5-.031-.107-1.226-4.342z">
   <title id="t2299">Susquehanna, PA</title>
  </path>
  <path id="FIPS_42127" d="m487.75 102.1 1.153-.256.181.041.568.4.171.162.302.645 1.181.194 1.532 2.749-.704 2.127-.891 2.102-.208 1.211-1.365.392.379-.28.157-.189-1.266-4.808z">
   <title id="t2300">Wayne, PA</title>
  </path>
  <path id="FIPS_42103" d="m492.84 106.03.258.591.414.405.293.279 1.027.533.167.077.758-.041.423-.047.767.75-.569.41-.27.293-.23.473-.049.144-.117.5-.018.176.04.041.018.212-.058.388-.266.627-.384.54-.131.184-.324.203-1.402-.586-.009-1.364-2.141.652.208-1.211.891-2.102z">
   <title id="t2301">Pike, PA</title>
  </path>
  <path id="FIPS_42089" d="m491.04 111.47 2.141-.652.009 1.364 1.402.586.324-.203.131-.184.054.067-1.05 1.961-2.915 2.691-1.259-1.451.569-.695-1.51-1.289-.307-.108.347-.598.699-1.097z">
   <title id="t2302">Monroe, PA</title>
  </path>
  <path id="FIPS_42095" d="m494.05 114.41.915 1.078.032.076-.005.076-.324.993-.197.273-.146.02-.144-.014-.076.021-.164.385.1.778.238.92.064.117-1.1 1.2-.734-.587-1-.613-1.28-.792-.127-.16-.171-.455 1.204-.625z">
   <title id="t2303">Northampton, PA</title>
  </path>
  <path id="FIPS_42077" d="m489.93 117.73.171.455.127.16 1.28.792 1 .613.734.587-1.099 1.815-.514-.269-4.079-2.173 1.113-1.015z">
   <title id="t2304">Lehigh, PA</title>
  </path>
  <path id="FIPS_42045" d="m494.31 126.36 1.05.96.941 1.262-1.783 1.248-1.835-.066z">
   <title id="t2305">Delaware, PA</title>
  </path>
  <path id="FIPS_42091" d="m492.14 122.15 5.268 2.57-.996 1.095-.549-.365-.554.852.513.396-.46.622-1.05-.96-1.077-.248-.952-.753-.102-.135-.032-.041-1-.409-.55.062 1.027-2.955z">
   <title id="t2306">Montgomery, PA</title>
  </path>
  <path id="FIPS_42029" d="m490.6 124.84.55-.062 1 .409.032.041.102.135.952.753 1.077.248-1.627 3.404-1.536 1.87-3.345.716.567-.73.127-.338.154-.568.098-.699-.126-.346-.049-.226-.036-.329.063-2.073.591-.509z">
   <title id="t2307">Chester, PA</title>
  </path>
 </g>
</svg>