<svg id="svg9559" width="555.22" height="351.67" xmlns="http://www.w3.org/2000/svg" viewBox="521.9009399414062 92.94999694824219 7.97711181640625 9.626998901367188">
 <g id="stylegroup" fill="#d0d0d0" stroke="#000" stroke-width=".1">
  <path id="FIPS_44003" d="m526.94 96.304-.257.991-.533.825-2.812.816-.143-.541-.28-1.064 3.051-.901.027-.014.072-.122-.027-.13.027-.131.028-.027.288-.167.126.023.117.086.185.212z">
   <title id="t2308">Kent, RI</title>
  </path>
  <path id="FIPS_44007" d="m524.65 92.95 1.182.122 1.284 2.465-.306.623-.185-.212-.117-.086-.126-.023-.288.167-.028.027-.027.131.027.13-.072.122-.027.014-3.051.901-1.015-3.538z">
   <title id="t2309">Providence, RI</title>
  </path>
  <path id="FIPS_44001" d="m526.94 96.304-.131-.144.306-.623 1.078.6.392.365-.392.591-.144.238-.015.05-.707-.217z">
   <title id="t2310">Bristol, RI</title>
  </path>
  <path id="FIPS_44005" d="m528.59 96.502 1.288 2.042-.342.441-1.271.617-.369.095-.14-.09-.005-.058.284-2.155.004-.013.015-.05.144-.238z">
   <title id="t2311">Newport, RI</title>
  </path>
  <path id="FIPS_44009" d="m523.34 98.936 2.812-.816.533-.825.257.794.139.946.061.406.011.161.009.244-.017.131-.083.518-.138.523-3.078 1.559-.262-.022z">
   <title id="t2312">Washington, RI</title>
  </path>
 </g>
</svg>