<svg id="svg9559" width="555.22" height="351.67" xmlns="http://www.w3.org/2000/svg" viewBox="426.3719787597656 199.8590087890625 52.113006591796875 39.56797790527344">
 <g id="stylegroup" fill="#d0d0d0" stroke="#000" stroke-width=".1">
  <path id="FIPS_45077" d="m431.88 203.55 1.983-.23.467.577.746 1.636.113.302.086.437-.051.063-3.33 3.043-1.037-2.813-.695-1.721.182-.663.18-.284z">
   <title id="t2313">Pickens, SC</title>
  </path>
  <path id="FIPS_45073" d="m430.52 203.9-.18.284-.182.663.695 1.721 1.037 2.813-1.334 2.069-.654-.091-.646-.45-2.676-1.645-.208-.347.172-.974.693-1.258.956-.743.226-1.027 1.001-.484z">
   <title id="t2314">Oconee, SC</title>
  </path>
  <path id="FIPS_45013" d="m456.86 230.77 4.191 2.156.622.905.055.108.031.153-.023.194-.122.662-.103.113-2.664 2.777-.617.5-.636.482-.27-.216-1.294-1.037-.17-.274-.091-.293.013-.069.135-.567.572-.497.564-.603.298-.392.076-.357-.004-.828-.406-1.528-.054-.123-.189-.278-.288-.361z">
   <title id="t2315">Beaufort, SC</title>
  </path>
  <path id="FIPS_45049" d="m456.86 230.77-.374.627-.271.559-.194-.045-.321-.117-.089-.243.036-.185-.036-.186-.392-.365-.446-.289-.221.199-2.366 2.835-1.127-.451-.465-1.884.204-.098.464-.312.45-.761.086-.614.031-.476.185-.515.144-.198.121-.113 1.191-1.049z">
   <title id="t2316">Hampton, SC</title>
  </path>
  <path id="FIPS_45053" d="m456.48 231.4.288.361.189.278.054.123.406 1.528.004.828-.076.357-.298.392-.564.603-.572.497-.135.567-.013.069.091.293.17.274 1.294 1.037.27.216.005.604-2.005-.378-.609-.235-.05-.049-.14-.559-.102-.515-.056-.252-.14-.685-1.144-2.321-.96-.793-.207-.077 2.366-2.835.221-.199.446.289.392.365.036.186-.036.185.089.243.321.117.194.045z">
   <title id="t2317">Jasper, SC</title>
  </path>
  <path id="FIPS_45067" d="m467.09 209.01.121-.285.585-.612.556-.249.324-.063 2.185-.216.551.347-.766 2.448-.303.536-.446.626-.036.081.045.389.041.143 1.083 1.627.576.776.41.482-1.501-.707-.127-.231-1.986-1.487-.109-.108-.172-.325-1.139-2.438-.045-.095v-.049z">
   <title id="t2318">Marion, SC</title>
  </path>
  <path id="FIPS_45033" d="m467.23 203.84 4.674 3.406-.491.686-.551-.347-2.185.216-.324.063-.556.249-.585.612-.121.285-1.051-.712z">
   <title id="t2319">Dillon, SC</title>
  </path>
  <path id="FIPS_45051" d="m471.41 207.94.491-.686 5.219 3.728 1.365.974-.441.171-.852.51-.401.301-.54.519-.051.054-.211.229-.099.114-.157.207-.217.284-.064.086-.639.982-.379.726-.135.26-2.285-1.351-.41-.482-.576-.776-1.083-1.627-.041-.143-.045-.389.036-.081.446-.626.303-.536z">
   <title id="t2320">Horry, SC</title>
  </path>
  <path id="FIPS_45019" d="m470.42 221.8 1.878 1.027-.495 1.447-.459.116-.838.181-1.137 1.19-.774 1.127-1.592 1.793-1.829 2.011-.113.045-.09.05-.352.193-.82.595-.419.41-.005-.005-.085-.071-.663.288-.117.149.122.108.014.031-.014.095-.081.023-.202-.051-.457-.634-.635-1.415-.397-.695.235-1.131-.032-.617 1.266-.049 1.401.129.105-.012.41-.951.1-.573-.952-1.078 1.281.637 1.095.454.36.978.157.072.105-.035.085-.078 1.136-1.883.28-.924.622-1.343 1.537-1.41z">
   <title id="t2321">Charleston, SC</title>
  </path>
  <path id="FIPS_45035" d="m460.64 222.9.18.12.681.759-.108.275-.1.117.348.239 1.757 1.121.952 1.078-.1.573-.41.951-.105.012-1.401-.129-1.266.049-.23-2.262-.05-.127-.125-.094h-.027l-1.303.102-.722.164-.337-.051-.049-.027-1.966-1.149 2.726-2.46.054.045.055.076.025.105.007.138.03.095.127.194.118.063.549.131z">
   <title id="t2322">Dorchester, SC</title>
  </path>
  <path id="FIPS_45015" d="m462.88 219.38.194-.158.08-.023.862-.112.302.027.78.455.36.275.157.229.078.064 1.117.604.973.319 2.642.745-.369.194-1.537 1.41-.622 1.343-.28.924-1.136 1.883-.085.078-.105.035-.157-.072-.36-.978-1.095-.454-1.281-.637-1.757-1.121-.348-.239.1-.117.108-.275-.681-.759-.18-.12 1.082-2.629z">
   <title id="t2323">Berkeley, SC</title>
  </path>
  <path id="FIPS_45043" d="m470.52 214.34 1.501.707 2.285 1.351-.667 1.281-.031.081-.073.189-.021.055-.006.021-.005.01-.215.762-.028.126-.036.18-.009.041-.036.68-.01.357-.012.589-.005.019.005.004.027.162.004.041.158.384-.09.45-.063.112-.443.618-.442.275-1.878-1.027-2.642-.745-.072-.18.005-.239.676-1.505 1.218-2.222.129-1.225.14-.357.42-.883.062-.055z">
   <title id="t2324">Georgetown, SC</title>
  </path>
  <path id="FIPS_45027" d="m463.24 213.41 1.172.608-1.532 5.364-1.158.891-1.046.343-.302.059-.139-.014-.331-.107-.431-.285-.338-.324-.551-.658-.581-1.023 1.181-1.826 1.974-1.261z">
   <title id="t2325">Clarendon, SC</title>
  </path>
  <path id="FIPS_45089" d="m470.39 214.1.127.231-.154.057-.062.055-.42.883-.14.357-.129 1.225-1.218 2.222-.676 1.505-.005.239.072.18-.973-.319-1.117-.604-.078-.064-.157-.229-.36-.275-.78-.455-.302-.027-.862.112-.08.023-.194.158 1.532-5.364.924.492.82.139 2.493.054.55-.193.085-.145.506-.388.076-.031.211.013z">
   <title id="t2326">Williamsburg, SC</title>
  </path>
  <path id="FIPS_45041" d="m465.77 208.26.271.046 1.051.712-.153.59v.049l.045.095 1.139 2.438.172.325.109.108 1.986 1.487-.311-.149-.211-.013-.076.031-.506.388-.085.145-.55.193-2.493-.054-.82-.139-.924-.492-1.172-.608-.491-1.249-.838-.36 2.141-2.299.991-.987z">
   <title id="t2327">Florence, SC</title>
  </path>
  <path id="FIPS_45069" d="m461.86 202.33 2.493-.406 2.736 1.821.143.099-1.19 4.458-.271-.046v-.05l-.315-.797-.166-.316-.397-.158-.064.004-.03.015-.036-.019-1.258-.963-.021-.033-.029-.207.023-.063z">
   <title id="t2328">Marlboro, SC</title>
  </path>
  <path id="FIPS_45031" d="m463.48 205.67-.023.063.029.207.021.033 1.258.963.036.019.03-.015.064-.004.397.158.166.316.315.797v.05l-.725.257-.991.987-2.141 2.299-.041.009-.865-.614-.158-.207.293-.387.054-.555-.428-.694-.441-.441-.357-.108-.914-.176v-.027l2.262-2.042z">
   <title id="t2329">Darlington, SC</title>
  </path>
  <path id="FIPS_45061" d="m459.05 208.62.914.176.357.108.441.441.428.694-.054.555-.293.387.158.207.865.614.041-.009.838.36-.189.55-1.333.901-.155.096-3.42-1.51-.18-.74.135-.153.253-.681-.045-.388-.041-.167.298-.409z">
   <title id="t2330">Lee, SC</title>
  </path>
  <path id="FIPS_45055" d="m457.27 205.62 1.781 2.975v.027l-.982 1.032-.298.409.041.167.045.388-.253.681-.135.153-1.285 1.117-1.019.569-1.811-1.199.284-1.177-.947-2.334 1.249-1.28.058-.005.031.415.334.108.712.013 1.192-.437-.363-.681z">
   <title id="t2331">Kershaw, SC</title>
  </path>
  <path id="FIPS_45085" d="m457.47 211.46.18.74 3.42 1.51.155-.096 1.333-.901.189-.55.491 1.249-2.082 1.767-1.974 1.261-1.181 1.826-1.113-1.122-.703-4.567z">
   <title id="t2332">Sumter, SC</title>
  </path>
  <path id="FIPS_45017" d="m452.48 216.05.553.337 1.637.695.843.034 1.379.02 1.113 1.122.581 1.023-.117.284-1.09 1.028-.33.089-3.555-1.451-.982-.92.855-.536.289-.293-.149-.099-.293-.126-.549.059-.163.252-.265-.107-.022-1.092.017-.157z">
   <title id="t2333">Calhoun, SC</title>
  </path>
  <path id="FIPS_45029" d="m456.26 224.62 1.966 1.149.049.027.337.051.722-.164 1.303-.102h.027l.125.094.05.127.23 2.262.032.617-.235 1.131.397.695.635 1.415.457.634.202.051.081-.023.014-.095-.014-.031-.122-.108.117-.149.663-.288.085.071.005.005-.78.808h-.063l-.884-.009-.608.14-4.191-2.156-3.39-3.681 2.718-2.408z">
   <title id="t2334">Colleton, SC</title>
  </path>
  <path id="FIPS_45005" d="m453.47 227.09-1.191 1.049-.121.113-.144.198-.185.515-.031.476-.086.614-.45.761-.464.312-.204.098-2.05-3.619-.884-.486.663-.955.992.152.991.198.861-.139.943-.279z">
   <title id="t2335">Allendale, SC</title>
  </path>
  <path id="FIPS_45009" d="m456.19 224.68-2.718 2.408-1.36-.992-.379-.428-.05-.186-.316-2.636-.089-.456-.127-.356 1.266.56 1.163.396.338.117 1.082.564z">
   <title id="t2336">Bamberg, SC</title>
  </path>
  <path id="FIPS_45075" d="m452.51 218.31.982.92 3.555 1.451.33-.089 1.09-1.028.117-.284.551.658.338.324.431.285.331.107.139.014.302-.059 1.046-.343-1.082 2.629-.69.108-.549-.131-.118-.063-.127-.194-.03-.095-.007-.138-.025-.105-.055-.076-.054-.045-2.726 2.46-.072.063-1.19-1.009-1.082-.564-.338-.117-1.163-.396-1.266-.56-1.691-.4 1.642-2.385z">
   <title id="t2337">Orangeburg, SC</title>
  </path>
  <path id="FIPS_45011" d="m451.15 222.04.127.356.089.456.316 2.636.05.186.379.428-.943.279-.861.139-.991-.198-.992-.152-.663.955-1.799-.843 3.597-4.642z">
   <title id="t2338">Barnwell, SC</title>
  </path>
  <path id="FIPS_45003" d="m446.6 217.01.045.067.442.446 1.447 1.091.247.031.379-.008.24.032.662.183 1.037.402-1.642 2.385-3.597 4.642-1.003-.758-.7-.991-.253-.977-.715-.834-.505-.478-.091-.086 3.282-4.214z">
   <title id="t2339">Aiken, SC</title>
  </path>
  <path id="FIPS_45063" d="m448.41 212.53 1.249 1.055h.311l.391.041.393.229.964.695.176.185.397.608.036.072.149.641-.248.162-.017.157.022 1.092.265.107.163-.252.549-.059.293.126.149.099-.289.293-.855.536-1.411.938-1.037-.402-.662-.183-.24-.032-.379.008-.247-.031-1.447-1.091-.442-.446-.045-.067.655-2.713z">
   <title id="t2340">Lexington, SC</title>
  </path>
  <path id="FIPS_45079" d="m453.64 210.76-.284 1.177 1.811 1.199 1.019-.569.703 4.567-1.379-.02-.843-.034-1.637-.695-.553-.337-.149-.641-.036-.072-.397-.608-.176-.185-.964-.695-.393-.229-.391-.041h-.311l-1.249-1.055.144-.571.356.026 1.704-.04 1.63-.735z">
   <title id="t2341">Richland, SC</title>
  </path>
  <path id="FIPS_45039" d="m452.54 207.34.158 1.095.947 2.334-1.395.442-1.63.735-1.704.04-.356-.026-1.617-3.097-.15-.996 1.821-.181 2.425-.193z">
   <title id="t2342">Fairfield, SC</title>
  </path>
  <path id="FIPS_45071" d="m446.94 208.86 1.617 3.097-.144.571-1.157 1.768-.316.081-.464-.108-.307-.113-.69-.392-.807-.338-.274-.076-1.186.301-.293.329.04.194-.914-.753.27-.631.842-1.424.281-.279.648-1.254.479-1.122 1.373.793.37-.49.159-.078.311-.086.14-.003z">
   <title id="t2343">Newberry, SC</title>
  </path>
  <path id="FIPS_45081" d="m442.96 214.17-.04-.194.293-.329 1.186-.301.274.076.807.338.69.392.307.113.464.108.316-.081-.655 2.713-.725.933-2.047-.37-.265-.158-.139-.121-.416-1.028-.397.041-.771.311z">
   <title id="t2344">Saluda, SC</title>
  </path>
  <path id="FIPS_45037" d="m441.84 216.62.771-.311.397-.041.416 1.028.139.121.265.158 2.047.37-3.282 4.214-.175-.163-1.042-.441-.929-1.619-.098-2.672 1.099-.473z">
   <title id="t2345">Edgefield, SC</title>
  </path>
  <path id="FIPS_45065" d="m441.45 216.79-1.099.473.098 2.672.929 1.619-1.234-1.077-.428-.807-.663-.545-.279-.199-.92-.464-.049-.004-.15.058-.067-.018-1.595-.95-.442-.672.591-.87.445-.14.393.171.117-.008.681-.068.518-.163.519 1.037.82-.207.657-.109 1.118-.122z">
   <title id="t2346">McCormick, SC</title>
  </path>
  <path id="FIPS_45047" d="m438.5 211.24.19.198.907.662 1.55.807.901.514.914.753-1.118 2.443-.392.171-.04-.393-1.118.122-.657.109-.82.207-.519-1.037.342-.383.202-.275.136-.365.045-.379-.049-.365-.136-.35-.225-.298-.154-.145-.206-.148-.149-.059-.402-.798z">
   <title id="t2347">Greenwood, SC</title>
  </path>
  <path id="FIPS_45059" d="m442.25 208.26 2.318.451-.479 1.122-.648 1.254-.281.279-.842 1.424-.27.631-.901-.514-1.55-.807-.907-.662-.19-.198-.846-.852.716-.784-.117-.654.32-1.496.261-1.19z">
   <title id="t2348">Laurens, SC</title>
  </path>
  <path id="FIPS_45001" d="m437.65 210.39.846.852-.798.991.402.798.149.059.206.148.154.145.225.298.136.35.049.365-.045.379-.136.365-.202.275-.342.383-.518.163-.681.068-.117.008-.393-.171-.445.14-.591.87-1.875-2.312z">
   <title id="t2349">Abbeville, SC</title>
  </path>
  <path id="FIPS_45007" d="m431.89 209.38 3.33-3.043.487 1.92.036.113.181.415.464.77 1.258.83-3.976 4.174-.397-1.033-1.117-1.572-.351-.542.004-.035-.108-.082-.221-.063-.378.05-.42.104-.009.004-.117.059z">
   <title id="t2350">Anderson, SC</title>
  </path>
  <path id="FIPS_45087" d="m443.11 203.96.721.095 1.411.063.203.059.126.068.33.251-.185.262 1.072 3.11.15.996-.022-.013-.14.003-.311.086-.159.078-.37.49-1.373-.793-2.318-.451.157-1.402.109-1.82.334-.636z">
   <title id="t2351">Union, SC</title>
  </path>
  <path id="FIPS_45025" d="m457.76 202.92 4.093-.593 1.618 3.339-2.159.888-2.262 2.042-1.781-2.975-2.018-2.329z">
   <title id="t2352">Chesterfield, SC</title>
  </path>
  <path id="FIPS_45057" d="m451.14 200.55.838.856.739.744.072 1.316.005.122.212.04 2.25-.332 2.018 2.329-1.366.941.363.681-1.192.437-.712-.013-.334-.108-.031-.415-.058.005-1.249 1.28-.158-1.095-.387-1.146.013-.441.149-.532-.226-.649-.225-.577-.113-.176z">
   <title id="t2353">Lancaster, SC</title>
  </path>
  <path id="FIPS_45023" d="m451.75 203.82.113.176.225.577.226.649-.149.532-.013.441.387 1.146-1.501.153-2.425.193-1.821.181-1.072-3.11z">
   <title id="t2354">Chester, SC</title>
  </path>
  <path id="FIPS_45091" d="m446.6 200.13 2.974-.271 1.565.69.608 3.267-6.03.938.185-.262-.195-.364-.338-.888-.166-1.136.004-.072.686-1.442.301-.42z">
   <title id="t2355">York, SC</title>
  </path>
  <path id="FIPS_45021" d="m442.01 200.61 4.186-.442-.301.42-.686 1.442-.004.072.166 1.136.338.888.195.364-.33-.251-.126-.068-.203-.059-1.411-.063-.721-.095-.531-.284-.563-1.166-1.118-1.781z">
   <title id="t2356">Cherokee, SC</title>
  </path>
  <path id="FIPS_45083" d="m439.91 200.83.988-.108 1.118 1.781.563 1.166.531.284-.265.446-.334.636-.109 1.82-.157 1.402-3.416-1.996-.924-.735-.04-.103-.235-2.019-.298-2.308z">
   <title id="t2357">Spartanburg, SC</title>
  </path>
  <path id="FIPS_45045" d="m435.88 201.16 1.458-.067.298 2.308.235 2.019.04.103.924.735-.261 1.19-.32 1.496.117.654-.716.784-1.258-.83-.464-.77-.181-.415-.036-.113-.487-1.92.051-.063-.086-.437-.113-.302-.746-1.636-.467-.577-1.983.23 1.848-1.262z">
   <title id="t2358">Greenville, SC</title>
  </path>
 </g>
</svg>