<svg id="svg9559" width="555.22" height="351.67" xmlns="http://www.w3.org/2000/svg" viewBox="217.8410186767578 69.05400085449219 71.55296325683594 47.725006103515625">
 <g id="stylegroup" fill="#d0d0d0" stroke="#000" stroke-width=".1">
  <path id="FIPS_46105" d="m231.04 69.838 8.456.586-.379 6.071-.352 5.588-8.721-.608.162-2.231.167-2.231.392-4.453.068.004z">
   <title id="t2359">Perkins, SD</title>
  </path>
  <path id="FIPS_46063" d="m221.13 69.054 9.424.748.482.036-.207 2.726-.068-.004-.392 4.453-.167 2.231-9.825-.779.694-8.596z">
   <title id="t2360">Harding, SD</title>
  </path>
  <path id="FIPS_46033" d="m218.75 95.952 6.296.473 6.377.487-.026.189-.136.487-1.136 1.402-.942.112-.906.821-.122 1.668-9.811-.793.027-.325z">
   <title id="t2361">Custer, SD</title>
  </path>
  <path id="FIPS_46047" d="m218.35 100.8 9.811.793-.455 6.152-4.728-.365-5.137-.42z">
   <title id="t2362">Fall River, SD</title>
  </path>
  <path id="FIPS_46102" d="m236.38 99.251-.184 2.898.261.014-.072 1.122-.198 3.371.256.019-.117 1.675-6.662-.458-1.956-.149.455-6.152.122-1.668.906-.821.942-.112 5.873.41z">
   <title id="t2363">Oglala Lakota, SD</title>
  </path>
  <path id="FIPS_46007" d="m244.62 103.79-.276 5.065-3.736-.194-2.344-.18-1.942-.127.117-1.675-.256-.019.198-3.371z">
   <title id="t2364">Bennett, SD</title>
  </path>
  <path id="FIPS_46095" d="m246.47 98.021.064-.068.211-.049.397.045.568.288.491.433 2.979.802 1.668.203.189.139.086.154 1.005.085-.032 4.192-9.473-.459.275-5.003.13-.293.077-.109.694-.392.464-.077.153.059z">
   <title id="t2365">Mellette, SD</title>
  </path>
  <path id="FIPS_46121" d="m244.62 103.79 9.473.459-.076 5.076-.748-.037-.672-.031-1.83-.086-3.407-.158-3.016-.158z">
   <title id="t2366">Todd, SD</title>
  </path>
  <path id="FIPS_46123" d="m254.12 100.05.266.257 1.438.068 1.767-.013.915-.478.942-.293.085.045.239.275-.113 3.142.839.035-.244 6.492-6.242-.262.076-5.076z">
   <title id="t2367">Tripp, SD</title>
  </path>
  <path id="FIPS_46053" d="m262.7 103.17.365.825 3.926 3.813.852.635.982.437.122.01.514.197.274.24.113.157.117.226.023.081.004.096-7.107-.208-2.628-.094.244-6.492z">
   <title id="t2368">Gregory, SD</title>
  </path>
  <path id="FIPS_46015" d="m266.34 97.646 1.109.036-.045 5.639-4.692-.153.054-.064.076-.134.032-.118-.005-.062-.635-1.488-.041-.068.577-2.718.01-.063-.014-.04-.401-.875z">
   <title id="t2369">Brule, SD</title>
  </path>
  <path id="FIPS_46003" d="m271.86 97.764.032 1.126-.068 4.557-3.592-.098-.833-.028.045-5.639z">
   <title id="t2370">Aurora, SD</title>
  </path>
  <path id="FIPS_46035" d="m275.21 98.972-.063 4.543-1.402-.018-1.925-.05.068-4.557z">
   <title id="t2371">Davison, SD</title>
  </path>
  <path id="FIPS_46043" d="m268.23 103.35 3.592.098 1.925.05-.04 3.898-5.139-2.338-.153-.042-.244.005.014-.748z">
   <title id="t2372">Douglas, SD</title>
  </path>
  <path id="FIPS_46023" d="m262.71 103.17 4.692.153.833.028-.045.923-.014.748.244-.005.153.042 5.139 2.338.27.385-.099.215-.257 1.951-.117 1.185-.312.897-.135.019-1.324-.6-1.741-1.562-.004-.096-.023-.081-.117-.226-.113-.157-.274-.24-.514-.197-.122-.01-.982-.437-.852-.635-3.926-3.813-.365-.825z">
   <title id="t2373">Charles Mix, SD</title>
  </path>
  <path id="FIPS_46009" d="m273.98 107.78 4.146.076-.532 4.217-.824-.107-1.087.401-.198.284-.266.242-.126.078-.478.072-.157.008-.167-.027-.203-.09-1.028-.887.135-.019.312-.897.117-1.185.257-1.951z">
   <title id="t2374">Bon Homme, SD</title>
  </path>
  <path id="FIPS_46135" d="m278.12 107.86 2.24.026 2.227 1.15.144 3.885-1.091-.929-.671-.081-.893-.036-.586.077-1.902.125z">
   <title id="t2375">Yankton, SD</title>
  </path>
  <path id="FIPS_46067" d="m273.75 103.5 1.402.018 3.335.058 1.92.031-.041 4.278-2.24-.026-4.146-.076-.27-.385z">
   <title id="t2376">Hutchinson, SD</title>
  </path>
  <path id="FIPS_46061" d="m276.3 99.003 2.253.054-.063 4.516-3.335-.058.063-4.543z">
   <title id="t2377">Hanson, SD</title>
  </path>
  <path id="FIPS_46087" d="m280.77 99.098 2.231.031-.058 4.512-2.538-.037-1.92-.031.063-4.516z">
   <title id="t2378">McCook, SD</title>
  </path>
  <path id="FIPS_46125" d="m282.94 103.64 1.915.009-.05 5.4-2.217-.018-2.227-1.15.041-4.278z">
   <title id="t2379">Turner, SD</title>
  </path>
  <path id="FIPS_46027" d="m284.81 109.05 1.114.013-.045 4.926-1.975-.738-1.167-.334-.144-3.885z">
   <title id="t2380">Clay, SD</title>
  </path>
  <path id="FIPS_46127" d="m289.22 109.08-.653 2.254-.379 1.01-.378 1.73.247.189.311.289.244.392.342.901.339.934-1.821-.465-.676-1.005-.028-.117.005-.118.036-.152-.054-.216-.104-.235-.77-.487.045-4.926z">
   <title id="t2381">Union, SD</title>
  </path>
  <path id="FIPS_46083" d="m284.86 103.65 3.043.023.161 3.114.208.469.672.003.089.042.361 1.298-.027.089-.149.397-3.294-.022-1.114-.013z">
   <title id="t2382">Lincoln, SD</title>
  </path>
  <path id="FIPS_46099" d="m285.24 99.152 4.043.009-.018 4.521-1.36-.009-3.043-.023-1.915-.009.058-4.512z">
   <title id="t2383">Minnehaha, SD</title>
  </path>
  <path id="FIPS_46085" d="m260.44 94.118.089 1.203.032.099.167.248.248.248.261.063.307.04.203.082.455.419.207.221.068.18-.005.154-.049.296-.063.167.401.875.014.04-.01.063-.577 2.718.041.068.635 1.488.005.062-.032.118-.076.134-.054.064h-.005l-2.199-.077-.839-.035.113-3.142-.239-.275-.085-.045-.942.293-.915.478-1.767.013-1.438-.068-.266-.257-1.005-.085.059-1.384-.235-.306.181-4.156.018-.338 3.962.167.022.09.306.608.064.104.067.063.081.045.14.041 2.118.419.167-.067.067-.082.055-.103.009-.073-.009-.122-.019-.08-.067-.127-.455-.905.789.356">
   <title id="t2384">Lyman, SD</title>
  </path>
  <path id="FIPS_46075" d="m253.12 94.122-.181 4.156.235.306-.059 1.384-.086-.154-.189-.139-1.668-.203-2.979-.802-.491-.433-.568-.288-.397-.045-.211.049-.064.068.104-1.979.275-2.231z">
   <title id="t2385">Jones, SD</title>
  </path>
  <path id="FIPS_46071" d="m237.84 95.537 8.73.505-.104 1.979-.054-.05-.153-.059-.464.077-.694.392-.077.109-.13.293-.275 5.003-8.239-.501.072-1.122-.261-.014.184-2.898.392.194.375.005h.026l.33-.217.234-3.7z">
   <title id="t2386">Jackson, SD</title>
  </path>
  <path id="FIPS_46117" d="m250.28 86.19.752.446.028.027.131.396v.176l-.136.536-.099.258-.09.139-.036.289.041.184.063.108.103.122.118.082.13.058.604.149-.415.59-.067.095-.054.203-.014.144.009.05.086.117 1.848 1.402.036.031.198.09.856.248.33.05.378.008.14.041.59.199 1.474.608.081.041.126.112.068.176-.009.031-.441.555-3.962-.167-.018.338-6.279-.311-1.104-.054.121-2.263.356-4.466.199-.73 1.032.356.306-.086.145-.243.568-.226.761-.121z">
   <title id="t2387">Stanley, SD</title>
  </path>
  <path id="FIPS_46055" d="m238.33 88.871.045-.09.099-.077 2.537-.554.474-.04.252.013.059.099 1.514-.433 2.227-.829.644-.351.239-.311-.199.73-.356 4.466-.121 2.263 1.104.054-.275 2.231-8.73-.505.284-4.507.058.005.136-2.159z">
   <title id="t2388">Haakon, SD</title>
  </path>
  <path id="FIPS_46103" d="m219.07 92.247 5.552.46 9.821.721.333-1.212.154-.951.531-1.407.073-.117.122-.131.121-.076.478.004.59.23.384.014.671-.793.077-.036.338-.077-.136 2.159-.058-.005-.284 4.507-.108-.004-.234 3.7-.33.217h-.026l-.375-.005-.392-.194-.374.149-5.873-.41 1.136-1.402.136-.487.026-.189-6.377-.487-6.296-.473z">
   <title id="t2389">Pennington, SD</title>
  </path>
  <path id="FIPS_46081" d="m219.53 86.713 1.42-.19.771-.068 2.316.194-.342 3.547-.077.933 1.118.081-.113 1.497-5.552-.46.044-.504z">
   <title id="t2390">Lawrence, SD</title>
  </path>
  <path id="FIPS_46019" d="m230.2 79.244-.162 2.231h-.013l-.289 3.957-.167 1.641-5.53-.424-2.316-.194-.771.068-1.42.19.451-5.49.392-2.758z">
   <title id="t2391">Butte, SD</title>
  </path>
  <path id="FIPS_46093" d="m238.76 82.083-.432 6.788-.009.005-.338.077-.077.036-.671.793-.384-.014-.59-.23-.478-.004-.121.076-.122.131-.073.117-.531 1.407-.154.951-.333 1.212-9.821-.721.113-1.497-1.118-.081.077-.933.342-3.547 5.53.424.167-1.641.289-3.957h.013z">
   <title id="t2392">Meade, SD</title>
  </path>
  <path id="FIPS_46137" d="m239.11 76.495 4.795.288-.603 5.576-.032.576 3.322.181-.176 3.182-.239.311-.644.351-2.227.829-1.514.433-.059-.099-.252-.013-.474.04-2.537.554-.099.077-.045.09.432-6.788z">
   <title id="t2393">Ziebach, SD</title>
  </path>
  <path id="FIPS_46041" d="m254.13 77.306.563 1.208-.004.077-.091.257-.248.288-.045.067-.04.109.072.342.401.6.018.144-.239.978-.46 1.077-.383.563-.153-.018-.095.032-.193.212-.131.225-.013.244.04.644.023.14.158.496-.014.099-.086.131-.153.166-1.069.951-.17.068-.339-.077-.229-.081-.266-.293-.145-.248-.072-.085-.108-.104-.167-.067-.04.004-.113.072-.09.162-.036.099-.032.131.005.131.031.081.059.059-1.046-.212-.761.121-.568.226-.145.243-.306.086-1.032-.356.176-3.182-3.322-.181.032-.576.603-5.576z">
   <title id="t2394">Dewey, SD</title>
  </path>
  <path id="FIPS_46129" d="m253.4 75.697 6.45.297.086.005-.19 4.48-5.007-.225-.401-.6-.072-.342.04-.109.045-.067.248-.288.091-.257.004-.077-.563-1.208z">
   <title id="t2395">Walworth, SD</title>
  </path>
  <path id="FIPS_46107" d="m254.74 80.254 5.007.225 1.231.05-.158 4.489-.928-.041-6.675-.284-.063-.198-.023-.14-.04-.644.013-.244.131-.225.193-.212.095-.032.153.018.383-.563.46-1.077.239-.978z">
   <title id="t2396">Potter, SD</title>
  </path>
  <path id="FIPS_46119" d="m259.89 84.977-.194 4.512-7.811-.329-.604-.149-.13-.058-.118-.082-.103-.122-.063-.108-.041-.184.036-.289.09-.139.099-.258.136-.536v-.176l-.131-.396-.028-.027-.752-.446-.059-.059-.031-.081-.005-.131.032-.131.036-.099.09-.162.113-.072.04-.004.167.067.108.104.072.085.145.248.266.293.229.081.339.077.17-.068 1.069-.951.153-.166.086-.131.014-.099-.095-.298z">
   <title id="t2397">Sully, SD</title>
  </path>
  <path id="FIPS_46065" d="m259.7 89.489-.045 4.273.455.905.067.127.019.08.009.122-.009.073-.055.103-.067.082-.167.067-2.118-.419-.14-.041-.081-.045-.067-.063-.064-.104-.306-.608-.022-.09.441-.555.009-.031-.068-.176-.126-.112-.081-.041-1.474-.608-.59-.199-.14-.041-.378-.008-.33-.05-.856-.248-.198-.09-.036-.031-1.848-1.402-.086-.117-.009-.05.014-.144.054-.203.067-.095.415-.59 7.811.329">
   <title id="t2398">Hughes, SD</title>
  </path>
  <path id="FIPS_46017" d="m260.44 94.118 2.56.063 3.447.085-.112 3.38-3.975-.108.063-.167.049-.296.005-.154-.068-.18-.207-.221-.455-.419-.203-.082-.307-.04-.261-.063-.248-.248-.167-.248-.032-.099z">
   <title id="t2399">Buffalo, SD</title>
  </path>
  <path id="FIPS_46073" d="m266.45 94.266 2.087.063 3.408.09-.082 3.345-4.416-.082-1.109-.036z">
   <title id="t2400">Jerauld, SD</title>
  </path>
  <path id="FIPS_46111" d="m271.94 94.419 4.417.117h.04l-.103 4.467-1.082-.031-3.322-.082-.032-1.126z">
   <title id="t2401">Sanborn, SD</title>
  </path>
  <path id="FIPS_46097" d="m280.83 94.614-.059 4.484-2.222-.041-2.253-.054.103-4.467z">
   <title id="t2402">Miner, SD</title>
  </path>
  <path id="FIPS_46079" d="m280.83 94.614 2.221.017 2.223.028-.037 4.493-2.235-.023-2.231-.031z">
   <title id="t2403">Lake, SD</title>
  </path>
  <path id="FIPS_46101" d="m289.31 94.672-.027 4.489-4.043-.009.037-4.493z">
   <title id="t2404">Moody, SD</title>
  </path>
  <path id="FIPS_46011" d="m283.12 90.147 2.231.013 3.985.032-.028 4.48-4.033-.013-2.223-.028z">
   <title id="t2405">Brookings, SD</title>
  </path>
  <path id="FIPS_46057" d="m285.39 86.793-.041 3.367-2.231-.013-3.348-.059.063-3.358z">
   <title id="t2406">Hamlin, SD</title>
  </path>
  <path id="FIPS_46077" d="m279.77 90.088 3.348.059-.068 4.484-2.221-.017-4.431-.078h-.04l.094-4.511z">
   <title id="t2407">Kingsbury, SD</title>
  </path>
  <path id="FIPS_46005" d="m275.33 88.871 1.122 1.154-.094 4.511-4.417-.117-3.408-.09.113-5.652z">
   <title id="t2408">Beadle, SD</title>
  </path>
  <path id="FIPS_46069" d="m260.82 85.018 2.389.09-.167 4.511.113.005-.153 4.557-2.56-.063-.789-.356.045-4.273.194-4.512z">
   <title id="t2409">Hyde, SD</title>
  </path>
  <path id="FIPS_46059" d="m263.21 85.108 5.44.171v3.398l-.113 5.652-2.087-.063-3.447-.085.153-4.557-.113-.005z">
   <title id="t2410">Hand, SD</title>
  </path>
  <path id="FIPS_46045" d="m259.94 75.999 8.892.329-.108 4.476-7.743-.275-1.231-.05z">
   <title id="t2411">Edmunds, SD</title>
  </path>
  <path id="FIPS_46049" d="m268.72 80.804.045.004-.117 4.471-5.44-.171-2.389-.09.158-4.489z">
   <title id="t2412">Faulk, SD</title>
  </path>
  <path id="FIPS_46115" d="m275.46 81.015-.027 1.127-.082 3.178v.184l.05.005-.072 3.362-6.684-.194v-3.398l.117-4.471z">
   <title id="t2413">Spink, SD</title>
  </path>
  <path id="FIPS_46025" d="m279.87 82.246-.04 4.484-.063 3.358-3.318-.063-1.122-1.154.072-3.362-.05-.005v-.184l.082-3.178z">
   <title id="t2414">Clark, SD</title>
  </path>
  <path id="FIPS_46029" d="m279.87 82.246 2.443.032 3.124.054-.01 2.235-.04 2.226-5.557-.063z">
   <title id="t2415">Codington, SD</title>
  </path>
  <path id="FIPS_46039" d="m289.36 84.585-.004 2.222-.014 2.254-.008 1.131-3.985-.032.041-3.367.04-2.226z">
   <title id="t2416">Deuel, SD</title>
  </path>
  <path id="FIPS_46051" d="m289.22 80.082.149.744-.01 3.759-3.93-.018.01-2.235-3.124-.054.022-1.885 1.993.032.671-.374z">
   <title id="t2417">Grant, SD</title>
  </path>
  <path id="FIPS_46037" d="m275.57 76.526 5.489.113.072.37 1.249.027-.063 5.242-2.443-.032-4.439-.104z">
   <title id="t2418">Day, SD</title>
  </path>
  <path id="FIPS_46109" d="m288.42 72.236-.05.563v.027l-.005.014-.04.342-.032.279-.022.117-.009.064-.009.027-.009.018-.014.032-.631.937-.184.185-.347.189-.312.203-.824.662-.014.018-.018.023-.014.014-.031.072-.126.432.036.05.162.207.631.843 1.325 1.469.87.424.297.239.172.396-4.219-.031-.671.374-1.993-.032.041-3.357.049-4.859z">
   <title id="t2419">Roberts, SD</title>
  </path>
  <path id="FIPS_46091" d="m282.43 72.177-.049 4.859-1.249-.027-.072-.37-5.489-.113.103-4.471z">
   <title id="t2420">Marshall, SD</title>
  </path>
  <path id="FIPS_46013" d="m268.96 71.853 6.449.193.266.009-.103 4.471-.108 4.489-6.698-.207-.045-.004.108-4.476z">
   <title id="t2421">Brown, SD</title>
  </path>
  <path id="FIPS_46089" d="m260.02 71.519 6.413.244 2.529.09-.131 4.475-8.892-.329-.086-.005z">
   <title id="t2422">McPherson, SD</title>
  </path>
  <path id="FIPS_46021" d="m258.56 71.452 1.46.067-.167 4.475-6.45-.297.145-.509.099-.19.18-.117.388-.004.067-.018.158-.099.049-.068.068-.162.009-.234-.554-1.966-.05-.144-.969-1.005z">
   <title id="t2423">Campbell, SD</title>
  </path>
  <path id="FIPS_46031" d="m239.51 70.424.058.005.022.004.145.009 1.086.068 1.293.076 1.362.086 1.127.063.523.031.919.05 2.614.144.816.045 1.081.054.073.005.203.009 2.046.104.112.004.969 1.005.05.144.554 1.966-.009.234-.068.162-.049.068-.158.099-.067.018-.388.004-.18.117-.099.19-.145.509.731 1.609-10.223-.523-4.795-.288.379-6.071z">
   <title id="t2424">Corson, SD</title>
  </path>
 </g>
</svg>