<svg id="svg9559" width="555.22" height="351.67" xmlns="http://www.w3.org/2000/svg" viewBox="353.1940002441406 182.03199768066406 87.27001953125 30.323974609375">
 <g id="stylegroup" fill="#d0d0d0" stroke="#000" stroke-width=".1">
  <path id="FIPS_47163" d="m438.63 182.28-1.393 1.601-3.011 1.906-.473.062-.162-.048-.51-.371-.355-.072-.614.194-1.266.249-.568.089.433-2.19 3.205-.478.513-.077.992-.135 2.158-.311.072-.302z">
   <title id="t2425">Sullivan, TN</title>
  </path>
  <path id="FIPS_47091" d="m438.63 182.28 1.834-.248-.266.353-.049 2.644.039.614-.215.072h-.019l-.161.008-.27-.086-.064-.148-.054.031-.013.01-.514.352-.474.531-.076.207-.108.311-.181.069-.343-.293-.703-.732-.157-.31.798-1.348v-.04l-.397-.396z">
   <title id="t2426">Johnson, TN</title>
  </path>
  <path id="FIPS_47109" d="m373.19 205.94.216 5.003-4.249.338-.199-3.271.784-.388.117-.496.19-.343.266-.347.505-.252.193-.082.577-.09z">
   <title id="t2427">McNairy, TN</title>
  </path>
  <path id="FIPS_47023" d="m370.37 203.46 2.803 1.982.018.492-1.6.072-.577.09-.193.082-.505.252-.266.347-.19.343-.117.496-.784.388-.217-.965-.546-.758-.039-.562z">
   <title id="t2428">Chester, TN</title>
  </path>
  <path id="FIPS_47069" d="m365.68 205.86 2.474-.139.039.562.546.758.217.965.199 3.271-.383.032-2.034.158-1.892.139-.225-5.223z">
   <title id="t2429">Hardeman, TN</title>
  </path>
  <path id="FIPS_47047" d="m361.6 206.52 3.029-.134.225 5.223-1.618.114-3.056.198-.063-1.736-.104-1.685-.045-1.515z">
   <title id="t2430">Fayette, TN</title>
  </path>
  <path id="FIPS_47075" d="m362.45 201.07.004.045.149.19.113.117.259.188.444.208.217.005 1.113.348.789.301.149 3.394-1.059.523-3.029.134-.455-2.279.081-.037.243-.176.311-1.906-.004-.095h-.131l-.009-.176.058-.225.28-.595z">
   <title id="t2431">Haywood, TN</title>
  </path>
  <path id="FIPS_47113" d="m370.24 200.85.131 2.61-2.213 2.259-2.474.139-.149-3.394 1.493-1.469 2.17-.086z">
   <title id="t2432">Madison, TN</title>
  </path>
  <path id="FIPS_47033" d="m364.01 198.58.578.37.107.697.104.258.2.397 1.346.31.682.384-1.493 1.469-.789-.301-1.113-.348-.217-.005-.444-.208-.259-.188-.113-.117-.149-.19-.004-.045.081-.834z">
   <title id="t2433">Crockett, TN</title>
  </path>
  <path id="FIPS_47053" d="m364.18 195.9 1.992-.383.302.346.77.681.077.037.081-.019.924.271.757.55.121 3.529-2.17.086-.682-.384-1.346-.31-.2-.397-.104-.258-.107-.697-.578-.37z">
   <title id="t2434">Gibson, TN</title>
  </path>
  <path id="FIPS_47017" d="m370.66 196.12 3.31.127.647 3.523.019.379-4.051.221-.154.145-.135.175-.059.167-1.042.059-.121-3.529z">
   <title id="t2435">Carroll, TN</title>
  </path>
  <path id="FIPS_47183" d="m367.37 191.78 3.079-.222.215 4.557-1.586 1.267-.757-.55-.924-.271-.081.019-.077-.037-.77-.681-.302-.346-.082-2.42.033-.041.193.009.148.036.145.14.157.018.699-.284-.036-.775-.166-.41z">
   <title id="t2436">Weakley, TN</title>
  </path>
  <path id="FIPS_47131" d="m367.18 191.8.077-.004.166.41.036.775-.699.284-.157-.018-.145-.14-.148-.036-.193-.009-.033.041.082 2.42-1.992.383-3.389.135 1.144-3.862z">
   <title id="t2437">Obion, TN</title>
  </path>
  <path id="FIPS_47095" d="m361.93 192.17-1.144 3.862-1.489.455.736-2.019-.082-2.096.555-.03.698-.069z">
   <title id="t2438">Lake, TN</title>
  </path>
  <path id="FIPS_47045" d="m360.79 196.04 3.389-.135-.163 2.682-1.483 1.649-.129-.229-.086-.109-.514-.464-.865.044-1.489.57-.508.13-.551-1.217.91-2.466z">
   <title id="t2439">Dyer, TN</title>
  </path>
  <path id="FIPS_47097" d="m358.94 200.17.508-.13 1.489-.57.865-.044.514.464.086.109.129.229-.081.834-.477-.036-.28.595-.058.225.009.176h.131l.004.095-.311 1.906-.243.176-.081.037-.456-.325-.834-.446-1.432.144-.311.112-.244.181-.536.495-.199.239-.185.433.285-2.731.91-1.943.066-.058.034-.023.225-.117.188-.032z">
   <title id="t2440">Lauderdale, TN</title>
  </path>
  <path id="FIPS_47167" d="m361.14 204.24.455 2.279-1.632.465-.203-.144-.55-.23-.071-.01-3.452.393-.492.238-.699-.688 2.447-1.47.185-.433.199-.239.536-.495.244-.181.311-.112 1.432-.144.834.446z">
   <title id="t2441">Tipton, TN</title>
  </path>
  <path id="FIPS_47157" d="m355.2 207.23.492-.238 3.452-.393.071.01.55.23.203.144.045 1.515.104 1.685.063 1.736-.838.062-6.13.375-.018-.18.126-.402 1.05-.346 1.105-.849.157-.193.019-.029.004-.008v-.012l.004-.014-.419-2.957z">
   <title id="t2442">Shelby, TN</title>
  </path>
  <path id="FIPS_47077" d="m374.64 200.15.104 2.697-.461 1.085.06 1.366.067-.006-1.235.158-2.803-1.982-.131-2.61.059-.167.135-.175.154-.145z">
   <title id="t2443">Henderson, TN</title>
  </path>
  <path id="FIPS_47079" d="m370.73 191.54 4.475-.311.799 1.708-1.064.095-.014.018-.041.428.023.203.226.726-.808 1.398-.35.437-3.31-.127-.215-4.557z">
   <title id="t2444">Henry, TN</title>
  </path>
  <path id="FIPS_47005" d="m376 192.94.099.086.446 1.402.432 1.005.158 3.024v.248l-.068.545-.048.145-.168.252-.055.334-2.177-.213-.647-3.523.35-.437.808-1.398-.226-.726-.023-.203.041-.428.014-.018z">
   <title id="t2445">Benton, TN</title>
  </path>
  <path id="FIPS_47039" d="m374.62 199.77 2.177.213-.332.951-.168.585.145 3.282.099.176.077.089.072.036.153-.012-.145.419-2.289-.218-.067.006-.06-1.366.461-1.085-.104-2.697z">
   <title id="t2446">Decatur, TN</title>
  </path>
  <path id="FIPS_47071" d="m373.18 205.45 1.235-.158 2.289.218.019.22.171.853.472 1.631.177 2.254-2.241.324-1.712.141-.176.012-.216-5.003z">
   <title id="t2447">Hardin, TN</title>
  </path>
  <path id="FIPS_47099" d="m384.24 204.16.929.064-.022.346-.005.333.315 3.457.06 1.489-4.008.31-.135-5.139.424-.04.87-.36-.042-.482 1.276-.1z">
   <title id="t2448">Lawrence, TN</title>
  </path>
  <path id="FIPS_47181" d="m379.8 204.06 1.573.963.135 5.139-3.966.307-.177-2.254-.472-1.631-.171-.853-.019-.22.145-.419z">
   <title id="t2449">Wayne, TN</title>
  </path>
  <path id="FIPS_47101" d="m383.52 201.43-.096.548.01.266.036.162.157.14.252.046.285.23.26.523-.035.468-.031.153-.123.194-.338-.122-1.276.1.042.482-.87.36-.424.04-1.573-.963.474-1.686.401-.266.702-.104.946.113.078-.018.423-.22z">
   <title id="t2450">Lewis, TN</title>
  </path>
  <path id="FIPS_47135" d="m379.4 199.45.87 2.916-.474 1.686-2.952 1.032-.153.012-.072-.036-.077-.089-.099-.176-.145-3.282.168-.585.332-.951.055-.334 1.249.158.257-.216.184-.036z">
   <title id="t2451">Perry, TN</title>
  </path>
  <path id="FIPS_47081" d="m384.56 197.42.017 1.416-1.053 2.592-.7.446-.423.22-.078.018-.946-.113-.702.104-.401.266-.87-2.916 1.708-2.164z">
   <title id="t2452">Hickman, TN</title>
  </path>
  <path id="FIPS_47085" d="m380.56 194.93.545 2.361-1.708 2.164-.857.099-.184.036-.257.216-1.249-.158.168-.252.048-.145.068-.545v-.248l-.158-3.024-.432-1.005 1.189.041.366-.194.42.005 1.82.414z">
   <title id="t2453">Humphreys, TN</title>
  </path>
  <path id="FIPS_47083" d="m380.08 192.5.848.351-.365 2.079-.221-.235-1.82-.414-.42-.005-.366.194-1.189-.041-.446-1.402 1.117.19.203.013.303-.017.201-.036.222-.069.279-.139.184-.13.141-.127z">
   <title id="t2454">Houston, TN</title>
  </path>
  <path id="FIPS_47161" d="m378.73 189.1.541-.062.806 3.456-1.329.212-.141.127-.184.13-.279.139-.222.069-.201.036-.303.017-.203-.013-1.117-.19-.099-.086-.799-1.708-.37-2.33.601-.036 1.676.032-.004.397z">
   <title id="t2455">Stewart, TN</title>
  </path>
  <path id="FIPS_47125" d="m384.65 188.5.172 2.425-1.546 1.884-2.348.044-.848-.351-.806-3.456 3.119-.325z">
   <title id="t2456">Montgomery, TN</title>
  </path>
  <path id="FIPS_47147" d="m388.24 188.07h2.056l-.266.685-.568 1.703-.229.506-.595.248-1.601.445-2.212-.734-.172-2.425.554-.064z">
   <title id="t2457">Robertson, TN</title>
  </path>
  <path id="FIPS_47021" d="m384.82 190.92 2.212.734-1.032 4.503-1.328.067.08-1.843-.144-.483-.208-.152.28-.433.018-.347-.032-.073-.238-.089-.533-.068-.621.068zm-.077 2.122-.05.063.13-.058-.03-.027-.018.036z">
   <title id="t2458">Cheatham, TN</title>
  </path>
  <path id="FIPS_47043" d="m380.93 192.85 2.348-.044.621-.068.533.068.238.089.032.073-.018.347-.28.433.208.152.144.483-.08 1.843-.118 1.195-3.448-.131-.545-2.361z">
   <title id="t2459">Dickson, TN</title>
  </path>
  <path id="FIPS_47187" d="m384.67 196.22 1.328-.067.207.716.136-.018.937-.914 1.484.076 1.82.707-.365 3.404-.986.139-4.662-1.432-.017-1.416z">
   <title id="t2460">Williamson, TN</title>
  </path>
  <path id="FIPS_47119" d="m384.57 198.84 4.662 1.432-1.498 3.921-2.573.033-.929-.064.123-.194.031-.153.035-.468-.26-.523-.285-.23-.252-.046-.157-.14-.036-.162-.01-.266.096-.548z">
   <title id="t2461">Maury, TN</title>
  </path>
  <path id="FIPS_47117" d="m389.24 200.27.986-.139.514.265-.009 2.534.032.46.103.261.506.847.156.019.036-.015-2.253 1.543-1.569-1.854z">
   <title id="t2462">Marshall, TN</title>
  </path>
  <path id="FIPS_47055" d="m385.16 204.22 2.573-.033 1.569 1.854.258 3.519-3.922.275-.13.01-.06-1.489-.315-3.457.005-.333z">
   <title id="t2463">Giles, TN</title>
  </path>
  <path id="FIPS_47103" d="m392.34 204.56 2.456 2.717.173 1.758-4.861.479-.548.053-.258-3.519 2.253-1.543z">
   <title id="t2464">Lincoln, TN</title>
  </path>
  <path id="FIPS_47127" d="m395.05 203.53.063 1.025-.315 2.721-2.456-2.717z">
   <title id="t2465">Moore, TN</title>
  </path>
  <path id="FIPS_47003" d="m394.89 200.68.162 2.847-2.708 1.029-.785-.055-.036.015-.156-.019-.506-.847-.103-.261-.032-.46.009-2.534.013-.211.15-.027.82-.015 2.569.29z">
   <title id="t2466">Bedford, TN</title>
  </path>
  <path id="FIPS_47149" d="m391.48 194.9.45.302 1.65.996.171.067.685.167.968-.022-.219 3.295-.299.969-.603-.248-2.569-.29-.82.015-.15.027-.013.211-.514-.265.365-3.404z">
   <title id="t2467">Rutherford, TN</title>
  </path>
  <path id="FIPS_47037" d="m387.03 191.66 1.601-.445 1.851 1.909.998 1.786-.898 1.82-1.82-.707-1.484-.076-.937.914-.136.018-.207-.716z">
   <title id="t2468">Davidson, TN</title>
  </path>
  <path id="FIPS_47165" d="m391.84 187.69 2.127-.076-.04 1.991-.374 1.87-.127.47-.355-.045-.141-.133-.026-.197-.055-.085-.112-.063-.055.005-.842.378-1.051.73-.298.585-1.851-1.909.595-.248.229-.506.568-1.703.266-.685z">
   <title id="t2469">Sumner, TN</title>
  </path>
  <path id="FIPS_47189" d="m395.12 191.98 1.073 2.628.635 1.569-1.42.234-.968.022-.685-.167-.171-.067-1.65-.996-.45-.302-.998-1.786.298-.585 1.051-.73.842-.378.055-.005.112.063.055.085.026.197.141.133.355.045.127-.47z">
   <title id="t2470">Wilson, TN</title>
  </path>
  <path id="FIPS_47015" d="m396.83 196.18 1.501 1.424-.784 2.429-2.356-.324.219-3.295z">
   <title id="t2471">Cannon, TN</title>
  </path>
  <path id="FIPS_47031" d="m397.54 200.03 1.308 1.636-.033.023-.022.068.036.96.122.648.166.149-.072.418-.197.696-.059.117-1.351-.572-1.277-.118-.947.333-.099.104-.005.055-.063-1.025-.162-2.847.299-.969z">
   <title id="t2472">Coffee, TN</title>
  </path>
  <path id="FIPS_47051" d="m395.12 204.55.005-.055.099-.104.947-.333 1.277.118 1.351.572.514.798.419 3.024-4.675.455-.079.004-.173-1.758z">
   <title id="t2473">Franklin, TN</title>
  </path>
  <path id="FIPS_47115" d="m399.31 205.55 3.136-1.592.122.181.892.36.267.067.424.424.157.226.157.653.009.108-.649 2.209-1.388.144-2.708.244z">
   <title id="t2474">Marion, TN</title>
  </path>
  <path id="FIPS_47153" d="m403.48 200.6 2.362 2.52-1.375 2.857-.009-.108-.157-.653-.157-.226-.424-.424-.267-.067-.892-.36-.122-.181-.806-2.687.513-.071z">
   <title id="t2475">Sequatchie, TN</title>
  </path>
  <path id="FIPS_47061" d="m401.64 201.27.806 2.687-3.136 1.592-.514-.798.059-.117.197-.696.072-.418-.166-.149-.122-.648-.036-.96.022-.068.033-.023.468.068.163.004.644-.212.519-.112z">
   <title id="t2476">Grundy, TN</title>
  </path>
  <path id="FIPS_47175" d="m404.75 197.51-.022.068.225.248v.018l-1.47 2.753-1.334.6-.842-3.331z">
   <title id="t2477">Van Buren, TN</title>
  </path>
  <path id="FIPS_47177" d="m400.44 197.49.87.378.842 3.331-.513.071-.991.15-.519.112-.644.212-.163-.004-.468-.068-1.308-1.636.784-2.429z">
   <title id="t2478">Warren, TN</title>
  </path>
  <path id="FIPS_47185" d="m404.54 195.1.217 2.411-3.443.356-.87-.378.126-2.417.004-.076.045-.095.185-.193.551-.486.148-.073.383-.094 1.438.225.509.193.158.123z">
   <title id="t2479">White, TN</title>
  </path>
  <path id="FIPS_47041" d="m398.73 193.75 1.839 1.324-.126 2.417-2.11.117-1.501-1.424-.635-1.569z">
   <title id="t2480">DeKalb, TN</title>
  </path>
  <path id="FIPS_47141" d="m398.86 192.35 1.501.107.65-.198.319-.154.068-.098.297-.51v-.298l.87.767 2.335.83h.879l.207.057-.482.564-.861.019-.103.076-.006 1.591-.549-.504-.158-.123-.509-.193-1.438-.225-.383.094-.148.073-.551.486-.185.193-.045.095-.004.076-1.839-1.324z">
   <title id="t2481">Putnam, TN</title>
  </path>
  <path id="FIPS_47169" d="m396.56 190.13-1.443 1.852-1.572-.51.374-1.87z">
   <title id="t2482">Hartsville-Trousdale, TN</title>
  </path>
  <path id="FIPS_47111" d="m396.31 187.51 1.929-.118-.09 1.61-.021 1.143-1.565-.017-2.641-.528.04-1.991z">
   <title id="t2483">Macon, TN</title>
  </path>
  <path id="FIPS_47159" d="m396.56 190.13 1.565.017.733 2.197-.135 1.401-2.533.865-1.073-2.628z">
   <title id="t2484">Smith, TN</title>
  </path>
  <path id="FIPS_47087" d="m398.15 189.01.455-.285 1.321.208.694.17.523.384.406.406.148 1.306v.298l-.297.51-.068.098-.319.154-.65.198-1.501-.107-.733-2.197z">
   <title id="t2485">Jackson, TN</title>
  </path>
  <path id="FIPS_47133" d="m403.51 188 1.869 1.411.132 1.324.176.46.396.893-.306.708h-.879l-2.335-.83-.87-.767-.148-1.306z">
   <title id="t2486">Overton, TN</title>
  </path>
  <path id="FIPS_47027" d="m403.46 186.76.05 1.239-1.965 1.893-.406-.406-.523-.384-.694-.17-1.321-.208-.455.285.09-1.61 3.601-.346 1.425-.258z">
   <title id="t2487">Clay, TN</title>
  </path>
  <path id="FIPS_47137" d="m406.63 186.56 1.884-.086.667.952-1.401-.424-.443-.068-.4.018-.632.198-.387.383-.234.384-.109.252-.19 1.24-1.869-1.411-.05-1.239z">
   <title id="t2488">Pickett, TN</title>
  </path>
  <path id="FIPS_47007" d="m404.96 197.84 1.243-.194.487.049.573.005.401-.022.789-.19-1.095 1.911-.6.771-.279 1.077.153.424-.78 1.442-2.362-2.52z">
   <title id="t2489">Bledsoe, TN</title>
  </path>
  <path id="FIPS_47049" d="m409.18 187.42.555 1.947-1.577 1.207-.083.107-.279 1.042.15.663-1.957.459-.207-.057.306-.708-.396-.893-.176-.46-.132-1.324.19-1.24.109-.252.234-.384.387-.383.632-.198.4-.018.443.068z">
   <title id="t2490">Fentress, TN</title>
  </path>
  <path id="FIPS_47035" d="m405.99 192.85 1.957-.459 2.708 2.92-.915 1.2-1.289.982-.789.19-.401.022-.573-.005-.487-.049-1.243.194v-.018l-.225-.248.022-.068-.217-2.411.006-1.591.103-.076.861-.019z">
   <title id="t2491">Cumberland, TN</title>
  </path>
  <path id="FIPS_47143" d="m410.45 197.37.13.202.032.077-.041.505-.558 1.906-1.068 1.569-.069.045-.931.482-1.317-.482-.153-.424.279-1.077.6-.771 1.095-1.911 1.289-.982z">
   <title id="t2492">Rhea, TN</title>
  </path>
  <path id="FIPS_47121" d="m411.69 198.64-2.038 4.093-.802.91-.905-1.483.931-.482.069-.045 1.068-1.569.558-1.906.041-.505-.032-.077-.13-.202z">
   <title id="t2493">Meigs, TN</title>
  </path>
  <path id="FIPS_47065" d="m407.94 202.16.905 1.483-.424 1.176-.063.235-.093.756.372 1.019.344.717-.032.005-2.971.373-1.027.14-1.132.122.649-2.209 1.375-2.857.78-1.442z">
   <title id="t2494">Hamilton, TN</title>
  </path>
  <path id="FIPS_47011" d="m409.65 202.73 1.793 1.212-.365 3.353-.359.045-1.735.203-.344-.717-.372-1.019.093-.756.063-.235.424-1.176z">
   <title id="t2495">Bradley, TN</title>
  </path>
  <path id="FIPS_47139" d="m413.54 203.11 2.237.758.039 2.849-3.123.384-1.61.197.365-3.353.285-.248.492-.194 1.131-.117z">
   <title id="t2496">Polk, TN</title>
  </path>
  <path id="FIPS_47123" d="m416.2 198.53.086.142 1.086.617.51-.095 1.087.582.012.013-.012.05-.177.284-.423 2.312-.244.333-.395.325-1.111.027-.85.748-2.237-.758.811-.684-.094-.879-1.067-1.866-.434-.689-.014-.14-.044-.068.347-.451.298-.171.233-.107.072-.015 1.042-.031 1.461.428z">
   <title id="t2497">Monroe, TN</title>
  </path>
  <path id="FIPS_47107" d="m412.05 198.6.64.184.044.068.014.14.434.689 1.067 1.866.094.879-.811.684-.184.276-1.131.117-.492.194-.285.248-1.793-1.212 2.038-4.093z">
   <title id="t2498">McMinn, TN</title>
  </path>
  <path id="FIPS_47145" d="m412.47 198.2-.418.393-.365.04-1.24-1.266-.712-.861.915-1.2 1.497-1.045.796-.249.343-.305.631-.636.942 1.7.109.161-.194-.058-.487.193-1.64 2.57z">
   <title id="t2499">Roane, TN</title>
  </path>
  <path id="FIPS_47129" d="m412.72 191.72 1.198 1.352-.631.636-.343.305-.796.249-1.497 1.045-2.708-2.92-.15-.663.279-1.042.083-.107 1.577-1.207 1.077 1.185.482.361 1.054.395z">
   <title id="t2500">Morgan, TN</title>
  </path>
  <path id="FIPS_47151" d="m408.59 186.47 5.292-.496-.063 1.131-.434 3.101-.043.749-.618.77-.375-.411-1.054-.395-.482-.361-1.077-1.185-.555-1.947-.667-.952z">
   <title id="t2501">Scott, TN</title>
  </path>
  <path id="FIPS_47013" d="m416.67 185.65 1.117 2.077-.248.37-.252 1.29-.113.22-.153.181-3.686 1.163.043-.749.434-3.101.063-1.131.352-.04z">
   <title id="t2502">Campbell, TN</title>
  </path>
  <path id="FIPS_47001" d="m417.02 189.79.779 1h-.027l-.18.167-1.095 1.452.014.166.229.401-1.703 1.681-.181.118-.942-1.7-1.198-1.352.618-.77z">
   <title id="t2503">Anderson, TN</title>
  </path>
  <path id="FIPS_47105" d="m414.97 194.94 1.149 1.055.085 2.536-.057-.093-1.461-.428-1.042.031-.072.015-.233.107-.298.171-.347.451-.64-.184.418-.393.177-.563 1.64-2.57.487-.193z">
   <title id="t2504">Loudon, TN</title>
  </path>
  <path id="FIPS_47009" d="m419.82 194.45.879 1.52.441.662.36.171.203 1.563-2.816 1.784-.086-.03.177-.284.012-.05-.012-.013-1.087-.582-.51.095-1.086-.617-.086-.142-.085-2.536.158-.51 1.451-.724.549.04.65.325h.149z">
   <title id="t2505">Blount, TN</title>
  </path>
  <path id="FIPS_47155" d="m424.77 193.68.882 2.249.045.245-.374.548-1.789 1.416-.127.082-1.473.152-.189-.004-.05-.005-.203-1.563-.36-.171-.441-.662-.879-1.52.991-2.109.713.202 2.104.839z">
   <title id="t2506">Sevier, TN</title>
  </path>
  <path id="FIPS_47093" d="m419.99 190.79.806.992.013.555-.991 2.109-.739.672h-.149l-.65-.325-.549-.04-1.451.724-.158.51-1.149-1.055-.109-.161.181-.118 1.703-1.681-.229-.401-.014-.166 1.095-1.452.18-.167h.027z">
   <title id="t2507">Knox, TN</title>
  </path>
  <path id="FIPS_47173" d="m417.79 187.73.288-.13.708-.203.059.032.689.744.816.215-.364 2.407-2.183-.004-.779-1 .153-.181.113-.22.252-1.29z">
   <title id="t2508">Union, TN</title>
  </path>
  <path id="FIPS_47025" d="m419.84 185.1 2.077-.23 1.191 2.258-2.755 1.261-.816-.215-.689-.744-.059-.032-.708.203-.288.13-1.117-2.077.581-.058z">
   <title id="t2509">Claiborne, TN</title>
  </path>
  <path id="FIPS_47067" d="m428.46 184.02-1.131.824-.266-.031-.342-.158-.045.009-.374.265-.496.403-.469.558-1.118 1.321-1.112-.09-1.191-2.258 4.971-.627z">
   <title id="t2510">Hancock, TN</title>
  </path>
  <path id="FIPS_47057" d="m423.11 187.13 1.112.09.442 1.325-1.968 1.767-1.899 1.478-.806-.992.364-2.407z">
   <title id="t2511">Grainger, TN</title>
  </path>
  <path id="FIPS_47063" d="m426.51 188.91-.749.905-.536 1.33-2.536-.833 1.968-1.767z">
   <title id="t2512">Hamblen, TN</title>
  </path>
  <path id="FIPS_47089" d="m425.23 191.14-.455 2.542-1.15-.301-2.104-.839-.713-.202-.013-.555 1.899-1.478z">
   <title id="t2513">Jefferson, TN</title>
  </path>
  <path id="FIPS_47029" d="m425.76 189.81-.027.307.073.082.404.298.897.481 1.145.893.666.6-.399 2.033-2.868 1.427-.882-2.249.455-2.542z">
   <title id="t2514">Cocke, TN</title>
  </path>
  <path id="FIPS_47171" d="m434.08 187.7 1.389 1.055-1.839 1.37-.734 1.343-1.11-.645-.022-.739.59-.776.401-.144.239-.027.446-.288.324-.482z">
   <title id="t2515">Unicoi, TN</title>
  </path>
  <path id="FIPS_47073" d="m430.71 183.7-.433 2.19-.185.307-1.077.748-.495.145-.19.103-.522.333-.231.267-.193.346-.239.276-.437.391-.113.086-.085.009-1.853-.365-.442-1.325 1.118-1.321.469-.558.496-.403.374-.265.045-.009.342.158.266.031 1.131-.824z">
   <title id="t2516">Hawkins, TN</title>
  </path>
  <path id="FIPS_47059" d="m430.1 186.2.709-.207.03.09.235 2.74.108.712.591.55.022.739-.197-.189v-.005l-.155-.098-.049.008-.262.189-.181.131-.648.64-.91.852-.466.118-.666-.6-1.145-.893-.897-.481-.404-.298-.073-.082.027-.307.749-.905.085-.009.113-.086.437-.391.239-.276.193-.346.231-.267.522-.333.19-.103.495-.145z">
   <title id="t2517">Greene, TN</title>
  </path>
  <path id="FIPS_47179" d="m430.28 185.9.568-.089 1.266-.249.614-.194.355.072.51.371.162.048.473-.062-.144 1.911-.316.667-.324.482-.446.288-.239.027-.401.144-.59.776-.591-.55-.108-.712-.235-2.74-.03-.09-.709.207z">
   <title id="t2518">Washington, TN</title>
  </path>
  <path id="FIPS_47019" d="m437.24 183.89.397.396v.04l-.798 1.348.157.31.703.732.343.293.181-.069-1.212 2.267-1.537-.445-1.389-1.055.144-1.911z">
   <title id="t2519">Carter, TN</title>
  </path>
 </g>
</svg>