<svg id="svg9559" width="555.22" height="351.67" xmlns="http://www.w3.org/2000/svg" viewBox="177.60498046875 191.9510040283203 142.88900756835938 139.7310028076172">
 <g id="stylegroup" fill="#d0d0d0" stroke="#000" stroke-width=".1">
  <path id="FIPS_48037" d="m309.67 231.62.085.221.082.188.071.095.438.28.157.103.577.315 1.037-.526.054-.049.157-.019.6-.087 1.037.208.198.081.257.212.077 3.642-.091-.203-.225-.116-.969-.155-.266.06-.337.117-.172.306.031.27.037.117-.023.037-4.043-.023-.361-.071-.09-.072-.027-.124-1.027-.765-.054-4.845z">
   <title id="t2520">Bowie, TX</title>
  </path>
  <path id="FIPS_48387" d="m302.48 227.75 1.249 1.068 1.83 1.465 1.325.541.054 4.845-.673-.442-3.398-.296-1.938.162-.022-.033-.067-6.359.158-.018.084-.009.284-.185.06-.058.058-.131.018-.13-.018-.112v-.019l-.041-.086-.004-.009.004-.013v-.023l.005-.018.229-.347h.006l.009-.004.036-.018.076.003z">
   <title id="t2521">Red River, TX</title>
  </path>
  <path id="FIPS_48107" d="m234.23 227.52 5.562.272-.275 5.646-5.548-.279z">
   <title id="t2522">Crosby, TX</title>
  </path>
  <path id="FIPS_48303" d="m228.66 227.26 5.562.265-.261 5.639-5.557-.271z">
   <title id="t2523">Lubbock, TX</title>
  </path>
  <path id="FIPS_48219" d="m223.03 226.87 5.634.383-.256 5.633-5.548-.355z">
   <title id="t2524">Hockley, TX</title>
  </path>
  <path id="FIPS_48079" d="m218.44 226.55 4.592.324-.17 5.661-4.94-.356.221-2.353z">
   <title id="t2525">Cochran, TX</title>
  </path>
  <path id="FIPS_48153" d="m235.56 221.34 4.547.248-.324 6.202-5.562-.272.352-6.237z">
   <title id="t2526">Floyd, TX</title>
  </path>
  <path id="FIPS_48189" d="m229.02 220.93.978.063 4.579.289-.352 6.237-5.562-.265z">
   <title id="t2527">Hale, TX</title>
  </path>
  <path id="FIPS_48279" d="m223.48 220.56.946.069 4.598.301-.357 6.324-5.634-.383z">
   <title id="t2528">Lamb, TX</title>
  </path>
  <path id="FIPS_48017" d="m223.48 220.56-.447 6.311-4.592-.324.496-6.175.009-.135z">
   <title id="t2529">Bailey, TX</title>
  </path>
  <path id="FIPS_48045" d="m235.89 215.71 4.007.211 1.533.082-.307 5.638-1.01-.049-4.547-.248z">
   <title id="t2530">Briscoe, TX</title>
  </path>
  <path id="FIPS_48437" d="m230.35 215.36 3.881.248 1.658.1-.324 5.634-.987-.059-4.579-.289z">
   <title id="t2531">Swisher, TX</title>
  </path>
  <path id="FIPS_48069" d="m228.56 215.26 1.793.103-.351 5.634-.978-.063-4.598-.301.388-5.617z">
   <title id="t2532">Castro, TX</title>
  </path>
  <path id="FIPS_48369" d="m219.38 214.62 5.435.396-.388 5.617-.946-.069-4.534-.323z">
   <title id="t2533">Parmer, TX</title>
  </path>
  <path id="FIPS_48011" d="m234.63 209.97 5.611.329-.347 5.619-4.007-.211-1.658-.1z">
   <title id="t2534">Armstrong, TX</title>
  </path>
  <path id="FIPS_48381" d="m228.94 209.62 5.692.357-.401 5.637-3.881-.248-1.793-.103z">
   <title id="t2535">Randall, TX</title>
  </path>
  <path id="FIPS_48117" d="m219.38 214.62.198-2.673.225-2.965 2.137.149 2.221.112 4.783.374-.383 5.643-3.746-.244z">
   <title id="t2536">Deaf Smith, TX</title>
  </path>
  <path id="FIPS_48065" d="m234.97 204.31v-.049l5.584.297-.005.081-.306 5.666-5.611-.329z">
   <title id="t2537">Carson, TX</title>
  </path>
  <path id="FIPS_48375" d="m229.35 203.96 5.616.347-.338 5.666-5.692-.357z">
   <title id="t2538">Potter, TX</title>
  </path>
  <path id="FIPS_48359" d="m229.36 203.86-.009.095-.414 5.656-4.783-.374-2.221-.112-2.137-.149.428-5.687z">
   <title id="t2539">Oldham, TX</title>
  </path>
  <path id="FIPS_48233" d="m235.29 198.66 5.562.315-.302 5.576-5.584-.297z">
   <title id="t2540">Hutchinson, TX</title>
  </path>
  <path id="FIPS_48341" d="m229.72 198.32 5.575.343-.324 5.594v.049l-5.616-.347.009-.095z">
   <title id="t2541">Moore, TX</title>
  </path>
  <path id="FIPS_48205" d="m220.65 197.69 9.068.631-.356 5.544-9.136-.571.117-1.511z">
   <title id="t2542">Hartley, TX</title>
  </path>
  <path id="FIPS_48195" d="m241.17 193.22-.311 5.728v.031l-5.562-.315.338-5.76z">
   <title id="t2543">Hansford, TX</title>
  </path>
  <path id="FIPS_48421" d="m231.44 192.64 4.195.265-.338 5.76-5.575-.343.379-5.769z">
   <title id="t2544">Sherman, TX</title>
  </path>
  <path id="FIPS_48111" d="m230.1 192.55-.379 5.769-9.068-.631.244-3.407.157-2.078.424-.252z">
   <title id="t2545">Dallam, TX</title>
  </path>
  <path id="FIPS_48229" d="m196.35 248.38-.166 1.816-.276 3.507-.734 8.509-.108.761-.104.375-.216 2.212-.735.38-.068.058-.576-.829-.857-.943-.838-.72-.428-.037-.167-.058-1.352-.865-1.614-1.853-1.897-2.47-1.461-1.907-.95-1.22.522-.423.023-.714-.32-.468.608-6.306z">
   <title id="t2546">Hudspeth, TX</title>
  </path>
  <path id="FIPS_48141" d="m184.64 247.19-.608 6.306.32.468-.023.714-.522.423-1.073-.478-.352-.177-.568-.464-.144-.117-.004-.01-.041-.045-.014-.017-.089-.144-.294-.915-.906-2.11-.215-.409-.375-.304-1.158-.539-.847-.906-.104-.14-.018-.059.252-1.113.027-.094.235-.554v-.005h.004l.036.005 2.371.251z">
   <title id="t2547">El Paso, TX</title>
  </path>
  <path id="FIPS_48305" d="m233.96 233.16-.334 5.607-1.437-.094-4.142-.231.356-5.553z">
   <title id="t2548">Lynn, TX</title>
  </path>
  <path id="FIPS_48445" d="m222.86 232.54 5.548.355-.356 5.553-1.424-.081-4.156-.279z">
   <title id="t2549">Terry, TX</title>
  </path>
  <path id="FIPS_48501" d="m222.86 232.54-.388 5.548-5.048-.369.496-5.535z">
   <title id="t2550">Yoakum, TX</title>
  </path>
  <path id="FIPS_48115" d="m228.05 238.44 4.142.231-.311 5.638-5.563-.32.308-5.63z">
   <title id="t2551">Dawson, TX</title>
  </path>
  <path id="FIPS_48165" d="m217.42 237.71 5.048.369 4.156.279-.308 5.63-.089-.005-9.226-.636z">
   <title id="t2552">Gaines, TX</title>
  </path>
  <path id="FIPS_48317" d="m226.23 243.99.089.005 5.563.32-.406 5.648-.884-.045-4.732-.299z">
   <title id="t2553">Martin, TX</title>
  </path>
  <path id="FIPS_48003" d="m217 243.35 9.226.636-.37 5.629-.82-.054-5.571-.37-2.88-.229z">
   <title id="t2554">Andrews, TX</title>
  </path>
  <path id="FIPS_48329" d="m225.04 249.56.82.054 4.732.299-.337 5.615-5.594-.355z">
   <title id="t2555">Midland, TX</title>
  </path>
  <path id="FIPS_48135" d="m225.04 249.56-.379 5.613-.338-.019-4.908-.348-.347-.021.401-5.595z">
   <title id="t2556">Ector, TX</title>
  </path>
  <path id="FIPS_48103" d="m219.42 254.81 4.908.348-.297 7.287-.965-.076-.347-1.352-.099-.249-.031-.053-.141-.135-.531-.46-.144-.113-1.352-.775-.14.005-1.19.184z">
   <title id="t2557">Crane, TX</title>
  </path>
  <path id="FIPS_48377" d="m206.82 269.88-.09 1.401-.316 3.89-.473 6.455-.244 3.002-1.879-.614-.613-.235-.068-.026-.045-.037-.401-.32-.807-.639-3.876-3.674-.216-.482-1.248-3.136-.046-.132-.036-1.27.172-.933.085-1.118-.171-.743-2.015-4.891-.586-.374.068-.058 11.692 3.843z">
   <title id="t2558">Presidio, TX</title>
  </path>
  <path id="FIPS_48109" d="m197.12 248.45 8.946.802-1.83 11.439-9.487 4.867.216-2.212.104-.375.108-.761.734-8.509.276-3.507.166-1.816z">
   <title id="t2559">Culberson, TX</title>
  </path>
  <path id="FIPS_48475" d="m219.07 254.79.347.021-.329 4.611-.784.051-.469-.469-.311-.276-.347-.208-.69-.288-.645.033-.405-.009-.261-.028-.559-.126-3.02-1-.139-.145-.127-.226-.108-.648.027-.772.063-.442-.067-.273-.181-.29-.861-.192 3.093.247z">
   <title id="t2560">Ward, TX</title>
  </path>
  <path id="FIPS_48495" d="m216.59 248.96 2.88.229-.401 5.595-5.773-.429.36-4.494.64.051.563.039.767.059.612.049.267.019z">
   <title id="t2561">Winkler, TX</title>
  </path>
  <path id="FIPS_48301" d="m206.55 249.3 2.794.229 4.314.338-.36 4.494-3.093-.247-.234-.514-.541-.785-.108-.022-.216.045-.009.026-.027.023-.1.005-.238-.054-.086-.113-1.455-2.092z">
   <title id="t2562">Loving, TX</title>
  </path>
  <path id="FIPS_48389" d="m206.07 249.26.482.041.641 1.333 1.455 2.092.086.113.238.054.1-.005.027-.023.009-.026.216-.045.108.022.541.785.234.514.861.192.181.29.067.273-.063.442-.027.772.108.648.127.226.139.145 3.02 1 .559.126.261.028.405.009.645-.033-6.913 7.293-5.337-4.827z">
   <title id="t2563">Reeves, TX</title>
  </path>
  <path id="FIPS_48243" d="m209.57 265.52 1.5 1.42-4.254 2.934-1.113-.091-11.692-3.843.735-.38 9.487-4.867z">
   <title id="t2564">Jeff Davis, TX</title>
  </path>
  <path id="FIPS_48043" d="m211.07 266.94 9.109 8.595 2.651 2.465-.577.37-1.416.641-2.037.49-.261.158-.027.018-1.515 2.47-.91 2.109-3.047 4.52-.478.127h-.081l-1.316-.329-1.109-.527-3.57-2.344-.103-.108-.451-.464-.239-.509.244-3.002.473-6.455.316-3.89.09-1.401z">
   <title id="t2565">Brewster, TX</title>
  </path>
  <path id="FIPS_48443" d="m229.38 273.1-.428 6.566-.198-.059-.082-.026-1.077-.248-.68-.108-1.082.076-.108.058-.735-.143-2.158-1.209-2.651-2.465.208-2.966 2.488.158.27-4.044 1.528-.139.793-.446 4.083.288.162-.017.609.126.442.356.072.815-.018.113-1.177 2.835z">
   <title id="t2566">Terrell, TX</title>
  </path>
  <path id="FIPS_48371" d="m219.09 259.42 1.19-.184.14-.005 1.352.775.144.113.531.46.141.135.031.053.099.249.347 1.352 1.501.681 2.172.676.704.22 1.118.934.937 3.178.058.332-4.083-.288-.793.446-1.528.139-.27 4.044-2.488-.158-.208 2.966-9.109-8.595-1.5-1.42 6.913-7.293.69.288.347.208.311.276.469.469z">
   <title id="t2567">Pecos, TX</title>
  </path>
  <path id="FIPS_48461" d="m224.32 255.16.338.019 5.594.355-.456 7.364-5.773-.451z">
   <title id="t2568">Upton, TX</title>
  </path>
  <path id="FIPS_48383" d="m230.26 255.53 5.561.333-.072 1.217-.022.356-.397 5.788-5.526-.33z">
   <title id="t2569">Reagan, TX</title>
  </path>
  <path id="FIPS_48173" d="m231.48 249.96 4.683.274-.343 5.629-5.561-.333.337-5.615z">
   <title id="t2570">Glasscock, TX</title>
  </path>
  <path id="FIPS_48227" d="m237.44 244.65-.41 5.637-.874-.049-4.683-.274.406-5.648z">
   <title id="t2571">Howard, TX</title>
  </path>
  <path id="FIPS_48033" d="m233.63 238.77 4.138.203-.32 5.629-.005.046-5.561-.334.311-5.638z">
   <title id="t2572">Borden, TX</title>
  </path>
  <path id="FIPS_48169" d="m239.51 233.44-.293 5.522-1.451.009-4.138-.203.334-5.607z">
   <title id="t2573">Garza, TX</title>
  </path>
  <path id="FIPS_48415" d="m239.22 238.96 4.115.298-.329 5.661-5.557-.321.32-5.629z">
   <title id="t2574">Scurry, TX</title>
  </path>
  <path id="FIPS_48335" d="m237.45 244.6 5.557.321-.329 5.678-1.699-.104-3.944-.212.41-5.637z">
   <title id="t2575">Mitchell, TX</title>
  </path>
  <path id="FIPS_48431" d="m236.16 250.23.874.049 3.944.212-.298 5.039-.382-.139-.141 1.843-4.412-.158.072-1.217z">
   <title id="t2576">Sterling, TX</title>
  </path>
  <path id="FIPS_48235" d="m235.72 257.44 3.033.176 3.263.217-.234 5.638-3.016-.099-3.443-.144z">
   <title id="t2577">Irion, TX</title>
  </path>
  <path id="FIPS_48105" d="m223.06 262.37.965.076 5.773.451 5.526.33 3.443.144-.234 4.85-.279 5.381-8.875-.504.261-.479 1.177-2.835.018-.113-.072-.815-.442-.356-.609-.126-.162.017-.058-.332-.937-3.178-1.118-.934-.704-.22-2.172-.676z">
   <title id="t2578">Crockett, TX</title>
  </path>
  <path id="FIPS_48465" d="m229.38 273.1 8.875.504 2.893.139-.419 8.542-.113 2.361-.126.965-.063.311-.45 1.063-.145.212-.045.009-.347-.063-2.642-2.367-2.212-2.744-.027-.073-1.627-1.812-.559-.193-.05-.005-1.609-.103-.256-.013-1.506-.167z">
   <title id="t2579">Val Verde, TX</title>
  </path>
  <path id="FIPS_48505" d="m253.61 313.11.987-.662.406.604 4.372.194-.185 6.174-2.619 2.669-.171-.686-.207-.838v-.013l-.347-1.276-.279-.708-.591-.834-.649-.378-.744-1.159-.045-.509.014-.05.054-.044.203-.298.081-1.045-.144-.947-.117-.186-.01-.003z">
   <title id="t2580">Zapata, TX</title>
  </path>
  <path id="FIPS_48247" d="m261.22 312.22 2.835.013.342.211-.04 1.002.342.392.812 2.316-.145 3.472-6.17-.204.185-6.174z">
   <title id="t2581">Jim Hogg, TX</title>
  </path>
  <path id="FIPS_48427" d="m259.19 319.42 6.17.204 1.181.036-.932 1.987-1.092 2.109-1.243 2.524-.546.077-.838-.37-3.939-1.771-.663-.428-.676-1.543-.023-.089-.018-.067z">
   <title id="t2582">Starr, TX</title>
  </path>
  <path id="FIPS_48489" d="m278.15 322.21.356.009.716 2.415h-.198zm-7.433-.271 5.999.243.654 2.428-.455.565-1.258.838-3.894-.69.018-.946-.536-.172-1.113-.197.099-.55.153-.568z">
   <title id="t2583">Willacy, TX</title>
  </path>
  <path id="FIPS_48215" d="m266.54 319.66 3.894.112.279 2.168-.333.951-.153.568-.099.55 1.113.197.536.172-.018.946-.072 3.656-.081-.018-.23-.035-1.05.011-.351.006-.045.058-.384.153-1.447-.279-.851-.167-.266-.144-.167-.112-1.239-.844-.591-.706-.315-.15-.027-.009-1.362-.464h-.008l1.243-2.524 1.092-2.109z">
   <title id="t2584">Hidalgo, TX</title>
  </path>
  <path id="FIPS_48047" d="m264.35 313.45 3.362.117 2.01.064.82.68-.108 5.467-3.894-.112-1.181-.036.145-3.472-.812-2.316z">
   <title id="t2585">Brooks, TX</title>
  </path>
  <path id="FIPS_48261" d="m277.64 313.56.298.003-.036.123-.163.739-.094.627-.081.765-.036.676v.708l.072 1.064.054.437.009.045.14.812.203.919.356 1.297.018.05.018.049.108.353-.356-.009-.762-2.823v-1.599l.009-1.358.005-.536.018-.797.049-.613.055-.311zm-7.094.752 4.039-.812-.027.1.004.225.046.081.071.054.992.189.261-.022.122-.049.077-.055.036-.058.175-.081.401-.145.307-.012.019.081-.276 1.802-.491 1.474-.338 2.51.437.577.284 1.604.031.415-5.999-.243-.279-2.168z">
   <title id="t2586">Kenedy, TX</title>
  </path>
  <path id="FIPS_48273" d="m277.64 313.56 1.497-3.864.298.073-1.497 3.794zm-6.476-4.693.757.491.401.519.099.004 5.823.068-.581 2.032-.347.834-.036.073-.095.108-.081.05-1.027.526-1.492-.072-4.039.812-.82-.68.086-4.792z">
   <title id="t2587">Kleberg, TX</title>
  </path>
  <path id="FIPS_48249" d="m267.92 303.39 4.029.099.956.802-1.587 1.384-.018 1.388-.135 1.803-1.352-.027-.086 4.792-2.01-.064z">
   <title id="t2588">Jim Wells, TX</title>
  </path>
  <path id="FIPS_48355" d="m281.5 306.45-2.064 3.313-.298-.073 2.303-3.403zm-10.335 2.411.135-1.803.018-1.388 1.587-1.384-.126.303.116.468 1.515.79.297.139.591.13.82.068.099-.334 1.844-.04.793.04-.207.037-.753.342-.217.158-.152.306-.023.397.081.208.198.324.244.212.347.166.572.446-.361.821-.338.676-5.823-.068-.099-.004-.401-.519z">
   <title id="t2589">Nueces, TX</title>
  </path>
  <path id="FIPS_48409" d="m272.72 301.96 3.16.209 3.19 1.189 1.412 2.241-1.632.247-.793-.04-1.844.04-.099.334-.82-.068-.591-.13-.297-.139-1.515-.79-.116-.468.126-.303-.956-.802z">
   <title id="t2590">San Patricio, TX</title>
  </path>
  <path id="FIPS_48057" d="m284 302.95.153-.591 2.573-1.763.135-.062.596-.257.887-.185.136.235-1.086.535-.159.072-.013.013-.829.511-.838.603-.731.573-1.054.916-.023.022-.027.026zm2.907-7.698 2.907.504.004.433-.703.329-1.118.455-.91-.83-.104-.3zm-3.557 2.623-.166-.325-.275-.699.879-.613 1.713-.586.608-.338-.167.15.6 1.426.031.035.5.093.316.217 1.321 1.19.103.103.095.131-.018.086-2.146 1.076-.099.041-.829.234-.289-.094-.081-.077-.73-.785z">
   <title id="t2591">Calhoun, TX</title>
  </path>
  <path id="FIPS_48391" d="m280.29 297.25 3.064.627 1.366 1.265-.252 1.16-3.795.553.018.262.256.343.438.262.248.036.238.008-.071.194-1.447 1.091-1.023.496-.036-.005-.222-.181-3.19-1.189 1.933-2.84z">
   <title id="t2592">Refugio, TX</title>
  </path>
  <path id="FIPS_48025" d="m273.29 295.68.902 1.636 1.627.992 1.996 1.031-1.933 2.84-3.16-.209.108-.084-3.073-6.211.964-.329 1.033-.356.148.09.09.157.401.222.357.148z">
   <title id="t2593">Bee, TX</title>
  </path>
  <path id="FIPS_48297" d="m269.69 294.07 1.027 1.267-.964.329 3.073 6.211-.108.084-.775 1.52-4.029-.099-1.132-.028.167-7.111z">
   <title id="t2594">Live Oak, TX</title>
  </path>
  <path id="FIPS_48311" d="m261.67 295.78 5.296.072-.177 7.508-5.363-.138z">
   <title id="t2595">McMullen, TX</title>
  </path>
  <path id="FIPS_48131" d="m261.42 303.22 5.363.138 1.132.028-.203 10.177-3.362-.117.04-1.002-.342-.211-2.835-.013z">
   <title id="t2596">Duval, TX</title>
  </path>
  <path id="FIPS_48479" d="m245.42 300.84 1.095.036 8.217.239-.023 2.231 6.711-.126-.207 9-1.839 1.028-4.372-.194-.406-.604-.987.662-.194-.017-.247-.155-.023-.008-.388-.378-.049-.054-.018-.023-.009-.009-.013-.049.053-.072.32-.429.181-.428.068-.248.121-.964-.41-1.141-.239-.419-.154-.113-.509-.37-.261-.045-.031.018-.014.055-.446-.018-1.97-1.821-.356-.423-1.222-2.462-.968-1.96-.055-.045z">
   <title id="t2597">Webb, TX</title>
  </path>
  <path id="FIPS_48283" d="m261.67 295.66-.008.117-.244 7.442-6.711.126.023-2.231.18-5.589z">
   <title id="t2598">La Salle, TX</title>
  </path>
  <path id="FIPS_48127" d="m246.76 295.11 8.005.415.149.005-.18 5.589-8.217-.239z">
   <title id="t2599">Dimmit, TX</title>
  </path>
  <path id="FIPS_48323" d="m247.04 289.49-.276 5.615-.243 5.77-1.095-.036-.041-.045-.486-.536-.361-.464-.559-1.718-1.622-4.358-1.443-3.196-.167-1.299z">
   <title id="t2600">Maverick, TX</title>
  </path>
  <path id="FIPS_48271" d="m240.73 282.28 6.594.316-.288 6.895-6.293-.267-1.302-2.086.347.063.045-.009.145-.212.45-1.063.063-.311.126-.965z">
   <title id="t2601">Kinney, TX</title>
  </path>
  <path id="FIPS_48137" d="m247.65 274.01 4.034.166-.149 2.782-.982-.036-1.357-.162-.667 2.447-.122 1.86.018 1.569-1.099-.044-6.594-.316.419-8.542z">
   <title id="t2602">Edwards, TX</title>
  </path>
  <path id="FIPS_48385" d="m251.53 276.96.758.03-.081 1.686.225.455.744.042-.14 3.6-4.616-.135-.018-1.569.122-1.86.667-2.447 1.357.162z">
   <title id="t2603">Real, TX</title>
  </path>
  <path id="FIPS_48463" d="m247.32 282.6 1.099.044 4.616.135 2.145.076-.27 6.888-7.878-.248z">
   <title id="t2604">Uvalde, TX</title>
  </path>
  <path id="FIPS_48507" d="m254.91 289.74-.149 5.782-8.005-.415.276-5.615z">
   <title id="t2605">Zavala, TX</title>
  </path>
  <path id="FIPS_48163" d="m261.8 289.97-.123 5.688-6.76-.135-.149-.005.149-5.782z">
   <title id="t2606">Frio, TX</title>
  </path>
  <path id="FIPS_48175" d="m278.69 293.24.838-.004.329.152.163.33.216.559.05 2.97-2.475 2.082-1.996-1.031-1.627-.992-.902-1.636 2.349-1.823 1.803-1.409h.071l.298.113.5.279.154.136z">
   <title id="t2607">Goliad, TX</title>
  </path>
  <path id="FIPS_48469" d="m282.46 290.21.423.526 1.123.496.076.054.811 1.604 1.289 2.394-.067.031-.608.338-1.713.586-.879.613.275.699.166.325-3.064-.627-.05-2.97-.216-.559-.163-.33-.329-.152-.838.004z">
   <title id="t2608">Victoria, TX</title>
  </path>
  <path id="FIPS_48123" d="m279.53 286.57 2.93 3.643-3.764 3.032-.229-.274-.154-.136-.5-.279-.298-.113h-.071l-1.803 1.409-2.002-2.522 1.627-1.289z">
   <title id="t2609">DeWitt, TX</title>
  </path>
  <path id="FIPS_48255" d="m273.99 288.58 1.275 1.465-1.627 1.289 2.002 2.522-2.349 1.823-.54-.073-.357-.148-.401-.222-.09-.157-.148-.09-1.033.356-1.027-1.267-1.023-1.248z">
   <title id="t2610">Karnes, TX</title>
  </path>
  <path id="FIPS_48493" d="m272.76 286.56 1.226 2.015-5.318 4.25-2.376-3.038 3.191-4.138.068.663.04.162.095.172.324-.18z">
   <title id="t2611">Wilson, TX</title>
  </path>
  <path id="FIPS_48013" d="m261.86 287.92 4.434 1.87 2.376 3.038 1.023 1.248-2.741 2.173.01-.397-5.296-.072.008-.117.123-5.688z">
   <title id="t2612">Atascosa, TX</title>
  </path>
  <path id="FIPS_48325" d="m262 282.26-.144 5.656-.063 2.055-6.883-.234.27-6.888 4.804.212.077.119.009.062-.036.14-.098.148.004.258.067.153.045.039.041.006.505-.118z">
   <title id="t2613">Medina, TX</title>
  </path>
  <path id="FIPS_48019" d="m253.18 279.18 3.457.162 1.298.166.59.306 2.272 1.244 1.528.838-.32.371-1.402 1.608-.505.118-.041-.006-.045-.039-.067-.153-.004-.258.098-.148.036-.14-.009-.062-.077-.119-4.804-.212-2.145-.076z">
   <title id="t2614">Bandera, TX</title>
  </path>
  <path id="FIPS_48265" d="m256.71 274.42-.054 1.96 4.25.091-.112 4.587-2.272-1.244-.59-.306-1.298-.166-3.457-.162-.744-.042-.225-.455.081-1.686-.758-.03.149-2.782z">
   <title id="t2615">Kerr, TX</title>
  </path>
  <path id="FIPS_48171" d="m256.79 271.67 3.772.143 4.138.104-.086 4.647-3.705-.098-4.25-.091z">
   <title id="t2616">Gillespie, TX</title>
  </path>
  <path id="FIPS_48031" d="m267.38 272.17 2.474.829-.55.888-1.483 4.065-1.334 1.257-1.875-2.641.086-4.647z">
   <title id="t2617">Blanco, TX</title>
  </path>
  <path id="FIPS_48259" d="m260.91 276.47 3.705.098 1.875 2.641-2.664 2.407-1.5.279-1.528-.838z">
   <title id="t2618">Kendall, TX</title>
  </path>
  <path id="FIPS_48029" d="m263.82 281.61 1.023-.126.091.005 1.428.185.69.554.478 1.42.112.356.32.248.546.175 1.068.717.018.383-.113.121-3.191 4.138-4.434-1.87.144-5.656.32-.371z">
   <title id="t2619">Bexar, TX</title>
  </path>
  <path id="FIPS_48187" d="m272.5 280.36 2.664 2.727-2.398 3.47-2.75-.094-.324.18-.095-.172-.04-.162-.068-.663.113-.121-.018-.383-1.068-.717-.546-.175-.32-.248-.112-.356 3.542-1.952z">
   <title id="t2620">Guadalupe, TX</title>
  </path>
  <path id="FIPS_48091" d="m267.82 277.95 2.93 2.506.324 1.244-3.542 1.952-.478-1.42-.69-.554-1.428-.185-.091-.005-1.023.126 2.664-2.407z">
   <title id="t2621">Comal, TX</title>
  </path>
  <path id="FIPS_48209" d="m269.3 273.88 5.075 4.376-.618.554-1.469 1.213-.072.342.104.019.171-.023-1.42 1.334-.324-1.244-2.93-2.506z">
   <title id="t2622">Hays, TX</title>
  </path>
  <path id="FIPS_48055" d="m274.38 278.26.671-.568 3.692 3.7-.023.023-3.56 1.677-2.664-2.727-.171.023-.104-.019.072-.342 1.469-1.213z">
   <title id="t2623">Caldwell, TX</title>
  </path>
  <path id="FIPS_48177" d="m278.72 281.41 1.934 2.042-.69.6.009.941-.446 1.573-4.264 3.471-1.275-1.465-1.226-2.015 2.398-3.47z">
   <title id="t2624">Gonzales, TX</title>
  </path>
  <path id="FIPS_48285" d="m280.65 283.46 3.019-.027.095.027.208.126.608.568 2.591 3.123-1.108.915-3.187 2.551-3.353-4.169.446-1.573-.009-.941z">
   <title id="t2625">Lavaca, TX</title>
  </path>
  <path id="FIPS_48239" d="m286.07 288.19.203.207 3.723 3.674-.176 3.691-2.907-.504-.731.031-1.289-2.394-.811-1.604-.076-.054-1.123-.496z">
   <title id="t2626">Jackson, TX</title>
  </path>
  <path id="FIPS_48321" d="m289.99 292.07 3.893-2.352 1.028-1.065.266.253.068.068.464 1.544.288 1.119.095.32.027.041 2.231 1.758.041.022.685.063-.216.144-.474.302-.211.126-2.556 1.488-.811.41-1.325.577-.879.406-1.623.829-.572.384-.041.026-.771.54-.338.253-.094.149-.027-.094.067-.109 1.834-1.379.28-2.366-.054-.058-.076-.028-.231.032-.517.122-.222.072-.185.147-.216.38-.004-.433z">
   <title id="t2627">Matagorda, TX</title>
  </path>
  <path id="FIPS_48481" d="m292.49 283.87.914 2.218.645 1.199.807.897.351.045-.297.423-1.028 1.065-3.893 2.352-3.723-3.674.405-.229 2.894-1.817.185-.537.54-1.094 1.226-1.262z">
   <title id="t2628">Wharton, TX</title>
  </path>
  <path id="FIPS_48089" d="m287.12 279.22.379.698.459.416.113.102.708.492.112.054.199.04 2.154 2.128.279.302-1.226 1.262-.54 1.094-.185.537-2.894 1.817-.405.229-.203-.207 1.108-.915-2.591-3.123-.608-.568-.208-.126-.095-.027z">
   <title id="t2629">Colorado, TX</title>
  </path>
  <path id="FIPS_48021" d="m278.65 273.45 1.487.856 1.303 1.029.609 2.685-3.304 3.367-3.692-3.7.492-.451 1.307-1.329 1.41-2.679z">
   <title id="t2630">Bastrop, TX</title>
  </path>
  <path id="FIPS_48149" d="m284.63 276.64.289.253.369-.076.374-.132.167-.085.428.284.163.473.103.506.023.287.572 1.074-3.444 4.205-3.019.027-1.934-2.042.023-.023 3.304-3.367z">
   <title id="t2631">Fayette, TX</title>
  </path>
  <path id="FIPS_48287" d="m280.65 272.78 2.141-1.262 1.285 1.632 1.018 1.177 1.262.576-1.726 1.739-2.582 1.384-.609-2.685-1.303-1.029-1.487-.856z">
   <title id="t2632">Lee, TX</title>
  </path>
  <path id="FIPS_48015" d="m286.54 278.15.401-.257 3.276-.391.203.041.514.224.55.195.261.018.118-.14 1.257 4.408-.631 1.622-.974-.414-.279-.302-2.154-2.128-.199-.04-.112-.054-.708-.492-.113-.102-.459-.416-.379-.698z">
   <title id="t2633">Austin, TX</title>
  </path>
  <path id="FIPS_48477" d="m290.16 273.85.122.162.126.09.08.027.605-.207.19-.23.076-.058.149.018.311.328-.049.51.68 1.361-.581 1.992-.118.14-.261-.018-.55-.195-.514-.224-.203-.041-3.276.391-.401.257-.023-.287-.103-.506-.163-.473-.428-.284-.167.085-.374.132-.369.076-.289-.253 1.726-1.739 1.645-.405.325-.091 1.685-.613.099.015z">
   <title id="t2634">Washington, TX</title>
  </path>
  <path id="FIPS_48473" d="m292.45 275.85 3.222-.266.018 2.001-.599-.148-.604-.338-.226-.213-.329-.244.154.497 1.357 4.332-2.317.779-1.257-4.408z">
   <title id="t2635">Waller, TX</title>
  </path>
  <path id="FIPS_48157" d="m293.12 282.25 2.317-.779 4.52 2.659-.419 1.816-1.456 1.456-.383.198-.991-.014-.433-.154-.509.217-.56.582-.351-.045-.807-.897-.645-1.199-.914-2.218z">
   <title id="t2636">Fort Bend, TX</title>
  </path>
  <path id="FIPS_48039" d="m299.96 284.13 2.335.297-.175 1.163 1.293 2.168.73 1.234-.816 1.47.122.095-.068.139-2.83 2.475-1.474.671-.685-.063-.041-.022-2.231-1.758-.027-.041-.095-.32-.288-1.119-.464-1.544-.068-.068-.266-.253.297-.423.56-.582.509-.217.433.154.991.014.383-.198 1.456-1.456z">
   <title id="t2637">Brazoria, TX</title>
  </path>
  <path id="FIPS_48167" d="m311.8 284.31-.334.154-1 .46-.077.036-.049.027-.901.419-.14.066-.405.217-.073.045-.23.145-.135.081-.04.031-.131.1-.095.067-.045.054-.032.027-.081.086-.027.04-.098.149-.046.068-.054.13-.023.051-.342.098-.194.01-.04-.036-.009-.151.18-.229.947-1.014.098-.071.861-.41.577-.199.145-.018.107-.045-.058-.14v-.185zm-7.274.104.518.586 1.849 1.978.896.266-.613.537-.193.149-1.069.734-1.344.924-.081.053-.144.114-.405.31-.072.059-.041.032-.162.153-.121.113-.095.131-.122-.095.816-1.47-.73-1.234-1.293-2.168.175-1.163.541.541 1.122-.578z">
   <title id="t2638">Galveston, TX</title>
  </path>
  <path id="FIPS_48339" d="m295.37 270.62 2.573 1.56 1.195-.005.726-.004.748.049 2.163 2.038.789 2.284-1.123 1.064-.73.69-.329.037-.197-.042-.119-.257-.323-.302-.812-.436-1.41-.748-.528.459-.789.374-.739.149-.244.022-.536.027-.018-2.001z">
   <title id="t2639">Montgomery, TX</title>
  </path>
  <path id="FIPS_48201" d="m295.69 277.58.536-.027.244-.022.739-.149.789-.374.528-.459 1.41.748.812.436.323.302.119.257.197.042.329-.037.73-.69 1.123-1.064 1.339 3.629.572 2.68-.951 1.561-.568-.028-1.122.578-.541-.541-2.335-.297-4.52-2.659-1.357-4.332-.154-.497.329.244.226.213.604.338z">
   <title id="t2640">Harris, TX</title>
  </path>
  <path id="FIPS_48071" d="m310.93 280.03.946.008.123 4.022-.01.17-.185.086-1.744.063-2.348-.374.284-.531.162-.893.004-.117-.036-.253-.333-.657-.122-.136-.063-.023-.573.262-.265.14-1.289 1.062-.572-2.68z">
   <title id="t2641">Chambers, TX</title>
  </path>
  <path id="FIPS_48199" d="m309.65 271.84 5.264-.081-.28.684-.098.298-.122.5.032.18.202.461.036.012.113.118-.203 1.257-.116.163.04 1.042-.072-.073-.826-.275-.156.022-.727.235-.027.036-.009.144.027.204-.031.081-.149.215-.081.045-1.127.24-.176-.033-.311-.162-1.69.036-1.587-4.844z">
   <title id="t2642">Hardin, TX</title>
  </path>
  <path id="FIPS_48291" d="m306.28 272.31 1.297.028 1.587 4.844 1.69-.036.077 2.876-6.021.149-1.339-3.629-.789-2.284z">
   <title id="t2643">Liberty, TX</title>
  </path>
  <path id="FIPS_48245" d="m310.85 277.15.311.162.176.033 1.127-.24.081-.045.149-.215.031-.081-.027-.204.009-.144.027-.036.727-.235.156-.022.826.275.072.073.027.157.234.811.031.035 1.552 1.01.932.24.144.063.172.265.041.104.022.127-.019.293.1 2.875-1.041.167-.276-.005-.513-.005-.617.145-.848.338-2.47 1.135.01-.17-.123-4.022-.946-.008z">
   <title id="t2644">Jefferson, TX</title>
  </path>
  <path id="FIPS_48361" d="m318.94 275.29-.008 2.491-1.285 1.791.019-.293-.022-.127-.041-.104-.172-.265-.144-.063-.932-.24-1.552-1.01-.031-.035-.234-.811-.027-.157-.04-1.042 2.406-.064z">
   <title id="t2645">Orange, TX</title>
  </path>
  <path id="FIPS_48453" d="m269.86 273 .897-2.533 1.032-.031.437.31.528.762.197.947.411.347.352.117.256-.009.753-.265 1.037-.5h.225l.707.224 1.573.868-1.41 2.679-1.307 1.329-.492.451-.671.568-5.075-4.376z">
   <title id="t2646">Travis, TX</title>
  </path>
  <path id="FIPS_48263" d="m245.09 233.71-.284 5.625-1.474-.076-4.115-.298.293-5.522z">
   <title id="t2647">Kent, TX</title>
  </path>
  <path id="FIPS_48267" d="m254.89 268.88-.104 2.718 2.006.068-.077 2.745-5.03-.235-4.034-.166.239-5.405z">
   <title id="t2648">Kimble, TX</title>
  </path>
  <path id="FIPS_48435" d="m247.89 268.61-.239 5.405-6.499-.276-2.893-.139.279-5.381z">
   <title id="t2649">Sutton, TX</title>
  </path>
  <path id="FIPS_48413" d="m241.78 263.47 6.323.275-.221 4.867-9.352-.391.234-4.85z">
   <title id="t2650">Schleicher, TX</title>
  </path>
  <path id="FIPS_48327" d="m248.11 263.74 5.643.238 1.235 1.939-.099 2.965-7-.275z">
   <title id="t2651">Menard, TX</title>
  </path>
  <path id="FIPS_48319" d="m254.99 265.92 4.336.148 1.401.298-.162 5.448-3.772-.143-2.006-.068.104-2.718z">
   <title id="t2652">Mason, TX</title>
  </path>
  <path id="FIPS_48299" d="m260.72 266.36 5.734.162.734 1.155.049 3.366.141 1.118-2.682-.249-4.138-.104z">
   <title id="t2653">Llano, TX</title>
  </path>
  <path id="FIPS_48053" d="m272.39 265.2.884 1.676-2.524 3.588-.897 2.533-2.474-.829-.141-1.118-.049-3.366-.734-1.155.103-1.392z">
   <title id="t2654">Burnet, TX</title>
  </path>
  <path id="FIPS_48491" d="m273.28 266.87 1.915.425.329.081 3.399 1.572 1.73 3.826-2.001.676-.388-.222-1.573-.868-.707-.224h-.225l-1.037.5-.753.265-.256.009-.352-.117-.411-.347-.197-.947-.528-.762-.437-.31-1.032.031z">
   <title id="t2655">Williamson, TX</title>
  </path>
  <path id="FIPS_48051" d="m286.61 269.31.594.455-.063.082-.315.594v.036l1.028.245.946.441 1.195 1.704.166.978-.05-.04-.099-.015-1.685.613-.325.091-1.645.405-1.262-.576-1.018-1.177-1.285-1.632z">
   <title id="t2656">Burleson, TX</title>
  </path>
  <path id="FIPS_48407" d="m300.93 267.64 1.416.443.761.793 2.813 2.696.356.738-3.498 1.948-2.163-2.038z">
   <title id="t2657">San Jacinto, TX</title>
  </path>
  <path id="FIPS_48471" d="m299.73 265.1 1.198 2.549-.315 4.58-.748-.049-.726.004-1.195.005-2.573-1.56-.365-3.011 2.708-.865z">
   <title id="t2658">Walker, TX</title>
  </path>
  <path id="FIPS_48185" d="m291.63 268.14 3.38-.527.365 3.011.297 4.958-3.222.266-.68-1.361.779-1.159-.396-.275-.082-.144-.126-.233-.518-1.737.094-1.334z">
   <title id="t2659">Grimes, TX</title>
  </path>
  <path id="FIPS_48041" d="m291.63 268.14-.109 1.465-.094 1.334.518 1.737.126.233.082.144.396.275-.779 1.159.049-.51-.311-.328-.149-.018-.076.058-.19.23-.605.207-.08-.027-.126-.09-.122-.162-.166-.978-1.195-1.704-.946-.441-1.028-.245v-.036l.315-.594.063-.082 1.227-.621.302-.527.22-.51.248-.472.298-.465.139-.181.181-.157.329-.226.451-.298.234-.112z">
   <title id="t2660">Brazos, TX</title>
  </path>
  <path id="FIPS_48313" d="m290.83 266.2.766-.266.996-.662 1.163-.595 2.335-.032 1.626 2.105-2.708.865-3.38.527z">
   <title id="t2661">Madison, TX</title>
  </path>
  <path id="FIPS_48289" d="m296.35 259.35.113.189.203.455.491 1.405-.247.628-.046-.009-.094.054-.248.279-.554 1.752.013.168.113.37-2.335.032-1.163.595-.996.662-.766.266-.848-4.953.911-.722 4.931-2.644z">
   <title id="t2662">Leon, TX</title>
  </path>
  <path id="FIPS_48395" d="m286.92 262.99 3.064-1.744.848 4.953-.234.112-.451.298-.329.226-.181.157-.139.181-.298.465-.248.472-.22.51-.302.527-1.227.621-.594-.455-.532-1.338-.951-1.217-.645-1.884-.131-.419z">
   <title id="t2663">Robertson, TX</title>
  </path>
  <path id="FIPS_48331" d="m284.35 264.45.131.419.645 1.884.951 1.217.532 1.338-3.818 2.204-2.141 1.262-1.73-3.826.649-1.759 2.105-1.22z">
   <title id="t2664">Milam, TX</title>
  </path>
  <path id="FIPS_48027" d="m277.89 261.61 1.537.542 2.25 3.817-2.105 1.22-.649 1.759-3.399-1.572-.329-.081-1.915-.425-.884-1.676.059-.442z">
   <title id="t2665">Bell, TX</title>
  </path>
  <path id="FIPS_48099" d="m275.89 258.13 1.992 3.488-5.435 3.142-2.894-5.157 4.589-2.6z">
   <title id="t2666">Coryell, TX</title>
  </path>
  <path id="FIPS_48281" d="m268.54 260.19 1.014-.591 2.894 5.157-.059.442-5.832-.063-1.284-2.628z">
   <title id="t2667">Lampasas, TX</title>
  </path>
  <path id="FIPS_48333" d="m266.52 256.68 2.028 3.507-3.267 2.317-.028-.154-.419-.915-1.447-1.27-.351.333-2.131-.802-.285-.374.041-.23.568-.357 1.803-1.207.248-.987 1.004-.135z">
   <title id="t2668">Mills, TX</title>
  </path>
  <path id="FIPS_48411" d="m260.66 259.1-.041.23.285.374 2.131.802.351-.333 1.447 1.27.419.915.028.154 1.284 2.628-.103 1.392-5.734-.162-1.401-.298.238-6.706z">
   <title id="t2669">San Saba, TX</title>
  </path>
  <path id="FIPS_48307" d="m258.33 259.24 1.23.122-.238 6.706-4.336-.148-1.235-1.939.212-5.218.712.139.996.154 2.118.053z">
   <title id="t2670">McCulloch, TX</title>
  </path>
  <path id="FIPS_48095" d="m252.69 257.62 1.271 1.146-.212 5.218-5.643-.238.32-6.346z">
   <title id="t2671">Concho, TX</title>
  </path>
  <path id="FIPS_48451" d="m240.68 255.53 6.446.346 1.302 1.516-.32 6.346-6.323-.275.234-5.638-3.263-.217-3.033-.176.022-.356 4.412.158.141-1.843z">
   <title id="t2672">Tom Green, TX</title>
  </path>
  <path id="FIPS_48081" d="m240.98 250.5 1.699.104 4.683.256-.234 5.025-6.446-.346z">
   <title id="t2673">Coke, TX</title>
  </path>
  <path id="FIPS_48399" d="m248.27 250.89 4.764.207-.338 6.517-4.264-.22-1.302-1.516.234-5.025z">
   <title id="t2674">Runnels, TX</title>
  </path>
  <path id="FIPS_48083" d="m253.93 251.14 4.742.195-.343 7.9-.541-.131-2.118-.053-.996-.154-.712-.139-1.271-1.146.338-6.517z">
   <title id="t2675">Coleman, TX</title>
  </path>
  <path id="FIPS_48049" d="m259.52 251.36 2.115.086 2.649 4.958-1.004.135-.248.987-1.803 1.207-.568.357-1.096.266-1.23-.122.343-7.9z">
   <title id="t2676">Brown, TX</title>
  </path>
  <path id="FIPS_48093" d="m265.76 249.2 2.331 4.199.843-.481.45.82.542.991-3.408 1.956-2.236-.274-2.649-4.958z">
   <title id="t2677">Comanche, TX</title>
  </path>
  <path id="FIPS_48193" d="m269.38 253.74 2.245-1.249 2.52 4.512-4.589 2.6-1.014.591-2.028-3.507 3.408-1.956z">
   <title id="t2678">Hamilton, TX</title>
  </path>
  <path id="FIPS_48035" d="m275.92 250.17 1.505.414-.122.798-.077.671.059.546 1.731 3.119.131.202.364.226-3.619 1.983-1.748-1.127-2.52-4.512 1.546-.865z">
   <title id="t2679">Bosque, TX</title>
  </path>
  <path id="FIPS_48145" d="m284.7 259.08 2.218 3.908-2.57 1.465-2.676 1.519-2.25-3.817z">
   <title id="t2680">Falls, TX</title>
  </path>
  <path id="FIPS_48309" d="m283.29 256.66 1.415 2.42-5.278 3.075-1.537-.542-1.992-3.488 3.619-1.983 2.646-1.487z">
   <title id="t2681">McLennan, TX</title>
  </path>
  <path id="FIPS_48217" d="m277.43 250.58 4.254-1.131 2.047 2.497 1.902 3.366-2.344 1.348-1.127-2.005-2.646 1.487-.364-.226-.131-.202-1.731-3.119-.059-.546.077-.671z">
   <title id="t2682">Hill, TX</title>
  </path>
  <path id="FIPS_48293" d="m285.63 255.31 2.429.257 2.835 4.953-.911.722-3.064 1.744-2.218-3.908-1.415-2.42z">
   <title id="t2683">Limestone, TX</title>
  </path>
  <path id="FIPS_48161" d="m292.92 252.87-.098.603.968 1.798.699.704.37.136.874 1.031.095.736-4.931 2.644-2.835-4.953 4.836-2.785z">
   <title id="t2684">Freestone, TX</title>
  </path>
  <path id="FIPS_48349" d="m283.73 251.95 5.597-3.255 1.024.473.595.542.387.464.924 1.118.505.752.135.744-4.836 2.785-2.429-.257z">
   <title id="t2685">Navarro, TX</title>
  </path>
  <path id="FIPS_48425" d="m272.33 249.72 3.61-1.037-.022 1.487-2.75 1.455z">
   <title id="t2686">Somervell, TX</title>
  </path>
  <path id="FIPS_48139" d="m281.72 245.78.528.019 5.508.091.833 2.415.739.391-5.597 3.255-2.047-2.497z">
   <title id="t2687">Ellis, TX</title>
  </path>
  <path id="FIPS_48251" d="m275.98 245.62.72.014 5.021.143-.036 3.674-4.254 1.131-1.505-.414.022-1.487z">
   <title id="t2688">Johnson, TX</title>
  </path>
  <path id="FIPS_48221" d="m271.11 245.48 4.868.14-.032 3.061-3.61 1.037-1.258-3.624z">
   <title id="t2689">Hood, TX</title>
  </path>
  <path id="FIPS_48143" d="m271.08 246.09 1.258 3.624.838 1.905-1.546.865-2.245 1.249-.45-.82-.843.481-2.331-4.199.911-3.232z">
   <title id="t2690">Erath, TX</title>
  </path>
  <path id="FIPS_48133" d="m259.94 245.74 5.629.167 1.095.054-.911 3.232-4.127 2.253-2.115-.086.23-5.626z">
   <title id="t2691">Eastland, TX</title>
  </path>
  <path id="FIPS_48059" d="m254.36 245.55 5.39.188-.23 5.626-.842-.026-4.742-.195.235-5.602z">
   <title id="t2692">Callahan, TX</title>
  </path>
  <path id="FIPS_48441" d="m254.17 245.54-.235 5.602-.901-.045-4.764-.207.306-5.683z">
   <title id="t2693">Taylor, TX</title>
  </path>
  <path id="FIPS_48353" d="m248.57 245.21-.306 5.683-.906-.037-4.683-.256.329-5.678z">
   <title id="t2694">Nolan, TX</title>
  </path>
  <path id="FIPS_48151" d="m244.81 239.34 4.034.225-.271 5.648-5.566-.288.329-5.661z">
   <title id="t2695">Fisher, TX</title>
  </path>
  <path id="FIPS_48253" d="m248.84 239.56 1.672.068 4.056.203-.216 5.719-.189-.009-5.594-.333z">
   <title id="t2696">Jones, TX</title>
  </path>
  <path id="FIPS_48417" d="m254.57 239.83 1.519.055 4.039.139-.185 5.719-.199-.006-5.39-.188z">
   <title id="t2697">Shackelford, TX</title>
  </path>
  <path id="FIPS_48429" d="m261.69 240.08 4.042.148-.162 5.684-5.629-.167.185-5.719z">
   <title id="t2698">Stephens, TX</title>
  </path>
  <path id="FIPS_48363" d="m267.36 239.58 3.989.153-.239 5.746-.032.614-4.408-.127-1.095-.054.162-5.684z">
   <title id="t2699">Palo Pinto, TX</title>
  </path>
  <path id="FIPS_48367" d="m271.35 239.73 1.447.058 4.065.162-.163 5.68-.72-.014-4.868-.14z">
   <title id="t2700">Parker, TX</title>
  </path>
  <path id="FIPS_48439" d="m276.86 239.95 1.568.077 3.944.121-.126 5.644-.528-.019-5.021-.143z">
   <title id="t2701">Tarrant, TX</title>
  </path>
  <path id="FIPS_48113" d="m282.37 240.15 2.019-.017 3.534.094-.036 2.182-.135 3.476-5.508-.091z">
   <title id="t2702">Dallas, TX</title>
  </path>
  <path id="FIPS_48397" d="m290.29 240.25-.006 1.811-2.397.353.036-2.182z">
   <title id="t2703">Rockwall, TX</title>
  </path>
  <path id="FIPS_48257" d="m290.28 242.06 2.381.046.004 6.224-4.084-.026-.833-2.415.135-3.476z">
   <title id="t2704">Kaufman, TX</title>
  </path>
  <path id="FIPS_48379" d="m294.97 240.28 2.127.243.333 3.106-3.231-1.506z">
   <title id="t2705">Rains, TX</title>
  </path>
  <path id="FIPS_48467" d="m294.2 242.12 3.231 1.506.442.429.019 2.68 1.333 1.42.244.186-6.801-.015-.004-6.224z">
   <title id="t2706">Van Zandt, TX</title>
  </path>
  <path id="FIPS_48213" d="m292.67 248.33 6.801.015-.099 2.84.346.657-6.801 1.032-.022-.086-.135-.744-.505-.752-.924-1.118-.387-.464-.595-.542-1.024-.473-.739-.391z">
   <title id="t2707">Henderson, TX</title>
  </path>
  <path id="FIPS_48001" d="m299.72 251.84-.193 1.754.176.931.406 1.461.765.698.149.032.249.302.153.32.157.5.032.127-.153.216-2.408.375-1.739.306-.965.491-.522-1.473-.095-.736-.874-1.031-.37-.136-.699-.704-.968-1.798.098-.603z">
   <title id="t2708">Anderson, TX</title>
  </path>
  <path id="FIPS_48225" d="m296.35 259.35.965-.491 1.739-.306 2.408-.375.703.271 1.09 1.117 1.19.735.505.501-5.214 4.291-2.016 1.653-1.626-2.105-.113-.37-.013-.168.554-1.752.248-.279.094-.054.046.009.247-.628-.491-1.405-.203-.455z">
   <title id="t2709">Houston, TX</title>
  </path>
  <path id="FIPS_48455" d="m306.25 263.89-3.903 4.197-1.416-.443-1.198-2.549 5.214-4.291z">
   <title id="t2710">Trinity, TX</title>
  </path>
  <path id="FIPS_48373" d="m309.36 264.98-1.055.626 1.339 6.234-2.074.505-1.297-.028-.356-.738-2.813-2.696-.761-.793 3.903-4.197 1.252.524.961.202z">
   <title id="t2711">Polk, TX</title>
  </path>
  <path id="FIPS_48351" d="m319.94 263.26.513-.135.041 4.088-.199.865-1.582 2.979-.126.451v.005l.032.034.311.375.157.804-.004.067-.045.112-.425.357-.012.012.341 2.025-2.063.071.167-5.475.027-3.616-.56-2.704z">
   <title id="t2712">Newton, TX</title>
  </path>
  <path id="FIPS_48241" d="m315.11 263.9 1.406-.334.56 2.704-.027 3.616-.167 5.475-2.406.064.116-.163.203-1.257-.113-.118-.036-.012-.202-.461-.032-.18.122-.5.098-.298.28-.684-.167-.271-.116-.379.03-.099.249-.479-.054-.517-.788-1.564-.1-.085-.249-.036-.067-.014-.026-.031-.744-2.169.076-.432-.04-.103-.131-.136-.514-.198-.654.018-1.099.031 3.606-.915z">
   <title id="t2713">Jasper, TX</title>
  </path>
  <path id="FIPS_48457" d="m310.52 265.29 1.099-.031.654-.018.514.198.131.136.04.103-.076.432.744 2.169.026.031.067.014.249.036.1.085.788 1.564.054.517-.249.479-.03.099.116.379.167.271-5.264.081-1.339-6.234 1.055-.626z">
   <title id="t2714">Tyler, TX</title>
  </path>
  <path id="FIPS_48005" d="m305.94 258.99.468.518 2.037.523.492-.081.432.181.582.305.14.15 1.829 2.217 2.205 1.577-3.606.915-1.154-.315-.901-.361-.961-.202-1.252-.524-1.303-3.086-.505-.501z">
   <title id="t2715">Angelina, TX</title>
  </path>
  <path id="FIPS_48403" d="m317.23 258.02 1.185 1.245 1.01 1.465.329 1.434.076.423.114.667-3.427.315-1.406.334-.094-.302-.04-1.798.009-1.456.468-.504.184-.235-.044-1.329z">
   <title id="t2716">Sabine, TX</title>
  </path>
  <path id="FIPS_48405" d="m315.59 258.28.044 1.329-.184.235-.468.504-.009 1.456.04 1.798.094.302-.986.473-2.205-1.577.059-1.541.081-2.944-.766-.856-.261-.181 3.385.361z">
   <title id="t2717">San Augustine, TX</title>
  </path>
  <path id="FIPS_48419" d="m309.73 253.16 5.408-.175 1.537 1.717.55 3.32-1.636.259-1.176-.641-3.385-.361-.627-2.456z">
   <title id="t2718">Shelby, TX</title>
  </path>
  <path id="FIPS_48347" d="m305.11 254.88 5.295-.059.627 2.456.261.181.766.856-.081 2.944-.059 1.541-1.829-2.217-.14-.15-.582-.305-.432-.181-.492.081-2.037-.523-.468-.518-.596-.587-.053-.085-.27-.734-.2-.744-.117-1.155z">
   <title id="t2719">Nacogdoches, TX</title>
  </path>
  <path id="FIPS_48073" d="m299.37 251.18 5.17-.074.568 3.773-.407.801.117 1.155.2.744.27.734.053.085.596.587-1.497 1.316-1.19-.735-1.09-1.117-.703-.271.153-.216-.032-.127-.157-.5-.153-.32-.249-.302-.149-.032-.765-.698-.406-1.461-.176-.931.193-1.754-.346-.657">
   <title id="t2720">Cherokee, TX</title>
  </path>
  <path id="FIPS_48365" d="m314.74 247.66.055 2.537.351 2.786-5.408.175-.964.023-.037-1.379.211-1.596.239-.596.347-.612.326-.789.008-.491.311.275 1.176.505.091.017z">
   <title id="t2721">Panola, TX</title>
  </path>
  <path id="FIPS_48401" d="m308.91 247.73.951-.008-.008.491-.326.789-.347.612-.239.596-.211 1.596.037 1.379.964-.023.671 1.663-5.295.059-.568-3.773-.041-2.992 1.916-.041 1.798-.018z">
   <title id="t2722">Rusk, TX</title>
  </path>
  <path id="FIPS_48183" d="m304.46 245.94.176-.018 1.632-.699.644-.896.081-.036.509.058.032.063.04 2.579.014.387.645.311.572.075.108-.04-.698.33-1.798.018-1.916.041z">
   <title id="t2723">Gregg, TX</title>
  </path>
  <path id="FIPS_48423" d="m297.88 244.06.979.877.31.136 3.114.78.078-.009.207-.101.099-.201 1.798.405.041 2.173.041 2.992-5.17.074.099-2.84-.244-.186-1.333-1.42z">
   <title id="t2724">Smith, TX</title>
  </path>
  <path id="FIPS_48499" d="m302.62 239.8.013 1.437.027 4.3-.099.201-.207.101-.078.009-3.114-.78-.31-.136-.979-.877-.442-.429-.333-3.106 3.84-.049z">
   <title id="t2725">Wood, TX</title>
  </path>
  <path id="FIPS_48203" d="m307.51 242.6 2.127 1.252 1.326-.012.356-.181 1.285-.166.76-.063.551.067.739.275.085 3.89-3.294.855-.091-.017-1.176-.505-.311-.275-.951.008-.108.04-.572-.075-.645-.311-.014-.387-.04-2.579z">
   <title id="t2726">Harrison, TX</title>
  </path>
  <path id="FIPS_48459" d="m302.64 241.24 4.66-.082.158.329.054 1.114.027 1.816-.032-.063-.509-.058-.081.036-.644.896-1.632.699-.176.018-1.798-.405z">
   <title id="t2727">Upshur, TX</title>
  </path>
  <path id="FIPS_48063" d="m302.62 239.8.279-.276.919-.501.239-.046.194-.003.635.01.145.049.572.708.604.414 1.086 1-4.66.082z">
   <title id="t2728">Camp, TX</title>
  </path>
  <path id="FIPS_48315" d="m308.01 241.47 6.594-.136.045 2.434-.739-.275-.551-.067-.76.063-1.285.166-.356.181-1.326.012-2.127-1.252-.054-1.114z">
   <title id="t2729">Marion, TX</title>
  </path>
  <path id="FIPS_48067" d="m307.96 236.43.027.124.09.072.361.071 4.043.023.023-.037-.037-.117-.031-.27.172-.306.337-.117.266-.06.969.155.225.116.091.203.068 3.259.04 1.789-6.594.136z">
   <title id="t2730">Cass, TX</title>
  </path>
  <path id="FIPS_48343" d="m306.26 235.22.673.442 1.027.765.05 5.041-.559.012-.158-.329-1.086-1z">
   <title id="t2731">Morris, TX</title>
  </path>
  <path id="FIPS_48449" d="m306.26 235.22-.053 4.931-.604-.414-.572-.708-.145-.049-.635-.01-.194.003-.239.046-.919.501-.037-4.596z">
   <title id="t2732">Titus, TX</title>
  </path>
  <path id="FIPS_48159" d="m302.86 234.93.037 4.596-.279.276-1.682.671-.036-5.364.022-.017z">
   <title id="t2733">Franklin, TX</title>
  </path>
  <path id="FIPS_48223" d="m294.98 237.17.884-.524.482-.563 1.334-.609.257-.108.55-.018 2.42-.243.036 5.364-3.84.049-2.127-.243z">
   <title id="t2734">Hopkins, TX</title>
  </path>
  <path id="FIPS_48119" d="m295.02 234.04.834-.388.198-.054 1.487.108.208.032 1.176.369.208.09 1.086.739.689.126.022.033-.022.017-2.42.243-.55.018-.257.108-1.334.609-.482.563-.884.524.028-2.465z">
   <title id="t2735">Delta, TX</title>
  </path>
  <path id="FIPS_48231" d="m295 234.71-.028 2.465-.004 3.105-.771 1.843-1.536-.018-2.381-.046.006-1.811.035-4.795z">
   <title id="t2736">Hunt, TX</title>
  </path>
  <path id="FIPS_48085" d="m284.55 234.72 4.819.13.955.596-.035 4.795-2.367-.018-3.534-.094z">
   <title id="t2737">Collin, TX</title>
  </path>
  <path id="FIPS_48121" d="m278.68 234.33 4.706.239 1.171.153-.162 5.409-2.019.017-3.944-.121z">
   <title id="t2738">Denton, TX</title>
  </path>
  <path id="FIPS_48497" d="m272.95 234.19 4.616.085 1.113.059-.248 5.697-1.568-.077-4.065-.162z">
   <title id="t2739">Wise, TX</title>
  </path>
  <path id="FIPS_48237" d="m267.57 233.64 4.736.108.644.442-.152 5.602-1.447-.058-3.989-.153.194-5.025z">
   <title id="t2740">Jack, TX</title>
  </path>
  <path id="FIPS_48503" d="m261.84 234.37 5.715.181-.194 5.025-1.623.648-4.042-.148z">
   <title id="t2741">Young, TX</title>
  </path>
  <path id="FIPS_48447" d="m256.28 234.17 5.553.207-.144 5.706-1.564-.054-4.039-.139z">
   <title id="t2742">Throckmorton, TX</title>
  </path>
  <path id="FIPS_48207" d="m250.73 233.97 5.553.194-.194 5.72-1.519-.055-4.056-.203z">
   <title id="t2743">Haskell, TX</title>
  </path>
  <path id="FIPS_48433" d="m245.09 233.71 5.638.262-.216 5.656-1.672-.068-4.034-.225z">
   <title id="t2744">Stonewall, TX</title>
  </path>
  <path id="FIPS_48125" d="m239.79 227.79 5.562.252-.257 5.665-5.58-.271z">
   <title id="t2745">Dickens, TX</title>
  </path>
  <path id="FIPS_48345" d="m240.11 221.59 1.01.049 4.539.21-.311 6.195-5.562-.252z">
   <title id="t2746">Motley, TX</title>
  </path>
  <path id="FIPS_48191" d="m245.68 216.22 1.316.067-.284 5.621-1.05-.056-4.539-.21.307-5.638z">
   <title id="t2747">Hall, TX</title>
  </path>
  <path id="FIPS_48129" d="m245.97 210.58-.288 5.643-4.25-.216-1.533-.082.347-5.619z">
   <title id="t2748">Donley, TX</title>
  </path>
  <path id="FIPS_48179" d="m240.55 204.64 5.675.284-.257 5.656-5.724-.274z">
   <title id="t2749">Gray, TX</title>
  </path>
  <path id="FIPS_48393" d="m240.86 198.98v-.031l5.575.297.068.004-.275 5.671-5.675-.284.005-.081z">
   <title id="t2750">Roberts, TX</title>
  </path>
  <path id="FIPS_48357" d="m242.52 193.29 4.196.211-.28 5.747-5.575-.297.311-5.728z">
   <title id="t2751">Ochiltree, TX</title>
  </path>
  <path id="FIPS_48295" d="m246.71 193.5 5.58.249-.212 5.765-5.58-.263-.068-.004z">
   <title id="t2752">Lipscomb, TX</title>
  </path>
  <path id="FIPS_48211" d="m252.08 199.51-.095 2.266-.139 3.399-5.621-.257.275-5.671z">
   <title id="t2753">Hemphill, TX</title>
  </path>
  <path id="FIPS_48483" d="m246.22 204.92 5.621.257-.239 5.661-5.639-.262z">
   <title id="t2754">Wheeler, TX</title>
  </path>
  <path id="FIPS_48087" d="m245.97 210.58 5.639.262-.086 1.974-.153 3.682-4.372-.208-1.316-.067z">
   <title id="t2755">Collingsworth, TX</title>
  </path>
  <path id="FIPS_48075" d="m247 216.29 4.372.208-.072 2.398-.14 3.236-4.444-.221z">
   <title id="t2756">Childress, TX</title>
  </path>
  <path id="FIPS_48101" d="m245.66 221.85 1.05.056 4.444.221-.045 1.132-.118-.231-.297.028-.104.113-.234 5.096-5.007-.22z">
   <title id="t2757">Cottle, TX</title>
  </path>
  <path id="FIPS_48269" d="m245.35 228.05 5.007.22.555.028-.181 5.679-5.638-.262z">
   <title id="t2758">King, TX</title>
  </path>
  <path id="FIPS_48275" d="m256.42 229.84-.135 4.332-5.553-.194.181-5.679 1.712.072 1.438.279 1.636.361.541.383.153.279z">
   <title id="t2759">Knox, TX</title>
  </path>
  <path id="FIPS_48155" d="m251.11 223.26 1.929 1.491 2.74.884.636-.105.121-.126.041-.126-.122 3.255-.036 1.302-.027-.167-.153-.279-.541-.383-1.636-.361-1.438-.279-1.712-.072-.555-.028.234-5.096.104-.113.297-.028z">
   <title id="t2760">Foard, TX</title>
  </path>
  <path id="FIPS_48197" d="m252.84 219.66.55.713.266.315.739.703.325.077h.09l.41-.004.411-.519.058-.022.117.017.505.059.162.068.262.153-.158 4.056-.041.126-.121.126-.636.105-2.74-.884-1.929-1.491.045-1.132.14-3.236z">
   <title id="t2761">Hardeman, TX</title>
  </path>
  <path id="FIPS_48009" d="m262.02 228.72 5.642.135-.098 4.782-.014.916-5.715-.181z">
   <title id="t2762">Archer, TX</title>
  </path>
  <path id="FIPS_48023" d="m262.02 228.72-.185 5.652-5.553-.207.135-4.332.036-1.302z">
   <title id="t2763">Baylor, TX</title>
  </path>
  <path id="FIPS_48487" d="m259.49 222.12-.013.298-.009.28.184 1v.004l.005.006.135.04.216.067.397.09.198-.009.428-.008.978.077h.014l.149.075-.153 4.684-5.567-.189.122-3.255.158-4.056.347.329.356.031.081-.035h.009l.014-.023.004-.01.455-.815.464.252.528.284.5.87z">
   <title id="t2764">Wilbarger, TX</title>
  </path>
  <path id="FIPS_48485" d="m265.79 224.59.108.008.235.155.243.207.504.811.303.109.004.004.009-.009.568-.51-.104 3.489-5.642-.135.153-4.684.982.587.978.239.694.026z">
   <title id="t2765">Wichita, TX</title>
  </path>
  <path id="FIPS_48077" d="m271.1 226.38.185.37.027.027.018.004.451.135h.23l.013-.004.37-.09.397.157.004.005-.095.689-.275.595-.126 5.481-4.736-.108.098-4.782.104-3.489.428-.541.207-.117.406.091 1.65.518z">
   <title id="t2766">Clay, TX</title>
  </path>
  <path id="FIPS_48337" d="m277.69 228.03-.131 6.246-4.616-.085-.644-.442.126-5.481.118.109.941.429.127.012.333-.099.532-.419.559-.581.365-.46 1.086.725.383.267z">
   <title id="t2767">Montague, TX</title>
  </path>
  <path id="FIPS_48097" d="m283.44 227.67-.058 6.901-4.706-.239-1.113-.059.131-6.246.211.964.028.067.009.023v.005l.063.076.094.063 3.106 1.357.149.05.171.022.153-.049.108-.086.05-.067z">
   <title id="t2768">Cooke, TX</title>
  </path>
  <path id="FIPS_48147" d="m295.16 229.12-.144 4.913-.013.672-4.679.743-.955-.596.072-4.272.103.141 1.591-.393.221-.059.194-.083.013-.016.1-.104.013-.017.005-.009.027-.086.031-.099.009-.036.005-.032.067-.311.09-.316.541-.125 1.199-.1.23-.017.145-.015.617.122z">
   <title id="t2769">Fannin, TX</title>
  </path>
  <path id="FIPS_48181" d="m283.54 227.61.541 1.112.175.196.108.075 1.006.308.518-.087.009-.004 1.068-.482-.036.207.009.159.009.062.009.031 1.095.735.099.068h.014l.546-.104.126.014.14.045v.004l.464.631-.072 4.272-4.819-.13-1.171-.153.058-6.901z">
   <title id="t2770">Grayson, TX</title>
  </path>
  <path id="FIPS_48277" d="m300.84 228.7.067 6.359-.689-.126-1.086-.739-.208-.09-1.176-.369-.208-.032-1.487-.108-.198.054-.834.388.144-4.913.915-.343.004-.004.893-.465.78-.405.346.018.081.032.113.288-.003.086-.032.091.003.066v.009l.042.072.04.036 1.055.14.4.032.722-.036h.005z">
   <title id="t2771">Lamar, TX</title>
  </path>
  <path id="FIPS_48007" d="m279.07 303.36.222.181.036.005 1.023-.496 1.447-1.091.071-.194-.238-.008-.248-.036-.438-.262-.256-.343-.018-.262 3.795-.553-.095.594.135.217v.072l-.153.333-.113.086-1.437 1.181-.32.004-.997 1.29-1.004 1.523zm4.932-.409-.28.648-2.226 2.849-.059-.163z">
   <title id="t2772">Aransas, TX</title>
  </path>
  <path id="FIPS_48061" d="m271.76 325.33 3.894.69 1.258-.838.455-.565.055.028.54.757-.031 1.082.405 2.01.865 1.439.028.031-.136.441-2.131 1.277-1.037-.317-.163-.099-.161-.125-.668-.528-.982-1.095-.041-.145-1.334-.233-.888-.154zm7.261-.689h.198l.32 1.343.1.505.135.951.203 1.605-.054-.01-.032-.004-.094-.131-.104-.869.013-.397-.054-.474-.113-.729-.225-1.05-.135-.41z">
   <title id="t2773">Cameron, TX</title>
  </path>
 </g>
</svg>