<svg id="svg9559" width="555.22" height="351.67" xmlns="http://www.w3.org/2000/svg" viewBox="110.01500701904297 106.93000030517578 57.56499481201172 72.05799102783203">
 <g id="stylegroup" fill="#d0d0d0" stroke="#000" stroke-width=".1">
  <path id="FIPS_49037" d="m163.04 159.64-.442 4.493-.483 3.498-.716 5.101-.883 6.256-9.677-1.375-3.34-.505-1.649-.325-2.583-.391-6.693-1.05.311.027.744.018 3.448-.766.342-.117.717-.622 1.978-1.871.172-.271 1.109-2.091 2.294-2.686 2.055-1.122 1.776-1.398 1.275-1.098.059-.037.915-.424.293-.307.103-.648-.013-.545-.496-2.831-.009-.045-.184-.243z">
   <title id="t2774">San Juan, UT</title>
  </path>
  <path id="FIPS_49017" d="m128.4 158.85.352.027 3.799.666.239.072.487.1.355.053 1.087.119 4.254.72 2.84.434 11.953 1.842-.915.424-.059.037-1.275 1.098-1.776 1.398-2.055 1.122-2.294 2.686-11.971-1.924-.05.032-.086.004-5.079-.883-1.366-.32-1.838-.33.365-2.383.171-.989 1.276-.783.793.031.324.054.207-1.112z">
   <title id="t2775">Garfield, UT</title>
  </path>
  <path id="FIPS_49029" d="m145.65 119.41.856.292.695 1.948-.059.235-.095.18-.117.149-.252.22-1.055.175-1.6.55-.185.112-.167.155-.441.436-.019.082.01.271.031.067.054.045.41.523.285.721.031.194-.527.793-.14.063-.162.031-.086-.013-.757-.369-.802-.952-.528-3.75-.112-.447.063-.201.211-.094.546-.159.23.027.257.081.067.185.167.225.288.127.28-.023 1.582-.297.333-.258.302-.31.095-.19z">
   <title id="t2776">Morgan, UT</title>
  </path>
  <path id="FIPS_49011" d="m141.03 121.56.528 3.75-.158.073-.266.076-.915.144-.442-.076-.238-.045.008-1.077.041-.226-.46-.077-1.464.7-1.316.779-1.519-4.263 2.447-.392.613-.078 1.501.261z">
   <title id="t2777">Davis, UT</title>
  </path>
  <path id="FIPS_49057" d="m144.93 118.48.726.929-.311.824-.095.19-.302.31-.333.258-1.582.297-.28.023-.288-.127-.167-.225-.067-.185-.257-.081-.23-.027-.546.159-.211.094-.063.201.112.447-1.64-.451-1.501-.261-.613.078-2.447.392 3.006-2.902 1.987.341.69-.256.861-.663.054.293.05.089.928.541.158.02z">
   <title id="t2778">Weber, UT</title>
  </path>
  <path id="FIPS_49033" d="m150.52 111.78-1.532 9.615-2.303 1.041.252-.22.117-.149.095-.18.059-.235-.695-1.948-.856-.292-.726-.929 1.01-1.549.509-1.241.004-.062-.085-3.557-.189-.97z">
   <title id="t2779">Rich, UT</title>
  </path>
  <path id="FIPS_49005" d="m139.99 110.1.515.082 5.674.918.189.97.085 3.557-.004.062-.509 1.241-1.01 1.549-2.361.308-.158-.02-.928-.541-.05-.089-.054-.293-.032-.934-.013-.435-.172-.307-.04-.036-.478-.091-.085-1.703.175-1.105.113-.513-.095-.745-.225-.553-.289-.379z">
   <title id="t2780">Cache, UT</title>
  </path>
  <path id="FIPS_49003" d="m122.35 106.93.627.158.753.18.112.022.802.14.298.049 3.132.533.275.045 3.777.639 2.745.464 2.429.42 1.992.344h.005l.689.178.248.943.289.379.225.553.095.745-.113.513-.175 1.105.085 1.703.478.091.04.036.172.307.013.435.032.934-.861.663-.69.256-1.987-.341-3.006 2.902-3.088.463-11.831-2.189z">
   <title id="t2781">Box Elder, UT</title>
  </path>
  <path id="FIPS_49009" d="m167.58 127.46-.604 4.467-.722-.104-.311-.437.118-.842.044-.475-.251-.986-1.84-.253-1.307.244-3.082.302-.33.009-.969-.743-.211-.086.346-2.357h.01l1.383.198 1.343.189.375.054 4.497.6z">
   <title id="t2782">Daggett, UT</title>
  </path>
  <path id="FIPS_49035" d="m136.35 125.59 1.316-.779 1.464-.7.46.077-.041.226-.008 1.077.238.045.442.076.915-.144.266-.076.158-.073.802.952.441 2.573-.459.348-.974.441-2.736.942-.374.081-1.176-.553-.545-.438z">
   <title id="t2783">Salt Lake, UT</title>
  </path>
  <path id="FIPS_49043" d="m148.98 121.39-.523 3.254 5.214.861 4.336.622.455.068-.346 2.357-1.605-.226-1.821-.117-4.895.234-.599.523-.735.843-.148.126-.437.077-1.465.108-.74-.419-.996-.825-1.875-.036-.441-2.573.757.369.086.013.162-.031.14-.063.527-.793-.031-.194-.285-.721-.41-.523-.054-.045-.031-.067-.01-.271.019-.082.441-.436.167-.155.185-.112 1.6-.55 1.055-.175z">
   <title id="t2784">Summit, UT</title>
  </path>
  <path id="FIPS_49051" d="m142.8 128.84 1.875.036.996.825.74.419 1.465-.108.437-.077.148-.126.735-.843-.514 3.169-.599 4.49-.37 2.351-1.857-.301-1.212-2.011-.063-.135-.014-.108.41-.879-.175-1.55-.109-.234-.234-.383-.04-.032-1.118-.622-1.069-.636-.193-.978.063-.524.239-1.395z">
   <title id="t2785">Wasatch, UT</title>
  </path>
  <path id="FIPS_49049" d="m142.34 129.19-.239 1.395-.063.524.193.978 1.069.636 1.118.622.04.032.234.383.109.234.175 1.55-.41.879.014.108.063.135 1.212 2.011 1.857.301.153 1.16-3.786-.606-3.831-.626-1.059-.162.153-.491.01-.232-.284-.8-.05-.073-.221-.198-.969.479-.658.765-.027.154-.085.103-.596.217-.261.045-.262-.082-.107-.058.279-.892.086-.207.162-.19.072-.081-.429-1.127-.355-.5-.181-.095.375-.951.32-1.266-.172-.825-.036-.761.153-1.899.032-.086.235-.08.162.05.545.438 1.176.553.374-.081 2.736-.942z">
   <title id="t2786">Utah, UT</title>
  </path>
  <path id="FIPS_49045" d="m119.91 119.6 11.831 2.189 3.088-.463 1.519 4.263.189 4.075-.162-.05-.235.08-.032.086-.153 1.899.036.761.172.825-.32 1.266-.375.951-.667.564-.266.183-.874.357-3.687-.64-12.791-2.397.523-2.692z">
   <title id="t2787">Tooele, UT</title>
  </path>
  <path id="FIPS_49023" d="m135.47 135.48.181.095.355.5.429 1.127-.072.081-.162.19-.086.207-.279.892.107.058.262.082.261-.045.596-.217.085-.103.027-.154.658-.765.969-.479.221.198.05.073.284.8-.01.232-.153.491 1.059.162-.162.943-.834.455-.261 1.883-.19 1.131-.495.935-1.713-.272-1.009.42-.05.283-.55-.099-1.171-.392.153-.627.265-1.379.059-.603-.022-.126-.163-.177-2.104-.359-.667-.1-12.773-2.335-2.277-.306.897-4.633 12.791 2.397 3.687.64.874-.357.266-.183z">
   <title id="t2788">Juab, UT</title>
  </path>
  <path id="FIPS_49027" d="m116.29 138.18 2.277.306 12.773 2.335.667.1 2.104.359.163.177.022.126-.059.603-.265 1.379-.153.627 1.171.392.55.099-.572 3.454-2.632 3.258-1.529.797-.166-.031-.735-.095-.202.063-.239.343-.469.874-2.835-.504.004-.027-1.145-.231-11.137-2.023.262-1.335z">
   <title id="t2789">Millard, UT</title>
  </path>
  <path id="FIPS_49041" d="m141.95 149.47-.154 1.049-.595 3.571-.076-.015-.325 2.082-4.574-.644-2.921-.496.018-.108-.622-.126-3.881-.644.172-.794.469-.874.239-.343.202-.063.735.095.166.031 1.529-.797 2.632-3.258 1.609.269.131.186z">
   <title id="t2790">Sevier, UT</title>
  </path>
  <path id="FIPS_49039" d="m144.08 139.53-.716 4.441-.528-.085-.887 5.584-5.246-.879-.131-.186-1.609-.269.572-3.454.05-.283 1.009-.42 1.713.272.495-.935.19-1.131.261-1.883.834-.455.162-.943z">
   <title id="t2791">Sanpete, UT</title>
  </path>
  <path id="FIPS_49007" d="m144.08 139.53 3.786.606 3.111.504.126.041.053.052 5.36.822.806.122.063.174.005.091-.045.036-.041-.008-.617.355-.442.384-.721 1.395-.144.408-.063.581.004.712-10.294-1.596-.144-.914-.825-2.191-.103-.13-.1-.05z">
   <title id="t2792">Carbon, UT</title>
  </path>
  <path id="FIPS_49013" d="m158.12 128.55.211.086-1.144 7.837-.303 2.217-.364 2.863-5.36-.822-.053-.052-.126-.041-3.111-.504-.153-1.16.37-2.351.599-4.49.514-3.169.599-.523 4.895-.234 1.821.117z">
   <title id="t2793">Duchesne, UT</title>
  </path>
  <path id="FIPS_49047" d="m158.33 128.64.969.743.33-.009 3.082-.302 1.307-.244 1.84.253.251.986-.044.475-.118.842.311.437.722.104-.789 5.543-1.005 7.239-.288 2.096-.609.382-8.978-1.284.013-.094-.004-.712.063-.581.144-.408.721-1.395.442-.384.617-.355.041.008.045-.036-.005-.091-.063-.174-.806-.122.364-2.863.303-2.217z">
   <title id="t2794">Uintah, UT</title>
  </path>
  <path id="FIPS_49019" d="m164.9 146.8-.668 4.799-.342 2.34-.072.496-.388 2.371-.392 2.831-9.577-1.375.356-.28.135-.473v-.609l-.023-.117-.266.076-.266.01-.081-.023-.04-.036-.028-.067-.22-1.546.022-2.573.262-1.547.513-1.383.158-.311.045-.063.545-.947.591-1.193.144-.561.005-.721 8.978 1.284z">
   <title id="t2795">Grand, UT</title>
  </path>
  <path id="FIPS_49015" d="m143.86 140.92.1.05.103.13.825 2.191.144.914 10.294 1.596-.013.094-.005.721-.144.561-.591 1.193-.545.947-.045.063-.158.311-.513 1.383-.262 1.547-.022 2.573.22 1.546.028.067.04.036.081.023.266-.01.266-.076.023.117v.609l-.135.473-.356.28-12.679-1.974.022-.132.325-2.082.076.015.595-3.571.154-1.049.887-5.584.528.085z">
   <title id="t2796">Emery, UT</title>
  </path>
  <path id="FIPS_49055" d="m136.23 155.51 4.574.644-.022.132 12.679 1.974.184.243.009.045.496 2.831.013.545-.103.648-.293.307-11.953-1.842-2.84-.434-4.254-.72.18-1.061.352-2.46.319-.374z">
   <title id="t2797">Wayne, UT</title>
  </path>
  <path id="FIPS_49031" d="m128.82 154.14 3.881.644.622.126-.018.108 2.921.496-.659.478-.319.374-.352 2.46-.18 1.061-1.087-.119-.355-.053-.487-.1-.239-.072-3.799-.666.879-1.204.355-.342.248-.609-.013-.11-.456-.954-.473-.364-.504-.618-.01-.113z">
   <title id="t2798">Piute, UT</title>
  </path>
  <path id="FIPS_49001" d="m113.88 150.56 11.137 2.023 1.145.231-.004.027 2.835.504-.172.794-.045.423.01.113.504.618.473.364.456.954.013.11-.248.609-.355.342-.879 1.204-.352-.027-15.554-2.872z">
   <title id="t2799">Beaver, UT</title>
  </path>
  <path id="FIPS_49021" d="m112.85 155.98 15.554 2.872-.262 2.195-.207 1.112-.324-.054-.793-.031-1.276.783-.171.989-.365 2.383-2.277.167-1.361-.229-.401.139-.748-.027-1.055-.298-2.041-1.288-1.006-.897-4.628-.879z">
   <title id="t2800">Iron, UT</title>
  </path>
  <path id="FIPS_49053" d="m111.48 162.91 4.628.879 1.006.897 2.041 1.288 1.055.298.748.027.401-.139 1.361.229-1.131 6.391-11.574-2.154z">
   <title id="t2801">Washington, UT</title>
  </path>
  <path id="FIPS_49025" d="m122.72 166.39 2.277-.167 1.838.33 1.366.32 5.079.883.086-.004.05-.032 11.971 1.924-1.109 2.091-.172.271-1.978 1.871-.717.622-.342.117-3.448.766-.744-.018-.311-.027-11.362-1.915-3.615-.641z">
   <title id="t2802">Kane, UT</title>
  </path>
 </g>
</svg>