<svg id="svg9559" width="555.22" height="351.67" xmlns="http://www.w3.org/2000/svg" viewBox="419.8389892578125 139.88999938964844 81.343017578125 45.20899963378906">
 <g id="stylegroup" fill="#d0d0d0" stroke="#000" stroke-width=".1">
  <path id="FIPS_51001" d="m497.51 153.24 3.672-1.249-.347.984-.789 1.297-.279.055-.082.058-.026.032-.032.035-.063.077-.04.064-.041.063-.037.058-.139.289-.18.476-.298 1.362-.035.248-.258 2.872.041.112-.514.23-.883.068-.068-.046-.041-.095.014-.031.059-.041.081-.135-.053-.523-.569-.23-.975.29-.058-.109-.012-.068.062-.495.091-.321.672-2.001.468-.689.162-.217.047-.094.17-.506.008-.157-.058-1.018z">
   <title id="t2803">Accomack, VA</title>
  </path>
  <path id="FIPS_51131" d="m495.63 159.56.975-.29.569.23.053.523-.081.135-.059.041-.014.031.041.095.068.046.883-.068.514-.23.049.094.005.212-.677 3.362-.102.19-.113.199-.003.013-.443.685-.015.027-.073.098-.08.072h-.057l-.614-.053-.64-.879-.266-.635-.062-.406-.032-.378.004-.185.049-1.371.045-.888.032-.293z">
   <title id="t2804">Northampton, VA</title>
  </path>
  <path id="FIPS_51027" d="m435.43 170.62.455.271-.141.063-.455.41-.027.086.072.193.87 1.235.848.739h.004l.117.06 1.146.414-.2.554-1 .645-.257.31-.91.398-.112.085-.068.212-.018.176.004.292-.09.154-.383.275-.654.09-.076-.014-2.087-3.088z">
   <title id="t2805">Buchanan, VA</title>
  </path>
  <path id="FIPS_51185" d="m441.91 172.27 1.582 1.105-.265.855-1.131 1.695-.293.672-.767.225-.603.257-1.2.532-.797.176-1.578-2.182.257-.31 1-.645.2-.554.675.401 1.181-.234.032-.018.442-.406.008-.009.883-.808z">
   <title id="t2806">Tazewell, VA</title>
  </path>
  <path id="FIPS_51173" d="m442.5 177.25 1.573 2.244-3.244 2.136-.127.082-1.118-1.875-1.663-1.582.514-.465.797-.176 1.2-.532.603-.257.767-.225z">
   <title id="t2807">Smyth, VA</title>
  </path>
  <path id="FIPS_51520" d="m435.42 183.02-.992.135.509-1.022.337-.203.263-.018.171.081.081.252-.022.279z">
   <title id="t2808">Bristol, VA</title>
  </path>
  <path id="FIPS_51191" d="m437.92 178.25 1.663 1.582 1.118 1.875.127-.082-.366.41-1.834.248-.979.117-.072.302-2.158.311.347-.496.022-.279-.081-.252-.171-.081-.263.018-.337.203-.509 1.022-.513.077-.601-1.41 1.988-1.826 1.497-.735z">
   <title id="t2809">Washington, VA</title>
  </path>
  <path id="FIPS_51167" d="m436.86 175.6 1.578 2.182-.514.465-1.122 1.004-1.497.735-1.988 1.826-1.067-2.038.622-1.329 1.681-1.177.076.014.654-.09.383-.275.09-.154-.004-.292.018-.176.068-.212.112-.085z">
   <title id="t2810">Russell, VA</title>
  </path>
  <path id="FIPS_51720" d="m429.98 178.71.014-.09.199.099.094.093.019.271-.231.497-.356.104-.306-.267.037-.226.174-.319.231-.145z">
   <title id="t2811">Norton, VA</title>
  </path>
  <path id="FIPS_51195" d="m430.17 175.82.211.964.784 1.001.203.213 1.186.698.153-.072.167-.171-.622 1.329-1.433.127-.712.121-.168.055-1.077.766-.171.301v.14l-1.343-1.128.041-.977 2.668-3.29zm-.186 2.89-.125.017-.231.145-.174.319-.037.226.306.267.356-.104.231-.497-.019-.271-.094-.093-.199-.099z">
   <title id="t2812">Wise, VA</title>
  </path>
  <path id="FIPS_51051" d="m432.47 174.18 2.087 3.088-1.681 1.177-.167.171-.153.072-1.186-.698-.203-.213-.784-1.001-.211-.964.396-.284 1.523-.859z">
   <title id="t2813">Dickenson, VA</title>
  </path>
  <path id="FIPS_51169" d="m428.69 181.29v-.14l.171-.301 1.077-.766.168-.055.712-.121 1.433-.127 1.067 2.038.601 1.41-3.205.478-2.254.32-1.573.216.234-1.104.402-.365z">
   <title id="t2814">Scott, VA</title>
  </path>
  <path id="FIPS_51105" d="m428.69 181.29-1.167 1.483-.402.365-.234 1.104-4.971.627-2.077.23 2.077-1.114 1.036-.554 2.141-1.212 2.042-1.686.212-.371z">
   <title id="t2815">Lee, VA</title>
  </path>
  <path id="FIPS_51021" d="m443.49 173.38 2.354-1.136 1.559 1.668-.432 1.045-1.181.56-.852.324-1.064-.059-.566.469-.809 1.001-.698-.65.293-.672 1.131-1.695z">
   <title id="t2816">Bland, VA</title>
  </path>
  <path id="FIPS_51077" d="m446.21 178.58 1.222 1.375-.069.09-.036.22.015.14.062.117.271.329.203-.049.095-.113-.014-.167.834.902-.654.068-4.615.559-3.322.334.266-.353.366-.41 3.244-2.136z">
   <title id="t2817">Grayson, VA</title>
  </path>
  <path id="FIPS_51640" d="m447.43 179.96.004-.005.091-.081.108-.149.328-.085.312.053-.131.375-.195.342.01.117.014.167-.095.113-.203.049-.271-.329-.062-.117-.015-.14.036-.22z">
   <title id="t2818">Galax, VA</title>
  </path>
  <path id="FIPS_51197" d="m449.12 177.16-2.907 1.42-2.132.906-1.573-2.244.809-1.001.566-.469 1.064.059.852-.324 1.181-.56z">
   <title id="t2819">Wythe, VA</title>
  </path>
  <path id="FIPS_51071" d="m446.79 170.31 1.001.573 1.253-.941.104-.082 1.014-.802.483.694.653 1.316-1.6 1.186-2.29 1.654-1.559-1.668.929-1.948z">
   <title id="t2820">Giles, VA</title>
  </path>
  <path id="FIPS_51750" d="m450.34 174.31-.059.049-.21-.229-.087-.163-.041-.148.037-.145.204-.216.215-.145.099-.017.09-.014.08-.026.087-.069.211.054.091.244-.081.154-.384.476z">
   <title id="t2821">Radford, VA</title>
  </path>
  <path id="FIPS_51155" d="m449.7 172.25.802 1.041-.099.017-.215.145-.204.216-.037.145.041.148.087.163.21.229.059-.049.536 1.18-.797.825-.965.852-2.14-2.213.432-1.045z">
   <title id="t2822">Pulaski, VA</title>
  </path>
  <path id="FIPS_51610" d="m480.06 145.34-.604.293-.343-.447.343-.279.072.05z">
   <title id="t2823">Falls Church, VA</title>
  </path>
  <path id="FIPS_51013" d="m480.33 144.35.375.306.451.198.265.515-.765.116-.104.204-.487-.352-.532-.383-.072-.05-.023-.017z">
   <title id="t2824">Arlington, VA</title>
  </path>
  <path id="FIPS_51035" d="m450.08 176.31 2.186 2.578-.321.798-.162.13-.144.069-.081-.014-.347-.193-.117.008-.055.028-.138.517-.046.236.231.598-2.295.361-.834-.902-.01-.117.195-.342.131-.375-.312-.053-.328.085-.108.149-.091.081-.004.005-1.222-1.375 2.907-1.42z">
   <title id="t2825">Carroll, VA</title>
  </path>
  <path id="FIPS_51089" d="m460.22 179.75-3.169.533-.266.045-.113-.861-.185-.568-.076-.135-.153-.166-.266-.492-.134-.699v-.045l.112-.131.391-.149.667-.513 1.759.126.527-.185.96-.914zm-2.11-1.996-.045.044-.211.487.193.186.641.329.22-.122.049-.23-.247-.663-.526-.103z">
   <title id="t2826">Henry, VA</title>
  </path>
  <path id="FIPS_51141" d="m454.24 176.41 2.127.666-.391.149-.112.131v.045l.134.699.266.492.153.166.076.135.185.568.113.861-3.938.554-1.762.189-.231-.598.046-.236.138-.517.055-.028.117-.008.347.193.081.014.144-.069.162-.13.321-.798z">
   <title id="t2827">Patrick, VA</title>
  </path>
  <path id="FIPS_51063" d="m454.78 173.01-.542 3.399-1.969 2.478-2.186-2.578.797-.825.708-.224.757-.348.455-.27.027-.078.479-.724.991-.623z">
   <title id="t2828">Floyd, VA</title>
  </path>
  <path id="FIPS_51121" d="m452.96 170.45.353.657.594.61.361 1.288.027.216-.991.623-.479.724-.027.078-.455.27-.757.348-.708.224-.536-1.18.252-.195.384-.476.081-.154-.091-.244-.211-.054-.087.069-.08.026-.09.014-.802-1.041 1.6-1.186z">
   <title id="t2829">Montgomery, VA</title>
  </path>
  <path id="FIPS_51775" d="m455.47 170.41-.027.059-.009.594.085.149-.666-.019-.06-.657z">
   <title id="t2830">Salem, VA</title>
  </path>
  <path id="FIPS_51067" d="m457.38 171.22 2.952 1.907-.054 2.466-.96.914-.527.185-1.759-.126-.667.513-2.127-.666.542-3.399.784-.725.621.229.225.037.081-.045.353-.402z">
   <title id="t2831">Franklin Co., VA</title>
  </path>
  <path id="FIPS_51161" d="m454.67 169.08 2.516 1.067.189 1.068-.536.888-.353.402-.081.045-.225-.037-.621-.229-.784.725-.483.207-.027-.216-.361-1.288-.594-.61-.353-.657.096-.163.446-.428.631-.265zm.794 1.324-.677.126.06.657.666.019.032.059.743.306.092.005.179-.172.192-.329.178-.648-.05-.153-.045-.042-.248-.135-.663-.103-.437.365z">
   <title id="t2832">Roanoke Co., VA</title>
  </path>
  <path id="FIPS_51019" d="m460.61 165.49 2.858 1.486-.766.232.302 1.311-1.186 4.163-1.491.443-2.952-1.907-.189-1.068.504-.639-.149-.741.857-1.036.103-.103.177-.055.076.023.145.109.185.188.342.023.049-.018.05-.041.513-.839.15-.346zm-.527 3.569h-.153l-.013.244.226.244.152.062.424-.058.136-.55-.281-.181-.464.095z">
   <title id="t2833">Bedford Co., VA</title>
  </path>
  <path id="FIPS_51005" d="m453.72 162.26.509-.194.672-.036.023.009.509.639.081.054 2.046.289.356-.419.009 1.429-1.507-.238-.242.288.027.058-.049.185-.122.226-.347.531-.78.852-.185.172-.206-.054-.92.918-.653-.153-.181-.121-.889-.695zm.767 1.712-.017.69.138.131.18.117.333-.267-.076-.621-.049-.108-.361-.076z">
   <title id="t2834">Alleghany, VA</title>
  </path>
  <path id="FIPS_51045" d="m454.72 166.11-.094.135.076.176.758.923-.568 1.433-.217.308-.54.509-.631.265-.446.428-.096.163-1.662.617-.653-1.316.293-.248 1.153-1.019-.23-.427.316-.654.581-.703.181.121.653.153.92-.918z">
   <title id="t2835">Craig, VA</title>
  </path>
  <path id="FIPS_51023" d="m457.92 164.04 2.268 2.641-.15.346-.513.839-.05.041-.049.018-.342-.023-.185-.188-.145-.109-.076-.023-.177.055-.103.103-.857 1.036.149.741-.504.639-2.516-1.067.217-.308.568-1.433-.758-.923-.076-.176.094-.135.185-.172.78-.852.347-.531.122-.226.049-.185-.027-.058.242-.288z">
   <title id="t2836">Botetourt, VA</title>
  </path>
  <path id="FIPS_51009" d="m462.83 162.64.33-.193.688.292.043.037 1.036.938.265.292.942 1.432.321-.008-1.235 1.708-.587.569-1.167-.732-2.858-1.486h.118l.22-.181.317-.316.166-.225.213-1 .133-.446.096-.212.221-.365.098-.108z">
   <title id="t2837">Amherst, VA</title>
  </path>
  <path id="FIPS_51163" d="m459.11 159.56 1.631.848 1.721.829.32.248.054 1.153-.64-.004-.098.108-.221.365-.096.212-.133.446-.213 1-.166.225-.317.316-.22.181h-.118l-.422 1.185-2.268-2.641-.009-1.429zm1.199 3.633.035-.262-.378-.086-.266.078-.153.219.108.353.18.153.162-.108zm.333.306-.162.081-.023.113.09.514.158.193.154.023.157-.171.05-.095.163-.55-.028-.383-.33.023-.229.234z">
   <title id="t2838">Rockbridge, VA</title>
  </path>
  <path id="FIPS_51017" d="m455.61 157.82.496.231.469.176 1.487.04.533.148.509 1.154-1.195 3.042-.356.419-2.046-.289-.081-.054-.509-.639-.023-.009-.672.036-.509.194.698-1.591z">
   <title id="t2839">Bath, VA</title>
  </path>
  <path id="FIPS_51091" d="m460.05 155.1-.086.126-.519 1.545-.045.186.037.135-.176.554-.666.766-.533-.148-1.487-.04-.469-.176-.496-.231-.243-.491v-.014l.005-.045.617-.959.266-.947.05-.911.017-1.068.997.239.203.09.189.189.612.907z">
   <title id="t2840">Highland, VA</title>
  </path>
  <path id="FIPS_51079" d="m468.19 153.49.198-.749 2.127 2.299-.612 1.262-3.125-.649z">
   <title id="t2841">Greene, VA</title>
  </path>
  <path id="FIPS_51165" d="m461.77 150.18 1.843-.356 2.608 1.613-.265 1.285.795.409.752.304.157.048.533.01-1.412 2.163-.685 1.068-1.731-.992-1.532-.644-2.077-.995zm2.474 3.168-.05.045-.239.469-.045.216.086.564.04.036.248-.073.541-.477-.004-.198-.149-.236z">
   <title id="t2842">Rockingham, VA</title>
  </path>
  <path id="FIPS_51015" d="m460.05 155.1.699-1.009 2.077.995 1.532.644 1.731.992-.063.361-.058.653.117.495v.118l-.136.239-.379.329-.769 1.578-.338.55-.776-.038-.17.042-.132.072-.609.37-.32-.248-1.721-.829-1.631-.848-.509-1.154.666-.766.176-.554-.037-.135.045-.186.519-1.545zm3.218 2.285-.564.229-.067.212-.028.226.1.175.238.117.366.009.189-.197.068-.177.013-.265-.094-.199-.091-.13-.113-.033zm1.442.932-.099-.014-.229.226-.159.243v.06l.063.153.343.148.437-.12.054-.136.04-.284-.004-.073-.143-.243-.264.013z">
   <title id="t2843">Augusta, VA</title>
  </path>
  <path id="FIPS_51125" d="m465.57 158.92 2.683 3.664-1.384 2.641-.414.212-.321.008-.942-1.432-.265-.292-1.036-.938-.043-.037-.688-.292-.33.193-.054-1.153.609-.37.132-.072.17-.042.776.038.338-.55z">
   <title id="t2844">Nelson, VA</title>
  </path>
  <path id="FIPS_51029" d="m472.38 162.37.04.721-.668 1.907-.779 2.275-1.434-.504-2.668-1.551 1.384-2.641.032-.085.23-.267.467-.135.537-.073.063-.04.05-.045.014-.048-.028-.402z">
   <title id="t2845">Buckingham, VA</title>
  </path>
  <path id="FIPS_51011" d="m469.54 166.77-.518 2.069-1.329.82-2.47-2.52 1.235-1.708.414-.212z">
   <title id="t2846">Appomattox, VA</title>
  </path>
  <path id="FIPS_51031" d="m464.64 167.71.587-.569 2.47 2.52-.378 2.487-1.98-.161-.284-.231-1.505-.392-.87.19-.243.302-.614.828 1.186-4.163.622.36z">
   <title id="t2847">Campbell, VA</title>
  </path>
  <path id="FIPS_51083" d="m465.34 171.99 1.98.161 1.865.582.896 1.38.041 1.239.011.027.327.365.199.081-.501 2.15-.626.122-3.462.626-.815.144z">
   <title id="t2848">Halifax, VA</title>
  </path>
  <path id="FIPS_51143" d="m461.82 172.68.614-.828.243-.302.87-.19 1.505.392.284.231-.085 6.877-1.258.231.302-.42.031-.068-.036-.108-.567-.595-1.299.203-.266.334-.085.139-.004.041.355.216.28.487-.41.076-2.073.347.054-4.154.054-2.466z">
   <title id="t2849">Pittsylvania, VA</title>
  </path>
  <path id="FIPS_51690" d="m458.11 177.75.074-.072.526.103.247.663-.049.23-.22.122-.641-.329-.193-.186.211-.487z">
   <title id="t2850">Martinsville, VA</title>
  </path>
  <path id="FIPS_51590" d="m463.99 179.1-1.289.229-.28-.487-.355-.216.004-.041.085-.139.266-.334 1.299-.203.567.595.036.108-.031.068z">
   <title id="t2851">Danville, VA</title>
  </path>
  <path id="FIPS_51680" d="m464.64 167.71-1.009 1.171-.622-.36-.302-1.311.766-.232z">
   <title id="t2852">Lynchburg, VA</title>
  </path>
  <path id="FIPS_51515" d="m460.08 169.06.027-.144.464-.095.281.181-.136.55-.424.058-.152-.062-.226-.244.013-.244z">
   <title id="t2853">Bedford, VA</title>
  </path>
  <path id="FIPS_51770" d="m455.47 170.41.022-.045.437-.365.663.103.248.135.045.042.05.153-.178.648-.192.329-.179.172-.092-.005-.743-.306-.032-.059-.085-.149.009-.594z">
   <title id="t2854">Roanoke, VA</title>
  </path>
  <path id="FIPS_51530" d="m460.64 163.5v-.018l.229-.234.33-.023.028.383-.163.55-.05.095-.157.171-.154-.023-.158-.193-.09-.514.023-.113z">
   <title id="t2855">Buena Vista, VA</title>
  </path>
  <path id="FIPS_51580" d="m454.48 163.98.148-.134.361.076.049.108.076.621-.333.267-.18-.117-.138-.131z">
   <title id="t2856">Covington, VA</title>
  </path>
  <path id="FIPS_51678" d="m460.31 163.2-.312.347-.162.108-.18-.153-.108-.353.153-.219.266-.078.378.086z">
   <title id="t2857">Lexington, VA</title>
  </path>
  <path id="FIPS_51820" d="m464.71 158.32.039-.027.264-.013.143.243.004.073-.04.284-.054.136-.437.12-.343-.148-.063-.153v-.06l.159-.243.229-.226z">
   <title id="t2858">Waynesboro, VA</title>
  </path>
  <path id="FIPS_51790" d="m463.27 157.38.017-.033.113.033.091.13.094.199-.013.265-.068.177-.189.197-.366-.009-.238-.117-.1-.175.028-.226.067-.212z">
   <title id="t2859">Staunton, VA</title>
  </path>
  <path id="FIPS_51540" d="m469.01 157.94.221-.023.234.1.063.158-.068.391-.126.181-.405.116-.122-.004-.086-.139-.018-.108.032-.249.058-.188z">
   <title id="t2860">Charlottesville, VA</title>
  </path>
  <path id="FIPS_51660" d="m464.24 153.34.428.346.149.236.004.198-.541.477-.248.073-.04-.036-.086-.564.045-.216.239-.469z">
   <title id="t2861">Harrisonburg, VA</title>
  </path>
  <path id="FIPS_51003" d="m466.78 155.65 3.125.649 1.724.355-.67 1.809-1.335 3.019.028.402-.014.048-.05.045-.063.04-.537.073-.467.135-.23.267-.032.085-2.683-3.664.379-.329.136-.239v-.118l-.117-.495.058-.653.063-.361zm2.232 2.285-.217.235-.058.188-.032.249.018.108.086.139.122.004.405-.116.126-.181.068-.391-.063-.158-.234-.1z">
   <title id="t2862">Albemarle, VA</title>
  </path>
  <path id="FIPS_51065" d="m470.96 158.47 2.658.833-.572 2.186-.661.888-2.76-.888z">
   <title id="t2863">Fluvanna, VA</title>
  </path>
  <path id="FIPS_51049" d="m472.38 162.37.661-.888 1.086.996-.103 2.701-.822 1.301-2.229.793.779-2.275.668-1.907z">
   <title id="t2864">Cumberland, VA</title>
  </path>
  <path id="FIPS_51147" d="m473.2 166.48.213.911.347 2.262-1.951.906-2.79-1.721.518-2.069 1.434.504z">
   <title id="t2865">Prince Edward, VA</title>
  </path>
  <path id="FIPS_51037" d="m467.69 169.66 1.329-.82 2.79 1.721-.05 2.496-1.108 2.764-.199-.081-.327-.365-.011-.027-.041-1.239-.896-1.38-1.865-.582z">
   <title id="t2866">Charlotte, VA</title>
  </path>
  <path id="FIPS_51117" d="m476.73 173.62.378 3.02-2.803.537-1.343.27-2.804.523.501-2.15 1.108-2.764z">
   <title id="t2867">Mecklenburg, VA</title>
  </path>
  <path id="FIPS_51570" d="m481.65 166.67-.18-.333-.046-.207.072-.123.172-.202.221-.031.126.103.018.135-.022.073.059.347-.01.022-.077.054-.041-.009-.097.045-.123.077z">
   <title id="t2868">Colonial Heights, VA</title>
  </path>
  <path id="FIPS_51111" d="m473.76 169.66 2.601.794.361 3.172-4.963-.564.05-2.496z">
   <title id="t2869">Lunenburg, VA</title>
  </path>
  <path id="FIPS_51670" d="m482.35 165.45.5-.107.05-.005.297.158.104.112-.068.253-.405.328-.256-.188z">
   <title id="t2870">Hopewell, VA</title>
  </path>
  <path id="FIPS_51510" d="m481.42 145.37.072.64.005.057-.617.281-.563-.113.234-.545.104-.204z">
   <title id="t2871">Alexandria, VA</title>
  </path>
  <path id="FIPS_51139" d="m468.19 148.08 1.167.722-.209 1.785-.76 2.149-.198.749-.533-.01-.157-.048-.752-.304-.795-.409.265-1.285.317-1.14.28-.738.418.089.297-.387z">
   <title id="t2872">Page, VA</title>
  </path>
  <path id="FIPS_51171" d="m468.47 145.68-.282 2.403-.66 1.173-.297.387-.418-.089-.28.738-.317 1.14-2.608-1.613.383-1.303.131-.406.023-.036.044-.071.514-.487.04.067.041.063.032.005.946-.892.316-.699.018-.09.008-.492z">
   <title id="t2873">Shenandoah, VA</title>
  </path>
  <path id="FIPS_51043" d="m470.6 141.88 2.321 1.301-1.018 1.767-.325.519-1.587-.452z">
   <title id="t2874">Clarke, VA</title>
  </path>
  <path id="FIPS_51840" d="m469.3 142.82.212.015.419.207-.419 1.014-.329-.257-.135-.523.018-.208.084-.266z">
   <title id="t2875">Winchester, VA</title>
  </path>
  <path id="FIPS_51069" d="m467.05 139.89 1.33.735 2.217 1.258-.609 3.135-1.515.662-2.366-.202.276-.473.112-.108.303-.299.152-.278.15-.351.036-.208.027-2.46zm2.249 2.933-.15-.018-.084.266-.018.208.135.523.329.257.419-1.014-.419-.207z">
   <title id="t2876">Frederick, VA</title>
  </path>
  <path id="FIPS_51187" d="m469.99 145.02 1.587.452-.951 1.735-1.266 1.6-1.167-.722.282-2.403z">
   <title id="t2877">Warren, VA</title>
  </path>
  <path id="FIPS_51157" d="m469.36 148.81 1.266-1.6.479.356.819.815.203.361.059.058.135.095.427.122.195-.049-.911 1.108-1.032 1.568-.567-.036-1.282-1.013z">
   <title id="t2878">Rappahannock, VA</title>
  </path>
  <path id="FIPS_51113" d="m469.15 150.59 1.282 1.013 1.892 2.565-1.807.87-2.127-2.299z">
   <title id="t2879">Madison, VA</title>
  </path>
  <path id="FIPS_51137" d="m470.52 155.04 1.807-.87.897-.676.758-.5.536-.186.92-.238.472.144.159.082-1.894 3.587-2.543.274-1.724-.355z">
   <title id="t2880">Orange, VA</title>
  </path>
  <path id="FIPS_51109" d="m471.63 156.66 2.543-.274 2.916.883-.396 3.768-1.528-.924-.261-.275-.794-.459-.492-.077-2.658-.833z">
   <title id="t2881">Louisa, VA</title>
  </path>
  <path id="FIPS_51075" d="m478.41 161.02.122 1.872-.613-.236-1.212-.202-1.244.036-.009.063-.032.068-.076.063-.167.044-.081.005-.857-.154-.108-.094-1.086-.996.572-2.186.492.077.794.459.261.275 1.528.924z">
   <title id="t2882">Goochland, VA</title>
  </path>
  <path id="FIPS_51145" d="m478.53 162.89-1.645 2.23-.207-.343-.329-.27-.045-.031-.271-.037-.643.058-.414.28-.363.325-.26.163-.222.021-.103-.102.103-2.701.108.094.857.154.081-.005.167-.044.076-.063.032-.068.009-.063 1.244-.036 1.212.202z">
   <title id="t2883">Powhatan, VA</title>
  </path>
  <path id="FIPS_51007" d="m474.03 165.18.103.102.222-.021.26-.163.363-.325.414-.28.643-.058.271.037.045.031.329.27.207.343-.18.031-.018.023.05.437.054.221 1.369.987.069.023.121-.005.054-.031.013-.028-.009-.176.181-.234.05-.022.432.013.235.317-1.276 1.206-4.611-.486-.213-.911z">
   <title id="t2884">Amelia, VA</title>
  </path>
  <path id="FIPS_51135" d="m473.76 169.66-.347-2.262 4.611.486-.437 2.786-1.226-.216z">
   <title id="t2885">Nottoway, VA</title>
  </path>
  <path id="FIPS_51025" d="m476.36 170.45 1.226.216 2.565.748.473 2.304-.708 2.375-1.338.256-1.479.293-.378-3.02z">
   <title id="t2886">Brunswick, VA</title>
  </path>
  <path id="FIPS_51053" d="m479.3 166.67 2.14.143-.058.378.329.208.343-.023.455 2.267-1.925 1.903-.432-.136-2.565-.748.437-2.786z">
   <title id="t2887">Dinwiddie, VA</title>
  </path>
  <path id="FIPS_51595" d="m482.08 173.5.108.38-.014.174-.411.267-.242-.032-.163-.423-.013-.087.067-.171.464-.202.118.009z">
   <title id="t2888">Emporia, VA</title>
  </path>
  <path id="FIPS_51081" d="m482.91 173.35 1.762 1.807-4.755.938.708-2.375-.473-2.304.432.136.708.293.982 1.451zm-.829.157-.086-.085-.118-.009-.464.202-.067.171.013.087.163.423.242.032.411-.267.014-.174z">
   <title id="t2889">Greensville, VA</title>
  </path>
  <path id="FIPS_51735" d="m492.27 166.16-.19-.731.028-.212-.019-.175-.009-.051.595-.066.505.48.127.38z">
   <title id="t2890">Poquoson, VA</title>
  </path>
  <path id="FIPS_51620" d="m488 172.32.306.725-.005.023-.565.153-.251-.31-.086-.321.01-.189.135-.072.217.009z">
   <title id="t2891">Franklin, VA</title>
  </path>
  <path id="FIPS_51175" d="m488 172.32-.239.018-.217-.009-.135.072-.01.189.086.321.251.31.565-.153.005-.023.131.032.058 1.315-2.497.469-1.325.289-1.762-1.807 4.187-3.98.906-.87z">
   <title id="t2892">Southampton, VA</title>
  </path>
  <path id="FIPS_51650" d="m492.27 166.16 1.037-.375.648 1.032-.405.695-.991.279-.668-1.401z">
   <title id="t2893">Hampton, VA</title>
  </path>
  <path id="FIPS_51830" d="m489.31 164.86.014.059-.108.085-.185.063-.342.04-.217-.012-.112-.095-.077-.104-.108-.613.212-.198.085.112.054.064.302.018.118-.032.27.229z">
   <title id="t2894">Williamsburg, VA</title>
  </path>
  <path id="FIPS_51700" d="m490.02 165.19 1.875 1.195.668 1.401-.077.229h-.077l-.117-.053-2.29-1.51-.086-.082-.072-.73z">
   <title id="t2895">Newport News, VA</title>
  </path>
  <path id="FIPS_51740" d="m492.67 168.84.605-.405.806 1.122-.982.379-.447-.672z">
   <title id="t2896">Portsmouth, VA</title>
  </path>
  <path id="FIPS_51199" d="m488.47 164.2.442-.982 1.96 1.441-.031.101.121.09.244.072.753-.28.049.023.072.323.009.051.019.175-.028.212.19.731-.379.23-1.875-1.195-.708-.329-.094-.384-.27-.229-.118.032-.302-.018z">
   <title id="t2897">York, VA</title>
  </path>
  <path id="FIPS_51095" d="m487.85 162.28.388.393.672.541-.442.982-.085-.112-.212.198.108.613.077.104.112.095.217.012.342-.04.185-.063.108-.085-.014-.059.708.329-.176.45-1.153-.184-1.605.221-.613-1.925z">
   <title id="t2898">James City, VA</title>
  </path>
  <path id="FIPS_51181" d="m487.08 165.68 1.605-.221.789.874-1.47 2.168-.906.87-.271-.686-.964-.67-.036.048h-.271l-.824-.301-.05-.032-.036-.049-.004-.037 1.477-2.109z">
   <title id="t2899">Surry, VA</title>
  </path>
  <path id="FIPS_51183" d="m484.64 167.64.004.037.036.049.05.032.824.301h.271l.036-.048.964.67.271.686-4.187 3.98-.636-.054-.982-1.451-.708-.293 1.925-1.903z">
   <title id="t2900">Sussex, VA</title>
  </path>
  <path id="FIPS_51149" d="m482.85 165.34.113-.127 3.163.32-1.477 2.109-2.132 2.006-.455-2.267.419.108.179-.531-.062-.317-.505-.247.257-.947.222.551.256.188.405-.328.068-.253-.104-.112-.297-.158z">
   <title id="t2901">Prince George, VA</title>
  </path>
  <path id="FIPS_51730" d="m482.07 166.43.017-.037.505.247.062.317-.179.531-.419-.108-.343.023-.329-.208.058-.378.208-.149.072-.049.123-.077.097-.045.041.009.077-.054z">
   <title id="t2902">Petersburg, VA</title>
  </path>
  <path id="FIPS_51087" d="m478.41 161.02 1.001.005 1.51.833.527.19 1.172.325.212.018.626.477-.447 1.541-1.864-.504.126-.794-.05-.415-.333-.5-.293-.188-.108-.032-.221.103-.581.283-.56.502-.595.028z">
   <title id="t2903">Henrico, VA</title>
  </path>
  <path id="FIPS_51041" d="m478.53 162.89.595-.028.352.576.622.736 1.046-.271 1.864.504-.048.807-.113.127-.5.107-.257.947-.017.037-.059-.347.022-.073-.018-.135-.126-.103-.221.031-.172.202-.072.123.046.207.18.333-.208.149-2.14-.143-.235-.317-.432-.013-.05.022-.181.234.009.176-.013.028-.054.031-.121.005-.069-.023-1.369-.987-.054-.221-.05-.437.018-.023.18-.031z">
   <title id="t2904">Chesterfield, VA</title>
  </path>
  <path id="FIPS_51036" d="m483.45 162.86 3.016.888.613 1.925-.961-.145-3.163-.32.048-.807z">
   <title id="t2905">Charles City, VA</title>
  </path>
  <path id="FIPS_51127" d="m483.64 161.02.762.221 2.064.005.753.5.63.54-1.383 1.47-3.016-.888-.626-.477z">
   <title id="t2906">New Kent, VA</title>
  </path>
  <path id="FIPS_51760" d="m481.14 163.9-1.046.271-.622-.736-.352-.576.56-.502.581-.283.221-.103.108.032.293.188.333.5.05.415z">
   <title id="t2907">Richmond, VA</title>
  </path>
  <path id="FIPS_51630" d="m478.77 153.27-.374.135-.51-.289-.064-.283.172-.127.126-.084.253.044.189.04.172.172z">
   <title id="t2908">Fredericksburg, VA</title>
  </path>
  <path id="FIPS_51600" d="m478.21 145.68.338-.153.315.049.068.099.053.383-.238.149-.347.059-.31-.217v-.158z">
   <title id="t2909">Fairfax, VA</title>
  </path>
  <path id="FIPS_51683" d="m477.02 147.1.221.093.09.077.081.069.009.391-.491.496-.266-.117-.076-.216.021-.139.199-.447.203-.212z">
   <title id="t2910">Manassas, VA</title>
  </path>
  <path id="FIPS_51107" d="m473.51 140.57.387-.045 2.393.839-.396.626-.041.108-.004.059-.024.162-.012.117.003.01.069.22.057.076h.006l.063.045.639.429.019.008.355.023.483-.023.469-.053-1.496 3.096-1.407-.992-3.177-.324 1.018-1.767z">
   <title id="t2911">Loudoun, VA</title>
  </path>
  <path id="FIPS_51061" d="m471.9 144.95 3.177.324-.347 1.385.032.139 2.113 2.7.383.469-.657 2.068-.917.067-.134-.017-.157-.055-.091-.09-.851-1.103-.614-.965-.896-.91-.195.049-.427-.122-.135-.095-.059-.058-.203-.361-.819-.815-.479-.356.951-1.735z">
   <title id="t2912">Fauquier, VA</title>
  </path>
  <path id="FIPS_51047" d="m472.94 148.96.896.91.614.965.851 1.103.091.09.157.055.134.017.917-.067.27.505-.806.253-.159-.082-.472-.144-.92.238-.536.186-.758.5-.897.676-1.892-2.565.567.036 1.032-1.568z">
   <title id="t2913">Culpeper, VA</title>
  </path>
  <path id="FIPS_51177" d="m476.87 152.54 1.014.576.51.289.374-.135.855.333-2.046 3.786-.491-.126-2.916-.883 1.894-3.587z">
   <title id="t2914">Spotsylvania, VA</title>
  </path>
  <path id="FIPS_51085" d="m477.09 157.27.491.126 3.453 1.997.367.663.381.166 1.285.488.581.31-.816 1.371-.212-.018-1.172-.325-.527-.19-1.51-.833-1.001-.005-1.716.018z">
   <title id="t2915">Hanover, VA</title>
  </path>
  <path id="FIPS_51101" d="m482.39 157.76.108-.095.238.158.974 1.379 1.835.626 1.456 1.01.266.406.017.045-.017.383-.045.072-.753-.5-2.064-.005-.762-.221-.581-.31-1.285-.488-.381-.166-.367-.663z">
   <title id="t2916">King William, VA</title>
  </path>
  <path id="FIPS_51097" d="m482.39 157.76.915-1.155.685.993.415.514.716.428.424-.082.47-.189.383-.037.133.082.461.464.085.194 1.293 1.398.041.973.04.108.262.275.051.122v.062l-.024.108-.081.176-.419.483-.388-.393-.63-.54.045-.072.017-.383-.017-.045-.266-.406-1.456-1.01-1.835-.626-.974-1.379-.238-.158z">
   <title id="t2917">King and Queen, VA</title>
  </path>
  <path id="FIPS_51119" d="m487.65 158.31 1.405 1.338.389.317.098.036 1.168-.06 1.289.221.031.045-.027.096-.237.243-.186.049-.821.455-2.385-.684-1.293-1.398z">
   <title id="t2918">Middlesex, VA</title>
  </path>
  <path id="FIPS_51073" d="m490.76 161.05.596 1.384h-.073l-.163.329-.045.185.136.13.595.501.428.298.045.049-.117.072-.621.356-.664.301-1.96-1.441-.672-.541.419-.483.081-.176.024-.108v-.062l-.051-.122-.262-.275-.04-.108-.041-.973z">
   <title id="t2919">Gloucester, VA</title>
  </path>
  <path id="FIPS_51103" d="m487.99 157.94 1.203-.87 2.258 1.658.474.523.122.154.004.059-.807.211-1.411-.447-.559-.315z">
   <title id="t2920">Lancaster, VA</title>
  </path>
  <path id="FIPS_51159" d="m484.33 154.91-.018-.1.486-.626.045.023.807.676.573.603.217.036 1.166.181 1.586 1.366-1.203.87-1.506-.806z">
   <title id="t2921">Richmond Co., VA</title>
  </path>
  <path id="FIPS_51057" d="m482.88 154.08 1.452.829 2.153 2.223 1.16 1.18-.569.658-.085-.194-.461-.464-.133-.082-.383.037-.47.189-.424.082-.716-.428-.415-.514-.685-.993-.928-2.266z">
   <title id="t2922">Essex, VA</title>
  </path>
  <path id="FIPS_51033" d="m480.06 153.54 2.321.798.928 2.266-.915 1.155-1.361 1.631-3.453-1.997 2.046-3.786z">
   <title id="t2923">Caroline, VA</title>
  </path>
  <path id="FIPS_51059" d="m477.98 143.17 2.347 1.176-.892.537.023.017-.343.279.343.447.604-.293.487.352-.234.545.563.113.617-.281-.243 1.124-.257.995-.884.135-3.627-2.05zm.234 2.506-.121.211v.158l.31.217.347-.059.238-.149-.053-.383-.068-.099-.315-.049z">
   <title id="t2924">Fairfax Co., VA</title>
  </path>
  <path id="FIPS_51153" d="m475.08 145.28 1.407.992 3.627 2.05-.483 1.885-2.37-.234-.383-.469-2.113-2.7-.032-.139zm1.947 1.822-.009-.005-.203.212-.199.447-.021.139.076.216.266.117.491-.496-.009-.391-.081-.069.135-.067.181-.162v-.085l-.073-.046-.26-.086-.145.014-.058.099zm.618.26.189.073.085-.198-.054-.131-.13-.041-.181.194.019.091z">
   <title id="t2925">Prince William, VA</title>
  </path>
  <path id="FIPS_51179" d="m476.87 152.54-.27-.505.657-2.068 2.37.234.569 1.956-.139 1.379-.434.067-.855-.333-.036-.392-.172-.172-.189-.04-.253-.044-.126.084-.172.127.064.283z">
   <title id="t2926">Stafford, VA</title>
  </path>
  <path id="FIPS_51099" d="m480.2 152.16 3.02.307-.334 1.613-.504.257-2.321-.798z">
   <title id="t2927">King George, VA</title>
  </path>
  <path id="FIPS_51193" d="m483.22 152.47.514.748.964.354.383.042.96-.112 1.131-.181.132.018.036.009.883.766.095.077.202.316.05.095-.956 1.103-1.166-.181-.217-.036-.573-.603-.807-.676-.045-.023-.486.626.018.1-1.452-.829z">
   <title id="t2928">Westmoreland, VA</title>
  </path>
  <path id="FIPS_51133" d="m488.57 154.6.171.13 1.028.523.266.05.329.017.081.014.09.018.022.004.848.288.346.222.005.743-.121 1.943-.177.175-2.258-1.658-1.586-1.366z">
   <title id="t2929">Northumberland, VA</title>
  </path>
  <path id="FIPS_51115" d="m490.76 161.05.821-.455.604.127.062.022.086.062.231.302.217.411.174.536.059.216v.154l-.19.784-.341-.177-1.127-.598z">
   <title id="t2930">Mathews, VA</title>
  </path>
  <path id="FIPS_51710" d="m494.84 167.95.238.942-.415.297-.59.366-.806-1.122z">
   <title id="t2931">Norfolk, VA</title>
  </path>
  <path id="FIPS_51093" d="m488 172.32.004-3.827 1.47-2.168 2.392 2.345-.441.174-.04.023-2.948 4.21-.131-.032z">
   <title id="t2932">Isle of Wight, VA</title>
  </path>
  <path id="FIPS_51800" d="m492.67 168.84-.018.424.128 4.169-.506.108-3.755.856-.018.004-.058-1.315 2.948-4.21.04-.023.441-.174z">
   <title id="t2933">Suffolk, VA</title>
  </path>
  <path id="FIPS_51550" d="m494.08 169.55.59-.366 1.82 3.458-1.919.405-1.792.379-.128-4.169.447.672z">
   <title id="t2934">Chesapeake, VA</title>
  </path>
  <path id="FIPS_51810" d="m494.84 167.95 1.505-.338.202-.027.068.01.13.061.077.132 2.068 3.903.164.406-2.571.55-1.82-3.458.415-.297z">
   <title id="t2935">Virginia Beach, VA</title>
  </path>
  <path id="FIPS_51685" d="m477.31 146.81-.145.022-.07.138-.075.129.223.09.097.09.06-.043.062-.035.036-.016.058.086.004.07.117.028.163.066.071-.2-.059-.14-.133-.035-.066-.032v-.074l-.074-.043z">
   <title id="t2936">Manassas Park, VA</title>
  </path>
 </g>
</svg>