<svg id="svg9559" width="555.22" height="351.67" xmlns="http://www.w3.org/2000/svg" viewBox="498.4320068359375 55.459999084472656 17.39300537109375 32.45599365234375">
 <g id="stylegroup" fill="#d0d0d0" stroke="#000" stroke-width=".1">
  <path id="FIPS_50009" d="m511.25 56.425 3.476-.965-.217.446-.013 3.165.076.215.339.334.414.509.226.28.04.064.234.378-.121 1.122-.104.289v.004l-.045.077-.446.784-.037.058-.053.077-.126.163-.023.035-.289.212-.193-.018-.604.784-1.014-.829-.428-2.614.392-1.055-1.082-.414-.361-.14.014-1.618z">
   <title id="t2937">Essex, VT</title>
  </path>
  <path id="FIPS_50019" d="m511.25 56.425.055 1.343-.014 1.618.361.14-.32.798-.239.189-.93-.348-.359 1.682-.297 1.252-1.127-.27-.166-.162-.78-.96-.06-.559-1.428-.333-.523-2.934z">
   <title id="t2938">Orleans, VT</title>
  </path>
  <path id="FIPS_50003" d="m508.57 80.502-.285-.023.054.753.226 1.172-1.191.216.045.27.442 2.132.804-.153.504 2.384-.857.18-2.235.483-.69-2.47-.964-4.71 3.56-.694z">
   <title id="t2939">Bennington, VT</title>
  </path>
  <path id="FIPS_50013" d="m499.78 59.26.563 3.722-.703 2.295-.149-.126-.27-.505-.459-2.691-.33-2.114.014-.221z">
   <title id="t2940">Grand Isle, VT</title>
  </path>
  <path id="FIPS_50023" d="m508.1 63.938 2.136.545.036.028.068.126-.014.207-.675 2.732-.514-.095-1.329 1.145-.132.986-.253 1.073-.571-.077-2.313-1.185.154-1.568-.154-.036.271-1.686.153-.68 1.514.333 1.375-.712z">
   <title id="t2941">Washington, VT</title>
  </path>
  <path id="FIPS_50005" d="m511.65 59.526 1.082.414-.392 1.055.428 2.614 1.014.829-.631.397-.624.388-.047.045-.028.022-.302.545-.031.131v.081l.296 1.032.168.226.153.122-1.28-.154-1.181.419-.63-.116.675-2.732.014-.207-.068-.126-.036-.028-2.136-.545.284-1.109 1.127.27.297-1.252.359-1.682.93.348.239-.189z">
   <title id="t2942">Caledonia, VT</title>
  </path>
  <path id="FIPS_50015" d="m505.94 60.815 1.428.333.06.559.78.96.166.162-.284 1.109-.248 1.136-1.375.712-1.514-.333-1.627-2.011.405-1.14.691-1.172 1.153-.491z">
   <title id="t2943">Lamoille, VT</title>
  </path>
  <path id="FIPS_50011" d="m505.42 57.881.523 2.934-.365-.176-1.153.491-.691 1.172-.405 1.14-2.993-.46-.563-3.722z">
   <title id="t2944">Franklin, VT</title>
  </path>
  <path id="FIPS_50007" d="m500.34 62.982 2.993.46 1.627 2.011-.153.68-.271 1.686.154.036-.154 1.568-.41-1.073-.541-.333-2.203.865-.487.054-.302-1.568.05-.541-.014-.14-.005-.008-.167-.451-.129-.28-.429-.518-.262-.153z">
   <title id="t2945">Chittenden, VT</title>
  </path>
  <path id="FIPS_50001" d="m500.89 68.936.487-.054 2.203-.865.541.333.41 1.073 2.313 1.185-.235.96-.189.569-.393.374-.753.635.159.343.086.153-.708-.095-1.122.329-.545.207.328.861-1.357.505-.334-.649-.157-.284-1.075-2.538-.02-.044v-.004l-.022-.429v-.42l.005-1.067z">
   <title id="t2946">Addison, VT</title>
  </path>
  <path id="FIPS_50021" d="m502.12 75.449 1.357-.505-.328-.861.545-.207 1.122-.329.708.095.664-.586.788.185.161.175 1.168 1.452.212 2.727-.398 1.357-.135 1.09-3.56.694-.546-2.538-1.55-.342-.306-.127-.036-.048-.091-.753.051-.523z">
   <title id="t2947">Rutland, VT</title>
  </path>
  <path id="FIPS_50025" d="m508.57 80.502 1.32.112 1.172-.473 1.108-.243.036.951.303.473.02.077.246 1.379-.587 2.01.041.13.267.573 1.031.829-4.358.933-.504-2.384-.804.153-.442-2.132-.045-.27 1.191-.216-.226-1.172-.054-.753z">
   <title id="t2948">Windham, VT</title>
  </path>
  <path id="FIPS_50027" d="m506.61 71.568.054.199.122.194.735.063 1.058.126 2.704.311 1.204.167-.572 2.429-.347 1.154.447 2.055.193.505-.041 1.127-1.108.243-1.172.473-1.32-.112-.587-.46.135-1.09.398-1.357-.212-2.727-1.168-1.452-.161-.175-.788-.185-.664.586-.086-.153-.159-.343.753-.635.393-.374z">
   <title id="t2949">Windsor, VT</title>
  </path>
  <path id="FIPS_50017" d="m512.74 67.427-.248 5.201-1.204-.167-2.704-.311-1.058-.126-.735-.063-.122-.194-.054-.199.235-.96.571.077.253-1.073.132-.986 1.329-1.145.514.095.63.116 1.181-.419z">
   <title id="t2950">Orange, VT</title>
  </path>
 </g>
</svg>