<svg id="svg9559" width="555.22" height="351.67" xmlns="http://www.w3.org/2000/svg" viewBox="45.852996826171875 0 68.36700439453125 50.84499740600586">
 <g id="stylegroup" fill="#d0d0d0" stroke="#000" stroke-width=".1">
  <path id="FIPS_53047" d="m82.373 5.202 9.551 2.51 4.741 1.19 2.466.609-.262 1.113-.613 2.096-.45 1.018-.523 2.128-.027 1.023-1.352 5.458-.068.063-1.077-.082-.018-.247.23-.257.158-.23.053-.149-.378-1.37-.063-.14-.135-.211-.537-.298-.189.018-.978.324-.928.474-2.362-.103-.591-.537.176-.636-.739-.302-.649.167-.437.144-.045.027-.018.036-.167.983.005.045.071.144-.887-.23-.766-.346-1.655-3.372-1.235-2.731-.252-1.992-.032-.158-.32-.059-.008-1.667.144-.041.766-.558.022-.149-.248-2.471-.125-.536-.249-.698">
   <title id="t2951">Okanogan, WA</title>
  </path>
  <path id="FIPS_53073" d="m82.373 5.202.249.698.125.536.248 2.471-.022.149-.766.558-.144.041-.902-.167-.478.018-2.843-.771-7.198-2.059-2.885-.807-.19-.018-.026-.946-.803-1.186-.748-1.667-.144-.663.005-.045.081-.127.234-.184.243-.14.176-.099 2.907.834 2.542.725 2.858.861 5.192 1.37zm-18.533-5.202.054.014.402.117.026.338-.067.023-.451-.163z">
   <title id="t2952">Whatcom, WA</title>
  </path>
  <path id="FIPS_53069" d="m48.602 31.703.369-1.176 1.916.604 1.23.356 1.208.342-.73 2.637-1.392-.058-.068-.023-.378-.59.197-.577-.094-.302-.131-.234-.036-.059-.027-.014-.05-.031-.581-.032z">
   <title id="t2953">Wahkiakum, WA</title>
  </path>
  <path id="FIPS_53003" d="m105.38 44.369 1.542.833-.189.563.283 1.141.013.045.086.712.055 1.108-.429 1.182.055.892-4.945-1.154.361-1.554.527.121.572-2.551.181-.726.225-.144.41-.094 1.109.265z">
   <title id="t2954">Asotin, WA</title>
  </path>
  <path id="FIPS_53023" d="m100.43 41.083 1.064-.609.117-.041.532.01.225.086 1.298.531.42.257.441.356.871 1.609.071.55-.09.537-.144.639-1.109-.265-.41.094-.225.144-.181.726-.572 2.551-.527-.121-.361 1.554-1.077-.261.352-1.533.559-2.74-.708-1.92-1.096-.252.271-1.109z">
   <title id="t2955">Garfield, WA</title>
  </path>
  <path id="FIPS_53013" d="m97.071 40.7.099.089.279.487.086.05.383.063.077-.004 2.15-.136.288-.166-.279.793-.271 1.109 1.096.252.708 1.92-.559 2.74-.352 1.533-3.277-.789-.166-.041.139-.423.523-2.159-1.095-.257-.83-1.352.785-3.322z">
   <title id="t2956">Columbia, WA</title>
  </path>
  <path id="FIPS_53071" d="m97.071 40.7-.216.387-.785 3.322.83 1.352 1.095.257-.523 2.159-.139.423-8.663-2.077.122-2.529.126-.162.103-.095.397-.117.221-.027.883.054.663-.361 1.14-.721.451-.396.261-.32.343-.73.067-.113.266-.217.473-.278.789-.362.041-.004 1.352.217.59.22z">
   <title id="t2957">Walla Walla, WA</title>
  </path>
  <path id="FIPS_53021" d="m87.638 36.494 1.555.379 3.596.924 4.629 1.072-.248 1.92-.099-.089-.113-.118-.59-.22-1.352-.217-.041.004-.789.362-.473.278-.266.217-.067.113-.343.73-.261.32-.451.396-1.14.721-.663.361-.883-.054-.221.027-.397.117-.103.095-.126.162-.568-.531-.203-.109-.252-.081-.267-.167-.414-.594-.014-.073.05-.108.703-2.506v-.41l-.289-.469-.387-.545-.203-.46-.225-.748.013-.157z">
   <title id="t2958">Franklin, WA</title>
  </path>
  <path id="FIPS_53075" d="m102.53 33.195 6.743 1.564-.375 1.65-1.649 7.337-.329 1.456-1.542-.833.09-.537-.071-.55-.871-1.609-.441-.356-.42-.257-1.298-.531-.225-.086-.532-.01-.117.041-1.064.609-.288.166-2.15.136-.077.004-.383-.063-.086-.05-.279-.487.248-1.92 1.762.023.325-.297.248-.28.36-.505.244-.572 1.004-4.318z">
   <title id="t2959">Whitman, WA</title>
  </path>
  <path id="FIPS_53063" d="m108.11 24.145 3.358.785-.194.851-1.699 7.64-.301 1.338-6.743-1.564 1.672-7.04.121.185.082.05 1.78.64.36.067.735-3.15z">
   <title id="t2960">Spokane, WA</title>
  </path>
  <path id="FIPS_53051" d="m114.22 13.071-.437 1.898-2.317 9.961-3.358-.785.248-1.091-.207-1.532 1.172-5.08-1.091-.247.248-1.082.888-1.023.626-.528.676-.301.226-.956z">
   <title id="t2961">Pend Oreille, WA</title>
  </path>
  <path id="FIPS_53065" d="m110.9 12.305-.226.956-.676.301-.626.528-.888 1.023-.248 1.082 1.091.247-1.172 5.08.207 1.532-.248 1.091-.829-.198-.735 3.15-.36-.067-1.78-.64-.082-.05-.121-.185-1.654-.207-.636-.126-.054-.257-.207-.672-.393-.987-.027-.031-.428.004-.563.225-.261.14-.131-1.726.013-.054.055-.041.374-.144.166.036 1.032-.257 1.168-1.789.135-.261 1.411-4.629.153-1.294-.022-.365-.194-.87-.117-.104-.045-.477.108-.721.099-.433.126-.162.162-.149z">
   <title id="t2962">Stevens, WA</title>
  </path>
  <path id="FIPS_53043" d="m94.759 22.328 1.077.082.131.405.067.113.613.433.213.013.036-.076 1.464.468.198.411.465.549.329.207.081.023h.126l.131-.085.293-.627.261-.14.563-.225.428-.004.027.031.393.987.207.672.054.257.636.126 1.654.207-1.672 7.04-1.173-.275-8.743-2.118z">
   <title id="t2963">Lincoln, WA</title>
  </path>
  <path id="FIPS_53001" d="m101.36 32.92-1.004 4.318-.244.572-.36.505-.248.28-.325.297-1.762-.023-4.629-1.072-3.596-.924-1.555-.379.554-2.181 1.185.297 2.137.546 1.104-4.354z">
   <title id="t2964">Adams, WA</title>
  </path>
  <path id="FIPS_53025" d="m94.741 22.081.018.247-2.141 8.474-1.104 4.354-2.137-.546-1.185-.297-.554 2.181-.902.542.045-.046-.008-.085-.213-.42-.098-.121-.113-.063-.072.027-.361.279-.27.234-.28.158-.235.086-.215.004-1.6-.207-.303-.099-.071-.04-.505-1.569.396-.424.185-.23.063-.166.077-1.722-.208-1.506.248-.68.298-.487.202-.73.005-.076-.014-.059.528-1.195 1.289-1.212 2.929.694 2.398-1.848 1.569-2.366.162-.645 1.145-.694z">
   <title id="t2965">Grant, WA</title>
  </path>
  <path id="FIPS_53005" d="m82.942 36.743.071.04.303.099 1.6.207.215-.004.235-.086.28-.158.27-.234.361-.279.072-.027.113.063.098.121.213.42.008.085-.045.046-.013.157.225.748.203.46.387.545.289.469v.41l-.703 2.506-.05.108.014.073.414.594.267.167.252.081.203.109.568.531-.122 2.529-.253.212-.193.085-.658.19-.32.049-.392-.027-.23-.058-.248-.127-1.352-.185-.51-.031-.509-.032-1.749.216-.937-.089-.861-.09.933-3.543.203-.834.022-.356z">
   <title id="t2966">Benton, WA</title>
  </path>
  <path id="FIPS_53039" d="m81.13 44.084-.672 2.552h-1.24l-1.352.166-.288.072-.469.356-1.776-.108-.703-.122-.184-.121-.109-.158-.234-.441-.252-.177-.384-.094-.189.063-.388.185-.964.135-.793.122-.469.144-.194-.257-3.272-1.532-.311-.063-.617-.091-.614-.532.235-.667-.789-.261.28-1.154.586-2.095.766.207.856.23 2.353.635.721.226 4.142 1.131z">
   <title id="t2967">Klickitat, WA</title>
  </path>
  <path id="FIPS_53011" d="m55.124 39.523 1.375-.703 1.374-.293.41.063.203.099.158.162.266.127.802-.311.807-.325-.51 1.817-.59 1.942-.708 2.506-.149.005h-.018l-.248-.063-.008-.005-.294-.144-2.501-1.541-.239-.181-.459-.482-.176-.225-.009-.316.086-.234.193-.325z">
   <title id="t2968">Clark, WA</title>
  </path>
  <path id="FIPS_53059" d="m67.91 35.944-1.176 4.269-.766-.207-.586 2.095-.28 1.154.789.261-.235.667-.968-.018-.744-.058-.244-.059-.621-.342-.532.031-.383.198-.253.226-3.2.446.708-2.506.59-1.942.51-1.817 1.198-4.092z">
   <title id="t2969">Skamania, WA</title>
  </path>
  <path id="FIPS_53015" d="m61.717 34.25-1.198 4.092-.807.325-.802.311-.266-.127-.158-.162-.203-.099-.41-.063-1.374.293-1.375.703.067-.212.081-1.226-.252-1.405-.086-.339-1.455-1.784-.424-.176-.46.085.73-2.637 1.091.284.69.199 5.061 1.474z">
   <title id="t2970">Cowlitz, WA</title>
  </path>
  <path id="FIPS_53049" d="m47.313 24.541 2.046.659 2.132.604 2.01.622-.568 2.077-.212.911-.248.906-.356 1.167-1.23-.356-1.916-.604-.369 1.176-1.456.235-.266-.158-1.027-1.406.685-2.028.153.455.198.099.104-.009.455-.05.568-.441.076-.167.532-1.812.041-.761-.735.233-.153.023-.135-.13-.406-.474-.045-.076-.022-.032-.023-.067z">
   <title id="t2971">Pacific, WA</title>
  </path>
  <path id="FIPS_53041" d="m53.501 26.426 1.794.513-.108.361 1.969.581 6.216 1.799 1.352.653 1.722.622.139-.135.365-.23.117-.058.176-.045 2.605.716.316.843.04.383-1.032 3.561-.135.243-.036.009-.063-.013-1.028-.285-6.193-1.694-1.55-.464-5.061-1.474-.69-.199-1.091-.284-1.208-.342.356-1.167.248-.906.212-.911z">
   <title id="t2972">Lewis, WA</title>
  </path>
  <path id="FIPS_53067" d="m55.998 23.248 1.077.32 1.915-.406.262-.104.37-.215.559 1.762.067.793.212.487.87 1.686.243.36.302.252.253.117 1.244 1.38-6.216-1.799-1.969-.581.108-.361z">
   <title id="t2973">Thurston, WA</title>
  </path>
  <path id="FIPS_53053" d="m60.541 20.309 2.393.704-.261.514.82.743.505.897 2.123 1.839.735.414 1.018.375.028-.041.297-.144.067-.027.05.009.108.031 1.186.591.586.568 1.018.739.306.108-.103.406-1.38 1.496-.085 1.537-.018.045-.086.09-2.605-.716-.176.045-.117.058-.365.23-.139.135-1.722-.622-1.352-.653-1.244-1.38-.253-.117-.302-.252-.243-.36-.87-1.686-.212-.487-.067-.793-.559-1.762-.05-.803.014-.067.076-.167.081-.09.185-.113.171-.144.145-.212.13-.383z">
   <title id="t2974">Pierce, WA</title>
  </path>
  <path id="FIPS_53077" d="m71.52 27.629.848.202.184.141.74.96.284.491.009.04.018.293.248.695.103.171 3.358.893-.032 1.13.537 1.312 3.101.848 1.519.369.505 1.569-1.326 5.16-.022.356-.203.834-.261.991-6.324-1.649-4.142-1.131-.721-.226-2.353-.635-.856-.23 1.176-4.269 1.028.285.063.013.036-.009.135-.243 1.032-3.561-.04-.383-.316-.843.086-.09.018-.045.085-1.537 1.38-1.496z">
   <title id="t2975">Yakima, WA</title>
  </path>
  <path id="FIPS_53037" d="m71.52 27.629.028-.581.171-2.957.027-.153 1.117-.902 1.668-1 .974-.104.446.965.681 1.311.703.523.725.591 1.6 1.297.492.578.171.292.234.248 2.52.64.612.717.014.059-.005.076-.202.73-.298.487-.248.68.208 1.506-.077 1.722-.063.166-.185.23-.396.424-1.519-.369-3.101-.848-.537-1.312.032-1.13-3.358-.893-.103-.171-.248-.695-.018-.293-.009-.04-.284-.491-.74-.96-.184-.141z">
   <title id="t2976">Kittitas, WA</title>
  </path>
  <path id="FIPS_53017" d="m94.741 22.081-1.032-.253-1.145.694-.162.645-1.569 2.366-2.398 1.848-2.929-.694-1.289 1.212-.528 1.195-.612-.717.09-.175.112-.307.126-.379-.008-.072-.284-.437-.871-.392-.13-.072-.248-.216-.036-.108-.027-.442v-.312l.063-.184.271-.563 1.406-2.484.126-.14.081-.054.126-.049.55-.072.108.049.113.117.045.072.059.023.842-.023 1.037-1.014.622-.68v-.099l-.032-.154-.071-.144-.005-.045.167-.983.018-.036.045-.027.437-.144.649-.167.739.302-.176.636.591.537 2.362.103.928-.474.978-.324.189-.018.537.298.135.211.063.14.378 1.37-.053.149-.158.23z">
   <title id="t2977">Douglas, WA</title>
  </path>
  <path id="FIPS_53019" d="m99.131 9.511 5.345 1.293-.162.149-.126.162-.099.433-.108.721.045.477.117.104.194.87.022.365-.153 1.294-1.411 4.629-.135.261-1.168 1.789-1.032.257-.166-.036-.374.144-.055.041-.013.054.131 1.726-.293.627-.131.085h-.126l-.081-.023-.329-.207-.465-.549-.198-.411-1.464-.468-.036.076-.213-.013-.613-.433-.067-.113-.131-.405.068-.063 1.352-5.458.027-1.023.523-2.128.45-1.018.613-2.096.262-1.113">
   <title id="t2978">Ferry, WA</title>
  </path>
  <path id="FIPS_53055" d="m63.34 7.541.054-.451.176-.437.203-.266.405.013.654-.017-.126.297-.046.108-.486.924-.095.059-.531-.099-.077-.032zm-.924-2.916-.018.667.248.703.189.703-.265.248-.244-.189-.554-.595-.136-.208-.049-.13-.045-.221-.109-.838.018-.077.1-.113.198-.144.23.049zm2.655.599-.077.005-.194.135-.009.045-.036.248-.004.14.036.058-1.632.131-.108-.442-.126-.649v-.207l.342-.248.749-.468.22-.028.203.041.145.076.306.275.618.663.004.018-.149.103z">
   <title id="t2979">San Juan, WA</title>
  </path>
  <path id="FIPS_53029" d="m65.603 8.46.045-.036.081-.036.058.041.028.063.058.158.316 1.081.04.149-.018.126-.018.028-.185.112-.081.018-.176-.041-.054-.022-.09-.198-.067-.059-.127-.041-.176.005-.085.045-.302.23-.225.261-.05.208.554 1.546.19.36.108.018.171.095.559.924.162.581-.085.374-.145.28-.315.23-.302-.036-.816-1.628-.193-.775-.177-.622-.531-1.342.243-.654 1.235-1.524h.18z">
   <title id="t2980">Island, WA</title>
  </path>
  <path id="FIPS_53061" d="m67.257 10.34 4.534 1.275 2.168.609.631.189 4.187 1.149.095 1.159-.149.703-.153.527-.717.234-.05-.008-.649.054-.365.126-.667 1.307-.121 1.108.067.889-2.542-.699-.307-.059-1.09-.279-4.138-1.141-2.709-.793.005-.027.099-.284 1.248-1.582.271-.022.252.032.204-.095.049-.059.148-.491-.008-.181-.343-.36-.356-.739-.081-.374-.005-.023.095-.316.09-.279-.076-.739v-.32z">
   <title id="t2981">Snohomish, WA</title>
  </path>
  <path id="FIPS_53033" d="m76.068 19.661.203.581-.095.198-.523.473-.027.055-.032.197-.089.767-.974.104-1.668 1-1.117.902-.027.153-.171 2.957-.028.581-.306-.108-1.018-.739-.586-.568-1.186-.591-.108-.031-.05-.009-.067.027-.297.144-.028.041-1.018-.375-.735-.414-2.123-1.839-.505-.897.762-.059.126-.058.145-.532.008-.122.005-1.072.369-2.664.374-1.073 2.709.793 4.138 1.141 1.09.279.307.059z">
   <title id="t2982">King, WA</title>
  </path>
  <path id="FIPS_53035" d="m62.168 16.271 1.613-1.064.366-.77.352.148.13.212.027.343-.175 1.204-.686 2.438-.207.96-.654 1.271-2.393-.704.428-1.424-1.262-.401-.374-.076-.374-.109.126-.139.681-.623.054-.036.185-.045z">
   <title id="t2983">Kitsap, WA</title>
  </path>
  <path id="FIPS_53045" d="m55.016 17.168.328-1.095 4.661 1.383-.185.045-.054.036-.681.623-.126.139.374.109.374.076 1.262.401-.595 1.979-.13.383-.145.212-.171.144-.185.113-.081.09-.076.167-.014.067.05.803-.37.215-.262.104-1.915.406-1.077-.32-2.398-.676-.045-.018.5-2.2z">
   <title id="t2984">Mason, WA</title>
  </path>
  <path id="FIPS_53027" d="m47.93 14.811 1.911.581.608.397 4.567 1.379-.961 3.186-.5 2.2.045.018 2.398.676-.703 3.691-1.794-.513-2.01-.622-2.132-.604-2.046-.659.112-1.117.33-.185.374.212 1.559-.144.212-.045.013-.005-.09-.194-1.018-1.235-.294-.234-.337-.126-.627-4.39.004-.158.077-.626z">
   <title id="t2985">Grays Harbor, WA</title>
  </path>
  <path id="FIPS_53031" d="m47.087 9.898 1.447.415.514.18 2.091.649 3.141.942 1.326.465.64.324 4.71 1.379.802-2.844 1.122-.158.442.014.198.054.465.69-.379 2.361-1.203 1.19-.235.505-.045.139.045.068-2.163 1.185-4.661-1.383-.328 1.095-4.567-1.379-.608-.397-1.911-.581.028-.153.053-.523.05-.609.04-1.406-.013-.112-.23-1.019-.049-.09-.37-.699-.009-.009-.013-.018-.149-.18z">
   <title id="t2986">Jefferson, WA</title>
  </path>
  <path id="FIPS_53009" d="m47.087 9.898-.094-.248-.018-1.149.225-2.217.785-2.809.067-.044.085-.023.533.153.297.262.275.243.329.334.104.108.64.766 2.56 2.429.531.333.915.411 3.557 1.555 1.766.401 1.235.45.879.555-.802 2.844-4.71-1.379-.64-.324-1.326-.465-3.141-.942-2.091-.649-.514-.18z">
   <title id="t2987">Clallam, WA</title>
  </path>
  <path id="FIPS_53057" d="m82.063 9.655.008 1.667-1.289-.523-.793-.013-.969.316-.086.076-.117.226-.486 1.645.446.513-4.187-1.149-.631-.189-2.168-.609-4.534-1.275-.154-.424-.292-1.87.274-.054.023-.014.816-1.456-.113-.338-.244-.333.19.018 2.885.807 7.198 2.059 2.843.771.478-.018z">
   <title id="t2988">Skagit, WA</title>
  </path>
  <path id="FIPS_53007" d="m82.071 11.322.32.059.032.158.252 1.992 1.235 2.731 1.655 3.372.766.346.887.23.032.154v.099l-.622.68-1.037 1.014-.842.023-.059-.023-.045-.072-.113-.117-.108-.049-.55.072-.126.049-.081.054-.126.14-1.406 2.484-.271.563-.063.184v.312l.027.442.036.108.248.216.13.072.871.392.284.437.008.072-.126.379-.112.307-.09.175-2.52-.64-.234-.248-.171-.292-.492-.578-1.6-1.297-.725-.591-.703-.523-.681-1.311-.446-.965.089-.767.032-.197.027-.055.523-.473.095-.198-.203-.581-.067-.889.121-1.108.667-1.307.365-.126.649-.054.05.008.717-.234.153-.527.149-.703-.095-1.159-.446-.513.486-1.645.117-.226.086-.076.969-.316.793.013z">
   <title id="t2989">Chelan, WA</title>
  </path>
 </g>
</svg>