<svg id="svg9559" width="555.22" height="351.67" xmlns="http://www.w3.org/2000/svg" viewBox="321.64996337890625 57.80799865722656 53.868011474609375 57.30400085449219">
 <g id="stylegroup" fill="#d0d0d0" stroke="#000" stroke-width=".1">
  <path id="FIPS_55029" d="m369.24 85.184.086-.626.666-1.212.217-.343 2.398-2.754 1.668-3.042.482-.42.297-.197.212-.005.098.023.055.054.086.153.013.414-.027.248-.464 1.835-.27.414-.794 1.808-1.18 2.785-.225.591z">
   <title id="t2990">Door, WI</title>
  </path>
  <path id="FIPS_55061" d="m369.24 85.184 3.318-.274-.506.955-.216.708-.095.536-.333 2.416-2.051.184-.32-4.087z">
   <title id="t2991">Kewaunee, WI</title>
  </path>
  <path id="FIPS_55093" d="m323.12 85.581 5.721-.158.103 2.236-1.591 1.92-.032-.049-.089-.077-.104-.05-.158-.036-1.239-.049-.392-.046-.145-.067-.667-.663-.023-.126-.099-.126-.95-.807-.654-.378z">
   <title id="t2992">Pierce, WI</title>
  </path>
  <path id="FIPS_55091" d="m328.95 87.659 4.444-.18.054 1.122-3.241.14-.176.09-.057.054-.055.238-.32 1.749-.031.361-1.478-.563-.731-1.091z">
   <title id="t2993">Pepin, WI</title>
  </path>
  <path id="FIPS_55011" d="m334.56 88.556.208 4.511-.087 1.812-.054 1.077-2.907-2.055-2.154-2.668.031-.361.32-1.749.055-.238.057-.054.176-.09 3.241-.14z">
   <title id="t2994">Buffalo, WI</title>
  </path>
  <path id="FIPS_55121" d="m337.89 88.38.225 4.511.113-.004.126 2.164-.33-.055-1.099.32-.266.379-.012.045-.019.248.059.099.085.068.068.144v.063l-.906.045-1.312-.451.054-1.077.087-1.812-.208-4.511z">
   <title id="t2995">Trempealeau, WI</title>
  </path>
  <path id="FIPS_55053" d="m337.89 88.38 2.23-.108.054 1.118 1.173 1.063 3.362-.189 1.108-.095.171 2.272.07 1.203h-1.223l-3.214.207-.977.063-.446.167-.249.239.064.762-1.659-.031-.126-2.164-.113.004z">
   <title id="t2996">Jackson, WI</title>
  </path>
  <path id="FIPS_55035" d="m339.94 84.905.18 3.367-2.23.108-3.335.176-1.114.045-.054-1.122-.104-2.227z">
   <title id="t2997">Eau Claire, WI</title>
  </path>
  <path id="FIPS_55019" d="m339.81 82.665 5.547-.347.258 4.493.202 3.358-1.108.095-3.362.189-1.173-1.063-.054-1.118-.18-3.367z">
   <title id="t2998">Clark, WI</title>
  </path>
  <path id="FIPS_55017" d="m334.02 79.587 5.597-.28.324 5.598-6.657.347-.342-4.529z">
   <title id="t2999">Chippewa, WI</title>
  </path>
  <path id="FIPS_55033" d="m332.94 80.723.342 4.529.104 2.227-4.444.18-.103-2.236-.365-4.529z">
   <title id="t3000">Dunn, WI</title>
  </path>
  <path id="FIPS_55109" d="m328.48 80.894.365 4.529-5.721.158.07-.973-.196-.906-.224-.478-.028-.424.19-1.699z">
   <title id="t3001">St. Croix, WI</title>
  </path>
  <path id="FIPS_55095" d="m328.27 75.35.213 5.544-5.544.207.139-1.122.109-.099.012-.01.24-.297.342-.874-.18-.911-.445-.842-.713-.384-.18.028-.433-.073-.122-.094-.031-.253-.023-.342-.004-.085.012-.204 3.224-.09-.031-1.113 3.375-.09z">
   <title id="t3002">Polk, WI</title>
  </path>
  <path id="FIPS_55005" d="m329.38 75.305 4.44-.167.199 4.449-1.078 1.136-4.466.171-.213-5.544z">
   <title id="t3003">Barron, WI</title>
  </path>
  <path id="FIPS_55107" d="m341.61 74.728.19 3.353-2.177 1.226-5.597.28-.199-4.449z">
   <title id="t3004">Rusk, WI</title>
  </path>
  <path id="FIPS_55119" d="m347.56 77.684.199 3.367-.88.054-.496.406.045.744-1.069.063-5.547.347-.194-3.358 2.177-1.226 2.001-.103 1.213-.118 1.798-.139z">
   <title id="t3005">Taylor, WI</title>
  </path>
  <path id="FIPS_55099" d="m344.74 70.117 2.318-.148.081 1.09.27 4.399.149 2.226-.753.037-1.798.139-1.213.118-2.001.103-.19-3.353-.229-4.417z">
   <title id="t3006">Price, WI</title>
  </path>
  <path id="FIPS_55113" d="m333.41 68.459 5.62-.253.09 2.051.023.185 2.231-.131.229 4.417-7.783.41z">
   <title id="t3007">Sawyer, WI</title>
  </path>
  <path id="FIPS_55129" d="m328.94 68.648 4.471-.189.41 6.679-4.44.167-.202-4.426-.154.005z">
   <title id="t3008">Washburn, WI</title>
  </path>
  <path id="FIPS_55013" d="m326.75 68.743 2.191-.095.085 2.236.154-.005.202 4.426-1.118.045-.04-1.104-3.375.09.031 1.113-3.224.09.367-1.122.905-1.812.112-.202.113-.149.448-.392.003-.005 1.875-1.231 1.312-.819-.018-.505z">
   <title id="t3009">Burnett, WI</title>
  </path>
  <path id="FIPS_55031" d="m326.51 62.239.202.14.248.022.267-.018.044-.027.041-.04.121-.316-.009-.144-.009-.009-.045-.05v-.009l-.031-.081.009-.095.05-.103.63-.429.24-.018.513.501.125.054.046-.032.248.167.135.077.105.045.17.027 1.087-.18.261-.073 2.091-.879.122 3.061.067 1.1.172 3.529-4.471.189-2.191.095-.121-3.345z">
   <title id="t3010">Douglas, WI</title>
  </path>
  <path id="FIPS_55007" d="m338.71 62.681.324 5.525-5.62.253-.172-3.529-.067-1.1-.122-3.061.127.01.229-.05 3.534-1.461.077-.053.373-.275.113-.109.288-.36.262-.338.045-.036.852-.266.135-.023.162.055.483.373.296.343.037.068v.063l-.378.856-.56.784-.643 2.146.003.045.091.103z">
   <title id="t3011">Bayfield, WI</title>
  </path>
  <path id="FIPS_55003" d="m338.71 62.681.085.022h.077l.036-.013.956-.582.211-.157.127-.136 1.149.221.725.473.073 1.077.103 1.839.055 1.492 1.131-.063 1.162 1.037.095 1.113.049 1.113-3.366.194-2.231.131-.023-.185-.09-2.051z">
   <title id="t3012">Ashland, WI</title>
  </path>
  <path id="FIPS_55051" d="m343.26 62.672 1.018.554 1.812 2.227.829.175.91.189.268 4.084-1.037.068-2.318.148-.049-1.113-.095-1.113-1.162-1.037-1.131.063-.055-1.492-.103-1.839-.073-1.077z">
   <title id="t3013">Iron, WI</title>
  </path>
  <path id="FIPS_55125" d="m347.83 65.817 6.464 1.326.486.099.38.081.613.207.635.311.546.266.08 1.177-1.027.072.085 1.118-1.117.536-1.717-.379-6.116.428-.081-1.09 1.037-.068z">
   <title id="t3014">Vilas, WI</title>
  </path>
  <path id="FIPS_55085" d="m356.09 70.474.415 5.53-3.426.212-.108-1.132-2.213.149-3.348.225-.27-4.399 6.116-.428 1.717.379z">
   <title id="t3015">Oneida, WI</title>
  </path>
  <path id="FIPS_55069" d="m353.08 76.216.298 4.479-5.619.356-.199-3.367-.149-2.226 3.348-.225 2.213-.149z">
   <title id="t3016">Lincoln, WI</title>
  </path>
  <path id="FIPS_55067" d="m353.08 76.216 3.426-.212 1.113-.086.059 1.113 2.25-.171.147 2.236.383-.027.06 1.126-3.102.226.091 1.149-2.204.153-1.925-1.028z">
   <title id="t3017">Langlade, WI</title>
  </path>
  <path id="FIPS_55073" d="m347.76 81.051 5.619-.356 1.925 1.028.32 4.48-5.693.343-4.313.265-.258-4.493 1.069-.063-.045-.744.496-.406z">
   <title id="t3018">Marathon, WI</title>
  </path>
  <path id="FIPS_55141" d="m345.62 86.811 4.313-.265.153 2.235 1.082-.068.13 1.759.109 1.64-1.64.086-3.774.243-.171-2.272z">
   <title id="t3019">Wood, WI</title>
  </path>
  <path id="FIPS_55001" d="m352.58 92.057.23 3.404.274 4.385-1.724.135-.98-1.879-.848-.902-.215-.59-.582-2.285.135-.401.898-1.726 1.64-.086z">
   <title id="t3020">Adams, WI</title>
  </path>
  <path id="FIPS_55057" d="m345.99 92.441 3.774-.243-.898 1.726-.135.401.582 2.285.215.59.848.902.98 1.879-4.901.307-.067-1.168-.328-5.476z">
   <title id="t3021">Juneau, WI</title>
  </path>
  <path id="FIPS_55081" d="m340.02 95.082-.064-.762.249-.239.446-.167.977-.063 3.214-.207h1.223l.328 5.476-5.553.393-.141-2.623-.126-1.844z">
   <title id="t3022">Monroe, WI</title>
  </path>
  <path id="FIPS_55063" d="m338.36 95.051 1.659.031.553-.036.126 1.844.141 2.623-3.326.166-.226-1.559-1.347-1.713.906-.045v-.063l-.068-.144-.085-.068-.059-.099.019-.248.012-.045.266-.379 1.099-.32z">
   <title id="t3023">La Crosse, WI</title>
  </path>
  <path id="FIPS_55123" d="m346.39 99.12.067 1.168.081 1.122-3.357.207.122 1.682-5.013.265-.162-.996-.617-2.889 3.326-.166z">
   <title id="t3024">Vernon, WI</title>
  </path>
  <path id="FIPS_55111" d="m346.46 100.29 4.901-.307.476.528 1.266.374.063.053.141 2.299-.171.154-.226.112-.099.031-.135-.017-.086.027-.374.617-.023.176.072.103-1.027 1.196-3.294.748.008-.033-.301-5.02-1.11.081z">
   <title id="t3025">Sauk, WI</title>
  </path>
  <path id="FIPS_55103" d="m346.54 101.41 1.11-.081.301 5.02-.008.033-2.242-.343-2.194.505-.202-3.245-.122-1.682z">
   <title id="t3026">Richland, WI</title>
  </path>
  <path id="FIPS_55023" d="m338.29 103.56 5.013-.265.202 3.245-.676.662-2.862 1.835-.076.03-.91.141-.2-1.226.245-.951.72-1.213.036-.161-.283-.455-.217-.275-1.001-.704z">
   <title id="t3027">Crawford, WI</title>
  </path>
  <path id="FIPS_55049" d="m351.24 105.63.292 4.506.037.564-5.544.355-.321-5.02 2.242.343z">
   <title id="t3028">Iowa, WI</title>
  </path>
  <path id="FIPS_55043" d="m343.5 106.54 2.194-.505.321 5.02.239 3.957-2.027.1.036-.062-.006-.073-.103-.325-.6-1.091-.068-.068-.108-.053-.473-.113-1.221-.234-.496-.118-.262-.121-.761-.505-.117-.243-.861-1.912-.211-.986.91-.141.076-.03 2.862-1.835z">
   <title id="t3029">Grant, WI</title>
  </path>
  <path id="FIPS_55065" d="m346.02 111.06 5.544-.355.266 3.988-5.571.324z">
   <title id="t3030">Lafayette, WI</title>
  </path>
  <path id="FIPS_55045" d="m351.53 110.14 4.422-.139.342 4.457-.338.021-4.123.213-.266-3.988z">
   <title id="t3031">Green, WI</title>
  </path>
  <path id="FIPS_55077" d="m356.78 95.172.104 1.375-.22.843-.397.631.112 1.591-3.295.234-.274-4.385z">
   <title id="t3032">Marquette, WI</title>
  </path>
  <path id="FIPS_55097" d="m349.93 86.546 5.693-.343.392 5.647-3.439.207-1.172.055-.109-1.64-.13-1.759-1.082.068z">
   <title id="t3033">Portage, WI</title>
  </path>
  <path id="FIPS_55135" d="m355.62 86.203 5.661-.383.081 1.132-1.195.094.117 1.577.195 2.898-1.352.113-3.115.216z">
   <title id="t3034">Waupaca, WI</title>
  </path>
  <path id="FIPS_55137" d="m359.13 91.634.256 3.344-2.61.194-3.97.289-.23-3.404 3.439-.207z">
   <title id="t3035">Waushara, WI</title>
  </path>
  <path id="FIPS_55047" d="m359.39 94.978.086 1.132.252 3.38-1.122.09-1.119.099-.008-.153-1.1.086-.112-1.591.397-.631.22-.843-.104-1.375z">
   <title id="t3036">Green Lake, WI</title>
  </path>
  <path id="FIPS_55021" d="m356.38 99.612 1.1-.086.008.153 1.119-.099.312 4.499-.897.094-2.408.189-.013-.166-3.336.242-.072-.103.023-.176.374-.617.086-.027.135.017.099-.031.226-.112.171-.154-.141-2.299-.063-.053-1.266-.374-.476-.528 1.724-.135z">
   <title id="t3037">Columbia, WI</title>
  </path>
  <path id="FIPS_55025" d="m358.92 104.08.085 1.121.287 4.535-3.339.266-4.422.139-.292-4.506 1.027-1.196 3.336-.242.013.166 2.408-.189z">
   <title id="t3038">Dane, WI</title>
  </path>
  <path id="FIPS_55105" d="m361.52 109.62.351 4.512-1.55.103-4.026.221-.342-4.457 3.339-.266z">
   <title id="t3039">Rock, WI</title>
  </path>
  <path id="FIPS_55059" d="m366.19 112.27 1.113-.094-.064-.757 1.748-.149 1.854-.144.244 2.285-3.778.261-.983.099z">
   <title id="t3040">Kenosha, WI</title>
  </path>
  <path id="FIPS_55101" d="m368.16 109.08 2.277-.189.401 2.232-1.854.144-1.748.149.064.757-1.113.094-.248-2.988z">
   <title id="t3041">Racine, WI</title>
  </path>
  <path id="FIPS_55127" d="m363.73 109.45 2.208-.167.248 2.988.134 1.501-3.803.316-.654.045-.351-4.512z">
   <title id="t3042">Walworth, WI</title>
  </path>
  <path id="FIPS_55027" d="m359.73 99.49 1.123-.081 3.388-.235.073.848.022.279.167 2.241-.158.013.186 2.262-1.1.068-4.426.315-.085-1.121-.312-4.499z">
   <title id="t3043">Dodge, WI</title>
  </path>
  <path id="FIPS_55055" d="m359 105.2 4.426-.315.307 4.566-2.218.171-2.228.113z">
   <title id="t3044">Jefferson, WI</title>
  </path>
  <path id="FIPS_55133" d="m367.84 104.58.32 4.506-2.221.199-2.208.167-.307-4.566 1.1-.068z">
   <title id="t3045">Waukesha, WI</title>
  </path>
  <path id="FIPS_55079" d="m369.45 104.45.992 4.448-2.277.189-.32-4.506z">
   <title id="t3046">Milwaukee, WI</title>
  </path>
  <path id="FIPS_55089" d="m367.68 100.04 2.29-.203.063.649-.099.419-.154.357-.23.401-.071.157-.059.181-.032.144-.19 1.564.033.184.171.487.045.068-1.605.131-.175-2.258.121-.956z">
   <title id="t3047">Ozaukee, WI</title>
  </path>
  <path id="FIPS_55131" d="m366.56 100.12 1.122-.085.108 1.325-.121.956.175 2.258-3.316.238-.186-2.262.158-.013-.167-2.241z">
   <title id="t3048">Washington, WI</title>
  </path>
  <path id="FIPS_55139" d="m363.58 91.265.374 4.534-4.475.311-.086-1.132-.256-3.344 1.352-.113z">
   <title id="t3049">Winnebago, WI</title>
  </path>
  <path id="FIPS_55039" d="m366.18 95.632.378 4.493-2.227.176-.022-.279-.073-.848-3.388.235-1.123.081-.252-3.38 4.475-.311-.049-.591z">
   <title id="t3050">Fond du Lac, WI</title>
  </path>
  <path id="FIPS_55117" d="m370.16 95.271.429 1.596.067 1.032-.026.108-.663 1.83-2.29.203-1.122.085-.378-4.493 1.113-.095z">
   <title id="t3051">Sheboygan, WI</title>
  </path>
  <path id="FIPS_55015" d="m365.52 91.138 1.379-.103.392 4.502-1.113.095-2.281-.424-.325-3.943z">
   <title id="t3052">Calumet, WI</title>
  </path>
  <path id="FIPS_55071" d="m369.35 89.709 2.051-.184.433 1.23.027.244-.027.234-.05.172-.162.279-.198.216-.329.194-.176.14-.217.243-.243 1.122-.076.401-.222 1.271-2.87.266-.392-4.502 1.428-.113-.095-1.122.56-.045z">
   <title id="t3053">Manitowoc, WI</title>
  </path>
  <path id="FIPS_55009" d="m364.6 85.54 2.312-.171-.095.189-.261 1.204-.004.081.369.325.329.085.248-.013.126-.09.099-.167.122-.28.012-.067-.048-.09.018-.045.288-.334.5-.405.415-.14.32 4.087-.558.046-.56.045.095 1.122-1.428.113-1.379.103-.046-.743-.302-3.701-.495.068z">
   <title id="t3054">Brown, WI</title>
  </path>
  <path id="FIPS_55087" d="m361.37 86.952 3.313-.19.495-.068.302 3.701.046.743-1.948.127-3.091.256-.195-2.898-.117-1.577z">
   <title id="t3055">Outagamie, WI</title>
  </path>
  <path id="FIPS_55115" d="m357.51 81.57.085 1.104 2.24-.171.077 1.117 2.258-.162 2.198-.139.236 2.221.077 1.222-3.313.19-.081-1.132-5.661.383-.32-4.48z">
   <title id="t3056">Shawano, WI</title>
  </path>
  <path id="FIPS_55078" d="m357.51 81.57-.091-1.149 3.102-.226 1.432-.108.118 1.996.099 1.375-2.258.162-.077-1.117-2.24.171z">
   <title id="t3057">Menominee, WI</title>
  </path>
  <path id="FIPS_55083" d="m362.19 76.703 1.109-.055 1.974 3.259.072 1.113 1.639.262 1.705.202-.059.014-.405.18-.055.045-.157.261-1.086 2.835-.023.438.009.112-2.312.171-.236-2.221-2.198.139-.099-1.375-.118-1.996-1.432.108-.06-1.126-.383.027-.147-2.236z">
   <title id="t3058">Oconto, WI</title>
  </path>
  <path id="FIPS_55041" d="m356.96 68.107 2.289.586.116.428.24 3.313 2.259-.171.333 4.44-2.262.157-2.25.171-.059-1.113-1.113.086-.415-5.53-.085-1.118 1.027-.072z">
   <title id="t3059">Forest, WI</title>
  </path>
  <path id="FIPS_55037" d="m359.24 68.693.185.329 1.577-.167 2.623.329.02.005.224.036.343.166.212.141.139.089.265.379.028.041.013.045-.126.216-.144.203-.063.05-.158.202-.005.009-.013.045.058.113.009.005.344.279.076.018.122.032.009.004.122-.018.062.87-1.073.023-2.234.126-2.259.171-.24-3.313z">
   <title id="t3060">Florence, WI</title>
  </path>
  <path id="FIPS_55075" d="m365.1 71.244 2.131.573.171.139.014.01.023.022.27.333.09 2.326.798 3.836.005.009.08.265.041.068.712.753.009.004.234.04.41.064-1.401 1.798-1.705-.202-1.639-.262-.072-1.113-1.974-3.259-1.109.055-.333-4.44 2.234-.126 1.073-.023z">
   <title id="t3061">Marinette, WI</title>
  </path>
 </g>
</svg>