<svg id="svg9559" width="555.22" height="351.67" xmlns="http://www.w3.org/2000/svg" viewBox="427.4859619140625 128.57000732421875 46.0250244140625 45.92298889160156">
 <g id="stylegroup" fill="#d0d0d0" stroke="#000" stroke-width=".1">
  <path id="FIPS_54003" d="m469.82 137.34 2.228 1.23-.108.609-.085.18-.528.802-.188.126-.06.137-.46 1.188-.018.077-.009.2-2.217-1.258.36-2.692.023-.058z">
   <title id="t3062">Berkeley, WV</title>
  </path>
  <path id="FIPS_54037" d="m472.05 138.57 1.461 2.006-.596 2.614-2.321-1.301.009-.2.018-.077.46-1.188.06-.137.188-.126.528-.802.085-.18z">
   <title id="t3063">Jefferson, WV</title>
  </path>
  <path id="FIPS_54011" d="m430.93 157.44 1.848 1.272.271 1.275-1.894 2.186-2.74-1.983 1.592-.63.099-.064.053-.068.028-.076.018-.086.018-.094.045-.924.004-.027.004-.564z">
   <title id="t3064">Cabell, WV</title>
  </path>
  <path id="FIPS_54099" d="m428.41 160.19 2.74 1.983-.082.37.272 1.108.045.062.346.366.285.717-.743 1.109-.867 1.217-1.045-.964.261-.451v-.072l-.004-.01-.014-.018-1.586-1.514-.027-.008-.193-.042-.181-.161v-.01l-.091-.226-.04-.113v-.004l.252-1.103-.212-2.263z">
   <title id="t3065">Wayne, WV</title>
  </path>
  <path id="FIPS_54059" d="m431.28 165.9 1.095-.568-.042.167.744 1.511.573 1.081 1.217.977.247-.112.343-.15.658-.053.74.045-.316 1.514-.653.582-.455-.271-.393.117-.4.091-.732-.266h-.003l-2.052-1.38-.377-.581-.019-.063.004-.009-1.046-1.415z">
   <title id="t3066">Mingo, WV</title>
  </path>
  <path id="FIPS_54045" d="m434.86 164.3-.257.28-.149.225v.067l.036.05 1.226.261.419-.045.406.14 1.429 1.081.469.366.126.13-1.22.528-.109.31.553.425-.427.342-.505.338-.74-.045-.658.053-.343.15-.247.112-1.217-.977-.573-1.081-.744-1.511.042-.167z">
   <title id="t3067">Logan, WV</title>
  </path>
  <path id="FIPS_54109" d="m438.56 166.86.928-.175.589.027.358.378 1.122 1.461 1.417 1.285-.723 1.243-1.546-.356-1.51-.073-1.275.159-.875-.027-.509-.465.316-1.514.505-.338.427-.342-.553-.425.109-.31z">
   <title id="t3068">Wyoming, WV</title>
  </path>
  <path id="FIPS_54047" d="m436.54 170.31.509.465.875.027 1.275-.159 1.51.073 1.546.356-.339 1.194-.374.752-.883.808-.008.009-.442.406-.032.018-1.181.234-.675-.401-1.146-.414-.117-.06h-.004l-.848-.739-.87-1.235-.072-.193.027-.086.455-.41.141-.063z">
   <title id="t3069">McDowell, WV</title>
  </path>
  <path id="FIPS_54055" d="m444.09 168.63 2.683 1.662-.929 1.948-2.354 1.136-1.582-1.105.339-1.194.723-1.243z">
   <title id="t3070">Mercer, WV</title>
  </path>
  <path id="FIPS_54063" d="m448.12 166.1 3.753-.095.889.695-.581.703-.316.654.23.427-1.153 1.019-.293.248-.483-.694-1.014.802-.104.082-1.253.941-1.001-.573.609-1.811.712-1.956.068-.23z">
   <title id="t3071">Monroe, WV</title>
  </path>
  <path id="FIPS_54089" d="m446.4 164.57 1.713 1.533.063.212-.068.23-.712 1.956-.609 1.811-.012-.018-2.683-1.662.112-.591.04-.117.768-1.1.306-.058.104.018.334.135.102.103v.145l.064.014.131-.1.009-.04-.014-.086-.338-1.032-.388-.397-.126-.077-.081-.017z">
   <title id="t3072">Summers, WV</title>
  </path>
  <path id="FIPS_54081" d="m439.67 164.07.793.117.951.852.064.041 2.257.031 1.379.316.081.017.126.077.388.397.338 1.032.014.086-.009.04-.131.1-.064-.014v-.145l-.102-.103-.334-.135-.104-.018-.306.058-.768 1.1-.04.117-.112.591-1.12 1.204-1.417-1.285-1.122-1.461-.358-.378-.589-.027z">
   <title id="t3073">Raleigh, WV</title>
  </path>
  <path id="FIPS_54005" d="m439.67 164.07-.185 2.61-.928.175-.126-.13-.469-.366-1.429-1.081-.406-.14-.419.045-1.226-.261-.036-.05v-.067l.149-.225.257-.28.63-2.515 1.078-.334.261-.071.207.013 1.722 1.126.739 1.1z">
   <title id="t3074">Boone, WV</title>
  </path>
  <path id="FIPS_54043" d="m433.05 159.98 1.401.433 1.036 1.37-.63 2.515-2.483 1.032-1.095.568.743-1.109-.285-.717-.346-.366-.045-.062-.272-1.108.082-.37z">
   <title id="t3075">Lincoln, WV</title>
  </path>
  <path id="FIPS_54079" d="m436.04 156.22-.487.685-1.091 2.551-.009.96-1.401-.433-.271-1.275-.347-1.704.982-.793 1.763-.572z">
   <title id="t3076">Putnam, WV</title>
  </path>
  <path id="FIPS_54053" d="m433.45 153.3-.014.031.099.153 1.353 1.509.284.646-1.763.572-.982.793.347 1.704-1.848-1.272.189-.041.059-.012.022-.024.056-.045.025-.027.041-.067.013-.063.005-.076.005-.045v-.018l-.014-.09-.258-1.051-.003-.004.13-2.083.226-1.235.031-.18.46-.779.171-.09.153.008h.005l.73.398.195.242.247.37.036.1z">
   <title id="t3077">Mason, WV</title>
  </path>
  <path id="FIPS_54035" d="m436.39 150.91.986 1.276.411 3.949-1.748.085-.861-.581-.284-.646-1.353-1.509-.099-.153.014-.031.329-.086 1.045-.744.024-.108-.24-1.038-.108-.126-.226-.151-.112-.082-.108-.141-.049-.176v-.112l.612-.266z">
   <title id="t3078">Jackson, WV</title>
  </path>
  <path id="FIPS_54039" d="m436.04 156.22 1.748-.085.686.743 2.46-.167.27.013-.774.852.486 1.199.451 1.397-.004.005-.893 4.011-.793-.117-.181-.451-.739-1.1-1.722-1.126-.207-.013-.261.071-1.078.334-1.036-1.37.009-.96 1.091-2.551z">
   <title id="t3079">Kanawha, WV</title>
  </path>
  <path id="FIPS_54019" d="m445.17 161.68 1.235 2.888-1.285.862-1.379-.316-2.257-.031-.064-.041-.951-.852.893-4.011.847.356.812.257h.072l.04-.036-.011-.176.209-.23.576-.036.16.063.296.244z">
   <title id="t3080">Fayette, WV</title>
  </path>
  <path id="FIPS_54015" d="m442.12 155.47.403-.797 1.815 1.829.581.072.108.19-.797.968-2.867 2.443-.451-1.397-.486-1.199.774-.852z">
   <title id="t3081">Clay, WV</title>
  </path>
  <path id="FIPS_54087" d="m437.37 152.19.858-.172.752.211.61-.347.706.826.122.577.897 1.893.802.293-.92 1.257-.27-.013-2.46.167-.686-.743z">
   <title id="t3082">Roane, WV</title>
  </path>
  <path id="FIPS_54013" d="m441.8 150.28.343.491.053.085.243 1.47.438 1.622-.359.718-.403.797-.802-.293-.897-1.893-.122-.577-.706-.826.905-1.662z">
   <title id="t3083">Calhoun, WV</title>
  </path>
  <path id="FIPS_54105" d="m438.86 148.44 1.64 1.78-.905 1.662-.61.347-.752-.211-.858.172-.986-1.276z">
   <title id="t3084">Wirt, WV</title>
  </path>
  <path id="FIPS_54107" d="m437.82 146.54 1.44.748-.405 1.154-2.471 2.474-1.767-.64-.184-1.081.405-.893 1.289-1.641.627-.766.103-.089.09-.028.113.009.253.14.072.077z">
   <title id="t3085">Wood, WV</title>
  </path>
  <path id="FIPS_54073" d="m441.36 145.86-.694.391-1.275.487-.059.091-.04.171-.032.279-1.44-.748 1.981-1.699z">
   <title id="t3086">Pleasants, WV</title>
  </path>
  <path id="FIPS_54085" d="m441.36 145.86 1.281.54 1.126 2.253-1.965 1.628-1.307-.068-1.64-1.78.405-1.154.032-.279.04-.171.059-.091 1.275-.487z">
   <title id="t3087">Ritchie, WV</title>
  </path>
  <path id="FIPS_54021" d="m443.77 148.66.856.042 1.605 2.262-.033-.004-.102.049-.487.253-.269.179-1.498 1.556-.96.959-.438-1.622-.243-1.47-.053-.085-.343-.491z">
   <title id="t3088">Gilmer, WV</title>
  </path>
  <path id="FIPS_54007" d="m446.23 150.96.194.419.117.127.54-.113.596.266.374.783.026.244-.041.149-1.458 3.042-2.241.622-1.815-1.829.359-.718.96-.959 1.498-1.556.269-.179.487-.253.102-.049z">
   <title id="t3089">Braxton, WV</title>
  </path>
  <path id="FIPS_54067" d="m446.58 155.88-.195.379.441.987.515.726 1.906.887-.811 1.037-1.344 1.631-.189.195-1.735-.041-.807-1.059-.296-.244-.16-.063-.576.036-.209.23.011.176-.04.036h-.072l-.812-.257-.847-.356.004-.005 2.867-2.443.797-.968-.108-.19-.581-.072z">
   <title id="t3090">Nicholas, WV</title>
  </path>
  <path id="FIPS_54025" d="m450.09 159.26.204 1.438 1.127.703.553.031.419-.057.573-.357 1.446-.347-.698 1.591-1.849 3.74-3.753.095-1.713-1.533-1.235-2.888 1.735.041.189-.195 1.344-1.631.811-1.037z">
   <title id="t3091">Greenbrier, WV</title>
  </path>
  <path id="FIPS_54101" d="m448.04 152.84.663.05 1.18.229 1.313 2.015-.316 1.856-.725.817-.24-.085.181 1.545-.847-.406-1.906-.887-.515-.726-.441-.987.195-.379z">
   <title id="t3092">Webster, WV</title>
  </path>
  <path id="FIPS_54097" d="m448.81 147.9.693-.234 1.754 1.887.1 1.39-.069 1.261-1.086.208-.321.698-1.18-.229-.253-.496-.003-1.406.009-.135.035-.042.068-.012.185-.398.162-.547-.053-1.394z">
   <title id="t3093">Upshur, WV</title>
  </path>
  <path id="FIPS_54041" d="m445.78 147.57 3.033.333.041.551.053 1.394-.162.547-.185.398-.068.012-.035.042-.009.135.003 1.406.253.496-.663-.05.041-.149-.026-.244-.374-.783-.596-.266-.54.113-.117-.127-.194-.419-1.605-2.262z">
   <title id="t3094">Lewis, WV</title>
  </path>
  <path id="FIPS_54017" d="m444.96 143.98.767.153.05 3.444-1.15 1.127-.856-.042-1.126-2.253z">
   <title id="t3095">Doddridge, WV</title>
  </path>
  <path id="FIPS_54095" d="m441.46 142.48 3.497 1.497-2.315 2.429-1.281-.54-1.559-1.028.869-1.357z">
   <title id="t3096">Tyler, WV</title>
  </path>
  <path id="FIPS_54033" d="m446.14 143.53 3.06.5.627 1.885-.321 1.758-.693.234-3.033-.333-.05-3.444z">
   <title id="t3097">Harrison, WV</title>
  </path>
  <path id="FIPS_54029" d="m443.43 128.57.342 2.069.171 1.005-.947.217-.878-2.336z">
   <title id="t3098">Hancock, WV</title>
  </path>
  <path id="FIPS_54009" d="m443.94 131.65.498 3.07-1.67-.086.225-2.767z">
   <title id="t3099">Brooke, WV</title>
  </path>
  <path id="FIPS_54069" d="m442.77 134.63 1.67.086.3 1.838-2.1.122.026-1.641z">
   <title id="t3100">Ohio, WV</title>
  </path>
  <path id="FIPS_54051" d="m444.74 136.56.618 3.782-3.007.5-.108-1.735.397-2.425z">
   <title id="t3101">Marshall, WV</title>
  </path>
  <path id="FIPS_54103" d="m446.31 140.18.423 1.037-.599 2.307-.41.6-.767-.153-3.497-1.497.888-1.64 3.007-.5z">
   <title id="t3102">Wetzel, WV</title>
  </path>
  <path id="FIPS_54049" d="m446.74 141.22.528.249 1.889-.299.77.591.491.433 1.172.645-2.389 1.188-3.06-.5z">
   <title id="t3103">Marion, WV</title>
  </path>
  <path id="FIPS_54001" d="m453.33 145.47.105 1.497-.195.311-.036.09-.121 1.068-.009.375-.027.103-1.794.648-1.754-1.887.321-1.758 2.524-1.186z">
   <title id="t3104">Barbour, WV</title>
  </path>
  <path id="FIPS_54091" d="m451.58 142.84.469.143.293 1.744-2.524 1.186-.627-1.885z">
   <title id="t3105">Taylor, WV</title>
  </path>
  <path id="FIPS_54061" d="m452.7 139.11.055.306-.085.977-.763 2.002.15.586-.469-.143-1.172-.645-.491-.433-.77-.591-1.889.299-.528-.249-.423-1.037 4.908-.82z">
   <title id="t3106">Monongalia, WV</title>
  </path>
  <path id="FIPS_54075" d="m456.39 152.41-.06.968-.017 1.068-.05.911-.266.947-.617.959-.005.045v.014l.243.491-1.199 2.858-1.446.347-.573.357-.419.057-.553-.031-1.127-.703-.204-1.438-.181-1.545.24.085.725-.817.906-1.081 1.091-.185 1.429-1.451.067-1.038.032-.224.297-1.271.054-.041.217.041 1.38.488z">
   <title id="t3107">Pocahontas, WV</title>
  </path>
  <path id="FIPS_54077" d="m455.49 138.62 1.059 6.612.019.145-.248-.239-1.875-.401-1.11.729-.986-.739-.293-1.744-.15-.586.763-2.002.085-.977-.055-.306z">
   <title id="t3108">Preston, WV</title>
  </path>
  <path id="FIPS_54083" d="m458.36 148.1.094.078-.892.734-.495.613-.208.446v.018l.175.329.081.036.15.117.027.073-.018.176-.159.459-.509.982-.215.249-.036-.189-1.38-.488-.217-.041-.054.041-.297 1.271-.032.224-.067 1.038-1.429 1.451-1.091.185-.906 1.081.316-1.856-1.313-2.015.321-.698 1.086-.208.069-1.261-.1-1.39 1.794-.648.027-.103.009-.375.121-1.068.036-.09.195-.311.586.902 2.955.311z">
   <title id="t3109">Randolph, WV</title>
  </path>
  <path id="FIPS_54071" d="m458.45 148.18 2.444 1.464.874.532-1.014 3.913-.699 1.009-1.727-.293-.612-.907-.189-.189-.203-.09-.997-.239.06-.968.215-.249.509-.982.159-.459.018-.176-.027-.073-.15-.117-.081-.036-.175-.329v-.018l.208-.446.495-.613z">
   <title id="t3110">Pendleton, WV</title>
  </path>
  <path id="FIPS_54093" d="m453.33 145.47 1.11-.729 1.875.401.248.239.923-.171.708.473.496.928.004.348-.022.368-.1.438-.22.342-1.376.073-2.955-.311-.586-.902z">
   <title id="t3111">Tucker, WV</title>
  </path>
  <path id="FIPS_54023" d="m458.16 143.3 3.263.653-.055.135-.265 1.051-.294 1.558.155.447.283 1.326-.355 1.18-2.444-1.464-.094-.078.22-.342.1-.438.022-.368-.004-.348-.496-.928-.708-.473-.923.171-.019-.145z">
   <title id="t3112">Grant, WV</title>
  </path>
  <path id="FIPS_54031" d="m461.42 143.95.883.352 1.492.283.893.099.622-.099.083-.063.363.036.266.163.356.288-.276.473-.008.492-.018.09-.316.699-.946.892-.032-.005-.041-.063-.04-.067-.514.487-.044.071-.023.036-.131.406-.383 1.303-1.843.356-.874-.532.355-1.18-.283-1.326-.155-.447.294-1.558.265-1.051z">
   <title id="t3113">Hardy, WV</title>
  </path>
  <path id="FIPS_54057" d="m463.87 139.57-2.443 4.381-3.263-.653 1.834-2.213 1.064.239 1.618-2.227z">
   <title id="t3114">Mineral, WV</title>
  </path>
  <path id="FIPS_54027" d="m463.87 139.57 1.879-.103 1.303.428.113 1.411-.027 2.46-.036.208-.15.351-.152.278-.303.299-.112.108-.356-.288-.266-.163-.363-.036-.083.063-.622.099-.893-.099-1.492-.283-.883-.352z">
   <title id="t3115">Hampshire, WV</title>
  </path>
  <path id="FIPS_54065" d="m466.78 137.7.523.104.117-.014.348-.641.256-.405.068-.077.059-.022.334.009.364.04.361.135.45.326.166.184-1.062.541-.023.058-.36 2.692-1.33-.735-1.303-.428z">
   <title id="t3116">Morgan, WV</title>
  </path>
 </g>
</svg>