<svg id="svg9559" width="555.22" height="351.67" xmlns="http://www.w3.org/2000/svg" viewBox="148.46600341796875 73.43400573730469 71.51800537109375 59.37298583984375">
 <g id="stylegroup" fill="#d0d0d0" stroke="#000" stroke-width=".1">
  <path id="FIPS_56021" d="m204.66 123.26 5.963.612-.103 1.137 5.741.517-.184 2.214-.437 5.067-8.586-.727-3.214-.311z">
   <title id="t3117">Laramie, WY</title>
  </path>
  <path id="FIPS_56015" d="m217.42 111.98-.667 7.883-.338 3.927-.145 1.729-5.741-.517.103-1.137 1.105-12.357 1.618.142 2.284.173z">
   <title id="t3118">Goshen, WY</title>
  </path>
  <path id="FIPS_56039" d="m155.88 77.694 3.51.55-.162 1.068 2.655.405.591.505.098.135.077.347-.04.181-.01 1.221.344 1.177.567 1.681.442.95-1.258 8.551-.216 1.109-2.655-.402-.166 1.109-2.169-.338-.117.721-2.177-.338.127-.825-1.019-.374-1.077-.171 1.329-8.537.992-6.264z">
   <title id="t3119">Teton, WY</title>
  </path>
  <path id="FIPS_56023" d="m153.22 94.956 1.077.171 1.019.374-.127.825 2.177.338-.211 1.397-.776 4.43-.157.884-.519 3.354.118 2.258 2.145.356 2.425.429-.28 1.869-.212 1.903-.779 5.133-9.47-1.493.861-5.409 1.051-6.551 1.058-6.482z">
   <title id="t3120">Lincoln, WY</title>
  </path>
  <path id="FIPS_56041" d="m149.66 117.18 9.47 1.493-1.114 7.45-4.336-.622-5.214-.861.523-3.254z">
   <title id="t3121">Uinta, WY</title>
  </path>
  <path id="FIPS_56035" d="m162.69 94.465 2.74.427.379 1.334.099.754-.013.103-.117.307-.059.27-.018.514.122.505.649 2.262 1.893 2.277 1.528 1.806.477.641-.189 3.376-.302 2.181-4.3-.6-2.348-.369-2.839-.481-2.425-.429-2.145-.356-.118-2.258.519-3.354.157-.884.776-4.43.211-1.397.117-.721 2.169.338.166-1.109 2.655.402z">
   <title id="t3122">Sublette, WY</title>
  </path>
  <path id="FIPS_56029" d="m167.91 75.143 4.791.649 1.677.307.184.026 1.195.162 2.799.37-.212 1.65.207.396-.311 2.759-.067 1.392-.604 4.516.211.027-.152 1.141-2.214-.298-1.293.983-.122 1.104-1.654-.221-.153 1.132-1.659-.23-.379-.018-.053-.212-.695-1.15-.473-.45-.167-.126-.45-.257-.095-.005-.888.365-.144.185-.239.473-1.699.163-.888-1.686-.645-.78.235-1.596-.442-.95-.567-1.681-.344-1.177.01-1.221.04-.181-.077-.347-.098-.135-.591-.505-2.655-.405.162-1.068-3.51-.55.784-4.26 1.519.235 1.122.229.396.136 1.357.212.023.004 2.997.406 1.018.049.758.118z">
   <title id="t3123">Park, WY</title>
  </path>
  <path id="FIPS_56037" d="m160.4 109.77 2.839.481 2.348.369 4.3.6 14.337 1.888-.122 1.501.028.761-.559 4.473-.171 1.068-3.994-.523-.243 2.244-.059 1.131-.658 5.107-3.191-.384-7.666-1.032-1.511-.22-4.497-.6-.375-.054-1.343-.189-1.383-.198h-.01l-.455-.068 1.114-7.45.779-5.133.212-1.903z">
   <title id="t3124">Sweetwater, WY</title>
  </path>
  <path id="FIPS_56013" d="m185.5 97.083.554.068.122.392-.257 2.218-.28 2.213.109.234-.509 4.241-.438 1.456-.487 2.961.18.023-.27 2.221-14.337-1.888.302-2.181.189-3.376-.477-.641-1.528-1.806-1.893-2.277-.649-2.262-.122-.505.018-.514.059-.27.117-.307.013-.103-.099-.754-.379-1.334-2.74-.427 1.023-6.955.645.78.888 1.686 1.699-.163.239-.473.144-.185.888-.365.095.005.45.257.167.126.473.45.695 1.15.053.212.627.734.473.911-.131.928 1.132.253 1.045.148 1.087.329.676.536.298.55 1.049.519 2.132.847.811.108.587.027.306-.054 5.201.631z">
   <title id="t3125">Fremont, WY</title>
  </path>
  <path id="FIPS_56017" d="m177.63 88.538.558.067.428 1.204-.171 1.136 1.01.869 1.194.519 1.456.189.473.757.171.438 1.997.247.978 1.258-.225 1.861-.05.374-5.201-.631-.306.054-.587-.027-.811-.108-2.132-.847-1.049-.519-.298-.55-.676-.536-1.087-.329-1.045-.148-1.132-.253.131-.928-.473-.911-.627-.734.379.018 1.659.23.153-1.132 1.654.221.122-1.104 1.293-.983z">
   <title id="t3126">Hot Springs, WY</title>
  </path>
  <path id="FIPS_56043" d="m177.63 88.538.152-1.141 10.777 1.37 2.1.28.167.018-.518 4.493-.325 4.08-3.93-.487-.554-.068.225-1.861-.978-1.258-1.997-.247-.171-.438-.473-.757-1.456-.189-1.194-.519-1.01-.869.171-1.136-.428-1.204z">
   <title id="t3127">Washakie, WY</title>
  </path>
  <path id="FIPS_56003" d="m178.56 76.657 3.367.456 3.069.374.18.153.059.076.148 1.095.163 1.497.59 1.041.428.356.243.122.163-.068.257-.054.5.311 1.388 1.253.081.198.027.28 1.335 1.644.225.754.135.87-.257 2.032-2.1-.28-10.777-1.37-.211-.027.604-4.516.067-1.392.311-2.759-.207-.396z">
   <title id="t3128">Big Horn, WY</title>
  </path>
  <path id="FIPS_56033" d="m199.92 79.33 2.167.234-.152 1.605-.086 1.532-.117 1.501-.091.893-1.55-.163-2.285-.211-.005.054-8.586-1.028-.027-.28-.081-.198-1.388-1.253-.5-.311-.257.054-.163.068-.243-.122-.428-.356-.59-1.041-.163-1.497-.148-1.095-.059-.076-.18-.153 2.744.342 4.296.527.482.099 1.74.212z">
   <title id="t3129">Sheridan, WY</title>
  </path>
  <path id="FIPS_56019" d="m190.66 89.047.257-2.032-.135-.87-.225-.754-1.335-1.644 8.586 1.028.005-.054 2.285.211 1.55.163-.161 1.081-.159 1.343-.256 2.443.004.131.022.067-.094 1.055-.284 2.713-.153.708-.28 2.528-.162 1.672-.563-.053-4.733-.478-4.858-.568.013-.099.325-4.08.518-4.493z">
   <title id="t3130">Johnson, WY</title>
  </path>
  <path id="FIPS_56025" d="m186.05 97.151 3.93.487-.013.099 4.858.568 4.733.478-.018.531-.271 2.623-.36 3.3-.428 3.844-.356 3.381-5.463-.574-2.835-.35-5.337-.649-.18-.023.487-2.961.438-1.456.509-4.241-.109-.234.28-2.213.257-2.218z">
   <title id="t3131">Natrona, WY</title>
  </path>
  <path id="FIPS_56007" d="m184.49 110.89 5.337.649 2.835.35 5.463.574h.022l-.848 8-.437 4.281-.094 1.123-1.339-.127-1.095-.14-.388 3.511-.153 1.605-5.151-.625-4.427-.521-5.773-.697.658-5.107.059-1.131.243-2.244 3.994.523.171-1.068.559-4.473-.028-.761.122-1.501z">
   <title id="t3132">Carbon, WY</title>
  </path>
  <path id="FIPS_56001" d="m198.15 112.46 4.877.541-.037.315-.22.356-.369-.04-.086.941.126.104.928.193 1.181.113.194-.545.045-.554.131-.36.212-.32.464.04-.338 4.435-.131 1.518-.288 2.961-.172 1.096-.82 8.509-8.798-.901-1.253-.149.153-1.605.388-3.511 1.095.14 1.339.127.094-1.123.437-4.281z">
   <title id="t3133">Albany, WY</title>
  </path>
  <path id="FIPS_56045" d="m209.68 90.945 6.256.509 3.186.289-.044.504-.32 3.705-.379 4.521-7.865-.659-1.672-.144z">
   <title id="t3134">Weston, WY</title>
  </path>
  <path id="FIPS_56011" d="m210.6 80.335.464.045 8.92.843-.866 10.52-3.186-.289-6.256-.509-.027-.005.031-.523.654-6.95.117-1.595z">
   <title id="t3135">Crook, WY</title>
  </path>
  <path id="FIPS_56005" d="m202.09 79.564.97.045.649.036 6.891.69-.149 1.537-.117 1.595-.654 6.95-.031.523.027.005-.838 8.725-8.717-.834.162-1.672.28-2.528.153-.708.284-2.713.094-1.055-.022-.067-.004-.131.256-2.443.159-1.343.161-1.081.091-.893.117-1.501.086-1.532z">
   <title id="t3136">Campbell, WY</title>
  </path>
  <path id="FIPS_56009" d="m200.12 98.836 8.717.834 1.672.144-.158 1.87-.559 5.932-.09 1.447-.202 2.249-1.907-.176-1.807-.139-.194 2.249-.464-.04-.212.32-.131.36-.045.554-.194.545-1.181-.113-.928-.193-.126-.104.086-.941.369.04.22-.356.037-.315-4.877-.541h-.022l.356-3.381.428-3.844.36-3.3.271-2.623.018-.531z">
   <title id="t3137">Converse, WY</title>
  </path>
  <path id="FIPS_56027" d="m218.38 100.47-.536 6.485-.424 5.025-1.781-.157-2.284-.173-1.618-.142-2.231-.199.202-2.249.09-1.447.559-5.932.158-1.87z">
   <title id="t3138">Niobrara, WY</title>
  </path>
  <path id="FIPS_56031" d="m209.5 111.31 2.231.199-1.105 12.357-5.963-.612.172-1.096.288-2.961.131-1.518.338-4.435.194-2.249 1.807.139z">
   <title id="t3139">Platte, WY</title>
  </path>
 </g>
</svg>