<svg xmlns="http://www.w3.org/2000/svg" viewBox="0 0 552 74.3">
  <title>h-legend</title>
  <rect class="cl_0" x="0" width="50" height="25"><title>{DAT_0}</title></rect>
  <rect class="cl_1" x="50" width="50" height="25"><title>{DAT_1}</title></rect>
  <rect class="cl_2" x="100" width="50" height="25"><title>{DAT_2}</title></rect>
  <rect class="cl_3" x="150" width="50" height="25"><title>{DAT_3}</title></rect>
  <rect class="cl_4" x="200" width="50" height="25"><title>{DAT_4}</title></rect>
  <rect class="cl_5" x="250" width="50" height="25"><title>{DAT_5}</title></rect>
  <rect class="cl_6" x="300" width="50" height="25"><title>{DAT_6}</title></rect>
  <rect class="cl_7" x="350" width="50" height="25"><title>{DAT_7}</title></rect>
  <rect class="cl_8" x="400" width="50" height="25"><title>{DAT_8}</title></rect>
  <rect class="cl_9" x="450" width="50" height="25"><title>{DAT_9}</title></rect>
  <rect class="cl_10" x="500" width="50" height="25"><title>{DAT_10}</title></rect>
  <text class="l" x="2" y="40" width="50">{DAT_0}</text>
  <text class="l" x="52" y="40" width="50">{DAT_1}</text>
  <text class="l" x="102" y="40" width="50">{DAT_2}</text>
  <text class="l" x="152" y="40" width="50">{DAT_3}</text>
  <text class="l" x="202" y="40" width="50">{DAT_4}</text>
  <text class="l" x="252" y="40" width="50">{DAT_5}</text>
  <text class="l" x="302" y="40" width="50">{DAT_6}</text>
  <text class="l" x="352" y="40" width="50">{DAT_7}</text>
  <text class="l" x="402" y="40" width="50">{DAT_8}</text>
  <text class="l" x="452" y="40" width="50">{DAT_9}</text>
  <text class="l" x="502" y="40" width="50">{DAT_10}</text>
</svg>
