<svg xmlns="http://www.w3.org/2000/svg" viewBox="0 0 466.2 482.9">
  <defs>
    <style>
      .a {
        fill: #870f0f;
      }
    </style>
  </defs>
  <title>corona_files</title>
  <path class="a" d="M197.8,497.6h-2a3.2,3.2,0,0,0-1.3-.9,35.1,35.1,0,0,1-20.9-7.1c-1.6-1.2-2.6-3.8-2.9-5.9s2.4-2.2,4-2.7,3.8-.4,5.7-0.9,3.3-.9,4-2a27,27,0,0,0,3.8-8.3c1.7-7.8,3-15.7,4.3-23.6s2.9-18.8,4.4-28.2a4.3,4.3,0,0,0-3.1-4.9c-9.5-3.5-18.2-8.3-26.9-13.6-3.4-2.1-5.9-5.4-9.8-6.6-1.9-.6-3.3-0.9-4.5,1.2a23.7,23.7,0,0,1-3.7,4.5c-5.2,5.4-5.6,7.8-2.4,14.6a16.9,16.9,0,0,1,.8,2.2c1.3,4.2-.3,6.1-4.6,4.8-8.2-2.4-14.7-7.2-18.8-14.8a7.4,7.4,0,0,1,0-5.9c0.4-.8,3.4-0.4,5.2-0.4a6.7,6.7,0,0,1,2.2.8c3,1.3,5.7.9,7.9-1.8l6.6-7.8c2.4-2.8,2.4-4.5-.3-7.3s-5.2-5.2-7.7-7.8-6.2-7.1-9.4-10.6-4.9-3.9-8.4-2.7c-6.9,2.4-13.9,4.8-20.9,6.9a146.1,146.1,0,0,0-35.8,15.9c-6,3.8-8.9,8.8-7.1,16.1,0.7,2.8.5,5.9,0.5,8.8a5.4,5.4,0,0,1-6.6,5.3,23.3,23.3,0,0,1-6.9-3.4c-6.9-4.9-11-12-15-19.2a42.7,42.7,0,0,1-5.5-21.6c0.1-5.8,4.8-9,9.7-6.1s6.7,5.5,10.3,8c1.4,1,3.6,2.1,5,1.6,5.1-1.6,10.3-3.3,14.9-6,6.1-3.6,11.6-8.1,17.2-12.4q13-10,25.7-20.4c3.4-2.7,3.2-4,1.5-7.9a115.6,115.6,0,0,1-5.6-15.2c-1.8-6.4-3-13-4.6-19.5-0.4-1.8-1.4-3.3-3.8-3s-7.7.7-11.5,1.4-4.4,1.8-4.9,4.9-1.6,4.6-2.4,6.9H69.9a10.5,10.5,0,0,0-.9-2.5c-4.9-7-4.3-14.8-2.9-22.5,0.3-1.6,1.9-3.8,3.4-4.1s3.4,1.2,4.3,3.4c2.7,6.4,3.3,6.7,10.3,6l8.1-1c2.3-.2,3.3-1.2,3.2-3.7-0.2-5.3-.2-10.7,0-16,0.2-7.1.3-14.2,3.3-21.5-3.3-2.2-6.4-4.8-10-6.7-8.9-4.7-17.8-9.4-26.9-13.6-5.6-2.5-11.4-5-17.7-5.2-3.7-.2-6.9.3-9.1,3.9a18.7,18.7,0,0,1-5,5c-3,2.1-5.1,1.2-6.6-2.2s-1-8.4-.4-12.7c1.1-8.2,3.9-15.5,10.1-21.2,3-2.7,6.5-2,7.6,2a38.7,38.7,0,0,1,1.1,8.4c0.1,2.5.9,4.2,3.3,5.4,6.1,3,12.5,4.3,19.1,5.3,13.2,2,26.4,3.5,39.7,2.9a4.2,4.2,0,0,0,2.9-1.9c3-5.8,5.5-11.9,8.7-17.5s6.3-9.5,9.3-14.4c0.6-.9,1-2.6.5-3.4a42.6,42.6,0,0,0-5.2-6.4c-5.4-5.5-12.5-9.3-19.9-3.3a5.3,5.3,0,0,1-1.6.7c-3.2,1.2-5.5-.3-6-3.7s1.4-5.7,2.6-8.5c3.7-8.2,9.3-14.1,17.8-17.4,2.4-.9,3.6-0.9,5,1.8s0.5,4.8-.3,7-2.4,6.7.2,9.2,8.3,6.8,12.6,10.1c2.4,1.9,4.4,1.2,6.5-1,6.8-7.4,14.1-14.4,22.6-20a4.4,4.4,0,0,0,2-2.9,22.2,22.2,0,0,0-1-6.9c-2.7-8-4.6-16.2-7.6-24.2a99.9,99.9,0,0,0-4.1-9.5,117.9,117.9,0,0,0-6-11c-2.1-3.3-4.9-5.5-9.4-4.8s-6.3,0-9.4.4-2.3-.1-2.8-1.7c-1.1-3.3-.4-6.1,2.2-8.9a48.8,48.8,0,0,1,16.1-11.5c4.8-2.1,9.9-4.1,15.5-2.7,3.1,0.8,4.6,3.3,3.2,6.1A24.7,24.7,0,0,1,154,72c-3,3.1-4.2,6.6-2.1,10.3A190.9,190.9,0,0,0,163.7,101c6,8.1,12.5,15.7,18.9,23.5,2.6,3.1,4.8,3.5,8.2,1.7a28.3,28.3,0,0,1,4.9-2.3l31.8-9c1.1-6.3-.2-12.9-1.5-19.5s-4.5-8.2-9.8-9a20.8,20.8,0,0,1-4.5-1.4c-3.7-1.5-4.2-4.3-2.1-7.6s3.5-2.5,5.5-3.6c10.4-5.6,21.2-5.7,32-2.3,4.8,1.5,7.1,5.6,2.9,9.1a24,24,0,0,1-6.2,3.9c-5,2-6.6,3.5-6.2,8.9s1.8,12.1,2.5,18.2c0.2,2.1,1.3,2.7,3.1,2.7h3.7c8.4,0.4,16.7,1,25.1,1.3,1.7,0.1,4.1-.6,4.9-1.7a147.5,147.5,0,0,0,8.8-15.3c4.1-8.2,8.2-16.3,11.6-24.8a231.4,231.4,0,0,0,7.5-24.2c0.7-2.6.3-5.5,0.1-8.3s-4.1-5.4-6.7-7.7-6-3.9-7.7-7.6-0.7-8.3,4.3-9.5c2.1-.5,4.1-1.2,6.2-1.8h7.5c2.8,0.4,5.6.6,8.4,1.2A70,70,0,0,1,342,26.7c2.9,2,5.3,4.2,6.6,7.7s-0.8,7.8-3.4,8.1c-4.7.7-9.4,1-14.1,1.7s-7.7,2.3-9.7,7.1c-5.6,13.8-6.6,28.4-8.9,42.8-1.3,8.3-1.3,16.7-1.9,25.1s-0.4,7.1,6.1,9.9l0.9,0.5c8.1,4.8,16.2,9.5,24.2,14.4,4.1,2.5,4,2.7,7.4-.9,0.8-.8,1.3-1.8,2.1-2.6,4.2-3.7,4.6-7,2.5-12.3-0.6-1.6-2.9-3.6-.3-5.8s4.3-1.7,6.5-.1,7,4.3,9.9,7.1,3.3,4.8,4.6,7.3a3.1,3.1,0,0,1-.7,2.9c-0.7.5-2-.1-3-0.2l-1.1,1.6c-4.5-2.9-7.9-3.8-10.6.3a66.9,66.9,0,0,1-6.1,8.3c-1.6,1.8-.9,2.5.4,3.8,8.1,8.3,16.8,16.2,23.1,26.1,1.8,2.8,4.2,3.1,7.1,2.3,4.5-1.3,9-2.3,13.4-3.9,9.4-3.5,18.9-7,28.1-11.1,5.8-2.6,9.4-7.1,7.4-14.2a15.5,15.5,0,0,1-.2-3.4c-0.2-4.4,3-6.8,6.5-4.2a44.3,44.3,0,0,1,10.5,10.7c3.9,5.8,6.7,12.3,6,19.7-0.3,2.8-2.3,4.1-4.7,3.5a12.2,12.2,0,0,1-5.8-3.3c-3.5-3.8-7.2-4.7-11.9-2.3-8.6,4.2-16.1,9.9-23.4,16L394,202.5c-1.7,1.4-2.8,2.9-1.8,5.3a117.4,117.4,0,0,1,4.4,12.1c2.2,7.9,4.1,16,6.3,23.9,0.3,1.2,2,2.9,2.9,2.8a154.9,154.9,0,0,0,17.9-1.5c4-.6,6.5-3.3,7.2-7.6a19.1,19.1,0,0,1,2.5-6.6c2.1-3.4,5.6-2.9,7.8.4a33.4,33.4,0,0,1,5.2,13.1c1.3,7.4,1.4,14.7-1.7,21.7-1.1,2.4-4.3,4.3-5.8,3.2a14.3,14.3,0,0,1-4.4-4.9c-3.7-8.3-5.5-9.5-14.9-8.2l-9.4,1.4c-4.7.8-5,1.4-5,6,0,10,0,20-2.3,29.9-0.4,1.7,1.4,4.8,3,5.8,5.7,3.4,11.7,6.3,17.6,9.3,10.4,5.2,20.8,10.4,32.1,13.3,6.8,1.7,13,2,17.4-5a29.8,29.8,0,0,1,5.3-5.7c2.4-2.2,6-2.2,6.8.1,1.6,4.6,4.3,9.1,3,14.4-0.6,2.4-1.2,4.9-1.6,7.3-1.6,9.3-5.1,17.7-12.6,23.8-1.6,1.3-6.8,1.2-7.1.4a37.1,37.1,0,0,1-2.8-12.3c-0.2-5.2-1.1-7.7-6.1-8.9-8.3-2.2-16.7-4.5-25.1-5.8-11.7-1.7-23.5-2.5-35.2-3.6-2.3-.2-3.7.5-4.8,3.1-4.3,9.7-9.2,19.2-15.8,27.6-1.5,2-2.1,4.4-.2,6.2,4.3,4.1,8.7,8,13.3,11.7s9.1,4.2,14,.8c1.3-.9,2.8-1.4,4.2-2.2s5.9-2.4,7.9-.3,2,5,1.6,7.4c-0.9,7-5.2,12.4-9.6,17.5s-8.1,9.4-14,11.5c-2.4.9-5.9,1.3-8,.2s-2.3-5.2-1.5-8a58.1,58.1,0,0,1,2.5-6.6c1.2-2.9,1.3-5.3-1.5-7.5-5.1-4-9.8-8.5-14.9-12.4s-5.4-3-8.6,0c-6.5,6.2-13.3,12-20.1,17.9-1.9,1.7-3.2,3.3-2.3,6.1,3,9.8,5.1,19.9,8.8,29.6s6.3,18.1,11.1,26.4,7.9,9.2,16.4,7.9a17.2,17.2,0,0,1,6.3.5c3.5,0.8,4.7,2.7,3.2,6s-2.8,6-5.2,7.8a104.9,104.9,0,0,1-18.1,10.9c-3.9,1.8-8.8,1.9-13.2,2s-6-2.8-4.3-6.6,2.5-5.4,4.6-6.9c4.4-3.1,4.6-8,2-12.4a237.5,237.5,0,0,0-15.3-23.2c-7.1-9.2-14.9-17.9-22.6-26.7-2.2-2.5-4.9-2.9-8.2-1.2a42.6,42.6,0,0,1-9.4,3.3c-6.8,1.7-13.7,3.1-20.5,5-1.5.4-3.6,2.5-3.6,3.7a84.7,84.7,0,0,0,1.7,15.5c0.4,1.8,2.6,3.5,4.3,4.6s4.2,1.1,6,2.1,3.7,2.5,3.7,3.7-1.7,3.6-3.3,4.3c-3.8,1.8-7.8,3.7-11.9,4.3-6.2.9-12.6,1.5-18.4-2.4-2.3-1.5-3.1-3.4-1.1-5.3s4.8-2.9,7.1-4.6,3.3-2.4,3.3-3.5c-0.1-5.8-.8-11.5-1.3-17.2-0.3-2.8-1.8-3.6-4.6-3.5-12.4.4-24.8,0-36.9-3-1.3-.3-3.6,1.1-4.6,2.4s-1.9,4.1-2.8,6.1c-5,11.7-10.1,23.4-14.9,35.2-1.6,4-2.4,8.5-3.2,12.8s0,7,3.2,9.5l6.9,5.7ZM260.9,351a16.4,16.4,0,0,1-3.1,1.3c-10.3,1.3-16.7,12.4-12.4,21.8,3.5,7.7,11.6,9.5,18.3,7.9a13.9,13.9,0,0,0,10.3-15.2c-0.5-4.1-1.1-8.3-1.4-12.4a3.1,3.1,0,0,1,1.8-2.3c7.7-2.7,9.3-15.8,4.2-21s-8.6-5.5-13.8-4.1-8.6,4.4-9.5,9.6S254.7,347.2,260.9,351Zm-91.3-5.1-1.1,2.9c-2.3,6.3.1,11.7,6.4,14.1,4.7,1.8,8.4.4,12-4.5,2.3-3.1,1.9-8.4-.9-11.7s-5.8-4.9-.5-7.9a0.9,0.9,0,0,0,.1-0.3c5.3-9.2,1-22.1-11.8-23-5.8-.4-13.5,3.9-15.3,8.8a16.4,16.4,0,0,0,5.3,17.8C165.5,343.4,167.5,344.5,169.6,345.8Zm106.1-165c-6.7-1.2-11.3,3.3-13.3,7.3s-1.5,10.5,2.3,14.9,7.8,4.6,12.7,4.3c1.9-.1,3.8.1,5.7,0.1s5,0.3,7.2-.3c8.2-2.4,12.3-10.6,9.3-19.1s-9.6-10.9-17.9-8.4C279.7,180.2,277.7,180.4,275.7,180.8Zm56.7,19.8c-0.4,5.1.1,9.2,5.9,10.8,3.7,1.1,9.8-.5,11.3-4.1s-0.5-10.7-4.4-11.8-4-2.1-3.3-5.5a11.9,11.9,0,0,0-6.8-13.2c-3.9-1.8-10.6-.2-13.9,2.8s-4,9-2.7,14c0.7,2.7,5.5,6.6,8.1,6.7Zm-85.9,31.6c-9,.1-14.1,3.5-13.5,17.2,0.3,5.3,5.9,10.2,14,10.2a14.5,14.5,0,0,0,8.5-3.3c4.3-3.5,4.7-8.6,4.1-14.1S253.5,232.2,246.5,232.2ZM204.1,376c6.7,0.1,13.5-6.7,13.2-13.7s-5.1-13.8-13.2-14.1S189.7,354,189.5,361,195.2,376.3,204.1,376Zm35.2-223.6c-6.7-.2-12.3,5.5-13,12.2s7.1,14.6,13.1,14.9,14.4-6.2,14.4-13C254,158.3,248.3,152.8,239.3,152.4Zm-48.7,23.7c-0.4,7.7,5.1,13.9,12.9,14.7,4.2,0.4,13.1-6.2,12.9-11.8-0.4-9.5-3-13.7-11.6-14.7S190.4,168.1,190.6,176.1Zm80.7,129.2c8.1-.3,12.9-5,12.6-12.4a12.1,12.1,0,0,0-12.6-11.6c-7.5.3-11.2,6.2-11.4,12.1S265.3,305.6,271.3,305.3ZM369.4,231c-0.1-8.5-4.9-11.1-12.5-11.5-4.3-.2-10.1,7-10.1,12.2s5.8,11.2,11.8,11.1S369.4,237.7,369.4,231ZM292,375.1c-1.3,9,5.7,11.4,12.1,11.7,4.4,0.3,10.1-6.4,9.9-11.6-0.3-7.4-4.6-10.9-11.1-11.4S291.9,368.1,292,375.1Zm-78.1-98a10.7,10.7,0,0,0-11.2-10.7c-6.1.1-10.5,4.3-10.8,10.8s5.4,11.3,13.1,11.2C209.1,288.3,213.8,282.4,213.9,277Zm-79.4-17.2a10.4,10.4,0,0,0,10.3,10.4c5.6,0,11.1-5.1,11.1-10.4S149.9,249,145,249.3,135,252.6,134.4,259.8Zm194.3,41.7c4-.1,8.9-5.5,9-10s-5.1-9.7-11.3-10-9.7,4.9-9.7,10.6S321.6,301.6,328.8,301.5Zm-184.1,6c0.1-5.1-3.6-9.9-7.8-9.8-8.3.1-12.3,1.9-12.3,10.9,0,4.8,4.3,9,9.5,9.1A10.2,10.2,0,0,0,144.7,307.5Zm75.1-103.4c5.8,0.1,8.8-3.2,8.8-9.6,0-3.5-4.4-7.4-8.4-7.4s-9,3.7-9.1,8.6S214.8,204,219.8,204.1Z" transform="translate(-22.2 -14.7)"/>
</svg>
