<?xml version="1.0" encoding="utf-8"?>
<!-- Generator: Adobe Illustrator 19.2.1, SVG Export Plug-In . SVG Version: 6.00 Build 0)  -->
<svg version="1.1" id="Calque_1" xmlns="http://www.w3.org/2000/svg" xmlns:xlink="http://www.w3.org/1999/xlink" x="0px" y="0px"
	 viewBox="0 0 466.2 482.9" style="enable-background:new 0 0 466.2 482.9;" xml:space="preserve">
<style type="text/css">
	.st0{fill:#870F0F;}
</style>
<title>corona_files</title>
<path class="st0" d="M137.9,640.9h-3.3c-0.6-0.7-1.3-1.2-2.2-1.5c-12.5-0.1-24.6-4.2-34.6-11.7c-2.6-2-4.3-6.3-4.8-9.8
	c-0.5-3.5,4-3.6,6.6-4.5c2.6-0.8,6.3-0.7,9.4-1.5s5.5-1.5,6.6-3.3c2.9-4.2,5-8.8,6.3-13.7c2.8-12.9,5-26,7.1-39
	c2.2-13.1,4.8-31.1,7.3-46.7c0.6-3.6-1.6-7.1-5.1-8.1c-15.7-5.8-30.1-13.7-44.5-22.5c-5.6-3.5-9.8-8.9-16.2-10.9
	c-3.1-1-5.5-1.5-7.4,2c-1.7,2.7-3.8,5.2-6.1,7.4c-8.6,8.9-9.3,12.9-4,24.2c0.5,1.2,1,2.4,1.3,3.6c2.2,6.9-0.5,10.1-7.6,7.9
	c-13.6-4-24.3-11.9-31.1-24.5c-1.4-3.1-1.4-6.6,0-9.8c0.7-1.3,5.6-0.7,8.6-0.7c1.3,0.2,2.5,0.7,3.6,1.3c5,2.2,9.4,1.5,13.1-3
	l10.9-12.9c4-4.6,4-7.4-0.5-12.1c-4.5-4.6-8.6-8.6-12.7-12.9c-4.1-4.3-10.3-11.7-15.6-17.5c-5.3-5.8-8.1-6.5-13.9-4.5
	c-11.4,4-23,7.9-34.6,11.4c-20.8,6.1-40.8,14.9-59.2,26.3c-9.9,6.3-14.7,14.6-11.7,26.6c1.2,4.6,0.8,9.8,0.8,14.6c0,4.9-3.9,9-8.9,9
	c-0.7,0-1.4-0.1-2-0.2c-4.1-1.2-7.9-3.1-11.4-5.6c-11.4-8.1-18.2-19.9-24.8-31.8c-6.1-10.9-9.3-23.2-9.1-35.7
	c0.2-9.6,7.9-14.9,16-10.1s11.1,9.1,17,13.2c2.3,1.7,6,3.5,8.3,2.6c8.4-2.6,17-5.5,24.7-9.9c10.1-6,19.2-13.4,28.5-20.5
	c14.3-11,28.5-22.3,42.5-33.7c5.6-4.5,5.3-6.6,2.5-13.1c-3.7-8.2-6.8-16.6-9.3-25.1c-3-10.6-5-21.5-7.6-32.3c-0.7-3-2.3-5.5-6.3-5
	c-4,0.5-12.7,1.2-19,2.3c-6.3,1.2-7.3,3-8.1,8.1c-0.8,5.1-2.6,7.6-4,11.4h-7.1c-0.3-1.4-0.8-2.8-1.5-4.1
	c-8.1-11.6-7.1-24.5-4.8-37.2c0.5-2.6,3.1-6.3,5.6-6.8c2.5-0.5,5.6,2,7.1,5.6c4.5,10.6,5.5,11.1,17,9.9l13.4-1.7
	c3.8-0.3,5.5-2,5.3-6.1c-0.3-8.8-0.3-17.7,0-26.5c0.3-11.7,0.5-23.5,5.5-35.6c-5.5-3.6-10.6-7.9-16.5-11.1
	c-14.7-7.8-29.4-15.6-44.5-22.5c-9.3-4.1-18.9-8.3-29.3-8.6c-6.1-0.3-11.4,0.5-15.1,6.5c-2.2,3.3-5,6.1-8.3,8.3
	c-5,3.5-8.4,2-10.9-3.6s-1.7-13.9-0.7-21c1.8-13.6,6.5-25.6,16.7-35.1c5-4.5,10.8-3.3,12.6,3.3c1.1,4.6,1.7,9.2,1.8,13.9
	c0.2,4.1,1.5,6.9,5.5,8.9c10.1,5,20.7,7.1,31.6,8.8c21.8,3.3,43.7,5.8,65.7,4.8c2-0.3,3.7-1.5,4.8-3.1c5-9.6,9.1-19.7,14.4-29
	c5.3-9.3,10.4-15.7,15.4-23.8c1-1.5,1.7-4.3,0.8-5.6c-2.5-3.8-5.4-7.3-8.6-10.6c-8.9-9.1-20.7-15.4-32.9-5.5
	c-0.8,0.5-1.7,0.9-2.6,1.2c-5.3,2-9.1-0.5-9.9-6.1c-0.8-5.6,2.3-9.4,4.3-14.1c6.1-13.6,15.4-23.3,29.4-28.8c4-1.5,6-1.5,8.3,3
	s0.8,7.9-0.5,11.6c-1.3,3.6-4,11.1,0.3,15.2s13.7,11.2,20.8,16.7c4,3.1,7.3,2,10.8-1.7c11.2-12.2,23.3-23.8,37.4-33.1
	c1.7-1.1,2.9-2.8,3.3-4.8c0.1-3.9-0.5-7.7-1.7-11.4c-4.5-13.2-7.6-26.8-12.6-40c-2-5.4-4.3-10.6-6.8-15.7c-3-6.2-6.3-12.3-9.9-18.2
	c-3.5-5.5-8.1-9.1-15.6-7.9c-7.4,1.2-10.4,0-15.6,0.7s-3.8-0.2-4.6-2.8c-1.8-5.5-0.7-10.1,3.6-14.7c7.5-8.1,16.6-14.6,26.6-19
	c7.9-3.5,16.4-6.8,25.6-4.5c5.1,1.3,7.6,5.5,5.3,10.1c-1.9,3.6-4.3,6.9-7.1,9.8c-5,5.1-6.9,10.9-3.5,17c5.9,10.7,12.4,21,19.5,30.9
	c9.9,13.4,20.7,26,31.3,38.9c4.3,5.1,7.9,5.8,13.6,2.8c2.6-1.5,5.3-2.8,8.1-3.8L187,7.8c1.8-10.4-0.3-21.3-2.5-32.3
	c-2.2-10.9-7.4-13.6-16.2-14.9c-2.6-0.5-5.1-1.3-7.4-2.3c-6.1-2.5-6.9-7.1-3.5-12.6s5.8-4.1,9.1-6c17.2-9.3,35.1-9.4,52.9-3.8
	c7.9,2.5,11.7,9.3,4.8,15.1c-3.1,2.7-6.5,4.8-10.3,6.5c-8.3,3.3-10.9,5.8-10.3,14.7c0.7,8.9,3,20,4.1,30.1c0.3,3.5,2.2,4.5,5.1,4.5
	h6.1c13.9,0.7,27.6,1.7,41.5,2.2c2.8,0.2,6.8-1,8.1-2.8c5.4-8.1,10.2-16.6,14.6-25.3c6.8-13.6,13.6-27,19.2-41
	c4.9-13.1,9-26.5,12.4-40c1.2-4.3,0.5-9.1,0.2-13.7s-6.8-8.9-11.1-12.7c-4.3-3.8-9.9-6.5-12.7-12.6c-2.8-6.1-1.2-13.7,7.1-15.7
	c3.5-0.8,6.8-2,10.3-3H321c4.6,0.7,9.3,1,13.9,2c14.9,3.2,29,9.2,41.5,17.9c4.8,3.3,8.8,6.9,10.9,12.7s-1.3,12.9-5.6,13.4
	c-7.8,1.2-15.6,1.7-23.3,2.8s-12.7,3.8-16,11.7c-9.3,22.8-10.9,47-14.7,70.8c-2.2,13.7-2.2,27.6-3.1,41.5s-0.7,11.7,10.1,16.4
	l1.5,0.8c13.4,7.9,26.8,15.7,40,23.8c6.8,4.1,6.6,4.5,12.2-1.5c1.3-1.3,2.2-3,3.5-4.3c6.9-6.1,7.6-11.6,4.1-20.3
	c-1-2.6-4.8-6-0.5-9.6s7.1-2.8,10.8-0.2s11.6,7.1,16.4,11.7c4.8,4.6,5.5,7.9,7.6,12.1c0.5,1.7,0,3.5-1.2,4.8c-1.2,0.8-3.3-0.2-5-0.3
	l-1.8,2.6c-7.4-4.8-13.1-6.3-17.5,0.5c-3,4.8-6.4,9.4-10.1,13.7c-2.6,3-1.5,4.1,0.7,6.3c13.4,13.7,27.8,26.8,38.2,43.2
	c3,4.6,6.9,5.1,11.7,3.8c7.4-2.2,14.9-3.8,22.2-6.5c15.6-5.8,31.3-11.6,46.5-18.4c9.6-4.3,15.6-11.7,12.2-23.5
	c-0.3-1.9-0.4-3.7-0.3-5.6c-0.3-7.3,5-11.2,10.8-6.9c6.8,4.9,12.6,10.9,17.4,17.7c6.5,9.6,11.1,20.3,9.9,32.6
	c-0.5,4.6-3.8,6.8-7.8,5.8c-3.6-0.9-7-2.8-9.6-5.5c-5.8-6.3-11.9-7.8-19.7-3.8c-14.2,6.9-26.6,16.4-38.7,26.5l-25.6,21.8
	c-2.8,2.3-4.6,4.8-3,8.8c2.8,6.5,5.2,13.2,7.3,20c3.6,13.1,6.8,26.5,10.4,39.5c0.5,2,3.3,4.8,4.8,4.6c9.9-0.3,19.8-1.1,29.6-2.5
	c6.6-1,10.8-5.5,11.9-12.6c0.7-3.9,2.1-7.6,4.1-10.9c3.5-5.6,9.3-4.8,12.9,0.7c4.4,6.5,7.3,13.9,8.6,21.7
	c2.2,12.2,2.3,24.3-2.8,35.9c-1.8,4-7.1,7.1-9.6,5.3c-3-2.1-5.5-4.9-7.3-8.1c-6.1-13.7-9.1-15.7-24.7-13.6l-15.6,2.3
	c-7.8,1.3-8.3,2.3-8.3,9.9c0,16.5,0,33.1-3.8,49.5c-0.7,2.8,2.3,7.9,5,9.6c9.4,5.6,19.4,10.4,29.1,15.4c17.2,8.6,34.4,17.2,53.1,22
	c11.2,2.8,21.5,3.3,28.8-8.3c2.5-3.5,5.4-6.7,8.8-9.4c4-3.6,9.9-3.6,11.2,0.2c2.6,7.6,7.1,15.1,5,23.8c-1,4-2,8.1-2.6,12.1
	c-2.6,15.4-8.4,29.3-20.8,39.4c-2.6,2.2-11.2,2-11.7,0.7c-2.7-6.5-4.3-13.4-4.6-20.3c-0.3-8.6-1.8-12.7-10.1-14.7
	c-13.7-3.6-27.6-7.4-41.5-9.6c-19.4-2.8-38.9-4.1-58.2-6c-3.8-0.3-6.1,0.8-7.9,5.1c-7.1,16-15.2,31.8-26.1,45.7
	c-2.5,3.3-3.5,7.3-0.3,10.3c7.1,6.8,14.4,13.2,22,19.4c7.6,6.1,15.1,6.9,23.2,1.3c2.2-1.5,4.6-2.3,6.9-3.6c2.3-1.3,9.8-4,13.1-0.5
	c3.3,3.5,3.3,8.3,2.6,12.2c-1.5,11.6-8.6,20.5-15.9,29c-7.3,8.4-13.4,15.6-23.2,19c-4,1.5-9.8,2.2-13.2,0.3
	c-3.5-1.8-3.8-8.6-2.5-13.2c1.2-3.7,2.5-7.4,4.1-10.9c2-4.8,2.2-8.8-2.5-12.4c-8.4-6.6-16.2-14.1-24.7-20.5c-8.4-6.5-8.9-5-14.2,0
	c-10.8,10.3-22,19.9-33.3,29.6c-3.1,2.8-5.3,5.5-3.8,10.1c5,16.2,8.4,32.9,14.6,49c6.1,16,10.4,29.9,18.4,43.7
	c7.9,13.7,13.1,15.2,27.1,13.1c3.5-0.4,7-0.1,10.4,0.8c5.8,1.3,7.8,4.5,5.3,9.9c-2.5,5.5-4.6,9.9-8.6,12.9c-9.3,7-19.4,13-29.9,18
	c-6.5,3-14.6,3.1-21.8,3.3c-7.3,0.2-9.9-4.6-7.1-10.9s4.1-8.9,7.6-11.4c7.3-5.1,7.6-13.2,3.3-20.5c-7.7-13.3-16.1-26.1-25.3-38.4
	c-11.7-15.2-24.7-29.6-37.4-44.2c-3.6-4.1-8.1-4.8-13.6-2c-5,2.4-10.2,4.3-15.6,5.5c-11.2,2.8-22.7,5.1-33.9,8.3
	c-2.5,0.7-6,4.1-6,6.1c0.1,8.6,1.1,17.2,2.8,25.6c0.7,3,4.3,5.8,7.1,7.6s6.9,1.8,9.9,3.5c3,1.7,6.1,4.1,6.1,6.1c0,2-2.8,6-5.5,7.1
	c-6.3,3-12.9,6.1-19.7,7.1c-10.3,1.5-20.8,2.5-30.4-4c-3.8-2.5-5.1-5.6-1.8-8.8c3.3-3.1,7.9-4.8,11.7-7.6c3.8-2.8,5.5-4,5.5-5.8
	c-0.2-9.6-1.3-19-2.2-28.5c-0.5-4.6-3-6-7.6-5.8c-20.5,0.7-41,0-61-5c-2.2-0.5-6,1.8-7.6,4c-1.7,2.2-3.1,6.8-4.6,10.1
	c-8.3,19.4-16.7,38.7-24.7,58.2c-2.6,6.6-4,14.1-5.3,21.2c-1.3,7.1,0,11.6,5.3,15.7l11.4,9.4L137.9,640.9z M242.3,398.4
	c-1.6,0.9-3.3,1.6-5.1,2.2c-17,2.2-27.6,20.5-20.5,36.1c5.8,12.7,19.2,15.7,30.3,13.1c11.2-2.9,18.5-13.7,17-25.1
	c-0.8-6.8-1.8-13.7-2.3-20.5c0.3-1.7,1.4-3.1,3-3.8c12.7-4.5,15.4-26.1,6.9-34.7c-8.4-8.6-14.2-9.1-22.8-6.8
	c-8.6,2.3-14.2,7.3-15.7,15.9C231.5,383.1,232,392.1,242.3,398.4z M91.2,389.9l-1.8,4.8c-3.8,10.4,0.2,19.4,10.6,23.3
	c7.8,3,13.9,0.7,19.9-7.4c3.8-5.1,3.1-13.9-1.5-19.4c-4.6-5.5-9.6-8.1-0.8-13.1c0.1-0.2,0.1-0.3,0.2-0.5
	c8.8-15.2,1.7-36.6-19.5-38.1c-9.6-0.7-22.3,6.5-25.3,14.6c-3.5,10.7,0,22.4,8.8,29.4c2.8,2.2,6.1,4,9.6,6.1L91.2,389.9z M266.8,117
	c-11.1-2-18.7,5.5-22,12.1c-3.3,6.6-2.5,17.4,3.8,24.7c6.3,7.3,12.9,7.6,21,7.1c3.1-0.2,6.3,0.2,9.4,0.2c3.1,0,8.3,0.5,11.9-0.5
	c13.6-4,20.3-17.5,15.4-31.6s-15.9-18-29.6-13.9c-3.3,0.8-6.6,1.2-9.9,1.8L266.8,117z M360.6,149.7c-0.7,8.4,0.2,15.2,9.8,17.9
	c6.1,1.8,16.2-0.8,18.7-6.8s-0.8-17.7-7.3-19.5c-6.5-1.8-6.6-3.5-5.5-9.1c1.8-9-2.9-18.1-11.2-21.8c-6.5-3-17.5-0.3-23,4.6
	c-5.5,5-6.6,14.9-4.5,23.2c1.2,4.5,9.1,10.9,13.4,11.1L360.6,149.7z M218.5,202c-14.9,0.2-23.3,5.8-22.3,28.5
	c0.5,8.8,9.8,16.9,23.2,16.9c5.2-0.3,10.1-2.2,14.1-5.5c7.1-5.8,7.8-14.2,6.8-23.3c-1-9.1-10.1-16.7-21.7-16.7V202z M148.3,439.7
	c11.1,0.2,22.3-11.1,21.8-22.7s-8.4-22.8-21.8-23.3c-13.4-0.5-23.8,9.6-24.2,21.2S133.6,440.2,148.3,439.7z M206.5,69.8
	c-11.1-0.3-20.3,9.1-21.5,20.2s11.7,24.2,21.7,24.7c9.9,0.5,23.8-10.3,23.8-21.5C230.9,79.6,221.4,70.5,206.5,69.8z M126,109
	c-0.7,12.7,8.4,23,21.3,24.3c6.9,0.7,21.7-10.3,21.3-19.5c-0.7-15.7-5-22.7-19.2-24.3S125.6,95.8,126,109L126,109z M259.5,322.8
	c13.4-0.5,21.3-8.3,20.8-20.5c-0.4-11-9.8-19.6-20.8-19.2c0,0,0,0,0,0c-12.4,0.5-18.5,10.3-18.9,20
	C240.3,312.8,249.6,323.3,259.5,322.8z M421.8,199.8c-0.2-14.1-8.1-18.4-20.7-19c-7.1-0.3-16.7,11.6-16.7,20.2s9.6,18.5,19.5,18.4
	C413.8,219.2,421.8,210.9,421.8,199.8z M293.7,438.2c-2.2,14.9,9.4,18.9,20,19.4c7.3,0.5,16.7-10.6,16.4-19.2
	c-0.5-12.2-7.6-18-18.4-18.9C301,418.7,293.6,426.7,293.7,438.2z M164.5,276.1c0-9.8-7.9-17.7-17.7-17.7c-0.3,0-0.6,0-0.8,0
	c-10.1,0.2-17.4,7.1-17.9,17.9c-0.5,10.8,8.9,18.7,21.7,18.5c6.8-0.2,14.6-9.9,14.7-18.9V276.1z M33.2,247.7c0,9.4,7.6,17.1,17,17.2
	c9.3,0,18.4-8.4,18.4-17.2c0-8.8-9.9-18-18-17.5S34,235.6,33,247.5L33.2,247.7z M354.6,316.6c6.6-0.2,14.7-9.1,14.9-16.5
	c0.2-7.4-8.4-16-18.7-16.5c-10.3-0.5-16,8.1-16,17.5c0,9.4,7.9,15.6,19.9,15.4V316.6z M50,326.6c0.2-8.4-6-16.4-12.9-16.2
	c-13.7,0.2-20.3,3.1-20.3,18c0,7.9,7.1,14.9,15.7,15.1c9.3,0.4,17.2-6.9,17.5-16.2c0-0.3,0-0.6,0-0.8L50,326.6z M174.3,155.5
	c9.6,0.2,14.6-5.3,14.6-15.9c0-5.8-7.3-12.2-13.9-12.2c-6.6,0-14.9,6.1-15.1,14.2s6.1,13.6,14.4,13.7L174.3,155.5z"/>
</svg>
